<svg width="15" height="16" viewBox="0 0 15 16" fill="none" xmlns="http://www.w3.org/2000/svg">
<path d="M6.62988 5.37256C6.44312 4.946 5.74277 4.946 5.55586 5.37256L3.91523 9.12256C3.78568 9.41904 3.92073 9.76445 4.21729 9.89424C4.51436 10.0233 4.85918 9.88829 4.98896 9.59219L5.14392 9.23799C5.15039 9.26318 5.15332 9.26611 5.15625 9.26611H7.03125C7.0352 9.26611 7.03852 9.26388 7.04246 9.26383L7.19742 9.61802C7.26855 9.8374 7.50879 9.96924 7.73438 9.96924C7.81266 9.96924 7.89231 9.95367 7.96875 9.92025C8.26523 9.79023 8.40029 9.44506 8.2708 9.14857L6.62988 5.37256ZM5.65723 8.09424L6.09375 7.09521L6.53027 8.09424H5.65723ZM9.84375 5.04736C9.52002 5.04736 9.25781 5.30966 9.25781 5.6333V9.3833C9.25781 9.70703 9.52011 9.96924 9.84375 9.96924C10.1674 9.96924 10.4297 9.70694 10.4297 9.3833V5.6333C10.4297 5.28467 10.166 5.04736 9.84375 5.04736ZM14.2969 8.21143C14.6865 8.21143 15 7.89795 15 7.5083C15 7.11865 14.6851 6.80518 14.2969 6.80518H13.125V5.39893H14.2969C14.6865 5.39893 15 5.08545 15 4.6958C15 4.30615 14.6851 3.99268 14.2969 3.99268H13.125V3.7583C13.125 2.72266 12.2856 1.8833 11.25 1.8833H11.0156V0.711426C11.0156 0.323242 10.7021 0.00830078 10.3125 0.00830078C9.92285 0.00830078 9.60938 0.323242 9.60938 0.711426V1.8833H8.20312V0.711426C8.20312 0.323242 7.88965 0.00830078 7.5 0.00830078C7.11035 0.00830078 6.79688 0.323242 6.79688 0.711426V1.8833H5.39062V0.711426C5.39062 0.323242 5.07715 0.00830078 4.6875 0.00830078C4.29785 0.00830078 3.98438 0.323242 3.98438 0.711426V1.8833H3.75C2.71436 1.8833 1.875 2.72266 1.875 3.7583V3.99268H0.703125C0.314941 3.99268 0 4.30908 0 4.6958C0 5.08252 0.314941 5.39893 0.703125 5.39893H1.875V6.80518H0.703125C0.314941 6.80518 0 7.12158 0 7.5083C0 7.89502 0.314941 8.21143 0.703125 8.21143H1.875V9.61768H0.703125C0.314941 9.61768 0 9.93408 0 10.3208C0 10.7075 0.314941 11.0239 0.703125 11.0239H1.875V11.2583C1.875 12.2939 2.71436 13.1333 3.75 13.1333H3.98438V14.3052C3.98438 14.6948 4.30078 15.0083 4.6875 15.0083C5.07422 15.0083 5.39062 14.6934 5.39062 14.3052V13.1333H6.79688V14.3052C6.79688 14.6948 7.11328 15.0083 7.5 15.0083C7.88672 15.0083 8.20312 14.6934 8.20312 14.3052V13.1333H9.60938V14.3052C9.60938 14.6934 9.92432 15.0083 10.3125 15.0083C10.7007 15.0083 11.0156 14.6934 11.0156 14.3052V13.1333H11.25C12.2856 13.1333 13.125 12.2939 13.125 11.2583V11.0239H14.2969C14.6851 11.0239 15 10.709 15 10.3208C15 9.93262 14.6851 9.61768 14.2969 9.61768H13.125V8.21143H14.2969ZM11.7188 11.2583C11.7188 11.5168 11.5085 11.7271 11.25 11.7271H3.75C3.49154 11.7271 3.28125 11.5168 3.28125 11.2583V3.7583C3.28125 3.49984 3.49154 3.28955 3.75 3.28955H11.25C11.5085 3.28955 11.7188 3.49984 11.7188 3.7583V11.2583Z" fill="#E9F1F7"/>
</svg>
