<svg width="17" height="20" viewBox="0 0 17 20" fill="none" xmlns="http://www.w3.org/2000/svg">
<path d="M9.30714 13.3342L11.1893 15.2899C11.4143 15.52 11.4143 15.8985 11.1893 16.1286C10.9679 16.3624 10.6036 16.3624 10.3821 16.1286L8.5 14.1729L6.61786 16.1286C6.39643 16.3624 6.03214 16.3624 5.81071 16.1286C5.58571 15.8985 5.58571 15.52 5.81071 15.2899L7.69286 13.3342L5.81071 11.3786C5.58571 11.1485 5.58571 10.77 5.81071 10.5399C6.03214 10.3061 6.39643 10.3061 6.61786 10.5399L8.5 12.4956L10.3821 10.5399C10.6036 10.3061 10.9679 10.3061 11.1893 10.5399C11.4143 10.77 11.4143 11.1485 11.1893 11.3786L9.30714 13.3342ZM5.07143 3.24048H11.9286V1.45923C11.9286 1.13133 12.1857 0.865479 12.5 0.865479C12.8143 0.865479 13.0714 1.13133 13.0714 1.45923V3.24048H14.2143C15.475 3.24048 16.5 4.30366 16.5 5.61548V17.4905C16.5 18.8004 15.475 19.8655 14.2143 19.8655H2.78571C1.52321 19.8655 0.5 18.8004 0.5 17.4905V5.61548C0.5 4.30366 1.52321 3.24048 2.78571 3.24048H3.92857V1.45923C3.92857 1.13133 4.18571 0.865479 4.5 0.865479C4.81429 0.865479 5.07143 1.13133 5.07143 1.45923V3.24048ZM1.64286 17.4905C1.64286 18.1473 2.15464 18.678 2.78571 18.678H14.2143C14.8464 18.678 15.3571 18.1473 15.3571 17.4905V7.99048H1.64286V17.4905ZM1.64286 5.61548V6.80298H15.3571V5.61548C15.3571 4.95864 14.8464 4.42798 14.2143 4.42798H2.78571C2.15464 4.42798 1.64286 4.95864 1.64286 5.61548Z" fill="white"/>
</svg>
