<svg width="26" height="23" viewBox="0 0 26 23" fill="none" xmlns="http://www.w3.org/2000/svg">
<path d="M9.52778 9.16235C8.95486 9.16235 8.48611 9.62642 8.48611 10.1936L8.48611 21.6233C8.48611 22.1926 8.95269 22.6545 9.52777 22.6545C10.1029 22.6545 10.5694 22.1926 10.5694 21.6233L10.5694 10.1936C10.5694 9.62642 10.105 9.16235 9.52778 9.16235ZM2.58333 16.0374C2.00824 16.0374 1.54166 16.4993 1.54166 17.0686L1.54166 21.8811C1.54166 22.4526 2.00824 22.9124 2.58333 22.9124C3.15842 22.9124 3.625 22.4504 3.625 21.8811L3.625 17.0686C3.625 16.5014 3.15842 16.0374 2.58333 16.0374ZM23.4167 0.912357C22.2665 0.912357 21.3333 1.83618 21.3333 2.97486C21.3333 3.07691 21.3496 3.17896 21.3659 3.28101L17.2261 6.55738C16.9931 6.46822 16.737 6.41236 16.4722 6.41236C16.2075 6.41236 15.9514 6.46607 15.7179 6.55738L11.5807 3.28079C11.5937 3.17896 11.6111 3.07712 11.6111 2.97486C11.6111 1.83618 10.678 0.912355 9.52778 0.912355C8.3776 0.912355 7.44444 1.83618 7.44444 2.97485C7.44444 3.15747 7.477 3.33472 7.5204 3.50122L3.11502 7.86255C2.94661 7.82173 2.76779 7.78735 2.58333 7.78735C1.43316 7.78735 0.499999 8.71118 0.499999 9.84985C0.499998 10.9885 1.43316 11.9124 2.58333 11.9124C3.73351 11.9124 4.66667 10.9885 4.66667 9.84985C4.66667 9.66724 4.63411 9.48999 4.59071 9.32349L8.99609 4.96216C9.16319 5.00513 9.34549 5.03735 9.52778 5.03735C9.79362 5.03735 10.0486 4.98364 10.2821 4.89234L14.4219 8.1687C14.4062 8.2729 14.3889 8.37173 14.3889 8.47486C14.3889 9.61353 15.322 10.5374 16.4722 10.5374C17.6224 10.5374 18.5556 9.61353 18.5556 8.47486C18.5556 8.37281 18.5393 8.27075 18.523 8.1687L22.6628 4.89234C22.8958 4.98365 23.1519 5.03736 23.4167 5.03736C24.5668 5.03736 25.5 4.11353 25.5 2.97486C25.5 1.83619 24.5668 0.912357 23.4167 0.912357ZM16.4722 14.6624C15.8971 14.6624 15.4306 15.1243 15.4306 15.6936L15.4306 21.6792C15.4306 22.2485 15.8971 22.7104 16.4722 22.7104C17.0473 22.7104 17.5139 22.2485 17.5139 21.6792L17.5139 15.6936C17.5139 15.1264 17.0495 14.6624 16.4722 14.6624ZM23.4167 9.16236C22.8416 9.16236 22.375 9.62427 22.375 10.1936L22.375 21.8768C22.375 22.4461 22.8416 22.9081 23.4167 22.9081C23.9917 22.9081 24.4583 22.4461 24.4583 21.8768L24.4583 10.1936C24.4583 9.62642 23.9939 9.16236 23.4167 9.16236Z" fill="#3F6587"/>
</svg>
