<svg width="20" height="14" viewBox="0 0 20 14" fill="none" xmlns="http://www.w3.org/2000/svg">
<path d="M9.65736 9.73708C9.73005 9.73708 9.80272 9.75166 9.8754 9.78081C9.94808 9.80413 10.0177 9.84787 10.0844 9.912L11.3018 11.1452C10.7688 11.8158 10.0995 12.3231 9.29396 12.6671C8.49448 13.0053 7.54661 13.1744 6.45036 13.1744C5.44495 13.1744 4.5425 13.0111 3.74302 12.6846C2.9496 12.3522 2.27428 11.8974 1.71707 11.3202C1.16591 10.7371 0.741942 10.049 0.445165 9.25603C0.148389 8.4572 0 7.59132 0 6.65838C0 5.70795 0.169587 4.83623 0.508761 4.04323C0.847934 3.2444 1.32035 2.55636 1.92602 1.9791C2.53775 1.40185 3.26757 0.952868 4.11551 0.63217C4.96344 0.311472 5.8992 0.151123 6.92278 0.151123C7.41942 0.151123 7.88579 0.194855 8.32187 0.282318C8.76401 0.363949 9.17586 0.480567 9.55743 0.63217C9.939 0.777942 10.2903 0.955784 10.6113 1.16569C10.9323 1.36978 11.217 1.59718 11.4653 1.84791L10.4296 3.18609C10.363 3.26772 10.2842 3.34353 10.1934 3.4135C10.1025 3.47764 9.97534 3.50971 9.81181 3.50971C9.70279 3.50971 9.59983 3.48638 9.50292 3.43974C9.40601 3.39309 9.30305 3.3377 9.19403 3.27356C9.08501 3.20359 8.96388 3.1307 8.83063 3.0549C8.70344 2.97327 8.54899 2.90038 8.36729 2.83624C8.19165 2.76627 7.98269 2.70796 7.74043 2.66131C7.50422 2.61467 7.22561 2.59134 6.90461 2.59134C6.34739 2.59134 5.83863 2.68755 5.37832 2.87997C4.91802 3.06656 4.52131 3.33769 4.18819 3.69338C3.86113 4.04323 3.60372 4.46888 3.41596 4.97034C3.23426 5.4718 3.14341 6.03447 3.14341 6.65838C3.14341 7.31144 3.23426 7.89161 3.41596 8.39889C3.60372 8.90618 3.85507 9.33475 4.17002 9.6846C4.49102 10.0286 4.86351 10.291 5.28748 10.4718C5.71144 10.6525 6.16569 10.7429 6.65023 10.7429C6.92883 10.7429 7.18321 10.7312 7.41337 10.7079C7.64352 10.6788 7.8555 10.6321 8.04932 10.568C8.24919 10.5038 8.43694 10.4222 8.61259 10.3231C8.79429 10.2181 8.97599 10.0898 9.15769 9.93824C9.23037 9.87994 9.30911 9.83329 9.3939 9.7983C9.47869 9.75749 9.56651 9.73708 9.65736 9.73708Z" fill="black"/>
<path d="M17.6327 9.02425L17.0331 12.083H16.1531C15.9974 12.083 15.8624 12.023 15.7482 11.903C15.634 11.7831 15.5769 11.6357 15.5769 11.4607C15.5769 11.4357 15.5769 11.4132 15.5769 11.3933C15.5821 11.3683 15.5873 11.3433 15.5925 11.3183L16.0519 9.02425H14.4555L14.0039 11.4082C13.9572 11.6481 13.8507 11.8206 13.6846 11.9255C13.5185 12.0305 13.3342 12.083 13.1317 12.083H12.2829L12.8748 9.02425H11.9792C11.8131 9.02425 11.6859 8.98677 11.5977 8.9118C11.5094 8.83184 11.4653 8.70189 11.4653 8.52197C11.4653 8.452 11.4731 8.37203 11.4886 8.28207L11.5899 7.68982H13.0694L13.4744 5.62069H11.8079L11.9559 4.84852C11.9922 4.6586 12.0727 4.51866 12.1973 4.42869C12.3219 4.33373 12.5243 4.28625 12.8047 4.28625H13.669L14.1518 1.87227C14.1934 1.67236 14.2894 1.51742 14.44 1.40747C14.5905 1.29751 14.767 1.24254 14.9695 1.24254H15.8417L15.2498 4.28625H16.8384L17.438 1.24254H18.2946C18.4763 1.24254 18.6243 1.29252 18.7385 1.39247C18.8527 1.49243 18.9098 1.61988 18.9098 1.77481C18.9098 1.82479 18.9072 1.86228 18.902 1.88727L18.4192 4.28625H20L19.852 5.05843C19.8157 5.24835 19.7326 5.39079 19.6029 5.48575C19.4783 5.57571 19.2784 5.62069 19.0032 5.62069H18.2245L17.8274 7.68982H18.9332C19.0993 7.68982 19.2239 7.7298 19.3069 7.80977C19.3952 7.88474 19.4393 8.01468 19.4393 8.1996C19.4393 8.26957 19.4315 8.34954 19.416 8.4395L19.3225 9.02425H17.6327ZM14.6502 7.68982H16.2466L16.6437 5.62069H15.0552L14.6502 7.68982Z" fill="black"/>
</svg>
