<svg width="14" height="15" viewBox="0 0 14 15" fill="none" xmlns="http://www.w3.org/2000/svg">
<path d="M13.7934 0.705903C13.5199 0.432343 13.0773 0.432343 12.8035 0.705903L7.00001 6.51136L1.19519 0.705903C0.921664 0.432343 0.479107 0.432343 0.20527 0.705903C-0.0682606 0.979464 -0.0682606 1.42207 0.20527 1.69594L6.01139 7.50008L0.206145 13.3055C-0.0673857 13.5791 -0.0673857 14.0217 0.206145 14.2956C0.479675 14.5691 0.922232 14.5691 1.19607 14.2956L7.00001 8.4888L12.8048 14.2942C13.0784 14.5678 13.5209 14.5678 13.7947 14.2942C14.0683 14.0207 14.0683 13.5781 13.7947 13.3042L7.98862 7.50008L13.7934 1.69462C14.069 1.42338 14.069 0.977145 13.7934 0.705903Z" fill="#3F6587"/>
</svg>
