<svg width="48" height="48" viewBox="0 0 48 48" fill="none" xmlns="http://www.w3.org/2000/svg">
<path d="M42.0259 11.5528C41.9031 11.4712 38.9303 9.55469 31.6486 9.55469C24.3665 9.55469 21.3934 11.4712 21.2703 11.5528C20.9734 11.75 20.7958 12.0762 20.7958 12.4247V14.5247C19.1345 14.8432 16.918 15.4809 14.1687 16.7288C7.57631 19.7214 5.72617 22.6782 5.65051 22.8025C5.46815 23.1032 5.45037 23.4714 5.60337 23.7871L10.0441 32.9443C12.2268 37.4454 16.8728 40.1862 21.8174 40.1862C22.9127 40.1862 24.023 40.0518 25.1239 39.7721C25.1273 39.7713 25.1307 39.7705 25.1341 39.7694H25.1344C25.2591 39.7363 25.3771 39.6823 25.4822 39.6096C27.4178 38.2708 28.8736 36.4977 29.7911 34.5123C30.3283 34.6806 30.8821 34.8169 31.4504 34.9179C31.4831 34.9239 31.5159 34.9283 31.5492 34.931H31.5495C31.5822 34.934 31.6153 34.9354 31.6483 34.9354C31.7146 34.9354 31.7807 34.9297 31.8459 34.9179C38.0199 33.8189 42.5008 28.6132 42.5008 22.5397V12.4247C42.5008 12.0762 42.3232 11.75 42.0259 11.5528ZM12.0221 32.0463L7.86002 23.4632C8.58551 22.631 10.6203 20.6749 15.0966 18.6428C19.5738 16.6108 22.4286 16.3472 23.5535 16.3396L27.7157 24.9227C29.9054 29.4385 28.4976 34.8106 24.3742 37.775C19.3821 38.9481 14.2119 36.5621 12.0221 32.0463ZM40.3155 22.5397C40.3155 27.528 36.6827 31.8128 31.6483 32.8018C31.2613 32.7258 30.8824 32.63 30.5129 32.5161C31.038 30.5477 31.0721 28.4564 30.5654 26.4252C31.9201 26.0616 33.4341 26.3932 34.4969 27.4215C34.7103 27.628 34.9901 27.7312 35.2695 27.7312C35.549 27.7312 35.8288 27.628 36.0422 27.4215C36.4687 27.0088 36.4687 26.3397 36.0422 25.9267C34.3755 24.3145 31.9901 23.8111 29.8746 24.4169C29.8165 24.2858 29.7569 24.155 29.6937 24.0247L27.922 20.3709C28.8045 20.3638 29.6333 20.0287 30.258 19.424C30.6845 19.0113 30.6845 18.3418 30.258 17.9292C29.8314 17.5165 29.1395 17.5165 28.713 17.9292C28.4942 18.1408 28.2035 18.2575 27.8941 18.2575C27.585 18.2575 27.2942 18.1408 27.0754 17.9292C26.9405 17.7989 26.7793 17.7098 26.6085 17.6618L25.2532 14.8675C25.1002 14.5517 24.7965 14.3297 24.4411 14.2731C24.388 14.2647 23.8962 14.1928 22.9808 14.2439V13.0569C23.9942 12.6044 26.6904 11.6687 31.6486 11.6687C36.5932 11.6687 39.2936 12.6036 40.3155 13.0588V22.5397Z" fill="#3F6587"/>
<path d="M35.5009 20.4241C36.4992 20.4241 37.4377 19.9412 38.1435 19.0637C38.6203 18.4705 38.6203 17.5094 38.1435 16.9162C37.6664 16.3235 36.8933 16.3235 36.4163 16.9162C36.1717 17.2203 35.8467 17.3878 35.5012 17.3878C35.1554 17.3878 34.8304 17.2203 34.5858 16.9162C34.109 16.3235 33.3357 16.3235 32.8586 16.9162C32.3818 17.5094 32.3818 18.4705 32.8586 19.0637C33.5644 19.9412 34.5028 20.4241 35.5009 20.4241Z" fill="#F37A20"/>
<path d="M17.4356 27.0864C17.6381 26.4758 17.3481 25.8018 16.7882 25.5812C15.9592 25.2547 15.0636 25.2996 14.2658 25.7079C13.468 26.1162 12.8638 26.8386 12.5644 27.7423C12.3622 28.3529 12.6521 29.027 13.212 29.2475C13.3329 29.2952 13.4566 29.3177 13.5784 29.3177C14.0196 29.3177 14.4338 29.02 14.5923 28.5412C14.6959 28.2283 14.9054 27.978 15.1817 27.8365C15.4581 27.6952 15.7684 27.6797 16.0553 27.7927C16.6152 28.0133 17.2333 27.6973 17.4356 27.0864Z" fill="#F37A20"/>
<path d="M20.212 25.2944C20.3332 25.3418 20.4566 25.3646 20.5783 25.3646C21.0195 25.3646 21.4338 25.0667 21.5923 24.5878C21.6962 24.2744 21.9053 24.024 22.1817 23.8827C22.458 23.7411 22.7683 23.7256 23.0552 23.8389C23.6154 24.0596 24.2332 23.7432 24.4357 23.1324C24.6379 22.5212 24.348 21.8471 23.7881 21.6265C22.0772 20.9521 20.1825 21.9219 19.5644 23.7882C19.3622 24.3994 19.6521 25.0734 20.212 25.2944Z" fill="#F37A20"/>
<path d="M24.4479 29.6285C24.612 29.1249 24.3767 28.5693 23.9224 28.3871C23.4681 28.205 22.9665 28.4658 22.8024 28.9696C22.1978 30.8238 20.3449 31.787 18.6723 31.1174C18.2178 30.9353 17.7165 31.1961 17.5524 31.6996C17.388 32.2034 17.6233 32.7591 18.0776 32.9412C18.6341 33.1639 19.2032 33.2697 19.7636 33.2697C21.8007 33.2697 23.7167 31.8715 24.4479 29.6285Z" fill="#F37A20"/>
</svg>
