<svg width="11" height="10" viewBox="0 0 11 10" fill="none" xmlns="http://www.w3.org/2000/svg">
<path d="M9.76562 7.5083H5.25781C5.01758 6.95752 4.46875 6.5708 3.82812 6.5708C3.1875 6.5708 2.63867 6.95752 2.39844 7.5083H1.01562C0.670508 7.5083 0.390625 7.78818 0.390625 8.1333C0.390625 8.47842 0.670508 8.7583 1.01562 8.7583H2.39746C2.63867 9.30908 3.1875 9.6958 3.82812 9.6958C4.46875 9.6958 5.01738 9.30967 5.25879 8.7583H9.76562C10.1107 8.7583 10.3906 8.47842 10.3906 8.1333C10.3906 7.78818 10.1113 7.5083 9.76562 7.5083ZM3.82812 8.7583C3.48359 8.7583 3.20312 8.47783 3.20312 8.1333C3.20312 7.78877 3.48359 7.5083 3.82812 7.5083C4.17266 7.5083 4.45312 7.78877 4.45312 8.1333C4.45312 8.47783 4.17188 8.7583 3.82812 8.7583ZM9.76562 4.3833H8.38379C8.14258 3.83252 7.59375 3.4458 6.95312 3.4458C6.3125 3.4458 5.76367 3.83252 5.52344 4.3833H1.01562C0.670508 4.3833 0.390625 4.6626 0.390625 5.0083C0.390625 5.354 0.670508 5.6333 1.01562 5.6333H5.52344C5.76367 6.18408 6.3125 6.5708 6.95312 6.5708C7.59375 6.5708 8.14238 6.18467 8.38379 5.6333H9.76562C10.1107 5.6333 10.3906 5.35342 10.3906 5.0083C10.3906 4.66318 10.1113 4.3833 9.76562 4.3833ZM6.95312 5.6333C6.60859 5.6333 6.32812 5.35283 6.32812 5.0083C6.32812 4.66377 6.60859 4.3833 6.95312 4.3833C7.29766 4.3833 7.57812 4.66377 7.57812 5.0083C7.57812 5.35283 7.29688 5.6333 6.95312 5.6333ZM1.01562 2.5083H3.02344C3.26367 3.05908 3.8125 3.4458 4.45312 3.4458C5.09375 3.4458 5.64238 3.05967 5.88379 2.5083H9.76562C10.1107 2.5083 10.3906 2.22842 10.3906 1.8833C10.3906 1.53818 10.1107 1.2583 9.76562 1.2583H5.88281C5.64258 0.706934 5.09375 0.320801 4.45312 0.320801C3.8125 0.320801 3.26367 0.706934 3.02344 1.2583H1.01562C0.670508 1.2583 0.390625 1.53818 0.390625 1.8833C0.390625 2.22842 0.670508 2.5083 1.01562 2.5083ZM4.45312 1.2583C4.79766 1.2583 5.07812 1.53877 5.07812 1.8833C5.07812 2.22783 4.79766 2.5083 4.45312 2.5083C4.10859 2.5083 3.82812 2.22783 3.82812 1.8833C3.82812 1.53877 4.10938 1.2583 4.45312 1.2583Z" fill="#4F4F4F"/>
</svg>
