<svg width="22" height="23" viewBox="0 0 22 23" fill="none" xmlns="http://www.w3.org/2000/svg">
<path fill-rule="evenodd" clip-rule="evenodd" d="M10.7726 1.25883H13.6905C13.9979 1.25883 14.2463 1.5072 14.2463 1.81462V6.97466C14.0549 6.96207 13.8619 6.95567 13.6674 6.95567C13.4414 6.95567 13.2174 6.9643 12.9958 6.98125V6.05251H1.60209V12.6525H5.51063C5.36275 13.0562 5.24398 13.4739 5.15686 13.903H0.907352C0.599931 13.903 0.351562 13.6547 0.351562 13.3472V1.81462C0.351562 1.5072 0.599931 1.25883 0.907352 1.25883H3.82525V0.147248C3.82525 0.0708271 3.88777 0.00830078 3.96419 0.00830078H4.93683C5.01325 0.00830078 5.07577 0.0708271 5.07577 0.147248V1.25883H9.52209V0.147248C9.52209 0.0708271 9.58461 0.00830078 9.66104 0.00830078H10.6337C10.7101 0.00830078 10.7726 0.0708271 10.7726 0.147248V1.25883ZM1.60209 2.50935V4.87146H12.9958V2.50935H10.7726V3.34304C10.7726 3.41946 10.7101 3.48199 10.6337 3.48199H9.66104C9.58461 3.48199 9.52209 3.41946 9.52209 3.34304V2.50935H5.07577V3.34304C5.07577 3.41946 5.01325 3.48199 4.93683 3.48199H3.96419C3.88777 3.48199 3.82525 3.41946 3.82525 3.34304V2.50935H1.60209Z" fill="white"/>
<path d="M21.5191 14.0105H17.3491C17.2774 14.0105 17.2188 14.0692 17.2188 14.1408V14.9227C17.2188 14.9944 17.2774 15.053 17.3491 15.053H21.5191C21.5907 15.053 21.6494 14.9944 21.6494 14.9227V14.1408C21.6494 14.0692 21.5907 14.0105 21.5191 14.0105ZM19.3363 16.2258H17.3491C17.2774 16.2258 17.2188 16.2845 17.2188 16.3561V17.138C17.2188 17.2097 17.2774 17.2683 17.3491 17.2683H19.3363C19.408 17.2683 19.4667 17.2097 19.4667 17.138V16.3561C19.4667 16.2845 19.408 16.2258 19.3363 16.2258ZM13.9007 12.5527H13.1954C13.0944 12.5527 13.013 12.6341 13.013 12.7351V16.7748C13.013 16.8334 13.0407 16.8872 13.0879 16.9214L15.5133 18.6903C15.5948 18.749 15.7088 18.7327 15.7674 18.6513L16.1861 18.0795V18.0779C16.2447 17.9964 16.2268 17.8824 16.1453 17.8238L14.0815 16.3317V12.7351C14.0832 12.6341 14.0001 12.5527 13.9007 12.5527Z" fill="white"/>
<path d="M19.2355 18.2765H18.294C18.2028 18.2765 18.1164 18.3237 18.0676 18.4019C17.8607 18.7293 17.6196 19.0323 17.3427 19.3092C16.8655 19.7865 16.31 20.1611 15.6926 20.4218C15.0525 20.6922 14.3732 20.829 13.6728 20.829C12.9708 20.829 12.2915 20.6922 11.653 20.4218C11.0356 20.1611 10.4802 19.7865 10.0029 19.3092C9.52564 18.832 9.151 18.2765 8.89037 17.6591C8.61998 17.0206 8.48315 16.3414 8.48315 15.6393C8.48315 14.9373 8.61998 14.2596 8.89037 13.6195C9.151 13.0021 9.52564 12.4467 10.0029 11.9694C10.4802 11.4921 11.0356 11.1175 11.653 10.8569C12.2915 10.5865 12.9724 10.4496 13.6728 10.4496C14.3749 10.4496 15.0541 10.5865 15.6926 10.8569C16.31 11.1175 16.8655 11.4921 17.3427 11.9694C17.6196 12.2463 17.8607 12.5493 18.0676 12.8767C18.1164 12.9549 18.2028 13.0021 18.294 13.0021H19.2355C19.3479 13.0021 19.4196 12.8848 19.3691 12.7855C18.307 10.6728 16.1536 9.29965 13.7494 9.27196C10.2293 9.22797 7.30546 12.1095 7.29894 15.6263C7.29243 19.1496 10.1479 22.0083 13.6712 22.0083C16.1064 22.0083 18.2956 20.6303 19.3691 18.4931C19.4196 18.3938 19.3463 18.2765 19.2355 18.2765Z" fill="white"/>
</svg>
