<svg width="26" height="22" viewBox="0 0 26 22" fill="none" xmlns="http://www.w3.org/2000/svg">
<path d="M16.1444 5.942C16.1351 5.96198 16.1216 5.97948 16.105 5.99318L13.633 8.04329C13.5423 8.11834 13.4081 8.05062 13.4081 7.92797L13.4081 6.57527L7.51056 6.57527C7.43385 6.57527 7.37109 6.50937 7.37109 6.42883L7.37109 5.33055C7.37109 5.25001 7.43385 5.18412 7.51056 5.18412L13.4098 5.18412L13.4098 3.82775C13.4098 3.70511 13.5441 3.63738 13.6347 3.71243L16.105 5.76254C16.1216 5.77624 16.1351 5.79374 16.1444 5.81372C16.1537 5.8337 16.1585 5.85564 16.1585 5.87786C16.1585 5.90009 16.1537 5.92202 16.1444 5.942Z" fill="white"/>
<path d="M3.35952 9.83974C3.36879 9.81976 3.38227 9.80226 3.39894 9.78856L5.87092 7.73844C5.96157 7.6634 6.09581 7.73112 6.09581 7.85376L6.09581 9.20647L11.9933 9.20647C12.0701 9.20647 12.1328 9.27237 12.1328 9.35291L12.1328 10.4512C12.1328 10.5317 12.0701 10.5976 11.9933 10.5976L6.09406 10.5976L6.09406 11.954C6.09406 12.0766 5.95983 12.1444 5.86918 12.0693L3.39894 10.0192C3.38227 10.0055 3.36879 9.988 3.35952 9.96802C3.35025 9.94804 3.34543 9.9261 3.34543 9.90388C3.34543 9.88165 3.35025 9.85972 3.35952 9.83974Z" fill="white"/>
<path d="M9.20312 18.5798C9.20312 18.4762 9.22151 18.3776 9.25828 18.284C9.29839 18.1904 9.35188 18.1102 9.41873 18.0433C9.48893 17.9765 9.57082 17.923 9.66442 17.8829C9.75802 17.8428 9.8583 17.8227 9.96527 17.8227C10.0689 17.8227 10.1675 17.8428 10.2611 17.8829C10.3547 17.923 10.4349 17.9765 10.5018 18.0433C10.5686 18.1102 10.6221 18.1904 10.6622 18.284C10.7023 18.3776 10.7224 18.4762 10.7224 18.5798C10.7224 18.6868 10.7023 18.7871 10.6622 18.8807C10.6221 18.9709 10.5686 19.0495 10.5018 19.1163C10.4349 19.1832 10.3547 19.235 10.2611 19.2718C10.1675 19.3119 10.0689 19.3319 9.96527 19.3319C9.8583 19.3319 9.75802 19.3119 9.66442 19.2718C9.57082 19.235 9.48893 19.1832 9.41873 19.1163C9.35188 19.0495 9.29839 18.9709 9.25828 18.8807C9.22151 18.7871 9.20312 18.6868 9.20312 18.5798Z" fill="white"/>
<path d="M16.6551 15.6366C16.6551 16.2683 16.5866 16.8182 16.4496 17.2862C16.3159 17.7508 16.1287 18.1352 15.888 18.4394C15.6507 18.7436 15.3682 18.9709 15.0406 19.1213C14.7164 19.2684 14.3654 19.342 13.9877 19.342C13.6099 19.342 13.2589 19.2684 12.9347 19.1213C12.6138 18.9709 12.3347 18.7436 12.0973 18.4394C11.86 18.1352 11.6745 17.7508 11.5408 17.2862C11.4071 16.8182 11.3402 16.2683 11.3402 15.6366C11.3402 15.0014 11.4071 14.4516 11.5408 13.9869C11.6745 13.5223 11.86 13.1379 12.0973 12.8337C12.3347 12.5295 12.6138 12.3039 12.9347 12.1568C13.2589 12.0064 13.6099 11.9312 13.9877 11.9312C14.3654 11.9312 14.7164 12.0064 15.0406 12.1568C15.3682 12.3039 15.6507 12.5295 15.888 12.8337C16.1287 13.1379 16.3159 13.5223 16.4496 13.9869C16.5866 14.4516 16.6551 15.0014 16.6551 15.6366ZM15.3766 15.6366C15.3766 15.1118 15.3381 14.6772 15.2612 14.3329C15.1844 13.9886 15.0807 13.7145 14.9504 13.5106C14.8233 13.3067 14.6763 13.1646 14.5091 13.0844C14.342 13.0008 14.1682 12.959 13.9877 12.959C13.8105 12.959 13.6383 13.0008 13.4712 13.0844C13.3074 13.1646 13.162 13.3067 13.035 13.5106C12.908 13.7145 12.806 13.9886 12.7291 14.3329C12.6556 14.6772 12.6188 15.1118 12.6188 15.6366C12.6188 16.1614 12.6556 16.5959 12.7291 16.9402C12.806 17.2845 12.908 17.5586 13.035 17.7625C13.162 17.9664 13.3074 18.1102 13.4712 18.1937C13.6383 18.274 13.8105 18.3141 13.9877 18.3141C14.1682 18.3141 14.342 18.274 14.5091 18.1937C14.6763 18.1102 14.8233 17.9664 14.9504 17.7625C15.0807 17.5586 15.1844 17.2845 15.2612 16.9402C15.3381 16.5959 15.3766 16.1614 15.3766 15.6366Z" fill="white"/>
<path d="M22.4723 15.6366C22.4723 16.2683 22.4037 16.8182 22.2667 17.2862C22.133 17.7508 21.9458 18.1352 21.7051 18.4394C21.4678 18.7436 21.1853 18.9709 20.8577 19.1213C20.5335 19.2684 20.1825 19.342 19.8048 19.342C19.427 19.342 19.0761 19.2684 18.7518 19.1213C18.4309 18.9709 18.1518 18.7436 17.9145 18.4394C17.6771 18.1352 17.4916 17.7508 17.3579 17.2862C17.2242 16.8182 17.1573 16.2683 17.1573 15.6366C17.1573 15.0014 17.2242 14.4516 17.3579 13.9869C17.4916 13.5223 17.6771 13.1379 17.9145 12.8337C18.1518 12.5295 18.4309 12.3039 18.7518 12.1568C19.0761 12.0064 19.427 11.9312 19.8048 11.9312C20.1825 11.9312 20.5335 12.0064 20.8577 12.1568C21.1853 12.3039 21.4678 12.5295 21.7051 12.8337C21.9458 13.1379 22.133 13.5223 22.2667 13.9869C22.4037 14.4516 22.4723 15.0014 22.4723 15.6366ZM21.1937 15.6366C21.1937 15.1118 21.1552 14.6772 21.0784 14.3329C21.0015 13.9886 20.8978 13.7145 20.7675 13.5106C20.6405 13.3067 20.4934 13.1646 20.3262 13.0844C20.1591 13.0008 19.9853 12.959 19.8048 12.959C19.6276 12.959 19.4555 13.0008 19.2883 13.0844C19.1245 13.1646 18.9791 13.3067 18.8521 13.5106C18.7251 13.7145 18.6231 13.9886 18.5462 14.3329C18.4727 14.6772 18.4359 15.1118 18.4359 15.6366C18.4359 16.1614 18.4727 16.5959 18.5462 16.9402C18.6231 17.2845 18.7251 17.5586 18.8521 17.7625C18.9791 17.9664 19.1245 18.1102 19.2883 18.1937C19.4555 18.274 19.6276 18.3141 19.8048 18.3141C19.9853 18.3141 20.1591 18.274 20.3262 18.1937C20.4934 18.1102 20.6405 17.9664 20.7675 17.7625C20.8978 17.5586 21.0015 17.2845 21.0784 16.9402C21.1552 16.5959 21.1937 16.1614 21.1937 15.6366Z" fill="white"/>
<path d="M15.2012 9.32299C15.2012 9.21936 15.2196 9.12075 15.2563 9.02716C15.2964 8.93356 15.3499 8.85334 15.4168 8.78648C15.487 8.71963 15.5689 8.66614 15.6625 8.62603C15.7561 8.58592 15.8563 8.56586 15.9633 8.56586C16.0669 8.56586 16.1655 8.58592 16.2591 8.62603C16.3527 8.66614 16.433 8.71963 16.4998 8.78648C16.5667 8.85334 16.6202 8.93356 16.6603 9.02716C16.7004 9.12075 16.7204 9.21936 16.7204 9.32299C16.7204 9.42996 16.7004 9.53024 16.6603 9.62383C16.6202 9.71409 16.5667 9.79264 16.4998 9.8595C16.433 9.92635 16.3527 9.97816 16.2591 10.0149C16.1655 10.055 16.0669 10.0751 15.9633 10.0751C15.8563 10.0751 15.7561 10.055 15.6625 10.0149C15.5689 9.97816 15.487 9.92635 15.4168 9.8595C15.3499 9.79264 15.2964 9.71409 15.2563 9.62383C15.2196 9.53024 15.2012 9.42996 15.2012 9.32299Z" fill="white"/>
<path d="M22.6532 6.37972C22.6532 7.0115 22.5847 7.56138 22.4476 8.02936C22.3139 8.49399 22.1267 8.87841 21.886 9.1826C21.6487 9.48678 21.3662 9.71409 21.0387 9.86451C20.7144 10.0116 20.3634 10.0851 19.9857 10.0851C19.608 10.0851 19.257 10.0116 18.9327 9.86451C18.6118 9.71409 18.3327 9.48678 18.0954 9.1826C17.8581 8.87841 17.6725 8.49399 17.5388 8.02936C17.4051 7.56138 17.3383 7.0115 17.3383 6.37972C17.3383 5.74461 17.4051 5.19473 17.5388 4.73009C17.6725 4.26545 17.8581 3.88104 18.0954 3.57685C18.3327 3.27266 18.6118 3.04703 18.9327 2.89995C19.257 2.74953 19.608 2.67432 19.9857 2.67432C20.3634 2.67432 20.7144 2.74953 21.0387 2.89995C21.3662 3.04703 21.6487 3.27266 21.886 3.57685C22.1267 3.88104 22.3139 4.26545 22.4476 4.73009C22.5847 5.19473 22.6532 5.74461 22.6532 6.37972ZM21.3746 6.37972C21.3746 5.85492 21.3362 5.42036 21.2593 5.07606C21.1824 4.73176 21.0788 4.45766 20.9484 4.25375C20.8214 4.04985 20.6743 3.90778 20.5072 3.82755C20.34 3.74399 20.1662 3.7022 19.9857 3.7022C19.8085 3.7022 19.6364 3.74399 19.4693 3.82755C19.3055 3.90778 19.1601 4.04985 19.033 4.25375C18.906 4.45766 18.8041 4.73176 18.7272 5.07606C18.6536 5.42036 18.6169 5.85492 18.6169 6.37972C18.6169 6.90453 18.6536 7.33908 18.7272 7.68338C18.8041 8.02769 18.906 8.30179 19.033 8.50569C19.1601 8.7096 19.3055 8.85334 19.4693 8.9369C19.6364 9.01713 19.8085 9.05724 19.9857 9.05724C20.1662 9.05724 20.34 9.01713 20.5072 8.9369C20.6743 8.85334 20.8214 8.7096 20.9484 8.50569C21.0788 8.30179 21.1824 8.02769 21.2593 7.68338C21.3362 7.33908 21.3746 6.90453 21.3746 6.37972Z" fill="white"/>
</svg>
