<svg width="47" height="59" viewBox="0 0 47 59" fill="none" xmlns="http://www.w3.org/2000/svg">
<path d="M0 0.5H47V58.5H0V0.5Z" fill="white"/>
<g clip-path="url(#clip0_10808_56101)">
<path d="M3.7052 51.623H0.688477C0.308254 51.623 0 51.9313 0 52.3115C0 52.6917 0.308254 53 0.688477 53H3.7052C4.08542 53 4.39367 52.6917 4.39367 52.3115C4.39367 51.9313 4.08542 51.623 3.7052 51.623Z" fill="#F37A20"/>
<path d="M39.0522 44.7701C39.3142 44.4946 39.3031 44.0587 39.0274 43.7967C38.752 43.5348 38.3161 43.5459 38.0541 43.8215C37.3028 44.6121 36.4973 45.3346 35.642 45.9862C33.1839 45.9225 32.3978 44.8 31.5669 43.6137C30.7817 42.4924 29.8917 41.2215 27.6826 41.2215C25.8042 41.2215 24.3555 41.8449 23.0774 42.395C21.606 43.028 20.5431 43.4854 19.3126 42.8499C18.4455 42.402 17.9234 40.8411 17.3707 39.1885C16.4618 36.471 15.3306 33.0887 11.7969 33.0887C9.62949 33.0887 9.48308 34.6571 9.38614 35.6951C9.2512 37.1401 9.12351 38.5077 5.28355 38.5992C4.63069 37.2277 4.13655 35.7845 3.8104 34.2924C5.92485 33.7084 7.40654 32.5071 8.31744 30.6396H10.8871C11.2673 30.6396 11.5756 30.3314 11.5756 29.9512C11.5756 29.5709 11.2673 29.2627 10.8871 29.2627H0.688477C0.308254 29.2627 0 29.5709 0 29.9512C0 30.3314 0.308254 30.6396 0.688477 30.6396H1.97776C2.14906 36.1271 4.36604 41.2608 8.26438 45.1608C12.3254 49.2236 17.7248 51.461 23.468 51.461C26.466 51.461 29.3675 50.8553 32.0915 49.6608C34.7225 48.5071 37.0645 46.8616 39.0522 44.7701ZM3.35545 30.6396H6.74248C6.02243 31.7694 4.98622 32.5147 3.56163 32.9316C3.45037 32.1771 3.38125 31.4121 3.35545 30.6396ZM23.468 50.084C18.0927 50.084 13.0392 47.9898 9.23825 44.1873C7.95493 42.9034 6.86622 41.4766 5.98708 39.9428C7.74206 39.8163 8.97296 39.3741 9.7324 38.6014C10.5779 37.741 10.6772 36.6775 10.757 35.8231C10.8637 34.6807 10.9118 34.4656 11.7968 34.4656C14.1621 34.4656 15.0224 36.5085 16.0647 39.6253C16.7086 41.5504 17.3168 43.3689 18.6806 44.0733C20.4895 45.0076 22.0108 44.3529 23.6215 43.6598C24.834 43.1381 26.0878 42.5986 27.6825 42.5986C29.175 42.5986 29.7052 43.3557 30.439 44.4036C31.159 45.4317 32.0162 46.6556 33.9439 47.1465C33.1747 47.6158 32.3722 48.0342 31.5387 48.3997C28.9899 49.5173 26.2746 50.084 23.468 50.084Z" fill="#3F6587"/>
<path d="M44.6802 37.4332C44.4046 35.406 42.6628 33.8389 40.5621 33.8389C38.8586 33.8389 37.3661 34.8662 36.7304 36.3807C36.4208 36.2732 36.0932 36.218 35.7563 36.218C34.1202 36.218 32.7891 37.5495 32.7891 39.1861C32.7891 40.8228 34.1201 42.1543 35.7563 42.1543H39.2409C39.6211 42.1543 39.9294 41.846 39.9294 41.4658C39.9294 41.0856 39.6211 40.7773 39.2409 40.7773H35.7563C34.8795 40.7773 34.166 40.0635 34.166 39.1861C34.166 38.3087 34.8794 37.5949 35.7563 37.5949C36.1116 37.5949 36.4473 37.7095 36.7275 37.926C36.918 38.0734 37.1714 38.1104 37.3963 38.0239C37.621 37.9373 37.7841 37.7397 37.8265 37.5027C38.0635 36.1776 39.214 35.2158 40.5622 35.2158C42.0947 35.2158 43.3415 36.4632 43.3415 37.9965C43.3415 38.0612 43.3392 38.1269 43.3347 38.1919C43.3183 38.4281 43.4245 38.6561 43.6158 38.7956C43.807 38.9352 44.0565 38.9667 44.2764 38.8791C44.3917 38.8331 44.5141 38.8098 44.6399 38.8098C45.182 38.8098 45.623 39.2511 45.623 39.7935C45.623 40.336 45.182 40.7773 44.6399 40.7773H42.4155C42.0353 40.7773 41.727 41.0856 41.727 41.4658C41.727 41.846 42.0353 42.1543 42.4155 42.1543H44.6399C45.9413 42.1543 47 41.0952 47 39.7935C46.9998 38.5054 45.963 37.4548 44.6802 37.4332Z" fill="#F37A20"/>
<path d="M13.1635 51.6162H6.93262C6.55239 51.6162 6.24414 51.9245 6.24414 52.3047C6.24414 52.6849 6.55239 52.9932 6.93262 52.9932H13.1635C13.5437 52.9932 13.852 52.6849 13.852 52.3047C13.852 51.9245 13.5437 51.6162 13.1635 51.6162Z" fill="#F37A20"/>
<path d="M8.29703 50.0537C8.67726 50.0537 8.98551 49.7455 8.98551 49.3652C8.98551 48.985 8.67726 48.6768 8.29703 48.6768H2.52539C2.14517 48.6768 1.83691 48.985 1.83691 49.3652C1.83691 49.7455 2.14517 50.0537 2.52539 50.0537H8.29703Z" fill="#F37A20"/>
<path d="M38.0989 51.6162H32.3271C31.9469 51.6162 31.6387 51.9245 31.6387 52.3047C31.6387 52.6849 31.9469 52.9932 32.3271 52.9932H38.0989C38.4791 52.9932 38.7874 52.6849 38.7874 52.3047C38.7874 51.9245 38.4791 51.6162 38.0989 51.6162Z" fill="#F37A20"/>
<path d="M46.3118 48.6768H37.7852C37.4049 48.6768 37.0967 48.985 37.0967 49.3652C37.0967 49.7455 37.4049 50.0537 37.7852 50.0537H46.3118C46.692 50.0537 47.0003 49.7455 47.0003 49.3652C47.0003 48.985 46.692 48.6768 46.3118 48.6768Z" fill="#F37A20"/>
<path d="M13.3926 29.9502C13.3926 30.3304 13.7008 30.6387 14.0811 30.6387H18.9838C18.8259 32.4001 19.2321 34.7271 20.155 35.6504C20.9431 36.4389 22.7541 36.853 24.3685 36.853C24.8674 36.853 25.3477 36.8134 25.7729 36.7331C27.1099 36.4805 27.6252 35.8901 27.8221 35.4393C28.4333 34.04 27.2611 32.1063 25.9023 30.6388H43.5794C43.557 31.302 43.5025 31.9646 43.4163 32.6163C43.3665 32.9932 43.6317 33.3392 44.0086 33.389C44.0392 33.393 44.0696 33.395 44.0997 33.395C44.4398 33.395 44.7355 33.143 44.7813 32.7966C44.8754 32.0855 44.9342 31.3623 44.957 30.6387H46.3108C46.691 30.6387 46.9993 30.3304 46.9993 29.9502C46.9993 29.57 46.691 29.2617 46.3108 29.2617H14.0811C13.7008 29.2617 13.3926 29.57 13.3926 29.9502ZM20.365 30.6387H23.9221C24.7577 31.3506 25.5123 32.209 26.0138 33.0225C26.6013 33.9752 26.6813 34.6109 26.5603 34.888C26.4955 35.0363 26.1836 35.254 25.5173 35.3799C23.9205 35.6815 21.6913 35.2396 21.1289 34.6768C20.6025 34.1505 20.1882 32.1722 20.365 30.6387Z" fill="#3F6587"/>
<path d="M4.22266 27.8913C4.60288 27.8913 4.91113 27.5831 4.91113 27.2028V22.5467C4.91113 21.4076 5.83764 20.4809 6.97656 20.4809C8.11549 20.4809 9.04199 21.4076 9.04199 22.5467V27.2028C9.04199 27.5831 9.35025 27.8913 9.73047 27.8913C10.1107 27.8913 10.4189 27.5831 10.4189 27.2028V22.5467C10.4189 21.4076 11.3455 20.4809 12.4844 20.4809C13.6233 20.4809 14.5498 21.4076 14.5498 22.5467V27.2028C14.5498 27.5831 14.8581 27.8913 15.2383 27.8913C15.6185 27.8913 15.9268 27.5831 15.9268 27.2028V22.5467C15.9268 21.4076 16.8533 20.4809 17.9922 20.4809C19.1311 20.4809 20.0576 21.4076 20.0576 22.5467V27.2028C20.0576 27.5831 20.3659 27.8913 20.7461 27.8913C21.1263 27.8913 21.4346 27.5831 21.4346 27.2028V22.5467C21.4346 21.4076 22.3611 20.4809 23.5 20.4809C24.6389 20.4809 25.5654 21.4076 25.5654 22.5467V27.2028C25.5654 27.5831 25.8737 27.8913 26.2539 27.8913C26.6341 27.8913 26.9424 27.5831 26.9424 27.2028V22.5467C26.9424 21.4076 27.8689 20.4809 29.0078 20.4809C30.1467 20.4809 31.0732 21.4076 31.0732 22.5467V27.2028C31.0732 27.5831 31.3815 27.8913 31.7617 27.8913C32.1419 27.8913 32.4502 27.5831 32.4502 27.2028V22.5467C32.4502 21.4076 33.3767 20.4809 34.5156 20.4809C35.6545 20.4809 36.5811 21.4076 36.5811 22.5467V27.2028C36.5811 27.5831 36.8893 27.8913 37.2695 27.8913C37.6498 27.8913 37.958 27.5831 37.958 27.2028V22.5467C37.958 21.4076 38.8845 20.4809 40.0234 20.4809C41.1624 20.4809 42.0889 21.4076 42.0889 22.5467V27.2028C42.0889 27.5831 42.3971 27.8913 42.7773 27.8913C43.1576 27.8913 43.4658 27.5831 43.4658 27.2028V22.5467C43.4658 21.3066 42.8068 20.2176 41.8206 19.6114C42.1321 19.2196 42.3184 18.724 42.3184 18.1857C42.3184 16.9201 41.2889 15.8906 40.0234 15.8906C38.758 15.8906 37.7285 16.9202 37.7285 18.1857C37.7285 18.724 37.9148 19.2195 38.2262 19.6114C37.8551 19.8395 37.5303 20.136 37.2695 20.4832C37.0087 20.136 36.684 19.8395 36.3128 19.6114C36.6243 19.2196 36.8105 18.724 36.8105 18.1857C36.8105 16.9201 35.781 15.8906 34.5156 15.8906C33.2502 15.8906 32.2207 16.9202 32.2207 18.1857C32.2207 18.724 32.407 19.2195 32.7184 19.6114C32.3473 19.8395 32.0225 20.136 31.7617 20.4832C31.5009 20.136 31.1761 19.8395 30.805 19.6114C31.1165 19.2196 31.3027 18.724 31.3027 18.1857C31.3027 16.9201 30.2732 15.8906 29.0078 15.8906C27.7424 15.8906 26.7129 16.9202 26.7129 18.1857C26.7129 18.724 26.8991 19.2195 27.2106 19.6114C26.8395 19.8395 26.5147 20.136 26.2539 20.4832C25.9931 20.136 25.6683 19.8395 25.2972 19.6114C25.6087 19.2196 25.7949 18.724 25.7949 18.1857C25.7949 16.9201 24.7654 15.8906 23.5 15.8906C22.2346 15.8906 21.2051 16.9202 21.2051 18.1857C21.2051 18.724 21.3913 19.2195 21.7028 19.6114C21.3317 19.8395 21.0069 20.136 20.7461 20.4832C20.4853 20.136 20.1605 19.8395 19.7894 19.6114C20.1009 19.2196 20.2871 18.724 20.2871 18.1857C20.2871 16.9201 19.2576 15.8906 17.9922 15.8906C16.7268 15.8906 15.6973 16.9202 15.6973 18.1857C15.6973 18.724 15.8835 19.2195 16.195 19.6114C15.8239 19.8395 15.4991 20.136 15.2383 20.4832C14.9775 20.136 14.6527 19.8395 14.2816 19.6114C14.593 19.2196 14.7793 18.724 14.7793 18.1857C14.7793 16.9201 13.7498 15.8906 12.4844 15.8906C11.219 15.8906 10.1895 16.9202 10.1895 18.1857C10.1895 18.724 10.3757 19.2195 10.6872 19.6114C10.316 19.8395 9.99126 20.136 9.73047 20.4832C9.46967 20.136 9.1449 19.8395 8.77376 19.6114C9.08523 19.2196 9.27148 18.724 9.27148 18.1857C9.27148 16.9201 8.24198 15.8906 6.97656 15.8906C5.71114 15.8906 4.68164 16.9202 4.68164 18.1857C4.68164 18.724 4.8679 19.2195 5.17936 19.6114C4.19319 20.2177 3.53418 21.3066 3.53418 22.5467V27.2028C3.53418 27.5831 3.84243 27.8913 4.22266 27.8913ZM40.0234 17.2676C40.5296 17.2676 40.9414 17.6795 40.9414 18.1857C40.9414 18.692 40.5296 19.1039 40.0234 19.1039C39.5173 19.1039 39.1055 18.692 39.1055 18.1857C39.1055 17.6795 39.5173 17.2676 40.0234 17.2676ZM34.5156 17.2676C35.0218 17.2676 35.4336 17.6795 35.4336 18.1857C35.4336 18.692 35.0218 19.1039 34.5156 19.1039C34.0095 19.1039 33.5977 18.692 33.5977 18.1857C33.5977 17.6795 34.0095 17.2676 34.5156 17.2676ZM29.0078 17.2676C29.514 17.2676 29.9258 17.6795 29.9258 18.1857C29.9258 18.692 29.514 19.1039 29.0078 19.1039C28.5016 19.1039 28.0898 18.692 28.0898 18.1857C28.0898 17.6795 28.5016 17.2676 29.0078 17.2676ZM23.5 17.2676C24.0062 17.2676 24.418 17.6795 24.418 18.1857C24.418 18.692 24.0062 19.1039 23.5 19.1039C22.9938 19.1039 22.582 18.692 22.582 18.1857C22.582 17.6795 22.9938 17.2676 23.5 17.2676ZM17.9922 17.2676C18.4984 17.2676 18.9102 17.6795 18.9102 18.1857C18.9102 18.692 18.4984 19.1039 17.9922 19.1039C17.486 19.1039 17.0742 18.692 17.0742 18.1857C17.0742 17.6795 17.486 17.2676 17.9922 17.2676ZM12.4844 17.2676C12.9905 17.2676 13.4023 17.6795 13.4023 18.1857C13.4023 18.692 12.9905 19.1039 12.4844 19.1039C11.9782 19.1039 11.5664 18.692 11.5664 18.1857C11.5664 17.6795 11.9782 17.2676 12.4844 17.2676ZM6.97656 17.2676C7.48273 17.2676 7.89453 17.6795 7.89453 18.1857C7.89453 18.692 7.48273 19.1039 6.97656 19.1039C6.47039 19.1039 6.05859 18.692 6.05859 18.1857C6.05859 17.6795 6.47039 17.2676 6.97656 17.2676Z" fill="#3F6587"/>
<path d="M6.97656 14.512C7.35679 14.512 7.66504 14.2037 7.66504 13.8235V12.6561C7.66504 11.517 8.59154 10.5903 9.73047 10.5903C10.8694 10.5903 11.7959 11.517 11.7959 12.6561V13.8235C11.7959 14.2037 12.1042 14.512 12.4844 14.512C12.8646 14.512 13.1729 14.2037 13.1729 13.8235V12.6561C13.1729 11.517 14.0994 10.5903 15.2383 10.5903C16.3772 10.5903 17.3037 11.517 17.3037 12.6561V13.8235C17.3037 14.2037 17.612 14.512 17.9922 14.512C18.3724 14.512 18.6807 14.2037 18.6807 13.8235V12.6561C18.6807 11.517 19.6072 10.5903 20.7461 10.5903C21.885 10.5903 22.8115 11.517 22.8115 12.6561V13.8235C22.8115 14.2037 23.1198 14.512 23.5 14.512C23.8802 14.512 24.1885 14.2037 24.1885 13.8235V12.6561C24.1885 11.517 25.115 10.5903 26.2539 10.5903C27.3928 10.5903 28.3193 11.517 28.3193 12.6561V13.8235C28.3193 14.2037 28.6276 14.512 29.0078 14.512C29.388 14.512 29.6963 14.2037 29.6963 13.8235V12.6561C29.6963 11.517 30.6228 10.5903 31.7617 10.5903C32.9006 10.5903 33.8271 11.517 33.8271 12.6561V13.8235C33.8271 14.2037 34.1354 14.512 34.5156 14.512C34.8958 14.512 35.2041 14.2037 35.2041 13.8235V12.6561C35.2041 11.517 36.1306 10.5903 37.2695 10.5903C38.4085 10.5903 39.335 11.517 39.335 12.6561V13.8235C39.335 14.2037 39.6432 14.512 40.0234 14.512C40.4037 14.512 40.7119 14.2037 40.7119 13.8235V12.6561C40.7119 11.416 40.0529 10.327 39.0667 9.72089C39.3782 9.32901 39.5645 8.83349 39.5645 8.2952C39.5645 7.02959 38.535 6 37.2695 6C36.0041 6 34.9746 7.02959 34.9746 8.29511C34.9746 8.8334 35.1609 9.32892 35.4723 9.7208C35.1012 9.94892 34.7764 10.2454 34.5156 10.5926C34.2548 10.2454 33.9301 9.94892 33.5589 9.7208C33.8704 9.32892 34.0566 8.8334 34.0566 8.29511C34.0566 7.02959 33.0271 6 31.7617 6C30.4963 6 29.4668 7.02959 29.4668 8.29511C29.4668 8.8334 29.6531 9.32892 29.9645 9.7208C29.5934 9.94892 29.2686 10.2454 29.0078 10.5926C28.747 10.2454 28.4222 9.94892 28.0511 9.7208C28.3626 9.32892 28.5488 8.8334 28.5488 8.29511C28.5488 7.02959 27.5193 6 26.2539 6C24.9885 6 23.959 7.02959 23.959 8.29511C23.959 8.8334 24.1452 9.32892 24.4567 9.7208C24.0856 9.94892 23.7608 10.2454 23.5 10.5926C23.2392 10.2454 22.9144 9.94892 22.5433 9.7208C22.8548 9.32892 23.041 8.8334 23.041 8.29511C23.041 7.02959 22.0115 6 20.7461 6C19.4807 6 18.4512 7.02959 18.4512 8.29511C18.4512 8.8334 18.6374 9.32892 18.9489 9.7208C18.5778 9.94892 18.253 10.2454 17.9922 10.5926C17.7314 10.2454 17.4066 9.94892 17.0355 9.7208C17.3469 9.32892 17.5332 8.8334 17.5332 8.29511C17.5332 7.02959 16.5037 6 15.2383 6C13.9729 6 12.9434 7.02959 12.9434 8.29511C12.9434 8.8334 13.1296 9.32892 13.4411 9.7208C13.0699 9.94892 12.7452 10.2454 12.4844 10.5926C12.2236 10.2454 11.8988 9.94892 11.5277 9.7208C11.8391 9.32892 12.0254 8.8334 12.0254 8.29511C12.0254 7.02959 10.9959 6 9.73047 6C8.46505 6 7.43555 7.02959 7.43555 8.29511C7.43555 8.8334 7.6218 9.32892 7.93327 9.7208C6.9471 10.3269 6.28809 11.416 6.28809 12.6561V13.8235C6.28809 14.2037 6.59634 14.512 6.97656 14.512ZM37.2695 7.37695C37.7757 7.37695 38.1875 7.78885 38.1875 8.29511C38.1875 8.80137 37.7757 9.21326 37.2695 9.21326C36.7634 9.21326 36.3516 8.80137 36.3516 8.29511C36.3516 7.78885 36.7634 7.37695 37.2695 7.37695ZM31.7617 7.37695C32.2679 7.37695 32.6797 7.78885 32.6797 8.29511C32.6797 8.80137 32.2679 9.21326 31.7617 9.21326C31.2556 9.21326 30.8438 8.80137 30.8438 8.29511C30.8438 7.78885 31.2556 7.37695 31.7617 7.37695ZM26.2539 7.37695C26.7601 7.37695 27.1719 7.78885 27.1719 8.29511C27.1719 8.80137 26.7601 9.21326 26.2539 9.21326C25.7477 9.21326 25.3359 8.80137 25.3359 8.29511C25.3359 7.78885 25.7477 7.37695 26.2539 7.37695ZM20.7461 7.37695C21.2523 7.37695 21.6641 7.78885 21.6641 8.29511C21.6641 8.80137 21.2523 9.21326 20.7461 9.21326C20.2399 9.21326 19.8281 8.80137 19.8281 8.29511C19.8281 7.78885 20.2399 7.37695 20.7461 7.37695ZM15.2383 7.37695C15.7444 7.37695 16.1562 7.78885 16.1562 8.29511C16.1562 8.80137 15.7444 9.21326 15.2383 9.21326C14.7321 9.21326 14.3203 8.80137 14.3203 8.29511C14.3203 7.78885 14.7321 7.37695 15.2383 7.37695ZM9.73047 7.37695C10.2366 7.37695 10.6484 7.78885 10.6484 8.29511C10.6484 8.80137 10.2366 9.21326 9.73047 9.21326C9.2243 9.21326 8.8125 8.80137 8.8125 8.29511C8.8125 7.78885 9.2243 7.37695 9.73047 7.37695Z" fill="#3F6587"/>
</g>
<defs>
<clipPath id="clip0_10808_56101">
<rect width="47" height="47" fill="white" transform="translate(0 6)"/>
</clipPath>
</defs>
</svg>
