<svg width="48" height="48" viewBox="0 0 48 48" fill="none" xmlns="http://www.w3.org/2000/svg">
<g clip-path="url(#clip0_10808_56119)">
<path d="M10.2115 25.8302C10.5925 25.8302 10.9014 25.5214 10.9014 25.1403V24.6621C10.9014 23.562 10.0608 22.6545 8.98825 22.548V21.7924C8.98825 21.4113 8.67935 21.1025 8.2984 21.1025C7.91744 21.1025 7.60854 21.4113 7.60854 21.7924V22.581C6.52002 22.7921 5.6954 23.752 5.6954 24.9012C5.6954 26.2046 6.75584 27.265 8.05917 27.265H8.53744C9.08014 27.265 9.52159 27.7064 9.52159 28.2491C9.52159 28.7918 9.08014 29.2333 8.53744 29.2333H7.82004C7.40925 29.2333 7.07502 28.899 7.07502 28.4881C7.07502 28.1071 6.76612 27.7983 6.38517 27.7983C6.00421 27.7983 5.69531 28.1071 5.69531 28.4881C5.69531 29.5882 6.5358 30.4957 7.60845 30.6022V31.3578C7.60845 31.7389 7.91735 32.0477 8.2983 32.0477C8.67926 32.0477 8.98816 31.7389 8.98816 31.3578V30.5692C10.0767 30.3581 10.9013 29.3982 10.9013 28.249C10.9013 26.9456 9.84086 25.8852 8.53753 25.8852H8.05927C7.51656 25.8852 7.07511 25.4438 7.07511 24.9011C7.07511 24.3584 7.51656 23.9169 8.05927 23.9169H8.77666C9.18745 23.9169 9.52168 24.2512 9.52168 24.6621V25.1403C9.52168 25.5214 9.83058 25.8302 10.2115 25.8302Z" fill="#F37A20"/>
<path d="M25.6627 8.17099C26.0438 8.17099 26.3526 7.86219 26.3526 7.48114V7.00288C26.3526 5.90278 25.512 4.99528 24.4394 4.88879V4.13321C24.4394 3.75216 24.1306 3.44336 23.7496 3.44336C23.3686 3.44336 23.0597 3.75216 23.0597 4.13321V4.92184C21.9712 5.13288 21.1466 6.0928 21.1466 7.24201C21.1466 8.54543 22.207 9.60578 23.5103 9.60578H23.9886C24.5313 9.60578 24.9728 10.0472 24.9728 10.5899C24.9728 11.1326 24.5313 11.5741 23.9886 11.5741H23.2712C22.8604 11.5741 22.5262 11.2399 22.5262 10.829C22.5262 10.4479 22.2173 10.1391 21.8363 10.1391C21.4554 10.1391 21.1465 10.4479 21.1465 10.829C21.1465 11.9291 21.987 12.8366 23.0596 12.9431V13.6986C23.0596 14.0797 23.3685 14.3885 23.7495 14.3885C24.1305 14.3885 24.4393 14.0797 24.4393 13.6986V12.91C25.5278 12.699 26.3525 11.739 26.3525 10.5898C26.3525 9.28642 25.292 8.22607 23.9887 8.22607H23.5104C22.9677 8.22607 22.5263 7.78462 22.5263 7.24192C22.5263 6.69921 22.9677 6.25776 23.5104 6.25776H24.2278C24.6386 6.25776 24.9729 6.59199 24.9729 7.00288V7.48114C24.9729 7.86228 25.2817 8.17099 25.6627 8.17099Z" fill="#F37A20"/>
<path d="M39.2021 14.1128C37.2081 14.1128 35.3813 14.8421 33.9739 16.0475L30.5589 13.2017C31.3433 11.96 31.7979 10.4902 31.7979 8.91609C31.7979 4.47844 28.1876 0.868164 23.75 0.868164C19.3124 0.868164 15.7021 4.47844 15.7021 8.91609C15.7021 11.2445 16.6963 13.3446 18.2822 14.8155L12.6586 19.8143C11.4012 19.0006 9.90382 18.5276 8.29792 18.5276C3.86028 18.5277 0.25 22.1379 0.25 26.5756C0.25 31.0133 3.86028 34.6235 8.29792 34.6235C12.7356 34.6235 16.3458 31.0133 16.3458 26.5756C16.3458 24.2472 15.3516 22.147 13.7657 20.6761L19.3894 15.6773C20.6467 16.491 22.1441 16.964 23.75 16.964C26.1182 16.964 28.2505 15.9356 29.7245 14.3023L33.0028 17.0341C31.8487 18.4273 31.1542 20.2144 31.1542 22.1606C31.1542 26.5983 34.7644 30.2086 39.2021 30.2086C43.6397 30.2086 47.25 26.5983 47.25 22.1606C47.25 17.723 43.6397 14.1128 39.2021 14.1128ZM14.9662 26.5756C14.9662 30.2525 11.9748 33.2439 8.29792 33.2439C4.621 33.2439 1.62962 30.2525 1.62962 26.5756C1.62962 22.8987 4.621 19.9073 8.29792 19.9073C11.9748 19.9073 14.9662 22.8987 14.9662 26.5756ZM23.75 15.5844C20.0731 15.5844 17.0817 12.593 17.0817 8.91609C17.0817 5.23916 20.0731 2.24778 23.75 2.24778C27.4269 2.24778 30.4183 5.23916 30.4183 8.91609C30.4183 12.593 27.4269 15.5844 23.75 15.5844ZM39.2021 28.829C35.5252 28.829 32.5338 25.8377 32.5338 22.1607C32.5338 20.4258 33.2002 18.8438 34.29 17.6564C34.3997 17.616 34.501 17.5479 34.5813 17.4516C34.6332 17.3894 34.6714 17.3204 34.698 17.2485C35.8854 16.159 37.4671 15.4925 39.202 15.4925C42.8789 15.4925 45.8703 18.4839 45.8703 22.1608C45.8704 25.8377 42.879 28.829 39.2021 28.829Z" fill="#3F6587"/>
<path d="M41.1149 21.4151C41.496 21.4151 41.8048 21.1063 41.8048 20.7253V20.247C41.8048 19.1469 40.9642 18.2394 39.8917 18.1329V17.3774C39.8917 16.9963 39.5829 16.6875 39.2018 16.6875C38.8208 16.6875 38.512 16.9963 38.512 17.3774V18.166C37.4235 18.377 36.5988 19.3369 36.5988 20.4861C36.5988 21.7896 37.6593 22.8499 38.9626 22.8499H39.4408C39.9835 22.8499 40.4249 23.2914 40.4249 23.8341C40.4249 24.3768 39.9835 24.8182 39.4408 24.8182H38.7234C38.3126 24.8182 37.9783 24.484 37.9783 24.0731C37.9783 23.6921 37.6695 23.3833 37.2885 23.3833C36.9074 23.3833 36.5986 23.6921 36.5986 24.0731C36.5986 25.1732 37.4391 26.0807 38.5118 26.1872V26.9428C38.5118 27.3238 38.8206 27.6326 39.2016 27.6326C39.5827 27.6326 39.8915 27.3238 39.8915 26.9428V26.1541C40.9799 25.9431 41.8046 24.9832 41.8046 23.834C41.8046 22.5306 40.7442 21.4702 39.4408 21.4702H38.9627C38.42 21.4702 37.9785 21.0288 37.9785 20.4861C37.9785 19.9434 38.42 19.5019 38.9627 19.5019H39.6801C40.0909 19.5019 40.4251 19.8361 40.4251 20.247V20.7253C40.4252 21.1063 40.7339 21.4151 41.1149 21.4151Z" fill="#F37A20"/>
<path d="M14.9201 36.9229H9.0336C8.65265 36.9229 8.34375 37.2317 8.34375 37.6127V46.4425C8.34375 46.8235 8.65265 47.1323 9.0336 47.1323H14.9201C15.301 47.1323 15.6099 46.8235 15.6099 46.4425V37.6127C15.6099 37.2316 15.301 36.9229 14.9201 36.9229ZM14.2302 45.7526H9.72337V38.3025H14.2302V45.7526Z" fill="#3F6587"/>
<path d="M43.6173 36.9229H37.7309C37.3498 36.9229 37.041 37.2317 37.041 37.6127V46.4425C37.041 46.8235 37.3498 47.1323 37.7309 47.1323H43.6173C43.9984 47.1323 44.3072 46.8235 44.3072 46.4425V37.6127C44.3071 37.2316 43.9984 36.9229 43.6173 36.9229ZM42.9275 45.7526H38.4206V38.3025H42.9275V45.7526Z" fill="#3F6587"/>
<path d="M24.4856 39.8201C24.8666 39.8201 25.1755 39.5113 25.1755 39.1302V28.7826C25.1755 28.4016 24.8666 28.0928 24.4856 28.0928H18.599C18.2181 28.0928 17.9092 28.4016 17.9092 28.7826V46.4421C17.9092 46.8232 18.2181 47.132 18.599 47.132H24.4855C24.8666 47.132 25.1754 46.8232 25.1754 46.4421V42.3494C25.1754 41.9683 24.8666 41.6595 24.4855 41.6595C24.1045 41.6595 23.7957 41.9683 23.7957 42.3494V45.7523H19.2888V29.4724H23.7957V39.1302C23.7957 39.5113 24.1045 39.8201 24.4856 39.8201Z" fill="#3F6587"/>
<path d="M34.0509 32.5078H28.1645C27.7834 32.5078 27.4746 32.8166 27.4746 33.1977V46.4423C27.4746 46.8233 27.7834 47.1322 28.1645 47.1322H34.0509C34.432 47.1322 34.7408 46.8233 34.7408 46.4423V33.1977C34.7408 32.8166 34.432 32.5078 34.0509 32.5078ZM33.3612 45.7524H28.8543V33.8874H33.3612V45.7524Z" fill="#3F6587"/>
</g>
<defs>
<clipPath id="clip0_10808_56119">
<rect width="47" height="47" fill="white" transform="translate(0.25 0.5)"/>
</clipPath>
</defs>
</svg>
