<svg width="48" height="48" viewBox="0 0 48 48" fill="none" xmlns="http://www.w3.org/2000/svg">
<g clip-path="url(#clip0_10808_56149)">
<path d="M25.5334 23.284H24.6865V21.4258C24.6865 21.0456 24.3784 20.7373 23.9981 20.7373C23.6177 20.7373 23.3096 21.0456 23.3096 21.4258V23.9725C23.3096 24.3527 23.6177 24.661 23.9981 24.661H25.5334C25.9137 24.661 26.2219 24.3527 26.2219 23.9725C26.2219 23.5923 25.9137 23.284 25.5334 23.284V23.284Z" fill="#F37A20"/>
<path d="M23.9986 17.5166C20.824 17.5166 18.2412 20.1103 18.2412 23.2985C18.2412 26.4867 20.824 29.0805 23.9986 29.0805C27.1733 29.0805 29.7561 26.4867 29.7561 23.2985C29.7561 20.1103 27.1733 17.5166 23.9986 17.5166V17.5166ZM23.9986 27.7035C21.5833 27.7035 19.6182 25.7275 19.6182 23.2985C19.6182 20.8697 21.5832 18.8936 23.9986 18.8936C26.4141 18.8936 28.3792 20.8696 28.3792 23.2985C28.3792 25.7275 26.4141 27.7035 23.9986 27.7035V27.7035Z" fill="#F37A20"/>
<path d="M5.84707 30.4491H12.2093C12.7697 30.4491 13.2256 29.9932 13.2256 29.4328V26.2643C13.2256 25.704 12.7697 25.248 12.2093 25.248H5.84707C5.28527 25.248 4.82812 25.7039 4.82812 26.2643V29.4328C4.82822 29.9932 5.28527 30.4491 5.84707 30.4491V30.4491ZM9.71539 26.6251H11.8487V29.0721H9.71539V26.6251ZM6.20517 26.6251H8.33844V29.0721H6.20517V26.6251Z" fill="#F37A20"/>
<path d="M4.82822 36.3155C4.82822 36.8773 5.28527 37.3344 5.84716 37.3344H12.2094C12.7697 37.3344 13.2257 36.8773 13.2257 36.3155V33.1497C13.2257 32.5879 12.7697 32.1309 12.2094 32.1309H5.84707C5.28527 32.1309 4.82812 32.5879 4.82812 33.1497V36.3155H4.82822ZM9.71539 33.5078H11.8487V35.9575H9.71539V33.5078ZM6.20517 33.5078H8.33844V35.9575H6.20517V33.5078Z" fill="#F37A20"/>
<path d="M35.7914 30.4491H42.1537C42.714 30.4491 43.1699 29.9932 43.1699 29.4328V26.2643C43.1699 25.704 42.714 25.248 42.1537 25.248H35.7914C35.2296 25.248 34.7725 25.7039 34.7725 26.2643V29.4328C34.7726 29.9932 35.2296 30.4491 35.7914 30.4491ZM39.6597 26.6251H41.793V29.0721H39.6597V26.6251ZM36.1495 26.6251H38.2828V29.0721H36.1495V26.6251Z" fill="#F37A20"/>
<path d="M35.7914 37.3344H42.1537C42.714 37.3344 43.1699 36.8773 43.1699 36.3155V33.1497C43.1699 32.5879 42.714 32.1309 42.1537 32.1309H35.7914C35.2296 32.1309 34.7725 32.5879 34.7725 33.1497V36.3155C34.7726 36.8773 35.2296 37.3344 35.7914 37.3344ZM39.6597 33.5078H41.793V35.9575H39.6597V33.5078ZM36.1495 33.5078H38.2828V35.9575H36.1495V33.5078Z" fill="#F37A20"/>
<path d="M46.5748 17.8474H33.2976V15.7879H34.1417C34.6949 15.7879 35.1451 15.3367 35.1451 14.782V11.9153C35.1451 11.3607 34.695 10.9095 34.1417 10.9095H24.6871V8.88399H30.1449C30.8301 8.88399 31.3876 8.32541 31.3876 7.63886V3.67167C31.3876 2.98512 30.8301 2.42654 30.1449 2.42654H24.6871V2.01465C24.6871 1.63443 24.3789 1.32617 23.9986 1.32617C23.6183 1.32617 23.3101 1.63443 23.3101 2.01465V3.11502V8.19552V10.9096H13.8583C13.3036 10.9096 12.8524 11.3609 12.8524 11.9154V14.7821C12.8524 15.3368 13.3036 15.788 13.8583 15.788H14.7024V17.8475H1.42265C0.913912 17.8474 0.5 18.2624 0.5 18.7726V21.1893C0.5 21.6995 0.913912 22.1145 1.42265 22.1145H1.86869V31.2903C1.86869 31.6705 2.17685 31.9788 2.55717 31.9788C2.93748 31.9788 3.24564 31.6705 3.24564 31.2903V22.1145H14.7024V45.2969H3.24564V34.4692C3.24564 34.0889 2.93748 33.7807 2.55717 33.7807C2.17685 33.7807 1.86869 34.0889 1.86869 34.4692V45.5691C1.86869 46.1783 2.3655 46.6738 2.97604 46.6738H45.0239C45.633 46.6738 46.1286 46.1783 46.1286 45.5691V22.1144H46.5747C47.0849 22.1144 47.4999 21.6994 47.4999 21.1892V18.7725C47.5 18.2624 47.085 17.8474 46.5748 17.8474V17.8474ZM24.6871 3.80349H30.0107V7.50704H24.6871V3.80349ZM14.7024 20.7374H1.87695V19.2243H14.7024V20.7374ZM46.123 19.2244V20.7375H45.4403H33.2976V19.2244H46.123ZM28.7591 45.2969H19.2383V43.6224H19.8484H28.1491H28.7592V45.2969H28.7591ZM20.5368 42.2455V34.2367H23.3101V42.2455H20.5368ZM24.6871 42.2455V34.2367H27.4606V42.2455H24.6871ZM28.8375 42.2472V34.0347C28.8375 33.3868 28.3104 32.8598 27.6624 32.8598H20.3375C19.6881 32.8598 19.1598 33.3869 19.1598 34.0347V42.2473C18.4406 42.2668 17.8613 42.8351 17.8613 43.5323V45.2969H16.0793V15.7879H22.3229C22.7032 15.7879 23.0113 15.4797 23.0113 15.0995C23.0113 14.7192 22.7032 14.411 22.3229 14.411H14.2292V12.2865H33.7681V14.411H25.3882C25.0079 14.411 24.6998 14.7192 24.6998 15.0995C24.6998 15.4797 25.0079 15.7879 25.3882 15.7879H31.9206V45.2969H30.1361V43.5323C30.1361 42.8342 29.5566 42.2655 28.8375 42.2472V42.2472ZM44.7518 45.2969H33.2976V22.1144H44.7517V45.2969H44.7518Z" fill="#3F6587"/>
</g>
<defs>
<clipPath id="clip0_10808_56149">
<rect width="47" height="47" fill="white" transform="translate(0.5 0.5)"/>
</clipPath>
</defs>
</svg>
