<svg width="14" height="12" viewBox="0 0 14 12" fill="none" xmlns="http://www.w3.org/2000/svg">
<path d="M13.5 0.662109H0.5C0.223437 0.662109 0 0.885547 0 1.16211V11.1621C0 11.4387 0.223437 11.6621 0.5 11.6621H13.5C13.7766 11.6621 14 11.4387 14 11.1621V1.16211C14 0.885547 13.7766 0.662109 13.5 0.662109ZM12.875 2.39336V10.5371H1.125V2.39336L0.69375 2.05742L1.30781 1.26836L1.97656 1.78867H12.025L12.6938 1.26836L13.3078 2.05742L12.875 2.39336V2.39336ZM12.025 1.78711L7 5.69336L1.975 1.78711L1.30625 1.2668L0.692188 2.05586L1.12344 2.3918L6.46094 6.5418C6.61444 6.66105 6.80328 6.72578 6.99766 6.72578C7.19203 6.72578 7.38088 6.66105 7.53438 6.5418L12.875 2.39336L13.3062 2.05742L12.6922 1.26836L12.025 1.78711Z" fill="#BDBDBD"/>
</svg>
