<svg width="48" height="48" viewBox="0 0 48 48" fill="none" xmlns="http://www.w3.org/2000/svg">
<g clip-path="url(#clip0_10808_56163)">
<path d="M36.9789 47.5C36.8614 47.5 36.7459 47.4785 36.6323 47.4374C36.1937 47.2709 35.9371 46.8225 36.0135 46.3603L37.7819 35.75H33.0623C32.6941 35.75 32.3612 35.5464 32.1928 35.2193C32.0244 34.8943 32.0537 34.5006 32.2652 34.201L42.0569 20.4927C42.3291 20.1167 42.8265 19.9874 43.2437 20.1637C43.6667 20.3478 43.9036 20.8021 43.8135 21.2545L42.0902 29.875H46.7706C47.127 29.875 47.456 30.0689 47.6284 30.3803C47.8007 30.6917 47.7909 31.0735 47.601 31.3732L37.8093 47.0398C37.6252 47.3336 37.3079 47.5 36.9789 47.5ZM34.9658 33.7917H38.9373C39.2252 33.7917 39.4974 33.917 39.6854 34.1383C39.8714 34.3577 39.9517 34.6495 39.9027 34.9315L38.7512 41.8346L45.0042 31.8334H40.8956C40.6038 31.8334 40.3238 31.7022 40.1377 31.475C39.9517 31.2478 39.8773 30.9482 39.9341 30.6623L40.9975 25.3435L34.9658 33.7917Z" fill="#F37A20"/>
<path d="M31.1042 41.625H1.72917C1.18867 41.625 0.75 41.1863 0.75 40.6458V30.8542C0.75 30.3137 1.18867 29.875 1.72917 29.875H29.1458C29.6863 29.875 30.125 30.3137 30.125 30.8542C30.125 31.3947 29.6863 31.8333 29.1458 31.8333H2.70833V39.6667H31.1042C31.6447 39.6667 32.0833 40.1053 32.0833 40.6458C32.0833 41.1863 31.6447 41.625 31.1042 41.625Z" fill="#3F6587"/>
<path d="M21.3119 31.8333H11.5202C10.9797 31.8333 10.541 31.3947 10.541 30.8542V1.47917C10.541 0.938667 10.9797 0.5 11.5202 0.5H21.3119C21.8524 0.5 22.291 0.938667 22.291 1.47917V30.8542C22.291 31.3947 21.8524 31.8333 21.3119 31.8333ZM12.4993 29.875H20.3327V2.45833H12.4993V29.875Z" fill="#3F6587"/>
<path d="M5.64518 31.8333C5.10468 31.8333 4.66602 31.3947 4.66602 30.8542V7.35417C4.66602 6.81367 5.10468 6.375 5.64518 6.375H11.5202C12.0607 6.375 12.4993 6.81367 12.4993 7.35417C12.4993 7.89467 12.0607 8.33333 11.5202 8.33333H6.62435V30.8542C6.62435 31.3947 6.18568 31.8333 5.64518 31.8333Z" fill="#3F6587"/>
<path d="M11.5202 14.2083H5.64518C5.10468 14.2083 4.66602 13.7697 4.66602 13.2292C4.66602 12.6887 5.10468 12.25 5.64518 12.25H11.5202C12.0607 12.25 12.4993 12.6887 12.4993 13.2292C12.4993 13.7697 12.0607 14.2083 11.5202 14.2083Z" fill="#3F6587"/>
<path d="M11.5202 20.0833H5.64518C5.10468 20.0833 4.66602 19.6447 4.66602 19.1042C4.66602 18.5637 5.10468 18.125 5.64518 18.125H11.5202C12.0607 18.125 12.4993 18.5637 12.4993 19.1042C12.4993 19.6447 12.0607 20.0833 11.5202 20.0833Z" fill="#3F6587"/>
<path d="M11.5202 25.9583H5.64518C5.10468 25.9583 4.66602 25.5197 4.66602 24.9792C4.66602 24.4387 5.10468 24 5.64518 24H11.5202C12.0607 24 12.4993 24.4387 12.4993 24.9792C12.4993 25.5197 12.0607 25.9583 11.5202 25.9583Z" fill="#3F6587"/>
<path d="M21.3125 25.9583H19.3542C18.8137 25.9583 18.375 25.5197 18.375 24.9792C18.375 24.4387 18.8137 24 19.3542 24H21.3125C21.853 24 22.2917 24.4387 22.2917 24.9792C22.2917 25.5197 21.853 25.9583 21.3125 25.9583Z" fill="#3F6587"/>
<path d="M21.3125 20.0833H19.3542C18.8137 20.0833 18.375 19.6447 18.375 19.1042C18.375 18.5637 18.8137 18.125 19.3542 18.125H21.3125C21.853 18.125 22.2917 18.5637 22.2917 19.1042C22.2917 19.6447 21.853 20.0833 21.3125 20.0833Z" fill="#3F6587"/>
<path d="M21.3125 14.2083H19.3542C18.8137 14.2083 18.375 13.7697 18.375 13.2292C18.375 12.6887 18.8137 12.25 19.3542 12.25H21.3125C21.853 12.25 22.2917 12.6887 22.2917 13.2292C22.2917 13.7697 21.853 14.2083 21.3125 14.2083Z" fill="#3F6587"/>
<path d="M21.3125 8.33333H19.3542C18.8137 8.33333 18.375 7.89467 18.375 7.35417C18.375 6.81367 18.8137 6.375 19.3542 6.375H21.3125C21.853 6.375 22.2917 6.81367 22.2917 7.35417C22.2917 7.89467 21.853 8.33333 21.3125 8.33333Z" fill="#3F6587"/>
<path d="M8.58333 37.7087C7.50233 37.7087 6.625 36.8313 6.625 35.7503C6.625 34.6693 7.50233 33.792 8.58333 33.792C9.66433 33.792 10.5417 34.6693 10.5417 35.7503C10.5417 36.8313 9.66433 37.7087 8.58333 37.7087ZM8.58333 35.7484L9.5625 35.7503L8.58333 35.7484Z" fill="#3F6587"/>
<path d="M29.1452 36.7288H17.3952C16.8547 36.7288 16.416 36.2902 16.416 35.7497C16.416 35.2092 16.8547 34.7705 17.3952 34.7705H29.1452C29.6857 34.7705 30.1244 35.2092 30.1244 35.7497C30.1244 36.2902 29.6857 36.7288 29.1452 36.7288Z" fill="#3F6587"/>
</g>
<defs>
<clipPath id="clip0_10808_56163">
<rect width="47" height="47" fill="white" transform="translate(0.75 0.5)"/>
</clipPath>
</defs>
</svg>
