<svg width="41" height="47" viewBox="0 0 41 47" fill="none" xmlns="http://www.w3.org/2000/svg">
<path d="M36.6133 14.6975C36.9678 13.7999 37.147 12.8507 37.147 11.8669C37.147 11.6675 37.1393 11.4659 37.1242 11.2681C37.0961 10.8998 36.7837 10.625 36.427 10.6538C36.0701 10.6828 35.8034 11.0048 35.8316 11.3731C35.8439 11.5362 35.8503 11.7024 35.8503 11.8669C35.8503 12.8679 35.6249 13.8252 35.1801 14.7121C35.097 14.8776 35.0849 15.0714 35.1462 15.2467C35.2076 15.4221 35.3372 15.563 35.5036 15.6355C38.0354 16.7395 39.6713 19.2851 39.6713 22.1205C39.6713 25.89 36.8122 28.9759 33.1622 29.1457C32.8817 29.1587 32.6412 29.3566 32.5665 29.6359C32.0834 31.4414 30.1422 32.7519 27.9511 32.7519C26.907 32.7519 25.9112 32.4653 25.0909 31.9359L27.2329 28.4486C27.383 28.2042 27.4601 27.9333 27.4681 27.6634C27.4813 27.2136 27.3027 26.7668 26.9501 26.4504C26.3537 25.915 25.4515 25.9503 24.896 26.5305L23.2886 28.2094L23.8127 24.2043C23.868 23.7808 23.7496 23.3482 23.4878 23.0172C23.2586 22.7276 22.9336 22.5336 22.5791 22.4702C22.5285 22.4612 22.4772 22.4548 22.4256 22.4512L21.8466 22.4108C21.5584 22.3906 21.2829 22.4554 21.0441 22.5852C20.646 22.8017 20.3496 23.1996 20.2662 23.6881L19.7592 26.66L19.2522 29.6318L16.1218 25.6601C16.018 25.5283 15.8955 25.4179 15.7609 25.3304L15.7585 25.3287C15.744 25.3193 15.7288 25.3112 15.714 25.3023C15.5214 25.187 15.3066 25.1158 15.0857 25.0956C15.0786 25.095 15.0714 25.0951 15.0644 25.0945C15.0318 25.092 14.9993 25.0899 14.9665 25.0896C14.767 25.0875 14.5656 25.1264 14.3748 25.2092L13.7699 25.4715C13.3681 25.6457 13.06 25.9906 12.9244 26.4179C12.7888 26.8452 12.8396 27.3113 13.0638 27.697L15.6262 32.1032C14.8619 32.5244 13.967 32.752 13.0496 32.752C10.8583 32.752 8.91728 31.4415 8.43413 29.6361C8.35939 29.3567 8.11888 29.1589 7.83843 29.1459C4.18847 28.976 1.32934 25.8902 1.32934 22.1206C1.32934 19.2851 2.96529 16.7395 5.49706 15.6356C5.66345 15.5631 5.793 15.4222 5.8544 15.2468C5.91579 15.0715 5.90352 14.8777 5.8205 14.7122C5.37579 13.8253 5.15032 12.868 5.15032 11.867C5.15032 8.44623 7.84795 5.66313 11.1637 5.66313C12.0879 5.66313 12.9752 5.87427 13.8007 6.29066C13.9736 6.37795 14.1752 6.38135 14.351 6.30002C14.5265 6.21869 14.6581 6.06107 14.7099 5.86977C15.4322 3.20151 17.8135 1.33794 20.5005 1.33794C23.1875 1.33794 25.5688 3.20151 26.2911 5.86977C26.343 6.06107 26.4745 6.21878 26.65 6.30002C26.8257 6.38144 27.0274 6.37805 27.2003 6.29066C28.0258 5.87427 28.9131 5.66313 29.8373 5.66313C32.0538 5.66313 34.0842 6.91515 35.136 8.93073C35.3057 9.25597 35.699 9.37769 36.0142 9.20255C36.3296 9.02749 36.4475 8.62175 36.2777 8.29651C34.9993 5.847 32.5315 4.32538 29.8373 4.32538C28.9618 4.32538 28.1135 4.48134 27.3064 4.78996C26.2206 1.93535 23.5192 0 20.5001 0C17.4809 0 14.7795 1.93535 13.6941 4.78987C12.887 4.48125 12.0387 4.32528 11.1633 4.32528C7.13239 4.32528 3.85311 7.70846 3.85311 11.8669C3.85311 12.8507 4.03231 13.8 4.3868 14.6975C1.72085 16.1344 0.0322266 18.9777 0.0322266 22.1205C0.0322266 26.4514 3.20259 30.0239 7.3301 30.4486C8.14157 32.6145 10.4221 34.0897 13.0491 34.0897C14.2009 34.0897 15.3288 33.7947 16.293 33.2505L16.6143 33.8029C17.0526 34.5568 17.234 35.4496 17.125 36.3171C17.0307 37.0672 16.9146 37.9505 16.7673 38.815C16.7054 39.1789 16.9411 39.5256 17.2937 39.5895C17.6469 39.6535 17.9825 39.4102 18.0444 39.0464C18.1962 38.1557 18.3148 37.2539 18.4109 36.489C18.5573 35.324 18.3142 34.1256 17.7263 33.1146L14.1754 27.0086C14.1334 26.9364 14.1454 26.8681 14.1564 26.8338C14.1672 26.7995 14.1968 26.7371 14.2719 26.7045L14.8769 26.4422C14.9602 26.406 15.0584 26.4313 15.1155 26.5038L18.5709 30.888C18.5801 30.8996 18.5898 30.9104 18.5993 30.9215C18.7277 31.072 18.8874 31.1803 19.063 31.2397C19.2495 31.3028 19.4532 31.3111 19.6548 31.2585C19.657 31.2579 19.6592 31.2576 19.6615 31.2569C19.8574 31.2044 20.0278 31.0996 20.1603 30.9578C20.1655 30.9522 20.1711 30.9469 20.1762 30.9413C20.1808 30.9361 20.1851 30.9305 20.1896 30.9252C20.3167 30.7773 20.4048 30.5933 20.4399 30.3871L21.5431 23.9201C21.5614 23.8132 21.6565 23.7386 21.759 23.7456L22.3382 23.7859C22.4153 23.7914 22.4622 23.8367 22.4832 23.8633C22.5042 23.8899 22.5379 23.9462 22.5275 24.0254L21.9094 28.7501C21.9017 28.8086 21.8987 28.8668 21.9001 28.9244C21.9097 29.3273 22.1343 29.6975 22.4933 29.8794C22.519 29.8925 22.5449 29.9043 22.5712 29.9149C22.7023 29.9686 22.8398 29.9937 22.976 29.9918C23.2485 29.9879 23.5159 29.8758 23.7166 29.6661L25.8184 27.4707C25.8547 27.4328 25.902 27.4123 25.9502 27.4089C25.9523 27.4087 25.9544 27.4082 25.9565 27.4081L25.9597 27.4083C25.9966 27.4074 26.0336 27.4164 26.0666 27.436C26.0779 27.4427 26.0888 27.4506 26.099 27.4597C26.1759 27.5289 26.1921 27.6437 26.1376 27.7327L23.2835 32.3791C22.684 33.355 22.4072 34.5287 22.5042 35.6836C22.7758 38.9194 23.2464 42.5679 25.2913 45.6622H15.7045C16.4363 44.5427 17.0048 43.269 17.43 41.8028C17.5326 41.449 17.3377 41.0762 16.9946 40.9703C16.6514 40.8645 16.2902 41.0655 16.1877 41.4195C15.6691 43.2079 14.9224 44.6721 13.9048 45.8956C13.7399 46.0939 13.702 46.3731 13.8078 46.6105C13.9136 46.8479 14.1436 47 14.3968 47H26.6032C26.8565 47 27.0865 46.8479 27.1923 46.6105C27.298 46.3731 27.2601 46.0939 27.0953 45.8957C24.5986 42.8934 24.0831 38.9906 23.7958 35.5683C23.7233 34.7034 23.9302 33.825 24.3785 33.0952L24.3967 33.0655C25.4237 33.7296 26.6609 34.0898 27.9508 34.0898C30.5779 34.0898 32.8584 32.6146 33.6698 30.4486C37.7973 30.0239 40.9677 26.4514 40.9677 22.1206C40.9679 18.9777 39.2793 16.1344 36.6133 14.6975Z" fill="#3F6587"/>
</svg>
