<svg width="26" height="25" viewBox="0 0 26 25" fill="none" xmlns="http://www.w3.org/2000/svg">
<path fill-rule="evenodd" clip-rule="evenodd" d="M16.3209 11.5227L6.00977 9.76355V23.083C6.00977 23.7113 6.51583 24.1511 7.08516 24.1511H24.7975C25.4301 24.1511 25.8729 23.6485 25.8729 23.083V18.1825L16.3209 11.5227Z" fill="#00572E"/>
<path fill-rule="evenodd" clip-rule="evenodd" d="M16.3201 0.151123H7.14766C6.51507 0.151123 6.07227 0.653744 6.07227 1.21919V6.11975L16.3201 12.0884L21.7603 13.9104L25.9986 12.0884V6.11975L16.3201 0.151123Z" fill="#0FA86C"/>
<path d="M16.2576 6.11975H6.00977V12.0884H16.2576V6.11975Z" fill="#007D41"/>
<path fill-rule="evenodd" clip-rule="evenodd" d="M13.411 4.92627H6.00977V19.9421H13.3477C13.9803 19.9421 14.4231 19.4395 14.4231 18.874V6.05717C14.4864 5.42889 13.9803 4.92627 13.411 4.92627Z" fill="#000003"/>
<path fill-rule="evenodd" clip-rule="evenodd" d="M12.7784 5.55444H6.00977V20.5703H12.7784C13.411 20.5703 13.8538 20.0676 13.8538 19.5022V6.62251C13.8538 6.05706 13.411 5.55444 12.7784 5.55444Z" fill="#000003"/>
<path fill-rule="evenodd" clip-rule="evenodd" d="M12.7784 5.55444H6.00977V19.3137H12.7784C13.411 19.3137 13.8538 18.8111 13.8538 18.2456V6.62251C13.8538 6.05706 13.411 5.55444 12.7784 5.55444Z" fill="#000003"/>
<path fill-rule="evenodd" clip-rule="evenodd" d="M12.1458 5.55444H6.00977V19.3137H12.1458C12.7784 19.3137 13.2212 18.8111 13.2212 18.2456V6.62251C13.2845 6.05706 12.7784 5.55444 12.1458 5.55444Z" fill="#000003"/>
<path d="M1.07539 5.55444H12.1456C12.7782 5.55444 13.221 6.05706 13.221 6.62251V17.6174C13.221 18.2456 12.7149 18.6854 12.1456 18.6854H1.07539C0.442808 18.6854 0 18.1828 0 17.6174V6.62251C0 6.05706 0.506067 5.55444 1.07539 5.55444Z" fill="#007D41"/>
<path fill-rule="evenodd" clip-rule="evenodd" d="M3.41602 15.7322L5.75657 12.151L3.60579 8.56982H5.31376L6.45241 10.8316C6.57893 11.0201 6.64219 11.2086 6.64219 11.3342C6.70545 11.1458 6.76871 11.0201 6.89522 10.8316L8.16039 8.56982H9.74185L7.59106 12.0882L9.80511 15.6694H8.16039L6.83196 13.1562C6.76871 13.0306 6.70545 12.9678 6.64219 12.8421C6.57893 12.9678 6.57893 13.0934 6.51567 13.1562L5.12399 15.6694H3.41602V15.7322Z" fill="white"/>
<path fill-rule="evenodd" clip-rule="evenodd" d="M24.8621 0.151123H16.3223V6.11975H25.9375V1.21919C25.9375 0.653744 25.4315 0.151123 24.8621 0.151123Z" fill="#3FB981"/>
<path d="M26.0008 12.1514H16.3223V18.12H26.0008V12.1514Z" fill="#007D41"/>
</svg>
