<svg width="17" height="23" viewBox="0 0 17 23" fill="none" xmlns="http://www.w3.org/2000/svg">
<path d="M15.4708 6.29634L11.0333 1.72017C10.5292 1.20205 9.85417 0.912355 9.14583 0.912355L2.91667 0.912354C1.44375 0.912354 0.25 2.14341 0.25 3.66235L0.250267 20.1624C0.250267 21.6813 1.44402 22.9124 2.91693 22.9124L13.5833 22.9124C15.0562 22.9124 16.25 21.6813 16.25 20.1624L16.25 8.23853C16.25 7.50806 15.9708 6.81197 15.4708 6.29634ZM9.58333 2.37673C9.76988 2.44402 9.94442 2.54199 10.0883 2.69036L14.5258 7.26653C14.6708 7.41353 14.7667 7.594 14.8292 7.78736L10.25 7.78736C9.88333 7.78736 9.58333 7.47798 9.58333 7.09986L9.58333 2.37673ZM14.9167 20.1624C14.9167 20.9203 14.3183 21.5374 13.5833 21.5374L2.91666 21.5374C2.18166 21.5374 1.58333 20.9203 1.58333 20.1624L1.58333 3.66235C1.58333 2.90439 2.18167 2.28735 2.91667 2.28735L8.25 2.28735L8.25 7.09985C8.25 8.23853 9.14583 9.16236 10.25 9.16236L14.9167 9.16236L14.9167 20.1624ZM2.91666 11.9124L2.91666 18.7874C2.91666 19.5466 3.51375 20.1624 4.25 20.1624L12.25 20.1624C12.9862 20.1624 13.5833 19.5466 13.5833 18.7874L13.5833 11.9124C13.5833 11.1531 12.9862 10.5374 12.25 10.5374L4.25 10.5374C3.51375 10.5374 2.91666 11.1518 2.91666 11.9124ZM5.58333 18.7874L4.25 18.7874L4.25 17.4124L5.58333 17.4124L5.58333 18.7874ZM5.58333 16.0374L4.25 16.0374L4.25 14.6624L5.58333 14.6624L5.58333 16.0374ZM9.58333 18.7874L6.91666 18.7874L6.91666 17.4124L9.58333 17.4124L9.58333 18.7874ZM9.58333 16.0374L6.91666 16.0374L6.91666 14.6624L9.58333 14.6624L9.58333 16.0374ZM12.25 18.7874L10.9167 18.7874L10.9167 17.4124L12.25 17.4124L12.25 18.7874ZM12.25 16.0374L10.9167 16.0374L10.9167 14.6624L12.25 14.6624L12.25 16.0374ZM12.25 13.2874L4.25 13.2874L4.25 11.9124L12.25 11.9124L12.25 13.2874Z" fill="#3F6587"/>
</svg>
