<svg width="16" height="15" viewBox="0 0 16 15" fill="none" xmlns="http://www.w3.org/2000/svg">
<g clip-path="url(#clip0_10742_44843)">
<path d="M8.84153 2.99218C8.84176 2.8623 8.78703 2.73914 8.69237 2.65612L6.1957 0.463838C6.0707 0.353364 5.89883 0.331658 5.753 0.402314C5.60716 0.474666 5.51081 0.628283 5.51081 0.798389L5.5082 2.32964L5.11497 2.32884C3.85117 2.32642 2.82149 3.40373 2.81914 4.73072L2.78815 9.65422C1.94466 9.93258 1.328 10.7496 1.32618 11.7277C1.32408 12.9357 2.25508 13.9168 3.4056 13.9193C4.55612 13.9215 5.49076 12.9439 5.49284 11.7359C5.49454 10.7578 4.88086 9.93859 4.03815 9.65695L4.0467 4.73234C4.04727 4.13077 4.51602 3.64132 5.08893 3.64132L5.48216 3.64212L5.503 5.17257C5.5027 5.34262 5.59602 5.4966 5.74237 5.5696C5.79846 5.59706 5.85867 5.61084 5.91891 5.61095C6.01602 5.61281 6.10977 5.57726 6.18789 5.51163L8.69179 3.32905C8.78685 3.24484 8.84153 3.12179 8.84153 2.99218ZM4.24258 11.7323C4.24174 12.2147 3.86732 12.6065 3.40768 12.6057C2.94831 12.6048 2.57513 12.2117 2.57591 11.7291C2.57675 11.2467 2.95117 10.8549 3.41081 10.8557C3.87044 10.8565 4.24258 11.2511 4.24258 11.7323ZM12.5941 0.811787C11.4436 0.809586 10.509 1.78714 10.5069 2.99519C10.5052 3.97327 11.1191 4.79249 11.9616 5.07413L11.953 9.99875C11.952 10.602 11.484 11.0917 10.9095 11.0906L10.4929 11.0898L10.4955 9.58315C10.4958 9.4131 10.4025 9.25912 10.2562 9.18612C10.111 9.11576 9.93768 9.13594 9.81242 9.24594L7.30851 11.4285C7.21356 11.5112 7.15841 11.6342 7.1582 11.764C7.15799 11.8939 7.21271 12.0171 7.30737 12.1001L9.80346 14.2922C9.87984 14.3599 9.97458 14.3943 10.0701 14.3944C10.1299 14.3945 10.1906 14.381 10.2468 14.3537C10.3934 14.2814 10.4873 14.1278 10.4875 13.9578L10.4902 12.4512L10.8834 12.452C12.1472 12.4544 13.1769 11.3771 13.1793 10.0501L13.1878 5.12546C14.0316 4.8471 14.648 4.03007 14.6498 3.05198C14.6775 1.79534 13.7452 0.813975 12.5941 0.811787ZM12.5889 3.87374C12.1296 3.87286 11.7564 3.47972 11.7572 2.9971C11.758 2.51476 12.1324 2.12292 12.5921 2.12374C13.0517 2.12456 13.4246 2.51777 13.4238 3.00038C13.423 3.483 13.0499 3.87648 12.5889 3.87374Z" fill="white"/>
</g>
<defs>
<clipPath id="clip0_10742_44843">
<rect width="15" height="14" fill="white" transform="translate(0.5 0.365479)"/>
</clipPath>
</defs>
</svg>
