<svg width="48" height="59" viewBox="0 0 48 59" fill="none" xmlns="http://www.w3.org/2000/svg">
<g clip-path="url(#clip0_10808_56191)">
<g clip-path="url(#clip1_10808_56191)">
<path d="M9.1118 48.895C8.94115 48.7242 8.70422 48.626 8.46289 48.626C8.22045 48.626 7.98463 48.7242 7.81389 48.895C7.64223 49.0657 7.54492 49.3025 7.54492 49.5439C7.54492 49.7854 7.64223 50.0222 7.81389 50.1929C7.98463 50.3637 8.22146 50.4619 8.46289 50.4619C8.70432 50.4619 8.94023 50.3638 9.1118 50.1929C9.28254 50.0222 9.38086 49.7854 9.38086 49.5439C9.38086 49.3025 9.28264 49.0657 9.1118 48.895Z" fill="#3F6587"/>
<path d="M32.6868 9.94556L32.6634 9.92004C32.321 9.54615 31.7402 9.52072 31.3664 9.86303C30.9925 10.2054 30.967 10.7861 31.3094 11.16L31.3328 11.1856C31.5139 11.3833 31.7615 11.4835 32.01 11.4835C32.2315 11.4835 32.4536 11.4038 32.6298 11.2426C33.0036 10.9001 33.0292 10.3194 32.6868 9.94556Z" fill="#3F6587"/>
<path d="M23.7428 10.8896C19.7614 10.8896 16.5225 14.1287 16.5225 18.11C16.5225 22.0914 19.7615 25.3304 23.7428 25.3304C27.7242 25.3304 30.9632 22.0913 30.9632 18.11C30.9632 14.1288 27.7241 10.8896 23.7428 10.8896ZM23.7428 23.4946C20.7738 23.4946 18.3584 21.0791 18.3584 18.1101C18.3584 15.1411 20.7738 12.7257 23.7428 12.7257C26.7119 12.7257 29.1273 15.1411 29.1273 18.1101C29.1273 21.0791 26.7117 23.4946 23.7428 23.4946Z" fill="#F37A20"/>
<path d="M46.609 21.179L35.8426 17.6592C35.7825 15.9937 35.39 14.3911 34.6714 12.8894C34.4525 12.432 33.9045 12.2389 33.4471 12.4575C32.9899 12.6764 32.7964 13.2245 33.0153 13.6818C33.6792 15.0693 34.0158 16.5592 34.0158 18.1102C34.0158 19.8186 33.5913 21.4935 32.7866 22.9845C32.6137 22.9625 32.4379 22.9505 32.2595 22.9505C30.8667 22.9505 29.5755 23.6649 28.8266 24.8116C27.9507 24.9078 27.1651 25.3588 26.6416 26.0584C25.392 26.2237 24.4245 27.296 24.4245 28.5901C24.4245 29.8776 25.3824 30.9451 26.6227 31.1187L23.7421 34.8092L22.355 33.0313C22.3498 33.0244 22.3444 33.0177 22.339 33.0108L15.8069 24.6382C15.7964 24.6237 15.7855 24.6094 15.7742 24.5955C14.2871 22.7709 13.4681 20.4676 13.4681 18.1101C13.4681 16.2292 13.9796 14.3983 14.9466 12.8H17.3608C17.8677 12.8 18.2788 12.3891 18.2788 11.8821C18.2788 11.124 18.0513 10.4183 17.6619 9.82784C19.4309 8.5235 21.523 7.83621 23.742 7.83621C25.5249 7.83621 27.2809 8.2997 28.8198 9.17663C29.2602 9.42733 29.8208 9.27394 30.0718 8.8334C30.3228 8.39296 30.1692 7.83236 29.7287 7.58138C27.9132 6.5472 25.843 6.00046 23.7421 6.00046C21.0427 6.00046 18.401 6.91264 16.2813 8.57187C15.8338 8.33412 15.3331 8.18348 14.8017 8.1441C14.0479 6.83976 12.6275 6 11.0883 6C9.54916 6 8.12879 6.83976 7.37504 8.1441C5.43354 8.28785 3.89796 9.90954 3.89796 11.8823C3.89796 12.3892 4.30903 12.8002 4.81593 12.8002H12.8567C12.0529 14.446 11.6321 16.2579 11.6321 18.1103C11.6321 18.6152 11.6643 19.1179 11.727 19.6156L1.46011 16.2589C1.1805 16.1676 0.873986 16.2157 0.635957 16.3883C0.397744 16.561 0.256836 16.8374 0.256836 17.1315V47.162C0.256836 47.559 0.512123 47.9111 0.889592 48.0345L4.14645 49.0994C4.24119 49.1304 4.3373 49.1451 4.43185 49.1451C4.81813 49.145 5.17761 48.8992 5.3042 48.512C5.46172 48.0302 5.1989 47.5118 4.71697 47.3543L2.09287 46.4964V35.5247H8.38609C9.41275 35.5247 10.2479 36.36 10.2479 37.3865C10.2479 38.1498 9.79049 38.8277 9.08246 39.1132C8.39683 39.3897 7.85027 39.9435 7.58287 40.6329C7.31547 41.3221 7.34539 42.0997 7.66393 42.7635C7.66429 42.7644 7.66824 42.7726 7.6687 42.7735C8.30935 44.1093 9.91892 44.6775 11.2562 44.0405C13.335 43.0501 15.817 43.2277 17.7337 44.5035L23.899 48.6074L16.2244 51.1165L12.3071 49.8359C11.8252 49.6781 11.3069 49.9412 11.1494 50.4231C10.9918 50.9049 11.2547 51.4233 11.7366 51.5808L15.939 52.9547C16.1245 53.0153 16.3241 53.0153 16.5096 52.9547L31.274 48.1278L46.0383 52.9547C46.1316 52.9852 46.2278 53.0002 46.3234 53.0002C46.5147 53.0002 46.7038 52.9405 46.8624 52.8254C47.1006 52.6527 47.2415 52.3763 47.2415 52.0822V34.5993C47.2416 34.5967 47.2417 34.5942 47.2417 34.5916V22.0515C47.2418 21.6544 46.9865 21.3024 46.609 21.179ZM26.2605 28.5903C26.2605 28.1944 26.5825 27.8723 26.9784 27.8723C27.0033 27.8723 27.0303 27.8739 27.0584 27.8769C27.4395 27.9183 27.8084 27.7175 27.9797 27.3732C28.2082 26.9137 28.6682 26.6283 29.1802 26.6283C29.2137 26.6283 29.2511 26.6301 29.2943 26.6337C29.6783 26.6664 30.0431 26.454 30.2048 26.1031C30.5732 25.3033 31.3797 24.7866 32.2596 24.7866C33.3124 24.7866 34.217 25.5007 34.4594 26.5232C34.5545 26.9244 34.9054 27.213 35.3175 27.2288C35.8777 27.2502 36.3166 27.7067 36.3166 28.2678C36.3166 28.8415 35.8499 29.3081 35.2762 29.3081H26.9784C26.5825 29.3082 26.2605 28.9861 26.2605 28.5903ZM23.0182 36.8661C23.1922 37.089 23.4591 37.2194 23.742 37.2194C24.0247 37.2194 24.2917 37.0891 24.4657 36.8662L26.2008 34.6433C27.2966 35.0418 28.0194 35.6938 28.0194 36.3014C28.0194 37.2752 26.1902 38.3644 23.7421 38.3644C21.2939 38.3644 19.4647 37.2753 19.4647 36.3014C19.4647 35.6842 20.1892 35.041 21.2839 34.6431L23.0182 36.8661ZM5.97009 10.9642C6.29707 10.3719 6.93029 9.96966 7.65603 9.96966C7.7191 9.96966 7.78684 9.97324 7.85743 9.98031C8.26914 10.0214 8.65717 9.78203 8.80542 9.39603C9.16389 8.46291 10.0813 7.83594 11.0883 7.83594C12.0954 7.83594 13.0127 8.46291 13.3711 9.39603C13.5193 9.78212 13.9073 10.0214 14.3191 9.9804C14.3898 9.97334 14.4575 9.96976 14.5205 9.96976C15.2463 9.96976 15.8796 10.3721 16.2066 10.9643H5.97009V10.9642ZM2.09277 27.6742V18.3974L7.67255 20.2215L8.21682 24.682C8.3345 25.6464 8.0011 26.5866 7.30215 27.2614C6.60321 27.9362 5.65201 28.2362 4.69228 28.0848L2.09277 27.6742ZM45.4059 50.8161L36.4098 47.8751V43.7762C36.4098 43.1932 36.8843 42.7188 37.4673 42.7188C38.552 42.7188 39.5362 42.1206 40.0357 41.1577C40.5353 40.1949 40.4575 39.0459 39.8329 38.1591L39.339 37.4581C39.0102 36.9912 38.8817 36.4014 38.9864 35.84C39.0986 35.2389 39.4476 34.7322 39.9692 34.4132C40.4909 34.0941 41.1008 34.0142 41.6872 34.1882L45.406 35.2916V50.8161H45.4059ZM45.4059 33.377L42.2095 32.4284C41.1342 32.1094 39.9684 32.262 39.0113 32.8473C38.0543 33.4326 37.3875 34.4008 37.1816 35.5034C36.9864 36.5486 37.2257 37.6466 37.8379 38.5156L38.3318 39.2167C38.5635 39.5457 38.5912 39.9554 38.406 40.3126C38.2207 40.6698 37.8697 40.8831 37.4673 40.8831C35.8718 40.8831 34.5738 42.1811 34.5738 43.7765V47.2752L31.5593 46.2896C31.3739 46.229 31.1741 46.229 30.9888 46.2896L26.1209 47.881L18.7509 42.9752C16.2995 41.3434 13.1251 41.1163 10.4665 42.3831C10.0408 42.5856 9.52805 42.4051 9.32517 41.9824C9.32472 41.9814 9.32086 41.9731 9.3204 41.9723C9.21768 41.7582 9.20841 41.5184 9.29433 41.2971C9.38025 41.0758 9.5487 40.9049 9.76901 40.8162C11.1752 40.249 12.0838 38.9028 12.0838 37.3868C12.0838 35.3478 10.425 33.6891 8.386 33.6891H2.09287V29.533L4.40615 29.8982C4.66722 29.9394 4.92792 29.9598 5.18633 29.9598C6.44587 29.9598 7.65052 29.4771 8.57749 28.5822C9.69466 27.5036 10.2275 26.0011 10.0394 24.4596L9.5991 20.8514L12.1767 21.6941C12.6296 23.1551 13.3569 24.5285 14.3285 25.7279C14.3317 25.732 14.3348 25.7362 14.338 25.7404L20.1103 33.1389C18.5524 33.8508 17.6288 34.9969 17.6288 36.3014C17.6288 38.4876 20.314 40.2003 23.742 40.2003C27.1699 40.2003 29.8552 38.4877 29.8552 36.3014C29.8552 35.0219 28.9231 33.859 27.3726 33.142L28.9322 31.144H35.2762C36.8622 31.144 38.1525 29.8536 38.1525 28.2677C38.1525 26.9464 37.2723 25.8351 36.0539 25.4973C35.7389 24.7206 35.2001 24.0753 34.5239 23.6283C35.1741 22.3587 35.592 20.9823 35.763 19.5645L45.4059 22.7171V33.377Z" fill="#3F6587"/>
</g>
</g>
<defs>
<clipPath id="clip0_10808_56191">
<path d="M0.25 0.5H47.25V58.5H0.25V0.5Z" fill="white"/>
</clipPath>
<clipPath id="clip1_10808_56191">
<rect width="47" height="47" fill="white" transform="translate(0.25 6)"/>
</clipPath>
</defs>
</svg>
