<svg width="15" height="16" viewBox="0 0 15 16" fill="none" xmlns="http://www.w3.org/2000/svg">
<path d="M3.3683 10.2999C4.99453 10.4108 5.34208 10.3706 5.34208 10.6997C5.34208 11.3694 3.14732 11.3714 3.14732 10.7506C3.14766 10.5802 3.25748 10.4359 3.3683 10.2999ZM4.30413 6.39593C3.22299 6.39593 3.17411 7.88488 4.27902 7.88488C5.36752 7.88488 5.34074 6.39593 4.30413 6.39593ZM15 1.78878V13.5745C15 14.0007 14.8307 14.4095 14.5293 14.7109C14.2279 15.0123 13.8191 15.1816 13.3929 15.1816H1.60714C1.1809 15.1816 0.772119 15.0123 0.470721 14.7109C0.169323 14.4095 0 14.0007 0 13.5745L0 1.78878C0 1.36254 0.169323 0.95376 0.470721 0.652362C0.772119 0.350964 1.1809 0.181641 1.60714 0.181641H13.3929C13.8191 0.181641 14.2279 0.350964 14.5293 0.652362C14.8307 0.95376 15 1.36254 15 1.78878ZM7.39955 4.10943C7.39955 4.59459 7.68013 4.8755 8.16496 4.8755C8.65848 4.8755 8.9394 4.59459 8.9394 4.10943C8.9394 3.62427 8.65848 3.36244 8.16629 3.36244C7.68147 3.36244 7.40022 3.62494 7.40022 4.10943H7.39955ZM6.66964 5.63923H5.0106C4.17355 5.41992 2.2798 5.47684 2.2798 7.20452C2.2798 7.83398 2.59453 8.27595 3.01138 8.48052C2.48538 8.96066 2.23661 9.18834 2.23661 9.50977C2.23661 9.73979 2.33002 9.9524 2.61094 10.0709C2.31295 10.3522 2.14219 10.5557 2.14219 10.9388C2.14286 11.6124 2.7298 12.0008 4.26897 12.0008C5.74955 12.0008 6.60837 11.448 6.60837 10.4697C6.60837 9.24191 5.66317 9.28711 3.43527 9.15117L3.71585 8.70151C4.28504 8.86021 6.19989 8.9101 6.19989 7.28086C6.19989 6.88945 6.03817 6.61724 5.88516 6.42137L6.66797 6.36177L6.66964 5.63923ZM9.49353 9.31557L9.05826 9.25597C8.93036 9.23889 8.92199 9.22249 8.92199 9.08555V5.55552H7.16083L7.06741 6.24425C7.59475 6.43008 7.63661 6.40698 7.63661 6.58477V9.08789C7.63661 9.27606 7.62623 9.24124 7.06741 9.31791V9.98956H9.49219L9.49353 9.31557ZM12.8571 9.65709L12.6271 8.90809C11.2567 9.42271 11.3598 8.49258 11.3598 8.34793V6.3149H12.6271V5.46412H11.4278C11.3317 5.46412 11.3608 5.54849 11.3608 4.1707H10.5512C10.4578 5.09816 10.1602 5.47249 9.41284 5.55753V6.3149C10.0982 6.3149 10.0765 6.28644 10.0765 6.39994V8.62885C10.0765 9.59046 10.4592 9.9986 11.4717 9.9986C11.9555 9.9986 12.4912 9.83689 12.8571 9.65709Z" fill="#3F6587"/>
</svg>
