<svg width="18" height="19" viewBox="0 0 18 19" fill="none" xmlns="http://www.w3.org/2000/svg">
<path d="M1.15427 13.5368L1.87305 13.9225L9.88055 1.03259L9.16177 0.646883L1.15427 13.5368Z" fill="#E535AB"/>
<path d="M17.0052 12.5059H0.990234V13.2773H17.0052V12.5059Z" fill="#E535AB"/>
<path d="M1.3059 12.9386L9.31641 17.2371L9.73141 16.569L1.7209 12.2705L1.3059 12.9386Z" fill="#E535AB"/>
<path d="M8.26489 1.73654L16.2754 6.03503L16.6904 5.367L8.67989 1.0685L8.26489 1.73654Z" fill="#E535AB"/>
<path d="M1.30961 5.36395L1.72461 6.03198L9.73511 1.73349L9.32011 1.06545L1.30961 5.36395Z" fill="#E535AB"/>
<path d="M8.1214 1.03259L16.1289 13.9225L16.8477 13.5368L8.84018 0.646888L8.1214 1.03259Z" fill="#E535AB"/>
<path d="M2.455 4.85242H1.625V13.4494H2.455V4.85242Z" fill="#E535AB"/>
<path d="M16.3749 4.85242H15.5449V13.4494H16.3749V4.85242Z" fill="#E535AB"/>
<path d="M8.81328 16.3275L9.17578 16.911L16.1427 13.1725L15.7802 12.589L8.81328 16.3275Z" fill="#E535AB"/>
<path d="M17.4748 13.7016C16.9948 14.4777 15.9248 14.7425 15.0898 14.2964C14.2548 13.8503 13.9698 12.8559 14.4498 12.0798C14.9298 11.3038 15.9998 11.0389 16.8348 11.485C17.6748 11.9357 17.9598 12.9256 17.4748 13.7016Z" fill="#E535AB"/>
<path d="M3.54511 6.22358C3.06511 6.99964 1.99511 7.26452 1.16011 6.8184C0.325113 6.37229 0.0401128 5.37783 0.520113 4.60178C1.00011 3.82573 2.07011 3.56085 2.90511 4.00696C3.74011 4.45772 4.02511 5.44753 3.54511 6.22358Z" fill="#E535AB"/>
<path d="M0.525972 13.7016C0.0459721 12.9256 0.330972 11.9357 1.16597 11.485C2.00097 11.0389 3.06597 11.3038 3.55097 12.0798C4.03097 12.8559 3.74597 13.8457 2.91097 14.2964C2.07097 14.7425 1.00597 14.4777 0.525972 13.7016Z" fill="#E535AB"/>
<path d="M14.4537 6.22358C13.9737 5.44753 14.2587 4.45772 15.0937 4.00696C15.9287 3.56085 16.9937 3.82573 17.4787 4.60178C17.9587 5.37783 17.6737 6.36764 16.8387 6.8184C16.0037 7.26452 14.9337 6.99964 14.4537 6.22358Z" fill="#E535AB"/>
<path d="M8.9989 18.2506C8.03391 18.2506 7.25391 17.5256 7.25391 16.6288C7.25391 15.7319 8.03391 15.007 8.9989 15.007C9.9639 15.007 10.7439 15.7319 10.7439 16.6288C10.7439 17.521 9.9639 18.2506 8.9989 18.2506Z" fill="#E535AB"/>
<path d="M8.9989 3.29611C8.03391 3.29611 7.25391 2.57118 7.25391 1.6743C7.25391 0.777425 8.03391 0.0524902 8.9989 0.0524902C9.9639 0.0524902 10.7439 0.777425 10.7439 1.6743C10.7439 2.57118 9.9639 3.29611 8.9989 3.29611Z" fill="#E535AB"/>
</svg>
