<svg width="119" height="96" viewBox="0 0 119 96" fill="none" xmlns="http://www.w3.org/2000/svg">
<path d="M22.5385 54.609L22.7995 55.0355L22.7995 55.0355L22.5385 54.609ZM53.9732 35.3784L54.2342 35.8049L53.9732 35.3784ZM57.635 40.027L57.2815 39.6734L57.2815 39.6734L57.635 40.027ZM57.3804 40.2816L57.7339 40.6352L57.7339 40.6352L57.3804 40.2816ZM61.4151 48.897L61.3698 48.3991L61.3698 48.3991L61.4151 48.897ZM96.9547 45.1641C97.2297 45.1391 97.4729 45.3417 97.4979 45.6167C97.5229 45.8918 97.3203 46.135 97.0453 46.16L96.9547 45.1641ZM26.5 42.162L26.7343 42.6037L26.713 42.615L26.6906 42.6243L26.5 42.162ZM17.9963 45.6688L18.1869 46.131L17.9963 45.6688ZM62.3178 24.196C62.5749 24.0954 62.865 24.2223 62.9656 24.4794C63.0662 24.7366 62.9393 25.0266 62.6822 25.1272L62.3178 24.196ZM50.9999 29.1617L50.7656 28.7201L50.791 28.7066L50.8177 28.6961L50.9999 29.1617ZM58.2209 39.1956L57.7691 38.9815L57.7691 38.9815L58.2209 39.1956ZM17.4167 54.6846L17.1685 55.1186L17.1685 55.1186L17.4167 54.6846ZM22.2776 54.1825L53.7123 34.9519L54.2342 35.8049L22.7995 55.0355L22.2776 54.1825ZM57.9886 40.3805L57.7339 40.6352L57.0268 39.9281L57.2815 39.6734L57.9886 40.3805ZM61.3698 48.3991L96.9547 45.1641L97.0453 46.16L61.4603 49.395L61.3698 48.3991ZM26.6906 42.6243L18.1869 46.131L17.8057 45.2065L26.3094 41.6998L26.6906 42.6243ZM62.6822 25.1272L51.1821 29.6274L50.8177 28.6961L62.3178 24.196L62.6822 25.1272ZM51.2343 29.6034L26.7343 42.6037L26.2656 41.7203L50.7656 28.7201L51.2343 29.6034ZM58.6728 39.4096C58.5021 39.7701 58.2706 40.0985 57.9886 40.3805L57.2815 39.6734C57.4825 39.4724 57.6474 39.2384 57.7691 38.9815L58.6728 39.4096ZM53.7123 34.9519C56.6623 33.1472 60.1532 36.2843 58.6728 39.4096L57.7691 38.9815C58.824 36.7544 56.3364 34.5188 54.2342 35.8049L53.7123 34.9519ZM17.665 54.2506C19.0998 55.0712 20.8676 55.0451 22.2776 54.1825L22.7995 55.0355C21.0782 56.0885 18.9201 56.1204 17.1685 55.1186L17.665 54.2506ZM57.7339 40.6352C54.7188 43.6503 57.1235 48.7851 61.3698 48.3991L61.4603 49.395C56.2823 49.8657 53.3505 43.6044 57.0268 39.9281L57.7339 40.6352ZM17.1685 55.1186C13.1762 52.8353 13.5538 46.9599 17.8057 45.2065L18.1869 46.131C14.704 47.5673 14.3946 52.3802 17.665 54.2506L17.1685 55.1186Z" fill="#F37A20"/>
<path d="M12.3562 40.0219C12.1072 39.5372 12.08 38.9807 12.2748 38.3525C12.4696 37.7242 12.8007 37.167 13.268 36.6807C13.7436 36.1733 14.2375 35.8065 14.7497 35.5802C14.9985 35.4703 15.1992 35.4692 15.3516 35.5767C15.5041 35.6843 15.6523 35.8812 15.7962 36.1675C15.9078 36.3806 16.0378 36.7342 16.1861 37.2284C16.3426 37.7015 16.4305 37.96 16.4499 38.0039C16.5227 38.1292 16.6498 38.3179 16.8312 38.5702C17.0061 38.8078 17.1534 39.0225 17.2732 39.2145C17.3865 39.3919 17.4843 39.5935 17.5667 39.8195C17.6572 40.0244 17.6624 40.2145 17.5824 40.3898C17.5024 40.5651 17.3307 40.7109 17.0672 40.8272C16.35 41.144 15.4444 41.8063 14.3504 42.8143C13.2499 43.8076 12.3484 44.4594 11.6459 44.7697C10.4603 45.2933 9.59523 44.9582 9.05052 43.7645C8.69974 43.0099 8.56697 42.1153 8.65222 41.0807C8.731 40.0314 8.96566 39.0182 9.35619 38.0411C9.74026 37.0494 10.2038 36.1188 10.7468 35.2493C11.2979 34.3587 11.8511 33.6508 12.4063 33.1258C12.6374 32.9362 12.9082 32.8166 13.2186 32.767C13.5372 32.6963 13.7865 32.7261 13.9665 32.8565C14.1401 32.9722 14.1907 33.1859 14.1185 33.4977C14.0613 33.6454 13.9058 33.8278 13.6518 34.0449C12.7028 34.8664 11.9222 35.9108 11.3101 37.1781C10.7061 38.4244 10.2733 39.7612 10.0117 41.1886C9.83732 42.1402 9.84385 42.8282 10.0313 43.2526C10.1735 43.5746 10.4104 43.7149 10.7419 43.6734C11.0816 43.6109 11.3971 43.454 11.6885 43.2029C12.1409 42.8806 12.5095 42.5866 12.7944 42.3209C13.094 42.0486 13.466 41.6831 13.9106 41.2244C14.3551 40.7657 14.7427 40.3759 15.0732 40.055C15.4184 39.7276 15.5452 39.3218 15.4538 38.8375C15.3769 38.3467 15.144 37.8986 14.7551 37.4931C14.6883 37.5401 14.3462 37.9536 13.7287 38.7336C13.1258 39.5071 12.6683 39.9365 12.3562 40.0219ZM21.6085 40.4744C21.1435 40.6098 20.6953 40.5454 20.2638 40.2812C19.8404 39.9959 19.4808 39.5776 19.1847 39.0261C18.9034 38.4683 18.665 37.9089 18.4698 37.3479C18.2745 36.787 18.1296 36.2213 18.0351 35.6509C17.9963 35.5631 17.8325 35.0932 17.5436 34.2413C17.263 33.3682 17.3276 32.8412 17.7374 32.6602C17.8545 32.6085 17.9634 32.5779 18.0641 32.5684C18.1649 32.5589 18.2534 32.581 18.3296 32.6348C18.4205 32.6821 18.4935 32.7286 18.5486 32.7742C18.6183 32.8133 18.6791 32.8915 18.7308 33.0085C18.7761 33.111 18.8148 33.1988 18.8472 33.272C18.8941 33.3387 18.9353 33.4517 18.9707 33.611C19.0142 33.7492 19.0416 33.8508 19.0528 33.9158C19.0787 33.9743 19.1093 34.0833 19.1446 34.2425C19.1736 34.3872 19.1872 34.4774 19.1854 34.5131C19.5755 34.4458 20.2186 34.1792 21.1148 33.7134C22.0257 33.2412 22.6785 32.9966 23.0733 32.9796C23.4406 32.9398 23.8035 32.9894 24.1622 33.1283C24.0073 33.3717 23.6891 33.6609 23.2074 33.9961C22.7193 34.3166 22.2508 34.6023 21.8018 34.853C21.3464 35.0892 20.9526 35.3855 20.6203 35.7422C20.2881 36.0988 20.1565 36.4543 20.2255 36.8086C20.301 37.1775 20.5295 37.7938 20.9109 38.6573C21.2923 39.5208 21.5248 40.1265 21.6085 40.4744ZM28.1502 37.0866C27.8094 37.6219 27.4498 37.8769 27.0713 37.8517C26.6864 37.8118 26.3485 37.4625 26.0576 36.8039C25.6826 35.955 25.7181 34.6888 26.1638 33.0051C26.6032 31.3069 27.1137 30.0669 27.6955 29.2852C28.0083 28.8847 28.2315 28.6374 28.3649 28.5435C28.4919 28.435 28.7984 28.3171 29.2844 28.1899C30.2435 27.9062 30.9509 28.3196 31.4065 29.4303C31.6358 30.0286 31.735 30.6494 31.7043 31.2927C31.6671 31.9213 31.5057 32.5261 31.2201 33.107C30.9344 33.6879 30.6001 34.2379 30.2171 34.7569C29.8423 35.2547 29.4034 35.746 28.9003 36.2305C28.9003 36.2305 28.8587 36.2751 28.7757 36.3643C28.7008 36.4323 28.6063 36.5353 28.4923 36.6731C28.3864 36.7898 28.2724 36.9277 28.1502 37.0866ZM27.0312 36.2165C27.6653 35.9889 28.309 35.4859 28.9623 34.7077C29.6302 33.9229 30.126 33.0655 30.4498 32.1354C30.7736 31.2052 30.7802 30.4677 30.4696 29.9228C30.3239 29.6723 30.1887 29.5046 30.0638 29.4198C29.9471 29.314 29.7936 29.3031 29.6033 29.3871C29.3984 29.4776 29.1965 29.6542 28.9977 29.9169C28.8136 30.1732 28.5967 30.5138 28.3472 30.9389C28.0976 31.3639 27.9533 31.6114 27.9141 31.6811C27.6125 32.1467 27.3704 32.8658 27.1878 33.8385C26.9988 34.7965 26.9466 35.5892 27.0312 36.2165ZM43.7286 21.3904C43.6341 20.82 43.7565 20.5823 44.0958 20.6773C44.414 20.7641 44.7067 21.0109 44.9738 21.4177C45.0061 21.4909 45.0352 21.5567 45.061 21.6153C45.3131 22.1861 45.4521 22.8768 45.4778 23.6876C45.5035 24.4983 45.5106 25.326 45.4989 26.1707C45.5018 27.009 45.6041 27.7159 45.8059 28.2915C46.0188 28.9321 45.8619 29.3687 45.335 29.6014C44.7642 29.8535 43.7695 29.6807 42.351 29.0828C41.473 28.7185 40.8277 28.505 40.4152 28.4423C40.3938 28.5917 40.3922 28.9247 40.4105 29.4414C40.4288 29.958 40.4382 30.4349 40.4389 30.8719C40.4395 31.3089 40.4105 31.5403 40.352 31.5662C40.2376 31.8616 40.0876 32.0765 39.9021 32.2109C39.7101 32.3307 39.4931 32.374 39.2511 32.341C39.0027 32.2933 38.773 32.2286 38.562 32.1469C38.3656 32.0587 38.1669 31.9453 37.9657 31.8068L32.7028 28.3854C32.062 28.0038 31.625 27.6283 31.3919 27.259C31.945 26.9273 32.4505 26.844 32.9082 27.0091C33.3595 27.1596 33.8632 27.4881 34.4192 27.9947C35.9659 29.358 37.4988 30.3338 39.0181 30.9222C39.077 30.7388 39.1036 30.1061 39.098 29.0241C39.0859 27.9275 39.094 27.233 39.1223 26.9406C39.2068 26.2212 39.3325 25.6147 39.4994 25.1212C39.6597 24.6131 39.9222 24.2173 40.2868 23.9338C40.4583 24.2429 40.5721 24.56 40.6282 24.885C40.6989 25.2036 40.73 25.4522 40.7215 25.6309C40.7276 25.8031 40.7075 26.0744 40.6611 26.4447C40.656 26.5519 40.6664 26.6347 40.6922 26.6933C41.1023 27.1069 41.6294 27.4687 42.2736 27.7789C42.9179 28.0891 43.4522 28.1504 43.8767 27.9629C44.2133 27.8143 44.3531 27.4377 44.296 26.8332C44.2158 25.6617 44.165 24.4773 44.1434 23.28C43.8811 22.1714 43.7429 21.5416 43.7286 21.3904ZM45.2409 16.3672C45.4199 16.2182 45.6375 16.2358 45.8938 16.4199C46.1582 16.583 46.3404 16.8173 46.4405 17.123C46.5551 17.4222 46.4945 17.6414 46.2586 17.7805C45.9706 17.9602 45.7035 17.9295 45.4571 17.6885C45.2254 17.441 45.0621 17.1109 44.9672 16.698C44.943 16.6037 44.9497 16.5396 44.9871 16.5056C45.0392 16.4651 45.1238 16.419 45.2409 16.3672ZM50.1171 27.8828C49.903 27.715 49.7167 27.4912 49.5582 27.2114C49.4143 26.9252 49.3125 26.6552 49.253 26.4017C49.187 26.1335 49.0879 25.81 48.9555 25.4311C48.8378 25.0458 48.7176 24.7141 48.5947 24.4361C48.4767 24.2084 48.3348 23.7288 48.1692 22.9973C48.0036 22.2659 47.9037 21.8815 47.8697 21.844C47.8503 21.8001 47.7743 21.6675 47.6416 21.4463C47.5235 21.2186 47.4313 21.0494 47.3649 20.9388C47.3068 20.8071 47.2389 20.6534 47.1613 20.4778C47.0984 20.2957 47.0736 20.1405 47.0868 20.0121C47.0937 19.8692 47.1418 19.7605 47.2314 19.6859C47.4638 19.6183 47.7569 19.7075 48.1105 19.9536C48.4576 20.1851 48.6835 20.4788 48.7883 20.8349C48.8693 20.939 48.9701 21.2268 49.0909 21.6982C49.2116 22.1696 49.3145 22.6402 49.3995 23.1098C49.4927 23.5584 49.5393 23.7827 49.5393 23.7827C49.5975 23.9145 49.6774 24.1153 49.7792 24.3852C49.8809 24.6551 49.9632 24.8811 50.0262 25.0632C50.0891 25.2453 50.1641 25.4745 50.2512 25.7509C50.3318 26.0127 50.3816 26.2443 50.4007 26.4458C50.4343 26.6408 50.4534 26.8423 50.4578 27.0502C50.4703 27.2371 50.448 27.4044 50.3908 27.5521C50.3271 27.6851 50.2359 27.7954 50.1171 27.8828ZM50.5468 17.9592C50.6442 18.0212 50.7828 18.1174 50.9629 18.2477C51.1511 18.357 51.2833 18.4386 51.3595 18.4923C51.4357 18.5461 51.5281 18.6365 51.6367 18.7635C51.7452 18.8904 51.8383 19.0417 51.9158 19.2174C51.9611 19.3198 52.0257 19.4662 52.1098 19.6565C52.202 19.8256 52.2675 19.9541 52.3063 20.0419C52.3386 20.1151 52.3944 20.2216 52.4737 20.3615C52.5465 20.4868 52.6161 20.6047 52.6824 20.7154C52.7634 20.8195 52.8476 20.931 52.9351 21.0498C52.9579 21.0222 53.0617 20.7227 53.2466 20.1513C53.4315 19.5799 53.6137 19.1409 53.7931 18.8343C53.9725 18.5276 54.1793 18.3226 54.4135 18.2192C54.5745 18.1481 54.7256 18.1338 54.8668 18.1764C55.0162 18.1978 55.1291 18.2355 55.2053 18.2892C55.2815 18.343 55.4193 18.4571 55.6188 18.6314C55.8117 18.791 56.1971 19.3467 56.7748 20.2984C57.3608 21.229 57.7323 21.7733 57.8896 21.9312C58.1226 22.3005 59.0089 22.2677 60.5484 21.8326C60.6303 22.2162 60.5149 22.6082 60.2021 23.0088C59.8892 23.4093 59.4816 23.6943 58.9792 23.8637C58.4704 24.0185 58.0319 23.9761 57.6636 23.7364C57.2192 23.4429 56.8343 23.027 56.509 22.4885C55.6094 20.9268 55.0874 20.0817 54.9431 19.953C53.8391 21.7699 53.767 23.8045 54.7267 26.0568C54.4065 26.1633 54.1133 26.1528 53.8471 26.0255C53.5956 25.8917 53.3841 25.6703 53.2126 25.3612C53.0347 25.0375 52.8852 24.7187 52.764 24.4049C52.6365 24.0765 52.5041 23.6976 52.367 23.2684C52.2381 22.8181 52.1284 22.4905 52.0379 22.2856C51.8892 21.949 51.6085 21.4521 51.1958 20.7948C50.7977 20.131 50.5438 19.596 50.4343 19.1896C50.3183 18.7685 50.3558 18.3584 50.5468 17.9592ZM67.1255 17.4846C67.0033 17.6435 66.7009 18.127 66.2181 18.9349C65.7289 19.7281 65.2881 20.3339 64.8956 20.7521C64.5031 21.1703 64.0279 21.5202 63.47 21.8015C63.0521 22.0036 62.7003 22.0191 62.4148 21.8478C62.1292 21.6766 61.9229 21.3479 61.7957 20.8619C61.6555 20.3466 61.6185 19.847 61.6846 19.363C61.7653 18.8726 61.893 18.4489 62.0677 18.0919C62.2505 17.7138 62.5382 17.3156 62.9307 16.8974C63.3167 16.4645 63.6668 16.1087 63.981 15.83C64.3098 15.5449 64.7566 15.1901 65.3213 14.7658C65.453 14.7076 65.5534 14.4796 65.6226 14.0817C65.6917 13.6839 65.8059 13.4673 65.9652 13.4319C66.1392 13.3901 66.317 13.4165 66.4987 13.5111C66.674 13.5911 66.8264 13.6987 66.9561 13.8338C67.0939 13.9479 67.2389 14.1375 67.391 14.4026C67.5431 14.6678 67.6547 14.8809 67.7258 15.0419C67.7969 15.2029 67.9003 15.437 68.0361 15.7444C68.0555 15.7883 68.0684 15.8176 68.0749 15.8322C68.3011 16.3445 68.6524 17.2388 69.1287 18.5152C69.6131 19.7704 70.0236 20.6998 70.3601 21.3033C70.5299 21.6481 70.6396 21.9757 70.6893 22.2861C70.7535 22.5901 70.7618 22.8663 70.7141 23.1147C70.6876 23.3713 70.5863 23.6172 70.4103 23.8524C70.2343 24.0875 70.0453 24.2934 69.8435 24.47C69.6416 24.6466 69.3748 24.8344 69.0429 25.0335C68.7257 25.2261 68.428 25.3838 68.1499 25.5066C67.8929 25.6376 67.5669 25.7904 67.1717 25.9649C66.3667 26.3205 65.6661 26.5162 65.0698 26.5522C64.4946 26.5964 64.0353 26.3882 63.692 25.9276C63.5967 25.6723 63.6616 25.3638 63.8866 25.0021C64.1117 24.6403 64.3853 24.3095 64.7077 24.0097C65.0512 23.7181 65.4002 23.459 65.7549 23.2324L65.0685 25.0048C65.8353 24.9985 66.5749 24.8117 67.2873 24.4446C68.0208 24.0856 68.5872 23.6256 68.9865 23.0644C69.2555 22.6833 69.2933 22.1156 69.1001 21.3613C68.9069 20.6071 68.6356 19.9136 68.2862 19.2808C67.9367 18.6481 67.5499 18.0493 67.1255 17.4846ZM62.7294 20.6594C63.4479 20.4645 64.1141 20.0916 64.7278 19.5406C65.3351 18.9751 65.7914 18.345 66.0968 17.6504C66.3957 16.9411 66.4833 16.3078 66.3595 15.7502C65.2462 15.9621 64.313 16.6017 63.56 17.6689C62.8152 18.715 62.5383 19.7118 62.7294 20.6594Z" fill="#F37A20"/>
</svg>
