<svg width="48" height="59" viewBox="0 0 48 59" fill="none" xmlns="http://www.w3.org/2000/svg">
<g clip-path="url(#clip0_10808_56210)">
<path d="M28.4062 15.5469H26.2031V13.3438C26.2031 13.149 26.1258 12.9622 25.988 12.8245C25.8503 12.6867 25.6635 12.6094 25.4688 12.6094H22.5312C22.3365 12.6094 22.1497 12.6867 22.012 12.8245C21.8742 12.9622 21.7969 13.149 21.7969 13.3438V15.5469H19.5938C19.399 15.5469 19.2122 15.6242 19.0745 15.762C18.9367 15.8997 18.8594 16.0865 18.8594 16.2812V19.2188C18.8594 19.4135 18.9367 19.6003 19.0745 19.738C19.2122 19.8758 19.399 19.9531 19.5938 19.9531H21.7969V22.1562C21.7969 22.351 21.8742 22.5378 22.012 22.6755C22.1497 22.8133 22.3365 22.8906 22.5312 22.8906H25.4688C25.6635 22.8906 25.8503 22.8133 25.988 22.6755C26.1258 22.5378 26.2031 22.351 26.2031 22.1562V19.9531H28.4062C28.601 19.9531 28.7878 19.8758 28.9255 19.738C29.0633 19.6003 29.1406 19.4135 29.1406 19.2188V16.2812C29.1406 16.0865 29.0633 15.8997 28.9255 15.762C28.7878 15.6242 28.601 15.5469 28.4062 15.5469ZM27.6719 18.4844H25.4688C25.274 18.4844 25.0872 18.5617 24.9495 18.6995C24.8117 18.8372 24.7344 19.024 24.7344 19.2188V21.4219H23.2656V19.2188C23.2656 19.024 23.1883 18.8372 23.0505 18.6995C22.9128 18.5617 22.726 18.4844 22.5312 18.4844H20.3281V17.0156H22.5312C22.726 17.0156 22.9128 16.9383 23.0505 16.8005C23.1883 16.6628 23.2656 16.476 23.2656 16.2812V14.0781H24.7344V16.2812C24.7344 16.476 24.8117 16.6628 24.9495 16.8005C25.0872 16.9383 25.274 17.0156 25.4688 17.0156H27.6719V18.4844Z" fill="#F37A20"/>
<path d="M44.3642 19.4833C44.3791 19.3541 44.3864 19.2241 44.3862 19.0941C44.3827 18.4209 44.1492 17.7692 43.7244 17.247C43.2997 16.7247 42.7092 16.3633 42.0509 16.2227C41.3063 16.0809 40.5356 16.2273 39.8948 16.6322C39.2541 17.0372 38.791 17.6704 38.5994 18.4038L35.3681 27.7009C35.3202 27.7199 35.2736 27.742 35.2286 27.767L28.7367 31.5711C27.7433 32.1546 26.9194 32.9872 26.3462 33.9866C25.7731 34.9861 25.4707 36.1177 25.4688 37.2698V44.1876C25.274 44.1876 25.0872 44.265 24.9495 44.4027C24.8117 44.5405 24.7344 44.7273 24.7344 44.922V50.797C24.7344 50.9918 24.8117 51.1786 24.9495 51.3163C25.0872 51.454 25.274 51.5314 25.4688 51.5314H35.75C35.9448 51.5314 36.1316 51.454 36.2693 51.3163C36.407 51.1786 36.4844 50.9918 36.4844 50.797V44.922C36.4844 44.7273 36.407 44.5405 36.2693 44.4027C36.1316 44.265 35.9448 44.1876 35.75 44.1876V42.572C35.7514 42.2618 35.8174 41.9554 35.9438 41.6721C36.0703 41.3889 36.2544 41.1351 36.4844 40.927L41.4487 36.5134C41.9918 36.0383 42.3805 35.4118 42.565 34.7142L45.7522 22.7953C45.8202 22.5464 45.8548 22.2896 45.855 22.0316C45.8521 21.5133 45.7128 21.005 45.4511 20.5576C45.1894 20.1103 44.8146 19.7398 44.3642 19.4833ZM40.002 18.837C40.0922 18.4573 40.3221 18.1254 40.6461 17.9076C40.97 17.6899 41.3641 17.6022 41.7498 17.662C42.079 17.731 42.3745 17.9108 42.5871 18.1714C42.7996 18.4321 42.9162 18.7578 42.9175 19.0941V19.1088C42.2615 19.1209 41.6275 19.347 41.1118 19.7527C40.5961 20.1583 40.2271 20.7213 40.0608 21.3559L38.0119 27.6789C37.7017 27.5318 37.3691 27.4374 37.0278 27.3998L40.002 18.837ZM35.0156 50.0626H26.2031V45.6564H35.0156V50.0626ZM44.3348 22.4134L41.1403 34.3397C41.0298 34.7541 40.8 35.1269 40.4794 35.4119L35.5077 39.8255C35.1229 40.1724 34.8151 40.596 34.6039 41.069C34.3927 41.542 34.2828 42.054 34.2812 42.572V44.1876H26.9375V37.2698C26.9411 36.3739 27.1772 35.4941 27.6226 34.7167C28.0679 33.9392 28.7074 33.2906 29.4784 32.8342L35.963 29.0375C36.1302 28.9401 36.315 28.8767 36.5067 28.8509C36.6985 28.8251 36.8935 28.8375 37.0805 28.8873C37.2675 28.9371 37.4428 29.0234 37.5963 29.1412C37.7498 29.259 37.8786 29.4059 37.9752 29.5736C38.1659 29.9129 38.2185 30.3127 38.122 30.6898C38.071 30.8761 37.9838 31.0504 37.8653 31.2029C37.7469 31.3553 37.5995 31.483 37.4317 31.5784L33.2238 34.0092C33.0639 34.1108 32.9495 34.2703 32.9044 34.4543C32.8594 34.6382 32.8871 34.8325 32.9819 34.9965C33.0767 35.1605 33.2312 35.2815 33.4131 35.3343C33.595 35.387 33.7903 35.3675 33.9581 35.2797L38.1661 32.8489C38.5024 32.6581 38.7972 32.4019 39.0331 32.0954C39.2689 31.7889 39.4411 31.4384 39.5394 31.0644C39.7393 30.313 39.6337 29.513 39.2456 28.8392L39.2016 28.7731L41.4708 21.7745C41.5609 21.3948 41.7909 21.0629 42.1148 20.8451C42.4388 20.6274 42.8329 20.5397 43.2186 20.5995C43.5478 20.6685 43.8433 20.8483 44.0558 21.1089C44.2683 21.3696 44.385 21.6953 44.3862 22.0316C44.3887 22.1607 44.3714 22.2895 44.3348 22.4134Z" fill="#3F6587"/>
<path d="M22.5308 44.1871V37.2693C22.5289 36.1172 22.2264 34.9855 21.6533 33.9861C21.0802 32.9867 20.2562 32.154 19.2628 31.5705L12.7709 27.7591C12.7269 27.7371 12.6755 27.7224 12.6314 27.7004L9.42219 18.4546C9.23567 17.7105 8.77264 17.0655 8.12733 16.6507C7.48202 16.236 6.70292 16.0827 5.94859 16.2221C5.29029 16.3627 4.69983 16.7241 4.27509 17.2464C3.85035 17.7686 3.61684 18.4203 3.61328 19.0935C3.61309 19.2236 3.62045 19.3535 3.63531 19.4827C3.18497 19.7392 2.8101 20.1097 2.5484 20.5571C2.28671 21.0044 2.14741 21.5127 2.14453 22.031C2.14596 22.2885 2.17801 22.5448 2.24 22.7947L5.43453 34.7063C5.61708 35.4068 6.006 36.0362 6.55078 36.5129L11.5078 40.9265C11.7401 41.1331 11.9262 41.3864 12.054 41.6699C12.1819 41.9533 12.2485 42.2605 12.2495 42.5715V44.1871C12.0548 44.1871 11.868 44.2645 11.7303 44.4022C11.5925 44.5399 11.5152 44.7267 11.5152 44.9215V50.7965C11.5152 50.9912 11.5925 51.178 11.7303 51.3157C11.868 51.4535 12.0548 51.5308 12.2495 51.5308H22.5308C22.7256 51.5308 22.9123 51.4535 23.0501 51.3157C23.1878 51.178 23.2652 50.9912 23.2652 50.7965V44.9215C23.2652 44.7267 23.1878 44.5399 23.0501 44.4022C22.9123 44.2645 22.7256 44.1871 22.5308 44.1871ZM5.08203 19.0935C5.08294 18.7582 5.19853 18.4333 5.40961 18.1728C5.62068 17.9123 5.91454 17.7319 6.24234 17.6615C6.63866 17.6039 7.04207 17.6984 7.37167 17.9258C7.70127 18.1533 7.9327 18.4969 8.01953 18.8879L10.9717 27.3993C10.6305 27.4369 10.2979 27.5312 9.98766 27.6783L7.95344 21.3921C7.78789 20.7512 7.41811 20.1816 6.90003 19.7695C6.38196 19.3574 5.74378 19.1253 5.08203 19.1082V19.0935ZM12.4845 39.8249L7.52016 35.4113C7.1978 35.1248 6.96777 34.7491 6.85922 34.3318L3.65734 22.4129C3.62695 22.2879 3.61214 22.1596 3.61328 22.031C3.61419 21.6957 3.72978 21.3708 3.94086 21.1103C4.15193 20.8498 4.44579 20.6694 4.77359 20.599C5.16712 20.5399 5.56841 20.632 5.89676 20.8568C6.22511 21.0816 6.45616 21.4224 6.54344 21.8107L8.79797 28.7726L8.75391 28.8387C8.36586 29.5124 8.26025 30.3124 8.46016 31.0638C8.55848 31.4378 8.73063 31.7884 8.96648 32.0948C9.20232 32.4013 9.49709 32.6575 9.83344 32.8483L14.0414 35.2791C14.2092 35.3669 14.4045 35.3865 14.5864 35.3337C14.7683 35.2809 14.9228 35.1599 15.0176 34.9959C15.1124 34.8319 15.1402 34.6377 15.0951 34.4537C15.05 34.2697 14.9356 34.1103 14.7758 34.0086L10.5678 31.5779C10.4 31.4824 10.2526 31.3548 10.1342 31.2023C10.0157 31.0498 9.92851 30.8755 9.8775 30.6893C9.78102 30.3122 9.83363 29.9124 10.0244 29.573C10.1203 29.4057 10.2483 29.2589 10.401 29.141C10.5537 29.0232 10.7281 28.9365 10.9142 28.8861C11.1004 28.8356 11.2947 28.8223 11.486 28.8469C11.6773 28.8716 11.8619 28.9336 12.0292 29.0296L18.5211 32.8336C19.2922 33.29 19.9316 33.9386 20.377 34.7161C20.8224 35.4936 21.0584 36.3733 21.062 37.2693V44.1871H13.7183V42.5715C13.717 42.0527 13.6065 41.54 13.394 41.0668C13.1814 40.5935 12.8715 40.1704 12.4845 39.8249ZM21.7964 50.0621H12.9839V45.6558H21.7964V50.0621Z" fill="#3F6587"/>
<path d="M34.3889 9.76844C33.7072 9.0855 32.8975 8.5437 32.0061 8.17406C31.1147 7.80442 30.1592 7.61419 29.1942 7.61426C28.2292 7.61433 27.2737 7.80469 26.3824 8.17446C25.4911 8.54423 24.6814 9.08614 23.9997 9.76917C23.3182 9.08612 22.5085 8.5442 21.6172 8.17445C20.7259 7.80471 19.7705 7.61438 18.8055 7.61438C17.8406 7.61438 16.8851 7.80471 15.9938 8.17445C15.1025 8.5442 14.2929 9.08612 13.6113 9.76917C12.2368 11.1466 11.4648 13.0131 11.4648 14.959C11.4648 16.9049 12.2368 18.7714 13.6113 20.1488L23.4813 30.0188C23.619 30.1565 23.8057 30.2338 24.0005 30.2338C24.1952 30.2338 24.382 30.1565 24.5197 30.0188L34.3897 20.1488C35.7641 18.7712 36.5359 16.9045 36.5358 14.9585C36.5357 13.0124 35.7636 11.1459 34.3889 9.76844ZM23.9997 28.4612L14.6489 19.1104C13.828 18.2884 13.2692 17.2414 13.0432 16.1018C12.8173 14.9622 12.9342 13.7812 13.3793 12.7081C13.8244 11.635 14.5777 10.7179 15.5439 10.0729C16.5102 9.42779 17.6459 9.08367 18.8077 9.084C19.5795 9.08135 20.344 9.23239 21.0568 9.52831C21.7695 9.82423 22.4162 10.2591 22.9591 10.8076L23.4805 11.329C23.6183 11.4667 23.805 11.544 23.9997 11.544C24.1945 11.544 24.3812 11.4667 24.5189 11.329L25.0418 10.8061C25.587 10.2599 26.2346 9.82661 26.9474 9.53096C27.6603 9.2353 28.4244 9.08313 29.1962 9.08313C29.9679 9.08313 30.7321 9.2353 31.4449 9.53096C32.1578 9.82661 32.8053 10.2599 33.3505 10.8061C34.4506 11.9077 35.0685 13.4008 35.0685 14.9575C35.0685 16.5143 34.4506 18.0074 33.3505 19.109L23.9997 28.4612Z" fill="#3F6587"/>
</g>
<defs>
<clipPath id="clip0_10808_56210">
<path d="M0.5 0.5H47.5V58.5H0.5V0.5Z" fill="white"/>
</clipPath>
</defs>
</svg>
