<svg width="48" height="55" viewBox="0 0 48 55" fill="none" xmlns="http://www.w3.org/2000/svg">
<g clip-path="url(#clip0_2_77366)">
<path d="M0.25 0.331543H47.25V54.3315H0.25V0.331543Z" fill="#F9FAFC"/>
<path d="M42.6 22.5315H41.95V20.5815C41.95 20.4092 41.8815 20.2438 41.7596 20.1219C41.6377 20 41.4724 19.9315 41.3 19.9315H38.7V17.3315H39.35C39.5224 17.3315 39.6877 17.2631 39.8096 17.1412C39.9315 17.0193 40 16.8539 40 16.6815C40 16.5092 39.9315 16.3438 39.8096 16.2219C39.6877 16.1 39.5224 16.0315 39.35 16.0315H34.014C33.517 14.1707 32.4206 12.5255 30.8944 11.3505C29.3683 10.1755 27.4974 9.53619 25.5713 9.53154H24.4V8.23154H27.65C27.7355 8.23154 27.8201 8.21469 27.899 8.18195C27.978 8.14921 28.0497 8.10122 28.1101 8.04073C28.1704 7.98024 28.2183 7.90845 28.2509 7.82944C28.2835 7.75044 28.3002 7.66579 28.3 7.58032L28.2953 4.98032C28.295 4.80814 28.2263 4.64313 28.1045 4.52149C27.9826 4.39986 27.8175 4.33154 27.6453 4.33154H23.75C23.5776 4.33154 23.4123 4.40002 23.2904 4.52192C23.1685 4.64382 23.1 4.80915 23.1 4.98154V9.53154H21.9287C20.0026 9.53619 18.1317 10.1755 16.6056 11.3505C15.0794 12.5255 13.983 14.1707 13.486 16.0315H8.15C7.97761 16.0315 7.81228 16.1 7.69038 16.2219C7.56848 16.3438 7.5 16.5092 7.5 16.6815C7.5 16.8539 7.56848 17.0193 7.69038 17.1412C7.81228 17.2631 7.97761 17.3315 8.15 17.3315H8.8V19.9315H6.2C6.02761 19.9315 5.86228 20 5.74038 20.1219C5.61848 20.2438 5.55 20.4092 5.55 20.5815V22.5315H4.9C4.72761 22.5315 4.56228 22.6 4.44038 22.7219C4.31848 22.8438 4.25 23.0092 4.25 23.1815V25.7815C4.25 25.9539 4.31848 26.1193 4.44038 26.2412C4.56228 26.3631 4.72761 26.4315 4.9 26.4315H5.55V39.4315H4.9C4.72761 39.4315 4.56228 39.5 4.44038 39.6219C4.31848 39.7438 4.25 39.9092 4.25 40.0815V42.6815C4.25 42.8539 4.31848 43.0193 4.44038 43.1412C4.56228 43.2631 4.72761 43.3315 4.9 43.3315H42.6C42.7724 43.3315 42.9377 43.2631 43.0596 43.1412C43.1815 43.0193 43.25 42.8539 43.25 42.6815V40.0815C43.25 39.9092 43.1815 39.7438 43.0596 39.6219C42.9377 39.5 42.7724 39.4315 42.6 39.4315H41.95V26.4315H42.6C42.7724 26.4315 42.9377 26.3631 43.0596 26.2412C43.1815 26.1193 43.25 25.9539 43.25 25.7815V23.1815C43.25 23.0092 43.1815 22.8438 43.0596 22.7219C42.9377 22.6 42.7724 22.5315 42.6 22.5315ZM24.4 6.28154V5.63154H26.9965L26.9988 6.93154H24.4V6.28154ZM32.6631 16.0315H30.1143C29.5654 13.9969 28.2689 12.2443 26.4839 11.124L26.0429 10.8478C27.5395 10.9464 28.9717 11.4937 30.1527 12.4184C31.3336 13.3431 32.2085 14.6022 32.6631 16.0315V16.0315ZM24.4 11.3543L25.7949 12.2261C27.1987 13.1075 28.2476 14.4546 28.758 16.0315H24.4V11.3543ZM23.1 11.3543V16.0315H18.742C19.2524 14.4546 20.3013 13.1075 21.7051 12.2261L23.1 11.3543ZM21.457 10.8478L21.0161 11.124C19.2311 12.2443 17.9346 13.9969 17.3857 16.0315H14.8369C15.2915 14.6022 16.1664 13.3431 17.3473 12.4184C18.5282 11.4937 19.9604 10.9464 21.457 10.8478ZM10.1 17.3315H37.4V19.9315H34.8V19.2815C34.8 19.1092 34.7315 18.9438 34.6096 18.8219C34.4877 18.7 34.3224 18.6315 34.15 18.6315C33.9776 18.6315 33.8123 18.7 33.6904 18.8219C33.5685 18.9438 33.5 19.1092 33.5 19.2815V19.9315H32.2V19.2815C32.2 19.1092 32.1315 18.9438 32.0096 18.8219C31.8877 18.7 31.7224 18.6315 31.55 18.6315C31.3776 18.6315 31.2123 18.7 31.0904 18.8219C30.9685 18.9438 30.9 19.1092 30.9 19.2815V19.9315H29.6V19.2815C29.6 19.1092 29.5315 18.9438 29.4096 18.8219C29.2877 18.7 29.1224 18.6315 28.95 18.6315C28.7776 18.6315 28.6123 18.7 28.4904 18.8219C28.3685 18.9438 28.3 19.1092 28.3 19.2815V19.9315H27V19.2815C27 19.1092 26.9315 18.9438 26.8096 18.8219C26.6877 18.7 26.5224 18.6315 26.35 18.6315C26.1776 18.6315 26.0123 18.7 25.8904 18.8219C25.7685 18.9438 25.7 19.1092 25.7 19.2815V19.9315H24.4V19.2815C24.4 19.1092 24.3315 18.9438 24.2096 18.8219C24.0877 18.7 23.9224 18.6315 23.75 18.6315C23.5776 18.6315 23.4123 18.7 23.2904 18.8219C23.1685 18.9438 23.1 19.1092 23.1 19.2815V19.9315H21.8V19.2815C21.8 19.1092 21.7315 18.9438 21.6096 18.8219C21.4877 18.7 21.3224 18.6315 21.15 18.6315C20.9776 18.6315 20.8123 18.7 20.6904 18.8219C20.5685 18.9438 20.5 19.1092 20.5 19.2815V19.9315H19.2V19.2815C19.2 19.1092 19.1315 18.9438 19.0096 18.8219C18.8877 18.7 18.7224 18.6315 18.55 18.6315C18.3776 18.6315 18.2123 18.7 18.0904 18.8219C17.9685 18.9438 17.9 19.1092 17.9 19.2815V19.9315H16.6V19.2815C16.6 19.1092 16.5315 18.9438 16.4096 18.8219C16.2877 18.7 16.1224 18.6315 15.95 18.6315C15.7776 18.6315 15.6123 18.7 15.4904 18.8219C15.3685 18.9438 15.3 19.1092 15.3 19.2815V19.9315H14V19.2815C14 19.1092 13.9315 18.9438 13.8096 18.8219C13.6877 18.7 13.5224 18.6315 13.35 18.6315C13.1776 18.6315 13.0123 18.7 12.8904 18.8219C12.7685 18.9438 12.7 19.1092 12.7 19.2815V19.9315H10.1V17.3315ZM6.85 21.2315H40.65V22.5315H6.85V21.2315ZM41.95 42.0315H5.55V40.7315H41.95V42.0315ZM36.75 27.7315C36.0607 27.7323 35.3998 28.0065 34.9124 28.4939C34.425 28.9813 34.1508 29.6422 34.15 30.3315V31.6315H32.85V30.3315C32.85 29.642 32.5761 28.9807 32.0885 28.4931C31.6009 28.0055 30.9396 27.7315 30.25 27.7315C29.5604 27.7315 28.8991 28.0055 28.4115 28.4931C27.9239 28.9807 27.65 29.642 27.65 30.3315V31.6315H26.35V30.3315C26.35 29.642 26.0761 28.9807 25.5885 28.4931C25.1009 28.0055 24.4396 27.7315 23.75 27.7315C23.0604 27.7315 22.3991 28.0055 21.9115 28.4931C21.4239 28.9807 21.15 29.642 21.15 30.3315V31.6315H19.85V30.3315C19.85 29.642 19.5761 28.9807 19.0885 28.4931C18.6009 28.0055 17.9396 27.7315 17.25 27.7315C16.5604 27.7315 15.8991 28.0055 15.4115 28.4931C14.9239 28.9807 14.65 29.642 14.65 30.3315V31.6315H13.35V30.3315C13.35 29.642 13.0761 28.9807 12.5885 28.4931C12.1009 28.0055 11.4396 27.7315 10.75 27.7315C10.0604 27.7315 9.39912 28.0055 8.91152 28.4931C8.42393 28.9807 8.15 29.642 8.15 30.3315V39.4315H6.85V26.4315H40.65V39.4315H39.35V30.3315C39.3492 29.6422 39.075 28.9813 38.5876 28.4939C38.1002 28.0065 37.4393 27.7323 36.75 27.7315V27.7315ZM35.45 31.6315V30.3315C35.45 29.9868 35.587 29.6561 35.8308 29.4123C36.0746 29.1685 36.4052 29.0315 36.75 29.0315C37.0948 29.0315 37.4254 29.1685 37.6692 29.4123C37.913 29.6561 38.05 29.9868 38.05 30.3315V31.6315H35.45ZM38.05 32.9315V39.4315H35.45V32.9315H38.05ZM34.15 32.9315V39.4315H32.85V32.9315H34.15ZM28.95 36.8315V32.9315H31.55V36.8315H28.95ZM31.55 38.1315V39.4315H28.95V38.1315H31.55ZM28.95 31.6315V30.3315C28.95 29.9868 29.087 29.6561 29.3308 29.4123C29.5746 29.1685 29.9052 29.0315 30.25 29.0315C30.5948 29.0315 30.9254 29.1685 31.1692 29.4123C31.413 29.6561 31.55 29.9868 31.55 30.3315V31.6315H28.95ZM27.65 32.9315V39.4315H26.35V32.9315H27.65ZM22.45 35.5315V32.9315H25.05V35.5315H22.45ZM25.05 36.8315V39.4315H22.45V36.8315H25.05ZM22.45 31.6315V30.3315C22.45 29.9868 22.587 29.6561 22.8308 29.4123C23.0746 29.1685 23.4052 29.0315 23.75 29.0315C24.0948 29.0315 24.4254 29.1685 24.6692 29.4123C24.913 29.6561 25.05 29.9868 25.05 30.3315V31.6315H22.45ZM21.15 32.9315V39.4315H19.85V32.9315H21.15ZM15.95 36.8315V32.9315H18.55V36.8315H15.95ZM18.55 38.1315V39.4315H15.95V38.1315H18.55ZM15.95 31.6315V30.3315C15.95 29.9868 16.087 29.6561 16.3308 29.4123C16.5746 29.1685 16.9052 29.0315 17.25 29.0315C17.5948 29.0315 17.9254 29.1685 18.1692 29.4123C18.413 29.6561 18.55 29.9868 18.55 30.3315V31.6315H15.95ZM14.65 32.9315V39.4315H13.35V32.9315H14.65ZM9.45 31.6315V30.3315C9.45 29.9868 9.58696 29.6561 9.83076 29.4123C10.0746 29.1685 10.4052 29.0315 10.75 29.0315C11.0948 29.0315 11.4254 29.1685 11.6692 29.4123C11.913 29.6561 12.05 29.9868 12.05 30.3315V31.6315H9.45ZM12.05 32.9315V39.4315H9.45V32.9315H12.05ZM41.95 25.1315H5.55V23.8315H41.95V25.1315Z" fill="#3F6587"/>
</g>
<defs>
<clipPath id="clip0_2_77366">
<path d="M0.25 0.331543H47.25V54.3315H0.25V0.331543Z" fill="white"/>
</clipPath>
</defs>
</svg>
