<svg width="48" height="48" viewBox="0 0 48 48" fill="none" xmlns="http://www.w3.org/2000/svg">
<path d="M40.3032 36.5773C43.1779 32.9913 44.7508 28.522 44.7508 23.8823C44.7508 21.9846 44.4902 20.1061 43.9761 18.2988C43.8571 17.8801 43.4241 17.6383 43.0096 17.7584C42.5948 17.8786 42.3552 18.3155 42.4743 18.7342C42.948 20.3999 43.1883 22.132 43.1883 23.8823C43.1883 26.9748 42.4296 29.9847 41.0084 32.6646C40.6947 31.0331 39.2696 29.7973 37.5633 29.7973H37.5631C36.4421 29.7973 35.4429 30.3313 34.7998 31.1598C34.7008 31.1007 34.6009 31.0435 34.4996 30.9896C34.4347 30.7873 34.4012 30.5763 34.4012 30.3599C34.4012 29.3974 34.8586 28.4807 35.6247 27.9078C36.7782 27.0454 37.4668 25.6653 37.4668 24.2162C37.4668 22.6477 36.6872 21.2042 35.3814 20.3546L33.3488 19.0321C31.8909 18.0836 31.0205 16.4719 31.0205 14.7209C31.0205 11.8927 33.2995 9.5919 36.1008 9.5919H36.5767C37.6312 10.4864 38.5975 11.5082 39.4543 12.6495C39.7149 12.9967 40.2049 13.0649 40.5489 12.8018C40.8927 12.5386 40.9602 12.0439 40.6996 11.6967C38.8732 9.26386 36.4867 7.24901 33.7982 5.86997C30.9787 4.4238 27.9346 3.69043 24.7504 3.69043C19.4081 3.69043 14.3856 5.79078 10.608 9.60444C6.83036 13.4183 4.75 18.4889 4.75 23.8823C4.75 28.527 6.32253 32.9907 9.19806 36.5771C6.58988 37.6667 4.75 40.2629 4.75 43.2854C4.75 43.721 5.09977 44.0742 5.53127 44.0742H43.9696C44.401 44.0742 44.7508 43.7207 44.7508 43.2851C44.7508 40.2631 42.9112 37.667 40.3032 36.5773ZM13.8852 33.3409V33.9983C13.8852 35.0825 13.0116 35.9644 11.9375 35.9644C10.8636 35.9644 9.99003 35.0825 9.99003 33.9983V33.3409C9.99003 32.2568 10.8636 31.3748 11.9375 31.3748H11.9377C13.0116 31.3748 13.8852 32.2568 13.8852 33.3409ZM15.4477 33.9983V33.3409C15.4477 33.0854 15.4201 32.8363 15.369 32.5959C16.2591 32.0331 17.2771 31.7371 18.3443 31.7371C19.4109 31.7371 20.4288 32.033 21.319 32.5959C21.2678 32.8362 21.2403 33.0854 21.2403 33.3409V33.9983C21.2403 34.965 21.626 35.8421 22.2499 36.4821C20.5543 37.1193 19.1592 38.3849 18.344 39.9972C17.5288 38.3849 16.1337 37.1192 14.4381 36.4821C15.0619 35.8421 15.4477 34.965 15.4477 33.9983ZM20.2916 28.129C20.2916 29.2131 19.418 30.0951 18.3439 30.0951C17.27 30.0951 16.3964 29.2131 16.3964 28.129V27.4716C16.3964 26.3874 17.27 25.5054 18.3439 25.5054H18.3441C19.418 25.5054 20.2916 26.3874 20.2916 27.4716V28.129ZM26.6979 33.3409V33.9983C26.6979 35.0825 25.8243 35.9644 24.7503 35.9644C23.6764 35.9644 22.8028 35.0825 22.8028 33.9983V33.3409C22.8028 32.2568 23.6764 31.3748 24.7503 31.3748H24.7505C25.8243 31.3748 26.6979 32.2568 26.6979 33.3409ZM28.2605 33.9983V33.3409C28.2605 33.0854 28.2329 32.8364 28.1818 32.596C29.072 32.0331 30.0901 31.7371 31.1573 31.7371C32.2224 31.7371 33.2415 32.0326 34.1319 32.5952C34.0807 32.8358 34.053 33.0851 34.053 33.3409V33.9983C34.053 34.965 34.4388 35.8421 35.0626 36.4821C33.3671 37.1193 31.972 38.3849 31.1568 39.9972C30.3415 38.3849 28.9464 37.1192 27.2509 36.4821C27.8747 35.8421 28.2605 34.965 28.2605 33.9983ZM33.1046 28.129C33.1046 29.2131 32.231 30.0951 31.1569 30.0951C30.083 30.0951 29.2095 29.2131 29.2095 28.129V27.4716C29.2095 26.3874 30.0831 25.5054 31.1569 25.5054H31.1571C32.231 25.5054 33.1045 26.3874 33.1045 27.4716V28.129H33.1046ZM37.5631 31.3748H37.5633C38.6372 31.3748 39.5108 32.2568 39.5108 33.3409V33.9983C39.5108 35.0825 38.6372 35.9644 37.5631 35.9644C36.4892 35.9644 35.6156 35.0825 35.6156 33.9983V33.3409C35.6156 32.2568 36.4892 31.3748 37.5631 31.3748ZM24.7504 5.26792C28.3391 5.26792 31.751 6.29131 34.666 8.17381C31.6908 8.83801 29.4579 11.5205 29.4579 14.721C29.4579 17.0106 30.596 19.118 32.5024 20.3583L34.535 21.6807C35.3924 22.2386 35.9043 23.1865 35.9043 24.2163C35.9043 25.1678 35.4521 26.074 34.6948 26.6402C34.6583 26.6675 34.6237 26.6968 34.5881 26.7251C34.2476 25.1285 32.8389 23.928 31.1573 23.928H31.157C29.2217 23.928 27.6471 25.5176 27.6471 27.4716V28.129C27.6471 29.0946 28.0321 29.9708 28.6548 30.6107C28.2606 30.7585 27.8789 30.9411 27.5134 31.1592C26.8704 30.3311 25.8714 29.7974 24.7506 29.7974H24.7504C23.6297 29.7974 22.6308 30.3311 21.9877 31.1592C21.6223 30.9412 21.2406 30.7586 20.8466 30.6108C21.4692 29.971 21.8543 29.0947 21.8543 28.129V27.4716C21.8543 25.5178 20.2797 23.928 18.3443 23.928H18.344C16.4086 23.928 14.834 25.5177 14.834 27.4716V28.129C14.834 29.0947 15.219 29.9709 15.8417 30.6107C15.4476 30.7585 15.066 30.9411 14.7006 31.1592C14.0575 30.3311 13.0586 29.7974 11.9379 29.7974H11.9376C10.231 29.7974 8.80555 31.0338 8.49234 32.6658C7.60342 30.9905 6.97317 29.1864 6.62652 27.3123C7.96968 27.1643 9.24111 26.666 10.3438 25.8471C11.6763 24.8574 12.6409 23.4917 13.1335 21.8974C13.5241 20.6334 14.2875 19.5487 15.3416 18.7605L15.4637 18.6692C16.5209 17.8787 17.1521 16.6137 17.1521 15.2855C17.1521 12.9637 15.2812 11.0748 12.9813 11.0748H11.383C14.7449 7.50022 19.4942 5.26792 24.7504 5.26792ZM10.0561 12.6522H12.9813C14.4194 12.6522 15.5895 13.8335 15.5895 15.2854C15.5895 16.1161 15.1948 16.9071 14.5335 17.4016L14.4114 17.4929C13.0894 18.4814 12.1316 19.8419 11.6418 21.4276C10.9001 23.8283 8.83993 25.5017 6.40589 25.7493C6.34464 25.1318 6.31253 24.5089 6.31253 23.8823C6.31253 19.6675 7.70811 15.776 10.0561 12.6522ZM6.36652 42.4967C6.74793 39.7374 9.10079 37.6064 11.9373 37.6064H11.938C14.7745 37.6064 17.1273 39.7372 17.5087 42.4967H6.36652ZM19.1793 42.4967C19.5607 39.7374 21.9136 37.6064 24.7501 37.6064H24.7507C27.5873 37.6064 29.94 39.7372 30.3215 42.4967H19.1793ZM31.992 42.4967C32.3735 39.7374 34.7263 37.6064 37.5629 37.6064H37.5635C40.4 37.6064 42.7528 39.7372 43.1342 42.4967H31.992Z" fill="#3F6587"/>
<path d="M20.9451 21.7107C21.6773 22.4708 22.6263 22.8733 23.5978 22.8733C24.034 22.8733 24.4748 22.7922 24.9025 22.6258C26.6058 21.9631 27.7502 20.194 27.7502 18.2238V16.5926C27.7502 14.4889 26.1791 12.7773 24.2478 12.7773C22.969 12.7773 21.7924 13.5361 21.1773 14.7575L20.2246 16.6493C19.3846 18.317 19.6809 20.3984 20.9451 21.7107ZM21.6002 17.4714L22.5529 15.5797C22.8924 14.9055 23.5419 14.4867 24.2478 14.4867C25.3138 14.4867 26.181 15.4315 26.181 16.5926V18.2238C26.181 19.4735 25.4551 20.5957 24.3747 21.0161C23.5562 21.3343 22.6568 21.1265 22.0276 20.4733C21.2778 19.6949 21.1021 18.4605 21.6002 17.4714Z" fill="#F37A20"/>
<path d="M41.251 15.8065C41.3825 15.8065 41.5115 15.7525 41.6045 15.6586C41.6975 15.5647 41.751 15.4344 41.751 15.3017C41.751 15.1684 41.6975 15.0387 41.6045 14.9448C41.5115 14.8509 41.3825 14.7969 41.251 14.7969C41.1195 14.7969 40.9905 14.8509 40.8975 14.9448C40.8045 15.0387 40.751 15.1689 40.751 15.3017C40.751 15.4344 40.8045 15.5647 40.8975 15.6586C40.9905 15.7524 41.1195 15.8065 41.251 15.8065Z" fill="#F37A20"/>
</svg>
