<svg width="13" height="17" viewBox="0 0 13 17" fill="none" xmlns="http://www.w3.org/2000/svg">
<path d="M12.1594 9.11857L4.1875 16.0904C3.97188 16.2811 3.73438 16.3654 3.5 16.3654C3.29397 16.3654 3.08782 16.3024 2.91219 16.1745C2.53438 15.9001 2.39657 15.4008 2.58125 14.9714L4.98438 9.36544H1.50032C1.08344 9.36544 0.710317 9.10713 0.563755 8.71701C0.417286 8.32732 0.528598 7.88732 0.842067 7.61294L8.81394 0.64107C9.1655 0.332008 9.683 0.310445 10.0599 0.584852C10.4377 0.859258 10.5755 1.3586 10.3908 1.78798L7.98832 7.39423L11.4727 7.39399C11.8896 7.39399 12.2627 7.6523 12.4093 8.04243C12.5813 8.40294 12.4719 8.84357 12.1594 9.11857Z" fill="white"/>
</svg>
