<svg width="23" height="20" viewBox="0 0 23 20" fill="none" xmlns="http://www.w3.org/2000/svg">
<path d="M22.75 11.8811C22.75 11.3118 22.3301 10.8499 21.8125 10.8499L1.1875 10.8499C0.66992 10.8499 0.249998 11.3139 0.249998 11.8811C0.249998 12.4483 0.66992 12.9124 1.1875 12.9124L5.96875 12.9124L9.4457 19.2846C9.61718 19.5983 9.92187 19.7874 10.25 19.7874L21.8125 19.7874C22.3301 19.7874 22.75 19.3254 22.75 18.7561C22.75 18.1868 22.3301 17.7249 21.8125 17.7249L10.7812 17.7249L8.15625 12.9124L21.8125 12.9124C22.332 12.9124 22.75 12.4526 22.75 11.8811ZM1.1875 9.47485L8.6875 9.47485C9.01711 9.47486 9.32226 9.28485 9.4918 8.97384L12.9687 2.59986L21.8125 2.59986C22.332 2.59986 22.75 2.13794 22.75 1.56861C22.75 0.999272 22.332 0.537357 21.8125 0.537357L12.4375 0.537356C12.1079 0.537356 11.8027 0.727363 11.6332 1.03837L8.15625 7.41235L1.1875 7.41235C0.669921 7.41235 0.249999 7.87642 0.249999 8.4436C0.249999 9.01079 0.66992 9.47485 1.1875 9.47485Z" fill="#3F6587"/>
</svg>
