<svg width="14" height="15" viewBox="0 0 14 15" fill="none" xmlns="http://www.w3.org/2000/svg">
<g clip-path="url(#clip0_5636_17043)">
<path d="M13.7548 6.57348L12.2598 5.66969C12.2143 5.64221 12.1988 5.58421 12.2244 5.5377L13.0672 4.00752C13.1538 3.85032 13.1519 3.66372 13.0622 3.5083C12.9725 3.35291 12.8118 3.25797 12.6324 3.25436L10.8858 3.21914C10.8327 3.21805 10.7903 3.17561 10.7892 3.12264L10.7833 2.81924C10.7811 2.70617 10.6865 2.61637 10.5746 2.61848C10.4616 2.6207 10.3717 2.7141 10.3739 2.82717L10.3797 3.13077C10.3853 3.40437 10.6039 3.62304 10.8775 3.62853L12.6241 3.66375C12.6725 3.66473 12.6972 3.69506 12.7075 3.71305C12.7179 3.73104 12.7319 3.76755 12.7085 3.80996L11.8657 5.34014C11.7337 5.57984 11.8137 5.87854 12.0479 6.0201L13.5429 6.92389C13.5843 6.94891 13.5905 6.98752 13.5905 7.0083C13.5905 7.02908 13.5843 7.06766 13.5429 7.09271L12.0479 7.9965C11.8137 8.13806 11.7337 8.43677 11.8657 8.67646L12.7085 10.2066C12.7319 10.2491 12.7179 10.2856 12.7075 10.3036C12.6972 10.3215 12.6725 10.3519 12.6241 10.3529L10.8775 10.3881C10.6039 10.3936 10.3852 10.6122 10.3797 10.8858L10.3445 12.6324C10.3435 12.6808 10.3132 12.7055 10.2952 12.7158C10.2772 12.7262 10.2407 12.7402 10.1983 12.7168L8.66813 11.874C8.42844 11.742 8.12976 11.822 7.98815 12.0562L7.08438 13.5512C7.05934 13.5926 7.02075 13.5988 6.99997 13.5988C6.97919 13.5988 6.94061 13.5926 6.91556 13.5512L6.0118 12.0562C5.87018 11.822 5.57151 11.742 5.33181 11.874L3.80163 12.7168C3.75925 12.7402 3.72271 12.7262 3.70472 12.7158C3.68673 12.7055 3.65641 12.6808 3.65542 12.6324L3.62023 10.8858C3.61471 10.6122 3.39607 10.3936 3.12246 10.3881L1.37586 10.3529C1.32746 10.3519 1.30282 10.3215 1.29243 10.3036C1.28204 10.2856 1.26812 10.249 1.29145 10.2066L2.13426 8.67646C2.2663 8.43677 2.18627 8.13806 1.95207 7.9965L0.457051 7.09271C0.415625 7.06766 0.409445 7.02908 0.409445 7.0083C0.409445 6.98752 0.415625 6.94894 0.457051 6.92389L1.95204 6.0201C2.18624 5.87854 2.26628 5.57984 2.13426 5.34014L1.29145 3.80996C1.26809 3.76757 1.28204 3.73104 1.29243 3.71305C1.30282 3.69506 1.32748 3.66473 1.37588 3.66375L3.12246 3.62853C3.39609 3.62304 3.61473 3.40437 3.62026 3.13077L3.65545 1.38418C3.65643 1.33579 3.68676 1.31115 3.70475 1.30076C3.72274 1.29039 3.7593 1.27648 3.80166 1.29977L5.33184 2.14259C5.57154 2.27469 5.87024 2.1946 6.01182 1.96037L6.91559 0.465406C6.94064 0.42398 6.97922 0.417801 7 0.417801C7.02078 0.417801 7.05936 0.42398 7.08441 0.465406L7.98818 1.96037C8.12976 2.19457 8.42844 2.27458 8.66816 2.14259L10.1983 1.29977C10.2407 1.27645 10.2773 1.29039 10.2952 1.30076C10.3132 1.31115 10.3436 1.33579 10.3446 1.38418L10.3544 1.87522C10.3567 1.98829 10.4508 2.07904 10.5633 2.07579C10.6763 2.07352 10.7661 1.98003 10.7639 1.86696L10.754 1.37593C10.7503 1.19652 10.6554 1.03588 10.5 0.946137C10.3446 0.856395 10.158 0.854508 10.0008 0.941105L8.4706 1.78392C8.42409 1.80949 8.36609 1.79398 8.33861 1.74854L7.43485 0.253574C7.34202 0.0999844 7.17946 0.00830078 7 0.00830078C6.82054 0.00830078 6.65798 0.0999844 6.56515 0.253574L5.66139 1.74854C5.63388 1.79398 5.57588 1.80954 5.52937 1.78392L3.99919 0.941105C3.84202 0.854508 3.65537 0.856395 3.49997 0.946137C3.34458 1.03588 3.24964 1.19652 3.24603 1.37593L3.21084 3.12251C3.20977 3.17561 3.16734 3.21805 3.11421 3.21914L1.36762 3.25436C1.18822 3.25797 1.02755 3.35291 0.937809 3.5083C0.848066 3.6637 0.84618 3.85032 0.932777 4.00752L1.77559 5.5377C1.80121 5.58421 1.78568 5.64221 1.74021 5.66969L0.245246 6.57348C0.0916836 6.66631 0 6.82884 0 7.0083C0 7.18776 0.0916836 7.35029 0.245246 7.44312L1.74024 8.34691C1.78568 8.37439 1.80121 8.43239 1.77559 8.4789L0.932777 10.0091C0.846207 10.1663 0.848066 10.3529 0.937809 10.5083C1.02752 10.6637 1.18822 10.7586 1.3676 10.7622L3.11421 10.7975C3.16731 10.7986 3.20975 10.841 3.21081 10.8941L3.246 12.6407C3.24964 12.8201 3.34455 12.9807 3.49995 13.0705C3.65534 13.1602 3.84199 13.1621 3.99916 13.0755L5.52937 12.2327C5.57586 12.2071 5.63385 12.2226 5.66136 12.2681L6.56512 13.763C6.65796 13.9166 6.82052 14.0083 6.99997 14.0083C7.17943 14.0083 7.34199 13.9166 7.43482 13.763L8.33859 12.2681C8.36609 12.2226 8.42404 12.207 8.4706 12.2327L10.0008 13.0755C10.158 13.1621 10.3446 13.1602 10.5 13.0705C10.6554 12.9807 10.7503 12.8201 10.7539 12.6407L10.7891 10.8941C10.7902 10.841 10.8326 10.7986 10.8858 10.7975L12.6323 10.7622C12.8118 10.7586 12.9724 10.6637 13.0622 10.5083C13.1519 10.3529 13.1538 10.1663 13.0672 10.0091L12.2244 8.4789C12.1988 8.43239 12.2143 8.37439 12.2598 8.34691L13.7548 7.44312C13.9083 7.35029 14 7.18776 14 7.0083C14 6.82884 13.9083 6.66631 13.7548 6.57348Z" fill="#3F6587"/>
<path d="M3.57195 9.32707C3.48157 9.39504 3.46345 9.52342 3.53142 9.61377C3.92725 10.1399 4.44566 10.5758 5.03057 10.8744C5.644 11.1874 6.30659 11.3462 6.99995 11.3462C9.39184 11.3462 11.3378 9.40024 11.3378 7.00834C11.3378 4.61645 9.39184 2.67053 6.99995 2.67053C4.60805 2.67053 2.66211 4.61648 2.66211 7.00837C2.66211 7.61981 2.78682 8.21106 3.03284 8.76562C3.07869 8.86898 3.19971 8.91563 3.30302 8.86974C3.40641 8.82389 3.453 8.70292 3.40717 8.59959C3.18451 8.09761 3.07161 7.56225 3.07161 7.00837C3.07161 4.84225 4.83386 3.08003 6.99995 3.08003C9.16604 3.08003 10.9283 4.84225 10.9283 7.00837C10.9283 9.17449 9.16604 10.9367 6.99995 10.9367C5.75378 10.9367 4.60885 10.3648 3.85864 9.36759C3.79067 9.27727 3.66232 9.25904 3.57195 9.32707Z" fill="#3F6587"/>
<path d="M4.40446 8.35618C4.51752 8.35618 4.60921 8.26452 4.60921 8.15143V5.86478C4.60921 5.75169 4.51755 5.66003 4.40446 5.66003C4.29139 5.66003 4.19971 5.75169 4.19971 5.86478V8.15143C4.19971 8.26452 4.29139 8.35618 4.40446 8.35618Z" fill="#3F6587"/>
<path d="M6.17542 7.94671C5.92563 7.94671 5.68446 7.84513 5.5303 7.67503C5.45436 7.59125 5.32489 7.58488 5.24108 7.66078C5.1573 7.73672 5.15093 7.86619 5.22684 7.95C5.45734 8.20435 5.81194 8.35621 6.17539 8.35621C6.61081 8.35621 6.99015 8.07061 7.0578 7.69184C7.13581 7.25489 6.79232 6.96223 6.44481 6.83407C6.15067 6.72557 5.87786 6.60712 5.80885 6.57679C5.73609 6.52345 5.70079 6.43822 5.71402 6.34604C5.7307 6.22994 5.81995 6.13672 5.95279 6.09675C6.31916 5.98628 6.65024 6.25173 6.65691 6.25717C6.74346 6.32925 6.87211 6.31785 6.94465 6.23158C7.01741 6.14501 7.00623 6.01584 6.91966 5.9431C6.89945 5.92612 6.41774 5.52901 5.83469 5.70464C5.54958 5.79053 5.34802 6.01401 5.3087 6.28788C5.27209 6.54289 5.38253 6.78813 5.59693 6.92789C5.60599 6.93382 5.61547 6.93899 5.62534 6.94339C5.63847 6.94924 5.95098 7.08834 6.30314 7.21822C6.55552 7.31133 6.68368 7.4577 6.65473 7.61988C6.6264 7.77833 6.4488 7.94671 6.17542 7.94671Z" fill="#3F6587"/>
<path d="M10.1449 7.00811C10.1449 6.26477 9.54012 5.66003 8.7968 5.66003C8.05346 5.66003 7.44873 6.2648 7.44873 7.00811C7.44873 7.75142 8.05349 8.35618 8.7968 8.35618C9.54014 8.35618 10.1449 7.75145 10.1449 7.00811ZM7.85823 7.00811C7.85823 6.49057 8.27927 6.06953 8.7968 6.06953C9.31434 6.06953 9.73538 6.49057 9.73538 7.00811C9.73538 7.52564 9.31434 7.94668 8.7968 7.94668C8.27927 7.94668 7.85823 7.52564 7.85823 7.00811Z" fill="#3F6587"/>
</g>
<defs>
<clipPath id="clip0_5636_17043">
<rect width="14" height="14" fill="white" transform="translate(0 0.00830078)"/>
</clipPath>
</defs>
</svg>
