<svg width="20" height="21" viewBox="0 0 20 21" fill="none" xmlns="http://www.w3.org/2000/svg">
<path d="M20 0.151123H0V20.1511H20V0.151123Z" fill="#F7DF1E"/>
<path d="M13.4326 15.7732C13.8354 16.431 14.3595 16.9145 15.2865 16.9145C16.0653 16.9145 16.5627 16.5253 16.5627 15.9875C16.5627 15.343 16.0516 15.1148 15.1945 14.7399L14.7246 14.5383C13.3684 13.9605 12.4675 13.2367 12.4675 11.7065C12.4675 10.297 13.5415 9.224 15.2199 9.224C16.4148 9.224 17.2738 9.63987 17.8929 10.7288L16.4294 11.6684C16.1072 11.0907 15.7595 10.863 15.2199 10.863C14.6694 10.863 14.3205 11.2123 14.3205 11.6684C14.3205 12.2323 14.6697 12.4605 15.4761 12.8097L15.9459 13.011C17.5427 13.6957 18.4443 14.3938 18.4443 15.9634C18.4443 17.6554 17.1151 18.5824 15.33 18.5824C13.5846 18.5824 12.457 17.7507 11.9053 16.6605L13.4326 15.7732ZM6.79351 15.9361C7.08875 16.4599 7.35732 16.9027 8.00304 16.9027C8.6205 16.9027 9.01002 16.6611 9.01002 15.7218V9.3313H10.8894V15.7472C10.8894 17.6932 9.74843 18.5789 8.08304 18.5789C6.57827 18.5789 5.70685 17.8002 5.26367 16.8623L6.79351 15.9361Z" fill="#333333"/>
</svg>
