<svg width="48" height="48" viewBox="0 0 48 48" fill="none" xmlns="http://www.w3.org/2000/svg">
<g clip-path="url(#clip0_10808_56222)">
<path d="M45.3284 19.0489C45.0826 18.6661 44.9601 18.2173 44.9779 17.7627L45.1478 14.606C45.2428 12.9195 44.3286 11.3377 42.8202 10.5779L40.0248 9.16422C39.6204 8.96161 39.292 8.63362 39.0894 8.22881L37.6757 5.43339C36.9163 3.92503 35.3341 3.0108 33.6476 3.10588L30.491 3.2761C30.0355 3.30018 29.5846 3.17729 29.2047 2.92527L26.5903 1.20351C25.1716 0.268101 23.332 0.268101 21.9137 1.20351L19.2989 2.92527C18.9161 3.17106 18.4673 3.29354 18.0127 3.2761L14.856 3.10588C13.1695 3.0108 11.5877 3.92503 10.8279 5.43339L9.41422 8.22881C9.21161 8.63362 8.88362 8.96161 8.47881 9.16422L5.68339 10.5779C4.17503 11.3377 3.2608 12.9195 3.35588 14.606L3.5261 17.7627C3.55143 18.2181 3.42853 18.6694 3.17527 19.0489L1.45351 21.6637C0.518101 23.082 0.518101 24.9216 1.45351 26.3403L3.17527 28.9547C3.42106 29.3375 3.54354 29.7863 3.5261 30.241L3.35588 33.3976C3.2608 35.0841 4.17503 36.6663 5.68339 37.4257L8.47881 38.8394C8.88362 39.042 9.21161 39.3704 9.41422 39.7748L10.8279 42.5702C11.5877 44.0786 13.1695 44.9928 14.856 44.8978L18.0127 44.7279C18.4681 44.7034 18.919 44.8268 19.2989 45.0784L21.9137 46.8005C23.332 47.7355 25.1716 47.7355 26.5903 46.8005L29.2047 45.0784C29.5875 44.8326 30.0363 44.7101 30.491 44.7279L33.6476 44.8978C35.3341 44.9928 36.9163 44.0786 37.6757 42.5702L39.0894 39.7748C39.292 39.3704 39.6204 39.042 40.0248 38.8394L42.8202 37.4257C44.3286 36.6663 45.2428 35.0841 45.1478 33.3976L44.9779 30.241C44.9522 29.7855 45.0751 29.3342 45.3284 28.9547L47.0505 26.3403C47.9855 24.9216 47.9855 23.082 47.0505 21.6637L45.3284 19.0489ZM45.2752 25.1712L43.5534 27.7856C43.0527 28.5466 42.8107 29.4484 42.8626 30.3576L43.0328 33.5147C43.0747 34.3592 42.6168 35.1497 41.8637 35.5341L39.0682 36.9474C38.2553 37.3564 37.596 38.0161 37.187 38.829L35.7733 41.624C35.391 42.3793 34.5992 42.838 33.7539 42.7932L30.5973 42.6234C29.6884 42.5765 28.7879 42.8181 28.0252 43.3142L25.4212 45.0252C24.7116 45.4931 23.792 45.4931 23.0829 45.0252L20.468 43.3034C19.7701 42.8459 18.9539 42.6022 18.1189 42.6022C18.0409 42.6005 17.9628 42.6039 17.8852 42.6126L14.7286 42.7828C13.8841 42.8247 13.0932 42.3668 12.7091 41.6137L11.2954 38.8182C10.8865 38.0053 10.2271 37.346 9.41422 36.937L6.6188 35.5233C5.86358 35.141 5.40522 34.3492 5.44964 33.5039L5.61987 30.3473C5.66678 29.4384 5.42473 28.5379 4.929 27.7752L3.22841 25.1712C2.7605 24.4616 2.7605 23.542 3.22841 22.8329L4.95018 20.218C5.45089 19.457 5.69294 18.5552 5.64104 17.646L5.47082 14.4894C5.4293 13.6445 5.88683 12.8539 6.63997 12.4699L9.4354 11.0562C10.2483 10.6473 10.908 9.98753 11.3166 9.17502L12.7303 6.37959C13.1127 5.62437 13.9044 5.1656 14.7497 5.21044L17.9064 5.38025C18.8152 5.42716 19.7157 5.18553 20.4788 4.68938L23.0829 2.97841C23.792 2.5105 24.7116 2.5105 25.4212 2.97841L28.0356 4.70018C28.7966 5.20089 29.6984 5.44294 30.6076 5.39104L33.7647 5.22082C34.6092 5.1793 35.3997 5.63683 35.7841 6.38997L37.1974 9.1854C37.6064 9.99832 38.2661 10.658 39.079 11.0666L41.874 12.4803C42.6293 12.8627 43.088 13.6544 43.0432 14.4997L42.8734 17.6564C42.8265 18.5652 43.0681 19.4657 43.5642 20.2288L45.286 22.8432C45.7452 23.5524 45.741 24.4662 45.2752 25.1712Z" fill="#3F6587"/>
<path d="M20.1145 23.5112C22.1281 23.5112 23.7602 21.8791 23.7602 19.8654C23.7602 17.8522 22.1281 16.2197 20.1145 16.2197C18.1012 16.2197 16.4688 17.8522 16.4688 19.8654C16.4721 21.8774 18.1025 23.5078 20.1145 23.5112ZM20.1145 18.3351C20.954 18.3351 21.6345 19.0156 21.6345 19.8551C21.6345 20.6942 20.954 21.3746 20.1145 21.3746C19.275 21.3746 18.5945 20.6942 18.5945 19.8551C18.5945 19.0156 19.275 18.3351 20.1145 18.3351Z" fill="#F37A20"/>
<path d="M28.384 24.4893C26.3704 24.4893 24.7383 26.1213 24.7383 28.135C24.7383 30.1482 26.3704 31.7807 28.384 31.7807C30.3972 31.7807 32.0297 30.1482 32.0297 28.135C32.0264 26.123 30.396 24.4926 28.384 24.4893ZM28.384 29.6653C27.5445 29.6653 26.864 28.9848 26.864 28.1458C26.864 27.3063 27.5445 26.6258 28.384 26.6258C29.2235 26.6258 29.904 27.3063 29.904 28.1458C29.904 28.9848 29.2235 29.6653 28.384 29.6653Z" fill="#F37A20"/>
<path d="M31.0734 17.1758C30.8745 16.9769 30.6051 16.8652 30.324 16.8652C30.0429 16.8652 29.7731 16.9769 29.5746 17.1758L17.7768 28.9736C17.5779 29.1725 17.4658 29.442 17.4658 29.723C17.4658 30.0041 17.5779 30.274 17.7768 30.4725C17.9761 30.6734 18.2484 30.7847 18.5316 30.7805C18.8135 30.7797 19.0842 30.6688 19.286 30.4725L31.0838 18.6746C31.4902 18.2561 31.4853 17.5889 31.0734 17.1758Z" fill="#F37A20"/>
</g>
<defs>
<clipPath id="clip0_10808_56222">
<rect width="47" height="47" fill="white" transform="translate(0.75 0.5)"/>
</clipPath>
</defs>
</svg>
