<svg width="48" height="55" viewBox="0 0 48 55" fill="none" xmlns="http://www.w3.org/2000/svg">
<g clip-path="url(#clip0_2_77374)">
<path d="M0.5 0.331543H47.5V54.3315H0.5V0.331543Z" fill="#F9FAFC"/>
<path d="M18.8333 30.3315H20.1667V28.9646C20.5713 28.882 20.9309 28.6521 21.1757 28.3194C21.4205 27.9867 21.5331 27.575 21.4916 27.1641C21.45 26.7531 21.2574 26.3722 20.9511 26.0953C20.6447 25.8183 20.2464 25.6649 19.8333 25.6649H19.1667C19.0783 25.6649 18.9935 25.6298 18.931 25.5672C18.8685 25.5047 18.8333 25.4199 18.8333 25.3315C18.8333 25.2431 18.8685 25.1584 18.931 25.0958C18.9935 25.0333 19.0783 24.9982 19.1667 24.9982H21.5V23.6649H20.1667V22.3315H18.8333V23.6985C18.4287 23.7811 18.0691 24.011 17.8243 24.3437C17.5795 24.6764 17.4669 25.0881 17.5084 25.499C17.55 25.91 17.7426 26.2908 18.0489 26.5678C18.3553 26.8448 18.7536 26.9982 19.1667 26.9982H19.8333C19.9217 26.9982 20.0065 27.0333 20.069 27.0958C20.1315 27.1584 20.1667 27.2431 20.1667 27.3315C20.1667 27.4199 20.1315 27.5047 20.069 27.5672C20.0065 27.6298 19.9217 27.6649 19.8333 27.6649H17.5V28.9982H18.8333V30.3315Z" fill="#F37A20"/>
<path d="M43.1579 20.2803C43.1579 20.1046 43.0872 19.9361 42.9614 19.8119C42.8356 19.6876 42.6649 19.6179 42.4869 19.6179H38.4607C38.2827 19.6179 38.1121 19.6876 37.9862 19.8119C37.8604 19.9361 37.7897 20.1046 37.7897 20.2803V22.9298H34.4345C34.2566 22.9298 34.0859 22.9996 33.96 23.1238C33.8342 23.2481 33.7635 23.4165 33.7635 23.5922V25.5794H30.4083C30.2304 25.5794 30.0597 25.6492 29.9339 25.7734C29.808 25.8976 29.7373 26.0661 29.7373 26.2418V32.4934L27.0323 29.2892C27.5443 28.1919 27.7782 26.9881 27.7138 25.7817C27.6493 24.5753 27.2886 23.4024 26.6626 22.3644L29.3017 20.2803H33.7635V18.9555H29.0663C28.9139 18.9555 28.7661 19.0067 28.6471 19.1006L25.8749 21.2898C25.8555 21.2677 25.8372 21.2449 25.8175 21.223L22.462 17.4966L23.0681 16.0009C23.1671 15.7566 23.1933 15.4894 23.1435 15.2309C23.0938 14.9724 22.9702 14.7333 22.7873 14.5419C22.6045 14.3504 22.37 14.2146 22.1114 14.1503C21.8529 14.0861 21.5812 14.0962 21.3283 14.1794C21.3167 14.1833 21.3042 14.1832 21.2926 14.1793C21.2811 14.1754 21.2711 14.1679 21.2644 14.1578L20.6024 13.1776C20.4266 12.9174 20.1884 12.704 19.9091 12.5564C19.6297 12.4088 19.3177 12.3315 19.0008 12.3315C18.6839 12.3315 18.3719 12.4088 18.0925 12.5564C17.8131 12.704 17.575 12.9174 17.3992 13.1776L16.7373 14.1578C16.7305 14.1679 16.7206 14.1754 16.709 14.1793C16.6974 14.1832 16.6849 14.1832 16.6733 14.1794C16.4204 14.0962 16.1487 14.0861 15.8902 14.1503C15.6317 14.2145 15.3972 14.3504 15.2143 14.5418C15.0315 14.7333 14.9079 14.9723 14.8581 15.2308C14.8084 15.4894 14.8345 15.7565 14.9335 16.0008L15.5396 17.4966L12.1841 21.2229C11.2593 22.2494 10.6402 23.5083 10.3952 24.8606C10.1502 26.2128 10.2889 27.6055 10.796 28.8848L4.5 33.6655L5.31831 34.7155L6.6948 33.6703L12.0221 40.6819L9.8748 42.2717L10.68 43.3315L13.2998 41.392L17.9231 39.4361C18.0689 39.3744 18.1879 39.2636 18.2589 39.1235L19.4713 36.7299L25.0813 35.0686C25.4234 34.9674 25.7278 34.7694 25.957 34.4991C26.1861 34.2287 26.3298 33.8979 26.3704 33.5477C26.4109 33.1975 26.3464 32.8433 26.185 32.5289C26.0235 32.2145 25.7721 31.9538 25.462 31.7791L26.3177 30.5121L29.2218 33.9521C29.2848 34.0267 29.3636 34.0867 29.4527 34.1279C29.5418 34.1691 29.6389 34.1905 29.7373 34.1905H44.5V32.8657H43.1579V20.2803ZM16.1908 15.4507C16.1973 15.4421 16.2067 15.4359 16.2173 15.4332C16.2279 15.4306 16.2391 15.4317 16.249 15.4363C16.5399 15.5315 16.8544 15.5298 17.1444 15.4316C17.4343 15.3335 17.6835 15.1441 17.854 14.8927L18.5159 13.9125C18.5691 13.8337 18.6412 13.7691 18.7258 13.7244C18.8104 13.6797 18.9048 13.6563 19.0008 13.6563C19.0967 13.6563 19.1912 13.6797 19.2758 13.7244C19.3604 13.7691 19.4325 13.8337 19.4857 13.9125L20.1477 14.8927C20.3181 15.1441 20.5674 15.3334 20.8573 15.4315C21.1472 15.5297 21.4617 15.5314 21.7526 15.4363C21.7627 15.4329 21.7736 15.4325 21.7839 15.4351C21.7942 15.4377 21.8035 15.4431 21.8108 15.4507C21.8181 15.4583 21.823 15.4679 21.825 15.4782C21.827 15.4885 21.826 15.4991 21.822 15.5089L21.2306 16.9683H16.771L16.1796 15.5088C16.1744 15.4993 16.1727 15.4884 16.1747 15.4778C16.1768 15.4672 16.1824 15.4577 16.1908 15.4507V15.4507ZM11.6195 26.1734C11.6189 24.6728 12.1768 23.2242 13.1872 22.103L16.618 18.2931H17.4949C17.1485 18.8052 16.9258 19.389 16.8438 19.9995C16.7618 20.61 16.8229 21.2309 17.0222 21.8145L18.2953 21.3956C18.1313 20.9154 18.1069 20.3994 18.2249 19.9062C18.3428 19.413 18.5984 18.9622 18.9627 18.6051L19.0008 18.5674L19.0389 18.605C19.4032 18.9622 19.6588 19.4129 19.7767 19.9061C19.8947 20.3994 19.8703 20.9154 19.7063 21.3956L20.9795 21.8145C21.1788 21.2309 21.2398 20.61 21.1578 19.9995C21.0759 19.389 20.8531 18.8052 20.5067 18.2931H21.3836L24.8144 22.1031C25.7261 23.1156 26.2722 24.3977 26.3672 25.7491C26.4623 27.1004 26.101 28.4448 25.3398 29.5719L24.01 31.5409H15.3893L16.0173 30.3011C16.2137 29.9123 16.3162 29.4839 16.3167 29.0494C16.3167 28.6488 16.2031 28.2562 15.9886 27.916C15.7742 27.5759 15.4676 27.3018 15.1035 27.1248C14.7394 26.9479 14.3324 26.8751 13.9285 26.9147C13.5247 26.9543 13.1401 27.1048 12.8185 27.3491L11.9141 28.0358C11.7197 27.4336 11.6204 26.8054 11.6195 26.1734V26.1734ZM24.6957 33.7996L18.808 35.5432C18.7203 35.5692 18.6389 35.6126 18.5689 35.6707C18.4988 35.7289 18.4416 35.8006 18.4006 35.8814L17.1685 38.314L13.1819 40.0005L7.75861 32.8625L13.6367 28.3991C13.7597 28.3057 13.9068 28.2481 14.0613 28.233C14.2157 28.2178 14.3714 28.2457 14.5106 28.3134C14.6499 28.3811 14.7672 28.4859 14.8492 28.616C14.9312 28.7461 14.9746 28.8962 14.9746 29.0494C14.9743 29.2782 14.9204 29.5038 14.817 29.7086L13.7034 31.907C13.6523 32.008 13.6281 32.1203 13.6332 32.2331C13.6384 32.3459 13.6726 32.4555 13.7328 32.5515C13.7929 32.6476 13.8769 32.7269 13.9768 32.7819C14.0767 32.8368 14.1892 32.8657 14.3036 32.8657H24.5568C24.6729 32.8657 24.785 32.9069 24.8728 32.9818C24.9606 33.0566 25.0181 33.1602 25.035 33.2735C25.0518 33.3868 25.0268 33.5023 24.9645 33.5989C24.9022 33.6955 24.8068 33.7667 24.6957 33.7996H24.6957ZM31.0794 26.9042H33.7635V32.8657H31.0794V26.9042ZM35.1056 24.2546H37.7897V32.8657H35.1056V24.2546ZM39.1317 32.8657V20.9426H41.8159V32.8657H39.1317Z" fill="#3F6587"/>
<path d="M37 4.33154C35.5166 4.33154 34.0666 4.77141 32.8332 5.59552C31.5999 6.41963 30.6386 7.59097 30.0709 8.96142C29.5033 10.3319 29.3547 11.8399 29.6441 13.2947C29.9335 14.7496 30.6478 16.0859 31.6967 17.1348C32.7456 18.1837 34.082 18.898 35.5368 19.1874C36.9917 19.4768 38.4997 19.3283 39.8701 18.7606C41.2406 18.193 42.4119 17.2317 43.236 15.9983C44.0601 14.7649 44.5 13.3149 44.5 11.8315C44.4978 9.84311 43.7069 7.93676 42.3008 6.53072C40.8948 5.12469 38.9884 4.33379 37 4.33154V4.33154ZM43.0976 11.1497H40.3405C40.2056 10.4953 39.8819 9.89466 39.4094 9.42216C38.9369 8.94965 38.3363 8.62595 37.6818 8.49105V5.73396C39.0642 5.89058 40.3526 6.5115 41.3363 7.49524C42.32 8.47898 42.941 9.76735 43.0976 11.1497V11.1497ZM39.8429 13.7101C40.0842 13.3469 40.2531 12.9406 40.3405 12.5134H43.0976C42.9693 13.6645 42.5163 14.7554 41.7914 15.6587L39.8429 13.7101ZM37 9.78609C37.4046 9.78609 37.8 9.90605 38.1364 10.1308C38.4728 10.3556 38.7349 10.675 38.8898 11.0488C39.0446 11.4225 39.0851 11.8338 39.0062 12.2306C38.9272 12.6274 38.7324 12.9918 38.4464 13.2779C38.1603 13.564 37.7958 13.7588 37.399 13.8377C37.0023 13.9166 36.591 13.8761 36.2172 13.7213C35.8435 13.5665 35.524 13.3043 35.2993 12.9679C35.0745 12.6316 34.9545 12.2361 34.9545 11.8315C34.9552 11.2892 35.1709 10.7693 35.5543 10.3859C35.9378 10.0024 36.4577 9.78671 37 9.78609V9.78609ZM30.8636 11.8315C30.8656 10.3228 31.4226 8.86748 32.4286 7.74298C33.4345 6.61847 34.819 5.90338 36.3182 5.73396V8.49105C35.8254 8.5912 35.3609 8.79911 34.958 9.0999C34.555 9.40068 34.2236 9.78688 33.9875 10.2308C33.7513 10.6748 33.6163 11.1654 33.5921 11.6677C33.5679 12.1699 33.6552 12.6713 33.8475 13.1359C34.0399 13.6005 34.3327 14.0167 34.7048 14.3549C35.077 14.693 35.5194 14.9446 36.0002 15.0916C36.4811 15.2387 36.9885 15.2775 37.4862 15.2054C37.9838 15.1332 38.4593 14.9519 38.8786 14.6744L40.8272 16.623C39.9251 17.3452 38.8373 17.7977 37.6891 17.9285C36.541 18.0593 35.3793 17.863 34.3379 17.3622C33.2965 16.8613 32.4178 16.0764 31.8031 15.0979C31.1884 14.1194 30.8627 12.9871 30.8636 11.8315V11.8315Z" fill="#F37A20"/>
</g>
<defs>
<clipPath id="clip0_2_77374">
<path d="M0.5 0.331543H47.5V54.3315H0.5V0.331543Z" fill="white"/>
</clipPath>
</defs>
</svg>
