<svg width="26" height="23" viewBox="0 0 26 23" fill="none" xmlns="http://www.w3.org/2000/svg">
<path d="M6.5 14.6624C8.57109 14.6624 10.25 12.8156 10.25 10.5374C10.25 8.25915 8.57109 6.41235 6.5 6.41235C4.39453 6.41235 2.75 8.22134 2.75 10.5374C2.75 12.8147 4.39453 14.6624 6.5 14.6624ZM6.5 8.47485C7.53398 8.47485 8.375 9.39997 8.375 10.5374C8.375 11.6747 7.53515 12.5999 6.5 12.5999C5.46484 12.5999 4.625 11.676 4.625 10.5374C4.625 9.39868 5.46484 8.47485 6.5 8.47485ZM7.75 16.0374L5.25 16.0374C2.48867 16.0374 0.249997 18.4995 0.249996 21.5374C0.249996 22.2966 0.809762 22.9124 1.5 22.9124L11.5 22.9124C12.1902 22.9124 12.75 22.2966 12.75 21.5374C12.75 18.4995 10.5117 16.0374 7.75 16.0374ZM2.18789 20.8499C2.47812 19.2815 3.74101 18.0999 5.25 18.0999L7.75 18.0999C9.25898 18.0999 10.5219 19.2828 10.8121 20.8499L2.18789 20.8499ZM23.0625 0.912358L8.6875 0.912355C7.48047 0.912355 6.5 1.99173 6.5 3.3186L6.5 4.34985C6.5 4.91919 6.91992 5.3811 7.4375 5.3811C7.95508 5.3811 8.375 4.91919 8.375 4.34985L8.375 3.3186C8.375 3.12928 8.51539 2.97485 8.6875 2.97485L23.0625 2.97486C23.2346 2.97486 23.375 3.12929 23.375 3.31861L23.375 16.3811C23.375 16.5704 23.2346 16.7249 23.0625 16.7249L14 16.7249C13.4824 16.7249 13.0625 17.1868 13.0625 17.7561C13.0625 18.3254 13.4844 18.7874 14 18.7874L23.0625 18.7874C24.2687 18.7874 25.25 17.708 25.25 16.3811L25.25 3.31861C25.25 1.99173 24.2695 0.912358 23.0625 0.912358ZM13.0664 8.08814C12.7002 7.6853 12.1055 7.6853 11.7391 8.08814C11.3727 8.49097 11.3737 9.14431 11.7399 9.54736L14.5516 12.642C14.7695 12.8448 15.0078 12.9436 15.25 12.9436C15.4922 12.9436 15.7305 12.8438 15.9137 12.6424L19.625 8.5565L19.625 9.50611C19.625 10.0776 20.0469 10.5374 20.5625 10.5374C21.0781 10.5374 21.5 10.0776 21.5 9.50611L21.5 6.06861C21.5 5.50142 21.082 5.03736 20.5625 5.03736L17.4375 5.03736C16.9219 5.03736 16.5 5.50142 16.5 6.06861C16.5 6.63579 16.9199 7.09986 17.4375 7.09986L18.2992 7.09986L15.25 10.4514L13.0664 8.08814Z" fill="#3F6587"/>
</svg>
