<svg width="48" height="59" viewBox="0 0 48 59" fill="none" xmlns="http://www.w3.org/2000/svg">
<g clip-path="url(#clip0_10808_55635)">
<path d="M46.8271 37.2227H2.17384C1.8017 37.2227 1.5 37.4439 1.5 37.7167C1.5 37.9896 1.8017 38.2108 2.17384 38.2108H46.8271C47.1993 38.2108 47.5009 37.9896 47.5009 37.7167C47.5009 37.4439 47.1993 37.2227 46.8271 37.2227Z" fill="#F37A20"/>
<path d="M2.15697 28.6189H8.16084V28.9196C7.48398 29.6192 7.10136 30.327 7.00781 31.0485C6.96173 31.4037 7.18755 31.7353 7.52498 31.8085C10.6486 32.4845 13.883 32.9753 17.1382 33.2673C17.1574 33.269 17.1764 33.2699 17.1954 33.2699C17.5326 33.2699 17.8196 33.0014 17.8491 32.6455C17.8803 32.2697 17.6125 31.9387 17.251 31.9063C14.3007 31.6416 11.3679 31.2111 8.52244 30.6251C9.19728 29.4122 11.3766 28.0038 14.6895 26.6655C17.853 25.3875 21.0028 24.5802 21.0342 24.5722C21.3163 24.5003 21.5197 24.2444 21.5341 23.9429C21.5487 23.6413 21.371 23.3656 21.0972 23.2649C18.3113 22.2395 13.2105 20.2181 10.5803 18.8121C14.0521 18.1381 17.2239 18.3928 19.6289 18.8602V20.0946C19.6289 20.4718 19.923 20.7776 20.2859 20.7776C20.6487 20.7776 20.9428 20.4718 20.9428 20.0946V19.1521C22.465 19.5334 23.5315 19.9538 23.9603 20.1359C24.1235 20.4514 24.452 21.0876 24.8265 21.8172C25.0379 22.2257 25.4753 22.4533 25.9119 22.3841C26.5746 22.2814 27.254 22.2383 27.9396 22.2542C27.945 22.5486 28.0344 22.8351 28.2036 23.0661C28.4146 23.3541 28.7252 23.5193 29.0555 23.5193H30.5029V26.9945C30.5029 27.3717 30.7969 27.6775 31.1598 27.6775C31.5227 27.6775 31.8168 27.3717 31.8168 26.9945V23.5194H32.7494C32.8589 23.913 33.0219 24.5414 33.1844 25.3235C33.2487 25.6332 33.5095 25.8563 33.8142 25.8622C34.0394 25.8666 34.3384 25.9173 34.6789 26.009C34.7341 26.0238 34.7895 26.0309 34.844 26.0309C35.1362 26.0309 35.4029 25.8267 35.4796 25.519C35.5705 25.1538 35.3595 24.781 35.0082 24.6865C34.7791 24.6247 34.5635 24.5778 34.363 24.5461C34.2349 23.9754 34.1129 23.5063 34.0223 23.1782C34.0552 23.1431 34.0868 23.1061 34.116 23.0662C34.365 22.7265 34.4457 22.2675 34.332 21.8385L32.2276 13.8953C32.0835 13.3506 31.6542 12.9846 31.1599 12.9846C30.6656 12.9846 30.2364 13.3507 30.0922 13.8953L28.2369 20.8985C27.4492 20.8641 26.666 20.8994 25.8997 21.0064C25.5583 20.3417 25.2639 19.7716 25.1142 19.4822C24.973 19.2089 24.7425 18.993 24.4646 18.8745C23.9856 18.6706 22.733 18.1766 20.943 17.7521V14.7644C21.4987 15.3684 22.0858 15.7469 22.7168 15.9083C22.7696 15.9218 22.8223 15.9283 22.8743 15.9283C23.1696 15.9283 23.438 15.7197 23.5118 15.4084C23.5985 15.0421 23.3832 14.6721 23.0309 14.5818C21.8807 14.2874 21.1359 12.7159 20.943 12.4954V11.9185C21.3616 12.321 21.8029 12.5805 22.2739 12.7011C22.3267 12.7145 22.3794 12.721 22.4315 12.721C22.7267 12.721 22.9951 12.5125 23.0689 12.2011C23.1556 11.8348 22.9403 11.4648 22.588 11.3745C22.06 11.2394 21.5454 10.7304 21.0149 9.81853C20.9933 9.78138 20.9689 9.74686 20.943 9.71399V9.03971C21.2245 9.26338 21.5196 9.41419 21.831 9.49387C21.8838 9.50735 21.9366 9.51391 21.9886 9.51391C22.2839 9.51391 22.5522 9.30545 22.6259 8.99408C22.7127 8.6278 22.4974 8.25779 22.1451 8.16754C21.7682 8.07101 21.3764 7.67713 20.9805 6.99694C20.6679 6.45927 19.9091 6.45171 19.5919 6.99675C19.196 7.67722 18.8043 8.0711 18.4273 8.16754C18.075 8.2577 17.8597 8.6278 17.9464 8.99408C18.0332 9.36036 18.389 9.58412 18.7414 9.49405C19.0527 9.41437 19.3475 9.26374 19.6289 9.04026V9.71471C19.6031 9.74741 19.579 9.78174 19.5575 9.81862C19.0269 10.7306 18.5124 11.2396 17.9844 11.3746C17.6321 11.4648 17.4168 11.8349 17.5035 12.2012C17.5903 12.5675 17.946 12.7912 18.2986 12.7011C18.7694 12.5807 19.2104 12.3214 19.6289 11.9191V12.4961C19.425 12.7296 18.69 14.2878 17.5416 14.5818C17.1892 14.6721 16.9739 15.0421 17.0606 15.4084C17.1475 15.7746 17.5035 15.9984 17.8557 15.9083C18.4864 15.7469 19.0733 15.3686 19.6289 14.7649V17.4755C15.6268 16.7369 11.7031 16.983 8.64288 17.866C8.35084 17.9497 8.16075 18.2254 8.16075 18.5238V27.2528H2.15697C1.79415 27.2528 1.5 27.5586 1.5 27.9358C1.5 28.313 1.79415 28.6189 2.15697 28.6189ZM31.1599 15.0091L33.0526 22.1534H29.2671L31.1599 15.0091ZM15.6652 24.8346V22.6038C16.7916 23.0662 17.857 23.4856 18.7129 23.816C17.858 24.0763 16.7972 24.4201 15.6652 24.8346ZM11.0463 20.5653V24.0755C11.0463 24.4527 11.3404 24.7585 11.7032 24.7585C12.0661 24.7585 12.3602 24.4527 12.3602 24.0755V21.1829C13.0058 21.4765 13.6792 21.7705 14.3513 22.0557V25.3374C12.7474 25.9794 10.9059 26.8194 9.47479 27.8213V19.7444C9.93336 20.0058 10.4662 20.2823 11.0463 20.5653Z" fill="#3F6587"/>
<path d="M38.0853 26.6753C39.8685 27.7355 41.0326 29.012 41.3211 30.1884C34.4664 31.5943 27.3709 32.1203 20.2201 31.7513C19.842 31.7324 19.52 32.0301 19.5009 32.4175C19.4819 32.8049 19.773 33.1347 20.1511 33.1543C21.6504 33.2316 23.147 33.2701 24.6399 33.2701C30.5973 33.2701 36.4914 32.6555 42.2164 31.4348C42.5344 31.367 42.7623 31.0798 42.7623 30.7471C42.7623 29.7813 42.3857 28.9087 41.8506 28.1551H46.815C47.1937 28.1551 47.5006 27.8406 47.5006 27.4527C47.5006 27.0649 47.1937 26.7504 46.815 26.7504H40.5601C39.8949 26.1669 39.2226 25.7273 38.7734 25.4602C38.4459 25.2656 38.0264 25.3796 37.8364 25.7152C37.6464 26.0509 37.7578 26.4806 38.0853 26.6753Z" fill="#3F6587"/>
<path d="M25.433 30.3058C26.5729 30.3058 27.5002 29.5434 27.5002 28.6064C27.5002 27.7486 26.723 27.0371 25.7171 26.923C25.3065 26.0063 24.2332 25.3652 23.0001 25.3652C21.767 25.3652 20.6936 26.0063 20.283 26.923C19.2772 27.0371 18.5 27.7486 18.5 28.6064C18.5 29.5434 19.4274 30.3058 20.5672 30.3058H25.433ZM19.9424 28.6064C19.9424 28.283 20.3048 28.0365 20.6961 28.1038C20.8933 28.1374 21.099 28.1021 21.2629 28.0056C21.4269 27.9092 21.5343 27.7608 21.5591 27.5964C21.649 27.0004 22.2685 26.551 23.0001 26.551C23.7317 26.551 24.3513 27.0005 24.4411 27.5964C24.4659 27.7608 24.5733 27.9093 24.7372 28.0056C24.901 28.102 25.1062 28.1374 25.3039 28.1039C25.6964 28.0365 26.0578 28.2838 26.0578 28.6064C26.0578 28.8896 25.7774 29.1201 25.433 29.1201H20.5671C20.2227 29.12 19.9424 28.8895 19.9424 28.6064Z" fill="#F37A20"/>
</g>
<defs>
<clipPath id="clip0_10808_55635">
<path d="M0.5 0.662109H47.5V58.6621H0.5V0.662109Z" fill="white"/>
</clipPath>
</defs>
</svg>
