<svg width="47" height="48" viewBox="0 0 47 48" fill="none" xmlns="http://www.w3.org/2000/svg">
<path d="M40.2 14.132H39V13.532H39.6C40.0774 13.532 40.5352 13.3423 40.8728 13.0048C41.2104 12.6672 41.4 12.2094 41.4 11.732C41.4 11.2546 41.2104 10.7968 40.8728 10.4592C40.5352 10.1217 40.0774 9.93204 39.6 9.93204H39V6.93208C39.0009 6.83814 38.9789 6.7454 38.9361 6.6618C38.8933 6.5782 38.8308 6.50624 38.754 6.45209C38.6797 6.39582 38.5932 6.35781 38.5014 6.34113C38.4097 6.32446 38.3154 6.32958 38.226 6.35609L30.51 8.73205H26.4C26.2409 8.73205 26.0883 8.79527 25.9757 8.90779C25.8632 9.02031 25.8 9.17292 25.8 9.33204V9.93204H24.6C24.4409 9.93204 24.2883 9.99525 24.1757 10.1078C24.0632 10.2203 24 10.3729 24 10.532V12.932C24 13.0911 24.0632 13.2437 24.1757 13.3562C24.2883 13.4688 24.4409 13.532 24.6 13.532H25.8V14.132H22.2V8.73205C22.2 8.57293 22.1368 8.42032 22.0243 8.3078C21.9117 8.19528 21.7591 8.13206 21.6 8.13206H9.6C9.44087 8.13206 9.28826 8.19528 9.17574 8.3078C9.06321 8.42032 9 8.57293 9 8.73205V14.132H7.8C7.32305 14.1334 6.86604 14.3235 6.52878 14.6607C6.19152 14.998 6.00142 15.455 6 15.9319V35.1317C6.00142 35.6086 6.19152 36.0656 6.52878 36.4029C6.86604 36.7401 7.32305 36.9302 7.8 36.9316H21.6V38.7316H18C17.8409 38.7316 17.6883 38.7948 17.5757 38.9073C17.4632 39.0199 17.4 39.1725 17.4 39.3316V41.7316C17.4 41.8907 17.4632 42.0433 17.5757 42.1558C17.6883 42.2683 17.8409 42.3315 18 42.3315H30C30.1591 42.3315 30.3117 42.2683 30.4243 42.1558C30.5368 42.0433 30.6 41.8907 30.6 41.7316V39.3316C30.6 39.1725 30.5368 39.0199 30.4243 38.9073C30.3117 38.7948 30.1591 38.7316 30 38.7316H26.4V36.9316H40.2C40.677 36.9302 41.134 36.7401 41.4712 36.4029C41.8085 36.0656 41.9986 35.6086 42 35.1317V15.9319C41.9986 15.455 41.8085 14.998 41.4712 14.6607C41.134 14.3235 40.677 14.1334 40.2 14.132V14.132ZM39 11.132H39.6C39.7591 11.132 39.9117 11.1952 40.0243 11.3078C40.1368 11.4203 40.2 11.5729 40.2 11.732C40.2 11.8911 40.1368 12.0437 40.0243 12.1563C39.9117 12.2688 39.7591 12.332 39.6 12.332H39V11.132ZM31.2 9.77604L37.8 7.74207V15.7219L31.2 13.688V9.77604ZM27 9.93204H30V13.532H27V9.93204ZM28.71 14.732L28.278 17.7319H27.6V14.732H28.71ZM25.2 12.332V11.132H25.8V12.332H25.2ZM10.2 9.33204H21V17.7319H10.2V9.33204ZM29.4 39.9316V41.1316H18.6V39.9316H29.4ZM22.8 38.7316V36.9316H25.2V38.7316H22.8ZM40.8 35.1317C40.8 35.2908 40.7368 35.4434 40.6243 35.5559C40.5117 35.6684 40.3591 35.7316 40.2 35.7316H7.8C7.64087 35.7316 7.48826 35.6684 7.37574 35.5559C7.26321 35.4434 7.2 35.2908 7.2 35.1317V34.5317H40.8V35.1317ZM40.8 33.3317H7.2V15.9319C7.2 15.7728 7.26321 15.6202 7.37574 15.5077C7.48826 15.3952 7.64087 15.332 7.8 15.332H9V18.3319C9 18.491 9.06321 18.6436 9.17574 18.7562C9.28826 18.8687 9.44087 18.9319 9.6 18.9319H21.6C21.7591 18.9319 21.9117 18.8687 22.0243 18.7562C22.1368 18.6436 22.2 18.491 22.2 18.3319V15.332H26.4V18.3319C26.4 18.491 26.4632 18.6436 26.5757 18.7562C26.6883 18.8687 26.8409 18.9319 27 18.9319H28.8C28.9446 18.9319 29.0843 18.8797 29.1934 18.7849C29.3025 18.6901 29.3738 18.559 29.394 18.4159L29.922 14.732H30.51L38.226 17.1079C38.2824 17.1251 38.3411 17.1332 38.4 17.1319C38.5584 17.1296 38.7097 17.0656 38.8217 16.9536C38.9337 16.8416 38.9977 16.6903 39 16.5319V15.332H40.2C40.3591 15.332 40.5117 15.3952 40.6243 15.5077C40.7368 15.6202 40.8 15.7728 40.8 15.9319V33.3317Z" fill="#3F6587"/>
<path d="M8.60714 32.3315H24.3929C24.5539 32.3315 24.7083 32.2672 24.8222 32.1526C24.936 32.0379 25 31.8825 25 31.7204V21.9427C25 21.7806 24.936 21.6251 24.8222 21.5105C24.7083 21.3959 24.5539 21.3315 24.3929 21.3315H8.60714C8.44612 21.3315 8.29169 21.3959 8.17783 21.5105C8.06397 21.6251 8 21.7806 8 21.9427V31.7204C8 31.8825 8.06397 32.0379 8.17783 32.1526C8.29169 32.2672 8.44612 32.3315 8.60714 32.3315ZM9.21429 31.1093V23.0359L16.1819 27.3522C16.2775 27.4115 16.3877 27.4428 16.5 27.4428C16.6123 27.4428 16.7225 27.4115 16.8181 27.3522L23.7857 23.0359V31.1093H9.21429ZM10.7522 22.5538H22.2478L16.5 26.1141L10.7522 22.5538Z" fill="#3F6587"/>
<path d="M26.6364 28.8871H27.9091V30.7204C27.9091 30.8825 27.9761 31.0379 28.0955 31.1526C28.2148 31.2672 28.3767 31.3315 28.5455 31.3315H39.3636C39.5324 31.3315 39.6943 31.2672 39.8136 31.1526C39.933 31.0379 40 30.8825 40 30.7204V23.3871C40 23.225 39.933 23.0696 39.8136 22.955C39.6943 22.8404 39.5324 22.776 39.3636 22.776H38.7273V20.9427C38.7273 20.7806 38.6602 20.6251 38.5409 20.5105C38.4215 20.3959 38.2597 20.3315 38.0909 20.3315H26.6364C26.4676 20.3315 26.3057 20.3959 26.1864 20.5105C26.067 20.6251 26 20.7806 26 20.9427V28.276C26 28.4381 26.067 28.5935 26.1864 28.7081C26.3057 28.8227 26.4676 28.8871 26.6364 28.8871ZM38.7273 30.1093H29.1818V23.9982H38.7273V30.1093ZM27.2727 21.5538H37.4545V22.776H28.5455C28.3767 22.776 28.2148 22.8404 28.0955 22.955C27.9761 23.0696 27.9091 23.225 27.9091 23.3871V27.6649H27.2727V21.5538Z" fill="#F37A20"/>
<path d="M31 25.3315H32V26.3315H31V25.3315Z" fill="#F37A20"/>
<path d="M33 25.3315H37V26.3315H33V25.3315Z" fill="#F37A20"/>
<path d="M31 27.3315H33V28.3315H31V27.3315Z" fill="#F37A20"/>
<path d="M34 27.3315H37V28.3315H34V27.3315Z" fill="#F37A20"/>
<path d="M14.237 15.2568C14.3095 15.3016 14.3922 15.3272 14.4773 15.331C14.5625 15.3349 14.6472 15.3169 14.7234 15.2788L17.7231 13.779C17.8063 13.7375 17.8762 13.6737 17.9252 13.5946C17.9741 13.5156 18 13.4245 18 13.3315C18 13.2386 17.9741 13.1475 17.9252 13.0684C17.8762 12.9894 17.8063 12.9256 17.7231 12.8841L14.7234 11.3843C14.6472 11.3462 14.5625 11.3282 14.4773 11.3321C14.3922 11.3359 14.3094 11.3615 14.237 11.4063C14.1645 11.4511 14.1047 11.5138 14.0632 11.5882C14.0217 11.6627 14 11.7465 14 11.8317V14.8314C14 14.9166 14.0217 15.0004 14.0632 15.0749C14.1047 15.1494 14.1645 15.212 14.237 15.2568V15.2568ZM14.9999 12.6406L16.3817 13.3315L14.9999 14.0225V12.6406Z" fill="#F37A20"/>
</svg>
