<svg width="48" height="48" viewBox="0 0 48 48" fill="none" xmlns="http://www.w3.org/2000/svg">
<path d="M23.7501 12.5195C22.3693 12.5195 21.25 13.6255 21.25 14.9898C21.25 16.3541 22.3693 17.4601 23.7501 17.4601C25.1308 17.4601 26.2501 16.3541 26.2501 14.9898C26.2486 13.6262 25.1302 12.5211 23.7501 12.5195ZM23.7501 15.9557C23.2102 15.9557 22.7726 15.5232 22.7726 14.9898C22.7726 14.4564 23.2102 14.024 23.7501 14.024C24.2899 14.024 24.7275 14.4564 24.7275 14.9898C24.7269 15.523 24.2896 15.9551 23.7501 15.9557Z" fill="#F37A20"/>
<path d="M39.4841 35.0998C39.4837 35.0998 39.4831 35.0998 39.4827 35.0998H37.5133V19.9141H38.87C39.2899 19.9141 39.6424 19.6071 39.6424 19.1879V15.7195C39.6399 15.4146 39.4564 15.1403 39.1753 15.0214L24.2229 8.62871C24.0313 8.54694 23.8144 8.54694 23.6228 8.62871L8.68652 15.0214C8.40981 15.1425 8.2331 15.4179 8.2385 15.7195V19.1879C8.22854 19.5791 8.53809 19.9043 8.92984 19.9142C8.94368 19.9146 8.95744 19.9145 8.97128 19.9141H10.3676V35.0998H8.01799C7.59894 35.0947 7.25509 35.4298 7.25 35.8483C7.25 35.8488 7.25 35.8493 7.25 35.8498V39.4609C7.25 39.8803 7.5978 40.187 8.01799 40.187H39.4827C39.9026 40.187 40.2507 39.8803 40.2507 39.4609V35.8498C40.2464 35.4313 39.9033 35.0955 39.4841 35.0998ZM9.75927 18.3955V16.2203L23.9404 10.1527L38.1216 16.2203V18.3955H9.75927ZM35.9925 19.9141V35.0998H32.2666V19.9141H35.9925ZM30.7459 19.9141V35.0998H27.096V19.9141H30.7459ZM25.5753 19.9141V35.0998H21.9254V19.9141H25.5753ZM20.4046 19.9141V35.0998H16.7548V19.9141H20.4046ZM15.234 19.9141V35.0998H11.8883V19.9141H15.234ZM38.7299 38.6684H8.77077V36.6183H38.7299V38.6684Z" fill="#3F6587"/>
</svg>
