<svg width="20" height="10" viewBox="0 0 20 10" fill="none" xmlns="http://www.w3.org/2000/svg">
<path d="M3.36701 6.54551C3.98193 6.54551 4.44099 6.43269 4.73145 6.2103C5.01881 5.9902 5.21727 5.60885 5.3213 5.07691C5.41829 4.5797 5.38134 4.23252 5.21151 4.04517C5.03787 3.85381 4.66244 3.75676 4.09569 3.75676H3.11299L2.5682 6.54551H3.36701ZM0.15286 9.98074C0.107244 9.98074 0.0639221 9.96046 0.0349218 9.92537C0.00587042 9.89034 -0.00590327 9.84419 0.00281213 9.79963L1.44661 2.40939C1.46058 2.33795 1.52352 2.28633 1.59671 2.28633H4.70847C5.68643 2.28633 6.41434 2.5505 6.87187 3.07159C7.33185 3.59542 7.4739 4.32765 7.29403 5.24788C7.22085 5.62279 7.09496 5.97098 6.91988 6.28271C6.74461 6.5948 6.51296 6.88356 6.23127 7.14114C5.89407 7.4551 5.51242 7.68276 5.09796 7.81672C4.69007 7.94891 4.16623 8.01594 3.54101 8.01594H2.281L1.92117 9.85763C1.9072 9.92912 1.84431 9.98074 1.77112 9.98074H0.15286Z" fill="#777BB3"/>
<path d="M11.0044 8.01595C10.9587 8.01595 10.9155 7.99567 10.8865 7.96058C10.8574 7.92554 10.8456 7.87945 10.8543 7.83483L11.493 4.56495C11.5537 4.25397 11.5387 4.03077 11.4508 3.93646C11.397 3.87881 11.2353 3.78212 10.7573 3.78212H9.60024L8.79725 7.89284C8.78329 7.96433 8.72034 8.01595 8.64715 8.01595H7.04168C6.99601 8.01595 6.95274 7.99567 6.92369 7.96058C6.89464 7.92554 6.88287 7.8794 6.89158 7.83483L8.33539 0.444593C8.34935 0.373151 8.4123 0.321533 8.48548 0.321533H10.091C10.1366 0.321533 10.1799 0.341815 10.2089 0.376852C10.238 0.41194 10.2498 0.45803 10.2411 0.50265L9.89264 2.28633H11.1374C12.0856 2.28633 12.7286 2.45265 13.1031 2.7948C13.4849 3.14385 13.604 3.70195 13.4572 4.4538L12.7854 7.89284C12.7715 7.96433 12.7086 8.01595 12.6353 8.01595H11.0044Z" fill="#777BB3"/>
<path d="M15.9975 6.54551C16.6124 6.54551 17.0715 6.43269 17.3619 6.2103C17.6493 5.99025 17.8477 5.6089 17.9518 5.07691C18.0488 4.5797 18.0119 4.23252 17.842 4.04517C17.6683 3.85381 17.2929 3.75676 16.7262 3.75676H15.7435L15.1987 6.54551H15.9975ZM12.7834 9.98074C12.7378 9.98074 12.6944 9.96046 12.6654 9.92537C12.6364 9.89034 12.6246 9.84419 12.6333 9.79963L14.0771 2.40939C14.0911 2.33795 14.154 2.28633 14.2272 2.28633H17.3389C18.317 2.28633 19.0448 2.5505 19.5024 3.07159C19.9624 3.59537 20.1044 4.3276 19.9246 5.24788C19.8513 5.62279 19.7254 5.97098 19.5504 6.28271C19.3751 6.5948 19.1434 6.88356 18.8617 7.14114C18.5245 7.4551 18.1429 7.68276 17.7284 7.81672C17.3205 7.94891 16.7967 8.01594 16.1715 8.01594H14.9114L14.5517 9.85763C14.5377 9.92912 14.4748 9.98074 14.4016 9.98074H12.7834Z" fill="#777BB3"/>
</svg>
