<svg width="22" height="23" viewBox="0 0 22 23" fill="none" xmlns="http://www.w3.org/2000/svg">
<g clip-path="url(#clip0_10662_37110)">
<path d="M17.4188 0.00830078H4.58311C3.54971 0.00830078 2.70898 0.849027 2.70898 1.88243V21.5786C2.70898 21.8159 2.90136 22.0083 3.13867 22.0083H5.95081C6.18812 22.0083 6.3805 21.8159 6.3805 21.5786V19.6597H9.05857C9.29589 19.6597 9.48826 19.4673 9.48826 19.23C9.48826 18.9927 9.29589 18.8003 9.05857 18.8003H5.95081C5.71349 18.8003 5.52112 18.9927 5.52112 19.23V21.1489H3.56832V1.88243C3.56832 1.32289 4.02357 0.867676 4.58311 0.867676H5.08176V5.27266C5.08176 6.12598 5.77601 6.82027 6.62937 6.82027H15.3726C16.226 6.82027 16.9202 6.12602 16.9202 5.27266V0.867676H17.4189C17.9784 0.867676 18.4336 1.32289 18.4336 1.88243V21.1489H16.4809V19.23C16.4809 18.9927 16.2885 18.8003 16.0512 18.8003H12.9435C12.7061 18.8003 12.5138 18.9927 12.5138 19.23C12.5138 19.4673 12.7061 19.6597 12.9435 19.6597H15.6215V21.5786C15.6215 21.8159 15.8139 22.0083 16.0512 22.0083H18.8633C19.1006 22.0083 19.293 21.8159 19.293 21.5786V1.88243C19.293 0.849027 18.4522 0.00830078 17.4188 0.00830078V0.00830078ZM16.0608 5.27266C16.0608 5.65216 15.7521 5.96089 15.3726 5.96089H6.62933C6.24983 5.96089 5.9411 5.6522 5.9411 5.27266V0.867676H16.0608V5.27266Z" fill="white"/>
<path d="M11.4061 19.0657C11.3367 18.8967 11.1607 18.7885 10.9786 18.8016C10.8 18.8145 10.6456 18.9401 10.5963 19.112C10.5469 19.2843 10.6129 19.4748 10.759 19.579C10.9036 19.6821 11.0997 19.6853 11.2475 19.587C11.4158 19.4748 11.4839 19.2527 11.4061 19.0657Z" fill="white"/>
<path d="M15.8149 16.2012C15.8151 16.2011 15.8152 16.201 15.8152 16.2009L15.8156 16.2005C16.0394 15.9918 16.1678 15.6967 16.1678 15.3908V9.81805C16.1678 9.52114 16.0518 9.24232 15.8411 9.03289L15.8411 9.03284C15.632 8.82496 15.3544 8.71045 15.0594 8.71045H6.94228C6.6473 8.71045 6.36968 8.82496 6.16059 9.03284L6.16055 9.03289C5.94996 9.24232 5.83398 9.52114 5.83398 9.81805V15.3908C5.83398 15.6967 5.96233 15.9918 6.18611 16.2005C6.18624 16.2007 6.18637 16.2008 6.1865 16.2009C6.18659 16.201 6.18667 16.2011 6.18676 16.2012L6.1868 16.2012C6.39241 16.3929 6.6607 16.4984 6.94232 16.4984H15.0595C15.341 16.4984 15.6093 16.3929 15.8149 16.2012ZM15.3084 10.1685V15.1447L12.5895 12.8538L15.3084 10.1685ZM14.6916 9.56978L11.0601 13.1566C11.0274 13.1889 10.9742 13.1889 10.9416 13.1566L7.31009 9.56978H14.6916ZM6.69332 15.1447V10.1685L9.41216 12.8538L6.69332 15.1447ZM7.44033 15.6391L10.0261 13.4603L10.3377 13.768C10.5205 13.9486 10.7607 14.039 11.0008 14.039C11.241 14.039 11.4811 13.9486 11.6639 13.7681L11.9756 13.4603L14.5613 15.6391H7.44033Z" fill="white"/>
<path d="M7.40234 4.9296H14.6002C14.8375 4.9296 15.0299 4.73718 15.0299 4.49991V2.32861C15.0299 2.09134 14.8375 1.89893 14.6002 1.89893H7.40234C7.16503 1.89893 6.97266 2.09134 6.97266 2.32861V4.49991C6.97266 4.73723 7.16503 4.9296 7.40234 4.9296ZM7.83203 2.7583H14.1705V4.07022H7.83203V2.7583Z" fill="white"/>
</g>
<defs>
<clipPath id="clip0_10662_37110">
<rect width="22" height="22" fill="white" transform="translate(0 0.00830078)"/>
</clipPath>
</defs>
</svg>
