<svg width="47" height="49" viewBox="0 0 47 49" fill="none" xmlns="http://www.w3.org/2000/svg">
<path d="M7.66907 33.5182H13.606C14.5607 33.5182 15.3375 32.7089 15.3375 31.7145V25.5303C15.3375 24.5357 14.5606 23.7266 13.606 23.7266H7.66907C6.71429 23.7266 5.9375 24.5358 5.9375 25.5303V26.561C5.9375 26.988 6.26981 27.334 6.67959 27.334C7.08946 27.334 7.42168 26.988 7.42168 26.561V25.5303C7.42168 25.3882 7.53266 25.2726 7.66907 25.2726H13.606C13.7423 25.2726 13.8534 25.3881 13.8534 25.5303V31.7145C13.8534 31.8566 13.7424 31.9722 13.606 31.9722H7.66907C7.53275 31.9722 7.42168 31.8567 7.42168 31.7145V29.6531C7.42168 29.226 7.08937 28.8801 6.67959 28.8801C6.26971 28.8801 5.9375 29.226 5.9375 29.6531V31.7145C5.9375 32.7089 6.71429 33.5182 7.66907 33.5182Z" fill="#3F6587"/>
<path d="M40.8158 36.0947H12.6158C12.206 36.0947 11.8737 36.4407 11.8737 36.8677C11.8737 37.2948 12.206 37.6407 12.6158 37.6407H40.8158C43.4073 37.6407 45.5158 39.8371 45.5158 42.5366C45.5158 45.2361 43.4073 47.4324 40.8158 47.4324H6.18417C3.59265 47.4324 1.48417 45.2361 1.48417 42.5366C1.48417 39.8371 3.59265 37.6407 6.18417 37.6407H9.6473C10.0572 37.6407 10.3894 37.2948 10.3894 36.8677C10.3894 36.4407 10.0571 36.0947 9.6473 36.0947H6.18417C2.77428 36.0947 0 38.9845 0 42.5367C0 46.0887 2.77428 48.9785 6.18417 48.9785H40.8157C44.2257 48.9785 47 46.0887 47 42.5367C47 38.9845 44.2257 36.0947 40.8158 36.0947Z" fill="#3F6587"/>
<path d="M5.44141 42.4341V42.6403C5.44141 43.0673 5.77371 43.4133 6.1835 43.4133C6.59337 43.4133 6.92559 43.0673 6.92559 42.6403V42.4341C6.92559 42.0071 6.59328 41.6611 6.1835 41.6611C5.77371 41.661 5.44141 42.0071 5.44141 42.4341Z" fill="#F37A20"/>
<path d="M33.3947 33.5183H39.3315C40.2863 33.5183 41.0631 32.7091 41.0631 31.7146V1.82422C41.0631 0.829755 40.2863 0.0205078 39.3315 0.0205078H33.3947C32.4399 0.0205078 31.6631 0.829755 31.6631 1.82422V3.88563C31.6631 4.31268 31.9954 4.65864 32.4052 4.65864C32.815 4.65864 33.1473 4.31268 33.1473 3.88563V1.82422C33.1473 1.68213 33.2582 1.56652 33.3947 1.56652H39.3315C39.4678 1.56652 39.5789 1.68203 39.5789 1.82422V31.7145C39.5789 31.8566 39.4679 31.9722 39.3315 31.9722H33.3947C33.2583 31.9722 33.1473 31.8567 33.1473 31.7145V6.97775C33.1473 6.55071 32.815 6.20475 32.4052 6.20475C31.9953 6.20475 31.6631 6.55071 31.6631 6.97775V31.7146C31.6631 32.7091 32.44 33.5183 33.3947 33.5183Z" fill="#3F6587"/>
<path d="M20.5323 33.5177H26.4692C27.424 33.5177 28.2007 32.7085 28.2007 31.714V17.2842C28.2007 16.2896 27.4239 15.4805 26.4692 15.4805H20.5323C19.5776 15.4805 18.8008 16.2897 18.8008 17.2842V19.3456C18.8008 19.7726 19.1331 20.1186 19.5429 20.1186C19.9526 20.1186 20.2849 19.7726 20.2849 19.3456V17.2842C20.2849 17.1421 20.3959 17.0265 20.5323 17.0265H26.4692C26.6055 17.0265 26.7166 17.142 26.7166 17.2842V31.7139C26.7166 31.856 26.6056 31.9716 26.4692 31.9716H20.5323C20.396 31.9716 20.2849 31.8561 20.2849 31.7139V22.4376C20.2849 22.0106 19.9526 21.6646 19.5429 21.6646C19.1331 21.6646 18.8008 22.0106 18.8008 22.4376V31.7139C18.8008 32.7085 19.5777 33.5177 20.5323 33.5177Z" fill="#3F6587"/>
<path d="M26.7158 42.5373C26.7158 40.6902 25.2731 39.1875 23.5 39.1875C21.7268 39.1875 20.2842 40.6902 20.2842 42.5373C20.2842 44.3844 21.7268 45.8871 23.5 45.8871C25.2731 45.8871 26.7158 44.3843 26.7158 42.5373ZM21.7684 42.5373C21.7684 41.5428 22.5453 40.7336 23.5 40.7336C24.4548 40.7336 25.2315 41.5429 25.2315 42.5373C25.2315 43.5319 24.4547 44.341 23.5 44.341C22.5452 44.341 21.7684 43.5318 21.7684 42.5373Z" fill="#F37A20"/>
<path d="M41.5584 42.6403V42.4341C41.5584 42.0071 41.2261 41.6611 40.8163 41.6611C40.4064 41.6611 40.0742 42.0071 40.0742 42.4341V42.6403C40.0742 43.0673 40.4065 43.4133 40.8163 43.4133C41.2261 43.4134 41.5584 43.0673 41.5584 42.6403Z" fill="#F37A20"/>
<path d="M44.0313 42.5373C44.0313 40.6902 42.5886 39.1875 40.8154 39.1875C39.0423 39.1875 37.5996 40.6902 37.5996 42.5373C37.5996 44.3844 39.0423 45.8871 40.8154 45.8871C42.5886 45.887 44.0313 44.3843 44.0313 42.5373ZM39.0839 42.5373C39.0839 41.5428 39.8607 40.7336 40.8154 40.7336C41.7702 40.7336 42.547 41.5429 42.547 42.5373C42.547 43.5319 41.7701 44.341 40.8154 44.341C39.8607 44.341 39.0839 43.5318 39.0839 42.5373Z" fill="#F37A20"/>
<path d="M2.96875 42.5373C2.96875 44.3844 4.41143 45.8871 6.18458 45.8871C7.95773 45.8871 9.40041 44.3844 9.40041 42.5373C9.40041 40.6902 7.95773 39.1875 6.18458 39.1875C4.41143 39.1875 2.96875 40.6902 2.96875 42.5373ZM7.91614 42.5373C7.91614 43.5319 7.13927 44.341 6.18458 44.341C5.2298 44.341 4.45301 43.5318 4.45301 42.5373C4.45301 41.5428 5.22989 40.7336 6.18458 40.7336C7.13927 40.7335 7.91614 41.5428 7.91614 42.5373Z" fill="#F37A20"/>
<path d="M24.2419 42.6403V42.4341C24.2419 42.0071 23.9096 41.6611 23.4999 41.6611C23.09 41.6611 22.7578 42.0071 22.7578 42.4341V42.6403C22.7578 43.0673 23.0901 43.4133 23.4999 43.4133C23.9097 43.4134 24.2419 43.0673 24.2419 42.6403Z" fill="#F37A20"/>
</svg>
