<svg width="22" height="22" viewBox="0 0 22 22" fill="none" xmlns="http://www.w3.org/2000/svg">
<path d="M10.8515 0.167603C5.30194 0.167603 5.64849 2.58285 5.64849 2.58285L5.65468 5.08503H10.9505V5.8363H3.55119C3.55119 5.8363 0 5.43212 0 11.0517C-3.95951e-07 16.6714 3.09955 16.4721 3.09955 16.4721H4.94939V13.8644C4.94939 13.8644 4.84968 10.7537 7.99945 10.7537C11.1492 10.7537 13.252 10.7537 13.252 10.7537C13.252 10.7537 16.2031 10.8016 16.2031 7.89143C16.2031 4.98127 16.2031 3.07956 16.2031 3.07956C16.2031 3.07956 16.6511 0.167603 10.8515 0.167603ZM7.93139 1.85021C8.45829 1.85021 8.88415 2.27759 8.88415 2.80637C8.88415 3.33515 8.45829 3.76254 7.93139 3.76254C7.4045 3.76254 6.97864 3.33515 6.97864 2.80637C6.97864 2.27759 7.4045 1.85021 7.93139 1.85021Z" fill="url(#paint0_linear_10700_44925)"/>
<path d="M11.008 21.9911C16.5576 21.9911 16.211 19.5759 16.211 19.5759L16.2048 17.0737H10.909V16.3225H18.3083C18.3083 16.3225 21.8595 16.7266 21.8595 11.107C21.8595 5.48738 18.76 5.68667 18.76 5.68667H16.9101V8.29439C16.9101 8.29439 17.0098 11.405 13.8601 11.405C10.7103 11.405 8.60754 11.405 8.60754 11.405C8.60754 11.405 5.65646 11.3572 5.65646 14.2673C5.65646 17.1775 5.65646 19.0792 5.65646 19.0792C5.65646 19.0792 5.20841 21.9911 11.008 21.9911ZM13.9281 20.3085C13.4012 20.3085 12.9754 19.8812 12.9754 19.3524C12.9754 18.8236 13.4012 18.3962 13.9281 18.3962C14.455 18.3962 14.8809 18.8236 14.8809 19.3524C14.8809 19.8812 14.455 20.3085 13.9281 20.3085Z" fill="url(#paint1_linear_10700_44925)"/>
<defs>
<linearGradient id="paint0_linear_10700_44925" x1="2.10085" y1="2.07527" x2="12.949" y2="12.9209" gradientUnits="userSpaceOnUse">
<stop stop-color="#387EB8"/>
<stop offset="1" stop-color="#366994"/>
</linearGradient>
<linearGradient id="paint1_linear_10700_44925" x1="8.74922" y1="8.99836" x2="20.3983" y2="20.119" gradientUnits="userSpaceOnUse">
<stop stop-color="#FFE052"/>
<stop offset="1" stop-color="#FFC331"/>
</linearGradient>
</defs>
</svg>
