<svg width="210" height="184" viewBox="0 0 210 184" fill="none" xmlns="http://www.w3.org/2000/svg">
<path d="M165.938 84.0355L154.961 73.1165V57.6718C154.961 51.3239 149.785 46.1781 143.406 46.1781H127.886L116.912 35.2614C112.398 30.7717 105.082 30.7717 100.571 35.2614L89.6036 46.1781H74.0768C67.6952 46.1781 62.522 51.3239 62.522 57.6718V73.1093L51.5473 84.0355C47.0337 88.5229 47.0337 95.8022 51.5473 100.29L62.522 111.189V126.634C62.522 132.98 67.6952 138.128 74.0768 138.128H89.5964L100.571 149.045C105.085 153.532 112.4 153.532 116.912 149.045L127.879 138.128H143.406C149.787 138.128 154.961 132.982 154.961 126.634V111.197L165.935 100.28C170.439 95.7926 170.439 88.5133 165.938 84.0355ZM106.816 126.634C102.482 126.634 99.1123 123.282 99.1123 118.972C99.1123 114.661 102.266 111.309 106.816 111.309C110.932 111.309 114.519 114.661 114.519 118.972C114.519 123.282 110.932 126.634 106.816 126.634ZM123.45 92.6319L112.593 99.3365V99.8154C112.593 102.928 109.945 105.562 106.816 105.562C103.686 105.562 101.038 102.928 101.038 99.8154V95.9842C101.038 94.0686 102.001 92.153 103.927 90.9557L117.648 82.8143C119.333 81.8565 120.296 80.1803 120.296 78.2647C120.296 75.3913 117.889 72.9967 115 72.9967H102.482C99.3771 72.9967 97.1865 75.3913 97.1865 78.2647C97.1865 81.3776 94.5385 84.0116 91.4091 84.0116C88.2796 84.0116 85.6317 81.3776 85.6317 78.2647C85.6317 68.9261 93.0941 61.503 102.266 61.503H114.784C124.388 61.503 131.851 68.9261 131.851 78.2647C131.851 84.0116 128.722 89.519 123.45 92.6319Z" fill="#F3F6F9"/>
<path d="M106.816 111.309C102.483 111.309 99.1125 114.661 99.1125 118.972C99.1125 123.282 102.266 126.634 106.816 126.634C110.932 126.634 114.519 123.282 114.519 118.972C114.519 114.661 110.932 111.309 106.816 111.309ZM114.784 61.503H102.266C93.0943 61.503 85.6318 68.926 85.6318 78.2647C85.6318 81.3776 88.2798 84.0116 91.4093 84.0116C94.5387 84.0116 97.1867 81.3776 97.1867 78.2647C97.1867 75.3913 99.3773 72.9967 102.266 72.9967H114.784C117.672 72.9967 120.296 75.3913 120.296 78.2647C120.296 80.1803 119.333 81.8565 117.648 82.8143L103.927 90.9557C102.001 92.1529 101.038 94.0686 101.038 95.9842V99.8154C101.038 102.928 103.686 105.562 106.816 105.562C109.945 105.562 112.593 102.928 112.593 99.8154V99.3365L123.45 92.6318C128.722 89.519 131.851 84.0116 131.851 78.2647C131.851 68.926 124.389 61.503 114.784 61.503Z" fill="white"/>
<path d="M156.942 79.1833L146.043 68.2552V52.7976C146.043 46.4444 140.904 41.2943 134.57 41.2943H119.16L108.263 30.3686C106.031 28.1228 103.091 27 100.151 27C97.2154 27 94.2778 28.123 92.0382 30.3695L81.1483 41.2943H65.7314C59.3949 41.2943 54.2583 46.4444 54.2583 52.7976V68.248L43.3613 79.1833C38.8796 83.6744 38.8796 90.9599 43.3613 95.451L54.2583 106.36V121.818C54.2583 128.168 59.3949 133.321 65.7314 133.321H81.1412L92.0382 144.247C94.2707 146.286 97.2106 147.604 100.151 147.604C103.088 147.604 106.023 146.481 108.263 144.235L119.153 133.321H134.57C140.906 133.321 146.043 128.171 146.043 121.818V106.367L156.94 95.4414C161.412 90.9503 161.412 83.6648 156.942 79.1833ZM154.241 92.7237L142.219 104.778V121.818C142.219 126.045 138.786 129.486 134.57 129.486H117.575L105.56 141.534C104.118 142.979 102.182 143.77 100.151 143.77C98.1189 143.77 96.1876 142.972 94.7415 141.523L82.7259 129.486H65.7314C61.515 129.486 58.0827 126.045 58.0827 121.818V104.778L46.0646 92.7237C44.6209 91.2858 43.825 89.3446 43.825 87.3076C43.825 85.2705 44.6209 83.3293 46.0646 81.8914L58.0827 69.8369V52.7976C58.0827 48.5702 61.515 45.1287 65.7314 45.1287H82.7259L94.7439 33.0814C96.1828 31.6315 98.1189 30.8335 100.151 30.8335C102.182 30.8335 104.114 31.631 105.56 33.0797L117.575 45.1287H134.57C138.786 45.1287 142.219 48.5702 142.219 52.7976V69.8369L154.237 81.8842C155.676 83.3293 156.464 85.2705 156.464 87.3076C156.464 89.3446 155.676 91.2858 154.241 92.7237Z" fill="#3F6587"/>
<path d="M191.942 129.529L189.524 127.115V123.7C189.524 122.296 188.384 121.158 186.979 121.158H183.56L181.143 118.745C180.149 117.752 178.537 117.752 177.544 118.745L175.128 121.158H171.708C170.302 121.158 169.163 122.296 169.163 123.7V127.113L166.746 129.529C165.751 130.521 165.751 132.131 166.746 133.123L169.163 135.533V138.948C169.163 140.351 170.302 141.489 171.708 141.489H175.126L177.544 143.903C178.538 144.895 180.149 144.895 181.143 143.903L183.559 141.489H186.979C188.384 141.489 189.524 140.352 189.524 138.948V135.535L191.941 133.121C192.933 132.129 192.933 130.519 191.942 129.529ZM178.919 138.948C177.965 138.948 177.222 138.207 177.222 137.254C177.222 136.301 177.917 135.559 178.919 135.559C179.826 135.559 180.616 136.301 180.616 137.254C180.616 138.207 179.826 138.948 178.919 138.948ZM182.583 131.43L180.192 132.912V133.018C180.192 133.706 179.608 134.289 178.919 134.289C178.23 134.289 177.647 133.706 177.647 133.018V132.171C177.647 131.747 177.859 131.324 178.283 131.059L181.305 129.259C181.676 129.047 181.888 128.677 181.888 128.253C181.888 127.618 181.358 127.088 180.722 127.088H177.965C177.281 127.088 176.798 127.618 176.798 128.253C176.798 128.941 176.215 129.524 175.526 129.524C174.836 129.524 174.253 128.941 174.253 128.253C174.253 126.188 175.897 124.547 177.917 124.547H180.674C182.79 124.547 184.433 126.188 184.433 128.253C184.433 129.524 183.744 130.741 182.583 131.43Z" fill="#D0DCE5"/>
<path d="M159.271 161.792L155.749 158.276V153.302C155.749 151.257 154.089 149.6 152.042 149.6H147.063L143.542 146.084C142.094 144.639 139.747 144.639 138.3 146.084L134.781 149.6H129.8C127.753 149.6 126.093 151.257 126.093 153.302V158.273L122.572 161.792C121.124 163.237 121.124 165.582 122.572 167.027L126.093 170.537V175.511C126.093 177.555 127.753 179.213 129.8 179.213H134.779L138.3 182.728C139.748 184.174 142.095 184.174 143.542 182.728L147.061 179.213H152.042C154.089 179.213 155.749 177.555 155.749 175.511V170.539L159.27 167.024C160.715 165.579 160.715 163.234 159.271 161.792ZM140.303 175.511C138.913 175.511 137.832 174.432 137.832 173.043C137.832 171.655 138.844 170.576 140.303 170.576C141.624 170.576 142.775 171.655 142.775 173.043C142.775 174.432 141.624 175.511 140.303 175.511ZM145.64 164.561L142.157 166.72V166.874C142.157 167.877 141.307 168.725 140.303 168.725C139.299 168.725 138.45 167.877 138.45 166.874V165.64C138.45 165.023 138.759 164.406 139.377 164.021L143.779 161.399C144.319 161.09 144.628 160.551 144.628 159.934C144.628 159.008 143.856 158.237 142.929 158.237H138.913C137.917 158.237 137.214 159.008 137.214 159.934C137.214 160.936 136.365 161.784 135.361 161.784C134.357 161.784 133.507 160.936 133.507 159.934C133.507 156.926 135.901 154.536 138.844 154.536H142.86C145.941 154.536 148.335 156.926 148.335 159.934C148.335 161.784 147.331 163.558 145.64 164.561Z" fill="#D0DCE5"/>
<path d="M37.7844 36.488L34.2627 32.9715V27.9975C34.2627 25.9532 32.6023 24.296 30.5558 24.296H25.5768L22.056 20.7802C20.6079 19.3343 18.2609 19.3343 16.8137 20.7802L13.2951 24.296H8.31387C6.26653 24.296 4.60689 25.9532 4.60689 27.9975V32.9692L1.08603 36.488C-0.36201 37.9332 -0.36201 40.2775 1.08603 41.7226L4.60689 45.233V50.2069C4.60689 52.2505 6.26653 53.9085 8.31387 53.9085H13.2928L16.8137 57.4242C18.2617 58.8694 20.6087 58.8694 22.056 57.4242L25.5745 53.9085H30.5558C32.6031 53.9085 34.2627 52.2513 34.2627 50.2069V45.2353L37.7836 41.7195C39.2285 40.2744 39.2285 37.9301 37.7844 36.488ZM18.817 50.2069C17.4269 50.2069 16.3457 49.1273 16.3457 47.7392C16.3457 46.3511 17.3574 45.2715 18.817 45.2715C20.1376 45.2715 21.2883 46.3511 21.2883 47.7392C21.2883 49.1273 20.1376 50.2069 18.817 50.2069ZM24.1535 39.2565L20.6705 41.4157V41.5699C20.6705 42.5725 19.821 43.4207 18.817 43.4207C17.813 43.4207 16.9635 42.5725 16.9635 41.5699V40.3361C16.9635 39.7192 17.2724 39.1022 17.8902 38.7167L22.2923 36.0947C22.8329 35.7862 23.1418 35.2464 23.1418 34.6295C23.1418 33.7041 22.3695 32.933 21.4428 32.933H17.4269C16.4306 32.933 15.7278 33.7041 15.7278 34.6295C15.7278 35.632 14.8783 36.4803 13.8743 36.4803C12.8704 36.4803 12.0208 35.632 12.0208 34.6295C12.0208 31.622 14.4149 29.2314 17.3574 29.2314H21.3733C24.4547 29.2314 26.8488 31.622 26.8488 34.6295C26.8488 36.4803 25.8448 38.254 24.1535 39.2565Z" fill="#D0DCE5"/>
<path d="M63.1169 13.0942L60.8567 10.8374V7.64513C60.8567 6.33309 59.7911 5.2695 58.4776 5.2695H55.2822L53.0225 3.01314C52.0932 2.08516 50.5869 2.08516 49.658 3.01314L47.3999 5.2695H44.203C42.889 5.2695 41.8238 6.33309 41.8238 7.64513V10.8359L39.5642 13.0942C38.6349 14.0217 38.6349 15.5263 39.5642 16.4538L41.8238 18.7067V21.8989C41.8238 23.2105 42.889 24.2746 44.203 24.2746H47.3984L49.658 26.5309C50.5874 27.4584 52.0937 27.4584 53.0225 26.5309L55.2807 24.2746H58.4776C59.7916 24.2746 60.8567 23.211 60.8567 21.8989V18.7082L63.1164 16.4518C64.0437 15.5243 64.0437 14.0197 63.1169 13.0942ZM50.9438 21.8989C50.0516 21.8989 49.3577 21.206 49.3577 20.3152C49.3577 19.4243 50.007 18.7314 50.9438 18.7314C51.7913 18.7314 52.5298 19.4243 52.5298 20.3152C52.5298 21.206 51.7913 21.8989 50.9438 21.8989ZM54.3687 14.871L52.1333 16.2568V16.3558C52.1333 16.9992 51.5881 17.5436 50.9438 17.5436C50.2994 17.5436 49.7542 16.9992 49.7542 16.3558V15.5639C49.7542 15.168 49.9525 14.772 50.349 14.5246L53.1742 12.8418C53.5211 12.6439 53.7194 12.2974 53.7194 11.9015C53.7194 11.3076 53.2237 10.8126 52.629 10.8126H50.0516C49.4122 10.8126 48.9612 11.3076 48.9612 11.9015C48.9612 12.5449 48.416 13.0893 47.7716 13.0893C47.1273 13.0893 46.5821 12.5449 46.5821 11.9015C46.5821 9.97127 48.1186 8.43701 50.007 8.43701H52.5844C54.562 8.43701 56.0985 9.97127 56.0985 11.9015C56.0985 13.0893 55.4541 14.2276 54.3687 14.871Z" fill="#D0DCE5"/>
<path d="M115.316 84.9153L115.325 84.9108L115.334 84.906C120.307 82.1594 123.392 76.8862 123.392 71.194C123.392 62.5312 116.381 55.5 107.738 55.5H92.154C83.5109 55.5 76.5 62.5312 76.5 71.194V73.7343C76.5 75.0696 77.5823 76.1515 78.9122 76.1515C80.2429 76.1515 81.3244 75.0634 81.3244 73.7343V71.194C81.3244 65.2139 86.1929 60.3344 92.154 60.3344H107.736C113.699 60.3344 118.568 65.214 118.568 71.194C118.568 75.1334 116.435 78.7676 113.083 80.6425L97.3034 88.5542C94.8144 89.7032 93.3272 92.5144 93.3272 95.279V100.096C93.3272 101.431 94.4095 102.513 95.7394 102.513C97.0692 102.513 98.1515 101.431 98.1515 100.096V95.279C98.1515 94.239 98.7136 93.2901 99.5292 92.8306L115.316 84.9153ZM96.1218 109.182C93.7324 109.182 91.7974 111.124 91.7974 113.517C91.7974 115.91 93.7418 117.851 96.1218 117.851C98.5019 117.851 100.446 115.91 100.446 113.517C100.446 111.123 98.5019 109.182 96.1218 109.182Z" fill="#F37A20" stroke="#F37A20"/>
</svg>
