<svg id="Layer_1" data-name="Layer 1" xmlns="http://www.w3.org/2000/svg" xmlns:xlink="http://www.w3.org/1999/xlink" viewBox="0 0 233.13 45.16"><defs><style>.cls-1{fill:url(#linear-gradient);}.cls-2,.cls-5{fill:#fff;}.cls-2,.cls-4{fill-rule:evenodd;}.cls-3{fill:url(#linear-gradient-2);}.cls-4,.cls-6{fill:#333;}.cls-7{fill-opacity:0.2;fill:url(#linear-gradient-3);}</style><linearGradient id="linear-gradient" x1="6.41" y1="3.41" x2="49.73" y2="47.28" gradientTransform="matrix(1, 0, 0, -1, 0, 50)" gradientUnits="userSpaceOnUse"><stop offset="0" stop-color="#c42126"/><stop offset="0.38" stop-color="#e63446"/><stop offset="0.63" stop-color="#e63446"/><stop offset="1" stop-color="#e63446"/></linearGradient><linearGradient id="linear-gradient-2" x1="17.7" y1="4.87" x2="49.73" y2="37.31" gradientTransform="matrix(1, 0, 0, -1, 0, 50)" gradientUnits="userSpaceOnUse"><stop offset="0" stop-color="#08ae95"/><stop offset="0.12" stop-color="#08ae95"/><stop offset="0.47" stop-color="#08ae95"/><stop offset="0.99" stop-color="#039e84"/><stop offset="1" stop-color="#039e84"/></linearGradient><linearGradient id="linear-gradient-3" x1="2.21" y1="34.49" x2="18.58" y2="21.12" gradientTransform="matrix(1, 0, 0, -1, 0, 50)" gradientUnits="userSpaceOnUse"><stop offset="0"/><stop offset="0.27" stop-opacity="0"/></linearGradient></defs><path class="cls-1" d="M50,3H6.13V46.32H50Z" transform="translate(0 -3)"/><path class="cls-2" d="M47.4,43.74,43,35.65a11.42,11.42,0,0,0,1.56-8.08,11.59,11.59,0,0,0-4.28-7.06,11.84,11.84,0,0,0-15.56.9,11.46,11.46,0,0,0-.91,15.35,11.81,11.81,0,0,0,15.34,2.69Z" transform="translate(0 -3)"/><path class="cls-3" d="M33.06,36.88a7.3,7.3,0,1,0-7.39-7.3A7.35,7.35,0,0,0,33.06,36.88Z" transform="translate(0 -3)"/><path class="cls-4" d="M91,26.75a.1.1,0,0,1,.11.11v7.43c0,1.6.25,3.5,2.3,3.5s2.3-1.9,2.3-3.5v-7.4a.09.09,0,0,1,0-.07.08.08,0,0,1,.07,0h3.86a.13.13,0,0,1,.07,0,.09.09,0,0,1,0,.07V35c0,4.06-2.13,6.19-6.32,6.19S87.08,39,87.08,35V26.89a.09.09,0,0,1,0-.07.1.1,0,0,1,.07,0Z" transform="translate(0 -3)"/><path class="cls-4" d="M107.08,22a2.37,2.37,0,0,1-.4,1.31,2.32,2.32,0,0,1-1.07.86,2.38,2.38,0,0,1-2.6-.51,2.37,2.37,0,0,1-.65-1.2,2.33,2.33,0,0,1,1-2.42,2.41,2.41,0,0,1,1.33-.4,2.44,2.44,0,0,1,1.69.69,2.45,2.45,0,0,1,.52.76A2.2,2.2,0,0,1,107.08,22Zm-.47,18.73h-3.86l0,0a.08.08,0,0,1,0,0V26.89a.19.19,0,0,1,0-.08.11.11,0,0,1,.08,0h3.81a.09.09,0,0,1,.07,0,.11.11,0,0,1,0,.08V40.61s0,0,0,0l0,0Z" transform="translate(0 -3)"/><path class="cls-4" d="M119.41,30.77a.07.07,0,0,1,0,.05.1.1,0,0,1-.05,0,.06.06,0,0,1-.06,0,.05.05,0,0,1-.05,0A3.84,3.84,0,0,0,118,30a3.93,3.93,0,0,0-1.52-.31c-2.27,0-3.56,2.09-3.56,4.13a3.66,3.66,0,0,0,.47,2.15,3.7,3.7,0,0,0,5.81.73l.06,0h.06a.1.1,0,0,1,0,0,.14.14,0,0,1,0,.06v3.51s0,0,0,0a.06.06,0,0,1,0,0,7.14,7.14,0,0,1-3.42.83A7.27,7.27,0,0,1,110.8,39a7.13,7.13,0,0,1-2-5.18,7.09,7.09,0,0,1,2-5.27,7.33,7.33,0,0,1,2.4-1.64,7.6,7.6,0,0,1,2.86-.57,6.5,6.5,0,0,1,3.23.85s0,0,0,0,0,0,0,0Z" transform="translate(0 -3)"/><path class="cls-4" d="M125.88,31.86h.06l4.19-5.07h5l.06,0a.1.1,0,0,1,0,.05.13.13,0,0,1,0,.06l0,.06-5.78,5.95,6.27,7.6s0,0,0,0a.07.07,0,0,1,0,.06.1.1,0,0,1,0,0h-5.15l-4.59-5.88h-.06v5.75a.1.1,0,0,1-.11.11h-3.85l0,0s0,0,0,0,0,0,0,0V20.74s0,0,0,0l0,0,0,0s0,0,0,0h3.84l0,0,0,0a.08.08,0,0,1,0,0Z" transform="translate(0 -3)"/><path class="cls-4" d="M149.62,37.05h5.9l0,0,0,0v3.46s0,0,0,0a.05.05,0,0,1,0,0l0,0H145.45l0,0a.05.05,0,0,1,0,0,.06.06,0,0,1,0,0V20.74a.08.08,0,0,1,0,0l0,0,0,0h4.1l0,0,0,0s0,0,0,0Z" transform="translate(0 -3)"/><path class="cls-4" d="M170.67,33.73a7.3,7.3,0,0,1-2.17,5.18,7.5,7.5,0,0,1-10.49,0,7.26,7.26,0,0,1,0-10.35,7.47,7.47,0,0,1,10.49,0A7.26,7.26,0,0,1,170.67,33.73Zm-10.75,0c0,1.87,1.27,3.89,3.3,3.89s3.3-2,3.3-3.89-1.25-3.92-3.3-3.92S159.92,31.8,159.92,33.73Z" transform="translate(0 -3)"/><path class="cls-4" d="M186.41,33.73a7.26,7.26,0,0,1-2.17,5.18,7.44,7.44,0,0,1-12.09-2.38,7.23,7.23,0,0,1,1.61-8A7.49,7.49,0,0,1,176.17,27a7.45,7.45,0,0,1,8.07,1.59,7.12,7.12,0,0,1,1.61,2.37A7.29,7.29,0,0,1,186.41,33.73Zm-10.74,0c0,1.87,1.26,3.89,3.3,3.89s3.3-2,3.3-3.89S181,29.81,179,29.81,175.67,31.8,175.67,33.73Z" transform="translate(0 -3)"/><path class="cls-4" d="M192.33,31.86l4.19-5.07h5l.06,0,0,.05a.06.06,0,0,1,0,.06.09.09,0,0,1,0,.06l-5.77,5.95,6.27,7.6a.08.08,0,0,1,0,0,.13.13,0,0,1,0,.06l0,0h-5.15l-4.6-5.88v5.79l0,0,0,0h-3.85a.1.1,0,0,1-.11-.11V20.7l0,0,0,0h3.9l0,0,0,0V31.86Z" transform="translate(0 -3)"/><path class="cls-4" d="M207.26,26.75a.11.11,0,0,1,.07,0,.19.19,0,0,1,0,.08v7.43c0,1.6.27,3.5,2.3,3.5s2.3-1.9,2.3-3.5v-7.4a.12.12,0,0,1,0-.08.09.09,0,0,1,.07,0h3.81a.12.12,0,0,1,.11.11V35c0,4.06-2.13,6.19-6.33,6.19S203.34,39,203.34,35V26.89a.09.09,0,0,1,0-.07.1.1,0,0,1,.07,0Z" transform="translate(0 -3)"/><path class="cls-4" d="M222.8,28a5.09,5.09,0,0,1,1.76-1.28,5.23,5.23,0,0,1,2.14-.45c4,0,6.43,3.68,6.43,7.34s-2.35,7.5-6.52,7.5a4.71,4.71,0,0,1-2.09-.45,4.64,4.64,0,0,1-1.67-1.31v8.68a.07.07,0,0,1,0,.07.09.09,0,0,1-.07,0h-3.85l0,0,0,0V26.89a.1.1,0,0,1,.11-.11h3.8a.12.12,0,0,1,.08,0,.09.09,0,0,1,0,.07v1.17Zm6.25,5.67c0-1.87-1.26-3.89-3.3-3.89s-3.3,2-3.3,3.89,1.27,3.92,3.3,3.92,3.33-2,3.33-3.92Z" transform="translate(0 -3)"/><path class="cls-4" d="M82.53,35.85A11.16,11.16,0,0,0,84,28a11.28,11.28,0,0,0-4.17-6.86,11.51,11.51,0,0,0-15.1.9A11.14,11.14,0,0,0,63.9,37,11.35,11.35,0,0,0,70.85,41a11.47,11.47,0,0,0,8-1.5l7.7,4c.08,0,.19-.06.14-.14ZM67.72,35a7.12,7.12,0,0,1-2-3.63,7,7,0,0,1,.41-4.1,7.11,7.11,0,0,1,2.64-3.18,7.22,7.22,0,0,1,10.63,3.18A7,7,0,0,1,77.88,35a7.27,7.27,0,0,1-10.16,0Z" transform="translate(0 -3)"/><path class="cls-5" d="M0,4.75H27.59A2.4,2.4,0,0,1,30,7.15v6.6a2.41,2.41,0,0,1-2.4,2.4H0Z" transform="translate(0 -3)"/><path class="cls-6" d="M4.09,13V6.84H6.34A4.24,4.24,0,0,1,7.42,7a2.09,2.09,0,0,1,.72.33,1.27,1.27,0,0,1,.41.52,1.7,1.7,0,0,1,.13.69,1.27,1.27,0,0,1-.06.39,1.22,1.22,0,0,1-.18.36,2,2,0,0,1-.33.31,2.94,2.94,0,0,1-.47.23,1.68,1.68,0,0,1,.89.48,1.19,1.19,0,0,1,.29.84,1.8,1.8,0,0,1-.15.73,1.75,1.75,0,0,1-.44.58,2.08,2.08,0,0,1-.72.39,3.26,3.26,0,0,1-1,.14Zm1.42-2.59v1.52h1A1.2,1.2,0,0,0,7,11.81a.85.85,0,0,0,.28-.18.64.64,0,0,0,.13-.26,1,1,0,0,0,0-.29,1,1,0,0,0,0-.3.46.46,0,0,0-.16-.23.67.67,0,0,0-.28-.14,1.72,1.72,0,0,0-.44-.05Zm0-.95h.74a2.67,2.67,0,0,0,.42,0A.76.76,0,0,0,7,9.26.45.45,0,0,0,7.19,9a.82.82,0,0,0,.07-.37,1.25,1.25,0,0,0,0-.36A.5.5,0,0,0,7,8.07a.71.71,0,0,0-.29-.13,2.27,2.27,0,0,0-.41,0H5.51Zm8.77-2.57V7.93H11.77V9.36h1.92v1.05H11.77v1.45h2.51V13H10.35V6.84Zm6,0V8H18.56v5H17.14V8H15.42V6.84ZM26.62,13H25.53a.57.57,0,0,1-.31-.08.46.46,0,0,1-.16-.23l-.36-1.06H22.37L22,12.64a.46.46,0,0,1-.16.22.49.49,0,0,1-.3.09h-1.1l2.36-6.11h1.45ZM22.7,10.62h1.67l-.56-1.68c0-.1-.08-.23-.13-.37a4.41,4.41,0,0,1-.14-.47c-.05.17-.1.33-.14.48L23.26,9Z" transform="translate(0 -3)"/><path class="cls-5" d="M6.11,16.15H0l6.11,5.09Z" transform="translate(0 -3)"/><path class="cls-7" d="M6.11,16.15H0l6.11,5.09Z" transform="translate(0 -3)"/></svg>