<svg width="20" height="16" viewBox="0 0 20 16" fill="none" xmlns="http://www.w3.org/2000/svg">
<g clip-path="url(#clip0_10700_44931)">
<path fill-rule="evenodd" clip-rule="evenodd" d="M9.98525 13.8262C4.48459 13.8262 0.0253906 10.8397 0.0253906 7.15577C0.0253906 3.47179 4.48459 0.485352 9.98525 0.485352C15.4859 0.485352 19.9451 3.47179 19.9451 7.15577C19.9451 10.8397 15.4859 13.8262 9.98525 13.8262ZM11.5098 3.09325C7.32879 3.09325 3.93942 5.13491 3.93942 7.65342C3.93942 10.1719 7.32879 12.2136 11.5098 12.2136C15.6907 12.2136 18.7762 10.8178 18.7762 7.65342C18.7762 4.49008 15.6907 3.09325 11.5098 3.09325Z" fill="url(#paint0_linear_10700_44931)"/>
<path fill-rule="evenodd" clip-rule="evenodd" d="M15.1937 10.8169C15.1937 10.8169 15.7966 10.9988 16.1468 11.176C16.2683 11.2375 16.4786 11.3602 16.6302 11.5213C16.7788 11.6791 16.8512 11.839 16.8512 11.839L19.2269 15.8445L15.3871 15.8462L13.5915 12.4743C13.5915 12.4743 13.2239 11.8426 12.9976 11.6594C12.8089 11.5066 12.7284 11.4522 12.5418 11.4522C12.4119 11.4522 11.6295 11.4522 11.6295 11.4522L11.6302 15.8438L8.23242 15.8452V4.62732H15.0556C15.0556 4.62732 18.1634 4.68337 18.1634 7.64008C18.1634 10.5968 15.1937 10.8169 15.1937 10.8169ZM13.7158 7.06063L11.6589 7.05931L11.6578 8.96677L13.7158 8.9661C13.7158 8.9661 14.6689 8.96315 14.6689 7.9958C14.6689 7.009 13.7158 7.06063 13.7158 7.06063Z" fill="url(#paint1_linear_10700_44931)"/>
</g>
<defs>
<linearGradient id="paint0_linear_10700_44931" x1="0.0253906" y1="0.485352" x2="12.3616" y2="18.9051" gradientUnits="userSpaceOnUse">
<stop stop-color="#CBCED0"/>
<stop offset="1" stop-color="#84838B"/>
</linearGradient>
<linearGradient id="paint1_linear_10700_44931" x1="8.23242" y1="4.62732" x2="19.449" y2="15.6195" gradientUnits="userSpaceOnUse">
<stop stop-color="#276DC3"/>
<stop offset="1" stop-color="#165CAA"/>
</linearGradient>
<clipPath id="clip0_10700_44931">
<rect width="20" height="15.4972" fill="white" transform="translate(0 0.402466)"/>
</clipPath>
</defs>
</svg>
