<svg width="15" height="18" viewBox="0 0 15 18" fill="none" xmlns="http://www.w3.org/2000/svg">
<g clip-path="url(#clip0_10742_44830)">
<path d="M8.30301 10.7226C8.30301 11.1679 7.94475 11.5262 7.49944 11.5262C7.05413 11.5262 6.69587 11.1679 6.69587 10.7226V7.24044C6.69587 6.79513 7.05413 6.43687 7.49944 6.43687C7.94475 6.43687 8.30301 6.79513 8.30301 7.24044V10.7226ZM4.82087 0.811872C4.82087 0.368234 5.17913 0.00830078 5.62444 0.00830078H9.37444C9.81975 0.00830078 10.178 0.368234 10.178 0.811872C10.178 1.25551 9.81975 1.61544 9.37444 1.61544H8.30301V3.26846C9.75614 3.43687 11.0753 4.0496 12.1133 4.97035L13.091 3.99268C13.4057 3.68129 13.9146 3.68129 14.1992 3.99268C14.5407 4.30741 14.5407 4.81634 14.1992 5.10093L13.1881 6.16901C13.9916 7.30406 14.4637 8.69022 14.4637 10.1869C14.4637 14.034 11.3465 17.1512 7.49944 17.1512C3.65234 17.1512 0.535156 14.034 0.535156 10.1869C0.535156 6.61098 3.22812 3.6679 6.69587 3.26846V1.61544H5.62444C5.17913 1.61544 4.82087 1.25551 4.82087 0.811872ZM7.49944 15.544C10.4593 15.544 12.8566 13.1467 12.8566 10.1869C12.8566 7.22705 10.4593 4.82973 7.49944 4.82973C4.53962 4.82973 2.1423 7.22705 2.1423 10.1869C2.1423 13.1467 4.53962 15.544 7.49944 15.544Z" fill="white"/>
</g>
<defs>
<clipPath id="clip0_10742_44830">
<rect width="15" height="17.1429" fill="white" transform="translate(0 0.00830078)"/>
</clipPath>
</defs>
</svg>
