<svg width="16" height="14" viewBox="0 0 16 14" fill="none" xmlns="http://www.w3.org/2000/svg">
<path d="M14.3554 3.90313C14.3655 4.04525 14.3655 4.18741 14.3655 4.32953C14.3655 8.66455 11.066 13.6595 5.03555 13.6595C3.17767 13.6595 1.45179 13.1214 0 12.1874C0.26397 12.2179 0.517752 12.228 0.791878 12.228C2.32485 12.228 3.73605 11.7103 4.86296 10.827C3.42133 10.7966 2.2132 9.8524 1.79694 8.5529C2.00001 8.58333 2.20304 8.60364 2.41626 8.60364C2.71067 8.60364 3.00511 8.56302 3.2792 8.49199C1.77666 8.18739 0.649721 6.86761 0.649721 5.27369V5.2331C1.08625 5.47676 1.59391 5.62904 2.13195 5.64932C1.24869 5.06047 0.670034 4.05541 0.670034 2.91834C0.670034 2.30921 0.832441 1.75084 1.11672 1.26352C2.73095 3.25337 5.15736 4.55285 7.87816 4.695C7.82741 4.45135 7.79694 4.19757 7.79694 3.94375C7.79694 2.13662 9.25888 0.664551 11.0761 0.664551C12.0203 0.664551 12.8731 1.06049 13.4721 1.70009C14.2132 1.55796 14.9238 1.28383 15.5533 0.908208C15.3096 1.66965 14.7919 2.30924 14.1117 2.71531C14.7716 2.64428 15.4112 2.4615 16 2.20771C15.5534 2.85743 14.995 3.43609 14.3554 3.90313Z" fill="#BDBDBD"/>
</svg>
