<svg width="15" height="16" viewBox="0 0 15 16" fill="none" xmlns="http://www.w3.org/2000/svg">
<path d="M13.9286 0.662109H1.06808C0.478795 0.662109 0 1.1476 0 1.74358V14.5806C0 15.1766 0.478795 15.6621 1.06808 15.6621H13.9286C14.5179 15.6621 15 15.1766 15 14.5806V1.74358C15 1.1476 14.5179 0.662109 13.9286 0.662109ZM4.53348 13.5193H2.31027V6.36077H4.53683V13.5193H4.53348ZM3.42187 5.38309C2.70871 5.38309 2.13281 4.80385 2.13281 4.09403C2.13281 3.38421 2.70871 2.80497 3.42187 2.80497C4.1317 2.80497 4.71094 3.38421 4.71094 4.09403C4.71094 4.8072 4.13504 5.38309 3.42187 5.38309ZM12.8672 13.5193H10.644V10.0371C10.644 9.20675 10.6272 8.13867 9.48884 8.13867C8.33036 8.13867 8.1529 9.04269 8.1529 9.97684V13.5193H5.92969V6.36077H8.0625V7.33845H8.09263C8.39062 6.77595 9.11719 6.18331 10.1987 6.18331C12.4487 6.18331 12.8672 7.66657 12.8672 9.59514V13.5193Z" fill="#BDBDBD"/>
</svg>
