<svg width="48" height="47" viewBox="0 0 48 47" fill="none" xmlns="http://www.w3.org/2000/svg">
<g clip-path="url(#clip0_10808_56254)">
<path d="M46.2865 16.864C46.9058 15.4085 47.25 13.808 47.25 12.129C47.25 5.44156 41.8084 0 35.121 0C33.442 0 31.8422 0.343498 30.3868 0.963497C28.2377 0.332023 26.0098 0 23.75 0C19.3182 0 15.0337 1.24555 11.3026 3.58119C10.7304 3.23547 10.0623 3.03226 9.34677 3.03226C8.82375 3.03226 8.31517 3.14219 7.83065 3.35984C7.34612 3.14219 6.83754 3.03226 6.31452 3.03226C4.45563 3.03226 2.90471 4.37701 2.5849 6.14484C1.24755 6.46095 0.25 7.66467 0.25 9.09677C0.25 10.7395 1.5644 12.0728 3.1949 12.1198C1.26976 15.5918 0.25 19.4957 0.25 23.5C0.25 26.8128 0.930703 30.002 2.25732 32.9962C1.0362 33.9697 0.25 35.4662 0.25 37.1452C0.25 38.3989 1.2705 39.4194 2.52419 39.4194H9.63623L13.4266 47H17.1403L16.8797 45.9569C19.0995 46.6361 21.4021 47 23.75 47C27.8013 47 31.7841 45.9484 35.2909 43.9677H44.2177C45.8901 43.9677 47.25 42.6078 47.25 40.9355C47.25 39.5034 46.2524 38.2997 44.9151 37.9835C44.7637 37.1459 44.3292 36.4089 43.7229 35.8596C46.0233 32.1496 47.25 27.8966 47.25 23.5C47.25 21.2395 46.918 19.0108 46.2865 16.864ZM43.4908 18.6311C42.8397 17.9866 41.6274 16.9639 39.9081 16.1914C40.2227 14.9514 40.4274 13.5959 40.4274 12.129C40.4274 10.6621 40.2227 9.30665 39.9081 8.06665C41.6274 7.29415 42.8397 6.27143 43.4908 5.627C44.891 7.42518 45.7339 9.67828 45.7339 12.129C45.7339 14.5798 44.891 16.8329 43.4908 18.6311ZM38.9113 12.129C38.9113 13.392 38.7414 14.5716 38.4738 15.6595C37.477 15.3593 36.3621 15.1613 35.121 15.1613C33.8791 15.1613 32.7635 15.3601 31.7659 15.6603C31.4998 14.5731 31.3306 13.3927 31.3306 12.129C31.3306 10.8661 31.5005 9.68642 31.7682 8.59855C32.765 8.89874 33.8799 9.09677 35.121 9.09677C36.3628 9.09677 37.4784 8.898 38.476 8.59781C38.7421 9.68494 38.9113 10.8653 38.9113 12.129ZM38.0374 17.1186C37.1609 19.6223 35.8494 21.4579 35.1195 22.3499C34.3888 21.4594 33.0748 19.6257 32.1994 17.1164C33.0703 16.8525 34.0424 16.6774 35.121 16.6774C36.1959 16.6774 37.1671 16.8532 38.0374 17.1186ZM35.121 7.58065C34.0461 7.58065 33.0748 7.40482 32.2046 7.13943C33.0811 4.63574 34.3925 2.80017 35.1224 1.90812C35.8531 2.79869 37.1671 4.63241 38.0425 7.14165C37.1716 7.40556 36.1996 7.58065 35.121 7.58065ZM36.8658 1.67233C39.0249 2.03175 40.9649 3.03892 42.4758 4.49546C41.9595 5.01144 40.9353 5.89943 39.4654 6.59457C38.7166 4.45437 37.675 2.76834 36.8658 1.67233ZM30.778 6.58902C29.3126 5.89462 28.2862 5.00848 27.7676 4.49398C29.2785 3.03818 31.2178 2.03175 33.3761 1.67233C32.5677 2.7676 31.5268 4.45141 30.778 6.58902ZM26.7512 5.627C27.4023 6.27143 28.6145 7.29415 30.3338 8.06665C30.0192 9.30665 29.8145 10.6621 29.8145 12.129C29.8145 13.5959 30.0192 14.9514 30.3338 16.1914C28.6145 16.9639 27.4023 17.9866 26.7512 18.6311C25.3509 16.8329 24.5081 14.5798 24.5081 12.129C24.5081 9.67828 25.3509 7.42518 26.7512 5.627ZM30.7758 17.6635C31.5246 19.8037 32.5662 21.4897 33.375 22.5857C31.2163 22.2263 29.2763 21.2191 27.7654 19.7626C28.2817 19.2466 29.3059 18.3586 30.7758 17.6635ZM39.4639 17.669C40.9293 18.3634 41.9558 19.2496 42.4743 19.7641C40.9634 21.2199 39.0242 22.2263 36.8658 22.5857C37.6743 21.4905 38.7151 19.8067 39.4639 17.669ZM1.76613 9.09677C1.76613 8.26061 2.44609 7.58065 3.28226 7.58065H4.04032V6.82258C4.04032 5.56889 5.06082 4.54839 6.31452 4.54839C6.70576 4.54839 7.08776 4.65536 7.44939 4.86597L7.83065 5.08806L8.2119 4.86597C8.57353 4.65536 8.95553 4.54839 9.34677 4.54839C10.6005 4.54839 11.621 5.56889 11.621 6.82258V7.58065H12.379C13.2152 7.58065 13.8952 8.26061 13.8952 9.09677C13.8952 9.93294 13.2152 10.6129 12.379 10.6129H3.28226C2.44609 10.6129 1.76613 9.93294 1.76613 9.09677ZM2.52419 37.9032C2.10667 37.9032 1.76613 37.5634 1.76613 37.1452C1.76613 35.0553 3.46659 33.3548 5.55645 33.3548H25.5556L24.7975 34.871H21.7653L23.2814 37.9032H14.8661L14.487 36.3871H8.1201L8.87817 37.9032H2.52419ZM13.984 31.8387H11.3315L13.6057 27.2903H14.5525L13.984 31.8387ZM24.2186 36.3871H26.2182L28.0374 42.4516H27.2509L24.2186 36.3871ZM27.3464 34.871H26.4928L28.767 30.3226H29.0565V37.9032H28.2558L27.3464 34.871ZM14.3638 45.4839L10.5734 37.9032H13.3033L15.1985 45.4839H14.3638ZM16.4507 44.242L15.2451 39.4194H24.0395L26.3137 43.9677H30.0755L28.7107 39.4194H30.5726V28.8065H27.8298L26.3137 31.8387H15.512L16.27 25.7742H12.6685L9.63623 31.8387H5.55645C4.85539 31.8387 4.18653 31.979 3.57319 32.227C2.37799 29.472 1.76613 26.5423 1.76613 23.5C1.76613 19.4717 2.86991 15.5518 4.94386 12.129H12.379C14.0514 12.129 15.4113 10.7691 15.4113 9.09677C15.4113 7.66467 14.4137 6.46095 13.0764 6.14484C12.9772 5.59739 12.7496 5.0988 12.442 4.6598C15.8518 2.60844 19.7361 1.51613 23.75 1.51613C25.3313 1.51613 26.8959 1.69269 28.4265 2.02397C25.1547 4.19897 22.9919 7.91489 22.9919 12.129C22.9919 18.8165 28.4335 24.2581 35.121 24.2581C39.3351 24.2581 43.051 22.0953 45.2253 18.8235C45.5573 20.3534 45.7339 21.9172 45.7339 23.5C45.7339 27.6223 44.5816 31.6088 42.4203 35.0849C42.0324 34.9506 41.6182 34.871 41.1855 34.871C40.6625 34.871 40.1539 34.9809 39.6694 35.1985C39.1848 34.9809 38.6762 34.871 38.1532 34.871C36.2943 34.871 34.7434 36.2157 34.4236 37.9835C33.0863 38.2997 32.0887 39.5034 32.0887 40.9355C32.0887 41.9056 32.5551 42.7603 33.265 43.3159C30.3109 44.7343 27.0551 45.4839 23.75 45.4839C21.2459 45.4839 18.7907 45.0656 16.4507 44.242ZM45.7339 40.9355C45.7339 41.7716 45.0539 42.4516 44.2177 42.4516H35.121C34.2848 42.4516 33.6048 41.7716 33.6048 40.9355C33.6048 40.0993 34.2848 39.4194 35.121 39.4194H35.879V38.6613C35.879 37.4076 36.8995 36.3871 38.1532 36.3871C38.5445 36.3871 38.9265 36.4941 39.2881 36.7047L39.6694 36.9268L40.0506 36.7047C40.4122 36.4941 40.7942 36.3871 41.1855 36.3871C42.4392 36.3871 43.4597 37.4076 43.4597 38.6613V39.4194H44.2177C45.0539 39.4194 45.7339 40.0993 45.7339 40.9355Z" fill="#3F6587"/>
<path d="M34.3633 27.4092H35.8794V28.9253H34.3633V27.4092Z" fill="#F37A20"/>
<path d="M38.3115 27.0877L39.7758 26.6953L40.1682 28.16L38.7039 28.5523L38.3115 27.0877Z" fill="#F37A20"/>
<path d="M42.0459 25.7581L43.3588 25L44.1169 26.3133L42.8036 27.071L42.0459 25.7581Z" fill="#F37A20"/>
<path d="M20.2988 4.44708L21.0569 3.13379L22.3698 3.89185L21.6121 5.20514L20.2988 4.44708Z" fill="#F37A20"/>
<path d="M18.8164 8.54536L19.2088 7.08105L20.6731 7.47341L20.2807 8.93772L18.8164 8.54536Z" fill="#F37A20"/>
<path d="M18.4434 11.3711H19.9595V12.8872H18.4434V11.3711Z" fill="#F37A20"/>
<path d="M18.8154 15.7127L20.2797 15.3203L20.6721 16.7846L19.2078 17.177L18.8154 15.7127Z" fill="#F37A20"/>
<path d="M20.2988 19.8124L21.6121 19.0547L22.3698 20.3676L21.0569 21.1257L20.2988 19.8124Z" fill="#F37A20"/>
<path d="M22.792 23.3864L23.8639 22.3145L24.9359 23.3864L23.8639 24.4587L22.792 23.3864Z" fill="#F37A20"/>
<path d="M26.126 26.1922L26.884 24.8789L28.197 25.637L27.4393 26.9499L26.126 26.1922Z" fill="#F37A20"/>
<path d="M30.0713 28.0424L30.4636 26.5781L31.928 26.9705L31.5356 28.4348L30.0713 28.0424Z" fill="#F37A20"/>
</g>
<defs>
<clipPath id="clip0_10808_56254">
<rect width="47" height="47" fill="white" transform="translate(0.25)"/>
</clipPath>
</defs>
</svg>
