<svg width="30" height="27" viewBox="0 0 30 27" fill="none" xmlns="http://www.w3.org/2000/svg">
<path d="M13.7906 5.84961C13.7906 5.17676 14.3298 4.63086 14.9999 4.63086C15.6701 4.63086 16.2092 5.17676 16.2092 5.84961C16.2092 6.525 15.6701 7.06836 14.9999 7.06836C14.3298 7.06836 13.7906 6.525 13.7906 5.84961ZM14.2542 15.9602C12.6367 13.9695 8.9534 9.02852 8.9534 6.25586C8.9534 2.89059 11.6592 0.162109 14.9999 0.162109C18.3406 0.162109 21.0464 2.89059 21.0464 6.25586C21.0464 9.02852 17.3631 13.9695 15.7456 15.9602C15.3577 16.4934 14.6422 16.4934 14.2542 15.9602ZM18.9604 7.9875C19.298 7.2207 19.434 6.63164 19.434 6.25586C19.434 3.78789 17.4487 1.78711 14.9999 1.78711C12.5511 1.78711 10.5658 3.78789 10.5658 6.25586C10.5658 6.63164 10.7018 7.2207 11.0394 7.9875C11.367 8.81523 11.8305 9.67852 12.3697 10.557C13.2313 11.9688 14.229 13.3348 14.9999 14.3352C15.7708 13.3348 16.7685 11.9688 17.6301 10.557C18.1693 9.67852 18.6329 8.81523 18.9604 7.9875ZM20.9406 11.4812C20.9003 11.4965 20.86 11.5066 20.8146 11.5168C21.2278 10.8008 21.6057 10.0594 21.9131 9.33828L27.8538 6.94141C28.6499 6.62148 29.5115 7.21055 29.5115 8.07383V21.8254C29.5115 22.323 29.2092 22.7699 28.7507 22.9578L20.9406 26.1062C20.7743 26.1723 20.5929 26.1824 20.4216 26.1316L9.40185 22.9578L2.14654 25.8828C1.35243 26.2027 0.488281 25.6137 0.488281 24.7504V10.9988C0.488281 10.5012 0.789347 10.0543 1.24863 9.86641L7.45689 7.36797C7.5627 7.89609 7.72394 8.42422 7.92045 8.92695L2.10068 11.273V24.1512L8.5503 21.5512V15.5539C8.5503 15.1527 8.91309 14.7414 9.3565 14.7414C9.79991 14.7414 10.1627 15.1527 10.1627 15.5539V21.4852L19.8371 24.273V15.5539C19.8371 15.1527 20.1999 14.7414 20.6433 14.7414C21.0867 14.7414 21.4495 15.1527 21.4495 15.5539V24.1512L27.8991 21.5512V8.67305L20.9406 11.4812Z" fill="white"/>
</svg>
