<svg width="26" height="23" viewBox="0 0 26 23" fill="none" xmlns="http://www.w3.org/2000/svg">
<path d="M16.3354 6.29147C15.7844 5.42942 14.4039 5.43289 13.8549 6.28837L10.312 11.7822L9.51795 10.6613C8.96597 9.82798 7.66834 9.86766 7.11151 10.6613L3.9875 15.0836C3.65839 15.5502 3.61225 16.1609 3.86418 16.6708C4.11581 17.1887 4.62518 17.5111 5.19169 17.5111H20.8069C21.3594 17.5111 21.8625 17.1995 22.121 16.6986C22.3782 16.2026 22.3502 15.6029 22.0476 15.1332L16.3354 6.29147ZM5.24253 15.9239L8.26341 11.5898L9.71163 13.6403C9.86173 13.8506 10.1135 13.9994 10.3556 13.9696C10.6098 13.9634 10.8456 13.8317 10.986 13.6131L15.045 7.16999L20.698 15.9239H5.24253ZM22.2522 0.0517578H3.65922C1.99117 0.0517578 0.603516 1.47281 0.603516 3.22618V19.0983C0.603516 20.8516 1.99073 22.2727 3.65878 22.2727H22.2518C23.9634 22.2727 25.3506 20.8516 25.3506 19.0983V3.22618C25.3511 1.47281 24.005 0.0517578 22.2522 0.0517578ZM23.8452 19.0983C23.8452 19.9732 23.1499 20.6855 22.2958 20.6855H3.70279C2.84868 20.6855 2.15337 19.9732 2.15337 19.0983V3.22618C2.15337 2.35123 2.84868 1.63897 3.70279 1.63897H22.2958C23.1499 1.63897 23.8452 2.35123 23.8452 3.22618V19.0983ZM7.57634 7.9878C8.85945 7.9878 9.90047 6.9214 9.90047 5.60699C9.90047 4.29258 8.85945 3.22618 7.57634 3.22618C6.29323 3.22618 5.25221 4.29258 5.25221 5.60699C5.25221 6.9214 6.29323 7.9878 7.57634 7.9878ZM7.57634 4.81339C8.00349 4.81339 8.30747 5.16942 8.30747 5.60699C8.30747 6.04456 8.00243 6.4006 7.57634 6.4006C7.15025 6.4006 6.80163 6.04347 6.80163 5.60699C6.80163 5.17051 7.15025 4.81339 7.57634 4.81339Z" fill="white"/>
</svg>
