<svg width="24" height="22" viewBox="0 0 24 22" fill="none" xmlns="http://www.w3.org/2000/svg">
<path d="M22.5965 14.0607H18.6663L16.8584 12.9352C16.652 12.8042 16.3777 12.7381 16.1689 12.7381H13.426C12.7026 12.7381 12.1159 13.3304 12.1159 14.0607V20.6741C12.1159 21.4045 12.7026 21.9968 13.426 21.9968H22.5965C23.3199 21.9968 23.9066 21.4045 23.9066 20.6741V15.3834C23.9066 14.6518 23.3211 14.0607 22.5965 14.0607ZM21.9415 20.0128H14.081V14.7221H15.9847L17.6346 15.7496C17.9457 15.9414 18.3019 16.0447 18.6663 16.0447H21.9415V20.0128ZM9.82326 7.44736C10.3678 7.44736 10.8058 7.00509 10.8058 6.45535C10.8058 5.90561 10.3678 5.46334 9.82326 5.46334H2.29031V1.82599C2.29031 1.27791 1.85021 0.833984 1.30775 0.833984C0.765299 0.833984 0.325195 1.27791 0.325195 1.82599V17.0367C0.325195 18.314 1.35156 19.3514 2.61783 19.3514H9.82326C10.3678 19.3514 10.8058 18.9092 10.8058 18.3594C10.8058 17.8113 10.3657 17.3674 9.82326 17.3674H2.61783C2.4377 17.3674 2.29031 17.2185 2.29031 17.0367V7.44736H9.82326ZM22.5965 2.15666H18.6663L16.8584 1.03115C16.652 0.902102 16.3777 0.833984 16.1689 0.833984H13.426C12.7026 0.833984 12.1159 1.42629 12.1159 2.15666V8.77003C12.1159 9.50039 12.7026 10.0927 13.426 10.0927H22.5965C23.3199 10.0927 23.9066 9.50039 23.9066 8.77003V3.47933C23.9066 2.74897 23.3211 2.15666 22.5965 2.15666ZM21.9415 8.10869H14.081V2.818H15.9847L17.6346 3.84555C17.9457 4.03858 18.3019 4.14067 18.6663 4.14067H21.9415V8.10869Z" fill="white"/>
</svg>
