<svg width="48" height="48" viewBox="0 0 48 48" fill="none" xmlns="http://www.w3.org/2000/svg">
<path d="M32.3575 14.6441C31.6144 13.065 30.0228 11.9768 28.2157 11.9768C26.3007 11.9768 24.655 13.1461 23.973 14.8711C22.4823 15.399 21.4274 16.8206 21.4274 18.497C21.4274 20.6271 23.1336 22.3498 25.2435 22.3498H32.2841C34.3985 22.3498 36.1048 20.6271 36.1048 18.497C36.1048 16.3946 34.4261 14.6812 32.3575 14.6441ZM32.2887 20.8679H25.2481C23.9455 20.8679 22.8951 19.8075 22.8951 18.497C22.8951 17.2189 23.895 16.1908 25.1426 16.1353C25.3673 14.621 26.6516 13.4587 28.2157 13.4587C29.8554 13.4587 31.1856 14.7437 31.3117 16.3705C31.6098 16.2258 31.9364 16.1274 32.2864 16.1274C33.5867 16.126 34.637 17.1865 34.637 18.497C34.637 19.8075 33.5867 20.8679 32.2887 20.8679Z" fill="#3F6587"/>
<path d="M25.3215 24.9798L25.3455 25.103L21.4583 24.3274C21.1109 24.262 20.8678 24.3916 20.7027 24.6417L18.4919 27.9666L16.2848 24.6325C16.1186 24.3893 15.8319 24.262 15.5335 24.3199L11.6463 25.0955L12.4146 21.1709C12.4719 20.8815 12.3515 20.5805 12.105 20.4124L8.80255 18.1864L12.105 15.958C12.3515 15.7902 12.4719 15.4894 12.4146 15.1995L11.6486 11.2772L15.5358 12.0529C15.7904 12.1108 16.116 11.9811 16.2857 11.7403L18.4919 8.40382L20.6995 11.738C20.8658 11.9811 21.1524 12.1085 21.4508 12.0506L26.4177 11.055C26.8191 10.9739 27.0769 10.5863 26.9966 10.1867C26.922 9.78149 26.532 9.51522 26.1366 9.60227L21.6476 10.4993L19.0974 6.66149C18.9598 6.45889 18.7304 6.33154 18.4919 6.33154C18.2534 6.33154 18.0241 6.45889 17.8865 6.66149L15.3363 10.4993L10.8496 9.60181C10.6083 9.54995 10.362 9.63099 10.19 9.80464C10.018 9.9783 9.94326 10.233 9.98912 10.4705L10.8776 15.0027L7.0768 17.5751C6.87613 17.714 6.75 17.9363 6.75 18.1864C6.75 18.4353 6.87613 18.661 7.0768 18.8L10.8778 21.3701L9.98912 25.9013C9.94326 26.1386 10.0178 26.3931 10.1898 26.5672C10.3618 26.7413 10.6083 26.8161 10.8494 26.7698L15.3363 25.8735L17.8819 29.7115C18.0241 29.9116 18.2534 30.0412 18.4919 30.0412C18.7327 30.0412 18.9621 29.9139 19.0997 29.7113L21.6476 25.8735L26.1311 26.771C26.3776 26.823 26.6241 26.742 26.7906 26.5684C26.9684 26.3947 27.0372 26.14 26.9913 25.9024L26.7602 24.7008C26.7555 24.6766 26.6455 24.115 26.0369 24.1103C25.5784 24.1045 25.2298 24.5259 25.3215 24.9798ZM18.0929 14.6762C18.9735 14.5776 19.7968 14.8097 20.4573 15.2648C20.7342 15.4558 21.1261 15.4335 21.4072 15.1338C21.7071 14.8139 21.6264 14.2803 21.2654 14.0335C20.189 13.3009 18.8176 12.9721 17.3682 13.3009C15.4051 13.7454 13.9419 15.306 13.6025 17.3112C13.0659 20.4601 15.4234 23.1969 18.4919 23.1969C19.2208 23.1969 19.9156 23.036 20.5422 22.7476C20.8217 22.619 21.1518 22.1637 20.8398 21.6849C20.6388 21.3762 20.2563 21.2518 19.9229 21.404C19.4872 21.6085 19.0011 21.715 18.4919 21.715C16.4298 21.715 14.7854 19.9146 15.0161 17.7854C15.1895 16.172 16.4921 14.8568 18.0929 14.6762Z" fill="#F37A20"/>
<path d="M23.3438 30.403H36.4062C38.0428 30.403 39.375 29.0407 39.375 27.3673C39.375 25.6938 38.0428 24.3315 36.4062 24.3315H35.2188C34.8922 24.3315 34.625 24.6032 34.625 24.9387C34.625 25.2741 34.8922 25.5458 35.2188 25.5458H36.4062C37.3896 25.5458 38.1875 26.3628 38.1875 27.3673C38.1875 28.3717 37.3896 29.1887 36.4062 29.1887H23.3438C23.0156 29.1887 22.75 29.4619 22.75 29.7958C22.75 30.1298 23.0156 30.403 23.3438 30.403ZM29.2812 35.2601H23.3438C23.0156 35.2601 22.75 35.5333 22.75 35.8673C22.75 36.2012 23.0156 36.4744 23.3438 36.4744H29.2812C30.2646 36.4744 31.0625 37.2902 31.0625 38.2958C31.0625 39.3014 30.2646 40.1173 29.2812 40.1173H28.0938C27.7672 40.1173 27.5 40.3905 27.5 40.7244C27.5 41.0583 27.7672 41.3315 28.0938 41.3315H29.2812C30.9189 41.3315 32.25 39.97 32.25 38.2958C32.25 36.6216 30.9178 35.2601 29.2812 35.2601ZM38.4844 32.2244H23.3438C23.0156 32.2244 22.75 32.4976 22.75 32.8315C22.75 33.1655 23.0156 33.4387 23.3438 33.4387H38.4844C39.6303 33.4387 40.5625 34.3919 40.5625 35.5637C40.5625 36.7355 39.6311 37.6887 38.4844 37.6887H37.5938C37.2656 37.6887 37 37.9602 37 38.2958C37 38.6314 37.2656 38.903 37.5938 38.903H38.4844C40.2853 38.903 41.75 37.4052 41.75 35.5637C41.75 33.7221 40.2842 32.2244 38.4844 32.2244Z" fill="#3F6587"/>
</svg>
