<svg width="22" height="25" viewBox="0 0 22 25" fill="none" xmlns="http://www.w3.org/2000/svg">
<path d="M10.5846 5.0498V6.4248C10.5846 7.94357 9.35339 9.1748 7.83462 9.1748C6.31585 9.1748 5.08462 7.94357 5.08462 6.4248V5.0498H4.16797V6.4248C4.17025 8.44889 5.81053 10.0892 7.83462 10.0915C9.85871 10.0892 11.499 8.44889 11.5013 6.4248V5.0498H10.5846Z" fill="white"/>
<path d="M3.70962 18.3418H2.79297V21.5501H3.70962V18.3418Z" fill="white"/>
<path d="M12.8763 4.5918H2.79297V5.50845H12.8763V4.5918Z" fill="white"/>
<path d="M7.83398 0.00830078C5.55582 0.00830078 3.70898 1.85514 3.70898 4.1333V5.04995H4.62564V4.1333C4.62564 2.3614 6.06204 0.924953 7.83398 0.924953C9.60593 0.924953 11.0423 2.3614 11.0423 4.1333V5.04995H11.959V4.1333C11.959 1.85514 10.1121 0.00830078 7.83398 0.00830078Z" fill="white"/>
<path d="M6.44803 0.825734L5.55273 1.02466L6.46932 5.14993L7.36462 4.95101L6.44803 0.825734Z" fill="white"/>
<path d="M9.21848 0.826144L8.30273 4.95142L9.19804 5.15016L10.1138 1.02488L9.21848 0.826144Z" fill="white"/>
<path d="M9.80214 10.6841L8.56142 11.9248H7.10757L5.86685 10.6841L5.21875 11.3322L6.59375 12.7072C6.67969 12.7931 6.79626 12.8414 6.91778 12.8414H8.75113C8.87268 12.8414 8.98921 12.7931 9.07515 12.7072L10.4502 11.3322L9.80214 10.6841Z" fill="white"/>
<path d="M8.29165 12.3833H7.375V14.675H8.29165V12.3833Z" fill="white"/>
<path d="M8.29165 15.5918H7.375V16.5084H8.29165V15.5918Z" fill="white"/>
<path fill-rule="evenodd" clip-rule="evenodd" d="M9.66668 10.3559L12.8924 12.0288C13.4386 12.2802 13.9073 12.6477 14.275 13.0941C13.923 13.1517 13.5806 13.2376 13.25 13.3494C13.0218 13.1441 12.7601 12.9717 12.4708 12.8415L8.99753 11.0416C8.84563 10.9629 8.7502 10.8062 8.75003 10.6351V9.1748H9.66668V10.3559ZM9.02765 21.0915H1.41667V15.5915C1.41762 14.4047 2.11384 13.3287 3.19592 12.8415L6.66918 11.0416C6.82107 10.9629 6.9165 10.8061 6.91668 10.6351V9.1748H6.00002V10.3559L2.77427 12.0288C1.38402 12.6687 0.495164 14.0611 0.50002 15.5915V21.5498C0.499977 21.8029 0.705196 22.0081 0.958325 22.0081H9.33158C9.2085 21.7129 9.10656 21.4068 9.02765 21.0915Z" fill="white"/>
<path d="M21.1 14.9083H19V14.1083C19 14.0533 18.955 14.0083 18.9 14.0083H18.2C18.145 14.0083 18.1 14.0533 18.1 14.1083V14.9083H14.9V14.1083C14.9 14.0533 14.855 14.0083 14.8 14.0083H14.1C14.045 14.0083 14 14.0533 14 14.1083V14.9083H11.9C11.6787 14.9083 11.5 15.0871 11.5 15.3083V23.6083C11.5 23.8296 11.6787 24.0083 11.9 24.0083H21.1C21.3212 24.0083 21.5 23.8296 21.5 23.6083V15.3083C21.5 15.0871 21.3212 14.9083 21.1 14.9083ZM20.6 23.1083H12.4V18.3583H20.6V23.1083ZM12.4 17.5083V15.8083H14V16.4083C14 16.4633 14.045 16.5083 14.1 16.5083H14.8C14.855 16.5083 14.9 16.4633 14.9 16.4083V15.8083H18.1V16.4083C18.1 16.4633 18.145 16.5083 18.2 16.5083H18.9C18.955 16.5083 19 16.4633 19 16.4083V15.8083H20.6V17.5083H12.4Z" fill="white"/>
</svg>
