<svg width="33" height="44" viewBox="0 0 33 44" fill="none" xmlns="http://www.w3.org/2000/svg">
<path d="M30.9417 10.6854L22.0667 1.74102C21.0583 0.728332 19.7083 0.162109 18.2917 0.162109H5.83333C2.8875 0.162109 0.5 2.56826 0.5 5.53711L0.500542 37.7871C0.500542 40.756 2.88804 43.1621 5.83388 43.1621H27.1667C30.1125 43.1621 32.5 40.756 32.5 37.7871V14.4814C32.5 13.0537 31.9417 11.6932 30.9417 10.6854ZM19.1667 3.0243C19.5398 3.15582 19.8888 3.3473 20.1767 3.6373L29.0517 12.5816C29.3417 12.8689 29.5333 13.2217 29.6583 13.5996H20.5C19.7667 13.5996 19.1667 12.9949 19.1667 12.2559V3.0243ZM29.8333 37.7871C29.8333 39.2686 28.6367 40.4746 27.1667 40.4746H5.83333C4.36333 40.4746 3.16667 39.2686 3.16667 37.7871V5.53711C3.16667 4.05562 4.36333 2.84961 5.83333 2.84961H16.5V12.2559C16.5 14.4814 18.2917 16.2871 20.5 16.2871H29.8333V37.7871ZM8.5 29.7246C7.763 29.7246 7.16667 30.3256 7.16667 31.0684V36.4434C7.16667 37.1824 7.76333 37.7871 8.5 37.7871C9.23667 37.7871 9.83333 37.1861 9.83333 36.4434V31.0684C9.83333 30.3293 9.23333 29.7246 8.5 29.7246ZM16.5 18.9746C15.7667 18.9746 15.1667 19.5793 15.1667 20.3184V36.4434C15.1667 37.1861 15.763 37.7871 16.5 37.7871C17.237 37.7871 17.8333 37.1861 17.8333 36.4434V20.3184C17.8333 19.5793 17.2333 18.9746 16.5 18.9746ZM24.5 37.7871C25.237 37.7871 25.8333 37.1861 25.8333 36.4434V25.6934C25.8333 24.9543 25.2333 24.3496 24.5 24.3496C23.7667 24.3496 23.1667 24.9506 23.1667 25.6934V36.4434C23.1667 37.1824 23.7667 37.7871 24.5 37.7871Z" fill="#FFF"/>
</svg>
