<svg width="40" height="36" viewBox="0 0 40 36" fill="none" xmlns="http://www.w3.org/2000/svg">
<path d="M37.3333 22.0371H30.8333L27.8433 20.1757C27.5021 19.959 27.0484 19.8496 26.7031 19.8496H22.1667C20.9703 19.8496 20 20.8292 20 22.0371V32.9746C20 34.1825 20.9703 35.1621 22.1667 35.1621H37.3333C38.5297 35.1621 39.5 34.1825 39.5 32.9746V24.2246C39.5 23.0146 38.5318 22.0371 37.3333 22.0371ZM36.25 31.8809H23.25V23.1309H26.3984L29.1271 24.8303C29.6417 25.1475 30.2307 25.3184 30.8333 25.3184H36.25V31.8809ZM16.2083 11.0996C17.1089 11.0996 17.8333 10.3682 17.8333 9.45898C17.8333 8.5498 17.1089 7.81836 16.2083 7.81836H3.75V1.80273C3.75 0.896289 3.02214 0.162109 2.125 0.162109C1.22786 0.162109 0.5 0.896289 0.5 1.80273V26.959C0.5 29.0713 2.19745 30.7871 4.29167 30.7871H16.2083C17.1089 30.7871 17.8333 30.0557 17.8333 29.1465C17.8333 28.24 17.1055 27.5059 16.2083 27.5059H4.29167C3.99375 27.5059 3.75 27.2596 3.75 26.959V11.0996H16.2083ZM37.3333 2.34961H30.8333L27.8433 0.488184C27.5021 0.274766 27.0484 0.162109 26.7031 0.162109H22.1667C20.9703 0.162109 20 1.1417 20 2.34961V13.2871C20 14.495 20.9703 15.4746 22.1667 15.4746H37.3333C38.5297 15.4746 39.5 14.495 39.5 13.2871V4.53711C39.5 3.3292 38.5318 2.34961 37.3333 2.34961ZM36.25 12.1934H23.25V3.44336H26.3984L29.1271 5.14277C29.6417 5.46201 30.2307 5.63086 30.8333 5.63086H36.25V12.1934Z" fill="#BDBDBD"/>
</svg>
