<svg width="49" height="39" viewBox="0 0 49 39" fill="none" xmlns="http://www.w3.org/2000/svg">
<path d="M47.9177 35.1191L41.9824 29.247C43.0942 27.727 43.7093 25.8937 43.7093 23.9121C43.7093 18.6656 39.4101 14.4121 34.1072 14.4121C28.8043 14.4121 24.5052 18.6656 24.5052 23.9121C24.5052 29.1586 28.8043 33.4121 34.1072 33.4121C36.1079 33.4121 37.9623 32.8042 39.5009 31.7682L45.4362 37.6404C45.7872 37.9914 46.2448 38.1621 46.7099 38.1621C47.175 38.1621 47.6311 37.9881 47.983 37.6403C48.6829 36.9449 48.6829 35.8168 47.9177 35.1191ZM34.1072 29.8496C30.7983 29.8496 28.1059 27.1859 28.1059 23.9121C28.1059 20.6383 30.7983 17.9746 34.1072 17.9746C37.4162 17.9746 40.1085 20.6383 40.1085 23.9121C40.1085 27.1859 37.4154 29.8496 34.1072 29.8496ZM8.83429 3.72461H27.8959L30.5065 6.24359V12.0371H34.108L34.1072 6.24359C34.1072 5.29879 33.7279 4.39258 33.0525 3.72461L30.5065 1.20563C29.8313 0.537434 28.9161 0.162109 27.9634 0.162109H8.83429C6.91313 0.162109 5.30178 1.75633 5.30103 3.72312L5.30118 9.82984C5.30103 9.82984 5.30133 9.82984 5.30118 9.82984L5.30103 12.0371H8.90181L8.83429 3.72461ZM10.1021 34.5996V27.4746H22.7123C22.3505 26.3435 22.1022 25.162 22.1022 23.9121H8.90181C7.57627 23.9121 6.50129 24.9757 6.50129 26.2871H4.10077V19.7559C4.10077 18.7739 4.9087 17.9746 5.90116 17.9746H23.77C24.5899 16.5808 25.6747 15.371 26.9754 14.4121H5.90116C2.92302 14.4121 0.5 16.8094 0.5 19.7559V28.0684C0.5 29.0518 1.30642 29.8496 2.30039 29.8496H6.50129V35.7871C6.50129 37.0986 7.57627 38.1621 8.90181 38.1621H30.5065C31.832 38.1621 32.907 37.0986 32.907 35.7871V35.6674C31.5057 35.5278 30.1786 35.1745 28.9619 34.5994H10.1021V34.5996Z" fill="#BDBDBD"/>
</svg>
