<svg width="50" height="46" viewBox="0 0 50 46" fill="none" xmlns="http://www.w3.org/2000/svg">
<path d="M48.2155 12.1152L46.0972 9.92676C44.3746 8.14697 41.5885 8.14697 39.8659 9.92676L26.3186 23.875C23.758 26.5117 22.2863 30.1592 22.2778 33.8945C21.9481 33.8726 21.6398 33.6847 21.4803 33.3442C20.4696 31.2453 17.5458 30.674 15.8657 32.1031L14.6849 28.4443C14.4089 27.5752 13.6347 26.9951 12.75 26.9951C11.8653 26.9951 11.0911 27.5774 10.8147 28.4453L9.26215 33.2441C9.13455 33.6484 8.773 33.9121 8.35872 33.9121H7.30556C6.55099 33.9121 5.94444 34.5361 5.94444 35.3184C5.94444 36.1006 6.55099 36.7246 7.30556 36.7246H8.36042C9.94441 36.7246 11.3464 35.6805 11.8466 34.1318L12.75 31.3281L14.1792 35.7578C14.5705 36.9531 16.1528 37.0674 16.6887 35.9424L17.3479 34.5906C17.6882 33.8875 18.6827 33.8436 19.0655 34.6236C19.6747 35.8984 20.9082 36.6982 22.2778 36.7158L25 36.7246C30.686 36.7246 34.5363 32.6553 34.7064 32.5498L48.2155 18.5488C49.0406 17.6963 49.5 16.5449 49.5 15.332C49.5 14.1191 49.0406 12.9766 48.2155 12.1152ZM32.7839 30.5723C30.7252 32.708 27.9264 33.9033 25 33.9033C25 30.8816 26.1697 27.9865 28.1561 25.8666L38.4155 15.3285L42.9029 19.9647L32.7839 30.5723ZM46.2929 16.5625L44.4809 18.4258L39.9977 13.7852L41.7944 11.9175C42.4537 11.2473 43.5171 11.2364 44.1764 11.9175L46.2929 14.1042C46.9394 14.7871 46.9394 15.8857 46.2929 16.5625ZM31.4993 39.5371C30.9354 39.5371 30.3849 39.8707 30.2063 40.4248C29.7724 41.541 28.8281 42.3496 27.5606 42.3496H5.85087C4.35194 42.3496 3.138 41.0901 3.138 39.5371V5.78711C3.138 4.23408 4.3528 2.97461 5.85087 2.97461H16.7057V12.8184C16.7057 15.1483 18.5279 17.0371 20.7755 17.0371H26.2259C26.9619 17.0371 27.558 16.4186 27.558 15.6555V15.6045C27.5606 14.8398 27.0332 14.2246 26.3016 14.2246H20.8486C20.1 14.2246 19.496 13.5918 19.496 12.8184V3.15742C19.8755 3.29506 20.2308 3.49545 20.5236 3.79894L28.1671 11.7214C28.6875 12.261 29.5317 12.261 30.0514 11.7214L30.0786 11.6846C30.599 11.145 30.599 10.2704 30.0786 9.73076L22.4394 1.81006C21.4186 0.754668 20.0405 0.162109 18.6028 0.162109H5.93849C2.94149 0.162109 0.5 2.68018 0.5 5.78711L0.500553 39.5371C0.500553 42.644 2.94205 45.1621 5.93904 45.1621H27.6318C30.0307 45.1621 32.0656 43.5484 32.7827 41.3125C33.0646 40.4336 32.3925 39.5371 31.4993 39.5371Z" fill="#BDBDBD"/>
</svg>
