<svg width="40" height="38" viewBox="0 0 40 38" fill="none" xmlns="http://www.w3.org/2000/svg">
<g clip-path="url(#clip0_6194_142167)">
<path d="M15.7072 30.6669C15.4435 30.3795 15.209 30.1208 14.9746 29.8478C14.8281 29.6897 14.6962 29.5172 14.5497 29.3448C14.5057 29.3017 14.4325 29.2729 14.3739 29.2442C14.3153 29.2298 14.2567 29.2442 14.1981 29.2442C9.8171 29.2442 5.42149 29.2442 1.04054 29.2442C0.542368 29.2442 0.0148953 28.8131 0.0148953 28.2526C0.000243245 26.5281 0.000243245 24.7893 0.0148953 23.0648C0.0148953 22.5619 0.498412 22.102 1.01123 22.102C4.49841 22.102 8.00025 22.102 11.4874 22.102C13.949 22.102 16.4105 22.0876 18.8574 22.1164C19.3409 22.1164 19.7365 21.987 20.1175 21.7284C20.6889 21.3403 21.275 20.9811 21.8318 20.5787C22.2713 20.2626 22.6962 19.932 23.1065 19.5871C23.8684 18.9405 24.601 18.2507 25.3482 17.604C25.6999 17.2878 25.9636 16.9286 26.1688 16.4975C26.3885 16.0232 26.6376 15.549 26.9014 15.0891C27.2237 14.543 27.7365 14.2556 28.3519 14.1407C28.4545 14.1263 28.557 14.1263 28.6449 14.0976C28.7036 14.0832 28.7622 14.0257 28.7915 13.9682C29.4801 12.6318 30.1541 11.2953 30.8281 9.97319C31.297 9.0391 31.7658 8.11938 32.2493 7.18529C32.6889 6.30868 33.1431 5.44645 33.5973 4.58421C33.905 3.98064 34.1981 3.37708 34.5058 2.78788C34.7695 2.28491 35.0186 1.78194 35.297 1.27897C35.6779 0.60355 36.264 0.186802 37.0406 0.0430956C37.7878 -0.100611 38.4471 0.0718368 39.0332 0.502955C39.5607 0.890962 39.8684 1.42267 39.971 2.05498C40.0882 2.75914 39.8684 3.36271 39.5167 3.96627C39.3556 4.23932 39.2237 4.5411 39.0918 4.81414C38.7548 5.46082 38.4178 6.12187 38.0955 6.76854C37.4508 8.01879 36.8208 9.2834 36.1761 10.5336C35.5167 11.8126 34.8721 13.0916 34.2127 14.385C33.905 15.0029 33.5827 15.6065 33.275 16.2244C33.2457 16.2819 33.2603 16.3681 33.2896 16.4256C33.568 16.8136 33.6852 17.2447 33.6413 17.7046C33.612 17.9776 33.5387 18.265 33.4215 18.5093C33.1431 19.0985 32.8208 19.659 32.5424 20.2338C32.4398 20.435 32.4252 20.6793 32.3959 20.9092C32.3226 21.4409 32.2493 21.987 32.1907 22.5331C32.1468 22.9211 32.1321 23.3235 32.1175 23.7115C32.0882 24.4157 32.0442 25.1198 32.0589 25.824C32.0735 26.5713 32.1321 27.3185 32.1907 28.0514C32.264 29.0717 32.4545 30.0777 32.7182 31.0693C32.9233 31.8453 33.1724 32.6213 33.5241 33.3398C33.6706 33.6416 33.8318 33.9434 33.9783 34.2452C34.286 34.8487 34.1834 35.4954 33.6852 35.9553C33.4655 36.1565 33.2017 36.257 32.9087 36.3002C32.5277 36.3576 32.1321 36.4295 31.7512 36.4726C31.3849 36.5157 31.0039 36.5301 30.623 36.5445C30.2713 36.5588 29.9343 36.5588 29.5827 36.5445C28.8794 36.5157 28.1761 36.4726 27.4874 36.4008C26.242 36.2858 25.0259 36.0127 23.8244 35.6247C23.3116 35.4667 22.8281 35.2655 22.3299 35.0787C22.286 35.0643 22.2274 35.0499 22.1688 35.0355C22.1688 35.6391 22.1688 36.2139 22.1688 36.8031C22.1688 37.2486 21.7731 37.7228 21.3189 37.7803C21.1871 37.7947 21.0698 37.8091 20.938 37.8091C14.3446 37.8091 7.76581 37.8091 1.1724 37.8091C0.542368 37.8091 0.0148953 37.3348 0.0295473 36.6882C0.0441993 35.0212 0.0295473 33.3542 0.0295473 31.6872C0.0295473 31.1124 0.513064 30.6381 1.09914 30.6381C5.89036 30.6381 10.6962 30.6381 15.4874 30.6381C15.546 30.6669 15.6046 30.6669 15.7072 30.6669ZM32.6596 34.9062C32.4691 34.5182 32.2933 34.1589 32.1175 33.7853C31.7805 33.0811 31.5167 32.3339 31.3116 31.5722C31.0186 30.4801 30.7988 29.3879 30.7109 28.267C30.6669 27.7353 30.5937 27.2036 30.579 26.6718C30.5644 25.7809 30.579 24.8755 30.6083 23.9845C30.623 23.381 30.6816 22.763 30.7402 22.1595C30.7988 21.6421 30.872 21.1248 30.9453 20.6074C30.9453 20.55 30.9014 20.4637 30.8574 20.4494C30.5204 20.2769 30.1834 20.1188 29.8318 19.9464C28.7622 19.4147 27.6926 18.8973 26.623 18.38C26.0955 18.8686 25.568 19.3572 25.0552 19.8314C24.8354 20.0326 24.6156 20.2338 24.3812 20.4206C23.7658 20.9092 23.1358 21.3835 22.4911 21.8577C21.6266 22.5044 20.7035 23.0648 19.7512 23.5822C18.916 24.042 18.0515 24.4444 17.1578 24.7749C16.2786 25.1054 15.3702 25.3641 14.4471 25.5366C14.242 25.5797 14.0369 25.6084 13.8024 25.6515C14.535 27.0167 15.3995 28.2382 16.4545 29.3448C16.5277 29.2873 16.5863 29.2442 16.6449 29.2011C16.8061 29.0717 16.9526 28.928 17.1138 28.7843C17.5827 28.382 18.0662 27.9939 18.535 27.5916C18.9307 27.2467 19.3263 26.9018 19.7365 26.5569C20.264 26.1114 20.7768 25.6515 21.3189 25.2204C21.568 25.0192 21.8171 24.8037 22.0955 24.6312C22.3299 24.4875 22.579 24.5594 22.7841 24.7174C23.0186 24.9043 23.1358 25.1342 23.0479 25.4503C22.9746 25.7378 22.7548 25.8815 22.5497 26.0539C22.1394 26.4132 21.7145 26.7724 21.2896 27.1317C20.9966 27.3904 20.6889 27.6347 20.3959 27.8934C19.9856 28.2382 19.59 28.5831 19.1797 28.928C18.916 29.1436 18.6669 29.3735 18.4032 29.5891C18.0955 29.8478 17.7878 30.1208 17.4801 30.3795C18.8427 31.6441 20.3666 32.6644 22.0515 33.4404C22.3006 32.8512 22.535 32.2764 22.7695 31.7016C23.1651 30.7531 23.5607 29.819 23.9416 28.8706C24.1175 28.4394 24.3372 28.2526 24.7475 28.267C25.1871 28.2814 25.5241 28.7268 25.3775 29.1436C25.2164 29.5891 25.0259 30.0202 24.8501 30.4657C24.5277 31.2561 24.1907 32.0465 23.8537 32.8368C23.6926 33.2105 23.546 33.5985 23.3702 33.9865C24.894 34.5469 26.4764 34.9206 28.0735 35.0355C28.0735 34.6619 28.0882 34.3026 28.0735 33.929C28.0442 33.426 28.0149 32.9231 27.9709 32.4201C27.9416 32.1039 28.2493 31.759 28.5863 31.7159C28.9526 31.6585 29.3043 31.8453 29.3775 32.2045C29.4508 32.5638 29.4655 32.9231 29.4801 33.2823C29.5094 33.7422 29.5241 34.2164 29.5534 34.6906C29.568 34.8344 29.5827 34.9781 29.612 35.1361C30.6669 35.1649 31.6633 35.0787 32.6596 34.9062ZM1.45079 36.4151C7.86838 36.4151 14.286 36.4151 20.7035 36.4151C20.7035 35.7828 20.7035 35.1649 20.7035 34.5469C20.7035 34.4032 20.6449 34.3458 20.5277 34.2739C20.0735 34.0152 19.6046 33.7709 19.1797 33.4835C18.6376 33.1243 18.1248 32.7219 17.5827 32.3482C17.4068 32.2333 17.275 32.0608 17.0112 32.0608C11.8977 32.0752 6.78413 32.0752 1.67057 32.0752C1.59731 32.0752 1.52405 32.0752 1.43614 32.0752C1.45079 33.5266 1.45079 34.9637 1.45079 36.4151ZM1.45079 23.5247C1.45079 24.9761 1.45079 26.3988 1.45079 27.8215C5.43614 27.8215 9.42149 27.8215 13.4215 27.8215C13.3922 27.7496 13.3629 27.6922 13.3336 27.649C13.0552 27.1748 12.7622 26.7006 12.4984 26.1976C12.2347 25.6803 12.3519 25.1198 12.7475 24.6887C13.0112 24.4013 13.3629 24.2863 13.7585 24.2288C14.3153 24.1426 14.8574 23.9989 15.3995 23.8552C15.7365 23.769 16.0589 23.654 16.3812 23.5391C16.3812 23.5247 16.3812 23.5247 16.3665 23.5103C11.4142 23.5247 6.44713 23.5247 1.45079 23.5247ZM30.1101 14.543C30.1394 14.5574 30.1688 14.5862 30.1981 14.5862C30.7695 14.8736 31.3409 15.1466 31.9123 15.434C32.0149 15.4915 32.0442 15.434 32.0882 15.3622C32.264 15.0316 32.4398 14.7155 32.601 14.385C32.8647 13.8533 33.1285 13.3215 33.4068 12.7898C33.7878 12.0426 34.1834 11.2953 34.5644 10.5336C34.8281 10.0163 35.0918 9.48459 35.3556 8.95288C35.6193 8.43554 35.8977 7.91819 36.1614 7.38648C36.4691 6.79729 36.7622 6.19372 37.0699 5.59015C37.5387 4.67043 38.0076 3.76509 38.4618 2.84537C38.7402 2.29928 38.4178 1.71009 37.9636 1.49453C37.4801 1.27897 36.894 1.39393 36.601 1.88253C36.3079 2.38551 36.0589 2.91722 35.7951 3.43456C35.3995 4.21057 35.0039 5.00096 34.5937 5.77697C34.0662 6.81166 33.5241 7.86071 32.9966 8.8954C32.5424 9.78637 32.0882 10.663 31.634 11.554C31.4435 11.942 31.253 12.3156 31.0479 12.7036C30.7402 13.3359 30.4178 13.9395 30.1101 14.543ZM31.4435 19.1704C31.6633 18.7249 31.883 18.3081 32.1028 17.877C32.264 17.5609 32.1614 17.1872 31.8391 17.0004C31.7072 16.9286 31.5607 16.8567 31.4288 16.7849C31.1211 16.6268 30.8281 16.4831 30.5204 16.325C30.0808 16.1094 29.6266 15.8939 29.1871 15.664C28.7475 15.4484 28.4105 15.4484 28.1175 15.8651C28.0003 16.0376 27.9123 16.2388 27.8244 16.4256C27.6926 16.6699 27.5753 16.9286 27.4435 17.1872C28.7768 17.8483 30.0955 18.5093 31.4435 19.1704Z" fill="#3F6587"/>
<path d="M11.0628 20.7081C7.7514 20.7081 4.44005 20.7081 1.14334 20.7081C0.484001 20.7081 0.0151367 20.2338 0.0151367 19.6015C0.0297887 17.9345 0.0151367 16.2819 0.0151367 14.6149C0.0151367 14.0113 0.498653 13.5371 1.12869 13.5371C7.76605 13.5371 14.4181 13.5371 21.0554 13.5371C21.6122 13.5371 22.169 13.9682 22.169 14.6149C22.1543 16.2963 22.1543 17.9633 22.169 19.6446C22.169 20.2195 21.6708 20.6937 21.0701 20.6937C18.7404 20.6937 16.4254 20.6937 14.0957 20.6937C13.0701 20.7081 12.0591 20.7081 11.0628 20.7081ZM11.0774 19.2854C14.2129 19.2854 17.3485 19.2854 20.484 19.2854C20.7038 19.2854 20.7038 19.2854 20.7038 19.0554C20.7038 17.7621 20.7038 16.4543 20.7038 15.161C20.7038 14.9885 20.6745 14.9311 20.484 14.9311C16.8503 14.9311 13.2166 14.9311 9.5829 14.9311C6.94554 14.9311 4.29353 14.9311 1.65616 14.9311C1.48034 14.9311 1.43638 14.9742 1.43638 15.1466C1.43638 16.4543 1.43638 17.7477 1.43638 19.0554C1.43638 19.271 1.43638 19.271 1.67081 19.271C4.80635 19.2854 7.94188 19.2854 11.0774 19.2854Z" fill="#3F6587"/>
<path d="M15.7074 33.5266C16.5572 33.5266 17.3923 33.5266 18.2422 33.5266C18.6231 33.5266 18.9015 33.6847 19.0187 34.0583C19.1359 34.432 18.8722 34.8918 18.4619 34.935C18.3008 34.9493 18.1396 34.9637 17.9784 34.9637C16.396 34.9637 14.8136 34.9637 13.2458 34.9637C12.9967 34.9637 12.7623 34.9206 12.5865 34.7338C12.4107 34.5469 12.352 34.317 12.4106 34.0727C12.4693 33.7997 12.6597 33.6272 12.9528 33.5554C13.07 33.5266 13.1872 33.5266 13.2898 33.5266C14.081 33.5266 14.9015 33.5266 15.7074 33.5266Z" fill="#F37A20"/>
<path d="M7.63401 34.2595C7.66332 34.7912 7.19445 35.3085 6.57907 35.3085C5.97834 35.3229 5.45087 34.8343 5.48017 34.202C5.49482 33.699 5.99299 33.1673 6.56442 33.1817C7.13585 33.1961 7.66332 33.6559 7.63401 34.2595Z" fill="#F37A20"/>
<path d="M10.6522 34.2307C10.6669 34.9061 10.1687 35.3085 9.58261 35.3085C8.98188 35.3085 8.49837 34.8199 8.51302 34.2307C8.51302 33.6702 9.01119 33.1816 9.59727 33.1816C10.1687 33.196 10.6815 33.6415 10.6522 34.2307Z" fill="#F37A20"/>
<path d="M4.60112 34.2738C4.58646 34.863 4.10295 35.3372 3.50221 35.3085C2.84287 35.2798 2.44727 34.863 2.43262 34.1732C2.43262 33.699 2.96009 33.1816 3.44361 33.1816C4.1176 33.1816 4.60112 33.6415 4.60112 34.2738Z" fill="#F37A20"/>
<path d="M3.51666 26.7294C2.93058 26.7581 2.46171 26.2552 2.44706 25.6947C2.43241 25.0768 2.98918 24.6025 3.56061 24.6169C4.13204 24.6313 4.61556 25.1055 4.61556 25.6803C4.60091 26.2695 4.14669 26.7581 3.51666 26.7294Z" fill="#F37A20"/>
<path d="M5.49496 25.6947C5.45101 25.1773 5.93452 24.6169 6.57921 24.6313C7.16529 24.6313 7.64881 25.163 7.64881 25.7234C7.63416 26.2695 7.12133 26.7725 6.53525 26.7581C5.94917 26.715 5.48031 26.2551 5.49496 25.6947Z" fill="#F37A20"/>
<path d="M10.6522 25.6947C10.6961 26.1976 10.1686 26.7581 9.55326 26.7437C9.0551 26.7293 8.48367 26.3126 8.49832 25.6659C8.51297 25.1342 8.95253 24.6312 9.61187 24.6312C10.1247 24.6312 10.6961 25.0911 10.6522 25.6947Z" fill="#F37A20"/>
<path d="M15.7363 17.8339C14.8865 17.8339 14.0367 17.8339 13.1868 17.8339C12.9378 17.8339 12.718 17.7764 12.5422 17.5896C12.3517 17.3741 12.3077 17.1154 12.4103 16.8567C12.5129 16.6124 12.6887 16.4256 12.9817 16.4256C13.4359 16.4112 13.8901 16.4256 14.359 16.4112C14.74 16.4112 15.1209 16.3969 15.5165 16.3969C16.4396 16.3969 17.3627 16.3969 18.2858 16.3969C18.7107 16.3969 19.033 16.6843 19.0477 17.0723C19.0477 17.5034 18.74 17.8195 18.3004 17.8195C17.4506 17.8483 16.6008 17.8339 15.7363 17.8339Z" fill="#F37A20"/>
<path d="M4.60112 17.1154C4.60112 17.7046 4.10295 18.2075 3.50221 18.1788C2.85753 18.1501 2.43262 17.7477 2.43262 17.1154C2.43262 16.5118 2.84287 16.0807 3.50221 16.052C4.13225 16.0376 4.60112 16.5118 4.60112 17.1154Z" fill="#F37A20"/>
<path d="M5.49485 17.1154C5.46555 16.5119 6.00767 16.052 6.5791 16.052C7.12122 16.052 7.66335 16.4831 7.63404 17.1585C7.61939 17.7046 7.13588 18.1932 6.56445 18.1789C5.97837 18.1645 5.46555 17.7477 5.49485 17.1154Z" fill="#F37A20"/>
<path d="M10.6522 17.1298C10.6815 17.719 10.1833 18.1789 9.59725 18.1932C9.02582 18.2076 8.49834 17.719 8.51299 17.1011C8.52765 16.5262 8.98186 16.0664 9.58259 16.0664C10.1687 16.052 10.6815 16.4975 10.6522 17.1298Z" fill="#F37A20"/>
</g>
<defs>
<clipPath id="clip0_6194_142167">
<rect width="40" height="37.8378" fill="white"/>
</clipPath>
</defs>
</svg>
