<svg width="40" height="34" viewBox="0 0 40 34" fill="none" xmlns="http://www.w3.org/2000/svg">
<g clip-path="url(#clip0_6194_142166)">
<path d="M22.5982 12.771C20.3876 12.771 18.1875 12.7605 15.9769 12.7815C15.7045 12.7815 15.4321 12.8967 15.1597 12.9596C15.0026 12.991 14.835 13.0539 14.6778 13.0434C13.6616 12.9701 12.6453 12.8758 11.6291 12.8025C11.3567 12.7815 11.2939 12.6558 11.2624 12.4043C11.0215 9.96327 9.73283 8.26605 7.43843 7.44887C4.64115 6.4431 1.55053 7.92032 0.419047 10.6338C-0.817202 13.6196 0.649533 16.9827 3.62491 18.1037C6.48505 19.1723 9.59663 17.8627 10.8014 15.0445C10.9167 14.7721 11.0005 14.4787 11.0843 14.1959C11.1786 13.9025 11.3253 13.7558 11.671 13.7977C12.5825 13.892 13.494 13.9758 14.4054 14.0282C14.7931 14.0597 14.9188 14.2273 14.9188 14.6044C14.9083 15.4112 14.9083 16.2283 14.9188 17.035C14.9293 17.5484 15.1597 17.7998 15.6836 17.8417C15.8512 17.8522 16.0084 17.8522 16.176 17.8522C20.4714 17.8522 24.7564 17.8522 29.0518 17.8522C30.0995 17.8522 30.2986 17.6532 30.2986 16.6264C30.2986 15.6835 30.309 14.7302 30.2986 13.7873C30.2881 13.0434 30.0262 12.792 29.2928 12.792C27.0717 12.771 24.8402 12.771 22.5982 12.771ZM5.66787 17.4436C3.12203 17.5274 0.974311 15.3064 0.984788 12.8234C0.984788 10.2357 3.08013 8.11938 5.64692 8.1089C8.19275 8.1089 10.2986 10.2147 10.2986 12.771C10.309 15.3588 8.24513 17.4332 5.66787 17.4436ZM22.5668 13.7558C24.6412 13.7558 26.7051 13.7663 28.769 13.7454C29.1985 13.7454 29.3557 13.892 29.3452 14.3216C29.3242 14.9816 29.3347 15.6416 29.3452 16.3017C29.3557 16.6998 29.1776 16.8674 28.7794 16.8674C24.6516 16.8569 20.5343 16.8569 16.4065 16.8674C16.0293 16.8674 15.9036 16.7103 15.9036 16.3541C15.9141 15.6626 15.9245 14.9711 15.9036 14.2901C15.8931 13.892 16.0188 13.7454 16.4379 13.7454C18.4809 13.7663 20.5238 13.7558 22.5668 13.7558Z" fill="#3F6587"/>
<path d="M22.5772 18.8579C20.3457 18.8579 18.1037 18.8579 15.8722 18.8579C15.1074 18.8579 14.9397 19.0255 14.9397 19.7799C14.9397 20.8171 14.9397 21.8542 14.9397 22.8914C14.9397 23.6877 15.0969 23.8448 15.8931 23.8448C20.1152 23.8448 24.3268 23.8553 28.5489 23.8343C29.0937 23.8343 29.4918 24.002 29.8585 24.3791C30.5709 25.123 31.3148 25.8563 32.0482 26.5688C32.2996 26.8097 32.352 26.9983 32.1529 27.3335C30.77 29.6489 31.6186 32.4147 34.0911 33.5043C36.1236 34.4158 38.4599 33.5672 39.4761 31.5871C40.5867 29.4184 39.9057 27.1135 37.7999 25.8878C36.4379 25.102 35.0131 25.123 33.6511 25.9087C33.2216 26.1602 32.9701 26.1706 32.6244 25.7935C32.0063 25.102 31.3043 24.4839 30.6757 23.7924C30.4871 23.5829 30.3509 23.2476 30.3405 22.9648C30.2986 21.959 30.33 20.9532 30.3195 19.9475C30.3195 19.0465 30.1309 18.8579 29.2509 18.8579C27.0298 18.8579 24.8088 18.8579 22.5772 18.8579ZM38.9942 29.5965C38.9942 31.388 37.5275 32.8652 35.736 32.8652C33.9654 32.8652 32.4672 31.3776 32.4568 29.607C32.4463 27.8469 33.9654 26.3173 35.7255 26.3173C37.496 26.3173 38.9942 27.826 38.9942 29.5965ZM22.6087 22.8705C20.5657 22.8705 18.5228 22.8705 16.4798 22.8705C15.9141 22.8705 15.9036 22.86 15.9036 22.2838C15.9036 21.6552 15.9245 21.0266 15.8931 20.398C15.8722 19.958 16.0398 19.8427 16.4588 19.8427C18.9942 19.8637 21.5296 19.8532 24.0649 19.8532C25.6155 19.8532 27.1555 19.8532 28.7061 19.8532C29.3033 19.8532 29.3242 19.8741 29.3242 20.4504C29.3242 21.0056 29.3242 21.5609 29.3242 22.1162C29.3242 22.8705 29.3242 22.881 28.5804 22.881C26.6108 22.8705 24.6097 22.8705 22.6087 22.8705Z" fill="#3F6587"/>
<path d="M22.6298 11.7652C24.8509 11.7652 27.0719 11.7652 29.293 11.7652C30.0578 11.7652 30.3092 11.5137 30.3197 10.7385C30.3302 9.7327 30.2988 8.72694 30.3407 7.72118C30.3511 7.40688 30.4873 7.04019 30.6864 6.79923C31.2836 6.05538 31.9541 5.35344 32.5722 4.63055C32.7922 4.37911 32.9703 4.33721 33.2532 4.53626C34.4266 5.32201 35.9876 5.02867 36.7524 3.89719C37.5277 2.7238 37.2029 1.17325 35.9981 0.377017C35.1809 -0.157294 34.0704 -0.125864 33.2532 0.460831C32.4151 1.06848 32.0169 2.08472 32.2369 3.02762C32.2789 3.2162 32.2369 3.48859 32.1112 3.62479C31.3045 4.58865 30.4873 5.5525 29.6178 6.46397C29.4397 6.65255 29.052 6.70494 28.7482 6.70494C25.1757 6.72589 21.6031 6.71541 18.0306 6.71541C17.3077 6.71541 16.5848 6.70494 15.8724 6.71541C15.1599 6.72589 14.9295 6.95638 14.9295 7.66879C14.9295 8.73742 14.9295 9.79556 14.9295 10.8642C14.9295 11.5452 15.139 11.7547 15.82 11.7547C18.0934 11.7652 20.3564 11.7652 22.6298 11.7652ZM22.6403 10.7804C20.5554 10.7804 18.4706 10.7804 16.3857 10.7804C16.1133 10.7804 15.9143 10.7594 15.9143 10.4137C15.9247 9.64889 15.9143 8.88409 15.9143 8.11929C15.9143 7.81547 16.0505 7.70022 16.3543 7.70022C20.5135 7.70022 24.6623 7.70022 28.8215 7.70022C29.1778 7.70022 29.3454 7.85737 29.3454 8.21358C29.3349 8.86314 29.3454 9.50221 29.3454 10.1518C29.3454 10.7699 29.3244 10.7908 28.7168 10.7908C26.6948 10.7908 24.6623 10.7804 22.6403 10.7804ZM34.678 0.995142C35.4742 0.995142 36.1552 1.66565 36.1657 2.48283C36.1867 3.32097 35.5266 3.981 34.6675 3.981C33.8504 3.981 33.1694 3.33144 33.1589 2.52474C33.1589 1.71803 33.8818 0.995142 34.678 0.995142Z" fill="#3F6587"/>
<path d="M19.277 15.7673C19.8742 15.7673 20.4714 15.7673 21.079 15.7673C21.3933 15.7673 21.6657 15.6835 21.6552 15.3063C21.6552 14.9396 21.3933 14.8139 21.079 14.8139C19.8637 14.8034 18.6484 14.8034 17.4436 14.8139C17.1398 14.8139 16.8674 14.9396 16.8674 15.3063C16.8569 15.6939 17.1398 15.7673 17.4436 15.7777C18.0512 15.7777 18.6589 15.7673 19.277 15.7673Z" fill="#F37A20"/>
<path d="M25.7202 16.0397C26.1079 16.0501 26.4536 15.7149 26.4536 15.3482C26.4536 14.9606 26.1184 14.6567 25.7202 14.6567C25.3221 14.6567 25.0393 14.9291 25.0288 15.3168C25.0078 15.7254 25.3117 16.0397 25.7202 16.0397Z" fill="#F37A20"/>
<path d="M22.9334 15.3272C22.923 15.7149 23.2582 16.0397 23.6458 16.0397C24.0544 16.0397 24.3164 15.7673 24.3268 15.3587C24.3373 14.9396 24.0859 14.6777 23.6773 14.6567C23.2582 14.6358 22.9439 14.9186 22.9334 15.3272Z" fill="#F37A20"/>
<path d="M27.1556 15.3272C27.1451 15.7463 27.4384 16.0397 27.847 16.0397C28.2451 16.0397 28.528 15.7673 28.528 15.3692C28.5385 14.9501 28.287 14.6777 27.8785 14.6672C27.4489 14.6358 27.166 14.8977 27.1556 15.3272Z" fill="#F37A20"/>
<path d="M19.2667 21.8437C19.8848 21.8437 20.4925 21.8437 21.1106 21.8437C21.4354 21.8437 21.6449 21.718 21.6449 21.3827C21.6554 21.037 21.4458 20.8694 21.1001 20.8694C19.8743 20.8694 18.6381 20.8694 17.4123 20.8694C17.0771 20.8694 16.857 21.0161 16.857 21.3723C16.857 21.739 17.0875 21.8542 17.4228 21.8542C18.0409 21.8332 18.659 21.8437 19.2667 21.8437Z" fill="#F37A20"/>
<path d="M25.0183 21.4247C25.0288 21.8438 25.3116 22.1057 25.7412 22.0952C26.1288 22.0848 26.4536 21.7495 26.4431 21.3828C26.4326 21.0371 26.0345 20.6599 25.6993 20.6809C25.3326 20.6914 25.0078 21.0476 25.0183 21.4247Z" fill="#F37A20"/>
<path d="M27.8576 20.6809C27.4909 20.6704 27.1556 21.0057 27.1556 21.3933C27.1556 21.7914 27.4176 22.0848 27.8052 22.0953C28.2243 22.1162 28.5176 21.8438 28.5281 21.4143C28.549 21.0371 28.2243 20.6809 27.8576 20.6809Z" fill="#F37A20"/>
<path d="M23.6249 20.6809C23.2687 20.6913 22.923 21.079 22.9439 21.4352C22.9649 21.8438 23.2792 22.1162 23.6878 22.1057C24.0859 22.0847 24.3373 21.8228 24.3268 21.4038C24.3164 20.9952 24.0021 20.6599 23.6249 20.6809Z" fill="#F37A20"/>
<path d="M19.2874 9.75363C19.8741 9.75363 20.4608 9.78506 21.037 9.74315C21.2361 9.73268 21.5085 9.57553 21.6028 9.4079C21.7914 9.0936 21.5399 8.78977 21.1104 8.78977C20.1256 8.7793 19.1303 8.7793 18.1455 8.7793C17.894 8.7793 17.6321 8.7793 17.3807 8.7793C17.0664 8.7793 16.8464 8.90502 16.8568 9.25075C16.8673 9.586 17.0978 9.73268 17.3912 9.74315C17.8521 9.76411 18.3236 9.75363 18.7846 9.75363C18.9522 9.75363 19.1198 9.75363 19.2874 9.75363Z" fill="#F37A20"/>
<path d="M27.1557 9.31369C27.1661 9.70133 27.5119 10.0366 27.8785 10.0156C28.2348 9.99468 28.5386 9.6699 28.5386 9.29274C28.5386 8.87367 28.2452 8.58032 27.8366 8.58032C27.4176 8.5908 27.1452 8.89462 27.1557 9.31369Z" fill="#F37A20"/>
<path d="M25.7307 10.0156C26.0765 10.0156 26.4536 9.62799 26.4536 9.28226C26.4536 8.91558 26.1079 8.58032 25.7307 8.58032C25.3117 8.58032 25.0288 8.86319 25.0288 9.28226C25.0183 9.6699 25.364 10.0156 25.7307 10.0156Z" fill="#F37A20"/>
<path d="M22.9335 9.30321C22.9439 9.6699 23.3106 10.0261 23.6563 10.0156C24.0335 10.0052 24.3269 9.65942 24.3164 9.25083C24.2954 8.83176 24.044 8.58032 23.6354 8.58032C23.2478 8.58032 22.9335 8.9051 22.9335 9.30321Z" fill="#F37A20"/>
</g>
<defs>
<clipPath id="clip0_6194_142166">
<rect width="40" height="33.8711" fill="white" transform="matrix(-1 0 0 1 40 0)"/>
</clipPath>
</defs>
</svg>
