<svg width="40" height="41" viewBox="0 0 40 41" fill="none" xmlns="http://www.w3.org/2000/svg">
<path d="M26.3986 19.0991H23.5815C23.2583 19.0991 22.9962 19.3637 22.9962 19.6899C22.9962 20.0165 23.2583 20.2811 23.5815 20.2811H26.3986C26.7221 20.2811 26.9839 20.0165 26.9839 19.6899C26.9839 19.3637 26.7221 19.0991 26.3986 19.0991Z" fill="#4E6483"/>
<path d="M31.2868 20.2811H35.2636C35.5871 20.2811 35.8492 20.0165 35.8492 19.6899C35.8492 19.3637 35.5871 19.0991 35.2636 19.0991H31.2868C30.9633 19.0991 30.7015 19.3637 30.7015 19.6899C30.7015 20.0165 30.9636 20.2811 31.2868 20.2811Z" fill="#4E6483"/>
<path d="M29.2983 19.0991H28.387C28.0635 19.0991 27.8014 19.3637 27.8014 19.6899C27.8014 20.0165 28.0635 20.2811 28.387 20.2811H29.2983C29.6218 20.2811 29.8836 20.0165 29.8836 19.6899C29.8836 19.3637 29.6218 19.0991 29.2983 19.0991Z" fill="#4E6483"/>
<path d="M23.5815 26.7211H26.3986C26.7221 26.7211 26.9839 26.4568 26.9839 26.1302C26.9839 25.804 26.7221 25.5393 26.3986 25.5393H23.5815C23.2583 25.5393 22.9962 25.804 22.9962 26.1302C22.9962 26.4568 23.2583 26.7211 23.5815 26.7211Z" fill="#4E6483"/>
<path d="M31.2868 26.7211H35.2636C35.5871 26.7211 35.8492 26.4568 35.8492 26.1302C35.8492 25.804 35.5871 25.5393 35.2636 25.5393H31.2868C30.9633 25.5393 30.7015 25.804 30.7015 26.1302C30.7015 26.4568 30.9636 26.7211 31.2868 26.7211Z" fill="#4E6483"/>
<path d="M28.387 26.7211H29.2983C29.6217 26.7211 29.8839 26.4568 29.8839 26.1302C29.8839 25.804 29.6217 25.5393 29.2983 25.5393H28.387C28.0635 25.5393 27.8017 25.804 27.8017 26.1302C27.8017 26.4568 28.0635 26.7211 28.387 26.7211Z" fill="#4E6483"/>
<path d="M26.3986 31.9796H23.5815C23.2583 31.9796 22.9962 32.2443 22.9962 32.5705C22.9962 32.8968 23.2583 33.1614 23.5815 33.1614H26.3986C26.7221 33.1614 26.9839 32.8968 26.9839 32.5705C26.9839 32.2443 26.7221 31.9796 26.3986 31.9796Z" fill="#4E6483"/>
<path d="M35.2636 31.9796H31.2868C30.9633 31.9796 30.7015 32.2443 30.7015 32.5705C30.7015 32.8968 30.9633 33.1614 31.2868 33.1614H35.2636C35.5871 33.1614 35.8492 32.8968 35.8492 32.5705C35.8492 32.2443 35.5871 31.9796 35.2636 31.9796Z" fill="#4E6483"/>
<path d="M29.2983 31.9796H28.387C28.0635 31.9796 27.8014 32.2443 27.8014 32.5705C27.8014 32.8968 28.0635 33.1614 28.387 33.1614H29.2983C29.6218 33.1614 29.8836 32.8968 29.8836 32.5705C29.8836 32.2443 29.6218 31.9796 29.2983 31.9796Z" fill="#4E6483"/>
<path d="M37.424 0H2.57662C1.15601 0 0 1.16668 0 2.60107V31.1956C0 32.6297 1.15601 33.7963 2.57662 33.7963H4.7797C5.10288 33.7963 5.36503 33.532 5.36503 33.2055C5.36503 32.8792 5.10288 32.6146 4.7797 32.6146H2.57662C1.80147 32.6146 1.17097 31.9781 1.17097 31.1956V28.9537H22.499V29.9722H22.0348C21.3997 29.9722 20.8833 30.4935 20.8833 31.1346V32.6146H8.33899C8.01581 32.6146 7.75366 32.8792 7.75366 33.2055C7.75366 33.532 8.01581 33.7963 8.33899 33.7963H13.9677V35.9159H12.2001C11.0209 35.9159 10.0617 36.8845 10.0617 38.0746V39.3512C10.0617 39.8944 10.4993 40.3361 11.0374 40.3361H28.9184C29.4564 40.3361 29.894 39.8944 29.894 39.3512V38.0746C29.894 36.8845 28.9349 35.9159 27.7556 35.9159H25.9881V35.1688H36.8106C37.4454 35.1688 37.9617 34.6475 37.9617 34.0064V33.7283C39.1028 33.4608 39.9557 32.4273 39.9557 31.1956L40 2.60076C40.0003 1.16668 38.8446 0 37.424 0ZM22.0543 27.5468V24.714H36.791V27.5468H22.0543ZM23.6696 23.5319V22.2885H35.1754V23.5319H23.6696ZM35.1754 28.7285V29.9722H23.6696V28.7285H35.1754ZM15.1384 33.7963H20.8833V34.0068C20.8833 34.6475 21.3997 35.1688 22.0348 35.1688H24.8174V35.9159H15.1384V33.7963ZM27.7559 37.098C28.2894 37.098 28.7234 37.5361 28.7234 38.0746V39.1544H11.2324V38.0746C11.2324 37.5361 11.6667 37.098 12.2001 37.098H27.7559ZM36.791 33.9867H22.0543V31.1543H36.791V33.9867ZM38.7851 31.1956C38.7851 31.768 38.4469 32.2612 37.962 32.4852V31.1343C37.962 30.4935 37.4454 29.9722 36.8106 29.9722H36.3464V28.9537H38.7851V31.1956ZM38.7851 27.772H37.9428C37.9547 27.7051 37.962 24.6943 37.962 24.6943C37.962 24.0532 37.4454 23.5319 36.8106 23.5319H36.3464V22.2885H36.8106C37.4454 22.2885 37.962 21.767 37.962 21.1262V18.254C37.962 17.6132 37.4454 17.0916 36.8106 17.0916H33.504C33.1805 17.0916 32.9186 17.3563 32.9186 17.6828C32.9186 18.0091 33.1805 18.2737 33.504 18.2737H36.791V21.1065H22.0543V18.2737H29.8614C30.1849 18.2737 30.4467 18.0091 30.4467 17.6828C30.4467 17.3563 30.1849 17.0916 29.8614 17.0916H22.0348C21.3997 17.0916 20.8833 17.6132 20.8833 18.254V21.1262C20.8833 21.767 21.3997 22.2885 22.0348 22.2885H22.499V23.5319H22.0348C21.3997 23.5319 20.8833 24.0535 20.8833 24.6943C20.8833 24.6943 20.8907 27.7051 20.9026 27.772H1.17097V8.03889H38.7851V27.772ZM38.7851 6.8568H1.214V2.60076C1.214 1.81856 1.8445 1.18208 2.61965 1.18208H37.3794C38.1546 1.18208 38.7851 1.81856 38.7851 2.60107V6.8568Z" fill="#4E6483"/>
<path d="M4.31727 2.26835C3.37 2.26835 2.59943 3.04624 2.59943 4.0025C2.59943 4.95876 3.37 5.73696 4.31727 5.73696C5.26455 5.73696 6.03543 4.95876 6.03543 4.0025C6.03543 3.04624 5.26455 2.26835 4.31727 2.26835ZM4.31727 4.55488C4.01576 4.55488 3.77009 4.30719 3.77009 4.0025C3.77009 3.69812 4.01576 3.45012 4.31727 3.45012C4.61909 3.45012 4.86446 3.69812 4.86446 4.0025C4.86446 4.30719 4.61909 4.55488 4.31727 4.55488Z" fill="#4E6483"/>
<path d="M8.69144 2.26835C7.74417 2.26835 6.97329 3.04624 6.97329 4.0025C6.97329 4.95876 7.74417 5.73696 8.69144 5.73696C9.63872 5.73696 10.4093 4.95876 10.4093 4.0025C10.4093 3.04624 9.63841 2.26835 8.69144 2.26835ZM8.69144 4.55488C8.38962 4.55488 8.14426 4.30719 8.14426 4.0025C8.14426 3.69812 8.38962 3.45012 8.69144 3.45012C8.99296 3.45012 9.23863 3.69812 9.23863 4.0025C9.23863 4.30719 8.99296 4.55488 8.69144 4.55488Z" fill="#4E6483"/>
<path d="M13.0653 2.26835C12.118 2.26835 11.3475 3.04624 11.3475 4.0025C11.3475 4.95876 12.118 5.73696 13.0653 5.73696C14.0126 5.73696 14.7835 4.95876 14.7835 4.0025C14.7835 3.04624 14.0126 2.26835 13.0653 2.26835ZM13.0653 4.55488C12.7638 4.55488 12.5181 4.30719 12.5181 4.0025C12.5181 3.69812 12.7638 3.45012 13.0653 3.45012C13.3671 3.45012 13.6125 3.69812 13.6125 4.0025C13.6125 4.30719 13.3671 4.55488 13.0653 4.55488Z" fill="#4E6483"/>
<path d="M4.60646 14.7124C4.7206 14.8276 4.87044 14.8855 5.02028 14.8855C5.17012 14.8855 5.31997 14.8279 5.43441 14.7124C5.66299 14.4816 5.66299 14.1073 5.43441 13.8766L4.01289 12.4416L5.43441 11.0069C5.66299 10.7758 5.66299 10.4018 5.43441 10.1711C5.20583 9.94031 4.83504 9.94031 4.60646 10.1711L2.77112 12.0238C2.66126 12.1347 2.59961 12.2851 2.59961 12.4416C2.59961 12.5984 2.66126 12.7487 2.77112 12.8596L4.60646 14.7124Z" fill="#F37A20"/>
<path d="M10.4159 12.4416L8.99441 13.8766C8.76583 14.1073 8.76583 14.4816 8.99471 14.7124C9.10885 14.8276 9.25869 14.8855 9.40854 14.8855C9.55838 14.8855 9.70822 14.8276 9.82236 14.7124L11.658 12.8593C11.8866 12.6286 11.8866 12.2543 11.658 12.0238L9.82236 10.1708C9.59378 9.94 9.22329 9.94 8.99471 10.1708C8.76583 10.4018 8.76583 10.7758 8.99471 11.0066L10.4159 12.4416Z" fill="#F37A20"/>
<path d="M6.34192 14.8445C6.41212 14.8723 6.48475 14.8855 6.55585 14.8855C6.78962 14.8855 7.01027 14.7432 7.1009 14.5106L8.54287 10.8048C8.66128 10.501 8.51296 10.1581 8.21206 10.0386C7.91146 9.91937 7.57149 10.0688 7.45338 10.3725L6.01111 14.0784C5.89301 14.3821 6.04102 14.7253 6.34192 14.8445Z" fill="#F37A20"/>
<path d="M3.51628 18.3526H7.46009C7.78327 18.3526 8.04542 18.0879 8.04542 17.7614C8.04542 17.4351 7.78327 17.1705 7.46009 17.1705H3.51628C3.19279 17.1705 2.93094 17.4351 2.93094 17.7614C2.93094 18.0879 3.19279 18.3526 3.51628 18.3526Z" fill="#F37A20"/>
<path d="M16.5435 17.1705H9.60983C9.28664 17.1705 9.02449 17.4351 9.02449 17.7614C9.02449 18.0879 9.28664 18.3526 9.60983 18.3526H16.5435C16.867 18.3526 17.1291 18.0879 17.1291 17.7614C17.1291 17.4351 16.867 17.1705 16.5435 17.1705Z" fill="#F37A20"/>
<path d="M3.51627 20.8452H5.19628C5.51946 20.8452 5.78161 20.5806 5.78161 20.254C5.78161 19.9278 5.51946 19.6631 5.19628 19.6631H3.51627C3.19279 19.6631 2.93094 19.9278 2.93094 20.254C2.93094 20.5806 3.19279 20.8452 3.51627 20.8452Z" fill="#F37A20"/>
<path d="M14.4017 19.6631C14.0782 19.6631 13.8163 19.9278 13.8163 20.254C13.8163 20.5806 14.0782 20.8452 14.4017 20.8452H15.4246C15.7481 20.8452 16.0102 20.5806 16.0102 20.254C16.0102 19.9278 15.7481 19.6631 15.4246 19.6631H14.4017Z" fill="#F37A20"/>
<path d="M12.8609 20.254C12.8609 19.9278 12.5988 19.6631 12.2756 19.6631H7.25055C6.92706 19.6631 6.66522 19.9278 6.66522 20.254C6.66522 20.5806 6.92706 20.8452 7.25055 20.8452H12.2756C12.5988 20.8452 12.8609 20.5806 12.8609 20.254Z" fill="#F37A20"/>
<path d="M16.6958 20.254C16.6958 20.5806 16.9579 20.8452 17.2811 20.8452H19.1973C19.5208 20.8452 19.7829 20.5806 19.7829 20.254C19.7829 19.9278 19.5208 19.6631 19.1973 19.6631H17.2811C16.9579 19.6631 16.6958 19.9278 16.6958 20.254Z" fill="#F37A20"/>
<path d="M13.5076 12.9157H15.5288C15.8523 12.9157 16.1145 12.6511 16.1145 12.3245C16.1145 11.9982 15.8523 11.7336 15.5288 11.7336H13.5076C13.1842 11.7336 12.922 11.9982 12.922 12.3245C12.922 12.6511 13.1842 12.9157 13.5076 12.9157Z" fill="#F37A20"/>
<path d="M17.7927 12.9157H30.1253C30.4488 12.9157 30.7106 12.6511 30.7106 12.3245C30.7106 11.9982 30.4488 11.7336 30.1253 11.7336H17.7927C17.4693 11.7336 17.2071 11.9982 17.2071 12.3245C17.2071 12.6511 17.4693 12.9157 17.7927 12.9157Z" fill="#F37A20"/>
<path d="M28.2522 14.3338H23.2564C22.9332 14.3338 22.6711 14.5984 22.6711 14.925C22.6711 15.2512 22.9332 15.5158 23.2564 15.5158H28.2522C28.5754 15.5158 28.8375 15.2512 28.8375 14.925C28.8375 14.5984 28.5754 14.3338 28.2522 14.3338Z" fill="#F37A20"/>
<path d="M21.3832 14.3338H19.666C19.3425 14.3338 19.0806 14.5984 19.0806 14.925C19.0806 15.2512 19.3425 15.5158 19.666 15.5158H21.3832C21.7067 15.5158 21.9685 15.2512 21.9685 14.925C21.9685 14.5984 21.7067 14.3338 21.3832 14.3338Z" fill="#F37A20"/>
<path d="M13.5076 15.5158H17.7145C18.0377 15.5158 18.2999 15.2512 18.2999 14.925C18.2999 14.5984 18.0377 14.3338 17.7145 14.3338H13.5076C13.1842 14.3338 12.922 14.5984 12.922 14.925C12.922 15.2512 13.1842 15.5158 13.5076 15.5158Z" fill="#F37A20"/>
<path d="M12.283 22.1348H8.33946C8.01597 22.1348 7.75382 22.3994 7.75382 22.7257C7.75382 23.0519 8.01597 23.3166 8.33946 23.3166H12.283C12.6062 23.3166 12.8683 23.0519 12.8683 22.7257C12.8683 22.3994 12.6062 22.1348 12.283 22.1348Z" fill="#F37A20"/>
<path d="M6.54608 22.1348H3.51628C3.19279 22.1348 2.93094 22.3994 2.93094 22.7257C2.93094 23.0519 3.19279 23.3166 3.51628 23.3166H6.54608C6.86957 23.3166 7.13141 23.0519 7.13141 22.7257C7.13141 22.3994 6.86957 22.1348 6.54608 22.1348Z" fill="#F37A20"/>
<path d="M19.4318 22.1348H14.2801C13.9566 22.1348 13.6948 22.3994 13.6948 22.7257C13.6948 23.0519 13.9566 23.3166 14.2801 23.3166H19.4318C19.755 23.3166 20.0171 23.0519 20.0171 22.7257C20.0171 22.3994 19.755 22.1348 19.4318 22.1348Z" fill="#F37A20"/>
</svg>
