<svg width="40" height="39" viewBox="0 0 40 39" fill="none" xmlns="http://www.w3.org/2000/svg">
<g clip-path="url(#clip0_6194_142169)">
<path d="M9.67036 20.4725C10.6018 21.2319 11.931 21.2627 12.9252 20.5546C14.0032 19.7747 14.2125 18.5843 13.5008 17.1784C14.4741 16.1112 17.572 12.6837 17.9697 12.2424C19.2779 12.6631 20 12.5297 21.0675 11.6472C21.9152 12.0474 22.763 12.4784 23.6421 12.8479C24.134 13.0531 24.3224 13.2891 24.3119 13.8227C24.291 15.085 25.4841 16.1419 26.8446 16.1625C28.2156 16.1727 29.4192 15.1158 29.461 13.8433C29.4924 12.776 29.011 11.9653 27.9958 11.5035C26.9702 11.0315 25.9969 11.1957 25.1178 11.8935C25.0236 11.9653 24.8456 12.0372 24.7619 11.9961C23.7154 11.5241 22.6897 11.0212 21.6641 10.5389C21.6641 10.2208 21.7059 9.93347 21.6536 9.6564C21.4652 8.6302 20.8268 7.92213 19.7593 7.65532C18.6918 7.37825 17.7604 7.6861 17.0696 8.50706C16.3684 9.33828 16.3266 10.2619 16.8184 11.2162C16.8708 11.3188 16.8394 11.5241 16.7661 11.6164C16.4626 11.9859 16.1277 12.3348 15.8033 12.6939C14.6939 13.9254 13.5741 15.1465 12.4752 16.3677C10.8948 15.9162 9.69129 16.2856 9.04242 17.4247C8.4982 18.4611 8.73891 19.7131 9.67036 20.4725ZM26.8969 12.4887C27.6191 12.499 28.1633 13.0428 28.1528 13.7407C28.1423 14.4179 27.5563 14.9516 26.8446 14.931C26.1539 14.9105 25.5992 14.3769 25.6096 13.7099C25.6096 13.0223 26.1957 12.4784 26.8969 12.4887ZM19.1209 8.82518C19.843 8.82518 20.3977 9.3588 20.3977 10.0464C20.3977 10.7236 19.8221 11.2573 19.1 11.247C18.3988 11.2367 17.8441 10.7134 17.8336 10.0464C17.8336 9.3588 18.3988 8.82518 19.1209 8.82518ZM11.3449 17.3939C12.0565 17.3939 12.6322 17.9378 12.6322 18.6151C12.6322 19.2924 12.0565 19.826 11.3344 19.826C10.6437 19.826 10.0681 19.2924 10.0576 18.6253C10.0471 17.9686 10.6437 17.3939 11.3449 17.3939Z" fill="#F37A20"/>
<path d="M37.1009 24.5055C36.9021 24.4644 36.7032 24.4336 36.473 24.3926C35.8241 26.9786 34.631 29.267 32.8204 31.2578C30.9994 33.2589 28.7807 34.7366 26.1747 35.691C23.5792 36.6454 20.9 36.9532 18.1475 36.6454C14.5891 36.2554 11.4494 34.9214 8.80158 32.6227C4.98159 29.2978 3.20241 25.1315 3.25474 20.2262C3.00356 20.216 2.79425 20.1955 2.52214 20.1852C3.21288 19.1385 3.87222 18.1431 4.55249 17.1066C5.24323 18.1533 5.90257 19.1487 6.58284 20.1852C6.30027 20.2057 6.08049 20.216 5.87117 20.2365C5.47348 26.4553 10.1307 33.0537 17.9905 34.1722C25.4735 35.2395 31.9727 30.5395 33.6995 24.6799C33.3019 24.5671 32.8937 24.4542 32.5274 24.3516C32.2239 25.0288 31.9727 25.6856 31.6378 26.2911C31.3134 26.9068 30.9052 27.4814 30.5284 28.0664C30.4866 28.0459 30.4447 28.0356 30.4028 28.0151V17.1784H25.2537V17.63C25.2537 22.0221 25.2537 26.4142 25.2537 30.7961C25.2537 31.1347 25.2642 31.4631 25.2432 31.8017C25.2432 31.8941 25.2014 32.0583 25.1281 32.0788C24.3327 32.3559 23.5269 32.6124 22.6582 32.8895V13.4636H17.4463V32.8792C16.6718 32.6432 15.9706 32.4072 15.2485 32.2019C14.9554 32.1198 14.8926 31.9557 14.8926 31.6888C14.9031 28.6308 14.9031 25.583 14.9031 22.5249V22.0837H9.70163V28.0664C8.40388 26.7939 6.99101 23.0585 7.20032 21.4474H8.9481C7.46197 19.2001 6.01769 17.004 4.54203 14.7772C3.05589 17.0245 1.61162 19.2103 0.125488 21.4679H1.99885C1.99885 21.7553 1.98839 22.0118 1.99885 22.2684C2.00932 22.5249 2.05118 22.7815 2.08258 23.038C2.61633 26.64 4.14433 29.8006 6.76076 32.4688C9.49232 35.26 12.8309 37.0148 16.7869 37.7126C17.4672 37.8358 18.1475 37.9076 18.8277 37.9999H21.3395C22.0303 37.9076 22.7315 37.8358 23.4222 37.7023C30.3924 36.3067 35.0182 32.3969 37.3416 26.0243C37.4986 25.583 37.6033 25.1315 37.7498 24.6594C37.4986 24.5978 37.2998 24.5465 37.1009 24.5055ZM26.5724 18.4304H29.0946C29.1051 18.5638 29.1156 18.687 29.1156 18.7998C29.1156 22.2684 29.1156 25.7472 29.126 29.2157C29.126 29.4723 29.0632 29.6672 28.8435 29.8212C28.1946 30.283 27.5562 30.7447 26.9178 31.2065C26.834 31.2681 26.7189 31.3092 26.5829 31.3707V18.4304H26.5724ZM18.8068 14.7361H21.3291V33.0434H18.8068V14.7361ZM11.0203 23.4485C11.0203 23.4177 11.0412 23.3767 11.0622 23.3254H13.574V31.3502C13.5426 31.381 13.5112 31.4118 13.4693 31.4426C12.6948 30.8474 11.9099 30.2624 11.1354 29.6672C11.0622 29.6057 11.0203 29.4723 11.0203 29.3696C11.0098 27.3994 11.0203 25.4188 11.0203 23.4485Z" fill="#3F6587"/>
<path d="M38.2941 16.5628C38.807 16.5628 39.3721 16.5628 40 16.5628C38.5244 18.7999 37.0906 20.9754 35.6044 23.2331C34.1288 20.996 32.6845 18.8102 31.1984 16.5628C31.8263 16.5628 32.381 16.5628 32.9775 16.5628C32.9252 15.0748 32.6008 13.6792 31.9728 12.3657C30.0367 8.31219 26.74 5.84932 22.1141 5.06941C19.4872 4.62814 16.9545 5.02836 14.5369 6.10587C14.3486 6.18796 14.2439 6.27006 14.2544 6.51634C14.4637 9.69755 11.8891 12.7761 8.55055 13.3611C4.61544 14.0384 1.03616 11.8013 0.157038 8.11721C-0.722083 4.39212 2.10366 0.584934 6.11203 0.0820987C8.22611 -0.184712 10.089 0.328386 11.7217 1.61113C11.9205 1.77532 12.067 1.78558 12.2973 1.68296C15.0707 0.420743 18.0011 -0.12314 21.0676 0.0205269C28.9378 0.410481 35.6882 5.6646 37.6243 12.9301C37.9278 14.0999 38.0639 15.3108 38.2941 16.5628ZM37.6348 17.825C37.5197 17.8148 37.4673 17.7942 37.415 17.7942C36.8289 17.7942 36.8813 17.8455 36.8813 17.2606C36.8917 15.8855 36.7243 14.5207 36.358 13.1866C33.9823 4.60762 24.7829 -0.482309 15.7405 1.79585C14.7672 2.04213 13.8357 2.4013 12.9252 2.6989C13.3334 3.49933 13.6997 4.21767 14.066 4.936C14.1288 4.91548 14.2125 4.87443 14.2962 4.84365C16.7033 3.84824 19.2047 3.48907 21.8211 3.78666C24.8666 4.14583 27.5249 5.3157 29.7541 7.29625C32.7159 9.93358 34.202 13.2071 34.3067 17.0451C34.3276 17.7121 34.3276 17.7121 33.6474 17.8045C33.6369 17.8045 33.6264 17.8148 33.5846 17.8558C34.2334 18.8512 34.8928 19.8466 35.5835 20.8831C36.2952 19.8466 36.9441 18.8615 37.6348 17.825ZM2.60602 3.31461C1.90481 4.15609 1.50712 5.05915 1.3606 6.12639C1.77922 6.12639 2.17692 6.12639 2.58509 6.12639C2.58509 6.56765 2.58509 6.94735 2.58509 7.36809C2.16646 7.36809 1.77922 7.36809 1.3606 7.36809C1.48618 8.42507 1.89435 9.33838 2.61648 10.2106C2.89906 9.91305 3.17117 9.63598 3.44327 9.34864C3.77818 9.66676 4.07122 9.94384 4.42705 10.2825C4.12355 10.5288 3.83051 10.7853 3.50607 11.0521C4.41659 11.7192 5.3585 12.1091 6.4888 12.2117C6.4888 11.8013 6.4888 11.4421 6.4888 11.0727C6.94929 11.0727 7.35746 11.0727 7.80748 11.0727C7.80748 11.4626 7.80748 11.832 7.80748 12.2117C8.92731 12.0886 9.87969 11.7089 10.8321 11.0008C10.4762 10.734 10.1727 10.498 9.92156 10.3133C10.2565 9.9541 10.5286 9.66676 10.8321 9.34864C11.1146 9.64624 11.3763 9.91305 11.6693 10.2106C12.3705 9.34864 12.7996 8.44559 12.9043 7.35782C12.4647 7.35782 12.0775 7.35782 11.6798 7.35782C11.6798 6.94735 11.6798 6.56765 11.6798 6.13665C12.0984 6.13665 12.4857 6.13665 12.9148 6.13665C12.7682 5.05915 12.3705 4.15609 11.6379 3.28383C11.3449 3.59169 11.0833 3.86876 10.853 4.11505C10.539 3.81745 10.2355 3.55064 9.83783 3.17095C10.1413 2.94518 10.4553 2.71942 10.8007 2.47313C9.86923 1.79585 8.91685 1.41615 7.79702 1.29301C7.79702 1.69323 7.79702 2.07292 7.79702 2.43209C7.34699 2.43209 6.92836 2.43209 6.4888 2.43209C6.4888 2.04213 6.4888 1.6727 6.4888 1.29301C5.34804 1.41615 4.39566 1.79585 3.44327 2.50392C3.79911 2.76047 4.12355 2.98623 4.37472 3.17095C4.00842 3.53012 3.72585 3.81745 3.39095 4.15609C3.13977 3.88928 2.87813 3.61221 2.60602 3.31461Z" fill="#3F6587"/>
<path d="M7.78631 8.5791C7.34675 8.5791 6.94905 8.5791 6.46763 8.5791C6.46763 8.15837 6.48856 7.72736 6.45717 7.29636C6.4467 7.12191 6.36297 6.91667 6.23739 6.78326C5.75596 6.31121 5.24314 5.84943 4.76172 5.38764C5.08616 5.09004 5.3792 4.82323 5.70363 4.52563C6.34204 5.13109 7.03278 5.78785 7.72352 6.44462C7.76538 6.48567 7.78631 6.5575 7.78631 6.60881C7.78631 7.25531 7.78631 7.91208 7.78631 8.5791Z" fill="#F37A20"/>
</g>
<defs>
<clipPath id="clip0_6194_142169">
<rect width="40" height="38.7546" fill="white"/>
</clipPath>
</defs>
</svg>
