<svg width="22" height="14" viewBox="0 0 22 14" fill="none" xmlns="http://www.w3.org/2000/svg">
<path d="M3.95312 9.3042H5.46169L5.73044 8.55521H6.53338L6.48175 9.3042H7.97906L8.00289 4.5253H5.99522L3.95312 9.3042ZM6.82397 5.39543H6.83456L6.6277 7.6318H6.04718L6.82397 5.39543Z" fill="#3F6587"/>
<path d="M9.16852 4.5253H11.0623L11.2685 7.41733H11.2791L11.8974 4.5253H13.1458L12.1234 9.3042H10.2409L10.0079 6.48664H9.99728L9.39458 9.3042H8.14648L9.16852 4.5253Z" fill="#3F6587"/>
<path d="M15.3115 5.83711C15.3443 5.6832 15.3595 5.56273 15.3344 5.47602C15.3092 5.38897 15.2331 5.34197 15.0808 5.34197C14.924 5.34197 14.7833 5.51606 14.7442 5.69644C14.5543 6.58709 16.7079 6.05819 16.3369 7.79215C16.0661 9.05713 15.2222 9.45264 14.2945 9.45264C13.3558 9.45264 12.4231 9.2984 12.7816 7.9262H14.2187C14.1846 8.1132 14.1627 8.26743 14.1819 8.38128C14.2018 8.48852 14.2587 8.55504 14.3832 8.55504C14.5784 8.55504 14.7581 8.37433 14.8084 8.14C15.0345 7.08222 12.8574 7.77196 13.2317 6.02444C13.4779 4.87332 14.1693 4.37785 15.2768 4.37785C16.6652 4.37785 16.83 5.05403 16.6626 5.83711H15.3115Z" fill="#3F6587"/>
<path d="M17.4573 4.5253H18.9221L17.9004 9.3042H16.4355L17.4573 4.5253Z" fill="#3F6587"/>
<path d="M1.18819 8.10752C1.18819 4.06768 6.5347 0.793051 13.1296 0.793051C16.6505 0.793051 19.8146 1.72672 22 3.21179C19.8275 1.27263 16.1842 4.34538e-05 12.0546 4.34538e-05C5.39748 4.34538e-05 0 3.30612 0 7.38368C0 9.66242 1.68597 11.6992 4.3344 13.0532C2.38134 11.7515 1.18819 10.0149 1.18819 8.10752Z" fill="#3F6587"/>
</svg>
