<svg width="26" height="32" viewBox="0 0 26 32" fill="none" xmlns="http://www.w3.org/2000/svg">
<path d="M24.2989 2.1385C23.6829 2.1385 23.1818 1.65884 23.1818 1.06925C23.1818 0.479659 23.6829 0 24.2989 0C24.915 0 25.4162 0.479659 25.4162 1.06925C25.4162 1.65884 24.915 2.1385 24.2989 2.1385ZM24.2989 0.154911C23.7722 0.154911 23.3436 0.564981 23.3436 1.06925C23.3436 1.57351 23.7722 1.98358 24.2989 1.98358C24.8258 1.98358 25.2543 1.57351 25.2543 1.06925C25.2543 0.564981 24.8258 0.154911 24.2989 0.154911ZM24.9242 1.59056H24.5811L24.2848 1.20819H24.1545V1.59056H23.875V0.547937L24.3462 0.547937C24.4106 0.547937 24.4659 0.551298 24.5123 0.558301C24.5587 0.565304 24.602 0.580431 24.6426 0.603961C24.6835 0.627212 24.7162 0.657465 24.7402 0.694442C24.7645 0.731698 24.7765 0.778199 24.7765 0.834223C24.7765 0.911258 24.7577 0.974005 24.7206 1.02247C24.6831 1.07121 24.6298 1.11155 24.5606 1.14376L24.9242 1.59056ZM24.486 0.867278C24.486 0.840946 24.4804 0.818537 24.4691 0.800048C24.4579 0.78128 24.4387 0.766433 24.4113 0.755789C24.3923 0.748225 24.3701 0.743743 24.3448 0.742063C24.3194 0.740382 24.2899 0.739542 24.2562 0.739542L24.1545 0.739542V1.02051H24.2409C24.2858 1.02051 24.3233 1.01855 24.3535 1.01406C24.3838 1.01014 24.4092 1.00034 24.4296 0.98549C24.4491 0.970924 24.4634 0.954957 24.4724 0.937589C24.4814 0.919941 24.486 0.896411 24.486 0.867278Z" fill="#6F727B"/>
<path d="M20.2731 10.6993C22.19 9.78041 23.4943 8.07432 23.4943 5.97332C23.4943 1.08536 18.8659 0.0348615 14.6501 0.100751L0.779449 0.100751L0.779449 23.528L14.9574 23.528C20.2043 23.528 24.4889 21.8217 24.4889 16.2427C24.4885 13.5848 22.878 11.421 20.2731 10.6993ZM16.8812 8.41575C16.8745 8.41575 16.8678 8.41575 16.8611 8.41575L15.1298 14.0382C16.0845 14.5771 16.4021 15.7547 15.839 16.6685C15.276 17.5824 14.0456 17.8863 13.0909 17.3474C12.1361 16.8085 11.8186 15.6308 12.3816 14.717C12.4398 14.6226 12.5064 14.533 12.5806 14.4494L9.9966 10.9951C9.67816 11.1293 9.33416 11.1989 8.98623 11.1996C8.88196 11.1987 8.77786 11.1912 8.67462 11.1771L7.27474 16.3957C8.24965 16.9302 8.58725 18.12 8.0288 19.0531C7.47034 19.9862 6.22731 20.3094 5.2524 19.7748C4.2775 19.2403 3.9399 18.0506 4.49835 17.1175C4.86128 16.511 5.53594 16.1373 6.2661 16.1382C6.31423 16.1382 6.36084 16.1419 6.40832 16.1448L7.811 10.9205C6.55963 10.3015 6.06948 8.82878 6.7162 7.63106C7.36293 6.43333 8.90164 5.96418 10.153 6.58319C11.4044 7.20219 11.8945 8.67495 11.2478 9.87268C11.1193 10.1106 10.9509 10.3267 10.7491 10.5122L13.3076 13.933C13.5615 13.8245 13.8363 13.7678 14.1144 13.7668C14.1662 13.7668 14.2172 13.7697 14.2679 13.7734L15.9943 8.16933C15.2161 7.69898 14.9837 6.71391 15.4751 5.96913C15.9665 5.22434 16.9957 5.00188 17.7739 5.47223C18.552 5.94259 18.7844 6.92766 18.293 7.67244C17.9873 8.13574 17.4545 8.4164 16.8821 8.41574L16.8812 8.41575Z" fill="#6F727B"/>
<path d="M0.75 27.9286H2.58428C2.91628 27.905 3.24719 27.9863 3.52624 28.1601C3.81903 28.3621 3.98814 28.6899 3.97769 29.0352C3.98526 29.3757 3.7791 29.6873 3.45438 29.8263V29.8366C3.94634 29.9072 4.30033 30.326 4.26966 30.8012C4.26096 31.4361 3.71618 31.944 3.05287 31.9357C3.03809 31.9355 3.02331 31.9351 3.00854 31.9343H0.75L0.75 27.9286ZM2.68312 29.6737C3.11255 29.6737 3.44855 29.4359 3.44855 29.0462C3.45512 28.8617 3.37903 28.6833 3.23944 28.5558C3.05105 28.4173 2.81513 28.3515 2.57845 28.3716H1.2787L1.2787 29.6729L2.68312 29.6737ZM2.82641 31.4913C3.53681 31.4913 3.74031 31.1699 3.74031 30.806C3.74031 30.49 3.53681 30.1157 2.82641 30.1157H1.2787V31.4913L2.82641 31.4913Z" fill="#6F727B"/>
<path d="M6.60644 30.0944C6.60644 29.64 6.1332 29.5406 5.74757 29.5406C5.47125 29.5435 5.19952 29.6086 4.95429 29.7304L4.73849 29.3353C5.06512 29.1981 5.41761 29.1262 5.77432 29.124C6.46294 29.124 7.10191 29.4035 7.10191 30.0572V31.9337H6.63967V31.6383C6.40546 31.8817 6.07042 32.013 5.72512 31.9967C5.02551 31.9967 4.47501 31.6224 4.47501 31.011C4.47501 30.5104 4.92106 30.0677 5.71951 30.0677C6.0453 30.0618 6.36163 30.1727 6.60623 30.3788L6.60644 30.0944ZM5.8136 30.4843C5.20807 30.4843 5.00414 30.7638 5.00414 31.0327C5.00414 31.3017 5.20807 31.5807 5.8136 31.5807C6.41913 31.5807 6.62327 31.3017 6.62327 31.0327C6.62327 30.7638 6.41956 30.4852 5.8136 30.4852V30.4843Z" fill="#6F727B"/>
<path d="M7.4881 27.9284H7.98443V29.6206H7.99587C8.25468 29.297 8.66048 29.1125 9.08608 29.1249C9.90421 29.1194 10.5722 29.7494 10.5785 30.5325C10.5897 31.3309 9.92257 31.9869 9.08838 31.9976C9.0802 31.9977 9.07203 31.9978 9.06385 31.9977C8.64569 32.0166 8.24516 31.8349 7.99565 31.5132H7.98443V31.9348H7.4881L7.4881 27.9277V27.9284V27.9284ZM8.99739 29.5675C8.42417 29.575 7.9658 30.0258 7.97358 30.5744C7.98135 31.123 8.45234 31.5618 9.02555 31.5543C9.59876 31.5469 10.0571 31.0961 10.0494 30.5474C10.0493 30.5444 10.0493 30.5413 10.0492 30.5383C10.0432 29.9962 9.57918 29.5615 9.01286 29.5673C9.00813 29.5673 9.0034 29.5674 8.99868 29.5675H8.99739Z" fill="#6F727B"/>
<path d="M13.7007 31.4023C13.3865 31.7793 12.9097 31.9985 12.4059 31.9975C11.5906 32.0427 10.8914 31.4468 10.8442 30.6664C10.842 30.6306 10.8413 30.5946 10.842 30.5587C10.8142 29.7935 11.4398 29.1517 12.2393 29.1251C12.2674 29.1242 12.2955 29.124 12.3236 29.1247C13.2104 29.1247 13.8269 29.7732 13.8269 30.7432H11.3711C11.4466 31.2263 11.8913 31.5767 12.4011 31.5547C12.7617 31.5476 13.0996 31.385 13.3206 31.1123L13.7007 31.4023ZM13.2656 30.3534C13.1905 29.8527 12.7056 29.5051 12.1825 29.577C11.762 29.6348 11.4317 29.951 11.3713 30.3534H13.2656Z" fill="#6F727B"/>
<path d="M14.6327 27.9285V31.0752C14.6327 31.3863 14.7926 31.4918 14.9521 31.4918H15.101V31.9347H14.897C14.4402 31.9347 14.1372 31.6868 14.1372 31.1126V27.9285H14.6327V27.9285Z" fill="#6F727B"/>
<path d="M18.2897 27.9285H18.8182V31.9355H18.3218L16.0758 28.8351H16.0644V31.9345H15.5357V27.9275H16.032L18.2793 31.0269H18.2906L18.2897 27.9285Z" fill="#6F727B"/>
<path d="M22.019 31.4023C21.7049 31.7793 21.2281 31.9985 20.7242 31.9975C19.9088 32.0428 19.2095 31.4469 19.1621 30.6665C19.16 30.6306 19.1592 30.5946 19.1599 30.5587C19.1321 29.7935 19.7577 29.1517 20.5572 29.1251C20.5852 29.1242 20.6133 29.124 20.6413 29.1246C21.5283 29.1246 22.1448 29.7732 22.1448 30.7432H19.6895C19.7649 31.2262 20.2095 31.5766 20.7192 31.5547C21.0799 31.5476 21.4179 31.385 21.639 31.1123L22.019 31.4023ZM21.5839 30.3534C21.5093 29.8527 21.0246 29.5047 20.5015 29.5762C20.0804 29.6337 19.7496 29.9504 19.6895 30.3534H21.5839Z" fill="#6F727B"/>
<path d="M22.6363 28.5239H23.1327V29.1877H23.5897V29.6048H23.1327V31.2914C23.1327 31.4389 23.1821 31.4916 23.3746 31.4916H23.6005V31.9288C23.5289 31.9342 23.4134 31.9342 23.2984 31.9342C22.7919 31.9342 22.6376 31.7657 22.6376 31.3437V29.6045H22.241V29.1875H22.6376V28.5237L22.6363 28.5239Z" fill="#6F727B"/>
</svg>
