<svg width="22" height="22" viewBox="0 0 22 22" fill="none" xmlns="http://www.w3.org/2000/svg">
<path d="M11 22C17.0751 22 22 17.0751 22 11C22 4.92487 17.0751 0 11 0C4.92487 0 0 4.92487 0 11C0 17.0751 4.92487 22 11 22Z" fill="#3F6587"/>
<path d="M10.9996 21.4723C16.7833 21.4723 21.4718 16.7837 21.4718 11.0001C21.4718 5.21642 16.7833 0.527832 10.9996 0.527832C5.21593 0.527832 0.527344 5.21642 0.527344 11.0001C0.527344 16.7837 5.21593 21.4723 10.9996 21.4723Z" fill="#F3F6F9"/>
<path d="M10.999 21.0635C16.557 21.0635 21.0625 16.5579 21.0625 11C21.0625 5.44211 16.557 0.936523 10.999 0.936523C5.44113 0.936523 0.935547 5.44211 0.935547 11C0.935547 16.5579 5.44113 21.0635 10.999 21.0635Z" fill="#3F6587"/>
<path d="M13.2504 17.2642C11.5534 17.4802 10.7145 16.9428 9.38867 15.8452C9.49733 16.4965 9.96558 17.0016 10.3543 17.2855C10.7093 17.5462 11.4576 17.7324 11.9518 17.7324C12.4459 17.7324 12.9051 17.4543 13.2504 17.2642" fill="#F3F6F9"/>
<path d="M9.70704 18.4011C9.79305 18.4134 9.84738 18.2621 9.77494 18.2142C9.64624 18.1276 9.53241 17.9834 9.64689 17.6367C9.50007 17.6458 9.1366 17.4575 8.98849 16.8224C8.90441 17.4375 9.27759 18.3384 9.70704 18.4011" fill="#F3F6F9"/>
<path d="M10.8172 18.0057C10.6962 17.6442 9.99644 17.5937 9.9253 17.4113C9.86579 17.6189 9.77137 17.6286 9.75391 17.9714C10.0624 17.7198 10.3657 18.1266 10.4912 18.3058C10.6167 18.4849 10.9316 18.3485 10.8172 18.0057Z" fill="#F3F6F9"/>
<path d="M11.4773 18.4006C11.4087 18.2868 11.26 18.2893 11.0912 17.8689C10.9055 18.0947 11.0116 18.332 11.1254 18.4348C11.2399 18.5377 11.4475 18.4711 11.4773 18.4006" fill="#F3F6F9"/>
<path d="M10.3212 11.8683C8.51162 11.8683 8.23352 14.5271 8.23352 15.5658C8.23352 15.7553 8.22705 16.1052 8.22252 16.2527L7.78079 14.498C7.67213 14.498 7.60423 14.749 7.63074 14.855L8.85828 19.7639C8.90356 19.9327 8.93137 20.0536 9.04714 20.0297C9.17972 20.0019 9.0937 19.7316 9.06136 19.588L8.56272 17.6018C8.67719 17.3696 8.7755 17.0682 8.82659 16.7714C8.71276 16.7714 8.47282 16.7371 8.43854 16.6C8.80395 16.5883 8.85893 16.4887 8.8654 16.4318C9.00057 15.1674 8.84664 13.6152 9.37763 12.7867C9.9112 11.9537 11.045 12.0843 11.4679 12.0384C11.2506 11.9013 10.6789 11.8683 10.3212 11.8683" fill="#F3F6F9"/>
<path d="M6.3418 18.7088C6.94198 18.8634 7.90953 18.5219 8.1941 18.0705C8.1553 17.8901 8.12102 17.7697 8.07057 17.5537C8.0143 17.8105 7.89659 18.0459 7.67928 18.2458C7.25049 17.9625 7.13084 18.5885 6.3418 18.7088" fill="#F3F6F9"/>
<path d="M9.5994 11.0535C8.52514 11.2249 8.2134 10.963 7.86803 11.0096C7.36227 11.0781 7.11069 11.4157 7.20511 11.741C7.22193 11.613 7.49098 11.3355 7.73092 11.3698C7.61063 11.4953 7.53431 11.602 7.57635 11.73C7.57182 11.7158 7.67142 11.8031 7.8163 11.6783C8.08858 11.4429 8.49409 11.3957 8.811 11.3957C9.19194 11.3957 9.56706 11.3342 9.71969 11.2036C9.77531 11.157 9.6492 11.0458 9.5994 11.0535" fill="#F3F6F9"/>
<path d="M19.5841 6.26809C18.9509 6.82753 18.7433 6.5533 18.2569 6.70788C18.233 6.71564 18.2466 6.64771 18.2207 6.65806C18.8539 5.81922 19.3357 6.36251 19.5841 6.26809Z" fill="#F3F6F9"/>
<path d="M19.0189 7.2002C19.0247 6.90592 18.6729 6.51271 18.1328 6.72291C18.5487 7.14588 18.8074 7.09995 19.0189 7.2002Z" fill="#F3F6F9"/>
<path d="M14.5685 16.6732C14.5951 16.6059 14.6843 16.5581 14.5951 16.4915C14.2807 16.2573 14.5381 16.1539 14.4353 16.0685C14.1262 15.8395 13.7491 16.1888 13.286 15.5369C13.5091 15.6313 13.7931 15.8389 14.0776 15.749C13.8008 14.8617 13.286 13.5138 13.1812 12.9589C13.1457 12.7778 13.1023 12.5094 12.6613 12.5094C12.3838 12.5094 12.2286 12.5611 12.0882 12.6303C12.1244 12.5353 12.4524 12.3484 12.669 12.3219C11.6057 12.1188 9.79484 12.0062 9.5025 13.3644C9.43654 13.6697 9.81812 14.1056 10.8329 13.748C10.9803 13.6949 11.1537 13.8081 10.9286 14.0248C10.7029 14.2414 9.94941 14.7614 9.29102 14.3022C9.43783 14.5273 9.89702 14.6825 10.2618 14.6825C10.6253 14.6825 11.2287 14.6191 11.5113 13.8391C11.5889 13.8391 12.0345 13.8217 12.3431 13.3592C12.2467 14.0112 12.0229 14.235 11.7946 14.4051C11.6394 14.7407 11.283 15.4806 10.2443 15.4806C9.9824 15.4806 9.83817 15.4722 9.59952 15.3137C10.1163 15.9786 12.4459 17.8005 14.3609 16.8058C14.3383 16.9086 14.11 17.1369 13.861 17.2346C13.3753 17.4254 13.0338 17.9829 11.5372 18.0637C11.5702 18.5436 12.3405 18.435 12.5144 18.3755C12.2228 18.3321 12.0708 18.2765 12.0514 18.2008C12.5998 18.2312 13.1948 18.1665 13.8804 17.8574C13.8118 18.012 13.7724 18.1206 13.6178 18.1892C14.5265 18.2629 14.8298 17.5133 15.0445 17.437C14.9986 17.2527 14.6222 16.7236 14.5685 16.6732" fill="#F3F6F9"/>
<path d="M10.4387 10.2893C10.3546 10.5047 9.94132 10.7524 10.0273 11.0952C10.0273 10.9924 10.5143 10.5597 10.6275 10.3411C10.8623 9.88513 10.7304 9.7409 10.6443 9.32891C10.6353 9.68334 10.5797 9.9278 10.4387 10.2893" fill="#F3F6F9"/>
<path d="M7.42066 14.6446C7.50345 14.7436 7.55519 14.9506 7.66643 14.959C7.6438 14.9338 7.6923 14.7359 7.62051 14.6388C7.5636 14.3413 7.58947 14.2049 7.62633 14.1816C7.76345 14.0923 7.71752 14.417 7.81712 14.4985C7.84235 14.5198 7.87727 14.5451 7.91996 14.5179C7.91414 14.4409 7.90056 14.3348 7.91802 14.1835C7.85787 14.0464 7.81519 13.7657 7.81519 13.7528C7.69942 13.5704 7.58623 13.4158 7.40902 13.2839C7.33982 13.1979 7.26803 13.0608 7.17749 12.9282C6.99122 12.6572 6.65361 11.8448 6.3574 11.1923C6.15755 10.7505 5.93442 10.5287 6.00298 10.4032C6.09805 10.2403 6.15109 10.1368 6.19636 10.0178C6.11745 9.71444 5.87298 8.76694 5.7391 8.23466C5.33165 8.96937 5.35235 9.93629 5.25469 10.2784C5.15056 10.6425 5.28055 10.6678 5.30578 10.8372C5.38986 11.3805 5.86457 12.1488 6.17696 12.4741C6.35546 12.6597 6.89097 13.2282 6.89097 13.4611C6.9149 13.5555 6.94918 13.7269 6.94077 13.9242C6.96923 14.0121 7.01709 13.9986 7.06948 14.0529C7.0947 14.0794 7.10117 14.1712 7.15808 14.1991C7.18783 14.2133 7.20271 14.2184 7.28355 14.2786C7.32494 14.3096 7.36828 14.5819 7.42066 14.6446" fill="#F3F6F9"/>
<path d="M11.4936 11.3178C11.3449 11.4322 10.8611 11.1489 10.5332 11.189C10.3107 11.2233 10.2001 11.3637 10.085 11.3805C9.41886 11.2492 8.67121 11.6922 8.30515 12.2446C8.24694 12.3319 8.16415 12.3985 8.15251 12.5182C8.14152 12.6385 8.2353 12.6727 8.16674 12.8441C8.0251 13.3253 8.02963 13.7172 8.08396 14.0503C8.21007 13.604 8.58713 12.0725 10.0275 11.7809C9.66721 11.7123 9.14722 11.8669 8.7928 12.0156C9.19314 11.5577 9.85542 11.5694 10.2933 11.592C10.3166 11.5907 10.2047 11.5008 10.1646 11.4148C10.2564 11.4148 10.3567 11.5208 10.6619 11.5066C10.9969 11.4905 11.1185 11.4743 11.3048 11.4465C11.026 11.5862 10.81 11.6832 10.4162 11.6948C11.5253 12.0383 11.731 11.6263 12.3137 11.5351C12.2342 11.3863 11.8798 11.2835 11.4936 11.3178" fill="#F3F6F9"/>
<path d="M6.74897 14.3564C6.51031 13.2589 5.70381 12.5436 5.08422 12.3793C5.06288 12.3735 4.76731 13.3889 4.80159 14.3538C5.45287 14.3066 6.26325 14.3235 6.74897 14.3564" fill="#F3F6F9"/>
<path d="M4.93555 15.5994C5.13539 16.6226 5.41027 17.2486 5.62046 17.6328C6.12752 17.3799 6.75034 16.7823 6.85188 15.5406C6.14174 15.5076 5.44713 15.5619 4.93555 15.5994" fill="#F3F6F9"/>
<path d="M3.86246 12.5321C3.34182 12.8302 2.81342 13.5196 2.75586 14.665C2.97899 14.6075 3.29655 14.5305 3.59664 14.4852C3.585 14.0623 3.59664 13.3715 3.86246 12.5321Z" fill="#F3F6F9"/>
<path d="M2.90625 15.8505C3.22251 16.9785 3.95529 17.4868 4.38667 17.6582C4.0329 16.9979 3.84728 16.3731 3.72698 15.7257C3.3648 15.7749 3.10092 15.8156 2.90625 15.8505" fill="#F3F6F9"/>
<path d="M8.38085 11.7413C7.55753 11.8499 7.59957 12.5083 7.67783 12.6558C7.84534 12.2819 7.93524 12.1299 8.38085 11.7413Z" fill="#F3F6F9"/>
<path d="M6.80462 9.33887C6.97795 9.21792 6.97795 8.92236 6.95143 8.7846C6.82208 8.9838 6.76194 9.17459 6.80462 9.33887Z" fill="#F3F6F9"/>
<path d="M18.3534 6.1133C17.7959 6.13917 17.5476 6.31314 17.459 6.90039C18.3677 6.55761 18.1361 6.2045 18.3534 6.1133Z" fill="#F3F6F9"/>
<path d="M9.85595 8.27767C9.80162 8.60622 9.52417 8.60946 9.41034 8.75756C9.367 8.69806 9.42715 8.51503 9.46143 8.43742C9.14452 8.65215 8.94726 8.98778 8.94726 9.26071C8.86124 9.11778 8.71249 8.63209 8.28951 8.48333C8.16145 8.43806 8.22872 8.56741 8.28951 8.70064C8.35031 8.83387 8.46543 9.15789 8.46155 9.46704C8.45767 9.67659 8.33802 9.87512 8.27011 9.90423C8.35807 9.22643 7.95837 8.43742 7.86653 8.43742C7.6945 8.43742 7.44356 9.47804 7.80315 10.2503C7.0665 9.35257 7.50112 8.57129 7.50112 8.36886C7.50112 8.13473 7.47525 8.01962 7.28381 7.8547C7.375 8.52926 7.08396 8.786 6.97854 9.34286C6.92615 9.61967 6.9268 9.83763 7.01799 9.96569C7.10724 10.095 7.27411 10.247 7.3349 10.324C7.3957 10.4016 7.63887 10.7353 7.83225 10.7353C7.99265 10.7353 7.992 10.5025 7.91569 10.4197C8.00106 10.408 8.10389 10.4268 8.16404 10.4902C8.28951 10.6215 8.20285 10.7386 8.25006 10.7353C8.49259 10.7185 8.81856 9.8525 8.89423 9.58345C9.15293 10.2729 8.65622 10.8569 8.7306 10.855C8.94726 10.8498 9.3476 10.3524 9.47501 10.1578C9.48083 10.194 9.48213 10.2295 9.47048 10.2729C9.43039 10.4216 9.39675 10.6157 9.46143 10.6157C9.66904 10.6157 9.77899 9.9605 9.79903 9.70697C9.81908 9.45344 10.1645 9.31827 10.1399 8.90176C10.1308 8.75236 9.99306 8.429 10.0442 8.28477C10.1948 8.37015 10.3119 8.43092 10.4122 8.4859C10.5435 8.55704 10.8739 8.66766 10.9975 8.70064C11.3674 8.79765 11.8835 8.93603 12.0174 8.9729C12.1707 9.01494 12.2315 9.05765 12.3421 9.05765C12.9145 9.05765 13.7591 8.60233 13.8425 8.53765C13.9331 8.4678 14.1692 8.34491 14.325 8.24984C14.4744 8.14312 14.7461 7.98016 14.9084 7.92907C14.9925 7.89867 15.0565 7.91482 15.1128 7.94328C15.2977 8.03512 15.3993 8.0817 15.6101 8.10434C15.4484 8.31647 15.1859 8.61914 15.039 8.92182C15.0636 8.95286 15.1354 8.98522 15.1619 9.00333C15.3941 8.60946 15.6379 8.27444 15.8792 8.01315C15.8953 7.99569 15.7809 7.97498 15.7977 7.89737C15.81 7.88508 16.0337 8.01315 16.1838 7.96594C16.1935 7.95688 16.2562 7.96591 16.2478 7.88442C16.3209 7.8592 16.341 7.79582 16.3338 7.78159C16.1534 7.75184 16.015 7.72469 15.9548 7.72857C15.9367 7.73246 15.8766 7.76218 15.8876 7.80551C15.8533 7.8081 15.8029 7.82235 15.7996 7.85663C15.4653 7.99374 15.1167 7.60892 14.8405 7.69171C14.9336 7.51191 15.3844 7.70462 15.5927 7.70785C15.8792 7.71302 15.9264 7.59727 16.3125 7.71756C16.5479 7.76866 16.5984 7.66387 16.4237 7.59337C16.2886 7.5384 16.0577 7.49506 15.962 7.44526C16.1321 7.44332 16.2996 7.41746 16.522 7.50736C16.5673 7.50606 16.5563 7.48538 16.5654 7.47309C16.6113 7.41036 17.3156 6.94147 18.2566 6.70799L18.2715 6.61551C17.8343 6.69312 17.4185 6.83021 16.4942 7.35408C16.4703 7.34244 16.3953 7.31722 16.1495 7.2713C15.755 7.31722 14.9627 7.31595 14.7603 7.40003C13.7488 7.82042 12.9772 7.88054 12.5309 8.1373C12.2768 8.28411 11.9514 7.99695 11.8454 7.92322C11.5854 7.74343 11.4994 7.71821 11.2846 7.61473C11.2018 7.57981 10.8093 7.35278 10.7297 7.33726C10.319 7.3903 9.93291 7.9517 9.85595 8.27767" fill="#F3F6F9"/>
<path d="M7.51697 7.83144C7.7414 8.09078 8.16826 8.35143 8.63133 8.19685C7.96259 8.05133 7.44518 6.67697 6.69107 6.63105C6.53067 6.61941 6.29073 6.67632 6.05078 6.99646C6.90773 6.66533 7.30678 7.5889 7.51697 7.83144" fill="#F3F6F9"/>
<path d="M17.4819 6.13914C17.3558 6.14496 16.7614 6.31055 16.9218 7.14551C17.5446 6.73352 17.4017 6.26461 17.4819 6.13914Z" fill="#F3F6F9"/>
<path d="M16.7068 6.55119C16.1752 6.83382 16.3194 7.12356 16.3097 7.32276L16.441 7.37451C16.8355 6.97999 16.6557 6.6482 16.7068 6.55119Z" fill="#F3F6F9"/>
<path d="M15.7546 19.0809C15.439 19.0072 15.2301 19.0958 14.9429 18.8979C14.7929 18.7944 14.3013 18.5292 13.9825 18.4523C13.3694 18.6793 13.1262 18.601 12.839 18.5926C12.4852 18.7841 12.0823 18.7207 11.7318 18.5926C11.4013 18.8358 11.1193 18.7252 10.9757 18.612C10.4156 18.9438 10.4971 18.4665 10.1188 18.4581C9.56385 18.8125 9.10336 18.5771 8.88281 18.4393C8.93391 18.6554 9.00376 18.9018 9.06261 19.1534L15.8212 19.1572C15.8212 19.1572 15.926 19.121 15.7546 19.0809" fill="#F3F6F9"/>
<path d="M15.586 19.4294H9.13264L9.24324 19.8809C9.29563 20.1402 9.19602 20.2844 8.99876 20.278C8.81703 20.2728 8.7323 20.19 8.66892 19.9481L8.54021 19.4294L6.45508 19.4301C6.68015 19.5639 8.46002 20.5716 11.005 20.5839C13.3281 20.5955 15.0944 19.7088 15.586 19.4294Z" fill="#F3F6F9"/>
<path d="M5.24522 7.87671C3.82042 9.85384 4.48335 11.0484 4.60946 11.3013C4.54091 11.0044 4.41544 10.4269 4.60946 9.92368C4.60946 10.011 4.64374 10.2897 4.85005 10.4837C4.80413 9.98122 4.58682 9.55245 5.4386 7.79457C5.49875 7.66457 5.36358 7.71244 5.24522 7.87671" fill="#F3F6F9"/>
<path d="M7.70948 16.0691C7.66162 15.8583 7.50187 15.2128 7.42167 14.9069C7.30784 14.7297 7.17914 14.6145 7.0569 14.5466C7.07113 14.6094 7.08406 14.6734 7.09571 14.7394C7.14809 15.0485 7.16362 15.39 7.12998 15.736C7.02327 16.8342 6.45736 17.9641 5.25763 18.1439C3.95765 18.3379 2.5542 16.8051 2.58589 14.9023C2.61693 12.9996 3.75199 12.1239 4.61799 12.1155C5.01639 12.1116 5.40897 12.2041 5.84424 12.5132C5.56937 12.0385 5.47494 11.7824 5.39604 11.5153C5.17485 11.4319 4.85147 11.3885 4.63093 11.3995C2.63116 11.5011 1.75093 13.9936 2.22565 15.954C2.40609 16.6997 2.76569 17.4764 3.34906 18.0495C3.64268 18.323 4.11223 18.7292 4.68655 18.821C6.21741 19.1709 7.49928 17.8018 7.70948 16.0691" fill="#F3F6F9"/>
<path d="M5.20967 5.15022C5.23812 5.23042 6.96172 12.1688 7.00182 12.3299C7.03222 12.4521 7.09625 12.5666 7.16287 12.5543C7.21008 12.5446 7.28122 12.4657 7.23595 12.3014C7.23595 12.3014 6.51546 9.47182 6.49024 9.35152C6.70432 9.00874 6.75282 8.5056 6.95267 8.2469C7.07361 8.41247 7.08849 8.23846 7.09172 8.10846C7.11307 7.24246 6.63899 7.10535 6.53875 7.09953C6.11836 7.07366 6.04527 7.55487 6.04527 7.55487L5.43668 5.10171C5.55245 5.08425 5.63847 5.13599 5.71866 5.21295C5.69473 4.95813 5.42827 4.08566 4.94385 3.82825C4.69097 4.63411 4.90699 5.18449 4.97554 5.41344C4.99947 5.3119 5.06091 5.1845 5.20967 5.15022" fill="#F3F6F9"/>
<path d="M8.29613 18.4541C7.77032 18.8195 6.88168 19.0265 6.38432 19.0433C6.12692 19.0498 6.1198 19.1248 6.13274 19.1578C6.33517 19.161 8.47593 19.1545 8.47593 19.1545C8.47593 19.1545 8.34205 18.6255 8.29613 18.4541" fill="#F3F6F9"/>
<path d="M17.5566 6.89405C18.3586 6.87271 18.4615 7.27564 18.4485 7.45996C18.3754 7.3914 17.7623 7.44315 17.5566 6.89405Z" fill="#F3F6F9"/>
<path d="M16.9961 7.1682C17.3221 7.64292 17.7114 7.5983 17.9164 7.67139C17.6765 7.06538 17.1326 7.13716 16.9961 7.1682Z" fill="#F3F6F9"/>
<path d="M17.0005 7.50004C16.8796 7.44054 16.6209 7.37264 16.4863 7.44896C16.4863 7.44896 16.5432 7.98574 17.3776 7.88291C17.3898 7.91201 17.1253 7.56278 17.0005 7.50004" fill="#F3F6F9"/>
<path d="M15.6292 18.8292C15.7566 18.8299 15.9953 18.8635 16.2236 18.6804C16.3865 18.7322 16.468 18.5976 16.4978 18.5207C16.3497 18.4521 15.8931 18.1954 15.6609 17.9891C15.4623 17.8125 15.3621 17.6818 15.1836 17.6178C14.9436 17.7329 14.5756 18.2588 14.3945 18.2918C14.8175 18.4638 15.1183 18.8279 15.6292 18.8292" fill="#F3F6F9"/>
<path d="M15.8078 14.5042C15.7794 14.6206 15.6002 14.6776 15.4075 14.6304C15.2154 14.5831 15.0828 14.4506 15.1113 14.3341C15.2309 14.3464 15.3376 14.3005 15.511 14.208C15.5666 14.3315 15.7037 14.415 15.8078 14.5042Z" fill="#F3F6F9"/>
<path d="M15.9392 15.2708C16.0847 15.3225 16.24 15.3109 16.3344 15.2591C16.3609 15.349 16.313 15.5159 16.1662 15.6336C15.9987 15.7688 15.775 15.7946 15.709 15.7125C15.8713 15.6362 15.9522 15.4506 15.9392 15.2708" fill="#F3F6F9"/>
<path d="M15.3444 15.911C15.5126 15.9905 15.6148 16.1302 15.585 16.2602C15.5482 16.4232 15.3179 16.5093 15.0709 16.453C14.8238 16.3967 14.6537 16.2195 14.6906 16.0565C14.7087 15.9757 14.7746 15.9142 14.8658 15.8787C14.9234 15.9233 15.1627 15.964 15.3444 15.911" fill="#F3F6F9"/>
<path d="M15.1788 15.3017C15.171 15.3017 15.1632 15.3024 15.1548 15.303C14.9265 15.2177 14.8729 15.0993 14.8845 14.9499C14.7655 14.9499 14.5165 14.9699 14.5385 15.1601C14.5527 15.2791 14.6898 15.3858 14.8489 15.4162C14.8069 15.4563 14.783 15.5035 14.7836 15.5553C14.7855 15.6924 14.9653 15.8004 15.1852 15.7978C15.4058 15.7946 15.583 15.6807 15.581 15.5443C15.5791 15.4071 15.3993 15.2985 15.1788 15.3017" fill="#F3F6F9"/>
<path d="M16.6113 16.5929C16.5181 16.7443 16.2704 16.7617 16.0589 16.631C15.8468 16.501 15.7511 16.2728 15.8442 16.1214C15.9373 15.9694 16.1844 15.952 16.3965 16.0826C16.6087 16.2126 16.7044 16.4416 16.6113 16.5929Z" fill="#F3F6F9"/>
<path d="M17.915 17.8903C17.915 18.2143 17.6175 18.4775 17.2508 18.4775C16.8834 18.4775 16.5859 18.2143 16.5859 17.8903C16.5859 17.5662 16.8834 17.303 17.2508 17.303C17.6175 17.303 17.915 17.5662 17.915 17.8903Z" fill="#F3F6F9"/>
<path d="M18.2334 15.5241C18.3369 15.5688 18.4112 15.6457 18.43 15.7427C18.4662 15.9316 18.2825 16.1256 18.0193 16.1761C17.7561 16.2272 17.5135 16.1159 17.4773 15.9277C17.4592 15.8339 17.4948 15.7402 17.5666 15.6626C17.65 15.7208 18.0743 15.7466 18.2334 15.5241" fill="#F3F6F9"/>
<path d="M18.4989 16.7986C18.2234 16.7895 18.0067 16.5864 18.0138 16.3445C18.1678 16.3659 18.4996 16.2055 18.5261 15.9215C18.8009 15.93 19.0183 16.1331 19.0105 16.3756C19.0034 16.6175 18.7744 16.807 18.4989 16.7986Z" fill="#F3F6F9"/>
<path d="M16.8145 16.8262C17.4534 16.8824 17.6171 16.605 17.674 16.3463C17.7076 16.3612 17.7387 16.3786 17.7678 16.398C17.9152 16.4957 18.0038 16.6438 17.989 16.8009C17.965 17.0551 17.6805 17.2356 17.3519 17.2045C17.0841 17.1793 16.8714 17.0215 16.8145 16.8262" fill="#F3F6F9"/>
<path d="M15.5408 17.3237C15.5828 17.2254 15.6714 17.1569 15.7839 17.1232C15.7898 17.2487 15.9424 17.6872 16.6001 17.5766C16.5788 17.6251 16.5749 17.7409 16.6402 17.7926C16.5471 18.0093 16.227 18.0811 15.923 17.9517C15.619 17.8224 15.4483 17.541 15.5408 17.3237" fill="#F3F6F9"/>
<path d="M15.8131 16.9705C15.7665 17.1186 15.5363 17.1781 15.2989 17.1037C15.0609 17.0293 14.905 16.8489 14.9516 16.7014C15.0266 16.737 15.2323 16.7803 15.4658 16.5682C15.7038 16.6426 15.8596 16.8224 15.8131 16.9705Z" fill="#F3F6F9"/>
<path d="M16.8546 17.3491C16.7699 17.3743 16.6748 17.3892 16.5739 17.3892C16.2234 17.3892 15.9395 17.2165 15.9395 17.0031C16.0048 16.9862 16.2939 17.0684 16.625 16.7599C16.5966 16.9772 16.6826 17.2262 16.8546 17.3491" fill="#F3F6F9"/>
<path d="M17.311 14.3234C17.0077 14.5135 16.7794 14.5478 16.6895 14.4786C16.9695 14.4048 17.1661 14.2296 17.1286 14.0873C17.0969 13.9676 16.9087 13.9095 16.6824 13.9386C16.663 14.0737 16.6132 14.2503 16.1223 14.2542C16.108 14.2891 16.1042 14.3227 16.1126 14.3557C16.1397 14.4579 16.2807 14.5148 16.4618 14.5116C16.3732 14.725 16.1333 14.811 15.8772 14.7774C15.8694 14.9456 16.0822 15.0917 16.3525 15.1046C16.6229 15.1169 16.8479 14.9908 16.8557 14.822C16.8563 14.8162 16.8557 14.8104 16.8557 14.8039C16.9068 14.8175 16.9618 14.8272 17.02 14.8304C17.2942 14.8453 17.5232 14.7321 17.5322 14.5762C17.5374 14.4747 17.4488 14.3809 17.311 14.3234" fill="#F3F6F9"/>
<path d="M14.9668 14.5682C14.9668 14.4298 14.7366 14.3173 14.4533 14.3173C14.4423 14.3173 14.4248 14.316 14.4074 14.3147C14.364 13.71 14.3201 13.0497 14.3265 12.6668C14.3304 12.4611 14.2922 12.2438 14.0167 12.1416C13.7658 12.0485 12.859 11.7012 12.5732 11.6359C12.2175 11.6391 11.9057 11.8422 11.6289 12.0381C11.7104 12.0356 11.7324 12.0239 11.8042 12.0258C12.1909 12.0368 12.3086 12.0207 12.6689 12.1235C12.903 12.1908 13.1223 12.3117 13.1811 12.4152C13.2587 12.5536 13.5317 12.7793 13.6423 12.7793C13.7528 12.7793 13.9119 12.6745 14.1183 12.5271C14.0665 12.844 13.9107 12.9811 13.8007 13.124C13.6901 13.267 13.6293 13.5813 13.7095 13.959C13.7781 13.787 13.7826 13.4228 14.0749 13.2612C13.9423 13.5037 13.9378 14.1892 13.9378 14.4615C13.9378 14.7338 14.1435 15.1361 14.4753 15.7764C14.507 15.6386 14.4746 15.3508 14.4416 14.8185C14.4455 14.8185 14.4494 14.8192 14.4533 14.8192C14.7366 14.8192 14.9668 14.7066 14.9668 14.5682" fill="#F3F6F9"/>
<path d="M17.2769 15.9311C17.1754 16.0675 17.0809 16.3146 16.7207 16.3831C16.8138 16.5332 17.0628 16.5746 17.3015 16.4731C17.3552 16.4498 17.4037 16.4213 17.447 16.389C17.3092 16.2001 17.2834 16.0882 17.2769 15.9311" fill="#F3F6F9"/>
<path d="M18.0098 14.8416C17.7582 14.7342 17.5092 14.7543 17.453 14.8856C17.429 14.9425 17.4666 15.0738 17.548 15.143C17.4368 15.1385 17.3682 15.121 17.2609 14.971C17.1503 15.0233 17.0365 14.9955 16.9757 14.989C16.9511 15.0634 16.9647 15.1443 17.008 15.2187C16.8806 15.1702 16.7131 15.1921 16.5682 15.2892C16.3554 15.4308 16.2726 15.6791 16.3826 15.8441C16.4925 16.0083 16.7538 16.0271 16.966 15.8848C17.1548 15.7593 17.2408 15.5498 17.1813 15.3894C17.2201 15.4127 17.2635 15.4334 17.31 15.4489C17.5293 15.522 17.7492 15.467 17.8313 15.3267C18.0745 15.4224 18.3099 15.4004 18.3642 15.2736C18.4199 15.1423 18.2614 14.949 18.0098 14.8416" fill="#F3F6F9"/>
<path d="M7.53176 5.1872C6.89147 5.6561 7.34808 6.21942 6.82227 6.49946C7.4341 6.48006 7.26917 5.59854 7.53176 5.1872ZM9.66669 4.53141C9.68351 4.52559 9.64923 4.40399 9.44356 4.41563C9.7055 4.27399 9.895 4.42013 9.88982 4.44535C9.87689 4.51003 9.80575 4.53979 9.79799 4.58959C9.7954 4.61029 9.84391 4.62386 9.85555 4.64391C9.83097 4.64327 9.78828 4.66332 9.76694 4.66397C9.75789 4.68401 9.73525 4.75645 9.71391 4.75839C9.5852 4.75451 9.50953 4.61675 9.42675 4.59153C9.4455 4.59929 9.527 4.54628 9.66669 4.53141V4.53141ZM9.39441 3.89306C9.65182 3.80769 9.63436 3.66151 9.53734 3.47589C9.98619 3.69579 9.92604 3.9448 9.39441 3.89306ZM10.3374 7.02594C9.99913 6.77952 9.99201 6.52665 9.82903 6.60814C10.0347 7.0544 9.9946 7.37451 9.34202 7.70242C9.2974 7.58277 9.46296 7.51422 9.59426 7.38551C9.74236 7.24129 9.79346 7.02721 9.70873 6.68831C9.69127 6.61911 9.54898 6.26532 9.22884 6.27114C9.41123 6.53372 9.59943 6.81639 9.42934 7.2633C9.42869 6.88559 9.34849 6.7653 9.09108 6.46003C9.0167 6.55251 8.83691 6.66567 8.82009 6.87716C8.60278 6.76268 9.11695 6.18902 9.00959 5.93355C8.86407 5.85659 8.79551 5.68262 8.77547 5.51058C8.92099 5.66127 9.15705 5.79319 9.44292 5.83652C9.57421 5.85657 9.70873 5.84237 9.7346 5.75118C9.76047 5.65934 9.71455 5.64122 9.72038 5.60177C9.72361 5.57978 9.71585 5.52805 9.80122 5.53063C9.82968 5.45173 9.79734 5.42778 9.75465 5.39674C9.84132 5.39674 9.86977 5.34177 9.8756 5.32236C9.85878 5.29197 9.83873 5.27126 9.85749 5.22664C9.89176 5.14191 10.0709 5.19368 10.0845 5.10249C10.0923 5.05075 10.0573 5.00675 10.0334 4.95178C9.9946 4.86382 9.9933 4.86512 9.92151 4.69049C9.88594 4.60253 9.93251 4.5191 9.94739 4.38587C9.9642 4.23194 9.89177 4.03016 9.89177 4.03016C10.1207 3.88076 10.0961 3.65568 9.99848 3.6214C9.75853 3.55284 9.39441 3.09561 8.92293 3.06133C8.56268 3.03546 8.0912 3.03547 7.87648 3.31034C7.71932 3.51148 7.38106 3.82059 7.31962 4.15044C7.25171 4.51068 7.33708 4.89032 7.57767 5.06171C7.49748 4.76421 7.49295 4.59671 7.49942 4.42467C7.50653 4.24099 7.59384 3.52439 8.26712 3.212C8.63965 3.11305 9.12019 3.12146 9.27411 3.37886C8.99148 3.29285 8.68298 3.32715 8.43398 3.42998C8.18562 3.53282 7.90235 3.79021 7.98255 4.21901C7.78787 4.22483 7.75553 4.02109 7.75359 4.01914C7.69797 4.16272 7.61972 4.62001 7.96961 4.85672C8.05045 4.91169 8.15976 4.85605 8.12354 4.79719C7.97996 4.56371 8.09185 4.37359 8.14229 4.35484C8.26841 4.30698 8.38935 4.18215 8.40811 4.02175C8.51159 4.21901 8.45985 4.35612 8.33955 4.47642C8.7082 4.3904 8.52 4.23064 8.99989 4.16208C8.70303 4.33347 8.80457 4.55919 8.4896 4.66073C9.03417 4.85799 8.94427 3.99199 9.53152 4.05925C9.02123 4.11164 9.07685 5.43619 7.92563 5.67097C7.76523 6.38822 7.48519 6.43673 7.07385 6.61394C7.91075 6.85971 8.25677 7.94626 9.14864 7.78587C9.05745 7.94626 8.93133 7.94562 8.81686 7.94562C8.80586 8.17457 8.83691 8.36018 9.0083 8.35178C9.78893 8.18039 9.97714 7.33117 10.7093 7.20247C10.6808 7.11128 10.4635 7.12877 10.3374 7.02594" fill="#F3F6F9"/>
<path d="M4.11597 12.413C4.3792 12.3179 4.68058 12.3017 4.86555 12.3386C4.15412 14.7995 4.89401 16.8199 5.41012 17.7034C5.06281 17.8121 4.70322 17.7603 4.63272 17.728C3.95104 16.3718 3.47697 14.3577 4.11597 12.413Z" fill="#F3F6F9"/>
<path d="M2.75781 14.8907C2.76945 15.1423 2.81538 15.4799 2.84901 15.6338C3.75252 15.4682 4.89275 15.348 6.86535 15.3091C6.88475 15.108 6.82849 14.6592 6.79615 14.5479C5.58737 14.4393 3.48218 14.6152 2.75781 14.8907Z" fill="#F3F6F9"/>
<path d="M19.3601 16.98C19.1932 17.209 18.8782 17.5789 18.6616 17.7949C18.3815 17.7257 18.1855 17.5621 18.1855 17.3713C18.1855 17.1184 18.5322 16.9134 18.9604 16.914C19.1065 16.914 19.2436 16.938 19.3601 16.98" fill="#F3F6F9"/>
<path d="M16.5459 13.8859C16.5414 13.9926 16.3267 14.0696 16.066 14.0579C15.806 14.0463 15.5991 13.9505 15.6036 13.8445C15.6081 13.7378 15.8228 13.6608 16.0835 13.6724C16.3435 13.6834 16.5504 13.7792 16.5459 13.8859Z" fill="#F3F6F9"/>
<path d="M15.7817 13.6091C15.7494 13.5302 15.4919 13.5619 15.2074 13.679C14.9234 13.7967 14.7191 13.9558 14.7514 14.034C14.7837 14.1129 15.0412 14.0819 15.3257 13.9642C15.6097 13.8471 15.814 13.688 15.7817 13.6091Z" fill="#F3F6F9"/>
<path d="M15.6472 14.7876C15.5844 14.8846 15.5786 14.9933 15.6899 15.1252C15.6135 15.164 15.5107 15.188 15.3982 15.188C15.1602 15.188 14.9668 15.0813 14.9668 14.9506C14.9668 14.8193 15.1602 14.7133 15.3982 14.7133C15.4415 14.7475 15.4984 14.7935 15.6472 14.7876" fill="#F3F6F9"/>
</svg>
