<svg width="22" height="16" viewBox="0 0 22 16" fill="none" xmlns="http://www.w3.org/2000/svg">
<path fill-rule="evenodd" clip-rule="evenodd" d="M7.01294 7.449V9.33041C7.01294 9.61766 7.05216 9.81907 7.13097 9.93458C7.20972 10.0497 7.34996 10.1075 7.55164 10.1075C7.83661 10.1075 8.06163 9.99112 8.22641 9.75928C8.39113 9.52699 8.4737 9.21332 8.4737 8.81857C8.4737 8.38253 8.37035 8.04515 8.1642 7.80683C7.95762 7.56857 7.67487 7.449 7.31563 7.449H7.01294ZM7.16942 4.53461H7.01294V7.00374H7.16942C7.47624 7.00374 7.72353 6.88499 7.91123 6.64832C8.099 6.4112 8.1928 6.0859 8.1928 5.6719C8.1928 5.30886 8.10575 5.02848 7.93159 4.83107C7.75708 4.63328 7.50298 4.53461 7.16942 4.53461ZM4.4082 10.572V10.1263C4.69126 10.1199 4.87711 10.075 4.96529 9.99112C5.05389 9.9077 5.09837 9.75845 5.09837 9.54345V5.14595C5.09837 4.9819 5.08291 4.85712 5.05163 4.77173C5.0207 4.68627 4.96834 4.62731 4.89484 4.59402C4.82093 4.56073 4.65884 4.54103 4.4082 4.53461V4.08936L6.20551 4.13669L6.93526 4.11782L8.11894 4.08936C9.47451 4.08936 10.1523 4.58519 10.1523 5.57723C10.1523 5.84879 10.0871 6.10071 9.95703 6.33299C9.82658 6.56528 9.64072 6.74782 9.39946 6.88061C9.15784 7.01295 8.80499 7.10165 8.33984 7.14574V7.28336C9.12202 7.33069 9.6803 7.47994 10.0151 7.73103C10.3502 7.98212 10.5175 8.34161 10.5175 8.80891C10.5175 9.37775 10.3132 9.80979 9.90538 10.105C9.49785 10.4003 8.91246 10.5483 8.15023 10.5483L6.98882 10.5339L6.0498 10.5243L4.4082 10.572Z" fill="#3F6587"/>
<path fill-rule="evenodd" clip-rule="evenodd" d="M10.6663 4.53285V4.08936L11.2952 4.10809L12.5577 4.1365C13.1056 4.1365 13.6703 4.12087 14.2506 4.08936V4.53285C13.9508 4.53924 13.7506 4.58556 13.6507 4.67232C13.5507 4.75858 13.5008 4.89647 13.5008 5.08506V8.92245L13.5155 9.61173L13.5299 10.2203C13.5299 11.0257 13.3202 11.57 12.9013 11.8532C12.6945 11.9919 12.3538 12.0974 11.878 12.1697C11.4022 12.242 10.8727 12.278 10.2891 12.278H10.1777V11.8345C10.4422 11.8345 10.683 11.7722 10.9009 11.6479C11.1187 11.5236 11.2588 11.3262 11.3219 11.0557C11.3845 10.7848 11.416 10.3257 11.416 9.67761V4.98115C11.416 4.82414 11.3636 4.70985 11.2588 4.63916C11.154 4.56841 10.9566 4.53285 10.6663 4.53285Z" fill="#3F6587"/>
<mask id="mask0_5838_133948" style="mask-type:alpha" maskUnits="userSpaceOnUse" x="0" y="0" width="22" height="16">
<path d="M0 0H22V16H0V0Z" fill="#3F6587"/>
</mask>
<g mask="url(#mask0_5838_133948)">
<path fill-rule="evenodd" clip-rule="evenodd" d="M14.7809 8.35936H15.29V8.40098C15.29 8.8767 15.4231 9.25134 15.6898 9.52423C15.9565 9.79742 16.3082 9.93426 16.7445 9.93426C17.0477 9.93426 17.2878 9.87129 17.4648 9.74577C17.6422 9.62019 17.7307 9.4519 17.7307 9.24051C17.7307 9.10871 17.6934 8.98159 17.6195 8.85922C17.5452 8.73635 17.4413 8.63102 17.3082 8.54207C17.1746 8.45343 16.8095 8.23268 16.2127 7.88014C15.746 7.60497 15.4355 7.39937 15.2808 7.26486C15.1265 7.12999 14.9976 6.98582 14.8945 6.83267C14.7005 6.53885 14.6035 6.20767 14.6035 5.84041C14.6035 5.22785 14.831 4.75681 15.2854 4.4276C15.7398 4.09838 16.3778 3.93359 17.199 3.93359C17.8746 3.93359 18.5414 4.01756 19.1991 4.18586L19.0036 6.00871H18.5219C18.5095 5.49138 18.3779 5.09458 18.1263 4.81744C17.8746 4.54031 17.5445 4.40193 17.1354 4.40193C16.8719 4.40193 16.661 4.46299 16.5036 4.58537C16.3458 4.70781 16.2674 4.8734 16.2674 5.08134C16.2674 5.28036 16.3436 5.46109 16.4967 5.62311C16.6499 5.7852 16.9673 5.99511 17.449 6.25199C18.2036 6.65624 18.715 7.01728 18.9832 7.33559C19.2514 7.65391 19.3853 8.02744 19.3853 8.45576C19.3853 9.0679 19.1336 9.53937 18.6307 9.86975C18.1278 10.2005 17.4552 10.3657 16.6125 10.3657C15.9368 10.3657 15.2854 10.2677 14.6582 10.0718L14.7809 8.35936Z" fill="#3F6587"/>
<path fill-rule="evenodd" clip-rule="evenodd" d="M21.8927 4.64637C21.8927 4.64637 21.758 4.53717 21.5056 4.33237C21.2512 4.13138 20.8745 3.85154 20.3697 3.52349C19.8644 3.19939 19.2311 2.83829 18.4773 2.48421C17.7227 2.13401 16.8473 1.78965 15.8626 1.52071C14.8803 1.24862 13.7941 1.03643 12.6358 0.943169C11.4791 0.847139 10.2517 0.857665 9.00886 1.03255C7.7683 1.21175 6.50964 1.54558 5.33606 2.09633C5.18675 2.15968 5.04554 2.23896 4.9008 2.31166C4.75502 2.38276 4.61534 2.46519 4.47566 2.54682L4.27863 2.66107L4.06241 2.80179C3.90846 2.89696 3.7973 2.98714 3.67261 3.07695C3.16928 3.45319 2.72562 3.91414 2.36623 4.41553C2.01916 4.92658 1.75174 5.4859 1.62017 6.0755C1.5524 6.36938 1.50779 6.66707 1.50011 6.96674C1.48896 7.11559 1.50048 7.26603 1.50163 7.41451C1.51705 7.56336 1.52053 7.71221 1.54783 7.85951C1.58476 8.15487 1.6621 8.44487 1.74675 8.72896C1.79635 8.86968 1.83987 9.01114 1.89874 9.14835C1.92683 9.21711 1.95225 9.28667 1.98187 9.3547L2.07615 9.55685C2.33162 10.0928 2.65523 10.595 3.0246 11.054C3.11468 11.1706 3.20621 11.2856 3.30513 11.3948L3.44944 11.5608L3.60143 11.7198L3.75306 11.878L3.91041 12.0299L3.98812 12.1065L4.02663 12.145L4.04583 12.164L4.05588 12.1737C4.06472 12.1819 4.01005 12.1345 4.03852 12.159L4.21671 12.3129C4.33519 12.4151 4.45293 12.5169 4.56994 12.618C4.63033 12.674 4.68189 12.7035 4.73692 12.7451L4.89855 12.8613C5.00861 12.9379 5.10557 13.0226 5.22136 13.0968C5.33874 13.1707 5.45569 13.2441 5.57154 13.3168C6.50659 13.8928 7.49277 14.2936 8.43514 14.5536C9.37897 14.8128 10.2806 14.9309 11.084 14.9605C11.4877 14.9888 11.8628 14.9566 12.2145 14.9442C12.5597 14.9003 12.8883 14.8878 13.1718 14.819C13.3158 14.7914 13.452 14.7638 13.5824 14.7413C13.7098 14.7117 13.8267 14.6752 13.9379 14.646C14.0492 14.6153 14.1519 14.587 14.2462 14.561C14.3412 14.5349 14.4216 14.4984 14.497 14.4723C14.7999 14.3616 14.9611 14.3025 14.9611 14.3025L15.0435 14.4459C15.0435 14.4459 14.8976 14.5462 14.6244 14.7347C14.5544 14.779 14.4801 14.8392 14.3897 14.887C14.2993 14.9349 14.2 14.9873 14.093 15.0436C13.9853 15.0992 13.8706 15.1642 13.7444 15.2244C13.6163 15.2784 13.4786 15.3325 13.3323 15.3908C13.2592 15.4199 13.1838 15.4498 13.1064 15.4805C13.0295 15.5124 12.9471 15.5314 12.8644 15.5583C12.6974 15.608 12.5223 15.6604 12.34 15.7149C11.9694 15.7895 11.565 15.8886 11.1263 15.929C10.2505 16.0332 9.24123 16.034 8.15882 15.8552C7.07757 15.6784 5.91977 15.3239 4.78812 14.7187C4.64728 14.6414 4.50564 14.5637 4.36328 14.4851C4.22092 14.4035 4.0766 14.3025 3.93351 14.2076L3.71881 14.0611C3.64915 14.0125 3.56834 13.962 3.51331 13.9142C3.39246 13.8178 3.27088 13.7206 3.14893 13.6231L2.96537 13.4762L2.92612 13.4423L2.91417 13.4314L2.89071 13.4101L2.84379 13.3669L2.74951 13.2807C2.6225 13.1664 2.50019 13.0455 2.38086 12.9196L2.20004 12.7323L2.02575 12.5348C1.90721 12.4054 1.79562 12.2678 1.68519 12.1275C1.25152 11.5627 0.855941 10.939 0.569691 10.244C0.27497 9.55451 0.0790982 8.80283 0.0190691 8.02664C-0.00250474 7.83421 0.00176128 7.6376 -0.00402832 7.44283C0.00444278 7.24738 0.00480844 7.05144 0.0302217 6.85637C0.0652031 6.46572 0.144856 6.07821 0.256077 5.7016C0.363032 5.32345 0.518498 4.96081 0.691272 4.61141C0.865996 4.2612 1.08222 3.93704 1.31119 3.62654C1.7852 3.01669 2.34009 2.49043 2.96 2.06445C3.11888 1.95758 3.28477 1.84216 3.42713 1.76207L3.64872 1.63034L3.90231 1.49504C4.06198 1.40953 4.22128 1.32483 4.38601 1.25256C4.54952 1.17789 4.70999 1.09706 4.87697 1.03372C6.1945 0.474774 7.57127 0.190684 8.89916 0.0643675C9.56405 -0.000145209 10.2202 -0.00907111 10.8588 0.0068724C11.4984 0.0208461 12.121 0.0806804 12.7216 0.165015C13.9241 0.332145 15.0365 0.617035 16.0343 0.955973C17.034 1.2922 17.9136 1.69793 18.6659 2.10138C19.4184 2.50674 20.0426 2.91524 20.5336 3.28139C21.0231 3.64753 21.392 3.96271 21.6341 4.18112C21.8727 4.40266 21.9996 4.52086 21.9996 4.52086L21.8927 4.64637Z" fill="#3F6587"/>
</g>
</svg>
