<svg width="22" height="22" viewBox="0 0 22 22" fill="none" xmlns="http://www.w3.org/2000/svg">
<path d="M22 12.8934C21.2896 12.1422 20.5062 11.5042 19.6809 10.9897C20.4957 10.4752 21.2792 9.82694 21.9896 9.07577C21.0598 8.61272 20.0988 8.27315 19.1481 8.06735C19.7331 7.30589 20.245 6.43124 20.6629 5.49485C19.6287 5.37137 18.6154 5.38166 17.6439 5.50514C17.9364 4.58934 18.114 3.6015 18.1662 2.5725C17.1529 2.80917 16.1918 3.14874 15.3352 3.59121C15.283 2.63424 15.1159 1.6464 14.8129 0.658559C13.9459 1.22451 13.1624 1.87278 12.5043 2.5725C12.1282 1.68756 11.6163 0.823199 10.9896 0C10.3628 0.823199 9.86135 1.69785 9.48528 2.58279C8.82716 1.87278 8.04368 1.22451 7.17664 0.668849C6.87369 1.6464 6.70655 2.63424 6.65432 3.59121C5.78727 3.14874 4.83666 2.80917 3.82336 2.5725C3.88604 3.6015 4.06363 4.58934 4.35613 5.50514C3.38462 5.38166 2.37132 5.38166 1.32669 5.50514C1.73409 6.45182 2.24596 7.31618 2.84141 8.07764C1.89079 8.29373 0.929725 8.6333 0 9.09635C0.710351 9.84752 1.49383 10.4855 2.31909 11C1.50427 11.5145 0.720798 12.1628 0.0104463 12.9139C0.940171 13.377 1.90123 13.7166 2.85185 13.9224C2.26686 14.6838 1.75499 15.5585 1.33713 16.4949C2.37132 16.6183 3.38462 16.608 4.34568 16.4949C4.05318 17.4107 3.87559 18.3985 3.82336 19.4172C4.83666 19.1805 5.79772 18.841 6.65432 18.3985C6.69611 19.3555 6.87369 20.3433 7.17664 21.3311C8.04368 20.7652 8.82716 20.1272 9.48528 19.4172C9.86135 20.3022 10.3732 21.1768 11 22C11.6268 21.1768 12.1282 20.3022 12.5043 19.4172C13.1624 20.1272 13.9459 20.7755 14.8234 21.3311C15.1263 20.3536 15.2934 19.3658 15.3457 18.3985C16.2127 18.841 17.1738 19.1805 18.1871 19.4172C18.1244 18.3882 17.9468 17.4107 17.6543 16.4949C18.6154 16.6183 19.6391 16.6183 20.6733 16.4949C20.2659 15.5482 19.754 14.6838 19.1586 13.9224C20.1092 13.696 21.0703 13.3564 22 12.8934Z" fill="#3F6587"/>
<path d="M19.1592 13.9118C18.616 13.2121 17.9997 12.5947 17.3311 12.0905C18.1355 11.8435 18.919 11.4628 19.6816 10.9895C18.919 10.5161 18.1355 10.1457 17.3311 9.89873C17.9997 9.39453 18.6056 8.77713 19.1592 8.06712C18.2817 7.87161 17.4147 7.78929 16.5685 7.83045C17.0177 7.13073 17.3834 6.34869 17.6445 5.49462C16.7566 5.60781 15.9104 5.8239 15.1269 6.14289C15.3045 5.32998 15.3777 4.47591 15.3254 3.58068C14.5315 3.99228 13.8107 4.47591 13.1944 5.04186C13.0795 4.21866 12.8496 3.38517 12.4945 2.57227C11.8781 3.23082 11.3767 3.93054 10.9902 4.67142C10.6037 3.94083 10.0918 3.23082 9.47547 2.58256C9.13074 3.39546 8.90092 4.22895 8.79646 5.04186C8.18012 4.4862 7.44888 3.99228 6.64451 3.59097C6.60272 4.47591 6.67585 5.34027 6.85344 6.15318C6.08041 5.83419 5.23425 5.62839 4.33587 5.5152C4.60747 6.35898 4.97309 7.14102 5.42229 7.84074C4.58658 7.80987 3.70909 7.89219 2.82115 8.0877C3.36436 8.78742 3.98069 9.40481 4.64926 9.90902C3.84489 10.156 3.06141 10.5367 2.29883 11.0101C3.06141 11.4834 3.84489 11.8538 4.64926 12.1008C3.98069 12.605 3.3748 13.2224 2.82115 13.9324C3.69864 14.1279 4.56569 14.2102 5.40139 14.1691C4.9522 14.8688 4.58658 15.6508 4.32542 16.5049C5.21336 16.3917 6.06996 16.1756 6.84299 15.8566C6.6654 16.6593 6.59228 17.5236 6.63406 18.4086C7.43843 17.997 8.15923 17.5133 8.77556 16.9577C8.89047 17.7809 9.12029 18.6144 9.46502 19.4273C10.0709 18.7687 10.5828 18.069 10.9693 17.3384C11.3558 18.069 11.8677 18.779 12.484 19.4273C12.8287 18.6144 13.0586 17.7809 13.1735 16.9577C13.7898 17.5133 14.5211 18.0072 15.3254 18.4086C15.3672 17.5236 15.2941 16.6593 15.1165 15.8566C15.8895 16.1756 16.7461 16.3814 17.6341 16.4946C17.3625 15.6508 16.9968 14.8688 16.5476 14.1691C17.4042 14.1897 18.2817 14.1073 19.1592 13.9118Z" fill="#F3F6F9"/>
<path d="M15.3356 11.0002C16.0355 10.743 16.7146 10.3725 17.3413 9.89919C16.5892 9.66252 15.8266 9.54933 15.0849 9.53904C15.6595 9.0657 16.1609 8.48946 16.5788 7.8309C15.7953 7.86177 15.0327 8.00583 14.3328 8.26308C14.7089 7.6251 14.9805 6.91509 15.1476 6.15363C14.4164 6.45204 13.7582 6.84306 13.1837 7.3164C13.3091 6.58581 13.3195 5.82435 13.215 5.0526C12.63 5.57739 12.1391 6.17421 11.763 6.81219C11.6272 6.0816 11.3765 5.3613 11.0109 4.67188C10.6557 5.3613 10.3945 6.07131 10.2692 6.79161C9.8931 6.15363 9.40212 5.5671 8.81712 5.04231C8.71266 5.81406 8.7231 6.57552 8.84846 7.30611C8.27391 6.83277 7.60535 6.44175 6.8741 6.15363C7.04124 6.91509 7.31285 7.6251 7.68892 8.26308C6.98901 8.01612 6.22643 7.87206 5.44295 7.84119C5.87125 8.49975 6.37268 9.0657 6.93678 9.54933C6.18464 9.54933 5.42206 9.67281 4.66992 9.90948C5.2967 10.3828 5.96527 10.7533 6.67562 11.0002C5.97572 11.2575 5.2967 11.6279 4.66992 12.1012C5.42206 12.3276 6.18464 12.4511 6.92633 12.4614C6.35178 12.9347 5.85036 13.511 5.42206 14.1695C6.20554 14.1387 6.96812 13.9946 7.66802 13.7476C7.29196 14.3856 7.02035 15.1059 6.85321 15.8571C7.58445 15.5587 8.24257 15.1677 8.81712 14.6943C8.69177 15.4249 8.68132 16.1761 8.78578 16.9478C9.37078 16.423 9.86176 15.8365 10.2378 15.1985C10.3736 15.9291 10.6243 16.6391 10.99 17.3286C11.3556 16.6391 11.6063 15.9291 11.7421 15.1985C12.1182 15.8365 12.6091 16.423 13.1941 16.9478C13.2986 16.1761 13.2882 15.4146 13.1628 14.6943C13.7374 15.1677 14.4059 15.5587 15.1372 15.8571C14.97 15.0956 14.6984 14.3856 14.3223 13.7476C15.0327 13.9946 15.7848 14.1387 16.5788 14.1695C16.1505 13.511 15.649 12.945 15.0745 12.4614C15.8266 12.4614 16.5892 12.3379 17.3413 12.1012C16.7041 11.6176 16.0355 11.2472 15.3356 11.0002Z" fill="#3F6587"/>
<path d="M13.1943 11.3706C13.9256 11.3706 14.6463 11.2369 15.3254 10.9899C14.6359 10.7429 13.9256 10.6092 13.1943 10.6092C13.8838 10.3622 14.5105 9.99176 15.0642 9.52871C14.333 9.52871 13.6122 9.6419 12.9227 9.88886C13.4868 9.42581 13.9464 8.87015 14.3121 8.24247C13.6226 8.48943 12.9958 8.83929 12.4317 9.30233C12.7973 8.67465 13.0376 7.99551 13.163 7.29579C12.5989 7.75884 12.1288 8.3042 11.7527 8.93189C11.8781 8.22188 11.8676 7.50159 11.7423 6.79158C11.3766 7.40898 11.1259 8.07783 11.0006 8.77754C10.8752 8.06754 10.6141 7.3884 10.2484 6.771C10.1231 7.48101 10.1126 8.20131 10.238 8.91131C9.87237 8.28363 9.39183 7.73826 8.83818 7.27521C8.96353 7.98522 9.2038 8.66436 9.56942 9.28175C9.00532 8.81871 8.36809 8.46885 7.68908 8.22189C8.0547 8.84958 8.51434 9.39494 9.07844 9.86828C8.38898 9.62132 7.66818 9.50813 6.94739 9.50813C7.50104 9.97118 8.12782 10.3313 8.81728 10.5886C8.08604 10.5886 7.36524 10.7224 6.67578 10.9693C7.36524 11.2163 8.07559 11.35 8.80684 11.35C8.11738 11.597 7.4906 11.9674 6.92649 12.4305C7.65774 12.4305 8.37854 12.3173 9.068 12.0703C8.50389 12.5334 8.04425 13.0891 7.67863 13.7167C8.36809 13.4698 9.00532 13.1199 9.55898 12.6569C9.19335 13.2846 8.95309 13.9637 8.82773 14.6737C9.39183 14.2107 9.86192 13.6653 10.2275 13.0479C10.1022 13.7579 10.1126 14.4782 10.238 15.1779C10.6036 14.5605 10.8648 13.8814 10.9901 13.1817C11.1155 13.8917 11.3766 14.5605 11.7423 15.1882C11.8676 14.4782 11.8781 13.7682 11.7527 13.0582C12.1183 13.6859 12.5989 14.2312 13.1525 14.684C13.0272 13.974 12.7869 13.3051 12.4213 12.6775C12.9854 13.1405 13.6226 13.4904 14.3121 13.7373C13.9464 13.1096 13.4868 12.5643 12.9227 12.0909C13.6122 12.3379 14.333 12.4511 15.0642 12.4511C14.5105 11.988 13.8838 11.6279 13.1943 11.3706Z" fill="#F3F6F9"/>
</svg>
