<svg width="47" height="32" viewBox="0 0 47 32" fill="none" xmlns="http://www.w3.org/2000/svg">
<path d="M22.6948 23.527C22.8656 23.527 23.0364 23.5613 23.2072 23.6298C23.378 23.6846 23.5417 23.7873 23.6982 23.9381L26.5591 26.8362C25.3066 28.412 23.7338 29.6041 21.8408 30.4125C19.962 31.2073 17.7345 31.6047 15.1583 31.6047C12.7956 31.6047 10.6749 31.221 8.79611 30.4536C6.93156 29.6726 5.34456 28.6038 4.03511 27.2472C2.73989 25.877 1.74356 24.2601 1.04614 22.3965C0.348713 20.5193 0 18.4845 0 16.292C0 14.0585 0.398529 12.01 1.19559 10.1465C1.99265 8.2692 3.10283 6.6523 4.52615 5.29575C5.9637 3.9392 7.6788 2.8841 9.67145 2.13046C11.6641 1.37682 13.8631 1 16.2685 1C17.4356 1 18.5316 1.10277 19.5564 1.30831C20.5954 1.50014 21.5633 1.77419 22.46 2.13046C23.3566 2.47302 24.1822 2.89095 24.9365 3.38424C25.6909 3.86383 26.3599 4.39823 26.9434 4.98744L24.5095 8.13218C24.353 8.32401 24.1679 8.50215 23.9544 8.66658C23.7409 8.81731 23.442 8.89267 23.0578 8.89267C22.8016 8.89267 22.5596 8.83786 22.3319 8.72824C22.1041 8.61862 21.8622 8.48845 21.606 8.33772C21.3498 8.17329 21.0651 8.002 20.752 7.82387C20.4531 7.63203 20.0901 7.46075 19.6631 7.31003C19.2504 7.14559 18.7593 7.00857 18.19 6.89895C17.6349 6.78933 16.9802 6.73452 16.2258 6.73452C14.9164 6.73452 13.7208 6.96061 12.6391 7.4128C11.5573 7.85128 10.6251 8.48844 9.84224 9.3243C9.07365 10.1465 8.46874 11.1467 8.02751 12.3252C7.60052 13.5036 7.38702 14.8259 7.38702 16.292C7.38702 17.8267 7.60052 19.1901 8.02751 20.3823C8.46874 21.5744 9.05942 22.5815 9.79955 23.4037C10.5539 24.2121 11.4292 24.8287 12.4256 25.2535C13.4219 25.6783 14.4894 25.8907 15.628 25.8907C16.2828 25.8907 16.8806 25.8633 17.4214 25.8085C17.9623 25.74 18.4604 25.6303 18.9159 25.4796C19.3856 25.3289 19.8268 25.137 20.2396 24.9041C20.6666 24.6575 21.0936 24.356 21.5206 23.9997C21.6914 23.8627 21.8764 23.7531 22.0757 23.6709C22.2749 23.575 22.4813 23.527 22.6948 23.527Z" fill="black"/>
<path d="M41.4369 21.8519L40.0278 29.0398H37.9599C37.5939 29.0398 37.2767 28.8989 37.0083 28.617C36.7399 28.3351 36.6057 27.9886 36.6057 27.5776C36.6057 27.5188 36.6057 27.466 36.6057 27.419C36.6179 27.3603 36.6301 27.3016 36.6423 27.2428L37.722 21.8519H33.9705L32.9091 27.4542C32.7994 28.018 32.5493 28.4232 32.1589 28.6699C31.7685 28.9165 31.3354 29.0398 30.8596 29.0398H28.8649L30.2557 21.8519H28.1512C27.7608 21.8519 27.4619 21.7638 27.2545 21.5876C27.0471 21.3997 26.9434 21.0943 26.9434 20.6715C26.9434 20.5071 26.9617 20.3191 26.9983 20.1077L27.2362 18.7159H30.7132L31.6648 13.8535H27.7486L28.0963 12.0389C28.1817 11.5926 28.3708 11.2637 28.6636 11.0523C28.9564 10.8291 29.4322 10.7176 30.091 10.7176H32.1223L33.2568 5.0447C33.3544 4.5749 33.5801 4.2108 33.9339 3.95241C34.2877 3.69402 34.7025 3.56482 35.1783 3.56482H37.2279L35.8371 10.7176H39.5703L40.9794 3.56482H42.9923C43.4193 3.56482 43.767 3.68227 44.0354 3.91717C44.3038 4.15208 44.438 4.45158 44.438 4.81567C44.438 4.93312 44.4319 5.02121 44.4197 5.07994L43.2851 10.7176H47L46.6523 12.5322C46.5669 12.9785 46.3717 13.3132 46.0667 13.5364C45.7739 13.7478 45.3042 13.8535 44.6576 13.8535H42.8276L41.8944 18.7159H44.4929C44.8833 18.7159 45.1761 18.8099 45.3713 18.9978C45.5787 19.174 45.6824 19.4794 45.6824 19.9139C45.6824 20.0784 45.6641 20.2663 45.6275 20.4777L45.4079 21.8519H41.4369ZM34.428 18.7159H38.1795L39.1128 13.8535H35.3796L34.428 18.7159Z" fill="black"/>
</svg>
