<svg width="22" height="12" viewBox="0 0 22 12" fill="none" xmlns="http://www.w3.org/2000/svg">
<g clip-path="url(#clip0_5838_134143)">
<path d="M13.8109 2.00408C13.8109 2.51741 13.5909 2.63964 13.322 2.63964H13.1509V1.36852H13.322C13.5909 1.36852 13.8109 1.49075 13.8109 2.00408ZM13.1509 3.76408H13.4442C14.2753 3.76408 15.0087 3.49519 15.0087 2.02852C15.0087 0.561858 14.2753 0.292969 13.4442 0.292969H11.9531V5.62186H13.1753V3.76408H13.1509Z" fill="#3F6587"/>
<path d="M2.46953 6.06201V8.11535H1.49175V6.06201H0.269531V11.3909H1.49175V9.21535H2.46953V11.3909H3.69175V6.06201H2.46953Z" fill="#3F6587"/>
<path d="M4.13086 6.06201V11.3909H7.18641V10.2909H5.35308V9.21535H6.81975V8.11535H5.35308V7.13757H7.18641V6.06201H4.13086Z" fill="#3F6587"/>
<path d="M14.814 6.06201H13.5918V11.3909H14.814V6.06201Z" fill="#3F6587"/>
<path d="M17.3806 7.13757H18.3095V6.06201H15.2539V7.13757H16.1828V11.3909H17.3806V7.13757Z" fill="#3F6587"/>
<path d="M20.8747 7.13757H21.8036V6.06201H18.748V7.13757H19.6525V11.3909H20.8747V7.13757Z" fill="#3F6587"/>
<path d="M15.2539 0.268555V5.62189H18.3095V4.52189H16.4761V3.44633H17.9428V2.34633H16.4761V1.36855H18.3095V0.268555H15.2539Z" fill="#3F6587"/>
<path d="M6.35448 3.12865C6.35448 4.35087 6.23226 4.61976 5.8167 4.61976H5.76781C5.35226 4.61976 5.23003 4.35087 5.23003 3.12865V2.76198C5.23003 1.53976 5.35226 1.27087 5.76781 1.27087H5.8167C6.23226 1.27087 6.35448 1.53976 6.35448 2.76198V3.12865ZM4.00781 3.03087C4.00781 5.01087 4.44781 5.67087 5.79226 5.67087C7.1367 5.67087 7.5767 5.01087 7.5767 3.03087V2.83531C7.5767 0.855312 7.1367 0.195312 5.79226 0.195312C4.44781 0.195312 4.00781 0.855312 4.00781 2.83531V3.03087Z" fill="#3F6587"/>
<path d="M0.146545 3.03084C0.146545 5.01084 0.733212 5.67084 2.00432 5.67084C3.17766 5.67084 3.71543 5.23084 3.71543 3.88639V3.73973H2.51766C2.49321 4.39973 2.3221 4.61973 2.02877 4.61973H1.93099C1.61321 4.61973 1.34432 4.35084 1.34432 3.12862V2.76195C1.34432 1.53973 1.61321 1.27084 1.93099 1.27084H1.97988C2.29766 1.27084 2.46877 1.46639 2.46877 2.34639H3.66654V2.00417C3.66654 0.635282 3.12877 0.219727 1.95543 0.219727C0.684323 0.219727 0.0976562 0.879726 0.0976562 2.85973V3.03084H0.146545Z" fill="#3F6587"/>
<path d="M10.1924 3.12865C10.1924 4.35087 10.0701 4.61976 9.65459 4.61976H9.6057C9.19015 4.61976 9.06793 4.35087 9.06793 3.12865V2.76198C9.06793 1.53976 9.19015 1.27087 9.6057 1.27087H9.65459C10.0701 1.27087 10.1924 1.53976 10.1924 2.76198V3.12865ZM7.8457 3.03087C7.8457 5.01087 8.2857 5.67087 9.63015 5.67087C10.9746 5.67087 11.4146 5.01087 11.4146 3.03087V2.83531C11.4146 0.855312 10.9746 0.195312 9.63015 0.195312C8.2857 0.195312 7.8457 0.855312 7.8457 2.83531V3.03087Z" fill="#3F6587"/>
<path d="M19.9703 3.76411H20.1903L20.508 5.62189H21.8036L21.2414 3.47078C21.5103 3.27522 21.8036 2.88411 21.8036 2.00411C21.8036 0.561888 21.0703 0.268555 20.2392 0.268555H18.748V5.62189H19.9703V3.76411ZM20.6303 2.00411C20.6303 2.51744 20.4103 2.63967 20.1414 2.63967H19.9703V1.36855H20.1414C20.4103 1.36855 20.6303 1.49078 20.6303 2.00411Z" fill="#3F6587"/>
<path d="M10.3405 6.06201H9.63158L9.0938 9.89979H9.06936L8.75158 6.06201H7.48047L8.2138 11.3909H9.80269L10.3405 7.74868H10.3649L10.8782 11.3909H12.4916L13.2005 6.06201H11.9294L11.636 9.89979H11.5871L11.0494 6.06201H10.3405Z" fill="#3F6587"/>
</g>
<defs>
<clipPath id="clip0_5838_134143">
<rect width="22" height="11.5867" fill="white"/>
</clipPath>
</defs>
</svg>
