<svg width="25" height="25" viewBox="0 0 25 25" fill="none" xmlns="http://www.w3.org/2000/svg">
<path d="M22.5016 0H2.49844C1.12344 0.00390625 0.00390625 1.12344 0 2.49844V22.5016C0.00390625 23.8766 1.12344 24.9961 2.49844 25H22.5016C23.8766 24.9961 24.9961 23.8766 25 22.5016V2.49844C24.9961 1.12344 23.8766 0.00390625 22.5016 0V0ZM7.34062 15.0672C8.44297 15.5719 9.74531 15.0836 10.25 13.9805H11.9797C10.9016 18.3953 4.40312 17.6141 4.40312 13.0687C4.40312 8.51953 10.9016 7.73828 11.9797 12.157H10.25C9.61484 10.7617 7.78047 10.4273 6.69766 11.5141C5.61094 12.5961 5.94453 14.4312 7.34062 15.0664V15.0672ZM19.157 15.9461C18.8273 16.2312 18.457 16.4508 18.05 16.6055C16.882 17.057 15.5641 16.9109 14.5219 16.207V16.6055H12.9469V5.59453H14.5094V9.875C15.0672 9.49687 15.7141 9.27266 16.3852 9.21953H16.6656C20.2219 9.21172 21.8578 13.6383 19.1563 15.9453L19.157 15.9461ZM18.925 13.0656C18.9492 14.2945 17.9609 15.3078 16.732 15.3078C15.5031 15.3078 14.5141 14.2945 14.543 13.0656C14.6039 10.2094 18.8602 10.2094 18.925 13.0656V13.0656Z" fill="#3F6587"/>
</svg>
