<svg width="52" height="31" viewBox="0 0 52 31" fill="none" xmlns="http://www.w3.org/2000/svg">
<path d="M1.32755 16.4247H4.27345C7.58519 16.4247 10.5118 17.5307 10.5118 21.7643C10.5118 25.9978 7.58519 27.1039 4.27345 27.1039H1.32755L1.32755 16.4247ZM3.50328 25.4257H4.7163C6.52621 25.4257 8.27835 24.0908 8.27835 21.7643C8.27835 19.4377 6.52621 18.1028 4.7163 18.1028H3.50328L3.50328 25.4257Z" fill="white"/>
<path d="M4.29279 27.695H0.75L0.75 15.8335H4.29279C7.41199 15.8335 11.1088 16.8633 11.1088 21.7643C11.1088 26.6653 7.39273 27.695 4.29279 27.695ZM1.92451 26.5318H4.29279C8.14365 26.5318 9.9343 25.0252 9.9343 21.7643C9.9343 18.5033 8.14365 16.9968 4.29279 16.9968H1.92451L1.92451 26.5318ZM4.71639 25.9978H2.92574L2.92574 17.5307H4.71639C6.71883 17.5307 8.85606 19.0182 8.85606 21.7643C8.85606 23.8238 7.39273 25.9978 4.71639 25.9978ZM4.08099 24.8536H4.69713C6.17971 24.8536 7.66229 23.7857 7.66229 21.7643C7.66229 19.7428 6.16046 18.6749 4.69713 18.6749H4.08099L4.08099 24.8536Z" fill="white"/>
<path d="M10.6464 16.4247H14.4203C15.8066 16.4247 17.9053 16.8252 17.9053 19.1708C17.9053 20.4485 17.0388 21.3257 15.7488 21.5545V21.5927C17.2121 21.7261 18.2326 22.7178 18.2326 24.0336C18.2326 26.7225 15.7873 27.123 14.4203 27.123H10.6464L10.6464 16.4247ZM12.8222 20.7345H13.7079C14.6128 20.7345 15.7488 20.5438 15.7488 19.4377C15.7488 18.1982 14.6513 18.1028 13.6693 18.1028H12.8414L12.8222 20.7345ZM12.8222 25.4257H13.8426C14.8439 25.4257 16.0761 25.1778 16.0761 23.9383C16.0761 22.5462 14.9401 22.3364 13.8426 22.3364H12.8222L12.8222 25.4257Z" fill="white"/>
<path d="M14.4203 27.695H10.0689L10.0689 15.8335H14.4203C17.0004 15.8335 18.483 17.0349 18.483 19.1517C18.483 20.1242 18.0594 20.9443 17.347 21.4782C18.252 22.0122 18.8103 22.9275 18.8103 24.0145C18.8103 26.322 17.1737 27.695 14.4203 27.695ZM11.2241 26.5318H14.4203C15.8837 26.5318 17.6358 26.0932 17.6358 24.0145C17.6358 23.0038 16.8849 22.2792 15.7296 22.1647C16.3458 22.5271 16.6538 23.1182 16.6538 23.9383C16.6538 24.5676 16.3843 25.9978 13.8427 25.9978H12.2446L12.2446 21.7452H13.8427C14.3626 21.7452 14.8054 21.8024 15.1713 21.9168V21.0778C14.8054 21.2112 14.3241 21.3066 13.6887 21.3066H12.2254V17.5117H13.6502C14.3818 17.5117 16.3265 17.5117 16.3265 19.4187C16.3265 19.9145 16.1532 20.6391 15.2483 21.0396L15.6526 20.9633C16.6924 20.7726 17.3277 20.0861 17.3277 19.1326C17.3277 17.7024 16.3458 16.9777 14.4396 16.9777H11.2241L11.2241 26.5318ZM13.3999 24.8536H13.8427C15.4793 24.8536 15.4793 24.1862 15.4793 23.9383C15.4793 23.4043 15.3446 22.9085 13.8427 22.9085H13.3999V24.8536ZM13.3999 20.1624H13.6887C15.152 20.1624 15.152 19.6284 15.152 19.4377C15.152 18.98 15.0557 18.6749 13.6502 18.6749H13.3999V20.1624Z" fill="white"/>
<path d="M22.8537 19.0374C21.6407 19.0374 20.8513 19.5713 20.3699 20.3341H20.3314V19.209H18.3675L18.3675 30.3268H20.1004C20.2352 30.2505 20.3507 30.1361 20.4277 29.9454V26.2077H20.4662C21.1979 27.0849 21.9295 27.2947 22.796 27.2947C25.2798 27.2947 26.1847 25.3114 26.1847 23.1374C26.204 20.9634 25.299 19.0374 22.8537 19.0374ZM22.2761 25.6928C20.8898 25.6928 20.447 24.2435 20.447 23.1374C20.447 22.0313 20.9668 20.6202 22.2954 20.6202C23.6432 20.6202 24.009 22.0695 24.009 23.1374C24.0283 24.2244 23.6432 25.6928 22.2761 25.6928Z" fill="white"/>
<path d="M20.2545 30.8989H17.79L17.79 18.6368H20.9477V18.961C21.429 18.6559 22.0452 18.4652 22.8731 18.4652C25.3377 18.4652 26.801 20.2197 26.801 23.1564C26.801 26.1123 25.3184 27.8858 22.8346 27.8858C22.2762 27.8858 21.6793 27.8286 21.044 27.4663V30.0789L21.0054 30.1933C20.8899 30.4793 20.6781 30.7082 20.4086 30.8607L20.2545 30.8989ZM18.9452 29.7547H19.8502V25.6355H20.7166C20.139 25.0253 19.8694 24.0909 19.8694 23.1564C19.8694 22.3364 20.1005 21.5164 20.5626 20.9252H19.7539V19.8001H18.9452V29.7547V29.7547ZM20.8707 25.769L20.9284 25.8453C21.5446 26.57 22.1029 26.7225 22.8153 26.7225C25.2606 26.7225 25.6265 24.4913 25.6265 23.1564C25.6265 21.8406 25.2606 19.6285 22.8731 19.6285C22.0259 19.6285 21.3905 19.9336 20.9669 20.5438C21.3328 20.2578 21.7949 20.0671 22.334 20.0671C23.7396 20.0671 24.6445 21.2876 24.6445 23.1564C24.6445 25.0634 23.7203 26.303 22.3147 26.303C21.6986 26.2839 21.2365 26.0932 20.8707 25.769ZM22.3147 21.2113C21.3135 21.2113 21.044 22.4699 21.044 23.1374C21.044 23.6713 21.1595 24.1862 21.3713 24.5485C21.5831 24.9299 21.8911 25.1206 22.2955 25.1206C22.488 25.1206 23.4507 25.0253 23.4507 23.1374C23.4507 22.8132 23.393 21.2113 22.3147 21.2113Z" fill="white"/>
<path d="M20.1007 30.3268H20.428V29.9454C20.3703 30.1361 20.2547 30.2506 20.1007 30.3268Z" fill="white"/>
<path d="M21.0246 30.8989H17.8477L19.8309 29.8119C19.8501 29.8119 19.8694 29.7928 19.9079 29.7166L20.1197 29.7547H20.447V29.831L21.0246 29.9454V30.8989Z" fill="white"/>
<path d="M32.6543 26.6653C31.9034 27.0848 31.0369 27.2946 29.9202 27.2946C27.2824 27.2946 25.7613 25.788 25.7613 23.1945C25.7613 20.9061 26.9743 19.0182 29.4581 19.0182C32.404 19.0182 33.2512 21.0205 33.2512 23.7857H27.7445C27.8407 25.0634 28.7264 25.769 30.0165 25.769C31.0177 25.769 31.8841 25.4066 32.6543 24.968V26.6653ZM31.268 22.3936C31.2102 21.4019 30.7481 20.5438 29.5736 20.5438C28.4184 20.5438 27.8215 21.3447 27.7252 22.3936H31.268Z" fill="white"/>
<path d="M29.9203 27.8668C26.9551 27.8668 25.1837 26.1123 25.1837 23.1946C25.1837 20.315 26.8588 18.4462 29.4582 18.4462C33.8289 18.4462 33.8289 22.4699 33.8289 23.7858V24.3579H33.232V26.9895L32.9239 27.1612C32.0768 27.657 31.114 27.8668 29.9203 27.8668ZM29.4582 19.6094C27.1669 19.6094 26.339 21.4592 26.339 23.1946C26.339 25.4639 27.6098 26.7035 29.9203 26.7035C30.7675 26.7035 31.4606 26.57 32.0768 26.303V25.9216C31.4799 26.1695 30.7867 26.3602 30.0165 26.3602C28.3992 26.3602 27.2632 25.3686 27.1669 23.8239L27.1284 23.1946H32.6736C32.5389 20.6964 31.5569 19.6094 29.4582 19.6094ZM28.4762 24.3769C28.8035 25.0825 29.5352 25.216 30.0165 25.216C30.96 25.216 31.7687 24.8346 32.3848 24.4914L32.5774 24.3769H28.4762V24.3769ZM31.8842 22.9658H27.0899L27.1477 22.3365C27.2824 20.8681 28.2066 19.9527 29.5737 19.9527C30.9022 19.9527 31.7494 20.849 31.8457 22.3555L31.8842 22.9658ZM28.4762 21.8216H30.5749C30.3246 21.116 29.7855 21.116 29.593 21.116C29.0346 21.116 28.6687 21.3448 28.4762 21.8216Z" fill="white"/>
<path d="M40.3753 15.6238H38.5846V20.1434H38.5461C37.93 19.3996 37.1983 19.0373 36.1586 19.0373C33.7133 19.0373 32.8083 20.9634 32.8083 23.1374C32.8083 25.2923 33.7133 27.2946 36.1586 27.2946C37.1405 27.2946 37.9877 26.9895 38.6039 26.2267H38.6424V27.123H40.6448V15.9289C40.5678 15.7954 40.4908 15.681 40.3753 15.6238ZM36.7362 25.6927C35.3691 25.6927 34.9841 24.2244 34.9841 23.1374C34.9841 22.0885 35.3499 20.6201 36.6977 20.6201C38.0262 20.6201 38.5461 22.0313 38.5461 23.1374C38.5654 24.2625 38.1033 25.6927 36.7362 25.6927Z" fill="white"/>
<path d="M36.1586 27.8667C33.7326 27.8667 32.2308 26.0551 32.2308 23.1373C32.2308 20.2006 33.6941 18.4461 36.1586 18.4461C36.8518 18.4461 37.4679 18.5987 37.9878 18.8847V15.0326H40.5294L40.6642 15.1279C40.876 15.2614 41.0492 15.4521 41.1648 15.681L41.2225 15.7954V27.6951H38.0456V27.4472C37.5065 27.7332 36.8711 27.8667 36.1586 27.8667ZM36.1586 19.6094C33.7519 19.6094 33.4053 21.8215 33.4053 23.1373C33.4053 26.2458 35.1382 26.7034 36.1586 26.7034C37.0251 26.7034 37.6797 26.4174 38.1418 25.8453L38.3151 25.6355H39.2201V26.5318H40.0673V16.1959H39.1623V20.7155H38.2766C38.8543 21.3066 39.1431 22.222 39.1431 23.1373C39.1431 24.7011 38.3921 26.2839 36.7363 26.2839C35.3115 26.2839 34.4065 25.0444 34.4065 23.1373C34.4065 21.2685 35.3115 20.048 36.717 20.048C37.3524 20.048 37.853 20.2768 38.2381 20.6582L38.1033 20.4866C37.5642 19.8764 37.0058 19.6094 36.1586 19.6094ZM36.6978 21.2113C35.6195 21.2113 35.5618 22.8322 35.5618 23.1373C35.5618 25.0253 36.5245 25.1206 36.717 25.1206C37.1214 25.1206 37.4102 24.949 37.6412 24.5485C37.853 24.1862 37.9686 23.6713 37.9686 23.1373C37.9686 22.4699 37.699 21.2113 36.6978 21.2113Z" fill="white"/>
<path d="M40.3751 15.6238C40.4906 15.7001 40.5869 15.7954 40.6447 15.9289V15.6238H40.3751Z" fill="white"/>
<path d="M40.6449 16.1958H40.3754V16.1386L40.1251 16.1958C40.1058 16.1386 40.0865 16.1196 40.0673 16.1196L38.3152 15.0516H41.2418V15.9479L40.6642 16.0814V16.1958H40.6449Z" fill="white"/>
<path d="M43.3594 19.228H41.28V27.123H43.3594V19.228Z" fill="white"/>
<path d="M43.9372 27.6951H40.7025V18.6368H43.9372V27.6951ZM41.8577 26.5318H42.7627V19.8001H41.8577V26.5318Z" fill="white"/>
<path d="M43.3594 15.8145H41.28V17.7787H43.3594V15.8145Z" fill="white"/>
<path d="M43.9372 18.3508H40.7025V15.2424H43.9372V18.3508ZM41.8577 17.2066H42.7627V16.4057H41.8577V17.2066Z" fill="white"/>
<path d="M44.3416 19.6285C45.1503 19.2662 46.2285 19.0374 47.1142 19.0374C49.5403 19.0374 50.5415 20.029 50.5415 22.3555V23.3662C50.5415 24.1672 50.5607 24.7584 50.58 25.3495C50.5992 25.9407 50.6185 26.4937 50.6763 27.104H48.8471C48.7701 26.6844 48.7701 26.1695 48.7508 25.9216H48.7123C48.231 26.7988 47.1912 27.2756 46.2478 27.2756C44.8422 27.2756 43.4559 26.4365 43.4559 24.93C43.4559 23.7476 44.0335 23.0611 44.823 22.6797C45.6124 22.2983 46.6329 22.222 47.4993 22.222H48.6353C48.6353 20.9444 48.0577 20.5248 46.8447 20.5248C45.959 20.5248 45.0733 20.8681 44.3801 21.383L44.3416 19.6285ZM46.7676 25.7881C47.403 25.7881 47.9036 25.5212 48.231 25.0825C48.5775 24.6439 48.6738 24.0718 48.6738 23.4616H47.7689C46.8447 23.4616 45.4583 23.6142 45.4583 24.8346C45.4583 25.5021 46.036 25.7881 46.7676 25.7881Z" fill="white"/>
<path d="M46.2673 27.8667C44.6307 27.8667 42.8978 26.8369 42.8978 24.949C42.8978 23.6713 43.4754 22.7178 44.5921 22.1839C45.3238 21.8215 46.248 21.669 47.5188 21.669H48.0194C47.9039 21.2494 47.5766 21.1159 46.8642 21.1159C46.1517 21.1159 45.3816 21.3829 44.7654 21.8597L43.8605 22.5271L43.745 19.2662L44.0915 19.1136C44.9772 18.7131 46.1325 18.4652 47.1145 18.4652C49.8486 18.4652 51.1386 19.7048 51.1386 22.3746V23.3853C51.1386 24.1671 51.1579 24.7583 51.1771 25.3113V25.3495C51.1964 25.9025 51.2156 26.4365 51.2734 27.0849L51.3119 27.7142H48.366L48.289 27.2756C47.7113 27.6379 46.9797 27.8667 46.2673 27.8667ZM47.5188 22.8132C46.4406 22.8132 45.6511 22.9467 45.0928 23.2136C44.3804 23.5569 44.053 24.1099 44.053 24.949C44.053 26.1123 45.1698 26.7225 46.248 26.7225C46.8064 26.7225 47.3648 26.5128 47.7691 26.1695C47.461 26.303 47.1145 26.3793 46.7486 26.3793C45.5934 26.3793 44.8425 25.769 44.8425 24.8346C44.8425 23.1374 46.6524 22.8895 47.7306 22.8895H49.2132V23.4616C49.2132 23.9764 49.1554 24.7202 48.7318 25.3495H49.2709L49.3095 25.8834C49.3095 25.9407 49.3095 26.036 49.3287 26.1123C49.3287 26.2267 49.348 26.3793 49.348 26.5128H50.0219C50.0026 26.1123 49.9834 25.7309 49.9641 25.3495V25.3113C49.9448 24.7392 49.9256 24.1481 49.9256 23.3471V22.3364C49.9256 20.315 49.1747 19.5903 47.076 19.5903C46.3828 19.5903 45.5741 19.7429 44.9002 19.9908L44.9195 20.3722C45.5356 20.0862 46.1903 19.9336 46.8256 19.9336C48.4238 19.9336 49.2132 20.6773 49.2132 22.222V22.7941H47.5188V22.8132ZM47.7691 24.0337C46.0555 24.0337 46.0555 24.6058 46.0555 24.8155C46.0555 24.9109 46.0555 25.1969 46.7871 25.1969C47.2107 25.1969 47.5381 25.0444 47.7691 24.7202C47.9039 24.5485 48.0002 24.3197 48.0387 24.0146H47.7691V24.0337Z" fill="white"/>
<path d="M41.2803 17.874H43.3598C43.4175 17.874 43.456 17.8359 43.456 17.7787V15.8145C43.456 15.7573 43.4175 15.7191 43.3598 15.7191H41.2803C41.2225 15.7191 41.184 15.7573 41.184 15.8145V17.7787C41.184 17.8359 41.2225 17.874 41.2803 17.874Z" fill="url(#paint0_linear_5856_135859)"/>
<path d="M50.6764 25.3495V25.3114L50.6379 23.3663V22.3555C50.6379 19.9527 49.5789 18.942 47.1143 18.942C46.2094 18.942 45.1119 19.1709 44.3032 19.5523C44.2647 19.5713 44.2455 19.6095 44.2455 19.6476L44.3032 21.402C44.3032 21.4402 44.3225 21.4593 44.361 21.4783C44.3995 21.4974 44.438 21.4974 44.4573 21.4593C45.1697 20.9253 46.0554 20.6202 46.864 20.6202C48.0578 20.6202 48.5392 21.0588 48.5584 22.1267C48.3851 22.1267 47.5187 22.1267 47.5187 22.1267C46.3249 22.1267 45.4585 22.2793 44.8038 22.6035C44.0529 22.9658 43.6101 23.5379 43.456 24.3007C43.456 21.9741 43.456 19.209 43.456 19.209C43.456 19.1518 43.4175 19.1136 43.3598 19.1136H41.2803C41.2225 19.1136 41.184 19.1518 41.184 19.209V27.104C41.184 27.1612 41.2225 27.1993 41.2803 27.1993H43.3598C43.4175 27.1993 43.456 27.1612 43.456 27.104C43.456 27.104 43.456 26.017 43.456 25.5021C43.7641 26.7226 45.0541 27.39 46.2672 27.39C47.2299 27.39 48.1733 26.9133 48.6739 26.1886C48.6932 26.4556 48.6932 26.8179 48.751 27.1421C48.751 27.1803 48.7895 27.2184 48.8472 27.2184H50.6764C50.6956 27.2184 50.7342 27.1993 50.7534 27.1803C50.7727 27.1612 50.7727 27.1421 50.7727 27.104C50.7149 26.4556 50.6956 25.9216 50.6764 25.3495ZM48.1541 25.0253C47.8268 25.464 47.3454 25.6928 46.7678 25.6928C46.4019 25.6928 45.5547 25.6165 45.5547 24.8156C45.5547 23.9574 46.2864 23.5379 47.769 23.5379C47.769 23.5379 48.4044 23.5379 48.5584 23.5379C48.5584 24.2053 48.4236 24.6821 48.1541 25.0253Z" fill="url(#paint1_linear_5856_135859)"/>
<path d="M40.1445 15.5284L38.5849 15.5284C38.5271 15.5284 38.4886 15.5666 38.4886 15.6238C38.4886 15.6238 38.4886 19.5904 38.4886 19.9527C37.8725 19.2662 37.1408 18.961 36.1781 18.961C34.1949 18.961 33.367 20.1815 33.0012 21.3067C32.462 19.7429 31.326 18.961 29.4776 18.961C27.841 18.961 26.6087 19.8001 26.0311 21.2876C25.6845 20.1815 24.8373 18.961 22.8734 18.961C21.8337 18.961 21.0057 19.3615 20.4666 20.1052C20.4666 19.8001 20.4666 19.2471 20.4666 19.2471C20.4666 19.1899 20.4281 19.1517 20.3703 19.1517H18.3679C18.3101 19.1517 18.2716 19.1899 18.2716 19.2471C18.2716 19.2471 18.2716 21.4974 18.2716 23.5378C18.0791 22.5271 17.2704 21.8025 16.1344 21.5736C17.2897 21.2304 18.0021 20.3532 18.0021 19.1899C18.0021 16.7299 15.7686 16.3485 14.4208 16.3485L10.6469 16.3485C10.5892 16.3485 10.5506 16.3866 10.5506 16.4438C10.5506 16.4438 10.5506 18.6941 10.5506 20.7918C10.1848 17.8168 8.0861 16.3294 4.293 16.3294H1.32784C1.27008 16.3294 1.23157 16.3675 1.23157 16.4247L1.23157 27.123C1.23157 27.1802 1.27008 27.2184 1.32784 27.2184H4.27375C8.06684 27.2184 10.1656 25.7118 10.5314 22.775C10.5314 24.8728 10.5314 27.123 10.5314 27.123C10.5314 27.1802 10.5699 27.2184 10.6277 27.2184H14.4208C15.499 27.2184 17.9058 26.9514 18.2716 24.6439C18.2716 27.4853 18.2716 30.3458 18.2716 30.3458C18.2716 30.4031 18.3101 30.4412 18.3679 30.4412H19.812C20.1778 30.384 20.4666 30.1361 20.5244 29.583C20.5244 28.5151 20.5244 26.6844 20.5244 26.4365C21.2945 27.2756 22.0647 27.4091 22.7964 27.4091C24.7988 27.4091 25.646 26.1886 25.9926 25.0634C26.5895 26.57 27.9565 27.4091 29.9012 27.4091C30.9987 27.4091 31.8844 27.1993 32.6931 26.7607C32.7316 26.7416 32.7509 26.7035 32.7509 26.6844V25.0062C32.7509 24.9681 32.7316 24.949 32.7123 24.93C32.6931 24.9109 32.6546 24.9109 32.6161 24.93C31.9614 25.2923 31.0565 25.7118 30.0167 25.7118C28.7845 25.7118 27.9758 25.0444 27.8603 23.9002C28.0721 23.9002 32.6161 23.9002 32.7701 23.9002C33.0012 26.1123 34.2334 27.39 36.1589 27.39C37.1601 27.39 37.9495 27.0467 38.5464 26.4174C38.5464 26.6463 38.5464 27.1039 38.5464 27.1039C38.5464 27.1612 38.5849 27.1993 38.6427 27.1993H40.6451C40.7029 27.1993 40.7414 27.1612 40.7414 27.1039V16.215C40.6644 15.7954 40.4333 15.6047 40.1445 15.5284ZM4.7166 25.3304C4.7166 25.3304 3.77314 25.3304 3.59985 25.3304C3.59985 25.1588 3.59985 18.3699 3.59985 18.1982C3.75388 18.1982 4.7166 18.1982 4.7166 18.1982C6.39172 18.1982 8.18237 19.4569 8.18237 21.7643C8.18237 24.0718 6.39172 25.3304 4.7166 25.3304ZM12.8997 18.1982C13.0537 18.1982 13.6506 18.1982 13.6506 18.1982C14.6518 18.1982 15.653 18.2936 15.653 19.4378C15.653 20.2387 14.9984 20.6392 13.7084 20.6392C13.7084 20.6392 13.073 20.6392 12.9189 20.6392C12.8997 20.4676 12.8997 18.3699 12.8997 18.1982ZM13.8431 25.3304C13.8431 25.3304 13.073 25.3304 12.9189 25.3304C12.9189 25.1588 12.9189 22.5843 12.9189 22.4318C13.073 22.4318 13.8431 22.4318 13.8431 22.4318C14.8444 22.4318 15.9804 22.6034 15.9804 23.9383C15.9611 24.8727 15.2487 25.3304 13.8431 25.3304ZM22.2765 25.6165C21.0057 25.6165 20.5436 24.2816 20.5436 23.1564C20.5436 21.9932 21.102 20.7346 22.315 20.7346C23.8554 20.7346 23.9324 22.756 23.9324 23.1564C23.9324 23.5569 23.8554 25.6165 22.2765 25.6165ZM27.8603 22.2983C27.995 21.2304 28.6112 20.6392 29.5932 20.6392C30.8254 20.6392 31.1142 21.6499 31.172 22.2983C30.9795 22.2983 28.0528 22.2983 27.8603 22.2983ZM36.7365 25.6165C35.1576 25.6165 35.0806 23.5569 35.0806 23.1564C35.0806 22.756 35.1576 20.7346 36.698 20.7346C37.911 20.7346 38.4694 21.9932 38.4694 23.1564C38.4694 24.2816 38.0073 25.6165 36.7365 25.6165Z" fill="url(#paint2_linear_5856_135859)"/>
<path d="M36.1781 12.4962C35.8123 12.4962 35.3887 12.4962 34.9651 12.4962C32.2695 12.4581 28.4186 12.3818 26.1466 15.3377C23.8746 12.3818 20.0045 12.439 17.3089 12.4962C16.8853 12.4962 16.4617 12.5153 16.0959 12.4962C15.9996 12.4962 15.1524 12.5153 13.5735 12.5725C13.5735 12.5725 13.6891 14.5367 15.0754 14.5367C15.576 14.5367 15.9418 14.5177 16.0766 14.5177C16.4617 14.5177 16.8853 14.5177 17.3474 14.4986C21.025 14.4414 23.9324 14.6321 25.2417 17.8168L25.5112 18.4461H26.1081H26.2044H26.8013L27.0708 17.8168C28.3801 14.6511 31.2875 14.4414 34.9651 14.4986C35.4079 14.4986 35.8315 14.5177 36.2359 14.5177C36.3706 14.5177 36.7365 14.5367 37.2371 14.5367C38.6427 14.5367 38.7389 12.5725 38.7389 12.5725C37.1216 12.5153 36.2744 12.4962 36.1781 12.4962Z" fill="#004563"/>
<path d="M27.1861 0.215218C26.6278 0.482198 26.2042 0.939879 25.9924 1.51198C25.8961 1.75989 25.8576 2.02687 25.8576 2.29385C25.8576 2.61804 25.9346 2.9613 26.0694 3.26642C26.416 3.99108 27.1091 4.46783 27.8985 4.56318C27.9178 4.77295 27.937 5.00179 27.937 5.21156C27.937 5.32598 27.9371 5.42133 27.9178 5.53575C27.8215 5.55482 27.7253 5.55482 27.629 5.61203C27.2439 5.78366 26.9551 6.10785 26.801 6.50832C26.7433 6.67995 26.7048 6.87065 26.7048 7.04228C26.7048 7.27112 26.7625 7.49997 26.8588 7.70974C26.9551 7.90044 27.0899 8.07207 27.2631 8.20556C27.0321 8.70138 26.7433 9.1972 26.3967 9.67395C26.3582 9.67395 26.3389 9.65488 26.3004 9.65488C26.2042 9.08278 26.0501 8.52975 25.8383 7.99579C25.9539 7.78602 26.0309 7.57625 26.0309 7.32833C26.0309 7.13763 25.9924 6.94693 25.8961 6.75623C25.6843 6.29855 25.2414 6.03157 24.7601 5.99343C24.1825 5.19249 23.4893 4.50597 22.6999 3.93387C22.7191 3.81945 22.7576 3.70503 22.7576 3.59061C22.7576 2.84688 22.2955 2.14129 21.5446 1.87431C20.5819 1.53105 19.5229 2.02687 19.1763 2.9613C19.0031 3.41898 19.0223 3.9148 19.2341 4.35341C19.4459 4.79202 19.8117 5.13528 20.2738 5.28784C20.8322 5.47854 21.4291 5.38319 21.9105 5.059C22.5266 5.47854 23.0465 6.0125 23.5086 6.60367C23.3738 6.83251 23.2775 7.06135 23.2775 7.32833C23.2775 7.51904 23.316 7.70974 23.4123 7.90044C23.6433 8.37719 24.1054 8.66324 24.6061 8.68231C24.7408 9.08278 24.8564 9.52139 24.9334 9.96C24.8949 9.99814 24.8564 10.0172 24.7986 10.0553C24.1632 9.61674 23.4893 9.27348 22.7962 9.0065C22.7769 8.93022 22.7384 8.83487 22.7384 8.83487C22.5844 8.51068 22.2955 8.2437 21.949 8.12928C21.6024 7.99578 21.2366 8.01486 20.89 8.16742C20.7359 8.2437 20.6204 8.33905 20.5049 8.45347C19.7347 8.37719 18.9645 8.41533 18.2136 8.54882C17.713 7.80508 16.7503 7.51904 15.9224 7.90044C14.9982 8.31998 14.5938 9.42604 15.0367 10.3223C15.4603 11.2377 16.577 11.6382 17.482 11.1995C18.0211 10.9516 18.3869 10.4558 18.5024 9.88372C19.0608 9.78837 19.6192 9.75023 20.1968 9.80744C20.2161 9.86465 20.2161 9.92186 20.2353 9.97907C20.5627 10.6656 21.3713 10.9516 22.0645 10.6465C22.2185 10.5702 22.3341 10.4749 22.4496 10.3605C23.0465 10.6084 23.6433 10.9326 24.2017 11.3521C24.2017 11.6 24.2595 11.8479 24.375 12.0768C24.5675 12.4963 24.9334 12.8205 25.3762 12.9921C25.8191 13.1447 26.3004 13.1256 26.7433 12.9349C27.2246 12.7061 27.552 12.3056 27.6867 11.8098C28.688 11.6572 29.6314 11.3902 30.4786 10.9898C30.8637 11.2186 31.3451 11.2758 31.7687 11.0851C32.2693 10.8563 32.5581 10.3605 32.5581 9.84558C32.5581 9.78837 32.5388 9.71209 32.5196 9.65488C32.9432 9.27348 33.3283 8.85394 33.6941 8.39626C34.1562 8.51068 34.6375 8.49161 35.0611 8.28184C35.5617 8.053 35.9468 7.63345 36.1394 7.11856C36.5245 6.05064 35.9661 4.8683 34.9071 4.4869C33.8289 4.1055 32.6351 4.65853 32.25 5.72645C32.173 5.95529 32.1345 6.18413 32.1345 6.43204C32.1345 6.87065 32.2885 7.29019 32.5388 7.65252C32.2885 7.97671 31.9997 8.28184 31.6724 8.56789C31.3258 8.4344 30.9407 8.4344 30.6134 8.60603C30.1513 8.8158 29.8625 9.27348 29.824 9.7693C29.1308 10.0935 28.3606 10.3033 27.5327 10.4177C27.9756 9.80744 28.3414 9.17813 28.6109 8.52975C28.7265 8.51068 28.842 8.49161 28.9575 8.4344C29.3426 8.26277 29.6314 7.93858 29.7855 7.5381C29.8432 7.36647 29.8817 7.17577 29.8817 7.00414C29.8817 6.7753 29.824 6.54646 29.7277 6.33669C29.6314 6.10785 29.4581 5.93622 29.2656 5.78366C29.2849 5.59296 29.2849 5.38319 29.2849 5.19249C29.2849 4.88737 29.2463 4.58225 29.2271 4.2962C29.7277 4.02922 30.132 3.59061 30.3246 3.05665C30.4209 2.80874 30.4594 2.54176 30.4594 2.27478C30.4594 1.95059 30.3823 1.60733 30.2476 1.30221C29.747 0.177078 28.3606 -0.318742 27.1861 0.215218Z" fill="url(#paint3_radial_5856_135859)"/>
<path d="M25.4922 7.40453C25.5307 6.94685 25.1841 6.54638 24.722 6.52731C24.2599 6.48917 23.8556 6.83243 23.8363 7.29011C23.7978 7.74779 24.1444 8.14826 24.6065 8.16733C25.0686 8.20547 25.4729 7.86221 25.4922 7.40453Z" fill="url(#paint4_radial_5856_135859)"/>
<path d="M26.0504 12.6489C26.7629 12.6489 27.3405 12.0768 27.3405 11.3712C27.3405 10.6655 26.7629 10.0935 26.0504 10.0935C25.3379 10.0935 24.7604 10.6655 24.7604 11.3712C24.7604 12.0768 25.3379 12.6489 26.0504 12.6489Z" fill="url(#paint5_radial_5856_135859)"/>
<path d="M16.7313 10.8373C17.4225 10.8373 17.9829 10.2823 17.9829 9.59771C17.9829 8.91312 17.4225 8.35815 16.7313 8.35815C16.0401 8.35815 15.4798 8.91312 15.4798 9.59771C15.4798 10.2823 16.0401 10.8373 16.7313 10.8373Z" fill="url(#paint6_radial_5856_135859)"/>
<path d="M22.1994 3.7241C22.2572 3.03758 21.7373 2.44641 21.0441 2.40827C20.351 2.35106 19.7541 2.86595 19.7156 3.55247C19.6578 4.23899 20.1777 4.83017 20.8709 4.86831C21.564 4.92552 22.1609 4.41062 22.1994 3.7241Z" fill="url(#paint7_radial_5856_135859)"/>
<path d="M21.5641 8.64413C21.102 8.60599 20.7169 8.94925 20.6784 9.40693C20.6399 9.86461 20.9864 10.246 21.4485 10.2842C21.9106 10.3223 22.2957 9.97903 22.3342 9.52135C22.3727 9.06367 22.0262 8.6632 21.5641 8.64413Z" fill="url(#paint8_radial_5856_135859)"/>
<path d="M34.3299 5.13529C33.579 5.07808 32.9244 5.65019 32.8666 6.37485C32.8089 7.11858 33.3865 7.76696 34.1182 7.82417C34.8691 7.88138 35.5237 7.30928 35.5815 6.58462C35.6392 5.82182 35.0809 5.17343 34.3299 5.13529Z" fill="url(#paint9_radial_5856_135859)"/>
<path d="M31.2301 10.7037C31.6873 10.7037 32.058 10.3366 32.058 9.88373C32.058 9.43085 31.6873 9.06372 31.2301 9.06372C30.7728 9.06372 30.4021 9.43085 30.4021 9.88373C30.4021 10.3366 30.7728 10.7037 31.2301 10.7037Z" fill="url(#paint10_radial_5856_135859)"/>
<path d="M28.3226 8.03394C28.8755 8.03394 29.3238 7.58997 29.3238 7.0423C29.3238 6.49463 28.8755 6.05066 28.3226 6.05066C27.7696 6.05066 27.3214 6.49463 27.3214 7.0423C27.3214 7.58997 27.7696 8.03394 28.3226 8.03394Z" fill="url(#paint11_radial_5856_135859)"/>
<path d="M28.2839 0.71103C27.3982 0.65382 26.628 1.3022 26.551 2.19849C26.4932 3.07571 27.1479 3.83851 28.0528 3.91479C28.9385 3.972 29.7087 3.32362 29.7857 2.42733C29.8435 1.55011 29.1888 0.76824 28.2839 0.71103Z" fill="url(#paint12_radial_5856_135859)"/>
<defs>
<linearGradient id="paint0_linear_5856_135859" x1="42.3178" y1="15.7243" x2="42.3178" y2="17.8735" gradientUnits="userSpaceOnUse">
<stop stop-color="#003048"/>
<stop offset="0.1626" stop-color="#00324A"/>
<stop offset="0.3076" stop-color="#00364F"/>
<stop offset="0.4458" stop-color="#003E57"/>
<stop offset="0.5798" stop-color="#004962"/>
<stop offset="0.7109" stop-color="#00576F"/>
<stop offset="0.8397" stop-color="#35697E"/>
<stop offset="0.9645" stop-color="#608090"/>
<stop offset="1" stop-color="#6D8896"/>
</linearGradient>
<linearGradient id="paint1_linear_5856_135859" x1="45.9766" y1="18.9427" x2="45.9766" y2="27.3899" gradientUnits="userSpaceOnUse">
<stop stop-color="#003048"/>
<stop offset="0.1626" stop-color="#00324A"/>
<stop offset="0.3076" stop-color="#00364F"/>
<stop offset="0.4458" stop-color="#003E57"/>
<stop offset="0.5798" stop-color="#004962"/>
<stop offset="0.7109" stop-color="#00576F"/>
<stop offset="0.8397" stop-color="#35697E"/>
<stop offset="0.9645" stop-color="#608090"/>
<stop offset="1" stop-color="#6D8896"/>
</linearGradient>
<linearGradient id="paint2_linear_5856_135859" x1="20.9907" y1="15.5253" x2="20.9907" y2="30.4233" gradientUnits="userSpaceOnUse">
<stop stop-color="#003048"/>
<stop offset="0.1626" stop-color="#00324A"/>
<stop offset="0.3076" stop-color="#00364F"/>
<stop offset="0.4458" stop-color="#003E57"/>
<stop offset="0.5798" stop-color="#004962"/>
<stop offset="0.7109" stop-color="#00576F"/>
<stop offset="0.8397" stop-color="#35697E"/>
<stop offset="0.9645" stop-color="#608090"/>
<stop offset="1" stop-color="#6D8896"/>
</linearGradient>
<radialGradient id="paint3_radial_5856_135859" cx="0" cy="0" r="1" gradientUnits="userSpaceOnUse" gradientTransform="translate(25.8361 11.7501) scale(12.1374 12.0212)">
<stop stop-color="#6D8896"/>
<stop offset="0.0435" stop-color="#4B7487"/>
<stop offset="0.0933" stop-color="#286379"/>
<stop offset="0.1494" stop-color="#00556C"/>
<stop offset="0.2114" stop-color="#004962"/>
<stop offset="0.2815" stop-color="#004059"/>
<stop offset="0.3633" stop-color="#003951"/>
<stop offset="0.4644" stop-color="#00344C"/>
<stop offset="0.6062" stop-color="#003149"/>
<stop offset="1" stop-color="#003048"/>
</radialGradient>
<radialGradient id="paint4_radial_5856_135859" cx="0" cy="0" r="1" gradientUnits="userSpaceOnUse" gradientTransform="translate(26.0414 11.3771) scale(10.7182 10.6156)">
<stop stop-color="#FFD528"/>
<stop offset="0.222" stop-color="#FFD227"/>
<stop offset="0.4435" stop-color="#FFC925"/>
<stop offset="0.6647" stop-color="#FDBB21"/>
<stop offset="0.8846" stop-color="#FAA61D"/>
<stop offset="1" stop-color="#F8991D"/>
</radialGradient>
<radialGradient id="paint5_radial_5856_135859" cx="0" cy="0" r="1" gradientUnits="userSpaceOnUse" gradientTransform="translate(26.0413 11.3772) scale(10.7179 10.6153)">
<stop stop-color="#FFD528"/>
<stop offset="0.222" stop-color="#FFD227"/>
<stop offset="0.4435" stop-color="#FFC925"/>
<stop offset="0.6647" stop-color="#FDBB21"/>
<stop offset="0.8846" stop-color="#FAA61D"/>
<stop offset="1" stop-color="#F8991D"/>
</radialGradient>
<radialGradient id="paint6_radial_5856_135859" cx="0" cy="0" r="1" gradientUnits="userSpaceOnUse" gradientTransform="translate(26.0413 11.3773) scale(10.7182 10.6156)">
<stop stop-color="#FFD528"/>
<stop offset="0.222" stop-color="#FFD227"/>
<stop offset="0.4435" stop-color="#FFC925"/>
<stop offset="0.6647" stop-color="#FDBB21"/>
<stop offset="0.8846" stop-color="#FAA61D"/>
<stop offset="1" stop-color="#F8991D"/>
</radialGradient>
<radialGradient id="paint7_radial_5856_135859" cx="0" cy="0" r="1" gradientUnits="userSpaceOnUse" gradientTransform="translate(26.0411 11.3772) scale(10.7182 10.6156)">
<stop stop-color="#FFD528"/>
<stop offset="0.222" stop-color="#FFD227"/>
<stop offset="0.4435" stop-color="#FFC925"/>
<stop offset="0.6647" stop-color="#FDBB21"/>
<stop offset="0.8846" stop-color="#FAA61D"/>
<stop offset="1" stop-color="#F8991D"/>
</radialGradient>
<radialGradient id="paint8_radial_5856_135859" cx="0" cy="0" r="1" gradientUnits="userSpaceOnUse" gradientTransform="translate(26.0412 11.3772) scale(10.7182 10.6156)">
<stop stop-color="#FFD528"/>
<stop offset="0.222" stop-color="#FFD227"/>
<stop offset="0.4435" stop-color="#FFC925"/>
<stop offset="0.6647" stop-color="#FDBB21"/>
<stop offset="0.8846" stop-color="#FAA61D"/>
<stop offset="1" stop-color="#F8991D"/>
</radialGradient>
<radialGradient id="paint9_radial_5856_135859" cx="0" cy="0" r="1" gradientUnits="userSpaceOnUse" gradientTransform="translate(26.0415 11.3772) scale(10.7182 10.6156)">
<stop stop-color="#FFD528"/>
<stop offset="0.222" stop-color="#FFD227"/>
<stop offset="0.4435" stop-color="#FFC925"/>
<stop offset="0.6647" stop-color="#FDBB21"/>
<stop offset="0.8846" stop-color="#FAA61D"/>
<stop offset="1" stop-color="#F8991D"/>
</radialGradient>
<radialGradient id="paint10_radial_5856_135859" cx="0" cy="0" r="1" gradientUnits="userSpaceOnUse" gradientTransform="translate(26.0415 11.3772) scale(10.7182 10.6156)">
<stop stop-color="#FFD528"/>
<stop offset="0.222" stop-color="#FFD227"/>
<stop offset="0.4435" stop-color="#FFC925"/>
<stop offset="0.6647" stop-color="#FDBB21"/>
<stop offset="0.8846" stop-color="#FAA61D"/>
<stop offset="1" stop-color="#F8991D"/>
</radialGradient>
<radialGradient id="paint11_radial_5856_135859" cx="0" cy="0" r="1" gradientUnits="userSpaceOnUse" gradientTransform="translate(26.0414 11.3772) scale(10.7182 10.6156)">
<stop stop-color="#FFD528"/>
<stop offset="0.222" stop-color="#FFD227"/>
<stop offset="0.4435" stop-color="#FFC925"/>
<stop offset="0.6647" stop-color="#FDBB21"/>
<stop offset="0.8846" stop-color="#FAA61D"/>
<stop offset="1" stop-color="#F8991D"/>
</radialGradient>
<radialGradient id="paint12_radial_5856_135859" cx="0" cy="0" r="1" gradientUnits="userSpaceOnUse" gradientTransform="translate(26.0412 11.3772) scale(10.7182 10.6156)">
<stop stop-color="#FFD528"/>
<stop offset="0.222" stop-color="#FFD227"/>
<stop offset="0.4435" stop-color="#FFC925"/>
<stop offset="0.6647" stop-color="#FDBB21"/>
<stop offset="0.8846" stop-color="#FAA61D"/>
<stop offset="1" stop-color="#F8991D"/>
</radialGradient>
</defs>
</svg>
