<svg width="16" height="17" viewBox="0 0 16 17" fill="none" xmlns="http://www.w3.org/2000/svg">
<g clip-path="url(#clip0_5838_134208)">
<path d="M15.95 14.4566L12.5844 1.17871C12.4031 0.4675 11.7969 0 11.1375 0C11.009 0 10.8783 0.0176408 10.7481 0.0544863L8.81625 0.601674C8.63234 0.653803 8.46812 0.743053 8.32312 0.855113C8.07187 0.348965 7.575 0 7 0H5C4.725 0 4.47187 0.0840371 4.25 0.221C4.02813 0.0840371 3.775 0 3.5 0H1.5C0.671562 0 0 0.713535 0 1.59375V15.4062C0 16.2861 0.671562 17 1.5 17H3.5C3.77459 17 4.02875 16.916 4.25 16.779C4.47187 16.917 4.725 17 5 17H7C7.82844 17 8.5 16.2865 8.5 15.4062V5.48848L11.1187 15.8246C11.3 16.5318 11.9031 17 12.5656 17C12.6941 17 12.8248 16.9824 12.955 16.9455L14.8869 16.3983C15.6875 16.1699 16.1625 15.3 15.95 14.4566ZM7 1.59375V3.1875H5V1.59375H7ZM5 4.78125H7V12.2188H5V4.78125ZM3.5 12.2188H1.5V4.78125H3.5V12.2188ZM3.5 1.59375V3.1875H1.5V1.59375H3.5ZM1.5 15.4062V13.8125H3.5V15.4062H1.5ZM5 15.4062L5.00003 13.8424L7 13.8125V15.4062H5ZM9.2 2.1416L11.1322 1.59441L11.5219 3.11877L9.5875 3.66563L9.2 2.1416ZM9.97812 5.19961L11.9128 4.65143L13.7266 11.8001L11.7919 12.3482L9.97812 5.19961ZM12.5688 15.4096L12.1809 13.8809L14.1156 13.3327L14.5025 14.8581L12.5688 15.4096Z" fill="#3F6587"/>
</g>
<defs>
<clipPath id="clip0_5838_134208">
<rect width="16" height="17" fill="white"/>
</clipPath>
</defs>
</svg>
