<svg width="24" height="24" viewBox="0 0 24 24" fill="none" xmlns="http://www.w3.org/2000/svg">
<path d="M17.5092 11.6889V11.5597L17.505 11.4306L17.4967 11.3014L17.4842 11.1764L17.4717 11.0514L17.455 10.9222L17.4342 10.7972L17.4092 10.6764L17.3842 10.5514L17.355 10.4306L17.3217 10.3056L17.2884 10.1889L17.2509 10.0681L17.2092 9.94723L17.1675 9.83058L17.1217 9.7139L17.0717 9.60142L17.0175 9.48474L16.9634 9.37223L16.905 9.26392L16.8467 9.15141L16.78 9.04308L16.7175 8.93891L16.6467 8.83057L16.5759 8.72641L16.5009 8.62641L16.4259 8.52225L16.3467 8.42642L16.2634 8.32643L16.18 8.23058L16.0925 8.13892L16.0009 8.0431C15.8092 7.8556 15.605 7.6806 15.3925 7.52227L14.5842 8.87643C15.43 9.55142 16.03 10.5222 16.03 11.6889C16.03 13.7139 14.3884 15.3597 12.3592 15.3597C11.8842 15.3597 11.4301 15.268 11.0134 15.1055L10.2676 16.3972C10.9176 16.6847 11.6259 16.8389 12.3592 16.8389C15.2009 16.8389 17.5092 14.5264 17.5092 11.6889Z" fill="#3F6587"/>
<path d="M16.1995 2.36433L16.1953 2.27265V2.18514L16.1911 2.10183L16.187 2.01432L16.1828 1.92681L16.1745 1.8435L16.1661 1.75599L16.162 1.67265L16.1495 1.58932L16.1411 1.506L16.1328 1.42684L16.1203 1.3435L16.1078 1.26433L16.0953 1.18516L16.0787 1.106L16.0661 1.02683L16.037 0.885152L15.9328 0.981002C15.612 1.27267 15.3036 1.60599 15.012 1.98515C13.487 3.94347 12.712 6.5643 13.1662 8.21846L13.1787 8.26845L13.2287 8.2768C13.3287 8.29763 13.4162 8.31845 13.4995 8.34345C13.5995 8.37678 13.6995 8.4143 13.7953 8.46013L13.8412 8.48096L13.8787 8.44762C15.2536 7.37679 16.2286 4.81848 16.1995 2.36433Z" fill="#3F6587"/>
<path d="M10.9554 0.501444L10.872 0.388936L10.8179 0.522272C10.6595 0.918103 10.5304 1.35977 10.4345 1.82643C9.93454 4.25558 10.397 6.9514 11.5345 8.23056L11.572 8.26807L11.6179 8.25555C11.7137 8.23055 11.8054 8.20974 11.8929 8.19724C11.997 8.18057 12.1012 8.17224 12.2054 8.17224L12.2554 8.16807L12.2762 8.12639C13.0387 6.55557 12.7804 3.82641 11.6679 1.63893C11.4512 1.22226 11.2137 0.834775 10.9554 0.501444Z" fill="#3F6587"/>
<path d="M7.28033 2.99741L7.2095 2.94324L7.13866 2.89324L7.06783 2.84324L6.997 2.79325L6.92617 2.74742L6.85533 2.69742L6.78033 2.65159L6.7095 2.60574L6.63867 2.56409L6.56784 2.52243L6.497 2.48075L6.42617 2.43909L6.35533 2.40158L6.2845 2.35992L6.2095 2.32658L6.13867 2.28907L6.01367 2.22659L6.022 2.36824C6.05533 2.7974 6.13451 3.24741 6.25534 3.70991C6.8845 6.10989 8.49282 8.32238 10.0803 8.96821L10.1261 8.98486L10.1636 8.95155C10.2386 8.88488 10.3095 8.8307 10.3845 8.7807C10.4678 8.7182 10.5595 8.66405 10.6511 8.61405L10.697 8.5932V8.5432C10.6845 6.79738 9.24698 4.46823 7.28033 2.99741Z" fill="#3F6587"/>
<path d="M3.34179 7.24304L3.49596 7.41806L3.65429 7.58888L3.81679 7.75556L3.98345 7.91803L4.15429 8.07637L4.32929 8.23053L4.50428 8.38055L4.68345 8.52637L4.86679 8.66388L5.05012 8.80136L5.23762 8.93053L5.42511 9.05554L5.61261 9.17637L5.80428 9.29305L5.99594 9.40136L6.18344 9.50552L6.37511 9.60554L6.56677 9.6972L6.75844 9.78054L6.9501 9.8597L7.14177 9.9347L7.32927 10.0014L7.51677 10.0597L7.70427 10.1139L7.8876 10.1597L8.06676 10.1972L8.24593 10.2264L8.42093 10.2514L8.59593 10.268L8.76676 10.2764H8.93342L9.09592 10.268L9.14592 10.2639L9.16259 10.218C9.20009 10.1264 9.24175 10.0472 9.28342 9.96804C9.33342 9.87637 9.39175 9.7847 9.45425 9.70137L9.48342 9.65969L9.45842 9.61803C8.67926 8.05971 6.35844 6.60138 3.94596 6.15138C3.48346 6.06805 3.03346 6.02222 2.60847 6.02222H2.4668L2.53764 6.14304C2.75847 6.51387 3.0293 6.88471 3.34179 7.24304Z" fill="#3F6587"/>
<path d="M8.78785 11.8725L8.83367 11.8475L8.82951 11.7975C8.82118 11.6975 8.82118 11.6058 8.82535 11.5183C8.82951 11.4142 8.84201 11.3058 8.85868 11.2058L8.86701 11.1558L8.82535 11.1267C7.43785 10.0725 4.71287 9.79334 2.35038 10.4558C1.89622 10.585 1.47123 10.7433 1.09206 10.9308L0.962891 10.9933L1.08373 11.0725C1.44622 11.3058 1.85039 11.5183 2.28789 11.7017C4.57537 12.6683 7.30869 12.7391 8.78785 11.8725Z" fill="#3F6587"/>
<path d="M9.18732 13.4806L9.21649 13.4389L9.19149 13.3931C9.14149 13.3056 9.09982 13.2264 9.06232 13.1431C9.02066 13.0472 8.98733 12.9472 8.95399 12.8472L8.94149 12.8014L8.8915 12.7889C7.17901 12.4639 4.61235 13.4139 2.78736 15.0555C2.43737 15.3722 2.12904 15.7014 1.87071 16.0347L1.7832 16.1472L1.92487 16.1639C2.34987 16.2181 2.8082 16.2264 3.2832 16.2014C5.76235 16.0555 8.24566 14.9097 9.18732 13.4806Z" fill="#3F6587"/>
<path d="M10.0125 14.4681L9.9833 14.4432L9.95413 14.4182L9.92497 14.3932L9.8958 14.364L9.86664 14.3348L9.83747 14.3098L9.81247 14.2806L9.78331 14.2515L9.74997 14.214L9.70414 14.2265C8.02082 14.689 6.14166 16.6806 5.22916 18.9598C5.05417 19.3973 4.92083 19.8306 4.8375 20.2431L4.8125 20.3848L4.94584 20.3348C5.35 20.1931 5.76666 20.0014 6.17916 19.7639C8.33748 18.5389 10.0583 16.414 10.2708 14.714L10.2791 14.664L10.2375 14.6348C10.1541 14.5806 10.0833 14.5265 10.0125 14.4681Z" fill="#3F6587"/>
<path d="M22.1166 13.2349L22.2624 13.1974L22.4082 13.1557L22.5499 13.1141L22.6207 13.0932L22.6916 13.0682L22.7624 13.0474L22.8332 13.0224L22.8999 12.9974L22.9666 12.9766L23.0332 12.9516L23.0957 12.9266L23.1582 12.9016L23.2207 12.8766C23.2624 12.4849 23.2582 11.4849 23.2541 11.3724C22.9457 11.2224 22.5874 11.0641 22.2124 10.9432C21.5249 10.7266 20.5374 10.6307 19.8541 10.5766C19.7708 10.0391 19.8291 10.3266 19.6791 9.78075C20.2833 9.44741 21.1499 8.94742 21.6874 8.45576C21.9832 8.18492 22.2416 7.90992 22.4624 7.63909C22.2707 7.16409 22.0499 6.70576 21.7957 6.2641C21.4499 6.2766 21.0832 6.31826 20.6958 6.38909C19.9874 6.51826 19.0708 6.89743 18.4458 7.17242C18.1166 6.73909 18.2999 6.95993 17.9124 6.5516C18.2916 5.97244 18.8208 5.12244 19.0666 4.43911C19.1999 4.05994 19.2791 3.73077 19.3458 3.38911C19.0291 3.12244 18.6916 2.87245 18.3458 2.64329L15.9916 6.71825C16.2416 6.90158 16.4874 7.10576 16.7124 7.33493C17.8749 8.49742 18.5166 10.0433 18.5166 11.6891C18.5166 13.3307 17.8749 14.8765 16.7124 16.0432C15.55 17.2057 14.0041 17.8432 12.3583 17.8432C11.4875 17.8432 10.6417 17.664 9.86666 17.3224L7.5 21.4265C7.8625 21.6057 8.23333 21.7682 8.61666 21.9098C8.85416 21.6932 9.08749 21.4432 9.32083 21.164C9.77916 20.6057 10.2375 19.7265 10.5458 19.114C11.075 19.2349 10.7875 19.1849 11.35 19.2474C11.4291 19.9348 11.5708 20.9265 11.8208 21.6057C11.9541 21.9598 12.1 22.3307 12.2583 22.6182C12.2916 22.6182 13.35 22.5848 13.8333 22.5182C13.9458 22.2098 14.0375 21.8265 14.1125 21.464C14.2541 20.7598 14.25 19.764 14.2291 19.0807C14.7541 18.939 14.4791 19.0265 15.0041 18.8223C15.4 19.389 15.9874 20.1973 16.5291 20.6807C16.8166 20.939 17.1374 21.1723 17.4208 21.3557C17.8833 21.114 18.3249 20.8432 18.7458 20.539C18.6999 20.2098 18.5916 19.8432 18.4833 19.4807C18.2791 18.789 17.8083 17.9182 17.4708 17.3224C17.8666 16.9515 17.6624 17.1557 18.0291 16.7265C18.6458 17.0432 19.5458 17.4849 20.2499 17.6557C20.6333 17.7474 21.0291 17.8224 21.3708 17.8515C21.6624 17.4265 21.9249 16.9849 22.1541 16.5224C21.9499 16.2474 21.6832 15.9557 21.4124 15.6765C20.9083 15.164 20.0833 14.614 19.5041 14.2474C19.6791 13.7307 19.5958 14.0099 19.7208 13.4599C20.4124 13.4516 21.4124 13.414 22.1166 13.2349Z" fill="#3F6587"/>
</svg>
