<svg width="25" height="25" viewBox="0 0 25 25" fill="none" xmlns="http://www.w3.org/2000/svg">
<path d="M10.0066 0.24827C5.12999 1.20428 1.20316 5.13581 0.248191 10.0119C-1.19417 17.3646 3.83061 23.9032 10.638 24.8895C11.63 25.0402 12.5255 24.2497 12.5255 23.2462L12.5255 23.2116C12.5255 22.3902 11.9285 21.7045 11.1249 21.5814C6.72317 20.904 3.33905 17.0868 3.33905 12.491C3.33905 7.12124 7.96306 2.81086 13.4314 3.33791C18.2083 3.80073 21.7078 8.09969 21.7078 12.898V13.7413C21.7078 14.894 20.7716 15.8313 19.6204 15.8313C18.4692 15.8313 17.5325 14.894 17.5325 13.7413V7.47401C17.5325 7.01234 17.1588 6.63802 16.6971 6.63802L15.0282 6.63821C14.6473 6.63821 14.3394 6.89871 14.2392 7.24772C12.9424 6.61368 11.4088 6.39295 9.74827 6.98127C7.72614 7.69775 6.1935 9.53358 5.90127 11.659C5.40642 15.2602 8.18745 18.3386 11.6885 18.3386C13.0682 18.3386 14.3201 17.8405 15.3199 17.0402C16.5724 18.6736 18.7239 19.5811 21.0289 18.9966C23.4387 18.438 25.046 16.0793 24.999 13.6319V12.5412C24.999 4.75539 18.0116 -1.32048 10.0066 0.24827ZM11.6399 15.046C10.2586 15.046 9.1351 13.921 9.1351 12.5386C9.1351 11.1563 10.2586 10.0312 11.6399 10.0312C13.0212 10.0312 14.1448 11.1563 14.1448 12.5386C14.1448 13.921 13.0698 15.046 11.6399 15.046Z" fill="#3F6587"/>
</svg>
