<svg width="26" height="26" viewBox="0 0 26 26" fill="none" xmlns="http://www.w3.org/2000/svg">
<path d="M13.0757 25.4774L12.6741 24.2283H11.3672L12.4223 23.4559L12.0206 22.2008L13.0757 22.9732L14.1308 22.2008L13.7292 23.4559L14.7843 24.2283H13.4774L13.0757 25.4774Z" fill="#3F6587"/>
<path d="M13.4774 2.50503L13.0757 3.7541L12.6741 2.50503H11.3672L12.4223 1.73265L12.0206 0.477539L13.0757 1.24991L14.1308 0.477539L13.7292 1.73265L14.7843 2.50503H13.4774Z" fill="#3F6587"/>
<path d="M2.2847 12.1123L3.33979 11.3399L2.93814 12.595L3.99323 13.3674H2.68636L2.2847 14.6165L1.88305 13.3674H0.576172L1.63126 12.595L1.22961 11.3399L2.2847 12.1123Z" fill="#3F6587"/>
<path d="M7.68117 24.023L7.27952 22.774H5.97266L7.02774 21.9956L6.62609 20.7465L7.68117 21.5189L8.73625 20.7465L8.3346 21.9956L9.38968 22.774H8.08282L7.68117 24.023Z" fill="#3F6587"/>
<path d="M3.72806 20.0464L3.32641 18.7973H2.01953L3.07462 18.025L2.67297 16.7699L3.72806 17.5422L4.78315 16.7699L4.3815 18.025L5.43659 18.7973H4.13571L3.72806 20.0464Z" fill="#3F6587"/>
<path d="M4.13571 7.93596L3.72806 9.18504L3.32641 7.93596H2.01953L3.07462 7.16359L2.67297 5.90848L3.72806 6.68085L4.78315 5.90848L4.3815 7.16359L5.43659 7.93596H4.13571Z" fill="#3F6587"/>
<path d="M8.08282 3.95982L7.68117 5.20891L7.27952 3.95982H5.97266L7.02774 3.18744L6.62609 1.93232L7.68117 2.71074L8.73625 1.93232L8.3346 3.18744L9.38968 3.95982H8.08282Z" fill="#3F6587"/>
<path d="M25.5753 13.3674H24.2684L23.8668 14.6165L23.4651 13.3674H22.1582L23.2133 12.595L22.8116 11.3399L23.8668 12.1123L24.9219 11.3399L24.5202 12.595L25.5753 13.3674Z" fill="#3F6587"/>
<path d="M18.4703 24.023L18.0686 22.774H16.7617L17.8168 21.9956L17.4152 20.7465L18.4703 21.5189L19.5254 20.7465L19.1237 21.9956L20.1788 22.774H18.8719L18.4703 24.023Z" fill="#3F6587"/>
<path d="M21.768 18.025L21.3663 16.7699L22.4214 17.5422L23.4765 16.7699L23.0748 18.025L24.1299 18.7973H22.8231L22.4214 20.0464L22.0138 18.7973H20.7129L21.768 18.025Z" fill="#3F6587"/>
<path d="M22.8231 7.93596L22.4214 9.18504L22.0138 7.93596H20.7129L21.768 7.16359L21.3663 5.90848L22.4214 6.68085L23.4765 5.90848L23.0748 7.16359L24.1299 7.93596H22.8231Z" fill="#3F6587"/>
<path d="M18.8719 3.95982L18.4703 5.20891L18.0686 3.95982H16.7617L17.8168 3.18744L17.4152 1.93232L18.4703 2.71074L19.5254 1.93232L19.1237 3.18744L20.1788 3.95982H18.8719Z" fill="#3F6587"/>
</svg>
