<svg width="47" height="44" viewBox="0 0 47 44" fill="none" xmlns="http://www.w3.org/2000/svg">
<path fill-rule="evenodd" clip-rule="evenodd" d="M29.5023 20.6973L10.863 17.4955V41.738C10.863 42.8815 11.7778 43.682 12.807 43.682H44.8254C45.969 43.682 46.7694 42.7672 46.7694 41.738V32.8186L29.5023 20.6973Z" fill="#00572E"/>
<path fill-rule="evenodd" clip-rule="evenodd" d="M29.5021 0H12.9211C11.7776 0 10.9771 0.914813 10.9771 1.94398V10.8634L29.5021 21.7268L39.3363 25.043L46.9979 21.7268V10.8634L29.5021 0Z" fill="#0FA86C"/>
<path d="M29.388 10.8635H10.863V21.7269H29.388V10.8635Z" fill="#007D41"/>
<path fill-rule="evenodd" clip-rule="evenodd" d="M24.2422 8.69116H10.863V36.0212H24.1278C25.2713 36.0212 26.0718 35.1064 26.0718 34.0772V10.7495C26.1861 9.60597 25.2713 8.69116 24.2422 8.69116Z" fill="#000003"/>
<path fill-rule="evenodd" clip-rule="evenodd" d="M23.0987 9.83459H10.863V37.1646H23.0987C24.2422 37.1646 25.0426 36.2498 25.0426 35.2206V11.7786C25.0426 10.7494 24.2422 9.83459 23.0987 9.83459Z" fill="#000003"/>
<path fill-rule="evenodd" clip-rule="evenodd" d="M23.0987 9.83459H10.863V34.8776H23.0987C24.2422 34.8776 25.0426 33.9628 25.0426 32.9336V11.7786C25.0426 10.7494 24.2422 9.83459 23.0987 9.83459Z" fill="#000003"/>
<path fill-rule="evenodd" clip-rule="evenodd" d="M21.9551 9.83459H10.863V34.8776H21.9551C23.0987 34.8776 23.8991 33.9628 23.8991 32.9336V11.7786C24.0135 10.7494 23.0987 9.83459 21.9551 9.83459Z" fill="#000003"/>
<path d="M1.94398 9.83459H21.9555C23.099 9.83459 23.8995 10.7494 23.8995 11.7786V31.7901C23.8995 32.9336 22.9847 33.7341 21.9555 33.7341H1.94398C0.800461 33.7341 0 32.8193 0 31.7901V11.7786C0 10.7494 0.914813 9.83459 1.94398 9.83459Z" fill="#007D41"/>
<path fill-rule="evenodd" clip-rule="evenodd" d="M6.17419 28.3588L10.4052 21.8408L6.51725 15.3228H9.60474L11.6631 19.4394C11.8918 19.7825 12.0061 20.1255 12.0061 20.3542C12.1205 20.0112 12.2348 19.7825 12.4635 19.4394L14.7506 15.3228H17.6094L13.7214 21.7264L17.7237 28.2445H14.7506L12.3492 23.6704C12.2348 23.4417 12.1205 23.3274 12.0061 23.0987C11.8918 23.3274 11.8918 23.5561 11.7774 23.6704L9.26169 28.2445H6.17419V28.3588Z" fill="white"/>
<path fill-rule="evenodd" clip-rule="evenodd" d="M44.9417 0H29.5042V10.8634H46.8856V1.94398C46.8856 0.914813 45.9708 0 44.9417 0Z" fill="#3FB981"/>
<path d="M47 21.8416H29.5042V32.705H47V21.8416Z" fill="#007D41"/>
</svg>
