<svg width="22" height="17" viewBox="0 0 22 17" fill="none" xmlns="http://www.w3.org/2000/svg">
<path d="M21.175 11.6875H0.825C0.369531 11.6875 0 12.0461 0 12.4844V13.0156C0 14.626 1.35678 15.9375 3.025 15.9375H18.975C20.6432 15.9375 22 14.627 22 13.0156V12.4844C22 12.0461 21.6322 11.6875 21.175 11.6875ZM18.975 14.3438H3.025C2.36122 14.3438 1.80538 13.8865 1.6775 13.2812H20.3225C20.1953 13.8855 19.6384 14.3438 18.975 14.3438ZM3.85 2.92188C3.85 2.77558 3.97354 2.65625 4.125 2.65625H17.875C18.0265 2.65625 18.15 2.77558 18.15 2.92188V10.625H19.8V2.92188C19.8 1.89689 18.9372 1.0625 17.875 1.0625H4.125C3.06384 1.0625 2.2 1.89689 2.2 2.92188V10.625H3.85V2.92188ZM12.5778 8.70586C12.7119 8.83535 12.8872 8.89844 13.0625 8.89844C13.2378 8.89844 13.4142 8.83409 13.5486 8.7044L15.1986 7.11065C15.4671 6.85127 15.4671 6.42998 15.1986 6.17067L13.5486 4.57692C13.28 4.31753 12.8449 4.31753 12.5764 4.57692C12.308 4.8363 12.3079 5.25758 12.5764 5.5169L13.7404 6.64049L12.5764 7.76409C12.3062 8.0252 12.3063 8.44688 12.5778 8.70586ZM9.42219 4.57871C9.15365 4.31933 8.71853 4.31933 8.45006 4.57871L6.80006 6.17246C6.53153 6.43184 6.53153 6.85313 6.80006 7.11244L8.45006 8.70619C8.58688 8.83535 8.76219 8.89844 8.9375 8.89844C9.11281 8.89844 9.28813 8.83535 9.42219 8.70586C9.69073 8.44648 9.69073 8.0252 9.42219 7.76588L8.26031 6.64062L9.42219 5.51836C9.66281 5.25937 9.66281 4.8377 9.42219 4.57871Z" fill="#3F6587"/>
</svg>
