<svg width="22" height="23" viewBox="0 0 22 23" fill="none" xmlns="http://www.w3.org/2000/svg">
<g clip-path="url(#clip0_5838_133972)">
<path d="M11.0198 22.0548C5.09781 22.0548 0.279297 17.1636 0.279297 11.1512C0.279297 5.13913 5.0979 0.246582 11.0198 0.246582C16.9412 0.246582 21.7583 5.13905 21.7583 11.1512C21.7584 17.1637 16.9412 22.0548 11.0198 22.0548ZM10.9787 6.85142C10.9924 6.85142 11.8511 7.78505 11.8511 8.53199C11.8511 9.34142 11.2291 9.53444 11.0198 9.53444C11.0095 9.53444 10.9967 9.53376 10.983 9.53307H10.9743C10.9609 9.53376 10.9478 9.53444 10.9382 9.53444C10.7289 9.53444 10.1069 9.34142 10.1069 8.53199C10.107 7.78505 10.963 6.85142 10.9787 6.85142ZM2.89225 11.7576H3.87197V9.92005H5.51718V9.15071H3.87197V8.12963H5.57205V7.36226H2.89225V11.7576ZM11.8669 6.984H12.9001L11.6993 2.58767H10.3788L9.13425 6.984H10.0913L10.3665 6.0013H11.6188L11.8669 6.984ZM11.4375 5.25701H10.537L10.9563 3.34504H11.0249L11.4375 5.25701ZM15.9741 9.56008C15.9741 10.8513 16.564 11.833 17.8086 11.833C19.0579 11.833 19.6538 10.8514 19.6538 9.56008C19.6538 8.26879 19.0579 7.28712 17.8086 7.28712C16.564 7.28721 15.9741 8.26888 15.9741 9.56008ZM17.0178 9.56008C17.0178 8.71629 17.2218 8.03039 17.8086 8.03039C18.3988 8.03039 18.6111 8.71621 18.6111 9.56008C18.6111 10.404 18.3988 11.0904 17.8086 11.0904C17.2217 11.0905 17.0178 10.4039 17.0178 9.56008ZM10.5621 20.838C10.6193 20.4126 10.6761 19.7301 10.6761 18.9308V18.7959C10.6761 17.6706 10.6353 17.2906 9.89432 17.0409C8.75203 16.6565 8.28421 15.3616 8.53537 13.7484L4.71131 3.87426C2.72241 5.65502 1.46738 8.25589 1.46738 11.1512C1.46738 16.3436 5.50913 20.5956 10.5621 20.838ZM11.0152 14.5427C9.49379 14.1828 8.92932 12.775 8.92932 11.5251L5.58138 3.18237C5.36267 3.33564 5.15071 3.49925 4.94569 3.66953C5.68231 5.44157 8.98676 13.4045 8.99078 13.4162C9.57596 14.847 10.64 14.3725 10.8974 15.5539C10.959 15.8394 10.963 15.965 10.963 15.965H11.0774C11.0774 15.965 11.0787 15.8394 11.1429 15.5539C11.4004 14.3725 12.4617 14.847 13.0476 13.4162C13.0516 13.4045 16.3567 5.44165 17.0923 3.66953C16.8873 3.49925 16.6757 3.33564 16.4563 3.18237L13.1091 11.5252C13.1091 12.7751 12.5433 14.1829 11.0218 14.5428H11.0152V14.5427ZM11.0135 12.0241C10.3681 11.8778 9.56424 11.2277 9.45963 10.3906C9.42188 10.0718 9.39175 9.98262 9.43789 9.35048L6.50358 2.60639C6.26749 2.73598 6.03713 2.87617 5.81174 3.02543C6.68883 5.02724 9.3706 11.1418 9.37266 11.1492C9.79768 12.0568 10.542 12.0741 10.7988 12.6154C10.9533 12.9356 10.9674 13.2227 10.97 13.2461H11.0673C11.07 13.2228 11.0861 12.9356 11.2379 12.6154C11.4966 12.0741 12.241 12.0568 12.6644 11.1492C12.667 11.1418 15.3495 5.02724 16.2262 3.02543C16.0032 2.87617 15.7715 2.7359 15.5333 2.60639L12.6028 9.35048C12.6489 9.98262 12.6182 10.0718 12.5781 10.3906C12.4734 11.2277 11.6689 11.8778 11.0269 12.0241H11.0135V12.0241ZM11.0543 10.8787L11.0988 10.5114C11.2841 9.65659 11.895 9.76379 12.3187 8.92495C12.3204 8.92162 12.3254 8.91256 12.3254 8.91256C12.3384 8.88153 14.4143 4.35997 15.2804 2.47167C13.9974 1.81988 12.5511 1.45153 11.0199 1.45153C9.48976 1.45153 8.04221 1.81988 6.75817 2.47167C7.62456 4.35997 9.6988 8.88144 9.71584 8.91256C9.71584 8.91256 9.71986 8.92153 9.72252 8.92495C10.1439 9.7637 10.7534 9.65659 10.9383 10.5114L10.9831 10.8787H11.0543ZM20.5719 11.1512C20.5719 8.25589 19.3153 5.65502 17.3294 3.87426L13.5023 13.7484C13.7561 15.3615 13.2857 16.6564 12.143 17.0408C11.4024 17.2905 11.3619 17.6705 11.3619 18.7958V18.9307C11.3619 19.7301 11.4214 20.4126 11.4759 20.838C16.5319 20.5956 20.5719 16.3436 20.5719 11.1512ZM4.48592 14.0155C4.48592 14.0155 4.62674 14.3207 4.7417 14.5364C4.85538 14.7528 5.01152 15.0143 5.01152 15.0143L4.75942 15.1628C4.75942 15.1628 4.56784 14.8393 4.39227 14.4656C4.34416 14.4903 4.04249 14.6506 3.99233 14.6753C4.02109 14.7301 4.33106 15.3358 4.33106 15.3358L4.07562 15.4851C4.07562 15.4851 3.76163 14.8653 3.73458 14.8129C3.67971 14.8403 3.02904 15.1819 3.02904 15.1819L2.8729 14.8677L4.4676 14.0242L4.48592 14.0155ZM5.49381 15.6754L5.71586 15.9469L4.3201 17.1313L4.09403 16.8601L5.47703 15.6871L5.49381 15.6754ZM6.78582 16.9176L7.06231 17.1176L6.70355 19.0704L6.38785 18.8861C6.38785 18.8861 6.46643 18.4881 6.4761 18.4493C6.4607 18.4367 6.27614 18.3251 6.09757 18.1969C5.91635 18.0647 5.73906 17.9168 5.72237 17.9051C5.68761 17.9261 5.3375 18.1358 5.3375 18.1358L5.06665 17.9007L6.76767 16.928L6.78582 16.9176ZM5.97961 17.7463C6.01205 17.7747 6.1301 17.8716 6.25217 17.9604C6.37723 18.0478 6.50127 18.1317 6.53842 18.148C6.55649 18.0669 6.68318 17.4248 6.70997 17.3058C6.60631 17.3687 6.05254 17.7029 5.97961 17.7463ZM7.93684 17.6355C7.93684 17.6355 8.2308 17.7847 8.64905 17.9303C8.93463 18.0305 9.17739 18.1086 9.41477 18.162L9.33182 18.4428C9.33182 18.4428 9.10515 18.4024 8.7356 18.2876C8.71522 18.3491 8.23465 19.7408 8.23465 19.7408L7.9073 19.6252C7.9073 19.6252 8.3848 18.2308 8.40517 18.1701C8.06173 18.0399 7.82204 17.9103 7.82204 17.9103L7.93684 17.6355ZM13.6796 18.0075C13.799 18.0716 13.8859 18.1841 13.9331 18.3441C13.9541 18.4116 13.9655 18.4767 13.9655 18.5394C13.9655 18.7969 13.7876 18.9996 13.4666 19.1021C13.4666 19.1021 13.3044 19.1525 13.2566 19.1672C13.275 19.2257 13.4666 19.8514 13.4666 19.8514L13.1479 19.9352L12.6076 18.1567L13.0901 18.0045C13.3321 17.928 13.5331 17.9297 13.6796 18.0075ZM13.0045 18.343C13.0199 18.3971 13.1539 18.8315 13.17 18.8853C13.2365 18.8653 13.382 18.8179 13.382 18.8179C13.4302 18.8035 13.5445 18.7574 13.5987 18.6516C13.6168 18.6172 13.6254 18.5785 13.6254 18.5394C13.6254 18.5087 13.6194 18.4773 13.61 18.444C13.589 18.3809 13.5509 18.3311 13.494 18.301C13.396 18.2476 13.2637 18.2613 13.1817 18.286C13.1817 18.2859 13.0489 18.328 13.0045 18.343ZM14.7643 17.2324L16.3413 18.4051L16.0611 18.6059C16.0611 18.6059 15.7441 18.3611 15.7127 18.3377C15.6943 18.348 15.5318 18.4649 15.3569 18.5701C15.1908 18.6717 15.0122 18.7614 14.9941 18.7718C15.0018 18.8138 15.0636 19.2062 15.0636 19.2062L14.7623 19.3521L14.4981 17.3887L14.7643 17.2324ZM14.9456 18.4752C14.9928 18.4522 15.1148 18.3845 15.2362 18.3103C15.3449 18.2432 15.4318 18.1884 15.475 18.1526C15.4118 18.1032 14.9189 17.7233 14.8172 17.6427C14.8372 17.7733 14.9325 18.3938 14.9456 18.4752ZM16.566 15.6163L17.9409 16.8618L17.6931 17.1566C17.6931 17.1566 16.4034 16.7742 16.2084 16.7212C16.3535 16.8618 17.1537 17.7179 17.1537 17.7179L16.9123 17.9393L15.6159 16.6026L15.9211 16.3261C15.9211 16.3261 17.165 16.7031 17.3603 16.7559C17.2148 16.6152 16.3564 15.866 16.3564 15.866L16.566 15.6163ZM17.1946 14.6867L18.7873 15.6243L18.6248 15.9088L17.0241 14.9682L17.1946 14.6867ZM17.8842 13.135L18.1577 13.2796L18.1303 13.3116C18.042 13.4211 18.0012 13.4775 17.9591 13.6008C17.9387 13.6569 17.9143 13.7651 17.9557 13.8466C17.9758 13.8893 18.0122 13.9203 18.0647 13.9371C18.1858 13.9792 18.2901 13.8713 18.4105 13.7471C18.5787 13.5735 18.7873 13.3598 19.1237 13.4746C19.4658 13.5924 19.5819 13.9016 19.4407 14.322C19.3979 14.4509 19.3186 14.5604 19.2474 14.662L19.2304 14.6844L18.9481 14.5505L18.9755 14.5167C19.0096 14.4763 19.1276 14.3361 19.1722 14.1972C19.2146 14.075 19.2102 13.8686 19.0277 13.8059C18.8755 13.7525 18.7619 13.8714 18.6291 14.0106C18.4682 14.1829 18.2827 14.3769 17.9777 14.2714C17.8437 14.225 17.7437 14.1388 17.6871 14.0237C17.6176 13.8828 17.6155 13.7031 17.6794 13.5158C17.7202 13.3896 17.7891 13.2584 17.8687 13.1566L17.8842 13.135Z" fill="#3F6587"/>
</g>
<defs>
<clipPath id="clip0_5838_133972">
<rect width="22" height="22.3372" fill="white"/>
</clipPath>
</defs>
</svg>
