<svg width="25" height="19" viewBox="0 0 25 19" fill="none" xmlns="http://www.w3.org/2000/svg">
<path fill-rule="evenodd" clip-rule="evenodd" d="M9.42912 1.15234V3.87413H4.60485C4.16938 3.88211 3.81497 4.24492 3.81497 4.68881V8.54556H9.06165C9.54159 4.63299 12.841 1.58693 16.8179 1.58693C19.9159 1.58693 22.6007 3.43424 23.864 6.1002H21.4826C20.4338 4.63299 18.7311 3.67479 16.8179 3.67479C13.644 3.67479 11.0546 6.30486 11.0546 9.53167C11.0546 12.7572 13.644 15.3872 16.8179 15.3872C18.667 15.3872 20.3148 14.4955 21.3714 13.112H23.7921C22.5 15.6982 19.8558 17.4751 16.8179 17.4751C12.8946 17.4751 9.6292 14.5114 9.08257 10.6733H3.81497V17.4751H1.93837C1.50157 17.4751 1.14326 17.1163 1.13672 16.6724V3.87413C1.13672 2.37503 2.33984 1.15234 3.81497 1.15234H9.42912ZM16.8179 4.64628C18.9233 4.64628 20.7189 6.03375 21.3675 7.95548H19.0894C18.5925 7.21789 17.7595 6.73414 16.8179 6.73414C15.3009 6.73414 14.0651 7.99137 14.0651 9.53167C14.0651 11.0706 15.3009 12.3279 16.8179 12.3279C17.7189 12.3279 18.5219 11.884 19.024 11.2009H21.3348C20.6613 13.0734 18.8893 14.4171 16.8179 14.4171C14.1697 14.4171 12.0106 12.2216 12.0106 9.53167C12.0106 6.84178 14.1697 4.64628 16.8179 4.64628Z" fill="#3F6587"/>
</svg>
