<svg width="22" height="22" viewBox="0 0 22 22" fill="none" xmlns="http://www.w3.org/2000/svg">
<path d="M19.0252 11.652C19.0597 11.381 19.0597 11.0762 19.0597 10.8052C19.0597 6.70668 15.5314 2.87913 11 2.87913C6.50314 2.87913 2.94025 6.70668 2.94025 10.8052C2.94025 11.0762 2.94025 11.381 2.97484 11.652H0.0345912C0 11.381 0 11.0762 0 10.8052C0 4.84371 4.91195 0 11 0C17.0881 0 22 4.84371 22 10.8052C22 11.0762 22 11.381 21.9654 11.652H19.0252Z" fill="#3F6587"/>
<path d="M16.8456 11.6521C16.8801 11.415 16.9147 11.1102 16.9147 10.8731C16.9147 7.68908 14.355 5.01318 10.9996 5.01318C7.67889 5.01318 5.11914 7.75682 5.11914 10.9408C5.11914 11.1779 5.15373 11.4489 5.18832 11.686H8.0248C7.95562 11.4489 7.92103 11.2118 7.92103 10.9408C7.92103 9.17945 9.40845 7.75682 11.0342 7.75682C12.66 7.75682 14.1474 9.14558 14.1474 10.9408C14.1474 11.1779 14.0783 11.4489 14.0437 11.686H16.8456" fill="#3F6587"/>
<path d="M11.0001 16.4959H9.47805L10.412 21.1025C10.6196 22.0171 8.99377 22.3219 8.82082 21.4412L8.30195 18.9347L7.36799 20.7638C7.16044 21.2041 6.71075 21.238 6.33025 21.0686L6.26107 21.0348C5.91516 20.8315 5.67302 20.4251 5.94975 20.0186L7.02207 18.2572L4.35855 19.375C3.39 19.7815 2.73277 18.325 3.66673 17.9185L8.12899 15.9878L7.22962 14.4974H6.77994L2.73277 17.2411C1.97176 17.7153 1.10698 16.4282 1.83339 15.9201L4.04723 14.4974H1.10698C0.0346526 14.4974 0.0346526 12.8716 1.10698 12.8716H8.23276L9.51264 14.8023H12.4529L13.7328 12.8716H20.8585C21.9309 12.8716 21.9309 14.4974 20.8585 14.4974H17.9183L20.1667 15.9539C20.8931 16.462 19.9938 17.7492 19.2674 17.275L15.151 14.4974H14.7013L13.8365 15.9878L18.2988 17.9185C19.2328 18.325 18.5755 19.7815 17.607 19.375L14.9435 18.2572L16.0158 20.0186C16.2579 20.4251 16.0504 20.8315 15.7045 21.0348L15.6353 21.0686C15.2894 21.238 14.8051 21.2041 14.5975 20.7638L13.6982 18.9008L13.1447 21.4751C12.9718 22.3558 11.346 22.0509 11.5535 21.1364L12.5221 16.4959H11.0001Z" fill="#3F6587"/>
</svg>
