<svg width="25" height="25" viewBox="0 0 25 25" fill="none" xmlns="http://www.w3.org/2000/svg">
<g clip-path="url(#clip0_5838_134220)">
<path fill-rule="evenodd" clip-rule="evenodd" d="M3.77516 0.0478516H21.2248C23.3098 0.0478516 25 1.73819 25 3.82333V21.2724C25 23.3575 23.3098 25.0479 21.2248 25.0479H3.77516C1.69019 25.0479 0 23.3575 0 21.2724V3.82333C0 1.73819 1.69019 0.0478516 3.77516 0.0478516ZM11.1921 12.1824C11.1921 14.5537 9.42312 16.4759 7.24087 16.4759C5.05873 16.4759 3.28965 14.5536 3.28965 12.1824C3.28965 9.81115 5.05862 7.88894 7.24087 7.88894C9.42301 7.88894 11.1921 9.81126 11.1921 12.1824ZM17.2328 16.3625C19.4779 16.3625 21.298 14.4658 21.298 12.126C21.298 9.78635 19.4779 7.88957 17.2328 7.88957C14.9877 7.88957 13.1677 9.78624 13.1677 12.126C13.1677 14.4657 14.9877 16.3625 17.2328 16.3625Z" fill="#3F6587"/>
</g>
<defs>
<clipPath id="clip0_5838_134220">
<rect width="25" height="25" fill="white"/>
</clipPath>
</defs>
</svg>
