<svg width="22" height="22" viewBox="0 0 22 22" fill="none" xmlns="http://www.w3.org/2000/svg">
<g clip-path="url(#clip0_5838_134157)">
<path d="M9.4043 10.7354C9.4043 6.43875 11.4343 2.72168 17.4877 2.72168C17.4877 7.01836 14.7484 10.7354 9.4043 10.7354Z" fill="#3F6587"/>
<path d="M19.1015 22C20.2388 22 21.1071 21.8362 21.9998 21.496C21.9998 18.0939 20.0309 15.6747 16.5579 13.9233C13.9042 12.5498 10.6268 11.8316 7.64294 11.8316C8.95144 7.78694 7.99758 2.75945 6.72576 0C5.31943 2.88545 4.43894 7.84994 5.79636 11.882C3.14266 12.0836 1.03927 13.268 0.146551 14.8431C0.0854063 14.9565 -0.0613419 15.2211 0.0242612 15.2589C0.0854063 15.2967 0.195467 15.1833 0.256613 15.1329C1.21048 14.2131 2.48229 13.772 3.7052 13.772C6.51787 13.772 8.5112 16.1787 9.91754 17.6277C12.9259 20.7274 15.8731 22.0126 19.1015 22Z" fill="#3F6587"/>
</g>
<defs>
<clipPath id="clip0_5838_134157">
<rect width="22" height="22" fill="white"/>
</clipPath>
</defs>
</svg>
