<svg width="88" height="15" viewBox="0 0 88 15" fill="none" xmlns="http://www.w3.org/2000/svg">
<path d="M15.4493 7.27817C15.495 6.54592 15.7693 5.969 16.2265 5.50302C16.6837 5.05923 17.2552 4.83734 17.9181 4.83734C17.9409 4.83734 17.9409 4.83734 17.9638 4.83734C18.6495 4.83734 19.3125 5.14799 19.7468 5.68053C20.0439 6.05775 20.2268 6.56811 20.2954 7.27817L15.4493 7.27817ZM17.9181 3.70568C16.7065 3.70568 15.7465 4.0829 14.9921 4.88172C14.2378 5.65835 13.8492 6.76781 13.8492 8.18793C13.8492 9.56367 14.2149 10.6288 14.9693 11.3832C15.7007 12.1376 16.7294 12.5149 17.9866 12.5149C18.9924 12.5149 19.8154 12.2708 20.4783 11.8048C21.1412 11.3166 21.5755 10.6509 21.8269 9.78556L20.2954 9.60805C20.0668 10.2072 19.7696 10.6288 19.3582 10.9394C18.9696 11.2279 18.5124 11.361 17.9866 11.361C17.2552 11.361 16.638 11.1391 16.1579 10.6288C15.6779 10.1184 15.4036 9.43053 15.3579 8.49858L21.8727 8.49858V8.12136C21.8727 6.74562 21.5069 5.65835 20.7754 4.88172C20.0211 4.0829 19.0839 3.70568 17.9181 3.70568ZM72.6423 7.2116C72.688 6.47935 72.9623 5.90243 73.4195 5.43645C73.8767 4.99267 74.4482 4.77077 75.1111 4.77077C75.134 4.77077 75.1339 4.77077 75.1568 4.77077C75.8426 4.77077 76.5055 5.08142 76.9398 5.61397C77.237 5.99118 77.4198 6.50154 77.4884 7.2116L72.6423 7.2116ZM75.1111 3.63911C73.8996 3.63911 72.9395 4.01633 72.1851 4.81515C71.4308 5.59177 71.0422 6.70124 71.0422 8.12136C71.0422 9.4971 71.4308 10.5622 72.1623 11.3166C72.8938 12.0711 73.9224 12.4483 75.1797 12.4483C76.1855 12.4483 77.0084 12.2264 77.6713 11.7382C78.3342 11.2501 78.7685 10.5844 79.02 9.719L77.4884 9.54148C77.2598 10.1406 76.9627 10.5844 76.5969 10.8728C76.2083 11.1613 75.7511 11.2944 75.2254 11.2944C74.4939 11.2944 73.8767 11.0725 73.3967 10.5622C72.9166 10.0518 72.6423 9.36397 72.5966 8.43202L79.0657 8.43202V8.05479C79.0657 6.67905 78.6999 5.59177 77.9685 4.81515C77.2141 4.03852 76.2769 3.63911 75.1111 3.63911ZM43.04 3.63911C41.8285 3.63911 40.9141 4.0829 40.2741 5.01485V3.81663H38.9483V12.2486L40.4341 12.2486V7.65539C40.4341 6.56811 40.6627 5.83586 41.1199 5.45864C41.577 5.08142 42.1257 4.88172 42.7428 4.88172C43.1315 4.88172 43.4743 4.97047 43.7715 5.1258C44.0687 5.28112 44.2515 5.52521 44.3658 5.81367C44.4801 6.10213 44.5258 6.52373 44.5258 7.12284V12.2486H45.9888V7.05627C45.9888 6.41278 45.966 5.9468 45.8974 5.68053C45.8059 5.28112 45.6459 4.9261 45.4402 4.63763C45.2345 4.32698 44.9144 4.10509 44.4573 3.92757C44.0458 3.72787 43.5429 3.63911 43.04 3.63911ZM83.706 3.63911C83.2489 3.63911 82.8374 3.68349 82.4259 3.79444C82.0373 3.90538 81.6945 4.03852 81.4887 4.21604C81.1916 4.41574 80.9401 4.7042 80.7572 5.01485C80.5744 5.34769 80.5058 5.70272 80.5058 6.05775C80.5058 6.47935 80.6201 6.85657 80.8258 7.18941C81.0316 7.52225 81.3516 7.78853 81.763 7.98823C82.1974 8.16574 82.9288 8.40982 84.0032 8.67609C84.8033 8.8758 85.3062 9.03113 85.5119 9.16426C85.8091 9.34178 85.9462 9.60805 85.9462 9.94089C85.9462 10.2959 85.7862 10.6066 85.4433 10.8728C85.1233 11.1391 84.5975 11.2723 83.9346 11.2723C83.2717 11.2723 82.746 11.1169 82.3802 10.8285C82.0145 10.54 81.7859 10.0962 81.6945 9.51929L80.2315 9.74119C80.3915 10.651 80.7801 11.3166 81.3744 11.7826C81.9688 12.2264 82.8145 12.4705 83.9575 12.4705C84.6433 12.4705 85.2604 12.3595 85.7862 12.1154C86.312 11.8936 86.7234 11.5385 87.0206 11.1391C87.3178 10.6953 87.4549 10.2737 87.4549 9.78556C87.4549 9.2974 87.3406 8.89799 87.112 8.56515C86.8834 8.23231 86.5634 7.98823 86.1519 7.81071L83.9804 7.14503L82.6774 6.76781C82.4259 6.67906 82.2202 6.52373 82.1059 6.39059C81.9916 6.23527 81.9459 6.07994 81.9459 5.88024C81.9459 5.59178 82.0831 5.32551 82.3802 5.10361C82.6774 4.88172 83.1574 4.77077 83.8203 4.77077C84.3918 4.77077 84.8261 4.88172 85.1461 5.14799C85.4433 5.39207 85.649 5.72491 85.7176 6.1687L87.1577 5.99119C87.0663 5.45864 86.8834 5.01485 86.632 4.68201C86.4034 4.37136 86.0148 4.10509 85.489 3.90538C84.9861 3.72787 84.3918 3.63911 83.706 3.63911ZM51.0864 11.3166C50.5149 11.3166 50.0806 11.1835 49.7834 10.9394C49.4862 10.6953 49.3262 10.3625 49.3262 9.98527C49.3262 9.74119 49.3948 9.4971 49.532 9.2974C49.6691 9.0977 49.852 8.94237 50.1263 8.83142C50.3777 8.72048 50.8121 8.63172 51.4064 8.54296C52.4808 8.40983 53.2808 8.23231 53.8066 8.01041V8.52077C53.8066 9.16426 53.7151 9.63024 53.578 9.96308C53.3723 10.3847 53.0522 10.7175 52.5951 10.9394C52.1607 11.2057 51.6578 11.3166 51.0864 11.3166ZM51.9321 3.61692C51.1778 3.61692 50.5149 3.70568 49.9663 3.92757C49.3948 4.12728 48.9605 4.41574 48.6633 4.77077C48.3661 5.14799 48.1376 5.61397 48.0004 6.21308L49.4405 6.39059C49.6005 5.79148 49.852 5.36988 50.172 5.14799C50.492 4.9039 51.0178 4.79296 51.7035 4.79296C52.4579 4.79296 53.0065 4.94828 53.3951 5.28112C53.6694 5.52521 53.8066 5.92462 53.8066 6.52373V6.90095C53.2351 7.10065 52.3665 7.27817 51.1778 7.4113C50.7435 7.45568 50.3092 7.52225 49.8748 7.6332C49.4862 7.72196 49.1433 7.87728 48.8005 8.09918C48.5033 8.29888 48.229 8.58734 48.0461 8.92018C47.8633 9.27521 47.749 9.63024 47.749 10.0518C47.749 10.7619 48.0004 11.3388 48.5262 11.7826C49.0519 12.2264 49.7605 12.4705 50.7206 12.4705H50.7435C51.2921 12.4705 51.8407 12.3817 52.3436 12.182C52.8694 12.0045 53.3723 11.6717 53.9209 11.2279C53.9666 11.6273 54.058 11.9823 54.1952 12.2486H55.7496C55.5667 11.9157 55.4296 11.5829 55.361 11.2279L55.2695 8.72048V6.81219C55.2695 6.1687 55.2467 5.7471 55.201 5.50302C55.1095 5.1258 54.9495 4.79296 54.7438 4.52669C54.5381 4.26042 54.1723 4.06071 53.7151 3.8832C53.258 3.70568 52.6636 3.61692 51.9321 3.61692ZM66.6533 3.59473C65.5561 3.59473 64.6646 4.10509 63.9788 5.08142C63.8188 4.63763 63.5216 4.26042 63.1102 3.99414C62.6987 3.75006 62.1729 3.61692 61.5329 3.61692C60.9386 3.61692 60.4357 3.75006 59.9785 3.99414C59.5442 4.23823 59.1784 4.57107 58.9041 4.99267V3.81663H57.5783V12.2486V12.2042H59.0413V7.8329C59.0413 7.05627 59.1327 6.45716 59.2698 6.05775C59.407 5.68053 59.6813 5.34769 60.0471 5.1258C60.3899 4.92609 60.7785 4.81515 61.19 4.81515C61.19 4.81515 61.19 4.81515 61.2129 4.81515C61.7615 4.81515 62.1501 4.97048 62.4015 5.30332C62.653 5.61397 62.7673 6.10213 62.7673 6.74562V12.2264H64.2531V7.32255C64.2531 6.45716 64.436 5.81367 64.8474 5.41426C65.2589 5.03704 65.7618 4.83734 66.379 4.83734C66.6761 4.83734 66.9733 4.9261 67.2476 5.08142C67.4762 5.21456 67.6591 5.43645 67.7734 5.68053C67.8648 5.92461 67.9105 6.34621 67.9105 6.92314V12.2486H69.3506V6.45716C69.3506 5.50302 69.1221 4.79296 68.6649 4.32699C68.1848 3.83882 67.5219 3.59473 66.6533 3.59473ZM6.62575 0.443848C5.43709 0.443848 4.38558 0.687927 3.47122 1.1539C2.53401 1.61988 1.84824 2.35213 1.3682 3.32846C0.865304 4.3048 0.636719 5.36988 0.636719 6.50154C0.636719 7.6332 0.888163 8.6761 1.3682 9.60805C1.8711 10.5178 2.57972 11.2501 3.5398 11.716C4.49987 12.2042 5.57424 12.4483 6.74005 12.4483C7.60869 12.4483 8.47733 12.293 9.30025 12.0045C10.146 11.6938 10.9461 11.2279 11.7233 10.6288V6.30184L6.64861 6.30184V7.67757V7.69976L10.1689 7.69976V9.87432C9.826 10.1628 9.3231 10.4512 8.68306 10.6953C8.04301 10.9394 7.35724 11.0725 6.67147 11.0725H6.64861C5.87141 11.0725 5.11707 10.895 4.4313 10.5622C3.72267 10.2293 3.17406 9.71899 2.80832 9.00893C2.44257 8.29887 2.2597 7.43349 2.2597 6.41278C2.2597 5.56959 2.41972 4.77077 2.71688 4.06071C2.87689 3.63911 3.1512 3.26189 3.47122 2.90686C3.79125 2.55183 4.22557 2.26337 4.75132 2.06367C5.27708 1.84177 5.91713 1.75302 6.64861 1.75302C7.24294 1.75302 7.79156 1.84177 8.29446 2.06367C8.79735 2.26337 9.1631 2.55184 9.4374 2.88468C9.68885 3.21752 9.9403 3.68349 10.1003 4.2826L11.5176 3.90538C11.3118 3.12875 10.9918 2.48527 10.6032 1.9971C10.2146 1.50894 9.66599 1.13172 8.95737 0.865444C8.2716 0.576982 7.47153 0.443848 6.62575 0.443848Z" fill="#010101"/>
<path d="M22.8097 9.45266C23.7469 12.7811 26.8328 15 30.2388 15C30.856 15 31.4732 14.9334 32.1133 14.7781C32.0904 14.7781 32.0904 14.7781 32.0675 14.7781C32.0218 14.7781 31.999 14.7781 31.9532 14.7559C31.7704 14.8003 31.5646 14.8225 31.3818 14.8225C30.7874 14.8225 30.1931 14.645 29.6216 14.3343C29.5988 14.3343 29.5988 14.3121 29.5759 14.3121C26.8329 14.0459 24.4098 12.2263 23.5412 9.54142L23.1983 9.63018C23.1754 9.63018 23.1526 9.63018 23.1068 9.63018C22.9925 9.63018 22.8783 9.56361 22.8097 9.45266ZM30.2845 0C29.6445 0 29.0045 0.0665627 28.3644 0.244078C24.867 1.10946 22.5354 4.14941 22.5354 7.5C22.5354 8.09911 22.6039 8.69823 22.764 9.31953C22.764 9.16421 22.8783 9.03106 23.0154 9.00887L23.3583 8.92012C23.2669 8.45414 23.1983 7.96598 23.1983 7.52219C23.1983 5.17012 24.4555 2.97337 26.5128 1.73077C26.6957 1.46449 26.9014 1.2426 27.13 1.0429C27.4272 0.798813 27.7472 0.599107 28.1129 0.465971C28.1587 0.377214 28.2272 0.310648 28.3415 0.288459C28.3644 0.288459 28.3873 0.288459 28.433 0.288459C28.5016 0.288459 28.5701 0.310646 28.6387 0.355024C28.7987 0.332835 28.9816 0.31065 29.1416 0.31065C29.7131 0.31065 30.2617 0.465974 30.7874 0.732246C33.6219 0.93195 36.1364 2.81804 37.0051 5.59171L37.3251 5.50296C37.3479 5.50296 37.3708 5.50296 37.4165 5.50296C37.5765 5.50296 37.7137 5.61391 37.7594 5.74704C37.8051 5.92456 37.6908 6.10207 37.508 6.14645L37.1879 6.2352C37.2794 6.67899 37.3251 7.12278 37.3251 7.56657C37.3251 9.89645 36.0907 12.0488 34.102 13.2914C33.8963 13.6021 33.6677 13.8683 33.3934 14.1124C33.0962 14.3787 32.7304 14.5784 32.3418 14.7115C32.2961 14.7559 32.2504 14.7781 32.2047 14.8003C35.7021 13.9349 38.0109 10.895 38.0109 7.54438C38.0109 6.92308 37.9423 6.30177 37.7594 5.68047C36.8679 2.26331 33.7362 0 30.2845 0Z" fill="#0D71AD"/>
<path d="M32.342 14.6672C32.2506 14.6894 32.182 14.7116 32.0905 14.7338C32.0448 14.7338 32.022 14.756 31.9763 14.756C32.022 14.7782 32.0448 14.7782 32.0905 14.7782C32.1134 14.7782 32.1134 14.7782 32.1363 14.7782C32.1591 14.7782 32.1591 14.7782 32.182 14.7782C32.2048 14.7782 32.2048 14.7782 32.2048 14.7782C32.2506 14.7338 32.2963 14.7116 32.342 14.6672ZM30.6961 7.78852L30.0332 7.94385L31.6562 14.1347C31.7477 14.1347 31.8391 14.1125 31.9305 14.0903C32.0677 14.0681 32.2048 14.0237 32.3191 13.9572L30.6961 7.78852ZM28.9132 0.932012C28.8217 0.932012 28.7303 0.954204 28.6388 0.976394C28.5017 0.998583 28.3645 1.04296 28.2503 1.10953L29.8732 7.30036L30.5361 7.14503L28.9132 0.932012ZM28.456 0.244141C28.4331 0.244141 28.4103 0.244141 28.3645 0.244141C28.2503 0.26633 28.1817 0.332902 28.136 0.42166C28.2503 0.377281 28.3417 0.355093 28.456 0.332903C28.5245 0.310714 28.5703 0.310711 28.6388 0.288522C28.5931 0.266333 28.5245 0.244141 28.456 0.244141Z" fill="#0D71AD"/>
<path d="M25.7587 8.29874L23.3814 8.87566L23.0385 8.96442C22.8785 9.0088 22.787 9.14193 22.787 9.27507C22.787 9.29726 22.787 9.31945 22.787 9.36383C22.787 9.38601 22.8099 9.43039 22.8099 9.45258C22.8785 9.56353 22.9928 9.6301 23.1071 9.6301C23.1299 9.6301 23.1528 9.6301 23.1985 9.6301L23.5414 9.54134L25.8959 8.96442C25.8501 8.85347 25.8273 8.72033 25.8044 8.5872C25.8044 8.49844 25.7816 8.40969 25.7587 8.29874ZM33.9651 6.27951L30.5134 7.1227L29.8505 7.27803L26.4216 8.12122C26.4445 8.20998 26.4673 8.32093 26.4902 8.40969C26.5131 8.52063 26.5588 8.65377 26.5816 8.76472L30.0333 7.92152L30.6962 7.7662L34.1251 6.923C34.1022 6.83424 34.0793 6.72329 34.0565 6.63454C34.0336 6.52359 34.0108 6.41264 33.9651 6.27951ZM37.4168 5.4585C37.3939 5.4585 37.371 5.4585 37.3253 5.4585L37.0053 5.54726L34.628 6.12418C34.6508 6.23512 34.6965 6.36826 34.7194 6.47921C34.7423 6.56797 34.7651 6.67892 34.788 6.76767L37.1653 6.19075L37.4853 6.10199C37.6682 6.05761 37.7825 5.8801 37.7368 5.70258C37.7139 5.54725 37.5768 5.4585 37.4168 5.4585Z" fill="#0D71AD"/>
<path d="M28.9134 0.932012C29.0049 0.932012 29.0735 0.909821 29.1649 0.909821C29.6221 0.909821 30.1021 1.04296 30.5821 1.30923C31.0622 1.57551 31.5422 1.97491 31.9994 2.48527C32.8223 3.41722 33.5538 4.74858 33.9881 6.27965C34.011 6.3906 34.0567 6.52373 34.0796 6.63468C34.1024 6.72344 34.1253 6.83438 34.1481 6.92314C34.331 7.74415 34.4225 8.54297 34.4225 9.2974C34.4225 10.2515 34.2853 11.1169 34.0338 11.8492C33.7824 12.5814 33.3938 13.1583 32.9595 13.5578C32.7766 13.7131 32.5709 13.8462 32.3423 13.9572C32.228 14.0015 32.0908 14.0459 31.9537 14.0903C31.8622 14.1125 31.7708 14.1347 31.6794 14.1347C31.5879 14.1347 31.5194 14.1569 31.4279 14.1569C30.9707 14.1569 30.4907 14.0237 30.0107 13.7575C29.5306 13.4912 29.0506 13.0918 28.5934 12.5814C27.7705 11.6495 27.039 10.3181 26.6047 8.78704C26.5818 8.6761 26.5361 8.54297 26.5133 8.43202C26.4904 8.34326 26.4675 8.23231 26.4447 8.14355C26.2618 7.32255 26.1704 6.52373 26.1704 5.7693C26.1704 4.81515 26.3075 3.94977 26.559 3.21752C26.8104 2.48527 27.199 1.90835 27.6333 1.50894C27.8162 1.33142 28.0219 1.22048 28.2505 1.10953C28.3648 1.06515 28.502 1.02077 28.6391 0.976394C28.7306 0.954204 28.822 0.932012 28.9134 0.932012ZM29.1649 0.244141C29.0049 0.244141 28.822 0.266333 28.662 0.288522C28.5934 0.288522 28.5477 0.310714 28.4791 0.332903C28.3648 0.355093 28.2505 0.39947 28.1591 0.42166C27.7934 0.554796 27.4733 0.754501 27.1762 0.998584C26.9476 1.19829 26.7418 1.42018 26.559 1.68645C26.4447 1.84177 26.3304 2.01929 26.2389 2.219C25.736 3.17314 25.4617 4.39356 25.4617 5.7693C25.4617 6.56811 25.5532 7.4335 25.7589 8.32107C25.7818 8.40983 25.8046 8.49859 25.8275 8.60953C25.8503 8.74267 25.8961 8.85362 25.9189 8.98675C26.2618 10.185 26.7418 11.2501 27.359 12.1376C27.9991 13.0918 28.7763 13.8684 29.5992 14.3344C29.6221 14.3344 29.6221 14.3566 29.6449 14.3566C30.2164 14.6672 30.8107 14.8447 31.4051 14.8447C31.5879 14.8447 31.7937 14.8225 31.9765 14.7782C32.0223 14.7782 32.0451 14.756 32.0908 14.756C32.1823 14.7338 32.2737 14.7116 32.3423 14.6894C32.7309 14.5563 33.0738 14.3566 33.3938 14.0903C33.6681 13.8684 33.8967 13.5799 34.1024 13.2693C34.1939 13.1362 34.2624 13.003 34.331 12.8699C34.8339 11.9157 35.1082 10.6953 35.1082 9.31959C35.1082 8.52078 35.0168 7.65539 34.811 6.79C34.7882 6.70124 34.7653 6.5903 34.7425 6.50154C34.7196 6.3906 34.6739 6.25746 34.651 6.14651C34.3082 4.94829 33.8281 3.8832 33.2109 2.97344C32.548 1.9971 31.7708 1.22048 30.925 0.7545C30.8793 0.732311 30.8564 0.710117 30.8107 0.687928C30.285 0.399466 29.7135 0.244141 29.1649 0.244141Z" fill="#0D71AD"/>
</svg>
