<svg width="22" height="20" viewBox="0 0 22 20" fill="none" xmlns="http://www.w3.org/2000/svg">
<path d="M6.80324 19.096C6.6194 19.0974 6.43854 19.0501 6.27957 18.9591C6.1206 18.8681 5.98934 18.7366 5.89949 18.5786L0.905506 10.0643C0.90496 10.06 0.90341 10.0559 0.900978 10.0523C0.8985 10.0483 0.896954 10.0438 0.896449 10.0392C0.0137883 8.51619 -0.228729 6.71313 0.220833 5.01611C0.670395 3.31908 1.77629 1.86301 3.3017 0.959728C4.8271 0.0564445 6.65072 -0.222239 8.38203 0.183358C10.1133 0.588956 11.6147 1.64659 12.5646 3.12976L9.10522 9.04186C9.09645 9.04186 9.09645 9.04967 9.09645 9.05832C8.48044 10.1144 8.16909 11.3163 8.19608 12.5342C8.22307 13.752 8.58737 14.9395 9.24957 15.968L7.71379 18.5788C7.62227 18.737 7.48969 18.8682 7.32966 18.9591C7.16964 19.05 6.98794 19.0973 6.80324 19.096V19.096ZM6.80324 3.87013C6.34074 3.87029 5.88867 4.00561 5.50418 4.25897C5.1197 4.51234 4.82006 4.87237 4.64316 5.29355C4.46626 5.71473 4.42003 6.17815 4.51032 6.62522C4.60061 7.0723 4.82337 7.48295 5.15043 7.80526C5.47749 8.12757 5.89417 8.34707 6.34779 8.436C6.8014 8.52494 7.27159 8.47932 7.69891 8.30492C8.12622 8.13051 8.49148 7.83515 8.7485 7.45617C9.00551 7.07719 9.14276 6.63162 9.14287 6.17577C9.14219 5.56441 8.89542 4.97829 8.45673 4.54607C8.01803 4.11385 7.42326 3.87085 6.80296 3.87041L6.80324 3.87013Z" fill="#3F6587"/>
<path d="M14.9995 19.093C13.8502 19.0955 12.7192 18.8099 11.7128 18.2631C10.7063 17.7162 9.85749 16.9261 9.24609 15.967L12.7054 10.0632C12.7048 10.0587 12.7053 10.0541 12.7067 10.0498C12.7081 10.0454 12.7105 10.0415 12.7136 10.0381C13.2982 9.02427 13.6061 7.87842 13.6075 6.71231C13.61 5.44426 13.2474 4.20153 12.5619 3.12845L14.0889 0.517613C14.1814 0.360197 14.3143 0.229515 14.4742 0.138668C14.6341 0.0478206 14.8155 0 15 0C15.1846 0 15.366 0.0478206 15.5259 0.138668C15.6858 0.229515 15.8186 0.360197 15.9112 0.517613L20.8967 9.04083C20.9046 9.04083 20.9046 9.04892 20.9046 9.05729C21.4976 10.0769 21.8082 11.2322 21.8052 12.4074C21.8022 13.5826 21.4858 14.7364 20.8876 15.7531C20.2894 16.7697 19.4305 17.6134 18.397 18.1997C17.3636 18.7859 16.1919 19.094 14.9995 19.093ZM14.9995 10.6159C14.537 10.616 14.0849 10.7512 13.7003 11.0046C13.3158 11.2579 13.0161 11.6179 12.8392 12.0391C12.6622 12.4603 12.616 12.9237 12.7062 13.3708C12.7965 13.8179 13.0192 14.2286 13.3463 14.5509C13.6733 14.8732 14.09 15.0928 14.5436 15.1817C14.9973 15.2707 15.4675 15.2251 15.8948 15.0507C16.3221 14.8763 16.6874 14.5809 16.9444 14.2019C17.2015 13.823 17.3387 13.3774 17.3388 12.9215C17.3383 12.3102 17.0917 11.724 16.6531 11.2917C16.2145 10.8595 15.6197 10.6164 14.9995 10.6159Z" fill="#3F6587"/>
</svg>
