<svg width="25" height="11" viewBox="0 0 25 11" fill="none" xmlns="http://www.w3.org/2000/svg">
<path fill-rule="evenodd" clip-rule="evenodd" d="M2.66343 2.84761C2.03593 2.84761 1.59806 3.29754 1.59806 3.86575C1.59806 4.4337 2.03593 4.88335 2.66343 4.88335C3.21989 4.88335 3.66965 4.4337 3.66965 3.86575C3.66965 3.29754 3.21989 2.84761 2.66343 2.84761ZM1.34955 8.6232C1.34955 9.09663 1.75176 9.30971 2.98299 9.30971C3.92978 9.30971 4.24961 8.83628 4.24961 8.6232C4.24961 8.3391 3.81174 7.91321 2.39115 7.91321C1.58618 7.91321 1.34955 8.36286 1.34955 8.6232ZM5.63454 2.75282C5.29148 2.75282 4.9125 2.75282 4.68748 2.89514C4.87684 3.15548 5.0192 3.51035 5.0192 3.98377C5.0192 5.1437 4.23772 5.97198 2.69882 5.97198C2.0597 5.97198 1.55052 5.99575 1.55052 6.35088C1.55052 7.34499 5.59916 5.99575 5.59916 8.45738C5.59916 9.33347 4.71125 10.28 2.74636 10.28C1.08887 10.28 0 9.78313 0 8.81252C0 8.04338 0.579959 7.67636 1.11265 7.67636V7.65286C0.828474 7.47543 0.201243 7.32122 0.201243 6.65849C0.201243 6.06678 0.887632 5.61712 1.16019 5.53421C0.651002 5.11993 0.248515 4.64651 0.248515 3.90086C0.248515 2.82411 1.07699 1.75898 2.67532 1.75898C3.19612 1.75898 3.81174 1.97206 4.19045 2.30316C4.47462 1.92453 4.93627 1.73522 5.63454 1.75898V2.75282Z" fill="#3F6587"/>
<path fill-rule="evenodd" clip-rule="evenodd" d="M9.62595 4.19693C9.60245 3.34488 9.15242 2.84769 8.44226 2.84769C7.73183 2.84769 7.28207 3.34488 7.2583 4.19693H9.62595ZM7.2583 5.1913C7.28207 6.46925 7.85041 6.96644 8.53707 6.96644C9.22373 6.96644 9.54302 6.65856 9.91012 6.23267L10.9755 6.89541C10.4074 7.77096 9.57868 8.14986 8.39472 8.14986C6.79666 8.14986 5.79071 6.90729 5.79071 4.95446C5.79071 3.00162 6.79666 1.75906 8.46603 1.75906C10.076 1.74718 10.9755 3.1083 10.9755 4.58744V5.1913H7.2583Z" fill="#3F6587"/>
<path fill-rule="evenodd" clip-rule="evenodd" d="M19.9689 9.02569C20.1939 9.07322 20.3714 9.07322 20.5845 9.07322C21.0934 9.07322 21.3776 8.93089 21.5551 8.58791C21.6972 8.29192 21.792 8.11449 21.792 7.86576C21.792 7.64107 21.6737 7.38073 21.6026 7.132L19.957 1.87736H21.437L22.4549 5.66474H22.4787L23.5319 1.87736H25L23.0586 8.04346C22.4073 9.80698 21.8868 10.2804 20.6793 10.2804C20.3239 10.2804 20.1464 10.2566 19.9689 10.2329V9.02569Z" fill="#3F6587"/>
<path fill-rule="evenodd" clip-rule="evenodd" d="M12.1835 1.89396V0H13.7981V1.89396H15.1263V3.07765H13.7981V6.55716C13.7981 6.88853 13.9804 6.98332 14.384 6.98332C14.6314 6.98332 14.8918 6.91229 15.1263 6.86476V8.07195C14.6836 8.11948 14.293 8.16674 13.8502 8.16674C12.6522 8.16674 12.1835 7.62229 12.1835 6.74647V3.07765H11.2462V1.89396H12.1835Z" fill="#3F6587"/>
<path fill-rule="evenodd" clip-rule="evenodd" d="M16.4064 1.89396V0H18.0209V1.89396H19.3491V3.07765H18.0209V6.55716C18.0209 6.88853 18.2032 6.98332 18.6068 6.98332C18.8542 6.98332 19.1146 6.91229 19.3491 6.86476V8.07195C18.9064 8.11948 18.5158 8.16674 18.073 8.16674C16.875 8.16674 16.4064 7.62229 16.4064 6.74647V3.07765H15.469V1.89396H16.4064Z" fill="#3F6587"/>
</svg>
