<svg width="345" height="37" viewBox="0 0 345 37" fill="none" xmlns="http://www.w3.org/2000/svg">
<path d="M92.21 31.6447C90.6609 32.0301 88.924 32.2227 87.0932 32.2227C85.1685 32.2227 83.4316 31.9337 81.8356 31.3076C80.2395 30.6814 78.8312 29.8144 77.7046 28.6584C76.531 27.5506 75.639 26.1537 74.9818 24.6124C74.3246 23.0229 73.996 21.2889 73.996 19.314C73.996 17.3392 74.3246 15.557 74.9818 13.9675C75.639 12.378 76.5779 11.0293 77.7515 9.92151C78.9251 8.81367 80.2864 7.94667 81.8825 7.3205C83.4786 6.7425 85.1685 6.40533 86.9524 6.40533C88.8301 6.40533 90.614 6.69433 92.21 7.27233C93.8061 7.85033 95.1205 8.66917 96.1533 9.63251L92.4917 13.8712C91.9284 13.1969 91.1773 12.667 90.2854 12.2335C89.3465 11.8 88.3137 11.6073 87.1402 11.6073C86.1074 11.6073 85.2155 11.8 84.3236 12.1854C83.4786 12.5707 82.7275 13.1005 82.1172 13.7748C81.507 14.4492 80.9906 15.268 80.662 16.1832C80.3334 17.0984 80.1456 18.158 80.1456 19.2659C80.1456 20.3737 80.2864 21.4334 80.615 22.3967C80.9436 23.36 81.4131 24.1789 82.0233 24.8532C82.6336 25.5275 83.3847 26.0574 84.3236 26.4427C85.2155 26.8281 86.2952 27.0207 87.4218 27.0207C88.079 27.0207 88.7362 26.9726 89.3465 26.8762C89.9568 26.7799 90.5201 26.5872 91.0365 26.3946V21.915H86.483V17.1465H96.3411V30.1034C95.1675 30.7777 93.8061 31.2594 92.21 31.6447Z" fill="#333333"/>
<path d="M100.801 31.645V5.49042H106.434V31.645H100.801Z" fill="#333333"/>
<path d="M128.591 22.9267C128.591 24.3235 128.356 25.624 127.84 26.7319C127.324 27.8879 126.666 28.8512 125.822 29.6219C124.977 30.4407 123.991 31.0187 122.864 31.4522C121.737 31.8857 120.517 32.1266 119.249 32.1266C117.982 32.1266 116.808 31.8857 115.635 31.4522C114.508 31.0187 113.522 30.3926 112.677 29.6219C111.832 28.803 111.175 27.8397 110.659 26.7319C110.142 25.5759 109.908 24.3235 109.908 22.9267C109.908 21.5299 110.142 20.2294 110.659 19.1215C111.175 18.0137 111.832 17.0504 112.677 16.2315C113.522 15.4609 114.508 14.8347 115.635 14.4494C116.761 14.0158 117.982 13.8232 119.249 13.8232C120.517 13.8232 121.737 14.0158 122.864 14.4494C123.991 14.8829 124.977 15.4609 125.822 16.2315C126.666 17.0022 127.371 17.9655 127.84 19.1215C128.356 20.2775 128.591 21.5299 128.591 22.9267ZM123.287 22.9267C123.287 22.3969 123.193 21.8189 123.005 21.289C122.817 20.7592 122.582 20.2775 122.207 19.8922C121.878 19.5069 121.456 19.1697 120.939 18.9289C120.423 18.688 119.86 18.5435 119.203 18.5435C118.545 18.5435 117.982 18.688 117.466 18.9289C116.949 19.1697 116.574 19.5069 116.245 19.8922C115.916 20.2775 115.682 20.7592 115.494 21.289C115.306 21.8189 115.259 22.3487 115.259 22.9267C115.259 23.4565 115.353 24.0345 115.494 24.5644C115.682 25.0942 115.916 25.5759 116.245 26.0094C116.574 26.4429 116.996 26.78 117.513 27.0209C118.029 27.2617 118.592 27.4062 119.249 27.4062C119.907 27.4062 120.47 27.2617 120.986 27.0209C121.503 26.78 121.878 26.4429 122.254 26.0094C122.582 25.5759 122.864 25.0942 123.005 24.5644C123.193 24.0345 123.287 23.5047 123.287 22.9267Z" fill="#333333"/>
<path d="M150.795 22.9268C150.795 24.131 150.608 25.287 150.279 26.3948C149.903 27.5027 149.387 28.466 148.73 29.333C148.026 30.1518 147.228 30.8262 146.195 31.356C145.209 31.8858 144.082 32.1267 142.815 32.1267C141.688 32.1267 140.609 31.8858 139.623 31.4042C138.637 30.9225 137.839 30.2482 137.323 29.3812H137.276V31.645H132.206V5.49042H137.745V16.2316H137.792C138.261 15.6536 138.919 15.1238 139.764 14.6421C140.609 14.1604 141.641 13.9196 142.909 13.9196C144.129 13.9196 145.209 14.1604 146.195 14.6421C147.181 15.1238 148.026 15.7981 148.683 16.617C149.387 17.4358 149.903 18.3991 150.279 19.507C150.608 20.6148 150.795 21.7226 150.795 22.9268ZM145.491 22.9268C145.491 22.397 145.397 21.819 145.256 21.2891C145.068 20.7593 144.834 20.2776 144.505 19.8923C144.176 19.507 143.754 19.1698 143.237 18.929C142.721 18.6881 142.158 18.5436 141.501 18.5436C140.89 18.5436 140.327 18.6881 139.811 18.929C139.294 19.1698 138.872 19.507 138.543 19.9405C138.214 20.374 137.933 20.8075 137.745 21.3373C137.557 21.8671 137.463 22.397 137.463 22.975C137.463 23.553 137.557 24.0828 137.745 24.6126C137.933 25.1425 138.214 25.6241 138.543 26.0095C138.872 26.443 139.294 26.7801 139.811 27.021C140.327 27.2618 140.843 27.4063 141.501 27.4063C142.158 27.4063 142.721 27.2618 143.237 27.021C143.754 26.7801 144.129 26.443 144.505 26.0095C144.834 25.576 145.115 25.0943 145.256 24.5645C145.397 24.0346 145.491 23.5048 145.491 22.9268Z" fill="#333333"/>
<path d="M154.081 16.7613C155.067 15.7979 156.241 15.0754 157.555 14.5938C158.87 14.1121 160.231 13.8713 161.592 13.8713C163.001 13.8713 164.221 14.0639 165.207 14.4011C166.193 14.7383 166.991 15.3163 167.601 16.0388C168.211 16.8095 168.634 17.7246 168.915 18.8806C169.197 20.0366 169.338 21.3853 169.338 22.9266V31.5967H164.268V29.7663H164.127C163.705 30.4888 163.048 31.0187 162.203 31.404C161.358 31.7893 160.419 31.982 159.386 31.982C158.729 31.982 158.025 31.8857 157.274 31.693C156.569 31.5003 155.912 31.2113 155.302 30.7778C154.692 30.3443 154.222 29.8145 153.847 29.1402C153.471 28.4658 153.283 27.5988 153.283 26.5873C153.283 25.335 153.612 24.3235 154.269 23.601C154.926 22.8303 155.771 22.2523 156.851 21.8188C157.884 21.3853 159.057 21.1445 160.325 21C161.592 20.8555 162.86 20.8073 164.08 20.8073V20.5665C164.08 19.6995 163.799 19.0733 163.188 18.688C162.625 18.3026 161.874 18.0618 161.029 18.0618C160.231 18.0618 159.48 18.2545 158.776 18.5916C158.025 18.9288 157.414 19.3623 156.898 19.844L154.081 16.7613ZM164.221 24.1308H163.517C162.907 24.1308 162.296 24.179 161.686 24.2271C161.076 24.2753 160.513 24.3716 160.043 24.5643C159.574 24.7088 159.151 24.9496 158.87 25.2868C158.541 25.5758 158.4 26.0093 158.4 26.5391C158.4 26.8763 158.494 27.1171 158.635 27.358C158.776 27.5988 158.963 27.7915 159.198 27.8878C159.433 28.0323 159.668 28.1286 159.996 28.1768C160.278 28.225 160.56 28.2731 160.841 28.2731C161.968 28.2731 162.813 27.936 163.423 27.3098C164.033 26.6836 164.315 25.8166 164.315 24.7088V24.1308H164.221Z" fill="#333333"/>
<path d="M173.469 31.645V5.49042H179.102V31.645H173.469Z" fill="#333333"/>
<path d="M197.88 8.9102C197.88 9.3437 197.786 9.7772 197.645 10.1144C197.457 10.4997 197.269 10.8369 196.988 11.0777C196.706 11.3667 196.377 11.5594 195.955 11.752C195.579 11.8965 195.157 11.9929 194.734 11.9929C193.842 11.9929 193.091 11.7039 192.481 11.0777C191.871 10.4515 191.589 9.72903 191.589 8.86203C191.589 8.42853 191.683 8.0432 191.824 7.65786C191.965 7.27253 192.199 6.93536 192.481 6.69452C192.763 6.40552 193.091 6.21286 193.514 6.02019C193.889 5.82752 194.312 5.77936 194.781 5.77936C195.204 5.77936 195.626 5.87569 196.002 6.02019C196.377 6.16469 196.753 6.40552 197.035 6.69452C197.316 6.98353 197.551 7.32069 197.692 7.65786C197.786 8.0432 197.88 8.42853 197.88 8.9102ZM191.965 31.6449V14.4012H197.504V31.6449H191.965Z" fill="#333333"/>
<path d="M224.449 19.3141C224.449 21.4816 224.074 23.312 223.276 24.8533C222.478 26.3947 221.492 27.6952 220.225 28.7067C218.957 29.7182 217.502 30.4407 215.906 30.9223C214.31 31.404 212.714 31.6448 211.071 31.6448H202.151V7.12793H210.789C212.479 7.12793 214.122 7.32059 215.765 7.75409C217.408 8.13943 218.863 8.81377 220.131 9.7771C221.398 10.6923 222.431 11.9446 223.229 13.5341C224.074 15.0754 224.449 17.0021 224.449 19.3141ZM218.441 19.3141C218.441 17.9173 218.206 16.7613 217.783 15.8943C217.361 14.9791 216.751 14.2566 216.047 13.7268C215.295 13.1969 214.497 12.8116 213.559 12.5708C212.62 12.3299 211.681 12.2336 210.695 12.2336H207.785V26.5392H210.507C211.54 26.5392 212.526 26.3947 213.512 26.1538C214.45 25.913 215.295 25.5277 216.047 24.9497C216.798 24.4198 217.361 23.6491 217.783 22.734C218.253 21.8188 218.441 20.6628 218.441 19.3141Z" fill="#333333"/>
<path d="M244.635 23.2156C244.635 23.4565 244.635 23.6973 244.635 23.89C244.635 24.1308 244.635 24.3235 244.588 24.5643H232.43C232.477 25.046 232.618 25.4795 232.852 25.8648C233.087 26.2501 233.369 26.5873 233.744 26.8763C234.12 27.1653 234.542 27.4062 235.012 27.5507C235.481 27.6952 235.951 27.7915 236.467 27.7915C237.359 27.7915 238.063 27.647 238.673 27.3098C239.284 26.9727 239.753 26.5392 240.175 26.0093L244.025 28.514C243.227 29.67 242.194 30.5852 240.927 31.2113C239.612 31.8375 238.11 32.1747 236.42 32.1747C235.153 32.1747 233.979 31.982 232.852 31.5485C231.726 31.1632 230.74 30.537 229.895 29.7663C229.05 28.9957 228.393 28.0323 227.923 26.9245C227.454 25.8166 227.219 24.5161 227.219 23.0711C227.219 21.6743 227.454 20.3738 227.923 19.266C228.393 18.11 229.05 17.1466 229.848 16.376C230.646 15.5571 231.632 14.9791 232.711 14.5456C233.791 14.1121 235.012 13.8713 236.279 13.8713C237.5 13.8713 238.673 14.0639 239.706 14.4974C240.739 14.9309 241.631 15.5571 242.382 16.3278C243.133 17.1466 243.696 18.11 244.119 19.266C244.4 20.422 244.635 21.7225 244.635 23.2156ZM239.518 21.0481C239.518 20.133 239.237 19.3623 238.673 18.7361C238.11 18.11 237.312 17.7728 236.185 17.7728C235.669 17.7728 235.153 17.8691 234.683 18.0136C234.214 18.2063 233.838 18.4471 233.51 18.7361C233.181 19.0251 232.899 19.4105 232.711 19.7958C232.524 20.1811 232.383 20.6146 232.383 21.0481H239.518V21.0481Z" fill="#333333"/>
<path d="M259.094 31.6451V22.2526C259.094 21.7709 259.047 21.2893 258.953 20.8558C258.859 20.4223 258.765 20.0369 258.577 19.6998C258.389 19.3626 258.155 19.1218 257.826 18.8809C257.498 18.6883 257.075 18.5919 256.606 18.5919C256.089 18.5919 255.667 18.6883 255.291 18.8809C254.916 19.0736 254.634 19.3626 254.352 19.6998C254.118 20.0369 253.93 20.4223 253.789 20.9039C253.648 21.3374 253.601 21.8191 253.601 22.3008V31.6451H248.015V14.4014H253.367V16.8097H253.413C253.601 16.4244 253.883 16.0872 254.211 15.7019C254.54 15.3647 254.916 15.0276 255.338 14.7867C255.761 14.5459 256.277 14.3051 256.793 14.1606C257.31 14.0161 257.873 13.9197 258.436 13.9197C259.563 13.9197 260.502 14.1124 261.3 14.5459C262.098 14.9794 262.708 15.5092 263.225 16.1354C263.694 16.8098 264.07 17.5323 264.257 18.3993C264.492 19.2663 264.586 20.0851 264.586 20.9521V31.6451H259.094Z" fill="#333333"/>
<path d="M274.82 18.5915V25.1904C274.82 26.0092 274.96 26.5872 275.289 27.0207C275.571 27.4061 276.134 27.6469 276.932 27.6469C277.214 27.6469 277.495 27.6469 277.777 27.5987C278.059 27.5506 278.34 27.5024 278.528 27.4061L278.575 31.5484C278.2 31.6929 277.73 31.7892 277.12 31.9337C276.557 32.0301 275.946 32.0782 275.383 32.0782C274.256 32.0782 273.317 31.9337 272.566 31.6447C271.815 31.3557 271.205 30.9222 270.736 30.3924C270.266 29.8626 269.938 29.1882 269.75 28.4657C269.562 27.6951 269.468 26.8762 269.468 25.9611V18.6879H266.792V14.4492H269.468V9.92151H274.914V14.4492H278.857V18.6879H274.82V18.5915Z" fill="#333333"/>
<path d="M287.401 8.9102C287.401 9.3437 287.307 9.7772 287.166 10.1144C286.978 10.4997 286.79 10.8369 286.509 11.0777C286.227 11.3667 285.898 11.5594 285.476 11.752C285.1 11.8965 284.678 11.9929 284.255 11.9929C283.363 11.9929 282.612 11.7039 282.002 11.0777C281.392 10.4515 281.11 9.72903 281.11 8.86203C281.11 8.42853 281.204 8.0432 281.345 7.65786C281.486 7.27253 281.72 6.93536 282.002 6.69452C282.284 6.40552 282.612 6.21286 283.035 6.02019C283.41 5.82752 283.833 5.77936 284.302 5.77936C284.725 5.77936 285.147 5.87569 285.523 6.02019C285.898 6.16469 286.274 6.40552 286.556 6.69452C286.837 6.98353 287.072 7.32069 287.213 7.65786C287.307 8.0432 287.401 8.42853 287.401 8.9102ZM281.439 31.6449V14.4012H286.978V31.6449H281.439Z" fill="#333333"/>
<path d="M301.765 9.63266C301.577 9.58449 301.343 9.48815 301.061 9.43999C300.779 9.39182 300.545 9.39182 300.263 9.39182C299.747 9.39182 299.324 9.48815 298.996 9.68082C298.667 9.87349 298.432 10.1143 298.244 10.4033C298.057 10.6923 297.963 11.0777 297.869 11.463C297.822 11.8483 297.775 12.2337 297.775 12.619V14.353H301.53V18.5917H297.775V31.5967H292.283V18.5917H289.231V14.353H292.283V12.7153C292.283 11.6557 292.377 10.6442 292.611 9.68082C292.846 8.71749 293.222 7.89865 293.785 7.17615C294.348 6.45365 295.099 5.87565 295.991 5.44215C296.93 5.00865 298.104 4.81598 299.465 4.81598C299.934 4.81598 300.404 4.86414 300.873 4.91231C301.343 4.96048 301.765 5.05681 302.141 5.15315L301.765 9.63266ZM309.792 8.91016C309.792 9.34366 309.699 9.77716 309.558 10.1143C309.37 10.4997 309.135 10.8368 308.854 11.0777C308.572 11.3667 308.243 11.5593 307.821 11.752C307.445 11.8965 307.023 11.9928 306.6 11.9928C305.708 11.9928 304.957 11.7038 304.347 11.0777C303.737 10.4515 303.455 9.72899 303.455 8.86199C303.455 8.42849 303.549 8.04315 303.69 7.65782C303.831 7.27248 304.065 6.93532 304.347 6.69448C304.629 6.40548 304.957 6.21282 305.38 6.02015C305.755 5.82748 306.178 5.77931 306.647 5.77931C307.07 5.77931 307.492 5.87565 307.868 6.02015C308.243 6.16465 308.572 6.40548 308.901 6.69448C309.182 6.98348 309.417 7.32065 309.605 7.65782C309.746 8.04315 309.792 8.42849 309.792 8.91016ZM303.831 31.6449V14.4012H309.417V31.6449H303.831Z" fill="#333333"/>
<path d="M330.448 23.2156C330.448 23.4565 330.448 23.6973 330.448 23.89C330.448 24.1308 330.448 24.3235 330.401 24.5643H318.242C318.289 25.046 318.43 25.4795 318.665 25.8648C318.899 26.2501 319.181 26.5873 319.557 26.8763C319.932 27.1653 320.355 27.4062 320.824 27.5507C321.294 27.6952 321.763 27.7915 322.279 27.7915C323.171 27.7915 323.875 27.647 324.486 27.3098C325.096 26.9727 325.565 26.5392 325.988 26.0093L329.837 28.514C329.039 29.67 328.007 30.5852 326.739 31.2113C325.425 31.8375 323.922 32.1747 322.232 32.1747C320.965 32.1747 319.791 31.982 318.665 31.5485C317.538 31.1632 316.552 30.537 315.707 29.7663C314.862 28.9957 314.205 28.0323 313.736 26.9245C313.266 25.8166 313.031 24.5161 313.031 23.0711C313.031 21.6743 313.266 20.3738 313.736 19.266C314.205 18.11 314.862 17.1466 315.66 16.376C316.458 15.5571 317.444 14.9791 318.524 14.5456C319.604 14.1121 320.824 13.8713 322.092 13.8713C323.312 13.8713 324.486 14.0639 325.518 14.4974C326.551 14.9309 327.443 15.5571 328.194 16.3278C328.945 17.1466 329.509 18.11 329.931 19.266C330.26 20.422 330.448 21.7225 330.448 23.2156ZM325.378 21.0481C325.378 20.133 325.096 19.3623 324.533 18.7361C323.969 18.11 323.171 17.7728 322.045 17.7728C321.528 17.7728 321.012 17.8691 320.542 18.0136C320.073 18.2063 319.697 18.4471 319.369 18.7361C319.04 19.0251 318.759 19.4105 318.571 19.7958C318.383 20.1811 318.242 20.6146 318.242 21.0481H325.378V21.0481Z" fill="#333333"/>
<path d="M344.765 19.0733C344.531 19.0251 344.296 18.9769 344.061 18.9288C343.826 18.9288 343.592 18.8806 343.357 18.8806C342.606 18.8806 341.996 19.0251 341.479 19.3141C340.963 19.6031 340.587 19.9403 340.259 20.3256C339.977 20.7109 339.742 21.1444 339.602 21.6261C339.461 22.1078 339.414 22.4931 339.414 22.8303V31.6448H333.874V14.4493H339.226V16.9539H339.273C339.695 16.0869 340.306 15.3644 341.104 14.7864C341.902 14.2084 342.794 13.9676 343.826 13.9676C344.061 13.9676 344.249 13.9676 344.484 14.0158C344.718 14.0158 344.859 14.0639 345 14.1121L344.765 19.0733Z" fill="#333333"/>
<path d="M0 18.5C0 28.7097 8.10575 37 18.0301 37H29.4873L19.407 23.3782V30.2025H18.0301C11.7429 30.2025 6.62489 24.951 6.62489 18.5C6.62489 12.049 11.7429 6.79755 18.0301 6.79755H29.851V0H18.0301C8.07977 0 0 8.317 0 18.5Z" fill="url(#paint0_linear_5838_133767)"/>
<path d="M44.2155 0H32.7583L42.8385 13.6218V6.79755H44.2155C50.5026 6.79755 55.6207 12.049 55.6207 18.5C55.6207 24.951 50.5026 30.2025 44.2155 30.2025H32.3946V37H44.2155C54.1658 37 62.2456 28.683 62.2456 18.5C62.2456 8.317 54.1658 0 44.2155 0Z" fill="url(#paint1_linear_5838_133767)"/>
<path d="M31.1264 26.3091C35.3305 26.3091 38.7385 22.8122 38.7385 18.4986C38.7385 14.1849 35.3305 10.688 31.1264 10.688C26.9223 10.688 23.5143 14.1849 23.5143 18.4986C23.5143 22.8122 26.9223 26.3091 31.1264 26.3091Z" fill="url(#paint2_linear_5838_133767)"/>
<defs>
<linearGradient id="paint0_linear_5838_133767" x1="-1.14256" y1="32.1269" x2="63.5443" y2="33.395" gradientUnits="userSpaceOnUse">
<stop stop-color="#CB1B31"/>
<stop offset="1" stop-color="#EF3F50"/>
</linearGradient>
<linearGradient id="paint1_linear_5838_133767" x1="-1.14256" y1="32.1269" x2="63.5443" y2="33.395" gradientUnits="userSpaceOnUse">
<stop stop-color="#CB1B31"/>
<stop offset="1" stop-color="#EF3F50"/>
</linearGradient>
<linearGradient id="paint2_linear_5838_133767" x1="38.0309" y1="24.0952" x2="24.4481" y2="11.2648" gradientUnits="userSpaceOnUse">
<stop stop-color="#058F7A"/>
<stop offset="1" stop-color="#09B89D"/>
</linearGradient>
</defs>
</svg>
