<svg width="25" height="25" viewBox="0 0 25 25" fill="none" xmlns="http://www.w3.org/2000/svg">
<path fill-rule="evenodd" clip-rule="evenodd" d="M25 12.5C25 19.4036 19.4036 25 12.5 25C5.59644 25 0 19.4036 0 12.5C0 5.59644 5.59644 0 12.5 0C19.4036 0 25 5.59644 25 12.5ZM8.03516 16.9653H15.1738V9.63135C15.1738 9.59473 15.2031 9.56543 15.2397 9.56543H16.895C16.9316 9.56543 16.9609 9.59473 16.9609 9.63135V16.9653C16.9609 17.9517 16.1626 18.75 15.1763 18.75H9.81982C8.8335 18.75 8.03516 17.9517 8.03516 16.9653ZM16.9634 8.03467C16.9634 7.04834 16.165 6.25 15.1787 6.25H9.81982C8.8335 6.25 8.03516 7.04834 8.03516 8.03467V15.3687C8.03516 15.4053 8.06445 15.4346 8.10107 15.4346H9.75635C9.79297 15.4346 9.82226 15.4053 9.82226 15.3687V8.03467H16.9634Z" fill="#3F6587"/>
</svg>
