<svg width="42" height="25" viewBox="0 0 42 25" fill="none" xmlns="http://www.w3.org/2000/svg">
<path d="M34.8401 22.8741C34.5557 22.7126 34.3376 22.5422 34.1859 22.3628C34.0532 22.1834 33.9868 21.9501 33.9868 21.6631C33.9868 21.3581 34.148 20.9993 34.4703 20.5867C34.7927 20.192 35.1435 19.6807 35.5227 19.0527C35.9208 18.4428 36.2811 17.6982 36.6034 16.8192C36.9258 15.958 37.0869 14.9085 37.0869 13.6706C37.0869 12.5045 36.9163 11.4729 36.575 10.5759C36.2527 9.67887 35.8071 8.92537 35.2383 8.31539C34.6694 7.72336 33.9963 7.27485 33.2189 6.96986C32.4605 6.66487 31.6357 6.51238 30.7445 6.51238C29.6069 6.51238 28.6588 6.77252 27.9004 7.29279C27.1609 7.831 26.5257 8.53068 25.9948 9.39182C25.4639 10.2709 24.9993 11.2576 24.6012 12.352C24.2219 13.4643 23.8238 14.5945 23.4066 15.7427C22.9895 16.9089 22.5155 18.0391 21.9846 19.1335C21.4726 20.2458 20.8185 21.2325 20.0221 22.0936C19.2257 22.9727 18.2493 23.6724 17.0926 24.1927C15.936 24.7309 14.514 25 12.8264 25C11.0441 25 9.36605 24.713 7.7923 24.1389C6.2375 23.5648 4.88179 22.7216 3.72518 21.6093C2.56856 20.5149 1.65843 19.1604 0.994802 17.5457C0.331169 15.949 -0.000649489 14.1281 -0.000649399 12.0829C-0.00064929 9.58916 0.473373 7.31073 1.42142 5.24758C2.38843 3.20237 3.68725 1.45317 5.3179 -1.58883e-06L7.9345 1.507C8.14308 1.65052 8.31372 1.82095 8.44645 2.0183C8.59814 2.23358 8.67398 2.46681 8.67398 2.71798C8.67398 3.09472 8.45593 3.52529 8.01983 4.00969C7.60269 4.49408 7.13815 5.09508 6.6262 5.8127C6.11425 6.54826 5.64023 7.42734 5.20413 8.44994C4.78699 9.49049 4.57842 10.7553 4.57842 12.2443C4.57842 13.4822 4.75855 14.5856 5.11881 15.5544C5.47906 16.5231 5.98153 17.3394 6.6262 18.0032C7.28983 18.685 8.07671 19.2052 8.98683 19.564C9.89696 19.9229 10.9114 20.1023 12.0301 20.1023C13.2625 20.1023 14.2675 19.8332 15.0449 19.2949C15.8412 18.7747 16.5048 18.084 17.0358 17.2228C17.5667 16.3617 18.0122 15.375 18.3725 14.2626C18.7517 13.1683 19.1309 12.038 19.5102 10.8719C19.9083 9.72372 20.3634 8.59347 20.8753 7.48116C21.3873 6.3868 22.0509 5.40904 22.8662 4.5479C23.6816 3.68676 24.696 2.98708 25.9095 2.44887C27.1419 1.9286 28.6588 1.66846 30.4601 1.66846C31.9011 1.66846 33.2948 1.9286 34.641 2.44887C35.9872 2.98708 37.1818 3.75852 38.2246 4.76319C39.2675 5.76785 40.1017 7.00574 40.7274 8.47686C41.3532 9.96591 41.666 11.6703 41.666 13.5899C41.666 15.7427 41.3058 17.7072 40.5852 19.4833C39.8647 21.2594 38.8219 22.8113 37.4567 24.1389L34.8401 22.8741Z" fill="#3F6587"/>
</svg>
