<svg width="25" height="25" viewBox="0 0 25 25" fill="none" xmlns="http://www.w3.org/2000/svg">
<path d="M24.7344 12.7811C24.7344 11.9582 24.6614 11.1769 24.5364 10.4165H12.7656V15.1144H19.5052C19.2031 16.6561 18.3177 17.9582 17.0052 18.8436V21.9686H21.026C23.3802 19.7915 24.7344 16.5832 24.7344 12.7811Z" fill="#3F6587"/>
<path d="M12.7656 24.9998C16.1406 24.9998 18.9636 23.8748 21.0261 21.9686L17.0052 18.8436C15.8802 19.5936 14.4531 20.0519 12.7656 20.0519C9.50521 20.0519 6.7448 17.854 5.75521 14.8853H1.60938V18.104C3.66146 22.1873 7.88021 24.9998 12.7656 24.9998Z" fill="#3F6587"/>
<path d="M5.75521 14.8856C5.49479 14.1356 5.35937 13.3335 5.35937 12.5002C5.35937 11.6668 5.50521 10.8647 5.75521 10.1147V6.896H1.60937C0.755207 8.5835 0.265625 10.4793 0.265625 12.5002C0.265625 14.521 0.755207 16.4168 1.60937 18.1043L5.75521 14.8856Z" fill="#3F6587"/>
<path d="M12.7656 4.94792C14.6094 4.94792 16.2552 5.58334 17.5573 6.82292L21.1198 3.26042C18.9635 1.23958 16.1406 0 12.7656 0C7.88021 0 3.66146 2.8125 1.60938 6.89584L5.75521 10.1146C6.74479 7.14584 9.5052 4.94792 12.7656 4.94792Z" fill="#3F6587"/>
</svg>
