<svg width="102" height="107" viewBox="0 0 102 107" fill="none" xmlns="http://www.w3.org/2000/svg">
<g filter="url(#filter0_d_5838_133776)">
<path d="M17.1671 49.5892L18.8922 50.5645L38.1102 17.9723L36.3851 16.9971L17.1671 49.5892Z" fill="#E535AB"/>
<path d="M55.2113 46.9824H16.7753V48.9329H55.2113V46.9824Z" fill="#E535AB"/>
<path d="M17.5353 48.0766L36.7605 58.9453L37.7565 57.2562L18.5313 46.3874L17.5353 48.0766Z" fill="#E535AB"/>
<path d="M34.2382 19.7523L53.4634 30.6211L54.4594 28.932L35.2342 18.0632L34.2382 19.7523Z" fill="#E535AB"/>
<path d="M17.542 28.9241L18.538 30.6133L37.7632 19.7445L36.7672 18.0554L17.542 28.9241Z" fill="#E535AB"/>
<path d="M33.8889 17.9723L53.1069 50.5645L54.8319 49.5892L35.6139 16.9971L33.8889 17.9723Z" fill="#E535AB"/>
<path d="M20.2907 27.6309H18.2987V49.3684H20.2907V27.6309Z" fill="#E535AB"/>
<path d="M53.6986 27.6309H51.7066V49.3684H53.6986V27.6309Z" fill="#E535AB"/>
<path d="M35.5499 56.6456L36.4199 58.1211L53.1406 48.6682L52.2706 47.1928L35.5499 56.6456Z" fill="#E535AB"/>
<path d="M56.3399 50.0058C55.1879 51.9681 52.6198 52.6378 50.6158 51.5098C48.6118 50.3818 47.9278 47.8673 49.0798 45.9051C50.2318 43.9428 52.7998 43.2731 54.8039 44.4011C56.8199 45.5408 57.5039 48.0436 56.3399 50.0058Z" fill="#E535AB"/>
<path d="M22.907 31.0976C21.755 33.0599 19.187 33.7296 17.183 32.6016C15.179 31.4736 14.495 28.9591 15.647 26.9969C16.799 25.0346 19.367 24.3649 21.371 25.4929C23.375 26.6326 24.059 29.1354 22.907 31.0976Z" fill="#E535AB"/>
<path d="M15.6599 50.0058C14.5079 48.0436 15.1919 45.5408 17.1959 44.4011C19.1999 43.2731 21.7559 43.9428 22.9199 45.9051C24.0719 47.8673 23.3879 50.3701 21.3839 51.5098C19.3679 52.6378 16.8119 51.9681 15.6599 50.0058Z" fill="#E535AB"/>
<path d="M49.0893 31.0976C47.9373 29.1354 48.6213 26.6326 50.6253 25.4929C52.6293 24.3649 55.1853 25.0346 56.3493 26.9969C57.5013 28.9591 56.8173 31.4619 54.8133 32.6016C52.8093 33.7296 50.2413 33.0599 49.0893 31.0976Z" fill="#E535AB"/>
<path d="M35.9977 61.5081C33.6817 61.5081 31.8097 59.6751 31.8097 57.4074C31.8097 55.1396 33.6817 53.3066 35.9977 53.3066C38.3137 53.3066 40.1857 55.1396 40.1857 57.4074C40.1857 59.6634 38.3137 61.5081 35.9977 61.5081Z" fill="#E535AB"/>
<path d="M35.9977 23.6956C33.6817 23.6956 31.8097 21.8626 31.8097 19.5949C31.8097 17.3271 33.6817 15.4941 35.9977 15.4941C38.3137 15.4941 40.1857 17.3271 40.1857 19.5949C40.1857 21.8626 38.3137 23.6956 35.9977 23.6956Z" fill="#E535AB"/>
</g>
<defs>
<filter id="filter0_d_5838_133776" x="-3" y="0" width="108" height="107" filterUnits="userSpaceOnUse" color-interpolation-filters="sRGB">
<feFlood flood-opacity="0" result="BackgroundImageFix"/>
<feColorMatrix in="SourceAlpha" type="matrix" values="0 0 0 0 0 0 0 0 0 0 0 0 0 0 0 0 0 0 127 0" result="hardAlpha"/>
<feOffset dx="15" dy="15"/>
<feGaussianBlur stdDeviation="15"/>
<feComposite in2="hardAlpha" operator="out"/>
<feColorMatrix type="matrix" values="0 0 0 0 0 0 0 0 0 0 0 0 0 0 0 0 0 0 0.1 0"/>
<feBlend mode="normal" in2="BackgroundImageFix" result="effect1_dropShadow_5838_133776"/>
<feBlend mode="normal" in="SourceGraphic" in2="effect1_dropShadow_5838_133776" result="shape"/>
</filter>
</defs>
</svg>
