<svg width="22" height="27" viewBox="0 0 22 27" fill="none" xmlns="http://www.w3.org/2000/svg">
<path d="M18.8223 21.8258V18.2954L21.728 20.0608L18.8223 21.8258Z" fill="#3F6587"/>
<path d="M15.0586 24.1132V20.5859L17.9632 22.3493L15.0586 24.1132Z" fill="#3F6587"/>
<path d="M11.2949 26.3979V22.8687L14.2008 24.6341L11.2949 26.3979Z" fill="#3F6587"/>
<path d="M10.7069 26.3975L7.80078 24.6321L10.7069 22.8667V26.3975Z" fill="#3F6587"/>
<path d="M6.94122 20.5859V24.1132L4.03711 22.3493L6.94122 20.5859Z" fill="#3F6587"/>
<path d="M3.17913 18.2969V21.8273L0.273438 20.0623L3.17913 18.2969Z" fill="#3F6587"/>
<path d="M3.17913 4.57568V8.10607L0.273438 6.34065L3.17913 4.57568Z" fill="#3F6587"/>
<path d="M6.94122 2.2876V5.81485L4.03711 4.05145L6.94122 2.2876Z" fill="#3F6587"/>
<path d="M10.7069 0V3.53084L7.80078 1.76542L10.7069 0Z" fill="#3F6587"/>
<path d="M14.2007 1.76542L11.2945 3.53084V0H11.293L14.2007 1.76542Z" fill="#3F6587"/>
<path d="M15.0586 5.81837V2.28955L17.9643 4.05452L15.0586 5.81837Z" fill="#3F6587"/>
<path d="M19.0938 13.2029L21.9999 11.4375V14.9668L21.8807 14.8949L19.0938 13.2029Z" fill="#3F6587"/>
<path d="M18.2362 18.2969V21.8273L15.3301 20.0623L18.2362 18.2969Z" fill="#3F6587"/>
<path d="M14.471 24.1117L11.5664 22.3479L14.471 20.5845V24.1117Z" fill="#3F6587"/>
<path d="M7.5293 20.5845L10.4339 22.3479L7.5293 24.1117V20.5845Z" fill="#3F6587"/>
<path d="M3.76562 18.2969L6.67177 20.0623L3.76562 21.8273V18.2969Z" fill="#3F6587"/>
<path d="M0.00195312 14.9678V11.439L2.9081 13.2044L2.49403 13.4561L0.00195312 14.9678Z" fill="#3F6587"/>
<path d="M3.76562 4.57568L6.67177 6.34065L3.76562 8.10607V4.57568Z" fill="#3F6587"/>
<path d="M15.3301 15.49L15.4388 15.4244L18.2362 13.7266V17.2554L15.3301 15.49Z" fill="#3F6587"/>
<path d="M3.17913 12.6808L0.273438 10.9154L3.17913 9.15039V12.6808Z" fill="#3F6587"/>
<path d="M7.5293 5.81826V2.29102L10.4339 4.05441L7.5293 5.81826Z" fill="#3F6587"/>
<path d="M14.1991 6.34051L11.293 8.10593V4.57666L13.6128 5.98639L14.1991 6.34051Z" fill="#3F6587"/>
<path d="M14.4725 5.81994L13.4832 5.21837L11.5664 4.05452L14.4725 2.28955V5.81994Z" fill="#3F6587"/>
<path d="M18.8223 9.15039L21.728 10.9154L18.8223 12.6808V9.15039Z" fill="#3F6587"/>
<path d="M15.0586 14.9678V11.439L17.9643 13.2044L15.1763 14.8962L15.0586 14.9678Z" fill="#3F6587"/>
<path d="M15.0586 16.0107L17.9643 17.7762L15.0586 19.5416V16.0107Z" fill="#3F6587"/>
<path d="M14.4725 19.5402L11.5664 17.7747L14.4725 16.0098V19.5402Z" fill="#3F6587"/>
<path d="M6.94122 16.0107V19.5384L4.03711 17.7746L6.94122 16.0107Z" fill="#3F6587"/>
<path d="M3.76562 13.7251L5.60874 14.8443L6.67334 15.4901L3.7672 17.2555V13.7251H3.76562Z" fill="#3F6587"/>
<path d="M3.76562 9.15039L6.67177 10.9154L3.76562 12.6808V9.15039Z" fill="#3F6587"/>
<path d="M10.7069 8.10607L7.80078 6.34065L10.7069 4.57568V8.10607Z" fill="#3F6587"/>
<path d="M15.3301 10.9154L18.2362 9.15039V12.6792L15.3301 10.9154Z" fill="#3F6587"/>
<path d="M14.4725 14.9654L12.66 13.8642L11.5664 13.2L13.4832 12.0364L14.4725 11.4346V14.9654Z" fill="#3F6587"/>
<path d="M7.5293 16.0107L10.4339 17.7746L7.5293 19.5384V16.0107Z" fill="#3F6587"/>
<path d="M4.03711 13.2028L6.94122 11.439V14.9667L4.605 13.5479L4.03711 13.2028Z" fill="#3F6587"/>
<path d="M7.5293 10.3932V6.86572L10.4339 8.62979L7.5293 10.3932Z" fill="#3F6587"/>
<path d="M4.03711 8.62957L6.94122 6.86572V10.393L6.70792 10.2511L4.03711 8.62957Z" fill="#3F6587"/>
<path d="M10.7069 21.8258L7.80078 20.0608L10.7069 18.2954V21.8258Z" fill="#3F6587"/>
<path d="M14.1991 20.0608L11.293 21.8258V18.2954L14.1991 20.0608Z" fill="#3F6587"/>
<path d="M1.36205 14.8274L3.17913 13.7251V17.2539L0.273438 15.4885L1.36205 14.8274Z" fill="#3F6587"/>
<path d="M21.728 15.4901L18.8223 17.2555V13.7251L21.6197 15.4232L21.728 15.4901Z" fill="#3F6587"/>
<path d="M0.456517 10.1182L0 10.3946V6.86426L2.90593 8.62968L0.456517 10.1182Z" fill="#3F6587"/>
<path d="M2.90786 17.7746L0.00195312 19.54V16.0107L2.90786 17.7746Z" fill="#3F6587"/>
<path d="M21.9999 16.0107V19.54L19.0938 17.7746L21.9999 16.0107Z" fill="#3F6587"/>
</svg>
