<svg width="52" height="16" viewBox="0 0 52 16" fill="none" xmlns="http://www.w3.org/2000/svg">
<g clip-path="url(#clip0_5856_135839)">
<path d="M5.89065 4.77712C5.40755 4.31138 4.91188 3.8306 4.41102 3.35411C3.87688 2.84394 3.42041 2.14963 2.77603 1.8838C2.14497 1.62728 1.32082 1.81215 0.581744 1.80785C0.483349 1.80785 0.384214 1.80068 0.285819 1.80785C0.0749714 1.82361 0.000989995 1.72401 0.00542888 1.53127C0.0113474 1.11282 0.0113474 0.694606 0.00542888 0.276633C0.000989995 0.0788725 0.0956862 5.47893e-05 0.296916 5.47893e-05C1.33266 5.47893e-05 2.3684 -0.00926003 3.40414 0.0122357C3.56098 0.0158183 3.74371 0.138344 3.86504 0.254421C5.1538 1.48923 6.43614 2.73121 7.71208 3.98035C7.8096 4.08478 7.9303 4.16644 8.06511 4.21919C8.19991 4.27193 8.3453 4.29439 8.49036 4.28487C9.17987 4.26553 9.87085 4.28487 10.5618 4.27484C10.8045 4.27484 10.8874 4.35509 10.8814 4.58796C10.8674 5.07448 10.877 5.56244 10.877 6.10126H10.2548C9.36704 6.10126 8.47926 6.09195 7.59149 6.10986C7.41399 6.12095 7.24489 6.18702 7.10913 6.29831C6.74662 6.6014 6.41222 6.93601 6.01938 7.30144C6.51358 7.77363 7.00185 8.17918 7.41171 8.64851C7.82157 9.11783 8.26915 9.29338 8.89134 9.23677C9.44102 9.18805 10.0011 9.23677 10.5544 9.22388C10.789 9.21958 10.8866 9.29195 10.8792 9.53198C10.8644 10.0185 10.8748 10.5065 10.8748 11.0281C10.6935 11.036 10.5507 11.0467 10.408 11.0467C9.47061 11.0467 8.53401 11.0431 7.59666 11.0532C7.4598 11.0532 7.28816 11.0854 7.19347 11.1678C6.8095 11.5024 6.44921 11.8621 6.03048 12.2605C6.43737 12.6539 6.86943 12.9842 7.1979 13.3919C7.71577 14.0368 8.3461 14.289 9.17987 14.1801C9.62893 14.1228 10.0913 14.1801 10.547 14.1665C10.7771 14.1614 10.8837 14.2259 10.8763 14.471C10.8615 14.9575 10.8718 15.4455 10.8718 15.9678C10.7068 15.9764 10.5759 15.9893 10.4464 15.99C9.49651 15.99 8.54733 15.9821 7.59814 15.9965C7.48323 16.0013 7.36864 15.9813 7.26269 15.9379C7.15674 15.8945 7.06208 15.8289 6.98558 15.7457C5.6835 14.4731 4.37847 13.2042 3.05642 11.9481C2.88772 11.8038 2.67376 11.7188 2.44904 11.7066C1.76027 11.6773 1.06854 11.683 0.377555 11.7016C0.0816298 11.7095 -0.010847 11.6006 0.000989995 11.3276C0.0180057 10.9579 0.0120872 10.5874 0.000989995 10.217C-0.00418871 10.002 0.0623945 9.88738 0.313192 9.88953C1.33709 9.89741 2.36026 9.88523 3.38342 9.90099C3.53829 9.91407 3.68354 9.97922 3.79402 10.0851C4.08994 10.3717 4.35998 10.6791 4.62261 10.9607L5.88029 9.74837C5.82629 9.68819 5.7597 9.60507 5.6835 9.53342C4.80978 8.68362 3.93162 7.8245 3.03423 6.98545C2.8834 6.85613 2.69165 6.78032 2.49047 6.7705C1.77654 6.7447 1.0604 6.75187 0.345004 6.76405C0.0934668 6.76476 -0.00566833 6.68093 0.000989995 6.43158C0.0143067 6.03749 0.0106076 5.6434 0.000989995 5.24931C0.000989995 5.03436 0.0823696 4.94981 0.305793 4.95052C1.34153 4.95697 2.37727 4.95052 3.41301 4.96127C3.5565 4.9757 3.69025 5.03832 3.79106 5.13825C4.08698 5.42486 4.35776 5.73225 4.62261 6.01528L5.89065 4.77712Z" fill="#A67E2D"/>
<path d="M13.9253 11.8422C14.3048 11.8422 14.6237 11.8264 14.9388 11.8522C15.0239 11.8594 15.1319 11.9776 15.1726 12.0672C15.45 12.6805 15.9864 12.9894 16.6811 12.9127C17.3758 12.836 17.7782 12.4606 17.8729 11.7534C17.924 11.3715 17.9195 10.9831 17.9469 10.5224C17.8555 10.569 17.7674 10.6216 17.6835 10.68C16.4828 11.7233 14.2604 11.3442 13.7625 9.27633C13.5628 8.44517 13.6589 7.63406 14.1184 6.89102C14.8841 5.64928 16.4983 5.37414 17.6584 6.27768C17.7146 6.32139 17.773 6.36223 17.8803 6.44104C17.9114 6.25547 17.9358 6.11144 17.9654 5.93948H19.0877C19.0943 6.06272 19.1077 6.18954 19.1077 6.31565C19.1077 7.92712 19.1121 9.54002 19.1077 11.1508C19.1033 11.4487 19.0786 11.746 19.0337 12.0407C18.9631 12.5304 18.716 12.9801 18.336 13.3104C16.9703 14.5543 14.4838 13.9552 14.0104 12.2614C13.9741 12.1474 13.9608 12.0299 13.9253 11.8422ZM17.961 8.40289C17.958 8.29865 17.9496 8.19462 17.9358 8.0912C17.833 7.44633 17.3439 6.92327 16.7521 6.81507C16.0589 6.68825 15.4611 6.92757 15.1474 7.5015C14.7835 8.1693 14.759 8.87293 15.1733 9.51422C15.3668 9.7993 15.6498 10.0166 15.9805 10.134C17.0599 10.4808 17.9654 9.70267 17.961 8.40432V8.40289Z" fill="#A67E2D"/>
<path d="M41.4554 7.56443C41.9237 7.09368 42.3979 6.62865 42.8566 6.1493C42.9309 6.06332 43.0255 5.99591 43.1324 5.95277C43.2392 5.90962 43.3552 5.89199 43.4706 5.90138C43.8479 5.92073 44.2274 5.9064 44.5722 5.9064L42.4667 8.14769L44.8814 11.0582C44.3273 11.0582 43.8583 11.0711 43.3915 11.0467C43.3012 11.0424 43.2087 10.9034 43.134 10.8096C42.6161 10.1755 42.0983 9.53846 41.502 8.80331C41.4147 9.04692 41.3207 9.19524 41.3141 9.34786C41.2933 9.81289 41.2963 10.2793 41.3104 10.7444C41.3178 10.988 41.2364 11.0876 40.9752 11.084C39.9336 11.0682 40.1392 11.1743 40.1355 10.3109C40.1252 7.73138 40.1355 5.15189 40.1355 2.57241V2.078H41.3052V7.48848L41.4554 7.56443Z" fill="#A67E2D"/>
<path d="M50.5246 11.0776C50.5047 10.8855 50.4906 10.7573 50.4743 10.5982C50.4018 10.6231 50.3326 10.656 50.2679 10.6964C48.9163 11.8206 46.6428 11.1671 46.2966 9.04837C46.1434 8.10471 46.2966 7.21192 47.0112 6.48106C47.8783 5.59544 49.1959 5.50516 50.1843 6.26109C50.2583 6.31841 50.3382 6.37144 50.4632 6.46028C50.4869 6.25894 50.5054 6.10202 50.5283 5.90569C50.8516 5.90569 51.172 5.88276 51.4834 5.92146C51.5655 5.93149 51.6787 6.13641 51.6795 6.25034C51.6943 7.46843 51.6891 8.68653 51.6891 9.90462C51.7011 10.2027 51.6964 10.5012 51.675 10.7988C51.6639 10.8977 51.5271 11.0496 51.4331 11.0611C51.1439 11.0991 50.8479 11.0776 50.5246 11.0776ZM50.5757 8.35478C50.5631 7.87255 50.3611 7.30507 49.7352 6.96472C49.0517 6.58783 48.1972 6.80708 47.757 7.45912C47.3271 8.09324 47.3723 9.09351 47.8569 9.68035C48.2652 10.1712 48.9214 10.3424 49.554 10.1224C50.174 9.90462 50.5683 9.28769 50.5757 8.35191V8.35478Z" fill="#A67E2D"/>
<path d="M26.5271 8.46661C26.5271 6.93038 27.7685 5.75886 29.3953 5.76172C31.0089 5.76172 32.2451 6.94542 32.2532 8.48882C32.2614 10.0322 31.0104 11.2302 29.3732 11.2388C27.7641 11.2496 26.5286 10.0444 26.5271 8.46661ZM27.7485 8.49097C27.7485 9.54068 28.3944 10.2106 29.3939 10.2106C30.3712 10.207 31.0289 9.52635 31.0333 8.5139C31.0377 7.48282 30.3763 6.79424 29.3806 6.79854C28.3848 6.80283 27.747 7.4735 27.7485 8.49097Z" fill="#A67E2D"/>
<path d="M37.5696 6.7499L36.6671 7.21707C36.5444 7.10045 36.4142 6.99155 36.2772 6.89105C36.0442 6.74345 35.8015 6.73772 35.6173 6.96271C35.4331 7.1877 35.5433 7.39262 35.7512 7.54524C35.9138 7.65236 36.085 7.74676 36.2631 7.82755C36.5154 7.95223 36.7736 8.06401 37.0266 8.18582C37.6296 8.48102 37.9758 8.92455 37.924 9.61313C37.8715 10.3168 37.4942 10.7954 36.8446 11.072C35.7601 11.5334 34.5512 11.0448 34.1665 9.97928C34.4359 9.84568 34.7122 9.72562 34.9944 9.61958C35.0683 9.5945 35.2318 9.69123 35.2903 9.77077C35.5056 10.0703 35.7823 10.2723 36.1573 10.1914C36.3453 10.1512 36.5835 10.0008 36.6464 9.84314C36.7092 9.6855 36.6412 9.41322 36.528 9.26419C36.3978 9.09437 36.1618 8.99477 35.9606 8.88299C35.7593 8.77122 35.5381 8.68738 35.331 8.58277C34.5667 8.19728 34.3367 7.79459 34.4351 7.03364C34.509 6.44609 34.9759 5.9653 35.6188 5.80695C36.3194 5.6357 36.9719 5.86571 37.3721 6.42961C37.4394 6.51631 37.4875 6.61233 37.5696 6.7499Z" fill="#A67E2D"/>
<path d="M21.7184 5.92652H22.8511C22.8851 6.04045 22.9206 6.15939 22.9724 6.33423C23.6382 5.65281 24.3647 5.60265 25.1918 6.04762L24.6836 7.04C24.6311 7.04 24.6044 7.0529 24.5852 7.04502C23.633 6.65738 23.0035 7.00919 22.9465 8.01448C22.8969 8.89437 22.9051 9.77784 22.9162 10.6592C22.9206 10.9916 22.8045 11.0941 22.4723 11.0848C21.5601 11.0611 21.7325 11.1564 21.7251 10.3683C21.711 8.90297 21.7184 7.43696 21.7184 5.92652Z" fill="#A67E2D"/>
<path d="M30.0942 2.7323L31.2113 3.2962L29.2434 5.02303L28.5968 4.64829L30.0942 2.7323Z" fill="#A67E2D"/>
</g>
<defs>
<clipPath id="clip0_5856_135839">
<rect width="51.6923" height="16" fill="white"/>
</clipPath>
</defs>
</svg>
