<svg width="25" height="28" viewBox="0 0 25 28" fill="none" xmlns="http://www.w3.org/2000/svg">
<path d="M2.17054 5.38825C0.568475 7.81719 0 10.8146 0 13.7087C0 15.259 0.155039 16.8611 0.620155 18.3081C1.24031 20.7888 2.58398 23.0627 4.65116 24.5614C7.02842 26.3185 10.0775 26.9386 12.9716 27.042C14.7804 27.0937 16.5891 26.9903 18.3979 26.6802C19.3282 26.5252 20.2584 26.3185 21.1369 26.0601C21.447 25.9567 22.5323 25.8017 22.6357 25.5433C22.6873 25.4399 22.6357 25.1815 22.6357 25.0782V16.6544C22.6357 16.1893 22.584 16.1893 22.9974 15.9826C23.3592 15.7242 23.7726 15.5174 24.1344 15.3107C24.3411 15.2074 24.8579 15.0007 24.9612 14.8456C25.0129 14.7423 25.0129 14.0187 24.9612 13.9671H24.7545C24.2377 13.9154 23.6693 13.9671 23.1525 13.9671H15.1421C14.677 13.9671 14.0568 13.8637 13.5917 13.9671C13.4367 13.9671 13.4367 13.9154 13.385 14.0187C13.2817 14.1221 13.3333 14.6906 13.4367 14.7939C13.5917 15.0007 14.1085 15.1557 14.3669 15.3107C14.7287 15.5691 15.1421 15.7758 15.5039 15.9826C15.814 16.1893 15.7106 16.3443 15.7106 16.7061V18.8249V24.303V25.1815C15.7106 25.2849 15.7623 25.5433 15.7106 25.6466C15.5556 25.9567 14.4703 26.0084 14.1602 26.0601C13.6434 26.1118 13.1783 26.1118 12.7132 26.0084C11.2145 25.6983 10.2326 24.5097 9.66408 23.166C8.73385 20.9955 8.52713 18.4632 8.37209 16.0859C8.21705 12.9851 8.16537 9.78101 8.88889 6.73192C9.35401 4.81977 10.1809 2.70091 11.938 1.61564C12.7132 1.15052 13.6434 0.99548 14.5736 0.99548C15.4005 0.99548 16.6925 0.99548 17.1576 1.77067C18.0362 3.16602 18.9664 4.56137 19.845 5.95672C20.2067 6.62855 20.6201 7.24869 21.0336 7.86884L21.0336 7.86887C21.0853 7.97222 21.1886 8.23062 21.292 8.2823C21.447 8.33398 21.8088 8.2823 22.0155 8.2823C21.9638 6.68024 21.9638 5.02649 21.9121 3.42442C21.9121 2.80427 22.0155 2.02907 21.8605 1.40892V1.25388C21.8088 1.15052 21.3437 1.04716 21.2403 0.99548C20.5685 0.788762 19.845 0.633723 19.1214 0.478684C15.7623 -0.141471 12.1447 -0.244829 8.88889 0.685403C6.20155 1.4606 3.72093 3.01098 2.17054 5.38825Z" fill="#3F6587"/>
</svg>
