<svg width="22" height="12" viewBox="0 0 22 12" fill="none" xmlns="http://www.w3.org/2000/svg">
<g clip-path="url(#clip0_5838_134117)">
<path d="M20.5887 8.2199C19.8094 8.2199 19.1777 8.85143 19.1777 9.63067C19.1777 10.4098 19.8094 11.0415 20.5887 11.0415C21.3678 11.0415 21.9995 10.4098 21.9995 9.63067C21.9995 8.85143 21.3678 8.2199 20.5887 8.2199Z" fill="#3F6587"/>
<path d="M1.41081 0.192735C0.631654 0.192735 0 0.824407 0 1.60351C0 2.38267 0.631654 3.01416 1.41081 3.01416C2.18997 3.01416 2.82172 2.38267 2.82172 1.60351C2.82172 0.824407 2.18997 0.192735 1.41081 0.192735" fill="#3F6587"/>
<path d="M0.328125 3.98952H2.49312V10.9893H0.328125V3.98952Z" fill="#3F6587"/>
<path d="M17.418 5.01038C16.8258 4.37943 15.997 3.98572 15.0917 3.98633C14.4132 3.98591 13.778 4.20723 13.2527 4.58352V-0.000436092H11.0879V10.9893H13.2527V10.382C13.7774 10.7584 14.412 10.9797 15.0901 10.9797H15.0917C15.997 10.98 16.8258 10.5863 17.418 9.95521C18.0116 9.326 18.3817 8.44516 18.3812 7.48289C18.3817 6.52086 18.0116 5.63954 17.418 5.01038ZM14.6615 8.88522C13.8825 8.88522 13.2511 8.25331 13.2511 7.47432C13.2511 6.69516 13.8825 6.06367 14.6615 6.06367C15.4408 6.06367 16.0726 6.69516 16.0726 7.47432C16.0726 8.25331 15.4408 8.88522 14.6615 8.88522" fill="#3F6587"/>
<path d="M8.2167 3.98952V4.58925C7.69075 4.20928 7.05353 3.98584 6.37268 3.98603C5.46866 3.98566 4.64119 4.37937 4.04994 5.01032C3.45688 5.63948 3.08751 6.52049 3.08789 7.48282C3.08751 8.44509 3.45688 9.326 4.04994 9.95514C4.64119 10.5864 5.46866 10.9802 6.37268 10.9796H6.37449C7.05456 10.9796 7.69141 10.7561 8.2167 10.3764V10.9893H10.3817V3.98952H8.2167ZM6.80243 8.88516C6.02326 8.88516 5.39189 8.25348 5.39189 7.47425C5.39189 6.6951 6.02326 6.06361 6.80243 6.06361C7.58177 6.06361 8.21338 6.6951 8.21338 7.47425C8.21338 8.25348 7.58177 8.88516 6.80243 8.88516" fill="#3F6587"/>
</g>
<defs>
<clipPath id="clip0_5838_134117">
<rect width="22" height="11.0416" fill="white"/>
</clipPath>
</defs>
</svg>
