<svg width="22" height="18" viewBox="0 0 22 18" fill="none" xmlns="http://www.w3.org/2000/svg">
<g clip-path="url(#clip0_5838_134127)">
<path d="M3.73699 14.7506H2.17969V15.2188H2.61524V16.9283H2.17969V17.3975H3.73699V16.9283H3.30049V15.2188H3.73699V14.7506Z" fill="#3F6587"/>
<path d="M6.2927 14.6984C6.09065 14.6984 5.90386 14.7307 5.73326 14.7943C5.56266 14.8579 5.4197 14.9491 5.30438 15.0669C5.1843 15.1884 5.0928 15.3347 5.0299 15.5056C4.967 15.6766 4.93555 15.8665 4.93555 16.0764C4.93555 16.3015 4.9689 16.5 5.03467 16.6719C5.10043 16.8438 5.19382 16.9872 5.31391 17.1021C5.434 17.217 5.57696 17.3044 5.74374 17.3623C5.91148 17.4202 6.09351 17.4487 6.2908 17.4487C6.42327 17.4487 6.52811 17.443 6.60435 17.4297C6.6806 17.4164 6.76161 17.3974 6.84834 17.3728C6.91505 17.3538 6.97891 17.331 7.03895 17.3053C7.09994 17.2787 7.1638 17.2512 7.22956 17.2217V16.5892H7.15904C7.12663 16.6177 7.08565 16.651 7.03609 16.6899C6.98558 16.7288 6.93125 16.7649 6.87312 16.7991C6.8045 16.8419 6.7292 16.8751 6.6482 16.8998C6.56623 16.9245 6.48427 16.9368 6.40135 16.9368C6.31463 16.9368 6.22599 16.9235 6.13736 16.895C6.04777 16.8675 5.96771 16.821 5.89433 16.7564C5.8238 16.6918 5.76471 16.6044 5.71706 16.4933C5.67036 16.3822 5.64653 16.2435 5.64653 16.0783C5.64653 15.9197 5.66845 15.7848 5.71229 15.6737C5.75518 15.5626 5.81236 15.4733 5.88194 15.4059C5.95628 15.3356 6.03633 15.2862 6.12306 15.2558C6.20979 15.2255 6.30128 15.2103 6.39754 15.2103C6.48427 15.2103 6.56528 15.2236 6.64153 15.2492C6.71777 15.2748 6.7883 15.3071 6.85406 15.3451C6.91791 15.3822 6.9751 15.4211 7.02561 15.46C7.07612 15.499 7.11805 15.5322 7.15141 15.5607H7.22956V14.9187C7.18096 14.895 7.12473 14.8693 7.05992 14.8418C6.99511 14.8133 6.92268 14.7886 6.84357 14.7658C6.76733 14.7459 6.68441 14.7297 6.59482 14.7174C6.50428 14.705 6.40421 14.6984 6.2927 14.6984" fill="#3F6587"/>
<path d="M10.0052 14.7506H9.21703L8.23633 17.3975H8.9273L9.11219 16.8637H10.0948L10.2787 17.3975H10.9859L10.0052 14.7506ZM9.27707 16.3775L9.60302 15.4306L9.92896 16.3775H9.27707" fill="#3F6587"/>
<path d="M14.582 14.7506H13.953V16.2664L12.9837 14.7506H12.1641V17.3975H12.7931V15.5807L13.9205 17.3975H14.582V14.7506Z" fill="#3F6587"/>
<path d="M18.4726 14.7506H17.8436V16.2664L16.8743 14.7506H16.0547V17.3975H16.6837V15.5807L17.8112 17.3975H18.4726V14.7506Z" fill="#3F6587"/>
<path d="M11.1114 0.117694C10.7042 0.117706 10.2892 0.158849 9.8715 0.241882C9.17768 0.395736 8.56486 0.727184 7.95109 1.06433C5.92774 2.05203 4.63825 4.12525 4.81648 6.36942L5.80194 6.0845C5.68185 4.50229 6.11169 3.09672 7.10287 1.94946C7.7052 5.13574 9.00612 8.03141 10.9427 10.6707C11.1196 10.682 11.2907 10.6933 11.4605 10.6933C11.632 10.6933 11.802 10.6818 11.9749 10.6469C11.2925 9.96217 10.7483 9.2252 10.1974 8.48822C11.04 8.10549 11.8939 7.71136 12.6563 7.17477C12.5534 6.91835 12.4791 6.63819 12.3476 6.4093C11.5451 7.01522 10.714 7.54041 9.82576 7.93454C9.41308 7.31818 9.05759 6.68377 8.71354 6.04367V5.98099C9.65897 5.59825 10.5701 5.12434 11.4183 4.50229C11.2696 4.22782 11.1095 3.94196 10.9427 3.69693C10.146 4.31329 9.32635 4.88502 8.46669 5.34183H8.38092C7.8596 4.23921 7.44692 3.08532 7.14289 1.88678C7.42405 1.57243 7.74523 1.26947 8.07118 1.02445L9.02328 0.755678C11.4183 3.43386 12.9775 6.47294 13.8315 9.76179C14.0554 9.53955 14.2556 9.29928 14.307 9.00297C14.1412 8.53951 14.0211 8.06561 13.8086 7.62588C13.6999 7.30013 13.4874 6.99813 13.4188 6.67807C14.044 6.22126 14.6454 5.72457 15.2353 5.17563C15.2239 4.76441 15.121 4.38832 14.9265 4.04547H14.8808C14.3013 4.69603 13.6428 5.33043 12.9832 5.87841C12.6278 5.30195 12.3009 4.71312 11.912 4.14805C12.5763 3.64564 13.2186 3.03973 13.8086 2.40058C13.597 2.12611 13.3216 1.83455 13.0061 1.72628C12.5019 2.28661 11.9349 2.87448 11.3554 3.34839C10.6568 2.46326 9.9001 1.58382 9.06331 0.778471C9.40403 0.701545 9.79216 0.663081 10.1797 0.663081C10.5672 0.663081 10.9542 0.701545 11.2925 0.778471C13.2644 1.13271 15.1839 3.06252 15.4993 5.03318C15.9177 7.23745 15.1267 9.26508 13.3159 10.607C12.6742 10.8389 11.9901 10.9565 11.3084 10.9565C9.84075 10.9565 8.38533 10.4111 7.39546 9.28788C8.08261 9.17392 8.73641 8.96783 9.39593 8.75699C9.29776 8.59174 9.17768 8.43694 9.10334 8.26029C7.28191 8.98936 5.29681 9.40886 3.20358 9.40886C2.95182 9.40886 2.69814 9.40279 2.44336 9.39045C3.15617 9.48179 3.88397 9.52144 4.61631 9.52144C5.07953 9.52144 5.54459 9.50557 6.00875 9.47687C6.49577 10.0818 7.1143 10.5671 7.74523 10.9157C8.46476 11.3147 9.35879 11.5137 10.259 11.5137C11.3299 11.5137 12.4093 11.232 13.2129 10.6707C14.1183 10.2879 14.9894 9.61363 15.6022 8.75699C16.7602 7.28304 16.9375 4.85083 16.0778 3.18314L15.7061 2.54873C14.6222 0.951036 12.9444 0.117623 11.1114 0.117694" fill="#3F6587"/>
<path d="M7.82593 5.65061C6.23241 6.39233 4.51309 6.84344 2.66797 6.98685C2.79381 6.98877 2.91981 6.98972 3.04572 6.98972C3.66458 6.98972 4.28062 6.96678 4.85715 6.92417C4.97723 7.6488 5.22408 8.32879 5.61959 8.93945C6.03227 8.85968 6.44494 8.7913 6.83379 8.67163C6.48497 8.20912 6.23813 7.69438 6.05514 7.1521C6.02655 7.02104 5.92838 6.86624 6.0094 6.74087C6.71942 6.60982 7.41325 6.44931 8.07182 6.20429L7.82593 5.65061" fill="#3F6587"/>
<path d="M10.9585 13.075C7.20348 13.0751 3.44455 13.4422 0.0253906 14.1655C3.45429 13.7938 7.03689 13.6187 10.6235 13.6187C14.4229 13.6187 18.2268 13.8152 21.8562 14.1826C18.4519 13.4406 14.7071 13.0749 10.9585 13.075" fill="#3F6587"/>
</g>
<defs>
<clipPath id="clip0_5838_134127">
<rect width="22" height="17.5" fill="white"/>
</clipPath>
</defs>
</svg>
