<svg width="133" height="85" viewBox="0 0 133 85" fill="none" xmlns="http://www.w3.org/2000/svg">
<g clip-path="url(#clip0_5842_137070)">
<path fill-rule="evenodd" clip-rule="evenodd" d="M93.3476 7.98848L97.8057 1.7263C98.0172 1.42466 98.298 1.17809 98.6245 1.00725C98.9509 0.836405 99.3136 0.746266 99.6821 0.744385L107.818 0.744385C108.074 0.744643 108.323 0.831336 108.523 0.990415C108.771 1.19015 108.932 1.47735 108.973 1.79246C109.014 2.10758 108.932 2.42641 108.744 2.68284L66.7697 59.8468C66.7068 59.9335 66.6325 60.0115 66.5489 60.0785C66.4278 60.1742 66.2885 60.2442 66.1395 60.2845C65.9904 60.3248 65.8348 60.3343 65.6819 60.3127C65.5291 60.291 65.3822 60.2386 65.2503 60.1585C65.1183 60.0784 65.004 59.9724 64.9142 59.8468L22.9343 2.68284C22.7793 2.47045 22.6962 2.21421 22.6969 1.95137C22.6916 1.63689 22.8114 1.33315 23.0299 1.10685C23.2485 0.880549 23.5479 0.750186 23.8625 0.744385H31.9985C32.367 0.746266 32.7297 0.836405 33.0562 1.00725C33.3826 1.17809 33.6634 1.42466 33.8749 1.7263L50.3676 24.8951H70.421C70.6746 24.8957 70.9208 24.9807 71.1208 25.1367C71.3698 25.3343 71.533 25.6203 71.5763 25.9351C71.6197 26.2499 71.54 26.5694 71.3537 26.8269L66.4474 33.5845C66.235 33.8817 65.9551 34.1242 65.6306 34.292C65.306 34.4599 64.9463 34.5482 64.5809 34.5498H57.2408L64.9021 45.3045C64.9708 45.4021 65.0542 45.4884 65.1493 45.5605C65.2718 45.6542 65.4119 45.7221 65.5614 45.76C65.7108 45.798 65.8664 45.8052 66.0188 45.7813C66.1711 45.7574 66.317 45.7028 66.4476 45.6208C66.5782 45.5389 66.6908 45.4313 66.7785 45.3045L86.4699 17.6477H55.2529C54.8874 17.6458 54.5277 17.5572 54.2032 17.3891C53.8787 17.2211 53.5987 16.9785 53.3864 16.6812L48.4867 9.92032C48.3348 9.70919 48.2533 9.45555 48.2538 9.19547C48.2485 8.8808 48.3684 8.5769 48.5872 8.35056C48.806 8.12423 49.1057 7.994 49.4205 7.98848H93.3476Z" fill="#C23B75"/>
<path fill-rule="evenodd" clip-rule="evenodd" d="M1.67774 84.5932H0V77.1792H1.67774V84.5932ZM9.05981 77.8357L8.25295 79.1596C7.81806 78.7889 7.30039 78.5351 6.73084 78.5351C5.52993 78.5351 4.65905 79.5832 4.65905 80.8862C4.65905 82.2521 5.39527 83.2373 6.7198 83.2373C7.29108 83.2246 7.83579 82.9937 8.24191 82.5919L9.19447 83.8209C8.47472 84.4052 7.57526 84.7232 6.64805 84.7212C4.46257 84.7212 2.87865 83.1225 2.87865 80.8873C2.87527 80.3824 2.97236 79.8819 3.16426 79.4149C3.35617 78.9479 3.63907 78.5236 3.9965 78.1669C4.35393 77.8101 4.77876 77.528 5.24629 77.3368C5.71381 77.1457 6.21469 77.0493 6.7198 77.0534C7.60282 77.0534 8.29379 77.3392 9.05981 77.8368V77.8357ZM14.901 84.5932H10.1371V77.1792H14.901V78.598H11.8104V80.0698H14.901V81.4886H11.8104V83.1733H14.901V84.5932ZM20.7212 84.5932H16.1428V77.1792H17.8205V83.1744H20.7201V84.5932H20.7212ZM28.2379 84.5932H26.3108L25.8869 83.2902H23.495L23.0392 84.5932H21.1859L24.1992 77.1792H25.5348L28.2368 84.5932H28.2379ZM24.7246 79.7851L23.9796 81.9244H25.431L24.7368 79.7851H24.7246ZM35.3926 84.5932H33.886L30.8208 80.2904V84.5932H29.1397V77.1792H30.6188L33.7149 81.504V77.1792H35.3926V84.5932ZM36.8662 84.5932V77.1792H39.0406C40.9248 77.1792 43.0473 78.1722 43.0473 80.8542C43.0473 83.6003 40.9502 84.5932 38.9435 84.5932H36.8662ZM38.5428 78.598V83.1744H38.6322C40.1852 83.1744 41.2625 82.5698 41.2625 80.9502C41.2625 79.4144 40.3795 78.598 38.8706 78.598H38.5428ZM53.1922 77.1792L50.1788 84.5932H48.8433L46.1379 77.1792H48.064L49.638 81.9873H49.6479L51.3367 77.1792H53.1922ZM58.732 84.5932H53.9681V77.1792H58.732V78.598H55.6414V80.0698H58.732V81.4886H55.6414V83.1733H58.732V84.5932ZM66.2267 84.5932H64.7145L61.6493 80.2904V84.5932H59.9716V77.1792H61.4528L64.5511 81.504V77.1792H66.2267V84.5932ZM72.0348 78.598H70.3603V84.5932H68.6826V78.598H67.0048V77.1792H72.037V78.598H72.0348ZM78.7347 81.098C78.7347 83.4281 77.8517 84.7201 75.7545 84.7201C73.6937 84.7201 72.814 83.4281 72.814 81.098V77.1792H74.4918V81.2834C74.4918 82.6073 74.9885 83.2428 75.7755 83.2428C76.5625 83.2428 77.0592 82.6073 77.0592 81.2834V77.1792H78.7369V81.098H78.7347ZM80.2071 84.5932V77.1792H82.5681C83.7591 77.1792 85.2812 77.8037 85.2812 79.4354C85.2812 80.5475 84.567 81.183 83.7801 81.5007C84.4214 82.4109 85.4777 83.9158 85.9644 84.5899H83.8673L81.9511 81.6982H81.8793V84.5932H80.2071ZM81.8849 78.598V80.2827H82.3264C82.9997 80.2827 83.4964 80.0389 83.4964 79.4674C83.4964 78.9478 83.1034 78.598 82.5229 78.598H81.8849ZM91.6136 84.5932H86.8552V77.1792H91.6136V78.598H88.523V80.0698H91.6136V81.4886H88.523V83.1733H91.6136V84.5932ZM99.4504 79.1806C99.0265 78.8209 98.5078 78.4921 97.9493 78.4921C97.5662 78.4921 97.1623 78.7039 97.1623 79.1276C97.1623 79.6682 97.8146 79.7896 98.2804 79.965C99.3058 80.3246 100.559 80.8123 100.559 82.433C100.559 84.0217 99.0674 84.7201 97.7417 84.7201C96.6026 84.7201 95.713 84.2545 94.915 83.4281L96.0022 82.337C96.5618 82.8666 96.9857 83.2803 97.7627 83.2803C98.2705 83.2803 98.7771 83.0365 98.7771 82.4639C98.7771 81.8913 98.1049 81.6486 97.4526 81.4047C96.489 81.034 95.4845 80.5685 95.4845 79.1386C95.4845 77.7297 96.7174 77.0623 97.9283 77.0623C98.8808 77.0623 99.627 77.38 100.393 77.9736L99.4504 79.1806ZM106.098 78.598H104.417V84.5932H102.74V78.598H101.062V77.1792H106.094V78.598H106.098ZM112.797 81.098C112.797 83.4281 111.914 84.7201 109.817 84.7201C107.756 84.7201 106.876 83.4281 106.876 81.098V77.1792H108.553V81.2834C108.553 82.6073 109.05 83.2428 109.837 83.2428C110.624 83.2428 111.122 82.6073 111.122 81.2834V77.1792H112.798V81.098H112.797ZM114.264 84.5932V77.1792H116.439C118.323 77.1792 120.445 78.1722 120.445 80.8542C120.445 83.5981 118.348 84.5932 116.345 84.5932H114.264ZM115.941 78.598V83.1744H116.035C117.588 83.1744 118.664 82.5698 118.664 80.9502C118.664 79.4144 117.781 78.598 116.272 78.598H115.941ZM123.324 84.5932H121.646V77.1792H123.324V84.5932ZM130.388 80.8862C130.388 79.5733 129.528 78.5351 128.348 78.5351C127.168 78.5351 126.309 79.5733 126.309 80.8862C126.309 82.1991 127.167 83.2373 128.348 83.2373C129.529 83.2373 130.388 82.1991 130.388 80.8862ZM132.169 80.8862C132.166 81.6411 131.939 82.3782 131.518 83.0044C131.096 83.6307 130.498 84.118 129.799 84.4049C129.101 84.6917 128.333 84.7652 127.593 84.6162C126.852 84.4671 126.173 84.1021 125.64 83.5672C125.107 83.0324 124.744 82.3517 124.598 81.6111C124.452 80.8705 124.529 80.1032 124.819 79.4061C125.108 78.7091 125.598 78.1135 126.227 77.6945C126.855 77.2756 127.593 77.0521 128.348 77.0523C128.852 77.0488 129.352 77.1456 129.818 77.3373C130.284 77.5289 130.707 77.8114 131.063 78.1683C131.419 78.5252 131.7 78.9494 131.889 79.4161C132.079 79.8827 132.174 80.3825 132.169 80.8862V80.8862Z" fill="#2E2700"/>
</g>
<defs>
<clipPath id="clip0_5842_137070">
<rect width="132.166" height="83.9757" fill="white" transform="translate(0 0.744385)"/>
</clipPath>
</defs>
</svg>
