<svg width="22" height="22" viewBox="0 0 22 22" fill="none" xmlns="http://www.w3.org/2000/svg">
<path d="M6.2207 17.3323V16.4393C6.50749 16.3842 6.84938 16.3291 7.18003 16.3074V12.9321C6.91536 12.8886 6.54048 12.844 6.2207 12.823V11.9402C6.91536 11.8518 7.76484 11.8188 8.58132 11.8409V16.3074C8.88913 16.3291 9.20963 16.3842 9.4743 16.4393V17.3323H6.2207V17.3323ZM7.87469 11.1452C7.38995 11.1452 7.00347 10.7594 7.00347 10.286C7.00347 9.82263 7.38995 9.43652 7.87469 9.43652C8.36016 9.43652 8.75716 9.81175 8.75716 10.286C8.75716 10.7594 8.36016 11.1452 7.87469 11.1452ZM14.5334 14.8181H11.137C11.1257 15.8433 11.6337 16.3396 12.6478 16.3396C13.1887 16.3396 13.7724 16.2193 14.2466 15.9985L14.379 17.0908C13.7945 17.3214 13.0999 17.4436 12.4157 17.4436C10.6736 17.4436 9.70271 16.5724 9.70271 14.6415C9.70271 12.9662 10.6301 11.7307 12.2729 11.7307C13.8718 11.7307 14.5777 12.823 14.5777 14.1785C14.5777 14.3663 14.5668 14.5871 14.5334 14.8181V14.8181ZM12.2286 12.7675C11.6442 12.7675 11.236 13.1975 11.1591 13.8588H13.1771C13.1992 13.1758 12.8247 12.7675 12.2286 12.7675ZM19.6372 16.2515V13.6391C19.6372 12.4362 19.1405 11.7194 17.3654 11.7194C16.6703 11.7194 16.0199 11.8409 15.446 12.0066V13.6166H16.3397C16.3839 13.3733 16.4278 13.1203 16.4499 12.8991C16.6812 12.8332 16.9575 12.8002 17.2222 12.8002C17.9937 12.8002 18.2257 13.0982 18.2257 13.6822V14.0132C16.3618 14.035 15.0602 14.6854 15.0602 15.9985C15.0602 16.8813 15.6345 17.4436 16.6265 17.4436C17.4426 17.4436 18.1151 17.0132 18.3798 16.3955L18.3907 16.4067C18.3468 16.6927 18.3359 17.0237 18.3359 17.3446C18.8439 17.3598 19.4189 17.3472 19.9381 17.3109C20.1531 17.006 20.355 16.6909 20.5417 16.3661V16.3628C20.2546 16.3396 19.9025 16.2968 19.6372 16.2515V16.2515ZM18.2257 15.0497C18.2257 15.7233 17.7511 16.3741 17.0557 16.3741C16.6486 16.3741 16.4057 16.1417 16.4057 15.7889C16.4057 15.2589 16.902 14.9282 18.2257 14.9282V15.0497Z" fill="#3F6587"/>
<path fill-rule="evenodd" clip-rule="evenodd" d="M0 10.9077V11.0919C0.0496704 17.1151 4.9645 22 10.9996 22C14.3783 22 17.4046 20.4675 19.424 18.0625H17.8592C16.3223 19.4738 14.2735 20.3359 12.0221 20.3359C7.25297 20.3359 3.38701 16.4702 3.38701 11.7013C3.38701 6.93212 7.25297 3.06636 12.0221 3.06636C16.1585 3.06636 19.6147 5.97429 20.4595 9.85746C20.9468 11.7245 20.8402 13.7562 20.0368 15.6563L20.9127 15.7611C21.6081 14.3192 22 12.7045 22 10.9998C22 4.93453 17.0652 0 10.9996 0C4.9645 0 0.0496704 4.88486 0 10.9077Z" fill="#3F6587"/>
</svg>
