<svg width="22" height="16" viewBox="0 0 22 16" fill="none" xmlns="http://www.w3.org/2000/svg">
<path d="M0 0.196777H2.2645V10.5887H0V0.196777Z" fill="#3F6587"/>
<path d="M11.9818 0.211426H7.93743C7.93743 0.211426 7.03847 0.211426 6.50978 0.211426C5.98155 0.211426 5.20117 0.752771 5.20117 1.51956C5.20117 2.28588 5.20117 8.3527 5.20117 8.9606C5.20117 9.56804 5.80298 10.5842 6.83411 10.5842C7.86431 10.5842 12.0877 10.5842 12.0877 10.5842V9.72693C12.0877 9.72693 9.02106 9.72693 8.36019 9.72693C7.69933 9.72693 7.38437 9.43727 7.38437 9.06559C7.38437 8.69532 7.38437 6.5815 7.38437 6.2909C7.38437 6.00031 7.37593 5.52411 7.64637 5.52411C8.04335 5.52411 10.9244 5.52411 10.9244 5.52411V4.75732C10.9244 4.75732 8.14787 4.75732 7.72605 4.75732C7.30281 4.75732 7.38437 4.48032 7.38437 4.24269C7.38437 4.00506 7.38437 2.1673 7.38437 1.90342C7.38437 1.63861 7.37593 1.1821 7.9304 1.1821C8.48627 1.1821 11.9818 1.1821 11.9818 1.1821V0.211426Z" fill="#3F6587"/>
<path d="M21.631 1.90338C21.631 1.90338 20.4147 0 17.6658 0C15.418 0 12.4844 1.92916 12.4844 5.49782C12.4844 9.38333 15.8154 10.8114 17.8238 10.8114C20.8905 10.8114 22.0003 8.19377 22.0003 8.19377L21.4721 7.74523C21.4721 7.74523 20.0646 10.0578 17.9635 10.0578C16.667 10.0578 14.5987 8.88088 14.5987 5.49782C14.5987 1.74449 16.3493 0.792567 17.9635 0.792567C19.9456 0.792567 21.0756 2.4316 21.0756 2.4316L21.631 1.90338Z" fill="#3F6587"/>
<path fill-rule="evenodd" clip-rule="evenodd" d="M0.0078125 13.5578H18.7028C18.7951 13.3797 18.9062 13.2142 19.044 13.0708H0.0078125V13.5578Z" fill="#3F6587"/>
<path fill-rule="evenodd" clip-rule="evenodd" d="M0.0078125 14.7399H18.4909C18.4811 14.6597 18.4665 14.581 18.4665 14.498C18.4665 14.4141 18.482 14.3335 18.4914 14.2524H0.0078125V14.7399Z" fill="#3F6587"/>
<path fill-rule="evenodd" clip-rule="evenodd" d="M0.0078125 15.9215H19.0412C18.9034 15.7776 18.7923 15.6122 18.6999 15.4341H0.0078125V15.9215Z" fill="#3F6587"/>
<path d="M20.5516 15.9392C21.3475 15.9392 21.9924 15.2943 21.9924 14.4984C21.9924 13.7031 21.3475 13.0586 20.5516 13.0586C19.7567 13.0586 19.1113 13.7031 19.1113 14.4984C19.1113 15.2943 19.7567 15.9392 20.5516 15.9392Z" fill="#3F6587"/>
</svg>
