<svg width="23" height="19" viewBox="0 0 23 19" fill="none" xmlns="http://www.w3.org/2000/svg">
<g clip-path="url(#clip0_5838_133974)">
<path d="M21.3414 13.2579C20.3952 13.9663 19.2543 14.2096 18.3838 15.0801C18.2919 15.1396 18.1946 15.2369 18.0919 15.2369C18.4217 14.9503 18.7137 14.6043 18.9245 14.242C19.4598 13.3336 19.2598 12.1117 19.7248 11.1763C19.4382 11.4899 19.2381 11.8359 18.9894 12.1657C18.2216 13.3282 18.2865 14.8584 17.1348 15.8479C17.8161 15.6154 18.5623 15.5559 19.2652 15.3667C20.6169 14.9341 22.0551 13.5824 22.239 12.1333C22.066 12.5604 21.7199 12.9552 21.3414 13.2579Z" fill="#3F6587"/>
<path d="M22.0002 8.32135C21.7461 8.89448 21.665 9.54332 21.5028 10.1597L21.4541 10.2138L21.4379 10.1922C21.4974 9.92721 21.5893 9.66768 21.5622 9.36489C21.6325 8.11048 20.5349 7.34269 20.2862 6.22346L20.2754 6.63979C20.3673 7.7374 20.6593 8.7485 20.9891 9.74338C21.1784 10.2084 21.1243 10.8085 21.0756 11.2952C21.4703 10.6788 21.9894 10.111 22.4165 9.50547C23.0167 8.40786 23.1789 6.83444 22.6328 5.66113C22.8058 6.66142 22.3571 7.49949 22.0002 8.32135Z" fill="#3F6587"/>
<path d="M21.6497 7.01291C21.6497 7.02913 21.6335 7.03995 21.6173 7.03995C21.5416 6.78582 21.547 6.49385 21.4226 6.26135C21.1144 5.33135 19.9952 4.8988 19.541 4.05531C19.6059 4.42299 19.7194 4.76903 19.8546 5.10967C20.2818 6.14239 21.3199 6.9264 21.6065 8.0186C21.6389 8.12134 21.6497 8.24029 21.6822 8.33221C21.7579 7.80773 21.8984 7.29948 22.0931 6.82908C22.6176 5.70984 22.4608 4.15264 21.7416 3.17939C21.6173 3.02259 21.5308 2.81712 21.3523 2.70898C21.6389 3.10369 21.6876 3.60113 21.693 4.11479C21.5578 5.0556 21.5145 6.05588 21.6497 7.01291Z" fill="#3F6587"/>
<path d="M20.2705 2.1358C20.5138 2.92521 20.6273 3.75788 20.9734 4.49863L20.9518 4.52026C20.822 4.3148 20.7571 4.06067 20.5516 3.87683C19.9461 3.08742 18.8971 2.87655 18.5078 1.94115C18.6051 2.50347 18.7782 3.03335 19.1729 3.46591C19.8541 4.19584 20.8382 4.6284 21.3086 5.54758L21.314 5.54217C21.141 4.67706 21.4167 3.84439 21.2275 2.9901C21.0653 2.23312 20.3786 1.40586 19.5838 1.24365C19.9082 1.45993 20.1461 1.79516 20.2705 2.1358Z" fill="#3F6587"/>
<path d="M20.2495 3.19537L20.1522 2.96828C19.9792 2.25456 19.7088 1.56247 19.1141 1.02718C18.6058 0.573001 17.9678 0.421607 17.373 0.16748L18.0489 0.848755C18.595 1.73549 19.3844 2.57357 20.2495 3.19537Z" fill="#3F6587"/>
<path d="M2.61719 3.33077C3.06596 2.90902 3.57962 2.58461 3.97433 2.08717C4.4177 1.47078 4.83403 0.805724 5.4342 0.28125C4.61776 0.60026 3.70939 0.897642 3.21736 1.75735C2.87131 2.22234 2.8605 2.82792 2.61719 3.33077Z" fill="#3F6587"/>
<path d="M1.63367 5.68817C1.82832 5.28265 2.17436 4.92579 2.53122 4.61219C3.39633 4.0012 4.3047 3.14691 4.32092 2.06011C4.03976 2.84412 3.19087 3.17394 2.61773 3.69841C2.32576 3.99039 2.08785 4.32562 1.95268 4.67707L1.93105 4.66085C2.00134 4.34725 2.14192 4.06609 2.22302 3.7633C2.47715 2.93603 2.42849 1.94656 3.23412 1.38965C2.81779 1.49779 2.45012 1.74651 2.15814 2.10877C1.48768 2.81167 1.55797 3.89306 1.64989 4.84469C1.67152 5.13666 1.61204 5.41241 1.63367 5.68817Z" fill="#3F6587"/>
<path d="M2.95647 5.47183C3.1403 5.06631 3.27548 4.62294 3.32955 4.17957C3.25385 4.36882 3.12949 4.53103 2.98891 4.68783C2.31845 5.29881 1.55066 5.92602 1.40467 6.81276C1.37764 6.93712 1.37223 7.06688 1.33438 7.19124C1.32898 7.19124 1.32357 7.19665 1.32357 7.19665C1.30735 7.19665 1.30194 7.16961 1.29654 7.16421L1.37764 6.0666C1.40467 4.99602 0.896421 3.8119 1.51281 2.87109H1.50741C1.49119 2.87109 1.48037 2.88731 1.46415 2.89272C0.901828 3.60644 0.501715 4.39044 0.528749 5.35288C0.453052 6.537 1.21002 7.36967 1.29654 8.48891C1.47496 7.32101 2.4374 6.48834 2.95647 5.47183Z" fill="#3F6587"/>
<path d="M1.85452 11.3869L1.914 11.4356C1.84912 10.9922 1.81668 10.511 1.94104 10.0892C2.13028 9.40797 2.35196 8.74833 2.49795 8.04542C2.57365 7.49392 2.70882 6.88293 2.64394 6.35846C2.56824 6.64503 2.48714 6.92078 2.34115 7.1695C1.73557 8.08327 1.1354 9.17548 1.55174 10.3434C1.54633 10.3542 1.53551 10.365 1.51929 10.365C1.51389 10.365 1.51389 10.365 1.50848 10.365C1.34086 9.9757 1.31383 9.53774 1.19488 9.12141C0.913716 8.01839 0.0594191 7.10462 0.308138 5.83398C0.178372 6.10974 0.124302 6.42334 0.0540121 6.72072C-0.0919754 7.49932 0.0486052 8.32118 0.264883 9.0349C0.53523 9.93245 1.41115 10.5705 1.85452 11.3869Z" fill="#3F6587"/>
<path d="M3.62731 14.0958C3.51376 13.8093 3.34074 13.5389 3.25423 13.2361C2.92441 11.8573 3.10284 10.2677 2.51348 8.99707C2.62162 9.7216 2.33505 10.3596 2.27017 11.0463C2.2161 11.614 2.2972 12.1709 2.53511 12.6359C2.58377 12.7819 2.71894 12.9063 2.75138 13.0469C2.54051 12.8576 2.39993 12.6035 2.24313 12.3764C1.57267 11.2626 0.123609 10.5489 0.0262845 9.20253C-0.022378 9.8027 0.00465676 10.4461 0.231748 10.9706C0.761629 12.4845 2.41615 13.2686 3.62731 14.0958Z" fill="#3F6587"/>
<path d="M5.8881 15.9124C4.94729 15.1554 4.79049 14.0254 4.38497 13.0197C4.11462 12.4033 3.69828 11.841 3.24951 11.3003C3.74695 12.2952 3.51445 13.5874 4.1795 14.512C4.36334 14.8148 4.66072 15.0852 4.92566 15.3231L4.91485 15.3339C4.67694 15.2257 4.46066 15.0689 4.24979 14.8797C3.11433 13.9497 1.42196 13.8199 0.746094 12.2952C0.92993 13.4198 1.80585 14.4417 2.78451 15.0419C3.68206 15.6691 4.87159 15.5772 5.8881 15.9124Z" fill="#3F6587"/>
<path d="M5.64053 17.0263C6.5543 17.0263 7.46808 16.7235 8.31697 16.5126C8.48458 16.4694 8.69545 16.4856 8.85225 16.4261C8.19261 16.291 7.5654 16.0801 7.04633 15.6259C6.3218 14.9446 5.66216 14.2417 4.87815 13.7227C5.49454 14.5499 5.65675 15.7719 6.79221 16.172C6.98145 16.2693 7.21936 16.2585 7.39238 16.3667C7.35453 16.3721 7.32209 16.3721 7.28965 16.3721C7.11663 16.3721 6.95982 16.3126 6.7868 16.2855C5.34315 15.9611 3.56967 16.3721 2.48828 15.1393C2.89921 15.9449 3.74269 16.5937 4.55914 16.8479C4.916 16.9776 5.27826 17.0263 5.64053 17.0263Z" fill="#3F6587"/>
<path d="M15.8858 17.297L14.9396 16.9186C14.307 16.5833 13.5446 16.3887 12.7768 16.3887C12.4253 16.3887 12.0793 16.4319 11.7441 16.5184C11.6792 16.5725 11.6197 16.5941 11.5548 16.5941C11.4034 16.5941 11.2466 16.4806 11.0898 16.4806C10.8303 16.4265 10.5762 16.3995 10.3329 16.3995C9.20821 16.3995 8.20252 16.9186 7.22386 17.3403C6.85619 17.4863 6.43986 17.562 6.02352 17.562C5.43417 17.562 4.85022 17.4106 4.39062 17.097C4.77452 17.5836 5.29358 17.881 5.82887 18.081C6.15329 18.2108 6.49933 18.2703 6.83997 18.2703C7.55369 18.2703 8.2674 18.0216 8.81891 17.6377C9.41368 17.3024 9.94356 16.6915 10.6519 16.6915C10.7816 16.6915 10.9168 16.7131 11.0574 16.7563C10.1112 17.1943 9.25147 17.8107 8.46746 18.6001L8.95409 19.0056C9.52181 18.2433 10.2788 17.6215 11.0466 17.1348C11.2142 17.0483 11.3872 16.9348 11.571 16.9131C12.5119 17.3727 13.3499 18.1567 14.1123 18.9786C14.2745 18.8488 14.4475 18.7083 14.5773 18.5569C13.7879 17.7945 12.9282 17.1997 12.0036 16.7726C12.1388 16.7347 12.2902 16.7239 12.447 16.7239C12.4686 16.7239 12.4902 16.7239 12.5119 16.7239C12.5335 16.7239 12.5551 16.7239 12.5713 16.7239C13.0363 16.7239 13.3662 17.0591 13.7338 17.2916C14.4313 17.8161 15.2964 18.2162 16.1832 18.2162C16.513 18.2162 16.8482 18.1621 17.1835 18.0378C17.7296 17.8431 18.2594 17.4971 18.6487 17.0105C18.1837 17.3403 17.5782 17.5025 16.9726 17.5025C16.6049 17.4863 16.2264 17.4268 15.8858 17.297Z" fill="#3F6587"/>
<path d="M16.7013 16.156C16.3498 16.1938 16.0254 16.3182 15.674 16.3182C15.6631 16.3182 15.6523 16.3182 15.6415 16.3182C15.8956 16.1938 16.2092 16.1668 16.458 16.0046C17.4582 15.5071 17.5231 14.3987 18.1287 13.6201C17.3123 14.177 16.658 14.907 15.9173 15.6153C15.4198 16.0641 14.8088 16.2533 14.1816 16.3939V16.3993L14.4358 16.4317C15.3874 16.5831 16.3715 16.9616 17.3609 16.9616C17.7394 16.9616 18.1179 16.9075 18.5018 16.7616C19.302 16.4804 20.1779 15.8153 20.524 15.0151C19.5832 16.1614 18.0476 15.9451 16.7013 16.156Z" fill="#3F6587"/>
<path d="M20.2823 9.33773C19.7903 10.7976 20.1796 12.6143 19.3848 13.939V13.9877C19.9038 13.5822 20.4553 13.2578 20.996 12.9009C22.3099 12.0034 23.1967 10.6192 22.9588 9.03495C22.8668 9.98116 22.1477 10.6841 21.4394 11.3653C20.9852 11.852 20.677 12.3981 20.2877 12.9117H20.2391C20.5256 12.4738 20.7095 11.9817 20.7365 11.4356C20.7635 10.5219 20.3688 9.75407 20.4716 8.8457L20.2823 9.33773Z" fill="#3F6587"/>
<path d="M5.69876 3.74701C5.55277 3.94707 5.4176 4.15794 5.28783 4.37422C5.16347 4.59049 5.04993 4.81759 4.9472 5.04468L4.18482 4.70404C4.03342 5.04468 3.90366 5.39613 3.80092 5.75299L4.60656 5.98549C4.46598 6.4667 4.37947 6.96414 4.34703 7.46158L3.51436 7.4021C3.48732 7.77518 3.48732 8.14826 3.51436 8.51594L4.35243 8.45646C4.38487 8.9539 4.47138 9.44593 4.61197 9.93255L3.80633 10.1651C3.90906 10.5219 4.03883 10.8734 4.19022 11.214L4.95801 10.8734L5.61766 10.5814L5.94748 10.4354C5.59603 9.64599 5.42301 8.8025 5.42301 7.95902C5.42301 6.90467 5.69876 5.85572 6.23946 4.91491C7.21271 3.22794 8.93752 2.10871 10.8732 1.90865L10.8354 1.55179L10.7597 0.832669L10.6623 0C10.2893 0.0378486 9.92699 0.102732 9.56473 0.19465L9.77019 1.0111C9.28356 1.13546 8.80775 1.30307 8.36438 1.52476L7.99671 0.773193C7.66148 0.935401 7.33707 1.12464 7.02887 1.33011L7.49927 2.0276C7.08294 2.30876 6.69905 2.62777 6.353 2.99004L5.74742 2.40609C5.48789 2.67644 5.24998 2.9576 5.0283 3.26039L5.69876 3.74701Z" fill="#3F6587"/>
<path d="M16.6488 12.9336L17.2544 13.5176C17.5139 13.2472 17.7518 12.966 17.9735 12.6633L16.7083 11.7441L16.4217 11.5332C15.2755 13.1066 13.4479 14.042 11.5014 14.042C9.55491 14.042 7.72736 13.112 6.58109 11.5332L6.29452 11.7441L5.0293 12.6633C5.25098 12.966 5.48889 13.2526 5.74842 13.5176L6.354 12.9336C6.70545 13.2959 7.08934 13.6203 7.50027 13.896L7.02987 14.5935C7.33806 14.8044 7.66248 14.9882 7.99771 15.1504L8.36538 14.3989C8.81416 14.6152 9.28456 14.7882 9.77119 14.9125L9.56572 15.729C9.92799 15.8209 10.2957 15.8858 10.6633 15.9236L10.7498 15.091C10.9986 15.118 11.2473 15.1288 11.496 15.1288C11.7501 15.1288 11.9988 15.118 12.2422 15.091L12.3287 15.9236C12.7018 15.8858 13.064 15.8209 13.4263 15.729L13.2208 14.9125C13.7074 14.7936 14.1778 14.6206 14.6266 14.3989L14.9943 15.1504C15.3295 14.9882 15.6539 14.799 15.9621 14.5935L15.4917 13.896C15.9189 13.6203 16.3028 13.2959 16.6488 12.9336Z" fill="#3F6587"/>
<path d="M15.7014 3.57399H15.7122C16.1231 3.9687 16.4746 4.41747 16.7666 4.92032C17.3073 5.85572 17.583 6.91007 17.583 7.96443C17.583 8.80791 17.41 9.64599 17.0585 10.4408L17.3884 10.5868L17.437 10.6084L18.8104 11.2194C18.9618 10.8788 19.0915 10.5273 19.1943 10.1705L18.3886 9.93796C18.5292 9.45134 18.6157 8.95931 18.6482 8.46187L19.4863 8.52134C19.5133 8.14826 19.5133 7.77519 19.4863 7.40751L18.6482 7.46699C18.6157 6.96955 18.5292 6.47211 18.3886 5.99089L19.1943 5.7584C19.0915 5.40154 18.9618 5.05009 18.8104 4.70945L18.0426 5.05009C17.9399 4.82299 17.8263 4.60131 17.702 4.37962C17.5776 4.16335 17.4424 3.95248 17.291 3.75242L17.9723 3.26039C17.7506 2.9576 17.5127 2.67103 17.2532 2.40609L16.6476 2.99004C16.2962 2.62777 15.9123 2.30876 15.5013 2.0276L15.9717 1.33011C15.6635 1.11924 15.3391 0.935401 15.0039 0.773193L14.6362 1.52476C14.1875 1.30848 13.717 1.13546 13.2304 1.0111L13.4359 0.19465C13.0736 0.102732 12.7059 0.0378486 12.3329 0L12.2464 0.832669L12.1707 1.55179L12.1328 1.90865C13.49 2.04923 14.739 2.63859 15.7014 3.55777V3.57399ZM12.6843 0.897553C12.7871 0.913774 12.8844 0.935401 12.9871 0.951622C12.8898 0.929994 12.7871 0.913774 12.6843 0.897553Z" fill="#3F6587"/>
<path d="M8.1582 3.57422V3.81212H8.19065H8.48803C8.81785 3.81212 9.07198 3.90945 9.23959 4.09869C9.35854 4.23927 9.41802 4.57991 9.41802 5.12601V10.7871C9.41802 11.2899 9.37477 11.6089 9.28285 11.7441C9.12064 11.9874 8.8557 12.1064 8.48803 12.1064H8.1582V12.3443H8.19065H14.9818L15.7333 9.96523L15.5225 9.92197C15.5225 9.92197 15.5225 9.92738 15.5171 9.92738L15.4954 9.92197C15.7117 9.79761 15.9118 9.64081 16.101 9.44616C16.5984 8.92169 16.8526 8.26745 16.8526 7.47263C16.8526 6.70484 16.6039 6.06141 16.1064 5.54775C15.609 5.03409 15.025 4.77997 14.3492 4.77997C13.6679 4.77997 13.0839 5.00706 12.5919 5.46124C12.0296 5.98572 11.7484 6.66158 11.7484 7.48885C11.7484 8.29989 11.9917 8.95954 12.4784 9.46779C12.965 9.97604 13.5706 10.2302 14.2843 10.2302C14.7222 10.2302 15.1223 10.1274 15.4792 9.92738C15.2575 10.4681 15.0358 10.8628 14.8087 11.1115C14.5871 11.3656 14.3383 11.5386 14.0626 11.6414C13.7922 11.7387 13.3164 11.7928 12.646 11.7928H12.035C11.4727 11.7928 11.1374 11.7711 11.0293 11.7279C10.9212 11.6846 10.84 11.6198 10.7914 11.5278C10.7211 11.3927 10.6887 11.1493 10.6887 10.7925V5.27741C10.6887 4.75834 10.7211 4.42311 10.7914 4.28794C10.8617 4.14736 10.986 4.03381 11.1753 3.9473C11.3483 3.86079 11.6457 3.81753 12.062 3.81753C12.0836 3.81753 12.0999 3.81753 12.1215 3.81753C12.1323 3.81753 12.1431 3.81753 12.1539 3.81753V3.57963H12.1215H8.1582V3.57422ZM14.2789 9.95441C13.8193 9.95441 13.4516 9.78139 13.1704 9.42994C12.8082 8.97035 12.6243 8.31611 12.6243 7.46722C12.6243 6.63455 12.7974 6.00734 13.1488 5.57479C13.43 5.22874 13.8031 5.05572 14.2735 5.05572C14.7709 5.05572 15.1602 5.22874 15.4414 5.5802C15.7928 6.01816 15.9658 6.68321 15.9658 7.57536C15.9658 8.39721 15.809 8.99738 15.49 9.38128C15.171 9.76517 14.7709 9.95441 14.2789 9.95441Z" fill="#3F6587"/>
<path d="M7.73237 9.7814C7.63504 9.90576 7.47824 9.97064 7.26196 9.97064H7.07812V10.1112H9.31119V9.97064H9.12195C8.99759 9.97064 8.88404 9.9382 8.7705 9.87872C8.68939 9.83006 8.63532 9.77599 8.60829 9.71111C8.57585 9.62459 8.55963 9.45157 8.55963 9.18663V5.81811C8.55963 5.5045 8.59207 5.30985 8.65695 5.22875C8.75428 5.10439 8.91108 5.03951 9.12195 5.03951H9.31119V4.89893H7.07812V5.03951H7.26196C7.38632 5.03951 7.50527 5.07195 7.61341 5.13142C7.69452 5.18009 7.74318 5.23416 7.77021 5.29904C7.80266 5.38555 7.81888 5.55857 7.81888 5.82351V9.19204C7.82428 9.50023 7.79725 9.69488 7.73237 9.7814Z" fill="#3F6587"/>
</g>
<defs>
<clipPath id="clip0_5838_133974">
<rect width="22.9957" height="19" fill="white"/>
</clipPath>
</defs>
</svg>
