<svg width="22" height="23" viewBox="0 0 22 23" fill="none" xmlns="http://www.w3.org/2000/svg">
<path d="M3.00977 11.5121C3.00977 16.0632 6.60403 19.778 11.0609 19.778C15.4938 19.778 19.1121 16.0632 19.1121 11.5121C19.1121 6.96085 15.4938 3.24609 11.0609 3.24609C6.60403 3.24609 3.00977 6.96085 3.00977 11.5121ZM3.22542 11.5121C3.22542 7.08386 6.72384 3.4675 11.0609 3.4675C15.374 3.4675 18.8724 7.08386 18.8724 11.5121C18.8724 15.9402 15.374 19.5566 11.0609 19.5566C6.72384 19.5566 3.22542 15.9402 3.22542 11.5121Z" fill="#3F6587"/>
<path fill-rule="evenodd" clip-rule="evenodd" d="M4.20703 4.77148C4.20703 5.26351 4.20703 5.73093 4.20703 6.19835C4.20703 7.20699 4.20703 8.21563 4.20703 9.22428C4.20703 10.1099 4.20703 11.0202 4.20703 11.9304C4.20703 12.1518 4.20703 12.3486 4.20703 12.57C4.20703 13.1358 4.27892 13.6771 4.42269 14.2183C4.68627 15.2269 5.26135 16.1618 6.00416 16.8998C6.67509 17.5886 7.46583 18.1299 8.30449 18.5727C8.95146 18.9171 9.59842 19.1877 10.2933 19.4091C10.461 19.4829 10.6527 19.5321 10.8205 19.5813C10.8684 19.5813 10.9163 19.6059 10.9642 19.6059C11.3476 19.5321 11.731 19.4337 12.1144 19.3107C12.8333 19.0893 13.5521 18.7941 14.223 18.4005C15.0617 17.9577 15.8045 17.3426 16.4275 16.6046C17.1224 15.7682 17.5777 14.7349 17.7694 13.6525C17.9132 12.9144 17.8892 12.1764 17.9132 11.4138C17.9132 10.4297 17.9132 9.42109 17.9371 8.41244C17.9371 7.4776 17.9371 6.54276 17.9611 5.58332C17.9611 5.31271 17.9611 5.0421 17.9611 4.77148C17.6975 4.77148 17.4339 4.77148 17.1703 4.77148C16.4994 4.77148 15.8045 4.77148 15.1336 4.77148C14.1991 4.77148 13.2885 4.77148 12.378 4.77148C11.3716 4.77148 10.3892 4.77148 9.38277 4.77148C8.47222 4.77148 7.58564 4.77148 6.69905 4.77148C6.05209 4.77148 5.42908 4.77148 4.80608 4.77148C4.59042 4.77148 4.39873 4.77148 4.20703 4.77148ZM13.4323 17.687C13.4083 17.687 13.3844 17.7116 13.3365 17.7116C13.3125 17.7116 13.2646 17.7116 13.2167 17.7116C13.0968 17.7608 13.001 17.8101 12.9051 17.8593C12.8093 17.8839 12.7374 17.9577 12.6655 17.9823C12.5697 18.0069 12.4738 18.0315 12.378 18.0561C12.2103 18.1053 12.0665 18.1545 11.8988 18.1545C11.731 18.1545 11.5154 18.1299 11.3716 18.0561C11.2997 18.0315 11.2278 17.9823 11.132 17.9577C10.9642 17.8593 10.7726 17.7609 10.6048 17.6624C10.5329 17.6132 10.461 17.5394 10.4131 17.441C10.3652 17.4164 10.3412 17.3672 10.2933 17.318C10.2454 17.2934 10.1975 17.2196 10.1495 17.2196C10.0777 17.2196 10.0058 17.2196 9.93389 17.2196C9.90993 17.2196 9.88597 17.1704 9.88597 17.1458C9.862 17.1212 9.83804 17.1212 9.81408 17.0966C9.79012 17.072 9.76616 17.0474 9.7422 17.0474C9.69427 17.0228 9.69427 16.9982 9.67031 17.0228C9.71823 17.0966 9.76616 17.1458 9.81408 17.2196C9.83804 17.2688 9.81408 17.318 9.86201 17.318C9.90993 17.318 9.98181 17.2934 10.0297 17.2934C10.2214 17.318 10.3173 17.5148 10.3892 17.687C10.4131 17.7608 10.4371 17.8839 10.4371 17.9577C10.4371 18.0069 10.4371 18.0561 10.4371 18.0807C10.4131 18.1299 10.3892 18.1791 10.3892 18.2037C10.3892 18.2283 10.3652 18.3021 10.3412 18.3021C10.2933 18.3267 10.2454 18.3513 10.1975 18.3513C10.1256 18.3759 10.0297 18.3513 9.95785 18.3267C9.86201 18.3021 9.79012 18.2529 9.71823 18.1791C9.69427 18.1791 9.62239 18.1299 9.59843 18.1053C9.57446 18.0561 9.5505 18.0069 9.52654 17.9331C9.52654 17.9085 9.52654 17.8593 9.52654 17.8347C9.52654 17.7854 9.50258 17.7116 9.50258 17.687C9.5505 17.564 9.57446 17.4902 9.64635 17.4164C9.67031 17.4656 9.69427 17.5148 9.71823 17.564C9.7422 17.6132 9.76616 17.6378 9.81408 17.5886C9.862 17.5394 9.79012 17.4902 9.76616 17.4656C9.7422 17.441 9.7422 17.4164 9.7422 17.3918C9.7422 17.3672 9.7422 17.3426 9.71823 17.318C9.67031 17.2688 9.64635 17.2442 9.59843 17.195C9.57446 17.1704 9.50258 17.1212 9.50258 17.0966C9.50258 17.072 9.47862 16.949 9.43069 17.0228C9.38277 17.072 9.43069 17.0966 9.45466 17.1704C9.35881 17.1704 9.28692 17.1212 9.19108 17.0966C9.11919 17.072 9.0473 17.0474 8.95146 17.0228C8.80769 16.9736 8.66392 16.8998 8.52015 16.8506C8.35241 16.7768 8.18468 16.7276 8.01695 16.6784C7.99299 16.6538 7.96903 16.6538 7.9211 16.6538C7.89714 16.6538 7.82526 16.6292 7.77733 16.6538C7.75337 16.6538 7.70545 16.6784 7.68149 16.6784C7.63356 16.6784 7.58564 16.6784 7.56168 16.6292C7.41791 16.5308 7.41791 16.3586 7.32206 16.211C7.22621 16.088 7.1064 15.9404 6.96263 15.8666C6.91471 15.842 6.81886 15.7682 6.7949 15.719C6.7949 15.6698 6.77094 15.6206 6.81886 15.6206C6.89075 15.6206 6.89075 15.6206 6.93867 15.6944C6.9866 15.719 7.08244 15.719 7.13036 15.7436C7.20225 15.7928 7.2981 15.842 7.36998 15.8912C7.51375 15.965 7.63356 16.088 7.77733 16.1864C7.89714 16.2848 8.04091 16.3586 8.20864 16.4324C8.35241 16.4816 8.47222 16.6046 8.63996 16.6292C8.71184 16.6292 8.80769 16.6538 8.87957 16.703C8.9275 16.7276 8.95146 16.7276 8.97542 16.703C8.99938 16.6538 9.02334 16.6292 9.02334 16.58C9.0473 16.58 9.0473 16.5554 9.07127 16.5308L9.0473 16.5062C9.02334 16.4816 8.99938 16.4078 8.99938 16.3832C9.02334 16.334 9.0473 16.3094 9.07127 16.2602C9.09523 16.2356 9.11919 16.211 9.14315 16.1618C9.19108 16.1126 9.26296 16.0634 9.33485 16.0388C9.40673 16.0142 9.47862 15.9896 9.5505 15.9896C9.62239 15.9896 9.7422 15.965 9.79012 15.9896C9.83804 16.0142 9.862 16.0388 9.90993 16.0388C9.93389 16.0388 10.0058 16.0388 10.0297 16.0388C10.0777 16.1126 10.1016 16.1864 10.0777 16.2602C10.0537 16.3586 10.0297 16.4324 9.95785 16.5062C9.93389 16.5554 9.93389 16.6046 9.90993 16.6292C9.862 16.6538 9.81408 16.6784 9.76616 16.703C9.67031 16.7522 9.57446 16.7768 9.47862 16.7768C9.43069 16.7768 9.38277 16.7768 9.33485 16.7768C9.31088 16.7522 9.21504 16.7522 9.21504 16.7276C9.19108 16.6784 9.26296 16.6538 9.28692 16.6046C9.31088 16.58 9.26296 16.5062 9.239 16.4816L9.21504 16.5062C9.21504 16.5308 9.21504 16.5554 9.21504 16.5554C9.19108 16.6046 9.14315 16.6292 9.11919 16.6538L9.09523 16.6784C9.09523 16.703 9.11919 16.7276 9.09523 16.7522C9.09523 16.7768 9.0473 16.8014 9.0473 16.826C9.11919 16.8752 9.19108 16.826 9.26296 16.8506C9.28692 16.8506 9.33485 16.8752 9.35881 16.8752C9.43069 16.8752 9.47862 16.8998 9.52654 16.8998C9.57446 16.8998 9.62239 16.8998 9.67031 16.8998C9.69427 16.8998 9.71823 16.8506 9.76616 16.8506C9.83804 16.8506 9.90993 16.8014 9.98181 16.7768C10.0058 16.7522 10.0537 16.7522 10.0777 16.7276C10.1016 16.6784 10.1256 16.6538 10.1495 16.6292C10.2214 16.5554 10.2694 16.4816 10.3173 16.4324C10.4371 16.334 10.5809 16.2356 10.7007 16.1372C10.8684 16.0388 11.0122 15.965 11.1799 15.8912C11.2518 15.8666 11.3476 15.8666 11.4195 15.8666C11.4914 15.8666 11.5873 15.8666 11.6591 15.842C11.8269 15.842 11.9706 15.8174 12.1384 15.842C12.2342 15.8666 12.3301 15.8666 12.4259 15.8912C12.4978 15.9158 12.5697 15.9158 12.6655 15.9158C12.7614 15.9158 12.8333 15.9158 12.9051 15.9158C13.001 15.9158 13.0729 15.8912 13.1448 15.8912C13.2167 15.8912 13.3125 15.8912 13.3844 15.9158C13.4083 15.9404 13.6 15.9896 13.5042 16.0388C13.4323 16.088 13.3604 16.1126 13.2646 16.1372C13.1927 16.1372 13.1208 16.1864 13.0489 16.2356C12.977 16.2848 12.9291 16.334 12.8572 16.3586C12.7853 16.4078 12.7135 16.4324 12.6176 16.457C12.4738 16.5062 12.3301 16.58 12.1623 16.6046C12.0904 16.6292 11.9946 16.6538 11.9227 16.6784C11.8748 16.703 11.8269 16.6784 11.8029 16.6784C11.755 16.6784 11.731 16.703 11.6831 16.7276C11.6352 16.7276 11.5873 16.7276 11.5633 16.7276C11.5154 16.7522 11.4674 16.7522 11.4435 16.7768C11.3476 16.7768 11.2757 16.8014 11.1799 16.8014C11.0361 16.8506 10.8684 16.8506 10.7007 16.8752C10.6288 16.8752 10.5569 16.8752 10.461 16.8752C10.4371 16.8752 10.3892 16.8752 10.3652 16.8752C10.3173 16.8752 10.2933 16.8752 10.2454 16.8752C10.1495 16.8506 10.1016 16.8998 10.0297 16.9244C9.98181 16.949 9.95785 16.9736 9.93389 16.9736C9.88597 16.9982 10.0058 17.0474 10.0058 17.0474C10.0777 17.072 10.1735 17.072 10.2694 17.072C10.2933 17.072 10.3173 17.072 10.3652 17.0474C10.3892 17.0228 10.4131 17.0228 10.485 16.9982C10.6288 16.9736 10.7965 16.9982 10.9403 16.9982C11.0361 17.0228 11.108 17.0228 11.2039 17.0474C11.2757 17.0966 11.3476 17.1212 11.4435 17.1458C11.5873 17.195 11.7071 17.2688 11.8508 17.3426C11.9467 17.3672 12.0186 17.3918 12.1144 17.3918C12.1863 17.4164 12.2342 17.441 12.3061 17.4656C12.4499 17.5148 12.6176 17.564 12.7853 17.564C12.8333 17.564 12.9051 17.564 12.9531 17.564C13.025 17.564 13.0729 17.5148 13.1208 17.5394C13.1687 17.5394 13.2167 17.5394 13.2646 17.5394C13.3125 17.5394 13.3365 17.564 13.3604 17.5886C13.4323 17.6132 13.4563 17.6132 13.4323 17.687ZM14.6783 16.3832C14.6544 16.4078 14.6544 16.4324 14.6304 16.4324C14.6064 16.4324 14.5585 16.4324 14.5345 16.4324C14.5345 16.4324 14.4866 16.4816 14.4627 16.4816C14.3908 16.5554 14.3189 16.6292 14.247 16.703C14.1272 16.7768 14.0313 16.8998 13.9115 16.9736C13.8397 17.0228 13.7678 17.072 13.7198 17.1212C13.648 17.1458 13.5521 17.2196 13.4802 17.2442C13.3125 17.2934 13.1448 17.3426 12.977 17.3672C12.8333 17.3672 12.6655 17.3672 12.4978 17.3426C12.378 17.3426 12.2582 17.2934 12.1384 17.2688C12.0186 17.2196 11.8988 17.195 11.7789 17.1458C11.6352 17.0966 11.5154 17.0228 11.3956 16.9736C11.5633 16.9982 11.7071 17.0228 11.8748 17.0228C12.0425 17.0228 12.2342 17.0228 12.402 17.0228C12.4738 17.0228 12.5697 16.9982 12.6416 16.9982C12.7135 16.9982 12.7853 16.9736 12.8812 16.949C13.025 16.8998 13.2166 16.8998 13.3365 16.8014C13.2646 16.8014 13.2167 16.8014 13.1448 16.826C13.1208 16.8506 13.0968 16.826 13.0489 16.826C13.025 16.826 13.001 16.8506 12.9531 16.8506C12.9051 16.8506 12.8812 16.826 12.8333 16.826C12.8093 16.826 12.7853 16.8506 12.7374 16.8506C12.6655 16.8752 12.5697 16.8752 12.4978 16.8998C12.354 16.9244 12.2342 16.9244 12.1144 16.9244C12.0425 16.9244 11.9706 16.9244 11.8988 16.9244C11.8508 16.9244 11.755 16.949 11.7071 16.8998C11.7789 16.8752 11.8269 16.8506 11.8988 16.8506C11.9946 16.826 12.0665 16.826 12.1384 16.8014C12.3061 16.7522 12.4738 16.703 12.6176 16.6292C12.7614 16.58 12.9291 16.5062 13.0968 16.457C13.1687 16.457 13.2406 16.457 13.3125 16.457C13.4083 16.457 13.5282 16.457 13.648 16.457C13.8157 16.457 13.9595 16.3586 14.1272 16.3094C14.247 16.2848 14.3189 16.2602 14.4387 16.2602C14.4866 16.2602 14.5345 16.2602 14.5825 16.2602C14.6064 16.2602 14.6064 16.2602 14.6304 16.2848C14.6544 16.2848 14.7023 16.3586 14.6783 16.3832ZM13.7438 14.8579C12.9291 14.8579 12.1144 14.5873 11.4435 14.1199C11.3716 14.0707 11.2997 13.9969 11.2278 13.9477C11.1799 13.9231 11.1559 13.8739 11.108 13.8493C11.0841 13.8247 11.0841 13.8001 11.0601 13.8247C11.0361 13.8493 11.0122 13.8739 10.9882 13.8985C10.8444 14.0215 10.6767 14.1445 10.509 14.2429C10.1735 14.4643 9.79012 14.6119 9.40673 14.7349C8.01695 15.0793 6.53132 14.6365 5.52493 13.6033C4.56646 12.57 4.18307 11.1186 4.49457 9.7409C4.80607 8.41244 5.78851 7.28079 7.05848 6.81337C7.72941 6.56736 8.49619 6.49356 9.21504 6.64117C9.59843 6.73957 9.98181 6.88718 10.3412 7.08398C10.509 7.15779 10.6767 7.28079 10.8444 7.4038C10.9163 7.453 10.9882 7.5268 11.0601 7.57601C11.0841 7.60061 11.0841 7.60061 11.108 7.57601C11.132 7.5514 11.1559 7.5268 11.1799 7.5268C11.2039 7.4776 11.2518 7.453 11.2997 7.4284C12.5218 6.46896 14.1991 6.29675 15.5649 7.01018C16.763 7.62521 17.6016 8.85526 17.7454 10.2329C17.8892 11.6352 17.3381 13.0374 16.2838 13.9231C15.5649 14.5135 14.6544 14.8579 13.7438 14.8579Z" fill="#3F6587"/>
<path fill-rule="evenodd" clip-rule="evenodd" d="M12.3067 17.7607C12.1869 17.7607 12.0911 17.7361 11.9952 17.7115C11.8754 17.6869 11.7796 17.6377 11.6598 17.6131C11.4681 17.5639 11.2764 17.4655 11.0847 17.3917C10.9409 17.3179 10.7732 17.3179 10.6055 17.3179C10.6294 17.3671 10.7972 17.3917 10.8451 17.3917C10.893 17.4163 10.9649 17.4655 11.0368 17.4901C11.1805 17.5639 11.3243 17.6623 11.4681 17.7361C11.54 17.7607 11.6358 17.8099 11.7077 17.8345C11.8036 17.8345 11.8754 17.8591 11.9473 17.8591C12.0432 17.8591 12.1869 17.8837 12.2828 17.8591C12.3547 17.8099 12.4505 17.8099 12.5224 17.8099C12.5464 17.8099 12.5464 17.7607 12.5464 17.7607C12.4505 17.7607 12.3786 17.7607 12.3067 17.7607Z" fill="#3F6587"/>
<path fill-rule="evenodd" clip-rule="evenodd" d="M7.46723 16.0879C7.41931 16.0632 7.37139 15.9894 7.32346 15.9648C7.2995 16.014 7.41931 16.0879 7.44327 16.1125C7.46724 16.1371 7.58704 16.2601 7.56308 16.3339C7.53912 16.3093 7.51516 16.3093 7.51516 16.3339C7.51516 16.3585 7.53912 16.4077 7.53912 16.4323C7.53912 16.4569 7.56308 16.4815 7.56308 16.5061C7.61101 16.5553 7.65893 16.5307 7.68289 16.4815C7.68289 16.4077 7.65893 16.3093 7.611 16.2355C7.58704 16.1863 7.51516 16.1371 7.46723 16.0879Z" fill="#3F6587"/>
<path fill-rule="evenodd" clip-rule="evenodd" d="M10.3663 16.7027C10.534 16.6535 10.6778 16.6043 10.8216 16.5551C10.9893 16.5059 11.157 16.4813 11.3008 16.4567C11.4685 16.4075 11.6363 16.3829 11.804 16.3829C11.8759 16.3829 11.9717 16.3583 12.0436 16.3583C12.1155 16.3337 12.1874 16.2845 12.2353 16.2599C12.3311 16.2107 12.403 16.2107 12.4989 16.1861C12.5708 16.1615 12.6666 16.1861 12.7145 16.1615C12.7385 16.1615 12.7625 16.1615 12.7625 16.1369C12.7625 16.1123 12.7625 16.1123 12.7385 16.1123C12.6906 16.1123 12.6426 16.1123 12.5947 16.1123C12.5228 16.1123 12.451 16.1369 12.3791 16.1369C12.2113 16.1615 12.0436 16.1615 11.8759 16.1861C11.7321 16.2107 11.5644 16.2107 11.4206 16.2599C11.2529 16.3091 11.0372 16.3583 10.8695 16.4321C10.6778 16.5059 10.5101 16.6043 10.3184 16.6781C10.3423 16.7027 10.3663 16.7027 10.3663 16.7027Z" fill="#3F6587"/>
<path d="M4.30273 10.7004C4.30273 13.0375 6.14779 14.9318 8.42415 14.9318C9.43055 14.9318 10.389 14.5628 11.1318 13.874C12.0184 13.0867 12.5456 11.9305 12.5456 10.7004C12.5456 9.49498 12.0184 8.33873 11.1318 7.5269C10.389 6.86267 9.43055 6.49365 8.42415 6.49365C6.14779 6.49365 4.30273 8.38793 4.30273 10.7004ZM4.47047 10.7004C4.47047 8.48634 6.24363 6.66586 8.42415 6.66586C9.38262 6.66586 10.3171 7.01027 11.036 7.6745C11.8746 8.43714 12.3778 9.54418 12.3778 10.7004C12.3778 11.8813 11.8746 12.9883 11.036 13.751C10.3171 14.4152 9.38262 14.7596 8.42415 14.7596C6.24363 14.7596 4.47047 12.9391 4.47047 10.7004Z" fill="#3F6587"/>
<path d="M6.53115 7.87135C6.57908 7.82215 6.60304 7.79755 6.67492 7.77295C6.69888 7.77295 6.72285 7.79755 6.72285 7.79755C6.69888 7.84675 6.67492 7.84675 6.67492 7.87135C6.65096 7.94515 6.627 7.99436 6.57908 8.06816C6.55512 8.09276 6.60304 8.09276 6.55512 8.11736C6.53115 8.11736 6.50719 8.14196 6.48323 8.14196C6.45927 8.16656 6.43531 8.16656 6.41135 8.16656C6.38739 8.16656 6.36342 8.14196 6.33946 8.14196C6.3155 8.14196 6.26758 8.16656 6.26758 8.11736C6.26758 8.09276 6.29154 8.06816 6.3155 8.04356C6.36342 7.99436 6.41135 8.04356 6.48323 8.01896C6.53115 7.99436 6.50719 7.92055 6.53115 7.87135Z" fill="#3F6587"/>
<path d="M6.19743 8.14154C6.22139 8.11694 6.24535 8.14154 6.22139 8.16614C6.19743 8.16614 6.17346 8.14154 6.19743 8.14154Z" fill="#3F6587"/>
<path d="M11.0856 7.74825C11.0137 7.69905 10.9658 7.64985 10.8939 7.62525C10.822 7.57605 10.7741 7.50224 10.7022 7.45304C10.6782 7.42844 10.6543 7.40384 10.6064 7.37924C10.5824 7.35464 10.5584 7.35464 10.5105 7.33004C10.4386 7.25623 10.3907 7.23163 10.2948 7.20703C10.2709 7.20703 10.2469 7.20703 10.199 7.20703C10.1511 7.20703 10.1271 7.20703 10.0792 7.25623H10.0313C10.0073 7.25623 10.0073 7.30544 10.0073 7.30544C9.98335 7.33004 9.98335 7.37924 9.95939 7.40384C9.93543 7.45304 9.91146 7.47764 9.8875 7.47764C9.83958 7.47764 9.79165 7.47764 9.74373 7.47764C9.71977 7.50224 9.67185 7.50224 9.62392 7.50224C9.59996 7.50224 9.55204 7.52684 9.52807 7.52684C9.48015 7.55145 9.43223 7.55145 9.3843 7.55145C9.36034 7.55145 9.31242 7.55145 9.2645 7.52684C9.21657 7.52684 9.19261 7.52684 9.16865 7.57605C9.14469 7.60065 9.12072 7.62525 9.0728 7.64985C9.00092 7.69905 8.92903 7.74825 8.83318 7.77286C8.80922 7.79746 8.7613 7.82206 8.73734 7.84666C8.66545 7.87126 8.73734 7.87126 8.71338 7.94506C8.68941 7.92046 8.66545 7.92046 8.64149 7.87126C8.64149 7.87126 8.61753 7.79746 8.59357 7.82206C8.5696 7.82206 8.54564 7.82206 8.52168 7.84666C8.49772 7.89586 8.49772 7.89586 8.4498 7.87126C8.37791 7.87126 8.32999 7.89586 8.2581 7.89586C8.21018 7.89586 8.13829 7.84666 8.11433 7.87126C8.06641 7.89586 8.06641 7.89586 8.01848 7.89586C8.01848 7.87126 8.01848 7.82206 7.99452 7.79746C7.97056 7.77286 7.9466 7.74825 7.9466 7.69905C7.89868 7.62525 7.85075 7.60065 7.7549 7.60065C7.70698 7.60065 7.68302 7.60065 7.65906 7.57605C7.6351 7.55145 7.56321 7.52684 7.53925 7.55145C7.51529 7.57605 7.49133 7.60065 7.46737 7.62525C7.4434 7.62525 7.4434 7.64985 7.41944 7.64985C7.41944 7.67445 7.39548 7.67445 7.37152 7.67445C7.32359 7.67445 7.32359 7.72365 7.27567 7.72365C7.22775 7.72365 7.20379 7.72365 7.15586 7.74825C7.10794 7.74825 7.08398 7.74825 7.03605 7.74825C6.98813 7.74825 6.98813 7.79746 6.94021 7.82206C6.91625 7.84666 6.91624 7.87126 6.91624 7.92046C6.91624 7.96966 6.98813 7.94506 7.01209 7.94506C7.03605 7.94506 7.03605 7.94506 7.03605 7.96966C7.03605 7.99426 7.03605 8.01887 7.03605 8.01887C7.03605 8.06807 6.98813 8.09267 6.98813 8.11727C6.98813 8.19107 7.17982 8.14187 7.20379 8.11727C7.20379 8.11727 7.20379 8.09267 7.22775 8.06807C7.22775 8.04347 7.25171 8.04347 7.27567 8.04347C7.29963 8.01887 7.32359 7.96966 7.34756 7.94506C7.37152 7.89586 7.46736 7.82206 7.51529 7.79746C7.53925 7.79746 7.61113 7.79746 7.61113 7.82206C7.61113 7.84666 7.61114 7.89586 7.56321 7.92046C7.53925 7.94506 7.49133 7.89586 7.46737 7.92046C7.4434 7.94506 7.39548 7.94506 7.37152 7.99427C7.37152 8.01887 7.34756 8.01887 7.37152 8.04347L7.39548 8.06807C7.41944 8.06807 7.46737 8.09267 7.49133 8.06807C7.53925 8.06807 7.58717 8.04347 7.61113 8.04347C7.65906 8.04347 7.70698 8.04347 7.65906 8.09267C7.6351 8.16647 7.51529 8.11727 7.46737 8.14187C7.41944 8.16647 7.37152 8.16647 7.32359 8.19107C7.29963 8.19107 7.25171 8.16647 7.22775 8.21567C7.20379 8.24027 7.15586 8.26488 7.1319 8.28948C7.10794 8.31408 7.03605 8.26488 7.03605 8.26488C6.94021 8.21568 7.03605 8.09267 6.96417 8.04347C6.96417 8.01887 6.89228 8.04347 6.86832 8.04347C6.8204 8.04347 6.79644 8.04347 6.74851 8.06807C6.70059 8.11727 6.6287 8.16647 6.55682 8.19107C6.5089 8.19107 6.48493 8.21567 6.43701 8.21567C6.43701 8.24027 6.36512 8.21567 6.34116 8.21567C6.29324 8.21567 6.26928 8.21567 6.22135 8.21567C6.17343 8.21567 6.17343 8.24028 6.14947 8.28948C6.12551 8.31408 6.10155 8.36328 6.07758 8.38788C6.05362 8.41248 6.05362 8.46168 6.0057 8.48629C5.98174 8.51089 5.95778 8.43708 5.93381 8.43708C5.90985 8.41248 5.83797 8.46168 5.814 8.41248C5.79004 8.38788 5.76608 8.36328 5.74212 8.41248C5.6942 8.43708 5.67023 8.46168 5.67023 8.51089C5.67023 8.56009 5.64627 8.56009 5.62231 8.58469C5.59835 8.60929 5.55042 8.63389 5.57439 8.6831C5.59835 8.7323 5.59835 8.7569 5.59835 8.8061C5.59835 8.8553 5.67023 8.8307 5.6942 8.8307C5.74212 8.8307 5.814 8.8553 5.86193 8.8553C5.93381 8.8553 5.90985 8.8553 5.95778 8.8061C5.95778 8.7815 5.98174 8.7815 5.98174 8.7569C6.0057 8.7323 5.98174 8.7323 6.0057 8.7077C6.02966 8.7077 6.10155 8.7077 6.12551 8.7323C6.12551 8.7569 6.19739 8.7569 6.22135 8.7569C6.24532 8.7323 6.29324 8.7323 6.3172 8.7569C6.36512 8.7815 6.36512 8.8061 6.38909 8.8553C6.41305 8.8799 6.38909 8.92911 6.38909 8.95371C6.41305 9.00291 6.41305 9.00291 6.43701 9.02751C6.43701 9.05211 6.46097 9.07671 6.46097 9.10131C6.46097 9.15051 6.46097 9.15052 6.41305 9.17512C6.41305 9.19972 6.41305 9.22432 6.41305 9.24892C6.48493 9.24892 6.5089 9.22432 6.55682 9.17512C6.55682 9.19972 6.55682 9.22432 6.55682 9.24892C6.6287 9.17512 6.6287 9.12591 6.6287 9.02751C6.6287 9.00291 6.58078 8.97831 6.58078 8.95371C6.58078 8.92911 6.58078 8.9045 6.58078 8.8799C6.58078 8.8553 6.58078 8.8553 6.60474 8.8553C6.70059 8.8553 6.67663 8.95371 6.67663 9.02751C6.67663 9.10131 6.67663 9.17512 6.67663 9.24892C6.72455 9.24892 6.8204 9.24892 6.84436 9.19972C6.84436 9.17512 6.8204 9.12591 6.8204 9.10131C6.8204 9.07671 6.86832 9.07671 6.89228 9.07671C6.86832 9.12591 6.86832 9.15051 6.86832 9.19972C6.86832 9.22432 6.84436 9.22432 6.86832 9.24892V9.29812C6.89228 9.32272 6.94021 9.32272 6.96417 9.34732C6.98813 9.37192 6.98813 9.37192 6.98813 9.39653C6.98813 9.44573 7.01209 9.42113 7.03605 9.42113C7.06001 9.42113 7.10794 9.49493 7.08398 9.49493C7.08398 9.54413 7.06001 9.59333 7.03605 9.59333C7.01209 9.59333 6.94021 9.59334 6.91624 9.56873C6.89228 9.56873 6.84436 9.54413 6.79644 9.51953C6.77248 9.49493 6.77247 9.47033 6.72455 9.44573C6.67663 9.44573 6.65267 9.44573 6.60474 9.44573H6.5089C6.48493 9.39652 6.48493 9.37192 6.43701 9.34732C6.41305 9.29812 6.26928 9.29812 6.26928 9.22432C6.26928 9.19972 6.26928 9.17512 6.26928 9.15052H6.3172C6.34116 9.19972 6.34116 9.22432 6.36512 9.24892C6.41305 9.22432 6.38909 9.19972 6.38909 9.17512C6.36512 9.15052 6.36512 9.15051 6.34116 9.12591C6.3172 9.10131 6.34116 9.10131 6.29324 9.10131C6.26928 9.10131 6.29324 9.12591 6.26928 9.10131C6.24532 9.10131 6.24532 9.07671 6.22135 9.07671C6.22135 9.02751 6.22135 9.05211 6.19739 9.02751C6.17343 9.02751 6.17343 9.00291 6.14947 9.00291C6.12551 8.97831 6.07758 8.97831 6.05362 8.97831C6.0057 8.97831 5.95777 8.97831 5.88589 8.97831C5.86193 8.97831 5.814 8.97831 5.79004 8.97831C5.74212 8.95371 5.71816 8.92911 5.67023 8.9045C5.64627 8.9045 5.59835 8.8553 5.59835 8.8553C5.57439 8.8799 5.55043 8.9045 5.52646 8.9045C5.45458 8.97831 5.35873 9.05211 5.26289 9.10131C5.14308 9.19972 4.9993 9.27352 4.90346 9.39653C4.83157 9.47033 4.75969 9.56873 4.71176 9.64254C4.66384 9.69174 4.66384 9.79014 4.66384 9.83934C4.63988 9.93775 4.63988 10.0116 4.61592 10.11C4.61592 10.1592 4.59196 10.1838 4.59196 10.233C4.568 10.2576 4.59196 10.3068 4.61592 10.3314C4.63988 10.4052 4.66384 10.5036 4.6878 10.5774C4.71176 10.6266 4.73573 10.6758 4.75969 10.725C4.75969 10.7496 4.75969 10.7988 4.75969 10.8234C4.75969 10.8972 4.75969 10.8972 4.80761 10.9218C4.83157 10.971 4.85553 10.9464 4.90346 10.9464C4.97534 10.9218 4.97534 10.9218 5.02327 10.971C5.04723 10.9956 5.07119 10.9956 5.11911 10.9956C5.16704 10.9956 5.33477 10.971 5.35873 10.9956C5.38269 11.0202 5.40665 11.0694 5.43062 11.094C5.47854 11.094 5.55043 11.1186 5.55043 11.1432C5.57439 11.1678 5.55043 11.2662 5.55043 11.2908C5.55043 11.34 5.55042 11.34 5.57439 11.3892C5.62231 11.463 5.64627 11.5614 5.67023 11.6352C5.6942 11.709 5.76608 11.7828 5.76608 11.8566C5.76608 11.9058 5.76608 11.9304 5.76608 11.9796C5.76608 12.0288 5.74212 12.078 5.71816 12.1026C5.71816 12.1518 5.71816 12.1518 5.74212 12.201C5.76608 12.2502 5.79004 12.2995 5.83797 12.3487C5.86193 12.3979 5.88589 12.4717 5.90985 12.5209C5.98174 12.6931 6.02966 12.8653 6.12551 13.0375C6.14947 13.1113 6.19739 13.1851 6.22135 13.2589C6.24532 13.2835 6.29324 13.3081 6.3172 13.3081C6.34116 13.3081 6.38909 13.2589 6.41305 13.2343C6.48493 13.1851 6.58078 13.1605 6.65267 13.1113C6.72455 13.0867 6.72455 12.9637 6.74851 12.8899C6.74851 12.8653 6.77248 12.8653 6.79644 12.8407C6.86832 12.8161 6.91624 12.7423 6.86832 12.6685C6.86832 12.6685 6.84436 12.6439 6.84436 12.6193C6.84436 12.5947 6.84436 12.5455 6.84436 12.5209C6.84436 12.4225 6.89228 12.4225 6.94021 12.3733C7.01209 12.2995 7.01209 12.2502 7.01209 12.1764C7.01209 12.0534 7.01209 11.955 7.01209 11.8566C7.01209 11.832 6.89228 11.709 6.91624 11.6844C6.98813 11.6106 7.03605 11.5614 7.08398 11.5122C7.20379 11.3892 7.32359 11.2662 7.4434 11.1186C7.49133 11.0694 7.51529 10.971 7.53925 10.8972C7.53925 10.848 7.56321 10.8234 7.58717 10.7742C7.58717 10.7742 7.65906 10.7004 7.61113 10.6758C7.53925 10.6512 7.41944 10.725 7.34756 10.7742C7.32359 10.7742 7.25171 10.7496 7.22775 10.7496C7.15586 10.7004 7.15586 10.602 7.10794 10.5528C7.08398 10.5282 7.06001 10.479 7.03605 10.4544C7.01209 10.4544 6.98813 10.479 6.98813 10.4544C6.96417 10.4544 6.98813 10.4052 6.98813 10.3806C6.98813 10.3068 6.94021 10.233 6.91624 10.1592C6.89228 10.11 6.89228 10.0854 6.86832 10.0608C6.84436 10.0116 6.84436 9.96235 6.84436 9.93775C6.84436 9.88855 6.84436 9.86395 6.84436 9.81474C6.84436 9.79014 6.91624 9.74094 6.91624 9.76554C6.96417 9.81474 6.96417 9.93775 6.98813 9.98695C7.01209 10.0854 7.03605 10.1592 7.08398 10.233C7.08398 10.2822 7.1319 10.2822 7.15586 10.3068C7.20379 10.3314 7.17982 10.3806 7.20379 10.4052C7.20379 10.479 7.20379 10.5282 7.22775 10.5774C7.25171 10.6512 7.27567 10.6512 7.32359 10.6512C7.37152 10.6512 7.41944 10.6266 7.4434 10.6266C7.49133 10.602 7.51529 10.602 7.56321 10.5774C7.6351 10.5528 7.70698 10.5036 7.7549 10.4544C7.80283 10.4298 7.82679 10.4298 7.87471 10.4298C7.89868 10.4298 7.9466 10.356 7.9466 10.3314C7.97056 10.3068 7.99452 10.2822 8.01848 10.2576C8.01848 10.233 8.04245 10.1592 8.01848 10.1592H7.97056C7.97056 10.11 7.9466 10.0854 7.92264 10.0608C7.89868 10.0362 7.80283 10.0362 7.7549 10.0362C7.68302 10.0362 7.68302 10.0362 7.65906 9.98695C7.6351 9.96235 7.61113 9.91315 7.61113 9.86395C7.58717 9.83934 7.58717 9.83934 7.58717 9.79014C7.61114 9.81474 7.65906 9.81474 7.65906 9.83934C7.68302 9.88855 7.68302 9.91315 7.68302 9.96235C7.70698 9.96235 7.7549 9.93775 7.77887 9.93775C7.82679 9.93775 7.82679 9.96235 7.87471 9.98695C7.89868 10.0116 7.92264 10.0608 7.9466 10.0608C7.99452 10.0608 8.04245 10.0608 8.06641 10.0854C8.13829 10.0854 8.21018 10.0608 8.2581 10.0608C8.30603 10.0608 8.32999 10.0608 8.35395 10.11C8.37791 10.1346 8.40187 10.1592 8.42583 10.2084C8.4498 10.2576 8.4498 10.2576 8.49772 10.2576C8.54564 10.2576 8.54564 10.2576 8.54564 10.3068C8.54564 10.3806 8.54564 10.479 8.59357 10.5528C8.64149 10.6266 8.66545 10.6758 8.73734 10.7496C8.7613 10.7988 8.78526 10.8726 8.85715 10.9218C8.88111 10.8726 8.92903 10.7988 8.92903 10.7496C8.92903 10.7004 8.95299 10.7004 8.97696 10.6758C9.00092 10.6512 9.00092 10.6266 9.00092 10.5774C9.00092 10.479 9.02488 10.4544 9.0728 10.4052C9.12072 10.356 9.19261 10.3068 9.24053 10.2576C9.28846 10.2084 9.33638 10.1838 9.40827 10.1838C9.43223 10.1838 9.45619 10.2084 9.48015 10.233C9.50411 10.2576 9.48015 10.3068 9.50411 10.3314C9.50411 10.3314 9.50411 10.356 9.52807 10.356C9.52807 10.3806 9.55204 10.3806 9.576 10.3806C9.576 10.4052 9.59996 10.4544 9.59996 10.479C9.64788 10.5774 9.69581 10.5774 9.74373 10.5036C9.76769 10.5528 9.76769 10.6512 9.81561 10.7004C9.83958 10.7496 9.83958 10.8234 9.86354 10.8972C9.8875 10.971 9.91146 11.0448 9.93542 11.094C9.98335 11.1678 10.0313 11.2416 10.1032 11.2662C10.1271 11.2662 10.1511 11.2662 10.1271 11.217C10.1271 11.217 10.1032 11.217 10.1032 11.1924C10.1032 11.1678 10.1032 11.1432 10.1032 11.1186C10.0792 11.0448 10.0552 10.971 10.0313 10.9218C10.0073 10.8972 9.95939 10.8726 9.93542 10.848C9.91146 10.848 9.91146 10.7988 9.8875 10.7742C9.86354 10.7004 9.8875 10.6512 9.95939 10.602C10.0073 10.6512 10.0552 10.7496 10.1271 10.7742C10.175 10.7742 10.199 10.725 10.223 10.7004C10.2469 10.6758 10.2469 10.6758 10.2709 10.6758C10.2949 10.6512 10.2949 10.6512 10.3188 10.602C10.3428 10.5282 10.2949 10.4298 10.2709 10.3314C10.2469 10.2822 10.2469 10.2576 10.2469 10.1838C10.2469 10.1592 10.3188 10.11 10.3188 10.0854C10.3428 10.11 10.3667 10.1346 10.3428 10.1592C10.3188 10.1838 10.3428 10.1838 10.3428 10.2084C10.3667 10.233 10.4147 10.2084 10.4147 10.1838C10.4386 10.1838 10.4147 10.1346 10.4147 10.11C10.4147 10.0608 10.4626 10.0116 10.5105 10.0116C10.5584 9.98695 10.6064 9.91315 10.6303 9.88855C10.6543 9.86395 10.6782 9.79014 10.6782 9.74094C10.6782 9.69174 10.7022 9.61794 10.6782 9.56873C10.6543 9.44573 10.6543 9.32272 10.5584 9.24892C10.5824 9.22432 10.6303 9.19972 10.6064 9.17512C10.5584 9.12591 10.5345 9.17512 10.5105 9.19972C10.5105 9.19972 10.4626 9.12591 10.4865 9.10131C10.5105 9.10131 10.5105 9.07671 10.5345 9.07671C10.5584 9.05211 10.5584 9.05211 10.5824 9.07671C10.6064 9.10131 10.6303 9.12591 10.6543 9.15052C10.7022 9.17512 10.6782 9.22432 10.7022 9.27352C10.7022 9.29812 10.7022 9.29812 10.7262 9.32272C10.7501 9.32272 10.7501 9.32272 10.7741 9.29812C10.7741 9.27352 10.822 9.24892 10.822 9.22432C10.822 9.17512 10.846 9.12591 10.822 9.10131C10.7741 9.05211 10.7501 9.05211 10.7501 8.97831C10.7501 8.9045 10.7501 8.8061 10.798 8.7569C10.846 8.7323 10.846 8.7323 10.822 8.65849C10.798 8.65849 10.7741 8.65849 10.798 8.63389C10.798 8.60929 10.798 8.60929 10.798 8.58469C10.798 8.48629 10.846 8.43708 10.822 8.33868C10.798 8.28948 10.7501 8.19107 10.7022 8.14187C10.6782 8.09267 10.6543 8.06807 10.6303 8.04347C10.6064 8.01887 10.5345 7.99426 10.5345 7.96966C10.5105 7.94506 10.5345 7.92046 10.5345 7.92046C10.5345 7.89586 10.5105 7.87126 10.4865 7.87126C10.4626 7.84666 10.4147 7.89586 10.3907 7.89586C10.3667 7.89586 10.3907 7.79746 10.4147 7.77286C10.4147 7.74825 10.4386 7.72365 10.4865 7.72365C10.5345 7.69905 10.5584 7.69905 10.5824 7.67445C10.6064 7.64985 10.6064 7.60065 10.6543 7.57605C10.6782 7.62525 10.7022 7.67445 10.7262 7.72365C10.7501 7.74825 10.7501 7.77286 10.7741 7.77286C10.7741 7.79746 10.798 7.77286 10.798 7.77286C10.846 7.79746 10.822 7.82206 10.8699 7.82206C10.9418 7.82206 10.9897 7.87126 11.0616 7.87126C11.1096 7.87126 11.1095 7.89586 11.1095 7.84666C11.1095 7.79746 11.0856 7.79746 11.0856 7.74825ZM7.27567 8.26488C7.29963 8.26488 7.29963 8.28948 7.27567 8.31408C7.25171 8.31408 7.22775 8.28948 7.27567 8.26488ZM7.4434 9.19972C7.41944 9.24892 7.29963 9.15052 7.25171 9.17512C7.22775 9.17512 7.15586 9.15051 7.17982 9.12591C7.17982 9.10131 7.20379 9.02751 7.22775 9.02751C7.25171 9.00291 7.29963 8.97831 7.32359 9.00291C7.32359 9.00291 7.32359 9.00291 7.34756 9.02751C7.34756 9.05211 7.37152 9.05211 7.39548 9.05211C7.4434 9.05211 7.4434 9.05211 7.46737 9.10131C7.46737 9.15051 7.46737 9.15051 7.4434 9.19972ZM7.85075 9.17512C7.82679 9.19972 7.80283 9.22432 7.82679 9.27352C7.82679 9.32272 7.85075 9.32272 7.80283 9.39653C7.80283 9.42113 7.80283 9.47033 7.73094 9.47033C7.70698 9.47033 7.68302 9.49493 7.65906 9.44573C7.6351 9.42113 7.65906 9.39653 7.68302 9.39653C7.73094 9.39653 7.70698 9.32272 7.70698 9.29812C7.70698 9.24892 7.70698 9.22432 7.70698 9.19972C7.70698 9.15051 7.73094 9.12591 7.77887 9.12591C7.80283 9.10131 7.87471 9.10131 7.85075 9.17512Z" fill="#3F6587"/>
<path d="M6.2922 7.82196C6.31616 7.82196 6.34012 7.79736 6.34012 7.79736C6.36408 7.82197 6.38805 7.82196 6.41201 7.82196C6.43597 7.82196 6.45993 7.84656 6.45993 7.89577C6.45993 7.92037 6.48389 7.94497 6.43597 7.96957C6.41201 7.96957 6.38805 7.99417 6.36408 7.99417C6.34012 7.99417 6.2922 7.99417 6.26824 7.99417C6.22031 8.01877 6.19635 8.04337 6.17239 7.99417C6.14843 7.92037 6.19635 7.92037 6.24427 7.89577C6.26824 7.89577 6.2922 7.84656 6.2922 7.82196Z" fill="#3F6587"/>
<path d="M7.37122 12.0289C7.37122 11.9797 7.37122 11.9797 7.41914 11.9551C7.4431 11.9551 7.49103 12.0043 7.49103 12.0289C7.53895 12.1027 7.51499 12.1765 7.51499 12.2749C7.51499 12.2995 7.46706 12.3487 7.46706 12.3733C7.4431 12.3979 7.41914 12.4225 7.41914 12.4717C7.41914 12.4963 7.39518 12.5455 7.39518 12.5947C7.39518 12.6193 7.4431 12.6685 7.41914 12.6931C7.41914 12.6931 7.37122 12.7423 7.34725 12.7423C7.32329 12.7177 7.27537 12.6931 7.25141 12.6439C7.20349 12.5947 7.22745 12.4963 7.22745 12.4471C7.22745 12.3979 7.22745 12.3487 7.22745 12.3241C7.20349 12.2749 7.22745 12.2503 7.22745 12.2011C7.25141 12.1765 7.25141 12.1273 7.27537 12.1027C7.32329 12.1027 7.32329 12.0535 7.37122 12.0289Z" fill="#3F6587"/>
<path d="M8.90443 10.9216C8.90443 10.897 8.97632 10.8232 8.97632 10.8232C9.02424 10.8478 9.00028 10.9216 9.00028 10.9462C9.00028 10.9708 8.97632 11.0447 8.92839 11.0447C8.88047 11.0201 8.90443 10.9462 8.90443 10.9216Z" fill="#3F6587"/>
<path d="M9.59854 11.0449C9.67043 11.0449 9.71835 11.0449 9.79024 11.0941C9.83816 11.1187 9.88608 11.1679 9.93401 11.2171C9.98193 11.2663 10.0299 11.3155 10.0538 11.3647C10.1017 11.3893 10.0538 11.5123 10.0538 11.5615C10.0299 11.6107 9.95797 11.4385 9.93401 11.4385C9.91005 11.3647 9.86212 11.3155 9.83816 11.2663C9.8142 11.2417 9.71835 11.1433 9.69439 11.1433C9.67043 11.1433 9.6225 11.1433 9.59854 11.1187C9.59854 11.1187 9.57458 11.0695 9.59854 11.0449Z" fill="#3F6587"/>
<path d="M10.1262 11.4629C10.1502 11.4875 10.1502 11.5367 10.1742 11.5859C10.1742 11.6105 10.27 11.6105 10.294 11.6105C10.3179 11.6105 10.3898 11.6105 10.3898 11.6351C10.4377 11.6843 10.4138 11.7335 10.3658 11.7335C10.3419 11.7089 10.3179 11.6843 10.27 11.6843C10.2221 11.6843 10.1981 11.6597 10.1502 11.6597C10.1262 11.6351 10.0783 11.6105 10.1023 11.5613C10.1262 11.5367 10.1023 11.4875 10.1262 11.4629Z" fill="#3F6587"/>
<path d="M10.4619 11.7334C10.5098 11.7334 10.5098 11.7334 10.5578 11.758C10.5817 11.758 10.6296 11.758 10.6296 11.758C10.6776 11.758 10.7015 11.758 10.7255 11.7826C10.7734 11.7826 10.7974 11.8072 10.7495 11.8318C10.7255 11.8564 10.6057 11.8072 10.5817 11.8072C10.5338 11.8072 10.5338 11.7826 10.4859 11.7826C10.4619 11.7826 10.414 11.758 10.4619 11.7334Z" fill="#3F6587"/>
<path d="M10.8691 11.832C10.893 11.832 10.941 11.832 10.941 11.832C10.9649 11.8812 10.9649 11.9058 10.917 11.9058C10.893 11.9058 10.893 11.9058 10.8451 11.9058C10.8211 11.8812 10.8211 11.9058 10.7972 11.9058C10.7732 11.9304 10.7253 11.9304 10.7253 11.9058C10.7013 11.9058 10.6774 11.8566 10.7013 11.8566C10.7493 11.8566 10.8451 11.8566 10.8691 11.832Z" fill="#3F6587"/>
<path d="M10.2219 11.0941C10.2938 11.0941 10.3417 11.0695 10.3896 11.0203C10.4136 10.9957 10.4615 10.9711 10.4855 10.9465C10.5095 10.9219 10.5334 10.8727 10.5574 10.8973C10.5813 10.8973 10.6532 10.9219 10.6532 10.9465C10.6293 10.9957 10.6293 10.9711 10.5813 11.0203C10.5574 11.0203 10.5574 11.0695 10.5813 11.0941C10.6293 11.1433 10.6053 11.1433 10.5813 11.1925C10.5574 11.2171 10.5095 11.2663 10.5095 11.2909C10.5095 11.3402 10.4855 11.3402 10.4855 11.3894C10.4615 11.414 10.4376 11.414 10.4136 11.3894C10.3896 11.3648 10.3657 11.3648 10.3178 11.3648C10.2938 11.3648 10.2459 11.3894 10.2219 11.3648C10.2219 11.3648 10.1979 11.2909 10.1979 11.2663C10.174 11.2417 10.15 11.2171 10.174 11.1679C10.174 11.1187 10.174 11.1187 10.2219 11.0941Z" fill="#3F6587"/>
<path d="M10.893 11.2168C10.8211 11.2168 10.7492 11.2168 10.6774 11.266C10.6294 11.2906 10.6055 11.3644 10.6055 11.4382C10.6055 11.4628 10.6055 11.512 10.6055 11.5366C10.6294 11.5612 10.6774 11.6104 10.7013 11.6104C10.7732 11.5858 10.6534 11.4874 10.6774 11.4382C10.7013 11.4382 10.7013 11.4628 10.7253 11.4874C10.7253 11.512 10.7492 11.5366 10.7732 11.5366C10.7972 11.5366 10.8451 11.512 10.8211 11.512C10.8211 11.4874 10.7972 11.4628 10.7732 11.4628C10.7013 11.4136 10.8211 11.4136 10.8451 11.4136C10.917 11.3398 10.7732 11.3644 10.7492 11.3644C10.7492 11.3152 10.7972 11.2906 10.8451 11.2906C10.869 11.2906 10.9409 11.266 10.893 11.2168Z" fill="#3F6587"/>
<path d="M10.9408 11.0449C10.9648 11.0449 11.0367 11.0449 11.0367 11.0695C11.0367 11.0941 11.0127 11.1187 11.0127 11.1433C11.0127 11.1679 11.0367 11.1433 11.0606 11.1679C11.0846 11.1925 11.0367 11.2417 11.0367 11.2417C11.0127 11.2663 10.9169 11.2171 10.9169 11.1925C10.8929 11.1187 10.9408 11.0941 10.9408 11.0449Z" fill="#3F6587"/>
<path d="M10.7971 10.7247C10.7971 10.7001 10.8451 10.6509 10.869 10.6509C10.893 10.6509 10.9169 10.7247 10.893 10.7493C10.869 10.7985 10.9169 10.7985 10.9169 10.8477C10.9169 10.8969 10.9649 10.9461 10.9169 10.9707C10.8451 10.9707 10.8451 10.9461 10.8211 10.9215C10.7971 10.8969 10.7732 10.8969 10.7492 10.8969C10.7492 10.8969 10.7492 10.9215 10.7252 10.9215C10.6773 10.9215 10.6773 10.8723 10.7013 10.8477C10.7492 10.8477 10.7732 10.8231 10.8211 10.8477C10.8211 10.8231 10.8451 10.7985 10.8451 10.7739C10.8451 10.7493 10.8211 10.7493 10.7971 10.7247Z" fill="#3F6587"/>
<path d="M10.7249 10.5771C10.7489 10.5771 10.8208 10.651 10.7729 10.651C10.7249 10.651 10.677 10.6017 10.7249 10.5771Z" fill="#3F6587"/>
<path d="M10.8216 10.5033C10.8216 10.5033 10.8455 10.5525 10.8455 10.5771C10.8455 10.6017 10.8216 10.5771 10.7976 10.5771C10.7497 10.5771 10.7736 10.4541 10.8216 10.5033Z" fill="#3F6587"/>
<path d="M10.6768 10.2085C10.7008 10.2085 10.7247 10.2085 10.7487 10.2577C10.7726 10.2823 10.7487 10.3069 10.7247 10.3315C10.7008 10.3315 10.7487 10.4053 10.7487 10.4299C10.7726 10.4299 10.7726 10.5037 10.7487 10.5037C10.7247 10.5037 10.6768 10.4791 10.6528 10.4545C10.6289 10.4299 10.6289 10.4053 10.6528 10.3807C10.6528 10.3315 10.5809 10.2085 10.6768 10.2085Z" fill="#3F6587"/>
<path d="M10.7251 9.83948C10.7251 9.81488 10.7251 9.79028 10.7491 9.76568C10.7731 9.74108 10.797 9.79028 10.797 9.79028C10.797 9.83948 10.821 9.91328 10.821 9.93788C10.797 10.0117 10.7491 10.0117 10.7012 9.98708C10.7012 9.96248 10.7012 9.86408 10.7251 9.83948Z" fill="#3F6587"/>
<path d="M11.1322 11.1925C11.0603 11.094 11.1562 11.094 11.252 11.1186C11.276 11.1186 11.276 11.1432 11.3 11.1678C11.3 11.1925 11.3 11.1925 11.276 11.2171C11.276 11.2417 11.3 11.2663 11.3239 11.2663C11.3719 11.3155 11.4437 11.1925 11.5156 11.2417C11.5875 11.2909 11.6115 11.3893 11.6834 11.4385C11.7073 11.4385 11.7552 11.4631 11.7792 11.4877C11.8032 11.5123 11.8032 11.5123 11.8032 11.5369C11.8271 11.5369 11.8511 11.5369 11.8511 11.5615C11.899 11.6353 11.9469 11.7091 11.9709 11.7829C11.9949 11.8321 12.0907 11.9797 12.0188 12.0043C11.9709 12.0289 11.9469 11.9305 11.9469 11.9059C11.923 11.8567 11.8751 11.9059 11.8511 11.8813C11.8032 11.8567 11.7792 11.7829 11.7313 11.7829C11.6834 11.7583 11.6594 11.8567 11.6115 11.8075C11.5396 11.7829 11.5396 11.7337 11.4677 11.7091C11.4198 11.6845 11.3479 11.6599 11.3719 11.6107C11.3958 11.5861 11.3958 11.5615 11.3958 11.5369C11.3958 11.4877 11.3958 11.4877 11.3719 11.4631C11.3239 11.4139 11.276 11.3893 11.2281 11.3893C11.2041 11.3893 11.1562 11.3893 11.1322 11.3647C11.1322 11.3647 11.1083 11.3155 11.0843 11.2909C11.0603 11.2909 11.0364 11.2663 11.0843 11.2417C11.1083 11.2417 11.1322 11.2171 11.1562 11.2171C11.1562 11.2171 11.1562 11.2171 11.1322 11.1925Z" fill="#3F6587"/>
<path d="M12.0195 11.3151C12.0195 11.2905 12.0195 11.2905 12.0195 11.2905C12.0914 11.2905 12.1873 11.3643 12.1633 11.4135C12.1633 11.4381 12.1393 11.4627 12.1154 11.4627C12.0914 11.4381 12.0914 11.4381 12.0914 11.4135C12.0675 11.3889 12.0675 11.3643 12.0675 11.3397C12.0435 11.3397 12.0195 11.3397 12.0195 11.3151Z" fill="#3F6587"/>
<path d="M11.9959 11.4631L12.0198 11.4385C12.0438 11.4385 12.0438 11.4631 12.0438 11.4877C12.0438 11.5123 12.0438 11.5369 12.0438 11.5369C12.0198 11.5615 12.0198 11.5615 11.9959 11.5615C11.9719 11.6107 11.924 11.5861 11.9479 11.5369C11.9719 11.5123 12.0198 11.5123 11.9959 11.4631Z" fill="#3F6587"/>
<path d="M12.1628 11.4628C12.2347 11.4382 12.2347 11.6105 12.1868 11.6351C12.1389 11.6597 12.1149 11.4874 12.1628 11.4628Z" fill="#3F6587"/>
<path d="M12.187 11.6845C12.2109 11.6599 12.2349 11.6599 12.2588 11.6353C12.2588 11.6845 12.2588 11.7091 12.2588 11.7337C12.2349 11.7583 12.2349 11.8321 12.2109 11.8321C12.163 11.8567 12.187 11.7829 12.163 11.7583C12.163 11.7337 12.139 11.7583 12.163 11.7091L12.187 11.6845Z" fill="#3F6587"/>
<path d="M11.0126 11.9302C11.0605 11.9302 11.0844 11.9302 11.1324 11.9302C11.1563 11.9302 11.2042 11.9302 11.2522 11.9302C11.3001 11.9302 11.2761 11.9548 11.2761 12.004C11.2761 12.0532 11.2522 12.0532 11.2282 12.1024C11.1563 12.1516 11.2522 12.2254 11.3001 12.2746C11.3241 12.3238 11.348 12.3238 11.372 12.2746C11.3959 12.2254 11.4199 12.2254 11.4199 12.1762C11.4439 12.127 11.4678 12.1024 11.4678 12.0778C11.4918 12.0286 11.4918 11.9794 11.5157 11.9548C11.6116 11.881 11.5876 12.1024 11.5876 12.1516C11.5876 12.2008 11.5876 12.2254 11.6116 12.2746C11.6356 12.3238 11.6356 12.3484 11.6356 12.3976C11.6116 12.4714 11.6356 12.5698 11.6595 12.6436C11.6595 12.7174 11.6595 12.7912 11.6595 12.865C11.6595 12.9142 11.6595 12.9634 11.6356 12.988C11.6356 13.0372 11.5876 13.0618 11.5876 13.0864C11.5637 13.1356 11.5397 13.1602 11.5157 13.2094C11.5157 13.234 11.4678 13.2586 11.4439 13.2832C11.4439 13.3324 11.4199 13.357 11.3959 13.3816C11.372 13.4308 11.348 13.4554 11.3241 13.48C11.2522 13.5292 11.2042 13.5784 11.1324 13.6276C11.0844 13.6276 11.0605 13.6276 11.0365 13.6276C10.9886 13.6276 10.9407 13.6522 10.9167 13.6522C10.8688 13.6522 10.8448 13.6522 10.8209 13.6276C10.7969 13.603 10.7969 13.5538 10.7729 13.5046C10.7729 13.4308 10.7729 13.357 10.7969 13.2586C10.749 13.2832 10.725 13.3324 10.701 13.3078C10.6531 13.2832 10.6771 13.2586 10.6531 13.2094C10.6052 13.1356 10.5812 13.0618 10.4854 13.0372C10.3177 13.0126 10.1739 13.0618 10.0301 13.0864C10.0062 13.0864 9.95824 13.0372 9.93428 13.0372C9.91032 13.0126 9.88635 12.9634 9.91032 12.9388C9.93428 12.9142 9.95824 12.865 9.95824 12.8404C9.9822 12.7912 9.9822 12.742 9.9822 12.7174C9.9822 12.6682 10.0062 12.6436 10.0301 12.619C10.0541 12.5698 10.0541 12.5452 10.078 12.496C10.102 12.4468 10.1499 12.373 10.2218 12.3484C10.2937 12.3238 10.3656 12.2992 10.4375 12.25C10.4375 12.25 10.4614 12.25 10.4854 12.25C10.5094 12.25 10.5094 12.2254 10.5333 12.2254C10.5573 12.1762 10.5812 12.1762 10.6052 12.1516C10.6771 12.0778 10.749 12.0532 10.8209 12.0532C10.8927 12.0286 10.9407 11.9548 11.0126 11.9302Z" fill="#3F6587"/>
<path d="M10.7501 13.751C10.7741 13.751 10.7981 13.751 10.822 13.7756V13.8002H10.87C10.8939 13.7756 10.9179 13.751 10.9418 13.751C10.9898 13.7756 10.9898 13.8002 10.9658 13.8248C10.9418 13.8494 10.9179 13.874 10.8939 13.8986C10.87 13.8986 10.87 13.9478 10.846 13.9724C10.7981 13.997 10.7501 13.997 10.7501 13.9232C10.7022 13.9478 10.6543 13.8986 10.6543 13.8494C10.6543 13.8248 10.7022 13.7756 10.7262 13.751H10.7501Z" fill="#3F6587"/>
<path d="M6.7965 7.18213C6.82046 7.18213 6.84442 7.18213 6.89234 7.20673C6.94026 7.20673 6.94027 7.20673 6.96423 7.18213C7.01215 7.20673 6.98819 7.25593 6.96423 7.28053C6.9163 7.30513 6.89234 7.32973 6.82046 7.32973C6.77253 7.32973 6.72461 7.32974 6.72461 7.28053C6.72461 7.23133 6.77253 7.20673 6.7965 7.18213Z" fill="#3F6587"/>
<path d="M10.5806 7.896C10.6764 7.9452 10.7723 8.0436 10.8442 8.09281C10.8681 8.14201 10.8681 8.14201 10.8921 8.16661C10.8921 8.21581 10.8921 8.21581 10.9161 8.24041C10.94 8.26501 11.0598 8.33882 11.0119 8.36342C10.9879 8.38802 10.8681 8.33882 10.8442 8.31422C10.8202 8.28961 10.8202 8.19121 10.7963 8.16661C10.7244 8.0682 10.6046 8.019 10.5566 7.9206C10.5806 7.9206 10.5806 7.896 10.5806 7.896Z" fill="#3F6587"/>
<path d="M11.1324 7.92041C11.1324 7.92041 11.2522 7.96961 11.1804 7.99422C11.1564 7.99422 11.1085 8.01882 11.0605 7.96961C11.0845 7.96961 11.1085 7.94501 11.1324 7.92041Z" fill="#3F6587"/>
<path d="M11.1797 8.04346C11.2037 8.06806 11.2037 8.06806 11.1797 8.09266C11.1557 8.11726 11.1318 8.09266 11.1078 8.09266C11.0839 8.09266 11.0839 8.04346 11.1078 8.04346C11.1318 8.04346 11.1557 8.04346 11.1797 8.04346Z" fill="#3F6587"/>
<path d="M10.9883 8.3877C11.0123 8.4123 11.0602 8.4369 11.0602 8.4369C11.0842 8.4369 11.18 8.4123 11.18 8.4369C11.204 8.4861 11.2519 8.4861 11.204 8.5107C11.18 8.5353 11.1081 8.5599 11.1081 8.5845C11.1081 8.5845 11.0842 8.65831 11.0602 8.65831C11.0123 8.63371 11.0363 8.5599 11.0123 8.5353C11.0123 8.5107 10.8925 8.4123 10.9883 8.3877Z" fill="#3F6587"/>
<path d="M11.1798 8.58447C11.2037 8.60907 11.1798 8.65828 11.1798 8.68288C11.2037 8.70748 11.2277 8.70748 11.2516 8.73208C11.2516 8.78128 11.2277 8.83048 11.2277 8.85508C11.2516 8.87969 11.2516 8.95349 11.2516 8.97809L11.2277 9.00269C11.2277 9.02729 11.2516 9.05189 11.2277 9.05189C11.2277 9.07649 11.2037 9.07649 11.2037 9.07649C11.2037 9.10109 11.2037 9.1257 11.1798 9.1503C11.1798 9.1749 11.1558 9.1749 11.1318 9.1749C11.0839 9.1995 11.036 9.2487 10.9881 9.2487C10.9881 9.2733 10.9641 9.3471 10.9162 9.3225C10.8922 9.2979 10.9162 9.2241 10.9401 9.2241C10.9641 9.1749 10.9881 9.1503 11.012 9.10109C11.036 9.07649 11.0599 9.07649 11.1079 9.07649C11.0839 9.02729 11.036 9.00269 11.036 8.97809C11.036 8.95349 11.1079 8.90429 11.1079 8.85508C11.1318 8.83048 11.0839 8.75668 11.1079 8.70748C11.1318 8.68288 11.1318 8.58447 11.1798 8.58447Z" fill="#3F6587"/>
<path d="M11.1094 9.27351C11.0615 9.2489 10.9417 9.32271 10.9896 9.34731C11.0375 9.34731 11.1094 9.32271 11.1094 9.27351Z" fill="#3F6587"/>
<path d="M10.965 9.37196C10.965 9.34736 10.941 9.34736 10.941 9.32275C10.917 9.34736 10.8452 9.44576 10.8931 9.47036C10.917 9.49496 10.917 9.44576 10.941 9.42116C10.941 9.42116 10.9889 9.39656 10.965 9.37196Z" fill="#3F6587"/>
<path d="M11.5887 7.32988C11.6845 7.32988 11.7325 7.30528 11.7804 7.23148C11.8044 7.20688 11.8283 7.18227 11.8523 7.18227C11.9002 7.18227 11.9242 7.15767 11.9721 7.13307C11.9961 7.13307 12.044 7.10847 12.0679 7.10847C12.1159 7.08387 12.1159 7.05927 12.1638 7.03467C12.2357 7.03467 12.3076 7.05927 12.3794 7.08387C12.4274 7.10847 12.5472 7.10847 12.5472 7.18227C12.5711 7.20688 12.5472 7.23148 12.5711 7.28068C12.5951 7.30528 12.6191 7.35448 12.6191 7.37908C12.6191 7.40369 12.5951 7.40368 12.5951 7.42829C12.5951 7.45289 12.5951 7.45289 12.5951 7.47749C12.5711 7.52669 12.5472 7.55129 12.5232 7.57589C12.4992 7.60049 12.4753 7.6251 12.4274 7.6251C12.4034 7.6251 12.4034 7.50209 12.4034 7.47749C12.3794 7.47749 12.3555 7.47749 12.3555 7.50209C12.3315 7.50209 12.3076 7.47749 12.3076 7.45289C12.2836 7.47749 12.2596 7.50209 12.2117 7.52669C12.1638 7.52669 12.1398 7.52669 12.0919 7.50209C12.02 7.50209 11.9481 7.50209 11.8523 7.50209C11.8283 7.50209 11.7804 7.50209 11.7564 7.47749C11.7325 7.47749 11.7085 7.45289 11.7085 7.47749C11.7085 7.50209 11.6845 7.50209 11.6606 7.52669C11.6366 7.52669 11.5408 7.52669 11.5168 7.52669C11.4689 7.52669 11.421 7.52669 11.373 7.52669C11.421 7.42829 11.5408 7.42829 11.5887 7.32988Z" fill="#3F6587"/>
<path d="M12.0666 8.1416C12.0905 8.1416 12.1384 8.1662 12.1384 8.1908C12.1384 8.24001 12.0665 8.2154 12.0426 8.2154C12.0186 8.2154 11.9707 8.1908 11.9707 8.1662C11.9947 8.1416 12.0426 8.1416 12.0666 8.1416Z" fill="#3F6587"/>
<path d="M11.8986 8.21533C11.9225 8.23993 11.9465 8.23993 11.9705 8.26453C11.9944 8.28914 11.9465 8.31374 11.9225 8.31374C11.8986 8.28913 11.8506 8.31374 11.8267 8.26453C11.8027 8.21533 11.8506 8.23993 11.8986 8.21533Z" fill="#3F6587"/>
<path d="M13.049 8.75684C13.0969 8.78144 13.0969 8.78144 13.1209 8.80604C13.1448 8.83064 13.1688 8.87984 13.1448 8.90444C13.0969 8.92904 13.0729 8.85524 13.0729 8.83064C13.049 8.80604 13.025 8.78144 13.049 8.75684Z" fill="#3F6587"/>
<path d="M13.4572 7.50208C13.4811 7.47747 13.4811 7.45287 13.5051 7.47748C13.529 7.47748 13.529 7.47747 13.553 7.50208C13.577 7.52668 13.6009 7.57588 13.577 7.62508C13.553 7.67429 13.529 7.67429 13.4811 7.62508C13.4332 7.60048 13.4572 7.52668 13.4572 7.50208Z" fill="#3F6587"/>
<path d="M13.8171 7.03481C13.841 6.98561 13.865 6.93641 13.9129 6.91181C13.9369 6.88721 14.0567 6.8626 14.0327 6.93641C14.0327 6.93641 13.9848 6.93641 13.9608 6.93641C13.9369 6.96101 13.9129 6.98561 13.9129 7.01021C13.889 7.01021 13.865 7.03482 13.865 7.05942C13.841 7.05942 13.7931 7.08402 13.8171 7.03481Z" fill="#3F6587"/>
<path d="M13.9841 7.01028C14.0321 6.98567 14.056 6.98567 14.1039 6.98567C14.1279 6.98567 14.1279 6.91187 14.1279 6.91187C14.1519 6.86267 14.1758 6.83807 14.1998 6.81347C14.2477 6.78887 14.2717 6.78886 14.3196 6.78886C14.4155 6.78886 14.4873 6.76426 14.5592 6.81347C14.5832 6.83807 14.5832 6.83807 14.6311 6.81347C14.679 6.81347 14.703 6.81347 14.7509 6.83807C14.7988 6.86267 14.8228 6.88727 14.8707 6.91187C14.8947 6.93647 14.9186 6.96107 14.9666 6.98567C14.9905 7.01027 15.0145 6.98567 15.0624 7.01028C15.1103 7.01028 15.1343 7.03488 15.1822 7.05948C15.2062 7.08408 15.2062 7.08408 15.2062 7.15788C15.2062 7.20708 15.2302 7.23168 15.2541 7.28089C15.2781 7.30549 15.2541 7.33009 15.2781 7.37929C15.302 7.40389 15.326 7.45309 15.326 7.5023C15.35 7.5269 15.35 7.5515 15.3739 7.5761C15.4218 7.6007 15.4458 7.6499 15.4458 7.6745C15.4458 7.77291 15.3739 7.79751 15.302 7.79751C15.2302 7.79751 15.1583 7.77291 15.0864 7.7483C14.9905 7.6991 14.9426 7.6745 14.8707 7.6007C14.8468 7.5761 14.8228 7.5269 14.7988 7.5269C14.7509 7.5023 14.727 7.47769 14.727 7.45309C14.727 7.42849 14.7509 7.35469 14.703 7.35469C14.6551 7.35469 14.6311 7.33009 14.5832 7.33009C14.5113 7.33009 14.4394 7.30549 14.3675 7.30549C14.3436 7.30549 14.2956 7.30549 14.2477 7.33009C14.2477 7.33009 14.2717 7.35469 14.2477 7.37929H14.1998C14.1998 7.5023 14.3196 7.42849 14.3915 7.47769C14.4873 7.5023 14.5592 7.5023 14.6311 7.5269C14.679 7.5515 14.679 7.5515 14.703 7.6007C14.727 7.6253 14.7509 7.6499 14.7988 7.6745C14.8468 7.6991 14.8707 7.6991 14.9186 7.7237C14.9666 7.7237 14.9666 7.77291 14.9186 7.79751C14.8947 7.79751 14.8468 7.79751 14.8468 7.82211C14.8228 7.87131 14.8468 7.89591 14.8468 7.94511C14.8468 7.96971 14.8468 8.01892 14.7988 8.01892C14.7749 7.99432 14.727 7.99431 14.679 7.96971C14.6311 7.94511 14.4634 8.01892 14.4634 7.92051C14.4634 7.87131 14.5113 7.84671 14.5113 7.82211C14.5353 7.77291 14.4873 7.77291 14.4634 7.7483C14.4155 7.7237 14.3915 7.7237 14.3436 7.6991C14.2956 7.6991 14.2477 7.6745 14.2238 7.6253C14.1998 7.6253 14.1758 7.6253 14.1758 7.6007C14.1519 7.5761 14.1519 7.5515 14.1279 7.5269C14.1039 7.47769 14.08 7.45309 14.0321 7.45309C13.9602 7.45309 13.9602 7.40389 13.9362 7.35469C13.9362 7.33009 13.9362 7.30549 13.9362 7.28089C13.9123 7.23168 13.9123 7.25628 13.8883 7.25628C13.8643 7.23168 13.8643 7.23168 13.8643 7.20708C13.8643 7.18248 13.8164 7.15788 13.8164 7.13328C13.8404 7.08408 13.9123 7.13328 13.9123 7.15788C13.9362 7.15788 13.9602 7.10868 13.9602 7.08408C13.9602 7.05948 13.9602 7.03488 13.9841 7.01028Z" fill="#3F6587"/>
<path d="M15.5425 7.23168C15.5904 7.18248 15.6143 7.18248 15.6623 7.20708C15.7102 7.25628 15.7581 7.25628 15.7821 7.28088C15.83 7.33008 15.854 7.35468 15.9019 7.37928C15.9019 7.40388 15.9259 7.42848 15.9019 7.45308C15.8779 7.45308 15.854 7.45308 15.83 7.45308C15.7821 7.45308 15.7581 7.42849 15.7102 7.40388C15.6862 7.37928 15.6862 7.35468 15.6623 7.35468C15.6383 7.33008 15.6143 7.35468 15.5904 7.35468C15.5425 7.37928 15.5185 7.37928 15.4945 7.33008C15.4706 7.30548 15.4706 7.25628 15.4945 7.25628C15.5185 7.25628 15.5425 7.25628 15.5425 7.23168Z" fill="#3F6587"/>
<path d="M13.7441 7.2561C13.7441 7.2315 13.7681 7.1823 13.816 7.2069C13.84 7.2315 13.816 7.2807 13.816 7.32991C13.7681 7.30531 13.7441 7.30531 13.7441 7.2561Z" fill="#3F6587"/>
<path d="M13.625 7.40393C13.625 7.37933 13.649 7.35473 13.6729 7.33012C13.6969 7.30552 13.7688 7.30552 13.7448 7.35473C13.7448 7.37933 13.7208 7.42853 13.6969 7.45313C13.6729 7.50233 13.625 7.45313 13.625 7.40393Z" fill="#3F6587"/>
<path d="M13.8164 7.3791C13.8643 7.3545 13.8882 7.4037 13.8882 7.4529C13.9122 7.50211 13.8882 7.52671 13.8643 7.57591C13.8403 7.57591 13.7924 7.52671 13.7684 7.50211C13.7445 7.47751 13.7924 7.4529 13.7924 7.4529C13.8163 7.4529 13.7924 7.4037 13.7924 7.3791H13.8164Z" fill="#3F6587"/>
<path d="M13.6724 7.52675C13.6964 7.50215 13.7203 7.50215 13.7682 7.52675C13.7922 7.55135 13.7922 7.55135 13.7922 7.60055C13.7682 7.60055 13.7922 7.64976 13.7922 7.64976C13.7922 7.67436 13.8162 7.67436 13.8401 7.67436C13.8641 7.67436 13.8641 7.69896 13.8881 7.72356C13.8881 7.74816 13.912 7.74816 13.936 7.77276C13.936 7.79736 13.912 7.79736 13.912 7.82196C13.8641 7.84656 13.8162 7.82196 13.7682 7.79736C13.7443 7.79736 13.6964 7.79736 13.6484 7.74816C13.6484 7.74816 13.6724 7.67436 13.6724 7.64976C13.6724 7.60055 13.6245 7.55135 13.6724 7.52675Z" fill="#3F6587"/>
<path d="M17.2665 11.7583C17.2186 11.7091 17.1946 11.6353 17.1706 11.5861C17.1706 11.5615 17.0987 11.5369 17.0987 11.5123C17.0508 11.4877 17.0269 11.4877 17.0029 11.4877C16.931 11.4631 16.8831 11.4385 16.8112 11.4139C16.7872 11.4139 16.7633 11.3893 16.7393 11.3893C16.6914 11.3893 16.6674 11.3893 16.6195 11.3893C16.6435 11.3155 16.6435 11.2663 16.6195 11.2171C16.5716 11.1679 16.5476 11.1187 16.4997 11.0941C16.4278 11.0941 16.3799 11.0695 16.332 11.0449C16.308 11.0203 16.284 10.9957 16.284 10.9711C16.2601 10.9465 16.2361 10.9219 16.2122 10.8973C16.1642 10.8727 16.1163 10.8235 16.0684 10.7989C16.0205 10.7743 15.9725 10.7004 15.9246 10.6758C15.9007 10.6758 15.8767 10.6758 15.8527 10.6512C15.8048 10.6512 15.7809 10.602 15.7569 10.6512C15.7329 10.6758 15.685 10.725 15.6131 10.725C15.6371 10.7004 15.661 10.6758 15.685 10.6512C15.709 10.6266 15.709 10.6266 15.709 10.602C15.685 10.602 15.685 10.5774 15.661 10.5774C15.5892 10.6266 15.4933 10.6266 15.4214 10.6512C15.3975 10.6512 15.3735 10.7004 15.3495 10.725C15.3495 10.725 15.3495 10.7004 15.3256 10.725C15.3256 10.725 15.3256 10.725 15.3016 10.725C15.3016 10.7497 15.2777 10.7742 15.2537 10.7742C15.2297 10.7496 15.1818 10.7496 15.1578 10.7496C15.1339 10.7496 15.086 10.7989 15.062 10.7989C15.0141 10.7743 14.9901 10.7742 14.9662 10.7496C14.9422 10.725 14.9422 10.6512 14.9662 10.6266C14.9662 10.5528 14.9901 10.4544 14.8943 10.4544C14.8224 10.4544 14.7265 10.5282 14.6786 10.4544C14.6547 10.3806 14.7984 10.3068 14.7026 10.2576C14.6307 10.2084 14.5588 10.2822 14.4869 10.3068C14.463 10.3314 14.415 10.3314 14.3911 10.3068C14.3671 10.2822 14.3431 10.233 14.3192 10.2084C14.2952 10.1592 14.2952 10.1592 14.2713 10.0854C14.2713 10.0362 14.2952 10.0362 14.3192 9.98702C14.3192 9.96242 14.3192 9.91321 14.3671 9.86401C14.3911 9.83941 14.415 9.86401 14.463 9.86401C14.4869 9.86401 14.5348 9.83941 14.5588 9.83941C14.6067 9.81481 14.6307 9.81481 14.6786 9.79021C14.7265 9.79021 14.7505 9.76561 14.7984 9.76561C14.8463 9.79021 14.8703 9.81481 14.8943 9.86401C14.9182 9.88861 14.8943 9.91321 14.8943 9.96242C14.8943 9.98702 14.9422 10.0608 14.9662 10.0116C15.038 9.93781 15.038 9.86401 14.9901 9.79021C14.9901 9.76561 14.9662 9.74101 14.9662 9.7164C14.9662 9.6672 14.9662 9.6426 14.9901 9.618C15.038 9.5442 15.086 9.49499 15.1339 9.44579C15.1578 9.39659 15.1578 9.29819 15.1578 9.24899C15.1818 9.19978 15.1818 9.10138 15.2537 9.07678C15.3256 9.02758 15.2777 8.95377 15.3256 8.90457C15.3495 8.85537 15.3975 8.80617 15.4454 8.73236C15.4693 8.70776 15.4693 8.70776 15.4693 8.65856C15.4693 8.63396 15.3975 8.63396 15.4214 8.58476C15.4454 8.58476 15.4693 8.58476 15.4693 8.58476C15.4933 8.56016 15.4693 8.56016 15.4454 8.53556C15.4214 8.53556 15.3735 8.56015 15.3495 8.56015C15.3735 8.58476 15.3975 8.58476 15.3975 8.63396C15.3735 8.65856 15.3495 8.68316 15.3256 8.65856C15.3016 8.60936 15.3256 8.60936 15.2777 8.60936C15.2537 8.58476 15.2058 8.60936 15.1818 8.60936C15.2058 8.58476 15.2297 8.53556 15.2537 8.53556C15.3016 8.53556 15.3256 8.51095 15.3735 8.51095C15.4454 8.51095 15.5412 8.48635 15.5412 8.41255C15.5652 8.36335 15.5173 8.33875 15.4933 8.31414C15.4933 8.28954 15.4693 8.26494 15.4693 8.26494C15.4454 8.26494 15.4214 8.28954 15.3975 8.28954C15.3495 8.28954 15.2537 8.24034 15.1818 8.21574C15.086 8.19114 15.062 8.16654 14.9901 8.09274C14.9901 8.06813 14.9662 8.01893 14.9182 8.04353C14.8943 8.06813 14.8703 8.06813 14.8224 8.04353C14.7505 8.01893 14.6786 7.99433 14.6067 8.01893C14.5588 8.01893 14.5348 8.01893 14.5348 8.06813C14.5109 8.14194 14.5348 8.14194 14.5828 8.16654C14.6067 8.19114 14.5828 8.21574 14.6067 8.24034C14.6307 8.26494 14.6786 8.28954 14.6786 8.31414C14.6786 8.38795 14.7026 8.46175 14.7026 8.53556C14.6547 8.51095 14.6307 8.46175 14.5828 8.46175C14.5109 8.43715 14.4869 8.46175 14.439 8.41255C14.3911 8.38795 14.3431 8.36335 14.2952 8.36335C14.2952 8.33875 14.2473 8.36335 14.2473 8.33875C14.2233 8.31414 14.1994 8.28954 14.1994 8.28954C14.1515 8.24034 14.1515 8.21574 14.1994 8.19114C14.2233 8.14194 14.2713 8.11734 14.2952 8.06813C14.2952 8.04353 14.2473 7.94513 14.2713 7.94513C14.2952 7.92053 14.3431 7.89593 14.3911 7.87133C14.3671 7.82213 14.2713 7.77292 14.2233 7.74832C14.1754 7.72372 14.1515 7.69912 14.1275 7.67452C14.0796 7.64992 14.0796 7.60071 14.0316 7.60071C14.0077 7.57611 13.9837 7.57611 13.9598 7.62532C13.9598 7.64992 13.9837 7.69912 13.9837 7.72372C14.0077 7.77292 14.0556 7.79752 14.0316 7.84672C13.9837 7.89593 13.9598 7.87133 13.9118 7.89593C13.816 7.89593 13.7681 7.89593 13.6962 7.87133C13.6483 7.84673 13.6243 7.82212 13.5764 7.79752C13.5524 7.77292 13.5285 7.74832 13.4805 7.74832C13.4086 7.72372 13.3368 7.74832 13.2649 7.69912C13.193 7.67452 13.1211 7.62531 13.0492 7.60071C13.0253 7.57611 13.0013 7.55151 12.9773 7.55151C12.9773 7.52691 12.9534 7.50231 12.9294 7.50231C12.8815 7.47771 12.8096 7.52691 12.7377 7.55151C12.6898 7.57611 12.6179 7.57611 12.5939 7.60071C12.57 7.62531 12.546 7.67452 12.546 7.69912C12.546 7.72372 12.5221 7.72372 12.4981 7.72372C12.4262 7.74832 12.4502 7.72372 12.4502 7.77292C12.4262 7.79752 12.4023 7.82212 12.4023 7.82212C12.3543 7.87133 12.3543 7.94513 12.3783 7.99433C12.4023 8.04353 12.4023 8.04353 12.3783 8.06813C12.3543 8.11734 12.3543 8.11734 12.3064 8.09274C12.2585 8.09274 12.1866 8.06813 12.1387 8.11734C12.1626 8.14194 12.1866 8.16654 12.1866 8.16654C12.1866 8.16654 12.2106 8.16654 12.2345 8.16654C12.2585 8.19114 12.3064 8.19114 12.3543 8.19114C12.4023 8.16654 12.4023 8.14194 12.4502 8.16654C12.4741 8.19114 12.5221 8.16654 12.546 8.16654C12.6419 8.14194 12.7138 8.14194 12.8096 8.16654C12.8815 8.16654 12.9294 8.26494 12.9534 8.31414C13.0253 8.46175 13.0732 8.60936 13.1451 8.75696C13.1451 8.78157 13.169 8.78157 13.169 8.78157C13.169 8.80617 13.193 8.83077 13.193 8.85537C13.193 8.87997 13.193 8.92917 13.193 8.97837C13.169 9.07678 13.169 9.15058 13.169 9.24899C13.169 9.27359 13.169 9.32279 13.193 9.34739C13.193 9.37199 13.2409 9.42119 13.2409 9.44579C13.2649 9.49499 13.2888 9.5442 13.3128 9.5688C13.3368 9.618 13.3607 9.6426 13.3847 9.6672C13.4086 9.76561 13.4326 9.81481 13.4805 9.88861C13.5285 9.96242 13.5524 10.0362 13.6243 10.0854C13.6722 10.11 13.6243 10.0116 13.6243 9.98702C13.6003 9.96242 13.5764 9.93781 13.5764 9.88861C13.6003 9.83941 13.5764 9.83941 13.5524 9.79021C13.5285 9.76561 13.4805 9.74101 13.4566 9.6918C13.4326 9.6426 13.4566 9.618 13.5045 9.6426C13.5285 9.6426 13.5524 9.6918 13.5524 9.7164C13.5764 9.76561 13.6003 9.79021 13.6003 9.81481C13.6243 9.86401 13.6483 9.88861 13.6722 9.93781C13.6962 9.96242 13.7201 9.96242 13.7441 10.0116C13.7441 10.0362 13.7681 10.0854 13.792 10.11C13.816 10.1346 13.8639 10.11 13.8879 10.1592C13.9118 10.1838 13.9118 10.233 13.9358 10.2576C14.0077 10.4052 14.1275 10.5528 14.2713 10.5528C14.3192 10.5528 14.3671 10.5282 14.3911 10.5528C14.439 10.5528 14.463 10.5774 14.5109 10.602C14.5588 10.6512 14.6307 10.7004 14.7026 10.725C14.7265 10.725 14.7745 10.7004 14.7984 10.725C14.8463 10.7497 14.8463 10.7989 14.8703 10.8235C14.8943 10.8481 14.9422 10.8727 14.9662 10.8727C14.9901 10.8727 15.0141 10.8727 15.0141 10.8727C15.038 10.8973 15.038 10.9219 15.062 10.9465C15.086 10.9711 15.086 10.8973 15.1099 10.8727C15.1339 10.8235 15.1578 10.8235 15.2058 10.8481C15.2537 10.8973 15.3016 10.9957 15.2777 11.0695C15.2537 11.0941 15.2297 11.1187 15.2058 11.1679C15.1818 11.1925 15.1818 11.2417 15.1578 11.2909C15.1339 11.3401 15.1578 11.4631 15.1578 11.5123C15.1818 11.5369 15.1818 11.5861 15.1818 11.6353C15.1818 11.6845 15.2058 11.7091 15.2058 11.7583C15.2537 11.8321 15.2297 11.9059 15.2537 11.9797C15.2537 12.0289 15.2297 12.0781 15.2297 12.1027C15.2537 12.1273 15.2777 12.1765 15.3016 12.2011C15.3256 12.2503 15.3495 12.2749 15.3975 12.2995C15.3975 12.3241 15.3975 12.3979 15.3975 12.4225C15.3975 12.4471 15.3975 12.4717 15.3735 12.4963C15.3735 12.5209 15.3495 12.5455 15.3495 12.5701C15.3495 12.6439 15.3256 12.6931 15.3016 12.7423C15.3016 12.7669 15.2777 12.7915 15.2777 12.8161L15.2297 12.8407C15.2297 12.8899 15.2058 12.9145 15.2058 12.9391C15.1818 12.9637 15.1578 12.9883 15.1578 13.0129C15.1578 13.0375 15.1578 13.0621 15.1578 13.0867C15.1578 13.1359 15.1578 13.1113 15.1339 13.1359C15.1099 13.1852 15.086 13.2344 15.062 13.2836C15.0141 13.3328 14.9901 13.382 14.9662 13.4312C14.9662 13.4804 14.9182 13.5296 14.8943 13.5788C14.9182 13.5788 14.9422 13.6034 14.9182 13.628C14.9182 13.6526 14.8703 13.6526 14.8463 13.6772C14.8224 13.7018 14.7505 13.7264 14.7505 13.7756C14.7265 13.8248 14.7745 13.9232 14.7265 13.9478C14.7026 13.9724 14.6547 14.0462 14.7265 14.0708C14.6786 14.12 14.6307 14.1692 14.7026 14.243C14.7026 14.243 14.7505 14.2676 14.7505 14.2922C14.7745 14.3168 14.7505 14.366 14.7505 14.3906C14.7984 14.3906 14.7984 14.366 14.8224 14.366C14.8463 14.3906 14.8463 14.3906 14.8703 14.3906C14.8703 14.4152 14.9182 14.4152 14.9182 14.4152C14.9422 14.3906 14.9422 14.3906 14.9182 14.366C14.9182 14.3414 14.9182 14.3414 14.9182 14.3168C14.9182 14.2922 14.9182 14.2676 14.9182 14.2676C14.8943 14.1938 14.8703 14.2922 14.8463 14.243C14.8463 14.2184 14.8463 14.2184 14.8703 14.1938C14.8943 14.1692 14.8943 14.1938 14.9182 14.1692C14.9662 14.1692 14.9662 14.1446 14.9901 14.0954C15.038 14.0216 15.062 13.9478 15.1099 13.8986C15.1578 13.8002 15.2058 13.751 15.2777 13.6772C15.3495 13.628 15.3975 13.5788 15.4454 13.5542C15.5173 13.5296 15.6131 13.505 15.685 13.4558C15.7329 13.4066 15.7809 13.3574 15.8527 13.2836C15.9007 13.2344 15.9965 13.2098 16.0444 13.1606C16.0924 13.136 16.1163 13.1359 16.1642 13.1113C16.2122 13.1113 16.2361 13.0867 16.2601 13.0621C16.332 13.0129 16.3799 12.9883 16.4518 12.9391C16.4997 12.8899 16.5476 12.8161 16.5956 12.7915C16.6674 12.7669 16.7154 12.7423 16.7633 12.6931C16.8112 12.6439 16.8831 12.5947 16.9071 12.5209C16.931 12.4717 16.931 12.4471 16.9789 12.4225C16.9789 12.3979 16.9789 12.3487 17.0029 12.3241C17.0269 12.2503 17.0748 12.2011 17.1227 12.1273C17.1706 12.0781 17.1946 12.0289 17.2425 11.9551C17.2425 11.9305 17.2665 11.8813 17.2904 11.8567C17.3144 11.8321 17.2904 11.8075 17.2665 11.7583ZM14.9901 8.87997C15.0141 8.85537 15.038 8.87997 15.062 8.85537C15.086 8.83077 15.1099 8.85537 15.1099 8.87997C15.1339 8.90457 14.9901 8.90457 14.9662 8.90457L14.9901 8.87997ZM14.7505 8.85537C14.7984 8.85537 14.7984 8.85537 14.8463 8.87997C14.8703 8.90457 14.9422 8.92917 14.8943 8.95377C14.8703 8.95377 14.8224 8.92917 14.7984 8.92917C14.7745 8.90457 14.6786 8.85537 14.7505 8.85537ZM14.7026 8.87997C14.6786 8.90457 14.6067 9.05218 14.5588 9.02757C14.5588 9.00297 14.5828 9.00297 14.5828 8.97837C14.5828 8.95377 14.6067 8.92917 14.6067 8.90457C14.6067 8.85537 14.6786 8.83077 14.7026 8.87997ZM14.463 8.75696C14.4869 8.75696 14.5348 8.75696 14.5828 8.73236C14.6067 8.70776 14.5109 8.68316 14.5348 8.63396C14.5588 8.60936 14.6307 8.68316 14.6547 8.68316C14.6786 8.70776 14.6786 8.75696 14.7026 8.80617C14.6547 8.80617 14.6067 8.80617 14.5588 8.80617C14.5348 8.80617 14.439 8.80617 14.463 8.75696Z" fill="#3F6587"/>
<path d="M15.5408 8.73201C15.5408 8.75661 15.5168 8.78121 15.4928 8.80581C15.4449 8.80581 15.4689 8.75661 15.4689 8.73201C15.4928 8.7074 15.5168 8.6582 15.5408 8.6582C15.5887 8.6582 15.5887 8.7074 15.5408 8.73201Z" fill="#3F6587"/>
<path d="M15.5662 8.41235C15.5901 8.41235 15.6141 8.36315 15.6381 8.38775C15.662 8.41235 15.6141 8.43695 15.6141 8.46155C15.6381 8.48615 15.7339 8.46155 15.7339 8.51075C15.7579 8.53536 15.7339 8.58456 15.7099 8.58456C15.686 8.58456 15.662 8.55996 15.662 8.53536C15.6381 8.51075 15.5422 8.60916 15.5182 8.55995C15.4943 8.51075 15.5422 8.43695 15.5662 8.41235Z" fill="#3F6587"/>
<path d="M15.0152 10.1589C15.0871 10.1835 15.159 10.2327 15.2309 10.2327C15.2549 10.2327 15.2788 10.2573 15.2788 10.2819C15.2788 10.3065 15.2069 10.3065 15.183 10.3065C15.1111 10.2819 15.0632 10.2573 14.9913 10.2081C14.9673 10.2081 14.9434 10.1835 14.9434 10.1343C14.9434 10.1097 15.0152 10.1589 15.0152 10.1589Z" fill="#3F6587"/>
<path d="M15.5173 10.2821C15.5652 10.2821 15.6371 10.2575 15.661 10.3313C15.661 10.3805 15.6131 10.3313 15.6131 10.3313C15.5892 10.3313 15.5412 10.3313 15.5173 10.3313C15.4933 10.3313 15.4694 10.3313 15.4454 10.3067C15.4214 10.3067 15.4214 10.2821 15.3975 10.2575C15.3735 10.2329 15.4454 10.2329 15.4454 10.2329C15.4933 10.2329 15.4933 10.2329 15.5173 10.2821Z" fill="#3F6587"/>
<path d="M15.7324 10.3559C15.7564 10.3313 15.7564 10.3313 15.8043 10.3559C15.8043 10.3559 15.8283 10.3805 15.8283 10.4051C15.8283 10.4297 15.7564 10.3805 15.7324 10.3805C15.7324 10.3559 15.7324 10.3559 15.7324 10.3559Z" fill="#3F6587"/>
<path d="M14.3682 7.94482C14.4162 7.96943 14.4401 7.96943 14.4641 7.99403C14.4641 8.04323 14.4641 8.06783 14.4162 8.04323C14.3682 8.04323 14.3443 8.01863 14.3203 7.99403C14.3203 7.96943 14.3203 7.94482 14.3203 7.94482H14.3682Z" fill="#3F6587"/>
<path d="M17.2668 4.77148L17.2908 4.79609L17.1231 4.82069L17.147 4.77148H17.2668Z" fill="#3F6587"/>
<path d="M0.92426 8.26465L1.04407 8.28925L0.996145 8.48606L2.43385 8.85507L2.50573 8.65827L2.62554 8.70747L2.36196 9.83912L2.21819 9.81452L2.26612 9.59311L0.828413 9.19949L0.780489 9.4209L0.636719 9.3963L0.92426 8.26465Z" fill="#3F6587"/>
<path d="M1.38039 7.01025L1.04492 7.84669L1.16473 7.92049L1.26058 7.69908L2.65036 8.26491L2.57847 8.46172L2.69828 8.51092L2.91394 7.9451L2.79413 7.87129L2.69828 8.0681L1.76377 7.69908L3.08167 7.52688L3.39317 6.93645L1.95547 6.12462L2.07528 5.92781L1.95547 5.854L1.64397 6.41983L1.76377 6.49363L1.88358 6.29682L2.77017 6.81345L1.38039 7.01025Z" fill="#3F6587"/>
<path d="M2.07422 5.65695C2.12214 5.50934 3.22438 4.05788 3.36815 3.95947L3.67966 4.25469L3.55985 4.37769L3.44004 4.27929C3.44004 4.27929 3.20042 4.40229 3.03269 4.5991L4.11097 5.48474V5.82915L3.75154 6.34578L3.63173 6.27197L3.75154 6.09977L2.60138 5.16492C2.60138 5.16492 2.43364 5.46014 2.38572 5.65695L2.50553 5.77995L2.43364 5.87835L2.07422 5.65695Z" fill="#3F6587"/>
<path d="M3.51367 3.81216C3.53763 3.73835 4.83157 2.5575 4.97534 2.5083L5.21496 2.85272L5.11911 2.95112L4.9993 2.80351C4.9993 2.80351 4.66384 2.90192 4.30441 3.24633L4.73572 3.73836C4.73572 3.73836 4.97534 3.61535 4.95138 3.54154L4.85553 3.44314L4.95138 3.34474L5.26288 3.73836L5.16703 3.81216L5.04722 3.68915L4.85553 3.86136C4.85553 3.86136 4.85553 3.88596 4.85553 3.91056C4.87949 3.91056 5.28684 4.37798 5.28684 4.37798C5.28684 4.37798 5.28684 4.37798 5.3108 4.35338C5.35873 4.32878 5.69419 3.98437 5.71815 3.86136C5.71815 3.86136 5.69419 3.81216 5.64627 3.76296C5.59834 3.71375 5.6223 3.71375 5.6223 3.71375L5.74211 3.61535L6.00569 4.00897L5.16703 4.6978H4.59195L3.75329 3.73836L3.60952 3.91056L3.51367 3.81216Z" fill="#3F6587"/>
<path d="M7.9698 1.17978L7.92188 1.03217L8.71261 0.810765L9.719 1.77021L9.62316 0.786164L9.4075 0.810765L9.38354 0.68776L10.0065 0.589355L10.0305 0.736962L9.81485 0.786164L10.0065 2.43444L9.45543 2.50824L8.47299 1.5488L8.73657 2.53284L8.90431 2.48364L8.92827 2.63124L8.40111 2.77885L8.35319 2.65585L8.54488 2.60664L8.13753 1.13058L7.9698 1.17978Z" fill="#3F6587"/>
<path d="M12.3792 2.31132L11.7083 0.56464L11.1332 0.540039L10.3904 2.23751L10.2227 2.26211L10.2466 2.40972C10.3185 2.38512 10.7977 2.38512 10.7977 2.38512L10.7738 2.21291H10.63L10.7738 1.84389L11.4447 1.81929L11.6124 2.21291L11.4207 2.23751L11.4447 2.38512C11.5885 2.36052 12.5469 2.48352 12.5469 2.48352V2.33592L12.3792 2.31132ZM10.8457 1.69629L11.1572 1.03206L11.3968 1.69629H10.8457Z" fill="#3F6587"/>
<path d="M12.666 1.10563C12.666 1.10563 12.7379 0.736613 12.7619 0.687411C12.7619 0.66281 13.9839 0.884221 14.7028 1.20403L14.583 1.62225L14.4152 1.57305L14.4631 1.40084C14.4631 1.40084 14.1037 1.17943 14.0558 1.17943C14.0558 1.17943 13.6964 2.58169 13.6964 2.6063L13.8881 2.6801L13.8641 2.8277C13.8641 2.8277 12.8577 2.50789 12.7379 2.50789L12.7619 2.38489L12.9775 2.40949L13.3369 1.00723L12.8577 0.982625L12.8098 1.13023L12.666 1.10563Z" fill="#3F6587"/>
<path d="M14.9674 1.30273C14.9674 1.30273 15.9978 1.77016 15.9978 1.79476C16.0217 1.81936 15.9499 1.94236 15.9499 1.94236L15.7582 1.84396L15.1352 3.19702L15.3268 3.32002L15.255 3.44303C15.255 3.44303 14.3205 2.951 14.2246 2.951L14.2486 2.828L14.4642 2.9018L15.0872 1.52414L14.8955 1.40114L14.9674 1.30273Z" fill="#3F6587"/>
<path d="M17.6031 2.87737L16.8603 2.33614C16.0456 2.04093 15.7101 2.53295 15.6143 2.92657C15.4945 3.46779 15.8539 3.73841 15.8539 3.73841C15.8539 3.73841 16.3571 4.20583 16.4769 4.25503C16.9082 4.50104 17.4594 4.37803 17.699 3.98442C18.0584 3.36939 17.6031 2.87737 17.6031 2.87737ZM17.2916 3.00037C17.2437 3.17258 17.1958 3.32019 16.7645 3.86141C16.7645 3.86141 16.5967 4.10742 16.3811 4.00902C16.3811 4.00902 16.2373 3.91061 16.2133 3.88601C16.1654 3.83681 16.1175 3.78761 16.1175 3.6892C16.1415 3.5908 16.1175 3.517 16.2133 3.39399C16.2852 3.27099 16.5967 2.80357 16.5967 2.80357C16.5967 2.80357 16.7405 2.60676 16.8363 2.60676C16.9082 2.60676 16.9801 2.60676 17.028 2.63136C17.076 2.63136 17.1479 2.70516 17.1479 2.70516C17.1479 2.70516 17.3395 2.80357 17.2916 3.00037Z" fill="#3F6587"/>
<path d="M17.4102 4.79586L17.4341 4.77126H17.6977L17.6498 4.79586H17.4102ZM17.506 4.69745L18.3926 3.78721L18.2488 3.61501L18.3447 3.5166L18.9437 4.15623L18.7999 5.41089L19.399 4.94347L19.2792 4.77126L19.399 4.67285L19.7824 5.21408L19.6626 5.31248L19.5427 5.14028L18.2249 6.09972L18.0332 5.85371V5.6815L18.1769 4.27924L17.7696 4.69745H17.506Z" fill="#3F6587"/>
<path d="M20.6221 6.73935L20.3106 6.14893L18.5614 6.37033L18.4415 6.19813L18.3457 6.27193L18.6572 6.76395L18.7531 6.69015L18.6812 6.51794L19.0646 6.46874L19.4 7.10837L19.1364 7.40358L18.9687 7.08377L18.8489 7.13297L19.3761 8.38762L19.4959 8.33842L19.4719 8.16621L20.6221 6.73935ZM19.2323 6.44414V6.46874L19.9991 6.37033L19.4959 6.96076L19.2323 6.44414Z" fill="#3F6587"/>
<path d="M21.1001 8.3878L21.0522 8.14179L21.172 8.11719L21.4835 9.29804L21.3397 9.34724L21.2678 9.10123L19.8541 9.47025C19.8541 9.47025 19.926 9.98687 20.0458 10.0361H20.2614V10.2083L19.8301 10.2821C19.8301 10.2821 19.5665 8.68301 19.4707 8.58461L19.5666 8.53541L19.6624 8.75682L21.1001 8.3878Z" fill="#3F6587"/>
<path d="M3.48792 16.3339L3.08056 15.5713C2.45756 15.03 1.95436 15.3745 1.73871 15.6697C1.4272 16.1125 1.6189 16.4815 1.6189 16.4815C1.6189 16.4815 1.90644 17.0719 1.97832 17.1703C2.26587 17.564 2.84095 17.564 3.17641 17.3179C3.63169 16.9489 3.48792 16.3339 3.48792 16.3339ZM3.20037 16.3831C3.17641 16.4077 2.86491 16.6537 2.36171 16.9243C2.36171 16.9243 2.14606 17.0473 2.00229 16.8997C2.00229 16.8997 1.88248 16.7767 1.88248 16.7275C1.85852 16.6783 1.83455 16.6291 1.88248 16.5307C1.9304 16.4569 1.9304 16.3831 2.05021 16.3093C2.17002 16.2355 2.64925 15.9403 2.64925 15.9403C2.64925 15.9403 2.86491 15.8173 2.93679 15.8665C3.03264 15.8911 3.08056 15.9157 3.10453 15.9403C3.15245 15.9895 3.17641 16.0633 3.17641 16.0633C3.17641 16.0633 3.32018 16.2355 3.20037 16.3831Z" fill="#3F6587"/>
<path d="M2.14698 12.8898L2.12302 12.6437L2.26679 12.6191C2.26679 12.6191 2.3866 13.5048 2.41056 13.554C2.45848 13.5786 1.64378 14.1198 1.64378 14.1198L2.57829 14.2428L2.88979 15.0546L2.76998 15.1285L2.65018 14.8824L1.26039 15.3991L1.33228 15.6205L1.21247 15.6697L0.829081 14.538L0.948891 14.4888L1.04474 14.7102L1.97925 14.3412L0.757197 14.2182L0.66135 13.8492L1.71567 13.1604L0.709272 13.3326L0.757197 13.5294L0.637387 13.5786L0.517578 12.939L0.637387 12.9144L0.685311 13.1358L2.14698 12.8898Z" fill="#3F6587"/>
<path d="M2.69717 18.0559L2.5534 17.859L2.43359 17.9328L2.84094 18.4741L2.93679 18.4003L2.79302 18.2035L3.60772 17.5638L3.29622 19.0153L3.75149 19.4827L4.87769 18.2773L4.9975 18.4003L5.06939 18.2773L4.70996 17.9082L4.61411 18.0066L4.73392 18.1543L4.01507 18.8923L4.32657 17.4408L3.8713 16.875L3.75149 16.9734L3.8713 17.0964L2.69717 18.0559Z" fill="#3F6587"/>
<path d="M5.33338 19.7536L4.8781 20.2703C4.8781 20.2703 5.18961 20.5409 5.47715 20.6147L5.59696 20.4179L5.74073 20.5163L5.50111 20.8853C5.50111 20.8853 4.2551 19.975 4.11133 19.8028L4.18321 19.7044L4.32698 19.8274L5.26149 18.622L5.14168 18.499L5.21357 18.376C5.21357 18.376 5.90846 19.0156 6.48354 19.36L6.24392 19.7536L6.12411 19.6798L6.21996 19.483C6.21996 19.483 6.00431 19.1386 5.81261 19.0648L5.40526 19.606L5.59696 19.7536L5.6928 19.6552L5.81261 19.729L5.57299 20.1227L5.45319 20.0735L5.54903 19.9012L5.33338 19.7536Z" fill="#3F6587"/>
<path d="M6.43636 19.8272L6.62805 19.4336C6.62805 19.4336 7.73029 20.0486 8.32934 20.2208L8.20953 20.639L8.0418 20.5898L8.08972 20.4176C8.08972 20.4176 7.75425 20.1716 7.73029 20.147L7.13125 21.5493L7.32294 21.6231L7.27502 21.7461L6.2207 21.2787L6.26863 21.1557L6.48428 21.2541L7.05936 19.8518C7.05936 19.8518 6.74786 19.7534 6.65201 19.8026L6.55617 19.901L6.43636 19.8272Z" fill="#3F6587"/>
<path d="M8.61748 22.1644C8.71333 22.189 9.81557 22.3858 9.81557 22.3858V22.2382H9.69576L9.3603 20.4915L8.71333 20.3193L7.65901 21.7216L7.49128 21.697L7.44336 21.7954L7.94656 21.9922L8.01844 21.8938L7.85071 21.82L8.09033 21.5002L8.8571 21.697L8.90503 22.0906L8.61748 22.066V22.1644ZM8.18617 21.3526L8.66541 20.7868L8.83314 21.5494L8.18617 21.3526Z" fill="#3F6587"/>
<path d="M8.1366 2.70481L8.11264 2.72941C8.11264 2.72941 8.04076 2.75401 7.99283 2.75401C7.96887 2.75401 7.89699 2.70481 7.87303 2.68021C7.87303 2.65561 7.77718 2.4588 7.75321 2.4342C7.72925 2.4342 7.60945 2.28659 7.48964 2.31119C7.36983 2.33579 7.29794 2.31119 7.29794 2.31119C7.75322 1.91758 7.34587 1.35175 6.96248 1.40095C6.62701 1.45016 5.28516 2.31119 5.28516 2.31119L5.381 2.4096L5.54874 2.31119L6.26759 3.63965L6.09986 3.76266L6.1957 3.86106L7.13021 3.31984L7.05832 3.17223C7.05832 3.17223 6.98644 3.24603 6.93852 3.24603C6.89059 3.27063 6.89059 3.24603 6.89059 3.24603L6.57909 2.65561L6.84267 2.5326C6.84267 2.5326 6.93852 2.508 6.98644 2.4834C7.0104 2.4834 7.05832 2.5326 7.05832 2.5326C7.05832 2.5326 7.27398 2.95082 7.3219 3.02462C7.34587 3.07383 7.44171 3.07383 7.46568 3.07383C7.48964 3.09843 7.72926 3.02462 7.72926 3.02462L8.18453 2.85242L8.1366 2.70481ZM6.84267 2.33579C6.81871 2.385 6.50721 2.5326 6.50721 2.5326L6.17174 1.91758L6.53117 1.74537C6.53117 1.74537 6.62701 1.72077 6.67494 1.76997C6.72286 1.81917 6.91456 2.21279 6.91456 2.21279C6.91456 2.21279 6.89059 2.31119 6.84267 2.33579Z" fill="#3F6587"/>
<path d="M12.2831 22.2381L12.2591 22.2627C12.2591 22.2627 12.1154 22.2627 12.0675 22.2135C12.0675 22.1889 12.0675 22.1889 12.0435 22.1889C12.0675 22.1889 12.0675 22.1643 12.0435 22.0659C12.0435 21.8199 11.7799 21.6231 11.7799 21.6231C11.7799 21.6231 12.1393 21.4263 12.1393 21.1311C12.1393 20.8359 11.8758 20.6636 11.8039 20.6636C11.732 20.639 11.5882 20.639 11.5882 20.639C11.1569 20.6883 10.0547 20.5898 10.0547 20.5898L10.0786 20.7375L10.2464 20.7621L10.1745 22.2627H10.0067C10.0067 22.2627 9.98278 22.4103 10.0067 22.4103C10.0307 22.4103 11.0611 22.4595 11.0611 22.4595L11.0371 22.3119H10.8933L10.9173 21.6231C10.9173 21.6231 11.2288 21.6231 11.2528 21.6231C11.2767 21.5985 11.3486 21.7461 11.3486 21.7461C11.3486 21.7461 11.3726 22.2627 11.3726 22.2873C11.3726 22.3119 11.4924 22.4103 11.5403 22.4349C11.5882 22.4349 12.331 22.3857 12.331 22.3857L12.2831 22.2381ZM11.3726 21.3771C11.3726 21.3771 11.3726 21.4509 11.3246 21.4755C11.2767 21.4755 10.9413 21.4755 10.9413 21.4755L10.9892 20.7867H11.3246C11.3246 20.7867 11.3726 20.8359 11.3965 20.8605C11.3965 20.9097 11.3726 21.3771 11.3726 21.3771Z" fill="#3F6587"/>
<path d="M12.1621 20.5655L13.3123 20.3687C13.3123 20.3687 13.3602 20.4671 13.3602 20.4917C13.3602 20.5163 13.1925 20.4917 13.2164 20.5409C13.2164 20.5655 13.7675 20.9837 13.7675 20.9837C13.7675 20.9837 14.103 20.3441 14.079 20.2457L13.9353 20.2949L13.8874 20.1719L14.4145 19.9751L14.4864 20.0735L14.3187 20.1719L13.9113 21.1805L14.079 21.8448L14.2707 21.8202L14.3187 21.9432L13.2164 22.2138L13.1685 22.1154L13.3842 22.0416L13.2164 21.3774L12.3298 20.6885L12.1861 20.7131L12.1621 20.5655Z" fill="#3F6587"/>
<path d="M15.3496 19.5077C15.3496 19.5077 16.5237 18.8188 16.7394 18.499L17.0269 18.868L16.9071 18.991L16.7633 18.8434C16.7633 18.8434 16.38 18.9418 16.2122 19.114L16.5717 19.7045L16.7873 19.5323L16.7154 19.3847L16.8592 19.2863L17.1467 19.6553L17.003 19.7783L16.9071 19.6553L16.6675 19.8275L17.003 20.3933L17.1707 20.2703L17.2665 20.3933L16.3081 21.0575L16.2122 20.9345L16.38 20.8115L15.6132 19.5077L15.3975 19.6061L15.3496 19.5077Z" fill="#3F6587"/>
<path d="M16.9082 18.4004L17.6271 17.6131L17.7469 17.7362L17.6271 17.8592L18.4178 18.6956C18.4178 18.6956 18.6095 18.8186 18.7772 18.6956C18.945 18.5972 19.0648 18.4988 19.0168 18.2774C18.9689 18.0806 18.921 18.0806 18.8731 18.0314C18.8012 17.9822 18.0823 17.3179 18.0823 17.3179L17.9625 17.4901L17.8427 17.3671L18.1782 16.9243L18.298 17.0227L18.2021 17.1703L19.0168 17.8838C19.0168 17.8838 19.2085 18.179 19.2085 18.3512C19.1846 18.5234 19.1606 18.6218 19.1367 18.6464C19.0887 18.6956 18.6095 19.2122 18.6095 19.2122C18.6095 19.2122 18.3699 19.3598 18.2501 19.3598C18.1542 19.3598 17.9625 19.286 17.9146 19.2122C17.8427 19.163 17.0999 18.3758 17.0999 18.3758L16.9801 18.4988L16.9082 18.4004Z" fill="#3F6587"/>
<path d="M18.3927 16.8506L18.2969 16.7768L18.6323 16.1863L20.0701 15.8911L19.2074 15.4483L19.1116 15.6205L18.9918 15.5467L19.2314 15.0547L19.3512 15.1039L19.2793 15.2761L20.741 15.9895L20.4774 16.58L19.0637 16.826L19.8304 17.4164L19.9502 17.195L20.0701 17.2688L19.7106 17.81L19.6148 17.7362L19.7346 17.5394L18.5125 16.703L18.3927 16.8506Z" fill="#3F6587"/>
<path d="M20.6446 13.0375C19.9976 12.8899 19.7101 13.5049 19.7101 13.5049L19.3027 14.8826L19.4225 14.9318L19.4944 14.735L20.8842 15.227L20.8123 15.473L20.9561 15.5222C20.9561 15.5222 21.3874 14.243 21.3874 13.9478C21.4114 13.6526 21.1957 13.1605 20.6446 13.0375ZM21.2197 14.1692L21.1238 14.5382C21.1238 14.5382 19.7101 14.0708 19.7101 14.0462C19.7101 14.0462 19.734 13.874 19.758 13.751C19.8059 13.6279 19.9257 13.6771 19.9257 13.6771C19.9257 13.6771 20.9801 13.9724 21.1238 14.0216C21.2676 14.0462 21.2197 14.1692 21.2197 14.1692Z" fill="#3F6587"/>
<path d="M1.1644 11.1921L1.3561 10.6509L1.49987 11.1921H2.05099L1.59571 11.5365L1.76345 12.0777L1.33213 11.7333L0.852899 12.1023L1.04459 11.5365L0.613281 11.1921H1.1644Z" fill="#3F6587"/>
<path d="M20.598 11.3401L20.7897 10.7988L20.9335 11.3401H21.4846L21.0293 11.6845L21.221 12.2257L20.7657 11.8813L20.2865 12.2503L20.4782 11.6845L20.0469 11.3401H20.598Z" fill="#3F6587"/>
</svg>
