<svg width="162" height="30" viewBox="0 0 162 30" fill="none" xmlns="http://www.w3.org/2000/svg">
<g clip-path="url(#clip0_5842_137072)">
<path d="M161.466 18.6415C161.292 18.6764 161.222 18.8161 161.152 18.9208C160.069 20.0034 159.022 21.051 157.939 22.1336C157.834 22.2384 157.73 22.3431 157.625 22.4479C157.485 22.2733 157.555 22.1336 157.555 21.959C157.555 18.4319 157.555 14.9049 157.555 11.3779C157.555 11.0286 157.485 10.9239 157.101 10.9239C153.644 10.9239 150.187 10.9239 146.729 10.9239C146.555 10.9239 146.415 10.9239 146.24 10.9239C146.171 10.7842 146.31 10.7493 146.345 10.6794C147.498 9.52703 148.65 8.37462 149.802 7.22222C149.977 7.04762 150.187 7.0127 150.431 7.0127C153.923 7.0127 157.45 7.0127 160.942 7.0127C161.117 7.0127 161.292 7.0127 161.466 7.0127C161.466 10.854 161.466 14.7303 161.466 18.6415Z" fill="#CC3F41"/>
<path d="M105.767 0.482431C105.907 0.657037 106.081 0.552274 106.256 0.587195C107.513 0.901486 108.246 1.98405 108.037 3.27613C107.827 4.39361 106.71 5.23172 105.523 5.12696C104.196 5.02219 103.288 4.14916 103.253 2.92692C103.218 1.70467 103.986 0.761801 105.313 0.552274C105.383 0.552274 105.418 0.517352 105.453 0.44751C105.523 0.482431 105.627 0.482431 105.767 0.482431Z" fill="#182645"/>
<path d="M90.1219 9.14296C91.0298 7.99056 92.1124 7.29214 93.4045 6.94292C96.6522 6.06989 99.9697 7.50166 101.367 10.5398C102.833 13.7176 102.728 16.8955 100.738 19.8289C98.2935 23.4607 92.9854 23.6353 90.2965 20.5273C90.2616 20.4924 90.1917 20.4225 90.087 20.3178C90.087 20.5622 90.087 20.7019 90.087 20.8765C90.087 23.7051 90.087 26.5337 90.087 29.3624C90.087 29.7465 89.9822 29.8163 89.633 29.8163C88.5854 29.7814 87.5377 29.8163 86.4901 29.8163C86.2456 29.8163 86.1409 29.7465 86.1409 29.4671C86.1409 22.0638 86.1409 14.6605 86.1409 7.25721C86.1409 7.01277 86.2107 6.908 86.4901 6.908C87.5726 6.908 88.6552 6.908 89.7727 6.908C90.052 6.908 90.1219 7.01277 90.1219 7.25721C90.1219 7.85088 90.1219 8.44454 90.1219 9.14296ZM98.2585 14.6256C98.2585 14.2415 98.2236 13.8573 98.1538 13.5081C97.8046 11.9017 96.8966 10.7843 95.2553 10.3303C93.7188 9.91123 92.3219 10.2954 91.2394 11.4827C90.087 12.7399 89.9124 14.2764 90.1917 15.8828C90.7854 18.9908 94.3124 20.3178 96.722 18.2923C97.8744 17.3495 98.2585 16.0574 98.2585 14.6256Z" fill="#182645"/>
<path d="M130.841 8.96834C130.841 8.4096 130.841 7.85086 130.841 7.2572C130.841 7.01275 130.911 6.94291 131.155 6.94291C132.273 6.94291 133.39 6.94291 134.508 6.94291C134.752 6.94291 134.822 7.01275 134.822 7.2572C134.822 12.216 134.822 17.1748 134.822 22.1337C134.822 22.3781 134.752 22.4479 134.508 22.4479C133.39 22.4479 132.273 22.4479 131.155 22.4479C130.911 22.4479 130.841 22.3781 130.841 22.1337C130.841 21.54 130.841 20.9463 130.841 20.2479C129.758 21.6448 128.396 22.413 126.755 22.6226C123.228 23.0765 120.19 21.1209 119.142 17.7336C118.374 15.2542 118.444 12.7748 119.666 10.4001C121.936 6.00003 127.384 5.86035 130.003 8.20007C130.247 8.44452 130.527 8.72389 130.841 8.96834ZM130.841 14.6954C130.876 14.2764 130.806 13.8922 130.736 13.4732C130.352 11.8319 129.409 10.6795 127.768 10.2953C126.196 9.91121 124.8 10.3303 123.717 11.5874C122.704 12.8097 122.53 14.2764 122.809 15.778C123.333 18.7114 126.441 20.1781 128.885 18.6415C130.317 17.7336 130.806 16.3367 130.841 14.6954Z" fill="#182645"/>
<path d="M79.8903 20.2478C79.2966 21.016 78.668 21.5398 77.9347 21.924C74.9664 23.4605 71.3346 22.6573 69.3441 19.9684C67.2139 17.1048 67.144 12.3905 69.2044 9.52694C71.4743 6.38402 76.014 5.75544 78.9823 8.16501C79.2966 8.40946 79.5411 8.68883 79.8204 9.03804C79.9252 8.82851 79.8554 8.61898 79.8903 8.44438C79.9252 7.95548 79.6808 7.3269 79.9601 7.04753C80.2744 6.73324 80.903 6.97768 81.3919 6.94276C82.0903 6.94276 82.8237 6.94276 83.5221 6.94276C83.8015 6.94276 83.8713 7.01261 83.8713 7.29198C83.8713 12.2508 83.8713 17.1747 83.8713 22.1335C83.8713 22.4129 83.8015 22.4827 83.5221 22.4827C82.4395 22.4827 81.357 22.4478 80.2395 22.4827C79.9252 22.4827 79.8554 22.378 79.8554 22.0637C79.8903 21.5049 79.8903 20.9462 79.8903 20.2478ZM79.8554 15.0445C79.8554 14.4159 79.8554 13.927 79.7157 13.473C79.3315 11.9016 78.4236 10.7841 76.8521 10.3301C75.3156 9.91107 73.9187 10.2603 72.8362 11.4476C71.7187 12.6349 71.5441 14.1365 71.7886 15.6731C72.2425 18.6065 75.2807 20.143 77.7601 18.7112C79.2617 17.8731 79.7855 16.5112 79.8554 15.0445Z" fill="#182645"/>
<path d="M66.8644 9.03825C65.3978 9.03825 64.0009 9.03825 62.5691 9.03825C62.3945 9.03825 62.2898 9.00333 62.2199 8.82872C60.5437 5.30168 54.5722 5.23183 52.6166 9.14302C51.3943 11.6224 51.3943 14.2066 52.861 16.5812C54.642 19.4797 59.077 19.9686 61.3818 17.594C61.6961 17.2797 61.9406 16.8955 62.1501 16.5114C62.2199 16.3717 62.2898 16.267 62.4644 16.267C63.8961 16.267 65.3279 16.267 66.7946 16.267C66.4105 17.4543 65.8517 18.5019 65.0485 19.4448C63.2326 21.5051 60.8929 22.4829 58.204 22.5877C54.1531 22.7274 50.9054 21.2258 48.9149 17.594C46.6101 13.4034 47.4482 6.90806 52.4769 4.00959C56.2135 1.84447 61.277 2.33337 64.42 5.19691C65.6073 6.24455 66.3406 7.53664 66.8644 9.03825Z" fill="#182645"/>
<path d="M38.9976 6.7334C43.7119 6.7334 47.0295 10.0858 46.9945 14.7653C46.9596 19.4098 43.5723 22.7273 38.8928 22.7273C34.2134 22.7273 31.0355 19.4447 31.0355 14.6605C31.0355 10.016 34.353 6.7334 38.9976 6.7334ZM35.0515 14.8351C35.0515 15.1494 35.0864 15.5685 35.1562 15.9875C35.4705 17.8034 36.7975 19.0955 38.4388 19.2352C40.3944 19.4098 42.0008 18.432 42.6294 16.6161C43.1183 15.1843 43.0834 13.7526 42.4897 12.3557C41.3373 9.77155 37.7404 9.31757 35.9943 11.5176C35.261 12.4954 35.0165 13.543 35.0515 14.8351Z" fill="#182645"/>
<path d="M10.7815 8.82865C13.0514 6.13971 17.1372 6.31432 19.1976 7.85086C20.5944 8.89849 21.2579 10.2953 21.5373 11.9716C21.6071 12.4605 21.642 12.9843 21.642 13.5081C21.642 16.3716 21.642 19.2003 21.642 22.0638C21.642 22.3781 21.5722 22.4829 21.223 22.4829C20.1754 22.4479 19.1277 22.4479 18.0801 22.4829C17.7309 22.4829 17.6959 22.3781 17.6959 22.0638C17.6959 19.3399 17.6959 16.5812 17.6959 13.8573C17.6959 13.4732 17.661 13.089 17.5912 12.7398C17.207 11.0287 15.915 10.0509 14.1689 10.0858C12.3879 10.1557 11.1657 11.2033 10.8863 12.9494C10.8165 13.2636 10.8165 13.6129 10.8165 13.9621C10.8165 16.651 10.8165 19.3749 10.8165 22.0638C10.8165 22.413 10.7117 22.4829 10.3974 22.4829C9.34976 22.4479 8.2672 22.4829 7.21956 22.4829C6.97512 22.4829 6.90527 22.413 6.90527 22.1686C6.90527 17.2098 6.90527 12.2509 6.90527 7.29212C6.90527 7.04767 6.94019 6.97782 7.21956 6.97782C8.33704 6.97782 9.4196 6.97782 10.5371 6.97782C10.7815 6.97782 10.8514 7.04767 10.8514 7.29212C10.7815 7.74609 10.7815 8.23499 10.7815 8.82865Z" fill="#182645"/>
<path d="M28.2417 16.3018C28.2417 18.2225 28.2417 20.1082 28.2417 22.0289C28.2417 22.413 28.137 22.4828 27.7878 22.4828C26.7401 22.4479 25.7274 22.4479 24.6798 22.4828C24.3306 22.4828 24.2607 22.3781 24.2607 22.0638C24.2607 18.2923 24.2607 14.5208 24.2956 10.7144C24.2956 10.2953 24.1909 10.1556 23.7718 10.1906C23.4575 10.2255 23.1432 10.1906 22.8289 10.1906C22.6194 10.1906 22.5146 10.1207 22.5146 9.9112C22.5146 9.03817 22.5146 8.13021 22.5146 7.25718C22.5146 7.01273 22.6194 6.97781 22.8289 6.97781C23.2131 6.97781 23.5972 6.97781 23.9464 6.97781C24.2258 6.97781 24.2956 6.90797 24.2956 6.6286C24.2607 5.93017 24.2956 5.19683 24.4353 4.4984C24.8893 2.43805 26.2512 1.35549 28.2417 0.936435C28.9751 0.79675 29.7433 0.726908 30.5116 0.761829C30.7561 0.761829 30.791 0.831671 30.791 1.07612C30.791 1.98407 30.791 2.89203 30.791 3.8349C30.791 4.07935 30.6862 4.14919 30.4767 4.11427C30.4068 4.11427 30.337 4.11427 30.2672 4.11427C28.9402 4.14919 28.3116 4.74285 28.2417 6.06986C28.1719 7.01273 28.1719 7.01273 29.1497 7.01273C29.6386 7.01273 30.1275 7.04765 30.5815 7.01273C30.8957 7.01273 30.9307 7.1175 30.9307 7.39687C30.9307 8.23498 30.9307 9.07309 30.9307 9.9112C30.9307 10.1906 30.8608 10.2604 30.5815 10.2604C29.9529 10.2255 29.2894 10.2604 28.6608 10.2604C28.2767 10.2604 28.1719 10.3303 28.1719 10.7144C28.2417 12.5303 28.2417 14.416 28.2417 16.3018Z" fill="#182645"/>
<path d="M110.901 14.3462C110.901 13.089 110.901 11.8319 110.901 10.5398C110.901 10.2604 110.831 10.1557 110.552 10.1906C110.167 10.2255 109.783 10.1906 109.364 10.1906C109.155 10.1906 109.05 10.1557 109.05 9.91121C109.05 9.03818 109.05 8.13022 109.05 7.25719C109.05 6.97782 109.155 6.9429 109.399 6.9429C109.783 6.9429 110.202 6.9429 110.586 6.9429C110.866 6.9429 110.936 6.87306 110.936 6.59369C110.936 5.54605 110.936 4.49841 110.936 3.45078C110.936 3.20633 111.006 3.10156 111.285 3.10156C112.367 3.10156 113.45 3.13648 114.567 3.10156C114.882 3.10156 114.952 3.20633 114.952 3.4857C114.952 4.49841 114.952 5.47621 114.952 6.48892C114.952 6.80322 115.021 6.90798 115.371 6.90798C116.279 6.87306 117.187 6.90798 118.06 6.90798C118.304 6.90798 118.409 6.9429 118.409 7.22227C118.374 8.0953 118.374 8.96833 118.409 9.84136C118.409 10.1207 118.304 10.1557 118.095 10.1557C117.152 10.1557 116.244 10.1557 115.301 10.1557C115.021 10.1557 114.952 10.2255 114.952 10.5049C114.952 12.9144 114.952 15.3589 114.952 17.7685C114.952 18.6415 115.406 19.0606 116.383 19.0955C116.942 19.1304 117.501 19.1304 118.095 19.0955C118.374 19.0955 118.444 19.1653 118.444 19.4447C118.444 20.3177 118.444 21.2257 118.444 22.0987C118.444 22.2384 118.514 22.413 118.269 22.413C116.872 22.3781 115.475 22.5527 114.114 22.2035C112.333 21.7495 111.32 20.5622 111.11 18.7463C111.075 18.5368 111.04 18.3272 111.04 18.1526C110.936 16.8955 110.936 15.6034 110.901 14.3462C110.901 14.3462 110.936 14.3462 110.901 14.3462Z" fill="#182645"/>
<path d="M137.126 12.1111C137.126 8.82851 137.126 5.51099 137.126 2.22839C137.126 1.87918 137.231 1.77441 137.58 1.77441C138.558 1.80934 139.571 1.80934 140.548 1.77441C140.968 1.77441 141.072 1.84426 141.072 2.29823C141.072 7.57134 141.072 12.8794 141.072 18.1874C141.072 19.4795 141.072 20.8065 141.072 22.0986C141.072 22.4129 141.002 22.4827 140.688 22.4827C139.675 22.4478 138.663 22.4478 137.65 22.4827C137.266 22.4827 137.126 22.4129 137.126 21.9938C137.161 18.6763 137.126 15.3937 137.126 12.1111Z" fill="#182645"/>
<path d="M4.4953 12.7399C4.4953 15.8479 4.4953 18.9209 4.4953 22.0289C4.4953 22.3781 4.42545 22.4829 4.07624 22.4829C3.0286 22.448 1.98097 22.4829 0.933328 22.4829C0.653958 22.4829 0.549194 22.448 0.549194 22.1337C0.549194 15.8479 0.549194 9.56204 0.549194 3.27621C0.549194 2.96192 0.653958 2.927 0.933328 2.927C1.98097 2.927 3.06352 2.927 4.11116 2.927C4.42545 2.927 4.4953 3.03177 4.4953 3.31114C4.4953 6.45405 4.4953 9.59696 4.4953 12.7399Z" fill="#182645"/>
<path d="M107.583 14.6951C107.583 17.1396 107.583 19.5841 107.583 22.0286C107.583 22.4127 107.478 22.4826 107.129 22.4826C106.081 22.4477 105.034 22.4477 103.986 22.4826C103.707 22.4826 103.637 22.4127 103.637 22.0985C103.637 17.1746 103.637 12.2507 103.637 7.32676C103.637 7.01247 103.742 6.94263 104.021 6.94263C105.069 6.94263 106.151 6.97755 107.199 6.94263C107.513 6.94263 107.583 7.04739 107.583 7.32676C107.583 9.80617 107.583 12.2507 107.583 14.6951Z" fill="#182645"/>
<path d="M148.755 17.105C149.523 17.105 150.326 17.105 151.095 17.105C151.339 17.105 151.409 17.1748 151.409 17.4193C151.409 18.9907 151.409 20.5971 151.409 22.1686C151.409 22.3781 151.339 22.4829 151.13 22.4829C149.558 22.4829 147.952 22.4829 146.38 22.4829C146.171 22.4829 146.066 22.413 146.066 22.2035C146.066 20.5971 146.066 19.0257 146.066 17.4193C146.066 17.1748 146.171 17.1399 146.38 17.1399C147.184 17.105 147.952 17.105 148.755 17.105Z" fill="#CC3F41"/>
</g>
<defs>
<clipPath id="clip0_5842_137072">
<rect width="160.917" height="29.3339" fill="white" transform="translate(0.549194 0.482422)"/>
</clipPath>
</defs>
</svg>
