<svg width="25" height="25" viewBox="0 0 25 25" fill="none" xmlns="http://www.w3.org/2000/svg">
<path d="M18.1006 0H6.89891C3.09485 0 0 3.095 0 6.89906V18.1008C0 21.905 3.09485 24.9999 6.89891 24.9999H18.1006C21.905 24.9999 24.9999 21.9049 24.9999 18.1008V6.89906C25 3.095 21.905 0 18.1006 0ZM22.7819 18.1008C22.7819 20.6819 20.6819 22.7817 18.1008 22.7817H6.89891C4.31792 22.7819 2.21811 20.6819 2.21811 18.1008V6.89906C2.21811 4.31806 4.31792 2.21811 6.89891 2.21811H18.1006C20.6818 2.21811 22.7817 4.31806 22.7817 6.89906V18.1008H22.7819Z" fill="#3F6587"/>
<path d="M12.5004 6.05859C8.94834 6.05859 6.05859 8.94834 6.05859 12.5004C6.05859 16.0524 8.94834 18.942 12.5004 18.942C16.0525 18.942 18.9422 16.0524 18.9422 12.5004C18.9422 8.94834 16.0525 6.05859 12.5004 6.05859ZM12.5004 16.7237C10.1716 16.7237 8.2767 14.8291 8.2767 12.5003C8.2767 10.1713 10.1714 8.27655 12.5004 8.27655C14.8294 8.27655 16.7241 10.1713 16.7241 12.5003C16.7241 14.8291 14.8293 16.7237 12.5004 16.7237Z" fill="#3F6587"/>
<path d="M19.2125 4.17773C18.7852 4.17773 18.3654 4.35075 18.0636 4.65389C17.7603 4.95555 17.5859 5.37551 17.5859 5.80435C17.5859 6.23185 17.7604 6.65166 18.0636 6.95481C18.3652 7.25647 18.7852 7.43096 19.2125 7.43096C19.6414 7.43096 20.0599 7.25647 20.363 6.95481C20.6661 6.65166 20.8392 6.2317 20.8392 5.80435C20.8392 5.37551 20.6661 4.95555 20.363 4.65389C20.0613 4.35075 19.6414 4.17773 19.2125 4.17773Z" fill="#3F6587"/>
</svg>
