<svg width="22" height="14" viewBox="0 0 22 14" fill="none" xmlns="http://www.w3.org/2000/svg">
<path d="M0.159321 2.79795H1.69152V12.1916H0.159321V2.79795ZM0.928809 0C1.44067 0 1.85762 0.433342 1.85762 0.992933C1.85762 1.53887 1.43728 1.98587 0.928809 1.98587C0.406778 1.98587 0 1.53887 0 0.992933C0 0.433342 0.406778 0 0.928809 0Z" fill="#3F6587"/>
<path d="M4.67477 9.53025C4.67477 10.6085 5.19681 11.0691 5.8646 11.0691C6.53239 11.0691 7.05442 10.5778 7.05442 9.5166V5.58241C7.05442 4.50417 6.53239 4.02988 5.8646 4.02988C5.19681 4.02988 4.67477 4.50417 4.67477 5.58241V9.53025ZM8.59001 9.5166C8.59001 10.4276 8.329 11.1271 7.79002 11.6458C7.25442 12.1644 6.67816 12.4306 6.06121 12.4306C5.51206 12.4306 5.05443 12.2907 4.67477 11.9972V14.0002H3.14258V5.58241C3.14258 4.67137 3.40359 3.97188 3.94257 3.45664C4.47817 2.92435 5.11884 2.6582 5.86799 2.6582C6.61375 2.6582 7.25442 2.92435 7.7934 3.45664C8.329 3.97529 8.5934 4.67478 8.5934 5.58241V9.5166H8.59001Z" fill="#3F6587"/>
<path d="M15.3043 9.5166C15.3043 10.4276 15.0433 11.1271 14.5043 11.6458C13.9688 12.1644 13.3247 12.4306 12.5789 12.4306C11.8332 12.4306 11.1925 12.1644 10.6535 11.6458C10.1179 11.1271 9.85352 10.4276 9.85352 9.5166V5.5824C9.85352 4.67136 10.1145 3.97188 10.6535 3.45664C11.1891 2.92435 11.8298 2.6582 12.5789 2.6582C13.3247 2.6582 13.9654 2.92435 14.5043 3.45664C15.0399 3.97529 15.3043 4.67478 15.3043 5.5824V5.76325H13.7721V5.5824C13.7721 4.50417 13.2501 4.02988 12.5823 4.02988C11.9145 4.02988 11.3925 4.50417 11.3925 5.5824V9.53025C11.3925 10.6085 11.9145 11.0691 12.5823 11.0691C13.2501 11.0691 13.7721 10.5778 13.7721 9.5166V8.56461H15.3043V9.5166Z" fill="#3F6587"/>
<path d="M21.9963 9.5166C21.9963 10.4276 21.7352 11.1271 21.1963 11.6458C20.6607 12.1644 20.0166 12.4306 19.2708 12.4306C18.5251 12.4306 17.8844 12.1644 17.3454 11.6458C16.8098 11.1271 16.5488 10.4276 16.5488 9.5166V5.5824C16.5488 4.67136 16.8098 3.97188 17.3488 3.45664C17.8844 2.92435 18.5251 2.6582 19.2742 2.6582C20.02 2.6582 20.6607 2.92435 21.1997 3.45664C21.7352 3.97529 21.9997 4.67478 21.9997 5.5824V5.76325H20.4675V5.5824C20.4675 4.50417 19.9454 4.02988 19.2776 4.02988C18.6098 4.02988 18.0878 4.50417 18.0878 5.5824V9.53025C18.0878 10.6085 18.6098 11.0691 19.2776 11.0691C19.9454 11.0691 20.4675 10.5778 20.4675 9.5166V8.56461H21.9997V9.5166H21.9963Z" fill="#3F6587"/>
</svg>
