<svg width="22" height="22" viewBox="0 0 22 22" fill="none" xmlns="http://www.w3.org/2000/svg">
<path d="M4.67752 14.2601V14.4167H1.99805V14.2601H2.21942C2.47768 14.2601 2.66523 14.191 2.78206 14.0528C2.85585 13.9625 2.89274 13.7453 2.89274 13.4012V9.69454C2.89274 9.40399 2.87276 9.21217 2.83279 9.11908C2.80204 9.04856 2.73902 8.98791 2.6437 8.93713C2.50842 8.86943 2.36699 8.83558 2.21942 8.83558H1.99805V8.67902H4.67752V8.83558H4.45154C4.19636 8.83558 4.01035 8.90469 3.89351 9.04292C3.81665 9.13318 3.77822 9.35039 3.77822 9.69454V13.4012C3.77822 13.6917 3.7982 13.8835 3.83817 13.9766C3.86892 14.0471 3.93348 14.1078 4.03187 14.1586C4.16407 14.2263 4.30397 14.2601 4.45154 14.2601H4.67752Z" fill="#3F6587"/>
<path d="M9.23863 8.54785V10.5323H9.06799C9.01265 10.1515 8.91273 9.84827 8.76822 9.6226C8.62679 9.39693 8.42387 9.21781 8.15946 9.08523C7.89505 8.95265 7.62141 8.88636 7.33855 8.88636C7.0188 8.88636 6.75439 8.97662 6.54532 9.15716C6.33625 9.33488 6.23171 9.53798 6.23171 9.76647C6.23171 9.94136 6.29782 10.1007 6.43002 10.2446C6.62065 10.4562 7.07414 10.7383 7.79051 11.0909C8.37468 11.3786 8.77284 11.6 8.98498 11.7552C9.2002 11.9075 9.36469 12.088 9.47845 12.2968C9.59528 12.5055 9.6537 12.7242 9.6537 12.9526C9.6537 13.3871 9.46922 13.7622 9.10028 14.0782C8.7344 14.3913 8.26246 14.5479 7.68444 14.5479C7.50304 14.5479 7.33241 14.5352 7.17253 14.5098C7.07722 14.4957 6.87891 14.4449 6.5776 14.3574C6.27937 14.2672 6.09028 14.222 6.01035 14.222C5.93348 14.222 5.87199 14.2432 5.82587 14.2855C5.78283 14.3278 5.75055 14.4153 5.72902 14.5479H5.55839V12.5803H5.72902C5.80896 12.9921 5.91657 13.301 6.05185 13.5069C6.18713 13.7101 6.39313 13.8793 6.66984 14.0147C6.94962 14.1501 7.25554 14.2178 7.58759 14.2178C7.97191 14.2178 8.27476 14.1247 8.49613 13.9385C8.72057 13.7524 8.83279 13.5323 8.83279 13.2785C8.83279 13.1374 8.78975 12.995 8.70366 12.8511C8.62065 12.7072 8.48998 12.5732 8.31165 12.4491C8.19174 12.3645 7.8643 12.1854 7.32933 11.9117C6.79436 11.6353 6.41311 11.4153 6.1856 11.2517C5.96115 11.088 5.79051 10.9075 5.67368 10.7101C5.55685 10.5126 5.49843 10.2954 5.49843 10.0584C5.49843 9.64658 5.67061 9.29256 6.01496 8.99637C6.35931 8.69736 6.79743 8.54785 7.32933 8.54785C7.66138 8.54785 8.01342 8.6226 8.38544 8.77211C8.55762 8.84263 8.67906 8.87789 8.74978 8.87789C8.82972 8.87789 8.89428 8.85674 8.94347 8.81442C8.99574 8.76929 9.03725 8.68043 9.06799 8.54785H9.23863Z" fill="#3F6587"/>
<path d="M13.0803 14.2601V14.4167H10.4008V14.2601H10.6222C10.8804 14.2601 11.068 14.191 11.1848 14.0528C11.2586 13.9625 11.2955 13.7453 11.2955 13.4012V9.69454C11.2955 9.40399 11.2755 9.21217 11.2356 9.11908C11.2048 9.04856 11.1418 8.98791 11.0465 8.93713C10.9112 8.86943 10.7698 8.83558 10.6222 8.83558H10.4008V8.67902H13.0803V8.83558H12.8543C12.5991 8.83558 12.4131 8.90469 12.2963 9.04292C12.2194 9.13318 12.181 9.35039 12.181 9.69454V13.4012C12.181 13.6917 12.201 13.8835 12.2409 13.9766C12.2717 14.0471 12.3362 14.1078 12.4346 14.1586C12.5668 14.2263 12.7067 14.2601 12.8543 14.2601H13.0803Z" fill="#3F6587"/>
<path d="M13.1864 8.67902H14.8835L18.7067 12.9823V9.67338C18.7067 9.32077 18.6637 9.10074 18.5776 9.0133C18.4638 8.89482 18.284 8.83558 18.038 8.83558H17.8213V8.67902H19.998V8.83558H19.7767C19.5123 8.83558 19.3247 8.90892 19.214 9.05561C19.1464 9.14588 19.1126 9.3518 19.1126 9.67338V14.5098H18.9465L14.8236 9.88918V13.4223C14.8236 13.7749 14.8651 13.995 14.9481 14.0824C15.0649 14.2009 15.2448 14.2601 15.4877 14.2601H15.709V14.4167H13.5323V14.2601H13.749C14.0165 14.2601 14.2056 14.1868 14.3163 14.0401C14.3839 13.9498 14.4177 13.7439 14.4177 13.4223V9.4322C14.2363 9.23756 14.098 9.10921 14.0027 9.04715C13.9104 8.98509 13.7736 8.92726 13.5922 8.87366C13.503 8.84827 13.3678 8.83558 13.1864 8.83558V8.67902Z" fill="#3F6587"/>
</svg>
