<svg width="25" height="21" viewBox="0 0 25 21" fill="none" xmlns="http://www.w3.org/2000/svg">
<path d="M5.78783 7.9695V5.75195H0V7.9695H1.32786V12.7129H0V14.9305H5.78783V12.7129H4.45997V7.9695H5.78783Z" fill="#3F6587"/>
<path d="M12.1755 9.27361C11.8177 9.16954 9.97703 8.6427 9.65832 8.53863C9.33961 8.43456 9.07944 8.28496 9.07944 8.09634C9.07944 7.90771 9.37213 7.70608 9.96402 7.70608C11.8308 7.70608 12.7275 8.85734 12.7275 8.85734C12.7275 8.85734 12.8286 8.99195 12.8624 9.04024H14.6635V5.89929H12.73V6.47073C12.5823 6.36874 11.4921 5.65723 9.80142 5.65723C7.57044 5.65723 6.32812 6.81499 6.32812 8.54513C6.32812 10.2753 7.89566 10.9907 8.33145 11.1729C8.76723 11.355 10.4714 11.8363 11.1998 12.064C11.9283 12.2916 12.195 12.4542 12.195 12.5713C12.195 12.6884 11.8763 12.9941 10.9657 12.9941C9.37952 12.9941 8.56269 12.0587 8.41933 11.8776V11.8762C8.37375 11.8151 8.32026 11.7428 8.3021 11.7156C8.28108 11.6841 8.23232 11.6142 8.1985 11.5659H6.39749V14.9201H8.41933V14.2197C8.65458 14.3763 9.85881 15.1275 11.3039 15.1275C12.917 15.1275 14.9723 14.425 14.9723 12.2331C14.9723 10.0411 12.5332 9.37768 12.1755 9.27361Z" fill="#3F6587"/>
<path d="M20.1034 5.62646C17.4144 5.62646 15.209 6.97093 15.209 10.403C15.209 13.835 17.6031 15.1205 20.1152 15.1205C22.6273 15.1205 24.9978 13.8467 24.9978 10.4384C24.9978 7.03004 22.6274 5.62646 20.1034 5.62646ZM20.1271 12.8325C19.2071 12.8325 18.6174 12.6202 18.6174 10.3912C18.6174 8.16215 19.0538 7.92628 20.1624 7.92628C20.8346 7.92628 21.6484 7.97342 21.6484 10.3204C21.6484 12.6674 21.047 12.8325 20.1271 12.8325Z" fill="#3F6587"/>
<path d="M3.85806 4.73965C4.46254 3.84705 5.2059 3.05582 6.05807 2.39873C6.40264 2.65349 6.76891 2.88458 7.15396 3.09053C6.50884 3.80964 5.93085 4.60634 5.8351 4.73965H6.22219C6.45452 4.42651 6.93511 3.79658 7.44187 3.2381C7.99578 3.51039 8.58444 3.7331 9.19865 3.90273C9.03516 4.24959 8.91158 4.5529 8.83904 4.73965H9.17534C9.25261 4.54733 9.36584 4.2791 9.50711 3.98271C10.2906 4.17414 11.1116 4.28144 11.9515 4.29778V4.7397H12.2637V4.29928C13.0975 4.2932 13.914 4.19818 14.6947 4.01965C14.8278 4.30121 14.935 4.5554 15.009 4.73965H15.3453C15.2756 4.56029 15.1589 4.27358 15.0049 3.94373C15.63 3.78107 16.2299 3.5642 16.7949 3.29617C17.2823 3.83982 17.7379 4.43738 17.9622 4.73965H18.3493C18.2565 4.61045 17.7084 3.85476 17.0856 3.15234C17.5138 2.93104 17.9198 2.67925 18.2993 2.39873C19.1514 3.05582 19.8948 3.84705 20.4993 4.73965H20.8748C19.0282 1.88968 15.8201 0 12.1786 0C8.53714 0 5.32902 1.88968 3.48242 4.73965H3.85806V4.73965ZM9.33795 3.61722C8.75371 3.4594 8.19314 3.25251 7.66468 2.99941C7.73649 2.9248 7.80824 2.85252 7.87917 2.7841C8.60281 2.08626 9.79304 1.32001 10.0539 1.15506C10.2657 1.27135 10.4967 1.3697 10.7425 1.44775C10.5516 1.69804 10.1768 2.2061 9.76874 2.85054C9.60988 3.10135 9.46517 3.36496 9.33795 3.61722ZM11.9515 3.98547C11.1608 3.96965 10.3877 3.8712 9.6487 3.69595C9.76427 3.47001 9.89321 3.23752 10.0325 3.01763C10.5027 2.27525 10.9269 1.71786 11.0682 1.53652C11.3502 1.60276 11.6465 1.64465 11.9515 1.65833V3.98547ZM12.2637 3.98703V1.66187C12.5647 1.65677 12.8591 1.62493 13.1408 1.56826C13.3023 1.77718 13.7065 2.31438 14.1519 3.01763C14.2984 3.24902 14.4336 3.49431 14.5537 3.73133C13.8173 3.8942 13.0487 3.9812 12.2637 3.98703ZM14.8667 3.65739C14.7347 3.39305 14.5829 3.11467 14.4156 2.85054C14.0286 2.23935 13.6714 1.75075 13.4728 1.48839C13.7342 1.41497 13.9809 1.31954 14.2075 1.20407C14.5737 1.43885 15.6375 2.14028 16.3052 2.7841C16.3938 2.86959 16.4836 2.96091 16.5733 3.05561C16.0338 3.3047 15.462 3.50633 14.8667 3.65739ZM18.0378 2.20355C17.6716 2.46794 17.2802 2.7048 16.8682 2.91304C16.753 2.78951 16.6369 2.67019 16.5219 2.55936C15.8975 1.95717 14.9676 1.32542 14.5121 1.02877C14.6668 0.928449 14.8084 0.817511 14.9346 0.69674C16.0622 1.01894 17.1091 1.53413 18.0378 2.20355ZM12.1787 0.312206C13.0031 0.312206 13.8044 0.412788 14.5717 0.601049C13.9894 1.07399 13.1169 1.35144 12.1787 1.35144C11.2362 1.35144 10.3661 1.07487 9.78466 0.601309C10.5522 0.412892 11.3538 0.312206 12.1787 0.312206ZM9.42271 0.69674C9.52543 0.795189 9.63788 0.887289 9.75969 0.972209C9.34695 1.23779 8.33036 1.91533 7.6625 2.55931C7.56634 2.65203 7.4694 2.75079 7.37282 2.85289C7.00343 2.65947 6.65116 2.44286 6.31965 2.20355C7.24825 1.53413 8.29508 1.01899 9.42271 0.69674Z" fill="#3F6587"/>
<path d="M20.4995 15.9703C19.9079 16.8441 19.1831 17.6206 18.3535 18.2694C17.9584 17.9723 17.5343 17.7067 17.0858 17.4747C17.6261 16.8653 18.1102 16.2158 18.2894 15.9703H17.9006C17.6609 16.2903 17.2413 16.8332 16.7951 17.331C16.2301 17.0629 15.6303 16.8458 15.005 16.6832C15.1372 16.4001 15.2416 16.1492 15.3127 15.9703H14.9754C14.9039 16.1447 14.8088 16.366 14.6946 16.6076C13.9143 16.4294 13.098 16.3344 12.2635 16.3284V15.9703H11.9513V16.3298C11.1108 16.3461 10.2898 16.4532 9.50675 16.6444C9.38478 16.3886 9.28368 16.1535 9.20859 15.9703H8.87125C8.94571 16.1578 9.05686 16.4245 9.19819 16.7243C8.58382 16.894 7.99494 17.1164 7.44109 17.3888C6.97569 16.8758 6.53252 16.3028 6.28343 15.9703H5.89463C6.07977 16.2239 6.59111 16.9098 7.1537 17.5369C6.74851 17.7538 6.36377 17.9984 6.00343 18.2694C5.1738 17.6206 4.44896 16.844 3.85738 15.9702H3.48242C5.32907 18.8202 8.53709 20.7099 12.1785 20.7099C15.8199 20.7099 19.0279 18.8202 20.8746 15.9702H20.4995V15.9703ZM14.8666 16.9697C15.4621 17.1207 16.0339 17.3223 16.5735 17.5715C16.4836 17.6663 16.3938 17.7578 16.305 17.8435C15.6394 18.4852 14.579 19.185 14.21 19.4217C13.9834 19.3057 13.7364 19.2103 13.4742 19.1369C13.6731 18.874 14.0294 18.3864 14.4154 17.7769C14.5828 17.5127 14.7345 17.2342 14.8666 16.9697ZM12.2635 16.6405C13.049 16.6463 13.8177 16.7331 14.5536 16.8957C14.4334 17.1329 14.2983 17.3783 14.1516 17.6099C13.7069 18.3121 13.3033 18.8488 13.1413 19.0583C12.8603 19.0023 12.5659 18.9707 12.2634 18.9657V16.6405H12.2635ZM11.9513 16.6421V18.969C11.6451 18.9825 11.3485 19.0239 11.0668 19.0897C10.9245 18.907 10.5017 18.3511 10.0322 17.6099C9.89284 17.3898 9.7638 17.1572 9.64818 16.931C10.3868 16.756 11.1599 16.6578 11.9513 16.6421ZM9.33753 17.01C9.46481 17.2624 9.60962 17.526 9.76848 17.777C10.1763 18.4209 10.5508 18.9286 10.7418 19.1791C10.4957 19.2571 10.2649 19.3556 10.0533 19.4722C9.79138 19.3065 8.60218 18.5408 7.87896 17.8435C7.80793 17.775 7.73618 17.7026 7.66427 17.6279C8.19262 17.3747 8.75314 17.1678 9.33753 17.01ZM6.26282 18.4651C6.61078 18.2093 6.98178 17.9787 7.37209 17.7742C7.46877 17.8764 7.56592 17.9754 7.66218 18.0682C8.32989 18.712 9.34617 19.3894 9.75906 19.6551C9.61196 19.7581 9.47787 19.8713 9.35871 19.9942C8.23258 19.6642 7.188 19.1418 6.26282 18.4651ZM12.1785 20.3977C11.327 20.3977 10.5001 20.2908 9.7101 20.0904C10.287 19.5835 11.203 19.2761 12.1785 19.2761C13.1527 19.2761 14.0696 19.5837 14.6465 20.0904C13.8566 20.2908 13.0298 20.3977 12.1785 20.3977ZM14.998 19.9942C14.8563 19.8482 14.6945 19.7151 14.5139 19.5974C14.9702 19.3002 15.8981 18.6694 16.5217 18.0681C16.6367 17.9572 16.7528 17.8379 16.868 17.7142C17.3011 17.9333 17.7116 18.1839 18.094 18.4651C17.1688 19.1418 16.1242 19.6642 14.998 19.9942Z" fill="#3F6587"/>
</svg>
