<svg width="22" height="25" viewBox="0 0 22 25" fill="none" xmlns="http://www.w3.org/2000/svg">
<g clip-path="url(#clip0_5838_134107)">
<path d="M4.36409 10.0327C4.37897 10.0327 4.39371 10.0356 4.40747 10.0413C4.42122 10.047 4.43372 10.0553 4.44424 10.0659C4.45476 10.0764 4.46311 10.0889 4.46879 10.1026C4.47448 10.1164 4.4774 10.1311 4.47738 10.146V17.0055C4.47744 17.0356 4.46553 17.0645 4.44429 17.0858C4.42304 17.1071 4.3942 17.1192 4.36409 17.1192H2.31056C2.28047 17.1191 2.25167 17.107 2.23044 17.0857C2.20921 17.0644 2.19729 17.0355 2.19727 17.0055V10.146C2.1973 10.116 2.20925 10.0872 2.23049 10.066C2.25173 10.0447 2.28052 10.0328 2.31056 10.0327H4.36409Z" fill="#3F6587"/>
<path d="M11.7819 10.0327C11.7968 10.0327 11.8115 10.0356 11.8253 10.0413C11.839 10.047 11.8515 10.0553 11.8621 10.0659C11.8726 10.0764 11.8809 10.0889 11.8866 10.1026C11.8923 10.1164 11.8952 10.1311 11.8952 10.146V11.835C11.8952 11.8651 11.8833 11.894 11.8621 11.9153C11.8409 11.9367 11.812 11.9487 11.7819 11.9488H9.98936C9.95924 11.9487 9.93034 11.9606 9.90901 11.9819C9.88767 12.0031 9.87565 12.032 9.87559 12.0621V17.0054C9.87564 17.0356 9.86373 17.0645 9.84248 17.0858C9.82123 17.1071 9.79238 17.1192 9.76227 17.1192H7.70876C7.67865 17.1191 7.6498 17.1071 7.62856 17.0858C7.60732 17.0644 7.59541 17.0356 7.59547 17.0054V12.0621C7.59543 12.032 7.58348 12.0032 7.56224 11.982C7.54099 11.9608 7.51219 11.9488 7.48215 11.9488H5.73096C5.7008 11.9487 5.67189 11.9367 5.65056 11.9154C5.62924 11.8941 5.61723 11.8651 5.61719 11.835V10.146C5.61725 10.1159 5.62928 10.0871 5.65061 10.0658C5.67195 10.0446 5.70085 10.0327 5.73096 10.0327H11.7819" fill="#3F6587"/>
<path d="M19.7739 10.0327C19.8041 10.0327 19.8329 10.0446 19.8543 10.0658C19.8756 10.0871 19.8876 10.1159 19.8877 10.146V13.6419C19.8877 15.9573 18.6743 17.1814 16.3788 17.1814C14.1614 17.1814 13.0371 15.9731 13.0371 13.5899V10.146C13.0371 10.1311 13.04 10.1164 13.0457 10.1026C13.0514 10.0889 13.0597 10.0764 13.0703 10.0659C13.0808 10.0553 13.0933 10.047 13.107 10.0413C13.1208 10.0356 13.1355 10.0327 13.1504 10.0327H15.2034C15.2184 10.0326 15.2332 10.0355 15.247 10.0412C15.2608 10.0469 15.2733 10.0552 15.2839 10.0657C15.2945 10.0763 15.3028 10.0888 15.3086 10.1026C15.3143 10.1163 15.3172 10.1311 15.3172 10.146V13.5787C15.3172 14.3338 15.516 15.2338 16.4624 15.2338C17.2328 15.2338 17.6071 14.6923 17.6071 13.5787V10.146C17.6072 10.1159 17.6192 10.0871 17.6405 10.0658C17.6619 10.0446 17.6908 10.0327 17.7209 10.0327H19.7739" fill="#3F6587"/>
<path d="M21.928 24.184C20.5655 23.512 19.0321 22.7453 17.618 21.9025C17.859 21.7158 18.0919 21.5195 18.3165 21.3136C20.2594 19.5688 21.5014 17.1769 21.8112 14.584C22.1209 11.991 21.4771 9.37389 19.9998 7.2205C18.4235 4.86957 15.9929 3.22573 13.2241 2.6381C10.4552 2.05047 7.56643 2.56534 5.17112 4.07337C4.28694 2.84043 3.39905 1.503 2.46052 0.0810547C2.75587 0.680575 3.63169 2.52883 4.65844 4.41701C3.2409 5.42611 2.08496 6.75928 1.28689 8.30549C0.488818 9.85171 0.0717176 11.5662 0.0703219 13.3063C0.0681676 14.9326 0.436456 16.538 1.14724 18.0007C1.82007 19.4048 2.78642 20.6481 3.98101 21.6466C5.17559 22.6452 6.57057 23.3757 8.07172 23.7889C9.57286 24.202 11.1452 24.2881 12.6825 24.0415C14.2198 23.7948 15.6862 23.221 16.9827 22.359C18.6397 23.0444 20.3049 23.617 21.928 24.184ZM9.94223 23.2385C7.48807 22.9904 5.2105 21.8497 3.54207 20.0329C3.28461 19.6477 3.12988 19.2032 3.09256 18.7414C4.19422 19.7888 5.45684 20.6525 6.83224 21.2997C8.35421 22.0371 9.98907 22.5139 11.6688 22.7105C11.1046 23.1048 10.5208 23.2873 9.94223 23.2385V23.2385ZM2.8534 17.8238C2.84365 17.9241 2.83761 18.0221 2.83341 18.1191C2.74334 18.0212 2.65462 17.9232 2.57013 17.8238H2.2469C2.42756 18.0458 2.62353 18.2645 2.83157 18.4795C2.83936 18.7679 2.88081 19.0543 2.95509 19.333C1.69918 17.6901 0.987933 15.6958 0.920743 13.6289C0.853552 11.562 1.43378 9.52575 2.58033 7.8047C2.4569 8.30238 2.40468 8.81506 2.42524 9.32741H2.66811C2.62934 8.57574 2.7659 7.82534 3.06699 7.13552C3.46589 6.63319 3.9117 6.16996 4.39839 5.75212C4.65195 5.60955 4.91217 5.47674 5.17903 5.35368C5.77252 6.39529 6.39061 7.38629 6.95902 8.11862C6.31968 8.15651 5.67832 8.14316 5.04111 8.07869L5.14513 8.10794C5.11217 8.10515 5.07966 8.1019 5.04621 8.09865C5.24867 8.51985 5.47021 8.92897 5.70518 9.32742H9.84425C9.62785 9.15049 9.41484 8.96705 9.20524 8.77712C10.1238 8.02695 11.1167 7.37278 12.1685 6.82485C12.5207 7.21369 12.9409 7.53504 13.4084 7.77312C14.0005 8.08742 14.6552 8.26603 15.3249 8.29601C15.3978 8.63084 15.4605 8.97541 15.5125 9.32741H15.7596C15.7085 8.97494 15.6467 8.63053 15.5743 8.29416C16.1928 8.26815 16.7199 8.06986 17.0362 7.70764C17.5471 8.20116 18.0083 8.74369 18.4131 9.32741H18.7079C18.2654 8.66759 17.7532 8.05729 17.1801 7.50702C17.2672 7.34874 17.3218 7.17468 17.3408 6.99503C17.3598 6.81538 17.3427 6.63375 17.2906 6.46077C17.2172 6.20084 17.099 5.95569 16.9414 5.73633C17.3893 5.81174 17.808 6.00832 18.1521 6.30474C19.508 7.66768 20.4391 9.39493 20.8324 11.2768C21.2257 13.1587 21.0642 15.1143 20.3676 16.9062C19.5164 18.6769 17.4569 19.6386 14.9255 19.7092C15.9945 19.4389 16.8462 19.0683 17.8558 18.4289C17.4782 18.2557 17.0993 18.0662 16.7204 17.8637C16.6034 17.8698 16.4849 17.8735 16.3628 17.8735C14.254 17.8735 12.9407 16.9447 12.5135 15.1085C11.8513 14.601 11.2044 14.072 10.5789 13.5329V15.0695C11.4649 15.8766 12.3496 16.6178 13.1757 17.3009C12.54 17.7244 10.4818 18.3495 10.0787 18.4201C10.4252 18.6973 10.7758 18.9611 11.1306 19.2114C10.2572 18.9666 9.40679 18.6462 8.58901 18.2538C8.50772 18.2148 8.42691 18.1752 8.34658 18.1349C8.33499 18.1294 8.32382 18.1238 8.31268 18.1182C8.16224 18.0425 8.01379 17.965 7.86735 17.8856C6.87893 17.3556 5.97299 16.6845 5.17809 15.8933V16.2342C5.41725 16.4659 5.67096 16.6894 5.9392 16.9048C6.77847 17.5665 7.69585 18.1227 8.67072 18.5608C9.64558 19.0147 10.6645 19.3672 11.7115 19.6126C12.2767 19.9887 12.8489 20.3377 13.4283 20.6593C13.4218 20.6709 13.4149 20.683 13.4079 20.6951C12.9607 21.4534 12.4745 22.0525 11.9688 22.4792C10.369 22.3399 8.62523 21.8723 6.93254 21.0629C5.40982 20.3347 4.08586 19.398 3.07211 18.369C3.07042 18.1869 3.07909 18.0049 3.09811 17.8238L2.8534 17.8238ZM11.5977 5.81806C11.6815 6.11322 11.8213 6.38947 12.0097 6.63166C10.9496 7.18872 9.94873 7.85169 9.02228 8.6104C7.9203 7.58736 6.8991 6.39204 5.89001 5.05275C5.89556 5.05089 5.90069 5.04811 5.90625 5.04625C5.90718 5.04579 5.90857 5.04532 5.90951 5.04486V5.04532C6.37136 4.87256 6.84684 4.73866 7.33098 4.64502C8.78205 4.37155 10.2751 4.41495 11.7078 4.77227C11.6207 4.93046 11.5661 5.10446 11.5472 5.28405C11.5283 5.46364 11.5455 5.6452 11.5977 5.81806H11.5977ZM11.8337 5.75537C11.7871 5.60527 11.773 5.44698 11.7923 5.29102C11.8116 5.13506 11.8638 4.98498 11.9456 4.85075C11.9488 4.84564 11.953 4.84099 11.9563 4.83589C12.7492 5.04872 13.5172 5.34511 14.2475 5.72008C14.0929 5.76466 13.9358 5.81419 13.7762 5.86868C13.2486 6.05124 12.7336 6.26827 12.2344 6.51835C12.0511 6.2934 11.9149 6.03395 11.8337 5.75537V5.75537ZM14.3455 5.49671C13.6389 5.13515 12.898 4.84517 12.1337 4.63109C12.4346 4.3585 12.9004 4.22011 13.4395 4.21918C13.7996 4.60067 14.1046 5.03068 14.3455 5.4967L14.3455 5.49671ZM13.798 4.23822C14.3467 4.30062 14.8789 4.46505 15.3671 4.72304C15.7237 4.9071 16.0524 5.14085 16.3433 5.41729C15.7826 5.40693 15.2229 5.47079 14.6789 5.60723C14.4447 5.11526 14.1487 4.65521 13.798 4.23822V4.23822ZM13.8551 6.09994C14.0901 6.0196 14.319 5.95134 14.5433 5.89329C14.6423 6.10644 14.7361 6.33135 14.8248 6.56803C15.0042 7.05368 15.1528 7.55017 15.2696 8.05453C14.6582 8.01373 14.0623 7.84391 13.5212 7.55624C13.1007 7.34079 12.7204 7.05458 12.3969 6.71013C12.8696 6.47615 13.3567 6.27234 13.8551 6.09994V6.09994ZM15.0537 6.48259C15.0012 6.34235 14.9469 6.20613 14.8907 6.07393C15.597 6.49125 16.2567 6.98272 16.8588 7.53999C16.5797 7.86971 16.0958 8.04385 15.5218 8.05825C15.3998 7.52351 15.2434 6.9972 15.0537 6.48259V6.48259ZM14.9148 5.80599C15.4651 5.68196 16.0308 5.64142 16.5931 5.68572C16.8055 5.92839 16.9628 6.21419 17.0543 6.52346C17.1352 6.79152 17.1146 7.08002 16.9962 7.33381C16.3603 6.75005 15.6623 6.23772 14.9148 5.80599V5.80599ZM15.4795 4.50618C14.887 4.19129 14.2316 4.0128 13.5612 3.98375C13.3878 3.81019 13.1966 3.65531 12.9909 3.52168C14.5914 3.84389 16.0893 4.5511 17.3552 5.58215C17.1454 5.51598 16.9297 5.47011 16.7111 5.44516C16.3607 5.06029 15.9434 4.74215 15.4795 4.50618V4.50618ZM13.1994 3.9921C12.637 4.03622 12.1592 4.22662 11.862 4.55912C10.3659 4.17193 8.8028 4.11944 7.28409 4.40541C6.77208 4.5044 6.26948 4.64702 5.78179 4.83171V4.83264C5.76739 4.83821 5.75253 4.84425 5.73768 4.84982C5.72654 4.83449 5.71447 4.81871 5.7033 4.80338C7.2911 3.83159 9.11715 3.31882 10.9787 3.322C11.2782 3.322 11.5745 3.33485 11.8676 3.36054C12.3324 3.41534 12.7819 3.63174 13.1994 3.9921H13.1994ZM12.0287 22.7444C12.3403 22.769 12.6486 22.7829 12.9524 22.7829C13.1776 22.7829 13.401 22.776 13.6206 22.762C13.9197 22.7435 14.2076 22.711 14.4843 22.6673C13.4061 23.0644 12.268 23.2745 11.119 23.2887C11.4469 23.1521 11.7533 22.9688 12.0287 22.7444V22.7444ZM12.3073 22.5039C12.8225 22.0077 13.264 21.4404 13.6183 20.8191C13.6266 20.8051 13.6345 20.7912 13.6424 20.7773C14.4277 21.2068 15.2232 21.5932 16.0224 21.948C15.9672 21.98 15.9109 22.0102 15.8552 22.0409C14.8628 22.4249 13.6415 22.5819 12.3073 22.5039H12.3073ZM14.8424 19.9548C15.1819 19.9479 15.5167 19.9256 15.8436 19.887C17.5224 19.6878 18.8728 19.0874 19.7751 18.1591C19.0492 19.4495 18.0474 20.5638 16.8411 21.4223C16.1407 20.9814 15.4728 20.491 14.8424 19.9548" fill="#3F6587"/>
</g>
<defs>
<clipPath id="clip0_5838_134107">
<rect width="22" height="24.2647" fill="white"/>
</clipPath>
</defs>
</svg>
