<svg width="43" height="43" viewBox="0 0 43 43" fill="none" xmlns="http://www.w3.org/2000/svg">
<path d="M43 0H0V43H43V0Z" fill="#F7DF1E"/>
<path d="M28.88 33.5867C29.7461 35.0009 30.873 36.0404 32.866 36.0404C34.5403 36.0404 35.6098 35.2036 35.6098 34.0474C35.6098 32.6618 34.511 32.1711 32.6681 31.365L31.6579 30.9316C28.7421 29.6894 26.8051 28.1332 26.8051 24.8433C26.8051 21.8128 29.1141 19.5059 32.7227 19.5059C35.2918 19.5059 37.1387 20.4 38.4697 22.7411L35.3232 24.7614C34.6304 23.5192 33.883 23.0298 32.7227 23.0298C31.5392 23.0298 30.7891 23.7806 30.7891 24.7614C30.7891 25.9736 31.5399 26.4644 33.2735 27.2151L34.2837 27.6479C37.7168 29.1201 39.6553 30.621 39.6553 33.9955C39.6553 37.6334 36.7975 39.6265 32.9595 39.6265C29.2069 39.6265 26.7826 37.8382 25.5963 35.4944L28.88 33.5867ZM14.6061 33.9368C15.2408 35.063 15.8182 36.0151 17.2065 36.0151C18.5341 36.0151 19.3715 35.4957 19.3715 33.4761V19.7366H23.4122V33.5307C23.4122 37.7147 20.9591 39.6189 17.3785 39.6189C14.1433 39.6189 12.2697 37.9447 11.3169 35.9281L14.6061 33.9368Z" fill="#333333"/>
</svg>
