<svg width="25" height="25" viewBox="0 0 25 25" fill="none" xmlns="http://www.w3.org/2000/svg">
<g clip-path="url(#clip0_5838_134237)">
<path d="M0.0612802 15.6505C0.0949323 10.9147 0.126674 6.58431 0.131776 6.02742L0.141052 5.0149H2.63555C4.79925 5.0149 5.12008 5.04087 5.0549 5.21087C4.92604 5.54691 5.05342 5.42794 5.42639 4.86401C6.18087 3.72309 7.23814 2.65377 8.33923 1.91796C8.77697 1.62544 9.10893 1.3501 9.07693 1.3061C9.04491 1.2621 9.05562 1.25319 9.10067 1.28629C9.14572 1.31943 9.43374 1.20621 9.74068 1.03472C10.0476 0.863233 10.7892 0.561085 11.3886 0.363288C12.3795 0.0363102 12.6562 0.00334668 14.4367 0.000186429C16.2407 -0.00277631 16.4825 0.0257652 17.5048 0.365171C18.9 0.828444 19.4148 1.08844 20.6389 1.94812C23.0258 3.62438 24.5188 6.11335 24.9354 9.11057C25.0977 10.2785 24.9432 12.2215 24.5962 13.3743C24.4777 13.7683 24.3806 14.1652 24.3806 14.2562C24.3806 14.3471 24.3356 14.4216 24.2806 14.4216C24.2256 14.4216 24.1404 14.5538 24.0913 14.7155C24.0421 14.8772 23.7345 15.463 23.4076 16.0173C22.9076 16.8653 22.1546 17.7252 20.8999 18.8812C20.457 19.2894 18.4785 20.2809 17.57 20.55C16.2303 20.9469 14.5832 21.0967 13.2291 20.9447C11.7407 20.7777 11.0846 20.5809 9.41039 19.7994C6.90533 18.6302 4.74073 15.9182 3.97088 12.9844C3.66706 11.8266 3.65112 8.51712 3.94848 8.3332C4.00853 8.29607 4.05969 8.13686 4.06216 7.97942C4.06463 7.82198 4.23589 7.26388 4.44273 6.73919C4.69649 6.09551 4.75409 5.83895 4.61985 5.95045C4.51043 6.04132 4.06681 6.1275 3.63402 6.14195C3.03026 6.16209 2.78293 6.23247 2.57117 6.44436C2.29782 6.71788 2.29476 6.79124 2.24982 14.1444L2.20442 21.5682L2.57618 21.8618L2.94794 22.1554L8.03956 22.0935C10.8399 22.0594 13.2257 21.9917 13.3413 21.9431C13.4569 21.8945 13.6299 21.7079 13.7258 21.5286C13.8694 21.26 13.982 21.2094 14.3643 21.2416L14.8284 21.2806L14.866 22.5756C14.8867 23.2878 14.8562 23.918 14.7982 23.976C14.7402 24.0341 11.3869 24.1219 7.34637 24.1713L0 24.2611L0.0612802 15.6505ZM13.8679 15.8914C13.8336 15.7712 13.3604 15.7281 12.076 15.7281H10.3308L10.4448 16.022C11.0079 17.4737 12.1472 18.8828 13.1244 19.3364L13.784 19.6425L13.8493 17.8486C13.8852 16.8619 13.8936 15.9812 13.8679 15.8914H13.8679ZM18.1792 19.154C19.4406 18.4924 20.6634 17.2818 21.4681 15.8979C21.5361 15.7811 21.2747 15.7411 20.4423 15.7411C19.8279 15.7411 19.3528 15.7858 19.3865 15.8403C19.4668 15.9704 18.4694 17.9365 18.1468 18.2841C18.0091 18.4325 17.8964 18.6186 17.8964 18.6978C17.8964 18.777 17.8524 18.8616 17.7985 18.8858C17.7447 18.91 17.5546 19.0951 17.3762 19.2971L17.0518 19.6644L17.3762 19.5347C17.5546 19.4634 17.916 19.2921 18.1792 19.154V19.154ZM11.1746 19.1484C10.972 18.9457 10.5821 18.4019 10.3081 17.9399C10.0341 17.4779 9.75962 17.0398 9.69814 16.9664C9.63667 16.893 9.60815 16.7675 9.63478 16.6876C9.66142 16.6077 9.59521 16.4543 9.48774 16.3467C9.38025 16.2391 9.32866 16.1147 9.37312 16.0702C9.41758 16.0258 9.38194 15.9894 9.29391 15.9894C9.2059 15.9894 9.1702 15.9306 9.21458 15.8587C9.26586 15.7757 8.90601 15.7281 8.22721 15.7281H7.15914L7.37222 16.022C7.48941 16.1837 7.63672 16.4336 7.69959 16.5773C7.9149 17.0695 9.6873 18.6205 10.5468 19.0688C11.0193 19.3152 11.4367 19.5169 11.4743 19.5169C11.512 19.5169 11.3771 19.351 11.1746 19.1484V19.1484ZM15.5856 19.3007C16.3201 18.9206 16.7017 18.5765 17.239 17.8101C17.6714 17.1931 18.2881 16.0013 18.2881 15.7826C18.2881 15.7526 17.5244 15.7281 16.5909 15.7281H14.8937V17.6225C14.8937 18.8581 14.9414 19.5169 15.0307 19.5169C15.1061 19.5169 15.3558 19.4196 15.5856 19.3007V19.3007ZM8.70691 14.6254C8.80972 14.5892 8.78552 14.2202 8.62388 13.3593C8.49841 12.691 8.42477 12.0686 8.46022 11.9762C8.4957 11.8837 8.48786 11.6612 8.44285 11.4817C8.36277 11.1624 8.33435 11.1554 7.12323 11.1554H5.88545L5.88841 11.6453C5.89088 12.1181 6.38853 14.22 6.56096 14.4869C6.6429 14.6137 8.4154 14.7281 8.70713 14.6254H8.70691ZM13.8493 12.8471V11.1554L13.2944 11.1402C12.9892 11.1318 12.3283 11.1296 11.8257 11.1352C11.323 11.1409 10.6034 11.1478 10.2264 11.1504L9.54097 11.1554L9.54541 11.9719C9.54985 12.7318 9.79782 14.2279 9.96451 14.4988C10.0047 14.5643 10.8934 14.5999 11.9433 14.5782L13.8491 14.5388L13.8493 12.8471ZM18.7978 14.0623C18.9496 13.4082 19.195 11.7716 19.1994 11.384C19.2019 11.1754 19.0134 11.1554 17.0478 11.1554H14.8937V12.8501V14.5449L16.6888 14.5852C17.6761 14.6074 18.5221 14.6385 18.5688 14.6542C18.6155 14.67 18.7185 14.4036 18.7978 14.0623V14.0623ZM22.3475 14.0003C22.5741 13.3671 22.8575 11.9437 22.8575 11.4386C22.8575 11.1669 22.8042 11.1554 21.552 11.1554H20.2464L20.2357 11.58C20.2209 12.1679 19.9603 13.7887 19.7758 14.4414C19.7219 14.6319 19.8565 14.6549 20.9207 14.6374L22.1267 14.6175L22.3476 14.0003L22.3475 14.0003ZM8.3742 10.0775C8.37864 10.0595 8.43301 9.57453 8.49484 8.99968C8.55668 8.42482 8.64172 7.77812 8.68382 7.56254C8.80037 6.96575 8.89461 6.53805 8.95731 6.32138C9.00404 6.15988 8.82557 6.12093 7.94259 6.09991C7.23039 6.08298 6.83687 6.12678 6.76886 6.23056C6.55571 6.55587 6.03165 8.51029 5.94751 9.29363L5.85981 10.1102H7.1129C7.80209 10.1102 8.36968 10.0955 8.3742 10.0775V10.0775ZM13.8575 8.67305C13.8631 7.91856 13.8968 7.02199 13.9324 6.68067L13.9971 6.06009H12.049H10.1009L9.88532 7.07262C9.76672 7.6295 9.63785 8.3791 9.59895 8.73838C9.56007 9.09766 9.50347 9.55185 9.47323 9.74768L9.41823 10.1038L11.6328 10.0743L13.8473 10.0449L13.8575 8.67305ZM19.2016 9.48824C19.2011 8.75134 18.8457 6.63158 18.6664 6.2964C18.5542 6.08655 18.3451 6.06009 16.7986 6.06009H15.0571L14.9967 7.98715C14.9623 9.08812 14.9878 9.94838 15.0563 9.99391C15.1223 10.0378 16.0821 10.0812 17.1892 10.0905L19.202 10.1075L19.2016 9.48825L19.2016 9.48824ZM22.8472 9.22831C22.7602 8.3333 22.4107 6.83707 22.1939 6.43171C22.0986 6.25363 21.846 6.20094 20.9266 6.16736L19.7782 6.12543L20.0084 7.30127C20.135 7.94798 20.2403 8.84455 20.2425 9.29365L20.2464 10.1102H21.5897H22.9329L22.8472 9.22831ZM9.72159 4.26368C10.0426 3.60394 10.4958 2.87792 11.1816 1.92445C11.4949 1.4889 11.2258 1.47035 10.6493 1.88776C10.3628 2.09519 9.91809 2.40777 9.66098 2.58239C9.18392 2.90638 7.79029 4.37288 7.56662 4.78626C7.45396 4.99447 7.52838 5.01489 8.39946 5.01489H9.35602L9.72159 4.26368ZM13.9798 3.16416V1.33914L13.6861 1.42982C12.6507 1.74943 11.742 2.66349 10.9012 4.23101L10.5158 4.94958L12.2478 4.96938L13.9798 4.98918V3.16416ZM18.2881 4.8962C18.2881 4.82626 18.2359 4.73672 18.172 4.69723C18.1082 4.65772 18.018 4.47412 17.9716 4.2892C17.8638 3.85939 16.905 2.53758 16.3951 2.11589C16.063 1.84124 15.217 1.35675 15.0695 1.35675C15.0446 1.35675 15.0243 2.17412 15.0243 3.17313V4.98951L16.6562 5.00644C17.639 5.01667 18.2881 4.97282 18.2881 4.89621L18.2881 4.8962ZM21.113 4.55763C20.9597 4.34206 20.8308 4.13629 20.8266 4.10036C20.8222 4.06442 20.5579 3.74939 20.2389 3.40025C19.6752 2.78332 18.3529 1.84165 17.5807 1.50728C17.2228 1.35232 17.2106 1.35661 17.3785 1.57816C17.4768 1.70788 17.6189 1.87281 17.6942 1.94466C17.9714 2.2091 18.5492 3.04196 18.5492 3.17711C18.5492 3.25376 18.6016 3.31647 18.6656 3.31647C18.7296 3.31647 18.8223 3.47815 18.8716 3.67575C18.9209 3.87336 19.0769 4.22287 19.2184 4.45244C19.4823 4.88096 19.7258 4.94958 20.9822 4.94958H21.3916L21.113 4.55763Z" fill="#3F6587"/>
</g>
<defs>
<clipPath id="clip0_5838_134237">
<rect width="25" height="24.2611" fill="white"/>
</clipPath>
</defs>
</svg>
