<svg width="25" height="25" viewBox="0 0 25 25" fill="none" xmlns="http://www.w3.org/2000/svg">
<path d="M21.3016 21.3014H17.5973V15.5003C17.5973 14.117 17.5726 12.3362 15.6707 12.3362C13.7413 12.3362 13.4461 13.8434 13.4461 15.3996V21.301H9.74191V9.37161H13.298V11.0019H13.3478C14.0719 9.76387 15.4231 9.02171 16.8565 9.07494C20.6109 9.07494 21.3032 11.5444 21.3032 14.7572L21.3016 21.3014ZM5.56224 7.74091C5.56202 7.74091 5.56179 7.74091 5.56179 7.74091C4.38252 7.74091 3.41213 6.77063 3.41213 5.59136C3.41213 4.41209 4.38252 3.4417 5.56179 3.4417C6.74095 3.4417 7.71123 4.41186 7.71145 5.59091C7.71145 5.59091 7.71145 5.59113 7.71145 5.59136C7.71145 6.77041 6.74129 7.7408 5.56224 7.74091ZM7.41434 21.3014H3.70622V9.37161H7.41434V21.3014ZM23.1482 0.00172472H1.84472C0.844702 -0.00956928 0.0121886 0.803597 0 1.80362V23.1956C0.0117413 24.1961 0.844143 25.0102 1.84472 24.9995H23.1482C24.1513 25.0121 24.9866 24.1982 25 23.1956V1.80216C24.9866 0.800018 24.1502 -0.0130366 23.1482 0.000158366V0.00172472Z" fill="#3F6587"/>
</svg>
