<svg width="25" height="22" viewBox="0 0 25 22" fill="none" xmlns="http://www.w3.org/2000/svg">
<path d="M21.1223 6.95827C19.9541 6.95827 18.7335 6.57055 18.7335 6.57055C18.7335 6.57055 16.994 6.03142 15.7226 6.03142C13.8087 6.03142 12.4996 7.61002 12.4996 7.61002V6.32927C12.4996 6.32927 13.7546 4.84544 15.7181 4.84544C16.4313 4.84544 17.343 4.88425 18.8553 5.34098C20.3679 5.7984 21.1556 5.74179 21.1556 5.74179C22.8696 5.74179 24.5412 5.15432 24.9993 4.97968V3.22354C24.5106 3.3776 22.6665 3.92802 21.1223 3.92802C19.9541 3.92802 18.7335 3.54031 18.7335 3.54031C18.7335 3.54031 16.994 3.00147 15.7227 3.00147C13.8089 3.00147 12.4997 4.57968 12.4997 4.57968V3.2988C12.4997 3.2988 13.7547 1.81532 15.7182 1.81532C16.4314 1.81532 17.3432 1.8534 18.8554 2.31082C20.368 2.76794 21.1557 2.71163 21.1557 2.71163C22.8698 2.71163 24.5413 2.12381 24.9994 1.94913V0.00926207C24.9994 0.00926207 22.9103 0.868179 21.0932 0.868179C19.2758 0.868179 18.1678 0 16.133 0C14.0987 0 12.4999 1.37436 12.4999 1.37436C12.4999 1.37436 10.9004 0 8.86617 0C6.83127 0 5.72322 0.868179 3.90687 0.868179C2.09051 0.868179 0 0.00926207 0 0.00926207V20.1523C0 20.1523 1.88912 20.9412 3.77888 20.9412C5.30462 20.9412 7.28089 19.8303 8.65848 19.9196C9.88603 19.9999 10.6097 20.5616 11.1601 21.2665C11.2826 21.4871 11.5318 21.4989 11.5318 21.4989H13.4693C13.4693 21.4989 13.7149 21.4872 13.8405 21.2665C14.391 20.5617 15.1144 19.9999 16.3415 19.9196C17.7193 19.8303 19.4742 20.9212 21.2219 20.9412C23.1646 20.9635 24.9998 20.1523 24.9998 20.1523V18.374C24.5111 18.5288 22.667 19.0782 21.1228 19.0782C19.9547 19.0782 18.734 18.6911 18.734 18.6911C18.734 18.6911 16.9946 18.1516 15.7231 18.1516C13.8093 18.1516 12.5002 19.7303 12.5002 19.7303V18.4496C12.5002 18.4496 13.7551 16.9653 15.7187 16.9653C16.4319 16.9653 17.3436 17.0042 18.8558 17.4613C20.3684 17.9187 21.1561 17.8621 21.1561 17.8621C22.8702 17.8621 24.5418 17.2743 24.9999 17.0996V15.3428C24.5112 15.4979 22.6671 16.0481 21.1229 16.0481C19.9547 16.0481 18.7341 15.6606 18.7341 15.6606C18.7341 15.6606 16.9946 15.1211 15.7232 15.1211C13.8094 15.1211 12.5002 16.6993 12.5002 16.6993V15.4186C12.5002 15.4186 13.7552 13.9355 15.7187 13.9355C16.4319 13.9355 17.3436 13.9739 18.8559 14.4313C20.3685 14.8878 21.1562 14.8311 21.1562 14.8311C22.8702 14.8311 24.5418 14.2439 24.9999 14.0693V12.3129C24.5112 12.4677 22.6671 13.0175 21.1229 13.0175C19.9548 13.0175 18.7341 12.6307 18.7341 12.6307C18.7341 12.6307 16.9946 12.0909 15.7232 12.0909C13.8094 12.0909 12.5003 13.6698 12.5003 13.6698V12.3885C12.5003 12.3885 13.7552 10.9053 15.7188 10.9053C16.4319 10.9053 17.3437 10.9441 18.8559 11.4012C20.3685 11.8579 21.1562 11.8013 21.1562 11.8013C22.8703 11.8013 24.5418 11.2132 25 11.0392V9.28318C24.5113 9.43762 22.6672 9.98808 21.1229 9.98808C19.9548 9.98808 18.7341 9.59994 18.7341 9.59994C18.7341 9.59994 16.9947 9.0608 15.7232 9.0608C13.8094 9.0608 12.5003 10.6397 12.5003 10.6397V9.35835C12.5003 9.35835 13.7552 7.87487 15.7188 7.87487C16.432 7.87487 17.3437 7.91364 18.856 8.37071C20.3686 8.82783 21.1562 8.77187 21.1562 8.77187C22.8703 8.77187 24.5419 8.18336 25 8.00932V6.2531C24.511 6.40776 22.6672 6.95831 21.1229 6.95831L21.1223 6.95827Z" fill="#3F6587"/>
</svg>
