<svg width="124" height="57" viewBox="0 0 124 57" fill="none" xmlns="http://www.w3.org/2000/svg">
<g clip-path="url(#clip0_5842_137069)">
<path d="M4.25671 15.9618C4.25671 10.4717 7.51134 6.85547 12.8042 6.85547C15.9273 6.85547 18.5573 8.10472 20.3655 10.1101C21.8777 7.97322 24.1132 6.85547 27.1048 6.85547C29.7019 6.85547 32.0032 7.77597 33.5154 9.38684V7.38147H39.2028V30.0323H32.9894V16.8166C32.9894 14.1208 31.3457 12.4113 28.8143 12.4113C26.3816 12.4113 24.7707 14.1208 24.7707 16.8166V29.9994H18.6231V16.6851C18.6231 14.1537 16.8807 12.4442 14.448 12.4442C12.0152 12.4442 10.4043 14.1537 10.4043 16.8495V30.0323H4.25671V15.9618Z" fill="#222220"/>
<path d="M65.5357 7.34859V27.501C65.5357 34.8649 60.9004 38.8099 53.8322 38.8099C49.5914 38.8099 45.8765 37.3963 42.7205 34.6019L45.9751 30.2953C48.5065 32.1692 50.6105 33.2212 53.3391 33.2212C56.9882 33.2212 59.3881 31.3802 59.3881 27.8626V26.6133C57.7444 28.3886 55.3445 29.3091 52.4844 29.3091C46.2052 29.3091 41.6356 24.6737 41.6356 18.0658C41.6356 11.3265 46.3039 6.85547 52.4844 6.85547C55.739 6.85547 58.3032 8.03897 59.9141 10.2087V7.38147H65.5357V7.34859ZM53.7336 12.1155C50.3804 12.1155 47.8819 14.351 47.8819 18.033C47.8819 21.6821 50.4461 24.1148 53.7336 24.1148C56.8567 24.1148 59.4539 21.8793 59.4539 17.9672C59.4539 14.0551 56.8896 12.1155 53.7336 12.1155Z" fill="#222220"/>
<path d="M104.295 29.9995H98.1149V16.8166C98.1149 14.1209 96.504 12.4114 94.0713 12.4114C91.6385 12.4114 89.8961 14.1538 89.8961 16.6522V29.9666H83.7156V16.8166C83.7156 14.1209 82.1048 12.4114 79.672 12.4114C77.1407 12.4114 75.4969 14.1209 75.4969 16.8166V29.9995H69.3164V7.34863H75.0695V9.354C76.5818 7.74313 78.883 6.82263 81.4801 6.82263C84.4389 6.82263 86.7073 7.90751 88.2195 10.0773C89.9948 8.07188 92.6576 6.82263 95.7808 6.82263C101.074 6.82263 104.328 10.4389 104.328 15.929V29.9995H104.295Z" fill="#222220"/>
<path d="M107.287 22.0437C107.287 27.731 110.64 30.5583 116.36 30.5583C117.478 30.5583 118.596 30.4268 119.779 30.1966V24.9038C118.662 25.0024 117.971 25.0353 117.675 25.0353C114.749 25.0353 113.467 24.0819 113.467 21.5177V12.5757H119.878V7.34854H113.467V1.6283H107.287V22.0437Z" fill="#222220"/>
<path d="M36.1777 46.5026L32.8245 54.1953H32.2985L28.9124 46.5026H30.6547L32.5615 51.0722L34.4354 46.5026H36.1777Z" fill="#00B89D"/>
<path d="M38.5778 46.5026H43.6734V47.9162H40.1229V49.4613H42.72V50.7763H40.1229V52.6831H43.8049V54.0967H38.5778V46.5026Z" fill="#00B89D"/>
<path d="M52.9438 46.5026V54.1953H52.4178L48.0783 49.5271V54.0638H46.5332V46.3711H47.0263L51.4316 51.0393V46.5355H52.9438V46.5026Z" fill="#00B89D"/>
<path d="M57.7767 47.9162H55.344V46.5026H61.7546V47.9162H59.3219V54.0967H57.7767V47.9162Z" fill="#00B89D"/>
<path d="M64.0886 46.5026H65.6337V51.0393C65.6337 52.1242 66.3241 52.7488 67.3104 52.7488C68.2966 52.7488 68.987 52.1242 68.987 51.0393V46.5026H70.5321V50.9407C70.5321 52.9461 69.1514 54.1953 67.3104 54.1953C65.4694 54.1953 64.0886 52.9461 64.0886 50.9407V46.5026V46.5026Z" fill="#00B89D"/>
<path d="M78.192 54.0966L76.2196 51.4338H75.0689V54.0966H73.5238V46.5354H76.351C77.929 46.5354 79.0797 47.5217 79.0797 48.9682C79.0797 49.9215 78.5865 50.7105 77.7647 51.1379L79.9015 54.0966H78.192ZM75.0689 50.053H76.351C77.0743 50.053 77.5017 49.6257 77.5017 48.9682C77.5017 48.3107 77.0414 47.8833 76.351 47.8833H75.0689V50.053Z" fill="#00B89D"/>
<path d="M82.2356 46.5026H87.3312V47.9162H83.7807V49.4613H86.3778V50.7763H83.7807V52.6831H87.4627V54.0967H82.2356V46.5026V46.5026Z" fill="#00B89D"/>
<path d="M90.7172 51.7297C91.2104 52.4201 91.7364 52.8146 92.5582 52.8146C93.2486 52.8146 93.6431 52.4858 93.6431 51.9927C93.6431 51.5325 93.413 51.401 92.6897 51.0393L91.8679 50.6777C90.7172 50.1517 90.0269 49.4942 90.0269 48.508C90.0269 47.2258 91.1117 46.3711 92.5254 46.3711C93.676 46.3711 94.5636 46.93 95.0239 47.8176L93.9719 48.6395C93.5774 48.0477 93.1171 47.7518 92.5254 47.7518C91.9994 47.7518 91.572 48.0148 91.572 48.4751C91.572 48.8696 91.8021 49.0668 92.4596 49.3627L93.3144 49.7243C94.5965 50.2832 95.1882 50.9078 95.1882 51.927C95.1882 53.3077 94.0376 54.1953 92.5254 54.1953C91.2432 54.1953 90.1912 53.5378 89.5995 52.5187L90.7172 51.7297Z" fill="#00B89D"/>
<path d="M119.878 49.6914H99.1334V50.8749H119.878V49.6914Z" fill="#00B89D"/>
<path d="M25.0006 49.6914H4.25647V50.8749H25.0006V49.6914Z" fill="#00B89D"/>
</g>
<defs>
<clipPath id="clip0_5842_137069">
<rect width="122.624" height="56.3019" fill="white" transform="translate(0.771362)"/>
</clipPath>
</defs>
</svg>
