<svg width="25" height="29" viewBox="0 0 25 29" fill="none" xmlns="http://www.w3.org/2000/svg">
<path d="M12.0079 11.8666L6.7126 15.0162V19.3629C6.725 19.4944 6.725 19.6267 6.7126 19.7581C6.59055 20.2738 6.07481 20.7144 5.5315 21.0779C4.58465 21.7142 3.46063 21.6786 2.97245 20.9436C2.48426 20.2086 2.80709 19.0112 3.75985 18.375C4.21387 18.0433 4.77852 17.9016 5.33465 17.9799V7.96449C5.33353 7.94343 5.33353 7.92232 5.33465 7.90126C5.33371 7.88349 5.33371 7.86569 5.33465 7.84792C5.33899 7.82988 5.34425 7.81207 5.3504 7.79457C5.3527 7.78686 5.3562 7.77946 5.35961 7.77224C5.36495 7.76094 5.37008 7.75009 5.37008 7.73925C5.37778 7.72236 5.38632 7.70588 5.39567 7.68985C5.40456 7.67283 5.41442 7.65634 5.4252 7.64046C5.43251 7.62871 5.442 7.61805 5.45124 7.60768C5.45444 7.60409 5.4576 7.60054 5.46063 7.59699C5.47237 7.58188 5.48485 7.56737 5.49803 7.55352L5.53937 7.51993C5.55564 7.50576 5.57273 7.49256 5.59055 7.48042H5.60236L12.0079 3.55646L12.0079 0L0 6.91534V21.5363L12.0079 28.4517V11.8666Z" fill="#3F6587"/>
<path d="M12.0079 10.4718L6.69292 13.6331V11.2621L12.0079 8.10082V10.4718Z" fill="#3F6587"/>
<path d="M17.1358 10.3117C17.0825 10.3445 17.0373 10.3891 17.0039 10.4421C16.9456 10.5361 16.9266 10.6494 16.9509 10.7574C16.9752 10.8654 17.0409 10.9594 17.1339 11.0191C17.1997 11.0613 17.2762 11.0839 17.3543 11.0843C17.4184 11.084 17.4815 11.0689 17.5388 11.04C17.5961 11.0112 17.6459 10.9694 17.6845 10.918C17.723 10.8666 17.7491 10.807 17.7609 10.7437C17.7726 10.6805 17.7696 10.6154 17.7521 10.5535C17.7346 10.4917 17.7031 10.4347 17.66 10.3871C17.6169 10.3395 17.5634 10.3025 17.5038 10.2791C17.4441 10.2557 17.3798 10.2465 17.316 10.2521C17.2521 10.2578 17.1905 10.2782 17.1358 10.3117Z" fill="#3F6587"/>
<path d="M17.9994 6.63382C18.1063 6.60984 18.1998 6.54498 18.2598 6.45299V6.45496C18.2894 6.40893 18.3095 6.35743 18.319 6.30347C18.3285 6.24952 18.3271 6.19422 18.315 6.14081C18.3004 6.0748 18.2701 6.01333 18.2266 5.9617C18.1832 5.91007 18.1278 5.86982 18.0654 5.84442C18.003 5.81903 17.9354 5.80925 17.8683 5.81593C17.8013 5.82262 17.7369 5.84556 17.6807 5.88278C17.6245 5.92 17.5781 5.97038 17.5456 6.02959C17.5131 6.0888 17.4954 6.15505 17.4941 6.22264C17.4928 6.29023 17.5079 6.35712 17.538 6.41756C17.5682 6.478 17.6126 6.53016 17.6673 6.56956L17.687 6.58142C17.7804 6.639 17.8924 6.6578 17.9994 6.63382Z" fill="#3F6587"/>
<path fill-rule="evenodd" clip-rule="evenodd" d="M12.9921 21.9315V13.6396C13.6357 13.7002 13.932 14.0135 14.2382 14.3641L14.239 14.3651C14.5458 14.7165 14.8627 15.0794 15.4705 15.111C15.8802 15.1323 16.1989 15.1213 16.4805 15.1115L16.4961 15.111C17.0152 15.0721 17.5372 15.1188 18.0413 15.2493C18.5551 15.3757 20.4232 17.1599 20.9488 18.0787C20.9272 18.1063 20.9055 18.134 20.8878 18.1636C20.7225 18.4245 20.6634 18.7392 20.7228 19.0426C20.7821 19.346 20.9554 19.6149 21.2067 19.7937L21.2618 19.8312C21.4197 19.9316 21.5987 19.9937 21.7847 20.0127C21.9706 20.0317 22.1584 20.0069 22.3332 19.9405C22.508 19.874 22.665 19.7676 22.7918 19.6298C22.9186 19.4919 23.0116 19.3263 23.0636 19.1461C23.1156 18.9659 23.1252 18.776 23.0914 18.5915C23.0577 18.407 22.9816 18.2328 22.8693 18.0829C22.7569 17.933 22.6114 17.8113 22.4441 17.7276C22.2768 17.6439 22.0924 17.6004 21.9055 17.6005C21.8032 17.6008 21.7013 17.6141 21.6023 17.64C21.0984 16.8122 19.8996 15.5733 19.0059 14.9154C19.2998 14.8081 19.5784 14.6626 19.8346 14.4827C20.1177 14.2681 20.4477 14.1245 20.7972 14.0638C20.8827 14.2748 21.0269 14.4565 21.2126 14.5874L21.2677 14.6249C21.4256 14.7253 21.6046 14.7875 21.7906 14.8064C21.9766 14.8254 22.1644 14.8007 22.3392 14.7342C22.514 14.6678 22.671 14.5614 22.7977 14.4235C22.9245 14.2856 23.0176 14.1201 23.0696 13.9398C23.1216 13.7596 23.1311 13.5698 23.0973 13.3852C23.0636 13.2007 22.9876 13.0266 22.8752 12.8766C22.7628 12.7267 22.6173 12.6051 22.45 12.5213C22.2827 12.4376 22.0983 12.3941 21.9114 12.3943H21.8386C21.6749 11.6618 21.6749 10.902 21.8386 10.1695H21.9055C22.1863 10.1699 22.4584 10.0718 22.6748 9.89229C22.8912 9.71273 23.0383 9.46295 23.0907 9.18609C23.1432 8.90923 23.0976 8.62269 22.9619 8.37596C22.8262 8.12924 22.609 7.93783 22.3476 7.8348C22.0863 7.73177 21.7973 7.7236 21.5306 7.8117C21.2639 7.89979 21.0362 8.07862 20.8869 8.31729C20.7376 8.55595 20.6761 8.83947 20.7129 9.11885C20.7497 9.39823 20.8826 9.65593 21.0886 9.84743L21.1023 9.85929C20.8603 10.7935 20.8603 11.7742 21.1023 12.7084C21.0933 12.7168 21.0841 12.725 21.0748 12.7332C21.0557 12.7502 21.0363 12.7675 21.0177 12.7874C20.972 12.8379 20.9305 12.8921 20.8937 12.9495C20.8327 13.0464 20.7856 13.1515 20.7539 13.2616C20.2711 13.3327 19.8129 13.5213 19.4193 13.8109C19.0256 14.0717 18.6319 14.3187 17.5216 14.3384C17.1712 14.3015 16.8183 14.2936 16.4665 14.3147L16.4307 14.316C16.1602 14.3256 15.8775 14.3355 15.5118 14.3147C15.25 14.3009 15.0984 14.1409 14.8307 13.8366C14.4771 13.4323 14.0018 12.9198 12.9921 12.8491V0L25 6.91534V21.5363L12.9921 28.4517V22.7218C13.2826 22.6935 13.5658 22.6139 13.8287 22.4867C14.881 22.2182 15.1747 22.4172 15.4835 22.6265L15.4843 22.627C15.7253 22.8171 16.0172 22.9312 16.3228 22.955H16.3839C16.8578 22.9131 17.3225 22.7985 17.7618 22.6151C17.9893 22.8356 18.294 22.9576 18.6102 22.955C18.8404 22.9546 19.0657 22.8881 19.2594 22.7633C19.4531 22.6384 19.6071 22.4605 19.7032 22.2506C19.7993 22.0406 19.8334 21.8074 19.8016 21.5786C19.7698 21.3498 19.6733 21.1349 19.5236 20.9594V20.9653C19.3551 20.768 19.1278 20.6304 18.8753 20.5729C18.6227 20.5154 18.3585 20.5411 18.1217 20.6462C17.8848 20.7513 17.6881 20.9302 17.5605 21.1564C17.4329 21.3826 17.3813 21.644 17.4134 21.9018C17.0775 22.0378 16.7244 22.1262 16.3642 22.1646C16.2016 22.146 16.0488 22.0769 15.9272 21.9671C15.684 21.788 15.4055 21.6633 15.1102 21.6015C15.8419 20.8841 16.4176 20.0223 16.8012 19.0705C17.0101 19.0631 17.2135 19.0012 17.3913 18.8909C17.5692 18.7807 17.7154 18.6259 17.8157 18.4418C17.9159 18.2576 17.9666 18.0505 17.9629 17.8407C17.9592 17.6309 17.9012 17.4257 17.7946 17.2453C17.688 17.0648 17.5364 16.9153 17.3547 16.8114C17.1731 16.7076 16.9677 16.6529 16.7586 16.6529C16.5496 16.6528 16.3441 16.7074 16.1625 16.8112C15.9808 16.915 15.8291 17.0644 15.7224 17.2449C15.5691 17.5027 15.5169 17.8085 15.5758 18.1029C15.6348 18.3972 15.8007 18.659 16.0413 18.8374C15.2441 20.6591 14.2264 21.4217 13.5669 21.7379C13.5423 21.7467 13.5185 21.7579 13.4961 21.7714C13.335 21.8448 13.1659 21.8985 12.9921 21.9315ZM18.8604 5.48398C18.9694 5.62507 19.046 5.78865 19.0846 5.96299L19.0886 5.96892C19.1275 6.14609 19.1263 6.32978 19.085 6.50642C19.0437 6.68305 18.9634 6.84812 18.85 6.98942C18.7366 7.13073 18.5931 7.24466 18.4299 7.3228C18.2668 7.40095 18.0882 7.4413 17.9075 7.44089C17.7894 7.44027 17.672 7.42229 17.559 7.38755C17.1565 7.86519 16.6245 8.21525 16.0276 8.39521C16.4305 8.70753 16.7848 9.07846 17.0787 9.49574C17.3926 9.4217 17.723 9.47495 17.998 9.64392C18.1993 9.77173 18.3583 9.95654 18.455 10.175C18.5517 10.3935 18.5816 10.6359 18.5411 10.8714C18.5006 11.107 18.3915 11.3252 18.2275 11.4986C18.0634 11.6719 17.8519 11.7925 17.6196 11.8453C17.3873 11.898 17.1446 11.8804 16.9222 11.7947C16.6999 11.709 16.5078 11.5591 16.3703 11.3639C16.2328 11.1687 16.156 10.937 16.1497 10.698C16.1433 10.4591 16.2077 10.2236 16.3346 10.0213C16.3577 9.98445 16.3827 9.94884 16.4094 9.91461C15.9742 9.31325 15.3899 8.83648 14.7146 8.53154C14.1725 8.28171 13.5893 8.13372 12.9941 8.09489V7.30456C13.6721 7.33928 14.3386 7.49448 14.9626 7.76295C15.3296 7.76666 15.6934 7.69315 16.0304 7.54716C16.3674 7.40117 16.6702 7.18594 16.9193 6.91533C16.8178 6.76867 16.7498 6.60126 16.7204 6.42513C16.691 6.249 16.7009 6.06852 16.7492 5.89665C16.7976 5.72479 16.8833 5.56581 17.0001 5.43114C17.117 5.29647 17.2621 5.18945 17.4251 5.11778C17.5881 5.0461 17.7648 5.01155 17.9427 5.0166C18.1205 5.02166 18.2951 5.06619 18.4537 5.147C18.6124 5.22781 18.7513 5.34289 18.8604 5.48398Z" fill="#3F6587"/>
<path d="M21.561 8.74493C21.5902 8.69861 21.6282 8.65853 21.6729 8.62696C21.7175 8.59539 21.7679 8.57296 21.8212 8.56094C21.8745 8.54892 21.9296 8.54755 21.9834 8.55692C22.0372 8.56628 22.0887 8.58619 22.1348 8.61551C22.181 8.64483 22.2209 8.68299 22.2524 8.7278C22.2838 8.77261 22.3062 8.8232 22.3181 8.87668C22.3301 8.93017 22.3315 8.98549 22.3222 9.0395C22.3128 9.09351 22.293 9.14515 22.2638 9.19146C22.2037 9.28345 22.1103 9.34831 22.0033 9.37229C21.8964 9.39627 21.7843 9.37747 21.6909 9.31989L21.6732 9.30804C21.5863 9.24685 21.5262 9.15446 21.5053 9.05C21.4844 8.94553 21.5044 8.83701 21.561 8.74691L21.561 8.74493Z" fill="#3F6587"/>
<path d="M21.561 13.3802C21.5902 13.3339 21.6282 13.2938 21.6729 13.2622C21.7175 13.2306 21.7679 13.2082 21.8212 13.1962C21.8745 13.1842 21.9296 13.1828 21.9834 13.1922C22.0372 13.2015 22.0887 13.2214 22.1348 13.2508C22.181 13.2801 22.2209 13.3182 22.2524 13.3631C22.2838 13.4079 22.3062 13.4585 22.3181 13.5119C22.3301 13.5654 22.3315 13.6207 22.3222 13.6748C22.3128 13.7288 22.293 13.7804 22.2638 13.8267C22.2037 13.9187 22.1103 13.9836 22.0033 14.0075C21.8964 14.0315 21.7843 14.0127 21.6909 13.9551L21.6732 13.9433C21.5863 13.8821 21.5262 13.7897 21.5053 13.6852C21.4844 13.5808 21.5044 13.4723 21.561 13.3822L21.561 13.3802Z" fill="#3F6587"/>
<path d="M21.561 18.5766C21.5902 18.5302 21.6282 18.4902 21.6729 18.4586C21.7175 18.427 21.7679 18.4046 21.8212 18.3926C21.8745 18.3806 21.9296 18.3792 21.9834 18.3885C22.0372 18.3979 22.0887 18.4178 22.1348 18.4471C22.181 18.4765 22.2209 18.5146 22.2524 18.5594C22.2838 18.6042 22.3062 18.6548 22.3181 18.7083C22.3301 18.7618 22.3315 18.8171 22.3222 18.8711C22.3128 18.9251 22.293 18.9768 22.2638 19.0231C22.2037 19.1151 22.1103 19.1799 22.0033 19.2039C21.8964 19.2279 21.7843 19.2091 21.6909 19.1515L21.6732 19.1397C21.5867 19.0782 21.5269 18.9858 21.506 18.8815C21.4852 18.7772 21.5048 18.6688 21.561 18.5785L21.561 18.5766Z" fill="#3F6587"/>
<path d="M16.6152 17.4708C16.5248 17.5037 16.4487 17.567 16.3996 17.6499C16.3716 17.697 16.3532 17.7492 16.3455 17.8034C16.3377 17.8577 16.3407 17.913 16.3543 17.966C16.3781 18.0595 16.4335 18.1417 16.5109 18.1988C16.5884 18.2559 16.6831 18.2842 16.7791 18.2791C16.875 18.2739 16.9662 18.2355 17.0371 18.1704C17.108 18.1053 17.1542 18.0175 17.1679 17.9221C17.1815 17.8266 17.1618 17.7294 17.1121 17.6469C17.0623 17.5644 16.9856 17.5017 16.895 17.4696C16.8044 17.4375 16.7055 17.438 16.6152 17.4708Z" fill="#3F6587"/>
<path d="M18.6102 22.1686C18.7093 22.1689 18.8051 22.1331 18.8799 22.0678C18.9215 22.0323 18.9556 21.9889 18.9802 21.94C19.0049 21.8912 19.0197 21.8379 19.0236 21.7833C19.028 21.7259 19.0204 21.6681 19.0015 21.6137C18.9826 21.5594 18.9528 21.5095 18.9138 21.4672C18.8748 21.4249 18.8275 21.3912 18.775 21.368C18.7224 21.3449 18.6657 21.3329 18.6083 21.3328C18.5092 21.3325 18.4134 21.3684 18.3386 21.4336C18.2735 21.489 18.2269 21.5631 18.2053 21.646C18.1836 21.7288 18.1879 21.8164 18.2176 21.8967C18.2473 21.977 18.3009 22.0462 18.3712 22.0949C18.4414 22.1435 18.5249 22.1692 18.6102 22.1686Z" fill="#3F6587"/>
</svg>
