<svg width="25" height="25" viewBox="0 0 25 25" fill="none" xmlns="http://www.w3.org/2000/svg">
<g clip-path="url(#clip0_5838_134583)">
<path d="M0.859375 6.25489C0.327149 6.54786 0 7.1045 0 7.70997C0 8.63282 0.742188 9.37501 1.66504 9.37501H23.3369C24.2554 9.37501 25 8.63282 25 7.70997C25 7.1045 24.6707 6.54786 24.1401 6.25489L13.0664 0.145803C12.7148 -0.0486011 12.2852 -0.0486011 11.9336 0.145803L0.859375 6.25489ZM14.0625 6.25C14.0625 5.38575 13.3643 4.6875 12.5 4.6875C11.6357 4.6875 10.9375 5.38575 10.9375 6.25C10.9375 6.53321 11.0156 6.80176 11.1475 7.03125H4.30664L12.5 2.51026L20.6943 7.03125H13.8525C13.9844 6.80176 14.0625 6.53321 14.0625 6.25ZM21.875 10.9375H19.5312V18.75H16.4062V10.9375H14.0625V18.75H10.9375V10.9375H8.59375V18.75H5.46875V10.9375H3.125V18.75H2.73438C2.08496 18.75 1.5625 19.2725 1.5625 19.9219C1.5625 20.5713 2.08496 21.0938 2.73438 21.0938H21.875C22.522 21.0938 23.0469 20.5713 23.0469 19.9219C23.0469 19.2725 22.522 18.75 21.875 18.75V10.9375ZM1.17188 22.6563C0.522461 22.6563 0 23.1787 0 23.8281C0 24.4775 0.522461 25 1.17188 25H23.4375C24.0845 25 24.6094 24.4775 24.6094 23.8281C24.6094 23.1787 24.0845 22.6563 23.4375 22.6563H1.17188Z" fill="#3F6587"/>
</g>
<defs>
<clipPath id="clip0_5838_134583">
<rect width="25" height="25" fill="white" transform="matrix(-1 0 0 1 25 0)"/>
</clipPath>
</defs>
</svg>
