<svg width="22" height="22" viewBox="0 0 22 22" fill="none" xmlns="http://www.w3.org/2000/svg">
<path d="M11.0228 0.145508L10.4747 0.158004L9.92709 0.201824L9.65971 0.229726L9.65594 0.230239L9.38668 0.267726L9.38138 0.26824L8.84869 0.365469L8.32318 0.485459L7.8064 0.632328L7.30315 0.805726L6.81085 1.00069L6.32934 1.21843L5.85981 1.46064L5.40465 1.72134L4.96388 2.00447L4.5368 2.30591L4.12444 2.63011L3.73142 2.97297L3.35142 3.33381L2.99315 3.71142L2.64926 4.10478L2.32848 4.51662L2.02413 4.94388L1.74134 5.3802L1.4774 5.83723L1.23758 6.30625L1.01711 6.79085L0.825914 7.28451L0.652858 7.7864L0.505138 8.30318L0.382239 8.82851L0.288436 9.36069L0.218939 9.90502L0.178029 10.455L0.162109 11.0151L0.178029 11.5714L0.218939 12.1209L0.288436 12.6623L0.382239 13.1934L0.505138 13.7198L0.652858 14.2362L0.825914 14.7385L1.01711 15.2332L1.2381 15.7138L1.4774 16.1825L1.74085 16.6385L2.02414 17.0787L2.32849 17.5055L2.64927 17.9182L2.99265 18.3112L3.35144 18.6921L3.73144 19.05L4.12446 19.3929L4.53682 19.7141L4.9639 20.0185L5.40313 20.3008L5.86016 20.5656L6.32935 20.805L6.81086 21.0247L7.30418 21.2162L7.80641 21.3896L8.32319 21.537L8.84869 21.6604L9.38379 21.7547L9.92418 21.8235L10.4747 21.865L11.0281 21.8804L11.5882 21.865L12.1376 21.8235L12.682 21.7547L13.2145 21.6604L13.74 21.537L14.2557 21.3893L14.7581 21.2162L15.2523 21.0246L15.7364 20.805L16.2054 20.5661L16.6619 20.3007L17.0993 20.0175L17.5255 19.7141L17.9382 19.3928L18.3312 19.05L18.7083 18.6921L19.0705 18.3112L19.4131 17.9187L19.7376 17.5055L20.039 17.0787L20.3223 16.638L20.5829 16.1828L20.8256 15.7138L21.0428 15.2321L21.2369 14.739L21.4098 14.2362L21.5582 13.7198L21.6772 13.1945L21.7754 12.6623L21.8408 12.1208L21.8851 11.5714L21.8971 11.0151L21.8851 10.455L21.8418 9.9074L21.8134 9.63678L21.8129 9.63182L21.7754 9.36359L21.7744 9.35828L21.6772 8.82901L21.5582 8.3035L21.4098 7.78638L21.238 7.28648L21.0434 6.79332L20.8262 6.30924L20.5834 5.83971L20.3224 5.38353L20.0398 4.94721L19.7377 4.5191L19.4136 4.10674L19.0708 3.71337L18.7091 3.33628L18.3318 2.97544L17.9393 2.63258L17.5266 2.30889L17.099 2.00694L16.6625 1.72415L16.206 1.46277L15.7373 1.2209L15.2529 1.00316L14.7597 0.808198L14.2565 0.635308L13.7392 0.48793L13.2152 0.367941L12.6844 0.270711L12.4157 0.233053L12.4117 0.23271L12.1397 0.204809L12.1377 0.204295L11.5882 0.160474L11.0287 0.147978H11.0233L11.0228 0.145508ZM11.0281 0.39114L11.0342 0.636772L11.0288 0.636943L11.5632 0.649267L12.0914 0.691719L12.3511 0.718593L12.6058 0.753855L13.1159 0.847657L13.6167 0.961828L14.1085 1.10254L14.5887 1.26772L15.0606 1.45414L15.5234 1.66108L15.9704 1.89285L16.4058 2.14173L16.8228 2.41202L17.2323 2.70096L17.6243 3.00925L17.9995 3.3362L18.3607 3.68197L18.7064 4.0428L19.0335 4.41801L19.3427 4.81103L19.6311 5.2198L19.9009 5.63746L20.1503 6.07224L20.3826 6.5197L20.5892 6.98204L20.7756 7.45414L20.9408 7.9348L21.0813 8.42607L21.1955 8.92778L21.2884 9.43685L21.325 9.69225L21.3519 9.95175L21.393 10.4802L21.406 11.0153L21.393 11.5464L21.3519 12.0719L21.2884 12.5887L21.1955 13.0949L21.0813 13.5971L20.9408 14.088L20.7756 14.5687L20.5892 15.0411L20.3826 15.5L20.1513 15.9475L19.9009 16.3828L19.6311 16.8039L19.3427 17.2118L19.0335 17.6051L18.7064 17.9804L18.3607 18.3436L18 18.6865L17.6253 19.0139L17.2323 19.3193L16.8228 19.6116L16.4048 19.8818L15.9704 20.1337L15.5234 20.3624L15.0616 20.5716L14.5887 20.7551L14.1085 20.9203L13.6162 21.0613L13.1149 21.1784L12.6082 21.269L12.089 21.3349L11.5632 21.3739L11.0281 21.3888L10.4997 21.3739L9.97381 21.3349L9.45737 21.269L8.94796 21.1784L8.44659 21.0613L7.95481 20.9203L7.47312 20.7551L7.00171 20.5716L6.54313 20.3624L6.09568 20.1337L5.66038 19.8814L5.23981 19.6111L4.83104 19.3193L4.43751 19.0139L4.0623 18.6859L3.69924 18.3436L3.35724 17.9814L3.02927 17.6057L2.72287 17.2118L2.43101 16.8028L2.16141 16.3828L1.90944 15.9475L1.68075 15.5L1.47021 15.0411L1.28774 14.5695L1.12255 14.088L0.981337 13.5967L0.864424 13.0949L0.774732 12.5887L0.708316 12.0719L0.669802 11.5464L0.654397 11.0153L0.669802 10.4802L0.708316 9.95414L0.774732 9.43445L0.864424 8.92778L0.981337 8.42693L1.12255 7.9348L1.28774 7.45364L1.47021 6.98205L1.68127 6.52022L1.90944 6.07226L2.16089 5.63799L2.431 5.22033L2.72286 4.81105L3.02926 4.41752L3.35671 4.04231L3.69872 3.68199L4.0628 3.33673L4.43751 3.00928L4.83103 2.69996L5.23894 2.41205L5.65986 2.14176L6.09567 1.89288L6.54312 1.66111L7.00221 1.45416L7.47415 1.26724L7.95481 1.10257L8.44608 0.961863L8.94796 0.847692L9.45977 0.75389L9.71517 0.718628L9.97227 0.691754L10.5002 0.649302L11.0288 0.636978L11.0231 0.636807L11.0281 0.391175L11.0281 0.39114ZM11.0281 0.892509L10.5161 0.905176L10.0041 0.94506L9.4988 1.0072L8.99948 1.09826L8.51249 1.2109L8.0332 1.34732L7.80023 1.4223L7.79784 1.42281L7.56469 1.50703L7.5623 1.50755L7.10132 1.68813L6.65489 1.89132L6.21806 2.1159L5.79371 2.35948L5.38187 2.62446L4.9856 2.9057L4.60131 3.20817L4.23277 3.52689L3.88066 3.86308L3.54653 4.2133L3.22763 4.58509L2.92859 4.96561L2.64495 5.36479L2.38289 5.77322L2.13588 6.19808L1.91421 6.63542L1.70811 7.08424L1.52701 7.54265L1.36816 8.01133L1.23088 8.48959L1.11533 8.97949L1.02752 9.4764L0.962129 9.98411L0.920704 10.4961L0.909578 11.0182L0.920704 11.5358L0.962129 12.0488L1.02752 12.5526L1.11533 13.0529L1.23088 13.5375L1.36816 14.0177L1.52649 14.4862L1.70862 14.9482L1.9142 15.3935L2.13587 15.8309L2.38288 16.2558L2.64495 16.6671L2.92807 17.0634L3.22763 17.4473L3.54653 17.8146L3.88066 18.1683L4.23379 18.5019L4.60165 18.8203L4.9856 19.1204L5.38101 19.404L5.79371 19.6666L6.21806 19.9136L6.65489 20.1347L7.1008 20.3403L7.56315 20.5214L8.03131 20.6808L8.51145 20.8176L8.99947 20.9336L9.4993 21.0218L10.0036 21.0863L10.5161 21.1269L11.0318 21.1399L11.5529 21.1269L12.0643 21.0863L12.5731 21.0218L13.07 20.9336L13.5599 20.8176L14.0376 20.6808L14.5063 20.5214L14.9647 20.3403L15.4135 20.1347L15.8509 19.9131L16.2752 19.6666L16.6847 19.4045L17.0839 19.1204L17.4639 18.8203L17.8357 18.5019L18.1859 18.1683L18.5221 17.8157L18.8403 17.4482L19.1428 17.0634L19.4245 16.6671L19.6895 16.2547L19.9341 15.8309L20.158 15.3936L20.3608 14.9482L20.5414 14.4872L20.6248 14.2541L20.6261 14.2517L20.7004 14.019L20.7018 14.0166L20.8381 13.537L20.9503 13.0529L21.0417 12.5526L21.1044 12.0473L21.1445 11.5358L21.1569 11.0182L21.1445 10.4965L21.1044 9.98499L21.0417 9.47643L20.9509 8.9814L20.9021 8.73713L20.9017 8.73337L20.8382 8.48962V8.48774L20.7018 8.01324L20.6272 7.7777L20.6261 7.77445L20.5424 7.54371L20.5414 7.54182L20.3608 7.08479L20.158 6.63546L19.9341 6.19811L19.6895 5.77325L19.4245 5.36482L19.1427 4.96564L18.8403 4.58461L18.5221 4.21333L18.1854 3.86311L17.8357 3.52607L17.4644 3.20819L17.0844 2.90572L16.6837 2.62448L16.2752 2.35951L15.8509 2.11593L15.4135 1.89135L14.9642 1.68816L14.5072 1.50757L14.278 1.42421L14.2745 1.42284L14.0381 1.34821L14.0361 1.34718L13.5618 1.21093L13.3204 1.14879L13.3167 1.14827L13.0686 1.09812L13.0681 1.09778L12.5731 1.00723L12.0645 0.945091L11.553 0.905036L11.0318 0.89254H11.028L11.0281 0.892509ZM11.0318 1.04622L11.0347 1.19994H11.0315L11.5371 1.21192L12.0336 1.25095L12.5264 1.31154L13.0089 1.3997L13.2473 1.44797L13.4819 1.50754L13.9471 1.64191L14.1755 1.71432L14.398 1.79563L14.8444 1.97143L15.2797 2.16844L15.7041 2.38618L16.1154 2.62258L16.5127 2.87968L16.8994 3.15236L17.2684 3.44575L17.6291 3.75438L17.9682 4.08099L18.2951 4.41991L18.6039 4.78075L18.8971 5.14963L19.1693 5.53734L19.4269 5.93378L19.663 6.34511L19.8812 6.76877L20.0777 7.20424L20.2539 7.65118L20.3354 7.87371L20.4076 8.10206L20.5414 8.56919L20.6022 8.80234L20.6489 9.03924L20.738 9.52229L20.7982 10.016L20.8372 10.5125L20.8492 11.0182L20.8372 11.5196L20.7982 12.0172L20.738 12.5069L20.6493 12.9905L20.5409 13.4595L20.4076 13.9282L20.3348 14.1526L20.2539 14.3794L20.0777 14.8284L19.8812 15.2599L19.663 15.684L19.4269 16.0954L19.1693 16.4956L18.8971 16.88L18.6039 17.2518L18.2951 17.6087L17.9682 17.9511L17.6296 18.2743L17.2689 18.5831L16.8994 18.8739L16.5118 19.1495L16.1154 19.4047L15.704 19.643L15.2807 19.8578L14.8444 20.0577L14.3994 20.233L13.9452 20.3876L13.4824 20.5206L13.0079 20.6327L12.5264 20.7176L12.0336 20.7806L11.5366 20.8201L11.0319 20.8321L10.5324 20.8201L10.036 20.7806L9.54554 20.7176L9.06163 20.6327L8.58954 20.5206L8.12377 20.3876L7.66913 20.233L7.22133 20.0577L6.78929 19.8578L6.36495 19.643L5.95361 19.4042L5.55392 19.1495L5.16963 18.8739L4.79682 18.5831L4.43991 18.2743L4.09842 17.9511L3.77438 17.6087L3.4661 17.2524L3.17476 16.8801L2.89968 16.4956L2.64583 16.0954L2.40601 15.6841L2.19068 15.2599L1.99092 14.8279L1.81649 14.3809L1.66141 13.9268L1.52807 13.4595L1.41629 12.9905L1.33156 12.5069L1.26754 12.0161L1.22851 11.5196L1.21687 11.0182L1.22851 10.5126L1.26754 10.0165L1.33156 9.5223L1.4168 9.04113L1.52806 8.56681L1.66141 8.10344L1.81649 7.64932L1.99143 7.20529L2.19119 6.7688L2.40602 6.34514L2.64549 5.9338L2.89968 5.53737L3.17476 5.14966L3.4661 4.78027L3.77439 4.41995L4.09842 4.08102L4.44043 3.75442L4.79681 3.44579L5.16963 3.15188L5.55392 2.87972L5.95361 2.62261L6.36494 2.38622L6.78928 2.16848L7.22133 1.97146L7.67067 1.79566L7.89645 1.71436L8.12137 1.64195L8.58953 1.5086L9.06197 1.39973L9.54554 1.31158L10.0354 1.25098L10.5324 1.21195L11.0315 1.19997H11.0281L11.0318 1.04626L11.0318 1.04622ZM11.7143 1.39952L11.6527 1.40295L11.5916 1.40911L11.5356 1.42075L11.4836 1.43992L11.4344 1.46115L11.3877 1.48905L11.3483 1.51952L11.3083 1.55615L11.274 1.59603L11.2438 1.64225L11.2188 1.69138L11.197 1.74684L11.1797 1.80555L11.1672 1.86666L11.1571 1.93461L11.1547 2.02705L11.1638 2.10938L11.185 2.18316L11.2159 2.25112L11.2592 2.31223L11.3175 2.36512L11.3824 2.41099L11.462 2.44797L11.8704 2.61366L11.8983 2.62907L11.9257 2.64738L11.9475 2.66964L11.9663 2.6936L11.9807 2.72116L11.9908 2.75248L11.9971 2.78278V2.81359L11.9873 2.86563L11.9663 2.91185L11.9377 2.94899L11.9012 2.9798L11.8525 3.00137L11.7972 3.01626L11.7326 3.0226L11.6585 3.01969L11.5916 3.0077L11.5298 2.98836L11.4764 2.96149L11.4374 2.92383L11.4065 2.87813L11.3848 2.82609L11.3757 2.76156L11.3728 2.69069L11.069 2.66621V2.73982L11.0714 2.81017L11.0805 2.87521L11.093 2.93632L11.1113 2.99521L11.1359 3.04707L11.1638 3.0962L11.197 3.13917L11.2374 3.17956L11.2799 3.2162L11.33 3.24701L11.3824 3.27439L11.4398 3.29613L11.5019 3.31445L11.5693 3.32643L11.6426 3.33619L11.7104 3.33944H11.7783L11.84 3.33037L11.9012 3.31787L11.9565 3.29956L12.0096 3.27782L12.0577 3.24992L12.101 3.2162L12.1445 3.17956L12.1785 3.13626L12.2123 3.09004L12.2393 3.03852L12.2609 2.98254L12.2788 2.92143L12.2946 2.8569L12.3014 2.78894L12.3044 2.6811L12.2919 2.59243L12.2826 2.55204L12.2638 2.51215L12.2455 2.47552L12.2205 2.4418L12.1753 2.38925L12.1222 2.3468L12.0678 2.31222L11.9995 2.27901L11.5693 2.10938L11.5385 2.0974L11.5168 2.07909L11.4957 2.05735L11.4764 2.03578L11.4649 2.00822L11.4586 1.98032L11.4528 1.95002L11.4557 1.91921L11.4649 1.87008L11.4798 1.82729L11.5082 1.79357L11.5414 1.76276L11.5818 1.74102L11.6309 1.7251L11.6835 1.71928H11.7408L11.8059 1.72801L11.8612 1.74684L11.9103 1.77132L11.9475 1.80555L11.9777 1.84834L11.9995 1.89696L12.0125 1.95635L12.0181 2.02037L12.3192 2.04828L12.3222 1.98374L12.3192 1.91921L12.3105 1.8581L12.2985 1.79922L12.2788 1.74393L12.2552 1.6948L12.2268 1.64567L12.1963 1.60237L12.1559 1.56282L12.1169 1.52568L12.0707 1.49538L12.0181 1.46697L11.9663 1.44574L11.9074 1.42691L11.8522 1.41219L11.7842 1.40312L11.7202 1.39969L11.7143 1.39952ZM9.5777 1.51644L9.5623 1.51986V1.51952L9.5094 1.52243L8.83087 1.63318L9.12306 3.44692L9.5623 3.37947V3.3793L9.79886 3.33941L9.86339 3.32401L9.9221 3.30278L9.97705 3.27146L10.0262 3.23157L10.0719 3.18519L10.1119 3.13332L10.1494 3.07204L10.1799 3.00751L10.2049 2.9363L10.2261 2.85687L10.2415 2.77351L10.2511 2.68724L10.2569 2.59532L10.2535 2.50032L10.2477 2.39829L10.2318 2.29713L10.2134 2.19888L10.1924 2.10987L10.1648 2.02359L10.134 1.94314L10.1003 1.87039L10.0599 1.80209L10.0198 1.74372L9.97362 1.68843L9.9245 1.64222L9.87246 1.60216L9.82059 1.56895L9.76222 1.54431L9.70351 1.52856L9.64189 1.51983L9.5777 1.5164L9.5777 1.51644ZM12.7502 1.56882L12.6669 1.8819L13.109 1.99932L12.7281 3.46249L13.0359 3.54209L13.4168 2.07944L13.8555 2.1931L13.9365 1.87609L12.7502 1.56883L12.7502 1.56882ZM8.30191 1.7684L7.25346 2.14019L7.86558 3.87453L8.95031 3.48973L8.83939 3.18298L8.0496 3.46234L7.89263 3.01335L8.5876 2.76738L8.47976 2.46286L7.78513 2.7061L7.65658 2.34304L8.4094 2.07618L8.3019 1.76841L8.30191 1.7684ZM9.54975 1.84269L9.56224 1.84509V1.84491H9.58689L9.62061 1.85125L9.65433 1.86374L9.68514 1.87915L9.71544 1.90089L9.74334 1.92537L9.76799 1.95618L9.81712 2.02995L9.857 2.1253L9.89038 2.23553L9.91537 2.36511L9.93078 2.50051L9.93421 2.62324L9.92445 2.73399L9.90374 2.82609L9.87001 2.90603L9.84742 2.93923L9.8238 2.96713L9.7959 2.98836L9.76509 3.01044L9.73427 3.02294L9.70107 3.03167L9.56224 3.05615V3.05632L9.37789 3.08422L9.1872 1.89712L9.51226 1.84508L9.54975 1.84269L9.54975 1.84269ZM14.7195 2.19274L14.4739 2.47826L13.4693 3.64652L13.7731 3.78466L14.0222 3.48356L14.4739 3.68983V3.68965L14.5288 3.71413L14.4739 4.02772L14.4614 4.09551L14.4739 4.10133L14.775 4.24015L15.0547 2.34675L14.7195 2.19269V2.19274ZM6.86967 2.3064L5.7966 2.89986L5.95356 3.18487L6.35342 2.9644L7.08451 4.28928L7.36421 4.13522L6.62987 2.81017L7.02665 2.58919L6.86968 2.3064H6.86967ZM14.7143 2.64447L14.5818 3.38514L14.4739 3.33944V3.3391L14.2346 3.22886L14.4739 2.9365V2.93633L14.7143 2.64447V2.64447ZM15.7985 2.72441L15.615 2.99213L15.9921 3.24991L15.1381 4.50117L15.4026 4.6797L16.2535 3.42862L16.6282 3.68384L16.8137 3.41596L15.7985 2.72442V2.72441ZM5.53832 3.09338L5.28021 3.27769L6.34646 4.7746L6.60509 4.59064L5.53832 3.09338V3.09338ZM4.91182 3.53895L4.69649 3.74179L5.56965 4.68288L4.25626 4.14779L4.01062 4.37546L5.2624 5.72452L5.48048 5.52185L4.58628 4.55955L5.93192 5.10388L6.16266 4.88854L4.91193 3.53904L4.91182 3.53895ZM11.0224 3.58533L10.6537 3.59458L10.6512 3.59492L10.2818 3.62248L10.2785 3.62282L9.90673 3.66955L9.544 3.73511L9.18762 3.81693L8.8374 3.91621L8.49351 4.03227L8.15595 4.16612L7.83038 4.3135L7.50823 4.47919L7.19994 4.65739L6.89936 4.85098L6.60905 5.05708L6.33021 5.27636L6.06146 5.50744L5.80231 5.75411L5.55856 6.0107L5.32405 6.27944L5.10546 6.55743L4.89886 6.84826L4.70851 7.14833L4.53032 7.45798L4.36513 7.77636L4.21724 8.10433L4.08338 8.43949L3.96733 8.7839L3.86771 9.13412L3.78623 9.49341L3.72033 9.85545L3.67308 10.2269L3.64278 10.5958L3.64176 10.5997L3.63303 10.9777V10.9811L3.64176 11.3563V11.3596L3.67308 11.7291V11.7315L3.72015 12.1033L3.78623 12.4655L3.86754 12.8219L3.96784 13.169L4.08339 13.5129L4.21724 13.851L4.36514 14.1757L4.53032 14.4979L4.70852 14.8067L4.89869 15.1066L5.10529 15.3976L5.32406 15.6764L5.55857 15.9441L5.80181 16.2038L6.0613 16.4479L6.33022 16.6815L6.60855 16.9006L6.89989 17.1072L7.19996 17.2979L7.50858 17.4753L7.83039 17.6418L8.15597 17.7889L8.49352 17.9236L8.83741 18.0388L9.18763 18.1389L9.54454 18.2204L9.90657 18.2858L10.278 18.3325L10.6474 18.3638H10.6508L11.0226 18.3726H11.0255L11.4035 18.3638H11.4069L11.7768 18.333L11.7792 18.3325L12.151 18.2858L12.5137 18.2204L12.8725 18.1389L13.2226 18.0388L13.5675 17.9237L13.9018 17.7888L14.2298 17.642L14.5485 17.4752L14.8578 17.2981L15.1582 17.1074L15.4492 16.9011L15.728 16.6815L15.9958 16.448L16.252 16.2037L16.499 15.9442L16.7303 15.6758L16.9494 15.398L17.1551 15.1072L17.3487 14.8066L17.5273 14.4978L17.6926 14.1757L17.84 13.8511L17.9738 13.5134L18.0904 13.1692L18.19 12.8219L18.271 12.4655L18.3374 12.1033L18.3842 11.731L18.4115 11.3626L18.4121 11.3592L18.4211 10.9835V10.9811L18.4121 10.6031V10.5997L18.385 10.2308L18.3841 10.2279L18.3374 9.85559L18.2708 9.49338L18.1904 9.13409L18.0902 8.78387L17.9737 8.43964L17.8398 8.10482L17.6924 7.77634L17.5272 7.45813L17.3485 7.1483L17.1549 6.84823L16.9494 6.5574L16.7303 6.27993L16.499 6.01084L16.252 5.7546L15.9957 5.50742L15.727 5.27582L15.449 5.05724L15.1582 4.85097L14.8581 4.65737L14.5485 4.47918L14.2296 4.31349L13.9016 4.16662L13.5673 4.03225L13.2225 3.91619L12.8723 3.81708L12.5135 3.73508L12.151 3.6697L11.7777 3.62297L11.4096 3.59489L11.4069 3.59455L11.0283 3.58531H11.0254H11.0226L11.0255 3.70821L11.0284 3.83094H11.0255L11.3944 3.84018L11.7542 3.86757L12.1144 3.91293L12.4646 3.97644L12.8117 4.05501L13.15 4.15121L13.4822 4.2635L13.8054 4.39308L14.1228 4.53515L14.4305 4.69503L14.7306 4.86792L15.0206 5.05484L15.3023 5.25426L15.5706 5.46566L15.8306 5.68955L16.0781 5.92852L16.317 6.17603L16.5401 6.43605L16.7523 6.70479L16.9518 6.98603L17.1392 7.27652L17.3111 7.57556L17.4714 7.88384L17.6135 8.20069L17.7426 8.52438L17.8559 8.85629L17.9516 9.19487L18.0302 9.54253L18.0937 9.89275L18.1395 10.252L18.1664 10.6117L18.1757 10.9811L18.1664 11.3467L18.1395 11.706L18.0937 12.0658L18.0302 12.4159L17.9516 12.7608L17.8559 13.0964L17.7426 13.4287L17.6135 13.7548L17.4714 14.0692L17.3111 14.3809L17.1392 14.6789L16.9518 14.9694L16.7523 15.2507L16.5401 15.5199L16.316 15.7786L16.0781 16.03L15.8306 16.2664L15.5706 16.4924L15.3018 16.7038L15.0211 16.9032L14.7306 17.0881L14.4305 17.2596L14.1233 17.42L13.8054 17.5626L13.4822 17.693L13.15 17.8038L12.8117 17.9011L12.4641 17.979L12.1144 18.0427L11.7537 18.0879L11.3944 18.1179L11.0255 18.1269L10.6638 18.1179L10.3045 18.0879L9.94423 18.0427L9.59314 17.979L9.24926 17.9011L8.91016 17.8038L8.57842 17.693L8.25131 17.5626L7.93823 17.4205L7.62567 17.2596L7.32663 17.0881L7.03666 16.9032L6.75593 16.7038L6.48719 16.4924L6.22717 16.2656L5.97657 16.03L5.7407 15.7796L5.51337 15.5189L5.30231 15.2512L5.10341 14.97L4.91854 14.679L4.74669 14.3809L4.58629 14.0692L4.44422 13.7548L4.31464 13.4287L4.20184 13.0965L4.10597 12.7608L4.02706 12.4164L3.96356 12.0658L3.91768 11.706L3.88841 11.3467L3.87866 10.9811L3.88841 10.6127L3.91768 10.2529L3.96356 9.89275L4.02706 9.54253L4.10597 9.19487L4.20184 8.85629L4.31464 8.52438L4.44422 8.2012L4.58629 7.88333L4.74669 7.57556L4.91854 7.276L5.10307 6.98603L5.30231 6.70479L5.51389 6.43605L5.7407 6.17603L5.97657 5.92852L6.22717 5.69007L6.48667 5.46566L6.75593 5.25461L7.03717 5.05485L7.32714 4.86792L7.62618 4.69503L7.93823 4.53516L8.25131 4.39308L8.57842 4.26351L8.91016 4.15122L9.24926 4.05502L9.59314 3.97645L9.94371 3.91294L10.3035 3.86758L10.6628 3.84019L11.0255 3.83095H11.0226L11.0255 3.70822H11.0254L11.0224 3.58532L11.0224 3.58533ZM17.1304 3.68016L15.858 5.00845L16.6906 5.80134L16.9147 5.56477L16.3103 4.98638L16.6383 4.64249L17.1704 5.15259L17.3948 4.91944L16.8627 4.40935L17.1304 4.12965L17.7079 4.68288L17.9323 4.44598L17.1304 3.68014L17.1304 3.68016ZM10.7703 4.3753L10.7153 4.37872L10.6662 4.38745L10.6233 4.39995L10.5863 4.41826L10.5555 4.43983L10.5313 4.46106L10.5092 4.48861L10.4909 4.51412L10.4697 4.56564L10.4567 4.60895L10.4509 4.65174H10.2819L10.1773 4.67982L10.0911 4.71388L10.0236 4.75342L9.96885 4.79964L9.92503 4.84825L9.89696 4.89738L9.87625 4.94702L9.86375 4.99906L9.8605 5.04818V5.0944L9.873 5.17434L9.8884 5.2298L9.89696 5.24811L10.1099 5.13154L10.1832 5.12863L10.2602 5.1348L10.3425 5.14404L10.3768 5.13771H10.4047L10.4605 5.14404L10.5063 5.16526L10.5462 5.18974L10.58 5.22055L10.6012 5.2452L10.6233 5.26968L10.6537 5.288L10.6724 5.30974L10.6777 5.33764L10.6811 5.37085L10.6724 5.40799L10.6599 5.44787L10.62 5.53072L10.5714 5.60775L10.5247 5.67571L10.4726 5.73973L10.644 5.86931L10.6662 5.87855L10.6875 5.88471L10.7398 5.89053L10.7924 5.88471L10.8444 5.87221L10.9273 5.8414L10.9642 5.826L10.9889 5.7957L11.0134 5.77345L11.0409 5.75907L11.0717 5.75239H11.1026L11.1339 5.75513L11.1921 5.77687L11.2441 5.80477L11.2837 5.83558L11.3235 5.86931L11.3544 5.89978L11.3853 5.92425L11.4138 5.94308L11.4377 5.95506L11.4624 5.96431L11.4863 5.96756L11.5264 5.96174L11.5572 5.94873L11.5822 5.93059L11.5996 5.91227L11.6313 5.88471L11.6531 5.8539L11.6868 5.79228L11.7022 5.73973L11.708 5.71867V4.78082L11.7051 4.71629L11.6955 4.65809L11.6801 4.60897L11.6618 4.56275L11.6376 4.5256L11.6127 4.49188L11.5851 4.46449L11.5572 4.43984L11.5022 4.40612L11.456 4.38747L11.4098 4.37531H10.7703L10.7703 4.3753ZM3.64567 4.78698L3.45104 5.04801L4.46628 5.79844L4.47877 5.80752L4.52174 5.8474L4.55546 5.89379L4.57652 5.94292L4.59192 5.9953L4.59432 6.05076L4.58627 6.10279L4.56796 6.1586L4.53663 6.20721L4.49332 6.25343L4.44796 6.28715L4.39507 6.30889L4.34303 6.32087H4.28518L4.22595 6.30889L4.16809 6.2839L4.10989 6.24726L4.0974 6.23802L3.11056 5.50642L2.91696 5.76746L3.90038 6.49289L3.93068 6.51788L3.98939 6.55794L4.04827 6.59166L4.10647 6.61562L4.16433 6.63788L4.22304 6.65277L4.28141 6.65893L4.34013 6.66184L4.39507 6.65893L4.45327 6.64643L4.50634 6.62863L4.56111 6.60706L4.61366 6.57625L4.66228 6.54253L4.70849 6.49957L4.75471 6.45335L4.79819 6.39789L4.83756 6.34311L4.86888 6.28389L4.89353 6.22894L4.91185 6.17023L4.92725 6.11186L4.9329 6.05657V5.9982L4.92725 5.94291L4.91424 5.88796L4.89644 5.83199L4.87231 5.77961L4.84098 5.72757L4.80435 5.67844L4.76395 5.62932L4.71483 5.5831L4.65971 5.54031L4.64499 5.55554L4.62547 5.53962L4.62513 5.54014L4.62273 5.53723L4.62547 5.53962L4.63797 5.52182L3.64569 4.78697L3.64567 4.78698ZM4.63794 5.52183H4.63812L4.65934 5.54015L4.65968 5.54032L4.67475 5.52474L4.65318 5.50643L4.65078 5.50352L4.63795 5.52183L4.63794 5.52183ZM8.64052 4.80872L8.53593 4.81197L8.4411 4.82412L8.35141 4.84244L8.27438 4.86367L8.20454 4.88866L8.1448 4.91314L8.04997 4.96278L7.99503 4.99889L7.97637 5.0143L7.89643 5.07027L7.80674 5.13755L7.71191 5.21423L7.61417 5.30376L7.39593 5.50027L7.16142 5.72759L6.9192 5.97374L6.66672 6.23478L6.16586 6.77329L5.70506 7.28613L5.32061 7.71955L4.96336 8.13139L5.00085 8.1497L5.03457 8.16511L5.06881 8.1747L5.10578 8.17761H5.13916L5.17562 8.1747L5.24649 8.15587L5.31444 8.12557L5.38223 8.08517L5.44676 8.03947L5.50856 7.98401L5.56333 7.92855L5.61588 7.87275L5.70164 7.76867L5.75659 7.69164L5.77525 7.66135L5.8278 7.71338L5.87692 7.75036L5.92605 7.7721L5.96936 7.78408H6.01232L6.05512 7.77501L6.09226 7.76011L6.12547 7.73786L6.15628 7.71338L6.18469 7.68873L6.23091 7.63379L6.26703 7.57507L6.34354 7.43061L6.42074 7.28905L6.50068 7.15074L6.58353 7.01928L6.66672 6.8897L6.75299 6.76697L6.92485 6.53006L7.09688 6.31182L7.26925 6.11189L7.43888 5.93045L7.59876 5.76766L7.75179 5.6232L7.8901 5.49739L8.01626 5.39006L8.12649 5.30088L8.28123 5.18346L8.33892 5.14392L8.45309 5.10403L8.54791 5.08572L8.62511 5.08281L8.65884 5.08863L8.68674 5.09428L8.71361 5.10677L8.73586 5.11944L8.76907 5.15265L8.79406 5.19304L8.80947 5.23875L8.81871 5.28787V5.33752L8.80947 5.43286L8.79406 5.5003L8.7879 5.52786L8.72902 5.57117L8.68674 5.6078L8.65884 5.64477L8.64052 5.6785L8.63128 5.70879V5.73978L8.6371 5.76477L8.64617 5.78599L8.66551 5.80465L8.67989 5.82297L8.72046 5.84762L8.76668 5.86918L8.82197 5.92413L8.92022 6.00801L9.18126 6.20743L9.53491 6.46607L9.56572 6.49637L9.59602 6.51794L9.62734 6.533L9.65473 6.54259L9.68229 6.54841H9.71019L9.75881 6.54259L9.79629 6.52718L9.8271 6.50835L9.85466 6.48661L9.86048 6.4255L9.87298 6.35481L9.89369 6.28103L9.9192 6.20743L9.96199 6.08744L9.98082 6.03831L9.9192 6.0657L9.85757 6.08453L9.7992 6.09702L9.74768 6.10284L9.66962 6.10575L9.63933 6.10284L9.57428 6.09942L9.51659 6.09035L9.46113 6.07494L9.41201 6.05663L9.3663 6.0354L9.32573 6.01092L9.25795 5.95495L9.20882 5.89966L9.17459 5.85087L9.15045 5.80466L9.11673 5.77967L9.09225 5.75895L9.07685 5.73396L9.06435 5.7088L9.05853 5.68774V5.66652L9.0676 5.62937L9.08301 5.59565L9.10475 5.57117L9.12888 5.54943L9.20643 5.46659L9.26411 5.39298L9.30468 5.32211L9.32865 5.25758L9.3408 5.19596V5.14392L9.33207 5.09428L9.31324 5.04806L9.29201 5.01143L9.26754 4.97771L9.24015 4.95032L9.21208 4.92859L9.16928 4.89777L9.15045 4.88579L9.00889 4.84865L8.87692 4.82417L8.75693 4.81202L8.64053 4.80876L8.64052 4.80872ZM13.0477 4.80889L12.9625 4.81471L12.8884 4.82721L12.83 4.84262L12.7805 4.86093L12.7468 4.88267L12.7198 4.90099L12.7004 4.91639L12.6884 4.92889L12.5382 4.96877L12.4183 5.01174L12.3721 5.03621L12.3291 5.06086L12.2949 5.08534L12.2641 5.10999L12.2396 5.13738L12.2242 5.16237L12.2093 5.18993L12.1996 5.21732L12.1967 5.26987L12.2025 5.32191L12.2208 5.37103L12.2487 5.41725L12.2792 5.46004L12.3108 5.49719L12.3658 5.54957L12.3904 5.57079L12.4303 5.64457L12.455 5.70568L12.464 5.75874L12.4606 5.80154L12.4486 5.83235L12.4303 5.85974L12.4024 5.87805L12.3692 5.89055L12.3355 5.89688L12.2988 5.9027L12.2271 5.89979L12.1563 5.89072L12.0373 5.88199L11.9382 5.88781L11.8581 5.90612L11.7946 5.92769L11.7449 5.95183L11.7107 5.97391L11.6867 5.99804L11.6342 6.03177L11.588 6.05915L11.5388 6.07798L11.496 6.09048L11.456 6.09681H11.4164L11.3795 6.09339L11.3487 6.08705L11.2932 6.06891L11.2499 6.04426L11.2162 6.01687L11.1766 5.97973L11.1386 5.9585L11.1025 5.94892H11.0693L11.0441 5.95525L11.0226 5.96432L11.0043 5.97682L10.9546 6.01978L10.8997 6.05385L10.8415 6.07798L10.7884 6.09972L10.7002 6.11838L10.6662 6.1242L10.6078 6.066L10.5525 6.02304L10.5029 5.99514L10.4567 5.97973L10.4142 5.97391L10.3767 5.97973L10.3396 5.99223L10.3088 6.01054L10.2817 6.03177L10.2602 6.05916L10.2235 6.1088L10.2018 6.1521L10.1956 6.16717L10.1186 6.29658L10.0602 6.41606L10.0203 6.52972L9.99569 6.63482L9.98713 6.73308L9.98952 6.82208L9.99962 6.90202L10.0203 6.9758L10.0458 7.04033L10.0724 7.09904L10.1008 7.14475L10.1282 7.1848L10.1773 7.23684L10.1956 7.2555L11.0693 8.51604L11.1116 8.23908L11.0933 8.10368L11.0905 7.98386L11.1025 7.88269L11.1237 7.79317L11.1516 7.71991L11.1888 7.65828L11.2316 7.60625L11.2744 7.56568L11.3202 7.53487L11.367 7.5109L11.4135 7.49207L11.4531 7.483L11.5147 7.47085H11.5359L11.6097 7.46469H11.6799L11.7518 7.47376L11.8182 7.48574L11.8894 7.50697L11.9568 7.53213L12.0214 7.56294L12.0893 7.59991L12.1504 7.63654L12.2155 7.68037L12.3355 7.77519L12.4457 7.87584L12.5506 7.98385L12.6451 8.09511L12.7314 8.19901L12.87 8.39312L12.9596 8.52801L12.9899 8.58004L13.0232 8.63294L13.0578 8.67248L13.0881 8.70962L13.1194 8.73752L13.1744 8.77073L13.2211 8.78905H13.2572L13.2846 8.78323L13.3098 8.77073L13.5496 8.72161L13.7711 8.68206L13.9772 8.65125L14.167 8.62917L14.3428 8.61377L14.4993 8.60795L14.6405 8.60504L14.7667 8.60795L14.9728 8.61993L15.1167 8.63876L15.2035 8.65707L15.2304 8.66632L15.2911 8.65998L15.3451 8.65125L15.3841 8.63876L15.4144 8.62626L15.4399 8.61086L15.4577 8.59545L15.468 8.57765L15.4733 8.56224L15.4704 8.52801L15.4606 8.50011L15.4433 8.47255L14.7175 7.29894L14.6814 7.22517L14.6467 7.16594L14.6092 7.12315L14.5755 7.09234L14.5423 7.07693L14.512 7.0682H14.4806L14.4531 7.07693L14.4281 7.08943L14.404 7.10774L14.3665 7.14472L14.3333 7.19093L13.1377 8.0237L13.0819 8.06992L13.0294 8.09782L12.9803 8.11613L12.9322 8.12247L12.8854 8.11904L12.8454 8.10706L12.8055 8.08823L12.7689 8.06375L12.7381 8.03911L12.7096 8.01172L12.6634 7.95626L12.6273 7.89806L12.5902 7.81179L12.5564 7.74143L12.5251 7.68614L12.4948 7.63993L12.4674 7.60621L12.4399 7.5783L12.4154 7.5629L12.3931 7.55314L12.3753 7.54732H12.3567L12.3291 7.55708L12.3108 7.56855L12.3046 7.57488L12.2487 7.55074L12.1966 7.52627L12.1105 7.47081L12.0431 7.41158L11.994 7.35715L11.9568 7.31093L11.9352 7.27088L11.9198 7.23442L11.8798 7.16937L11.8495 7.111L11.8283 7.06187L11.8158 7.01565L11.8123 6.97577L11.8158 6.94154L11.8243 6.91124L11.837 6.88659L11.8527 6.86502L11.8681 6.84671L11.9044 6.82497L11.9414 6.80665L12.1042 6.68683L12.2487 6.5605L12.3788 6.43829L12.4885 6.31213L12.5867 6.18871L12.6706 6.06598L12.741 5.95181L12.7997 5.84157L12.8483 5.73938L12.8854 5.64797L12.9375 5.49374L12.9625 5.39258L12.9683 5.35595L12.9866 5.29107L13.0087 5.24229L13.0323 5.20531L13.0578 5.17741L13.0819 5.15961L13.1011 5.14934L13.1162 5.14403L13.2144 5.12195L13.3011 5.10997L13.3776 5.10654L13.4442 5.11322L13.5005 5.12537L13.5496 5.14403L13.5891 5.16817L13.6232 5.19282L13.6508 5.22072L13.6723 5.24811L13.6999 5.30357L13.7124 5.3402L13.7158 5.35595L16.4046 9.58227L16.4423 9.64389L16.4755 9.68686L16.5063 9.72058L16.5342 9.73924L16.5587 9.74848H16.5794L16.5948 9.74214L16.6113 9.72965L16.6359 9.69302L16.6513 9.65313L16.6599 9.60435L16.6383 9.52407L16.6285 9.47152L16.633 9.43831L16.6359 9.42855L16.6445 9.42239L16.6628 9.4253L16.6878 9.44396L16.7182 9.46861L16.7519 9.50524L16.8266 9.59134L16.8906 9.68052L16.958 9.77639L16.9894 9.84708L17.0197 9.89912L17.0438 9.93233L17.0693 9.95458L17.09 9.96331H17.1092L17.1237 9.95064L17.1397 9.93575L17.1636 9.88662L17.1825 9.83458L17.1949 9.77639L17.2042 9.70227V9.62216L17.192 9.54222L17.1737 9.46228L17.1492 9.38234L17.1179 9.3024L17.0813 9.22589L17.0438 9.15211L16.9671 9.0174L16.8997 8.90905L16.8324 8.81404L16.7341 8.65126L16.6696 8.52802L16.633 8.43883L16.62 8.38064V8.36232L16.6258 8.34982L16.6359 8.344H16.6513L16.6878 8.35599L16.7341 8.38303L16.7889 8.42052L16.8481 8.46965L16.9639 8.5679L17.0871 8.68789L17.1636 8.73411L17.2225 8.76441L17.2687 8.78323L17.299 8.78905L17.3208 8.78323L17.3298 8.77074L17.3333 8.749L17.3298 8.72538L17.3091 8.66341L17.2749 8.60213L17.2379 8.53709L15.7009 6.44395L15.4895 6.20755L15.2949 6.00095L15.1231 5.82327L14.9637 5.66665L14.8216 5.53707L14.6958 5.42975L14.588 5.34022L14.4897 5.26987L14.4098 5.21441L14.3389 5.17161L14.2379 5.12197L14.1795 5.10366L14.1641 5.10075L13.9431 5.01174L13.7432 4.94087L13.5674 4.88541L13.411 4.84844L13.2721 4.8243L13.1527 4.81181L13.0477 4.8089L13.0477 4.80889ZM18.151 4.984L18.0955 4.99325L18.0426 5.00574L17.9882 5.02697L17.9324 5.05196L17.8775 5.08568L17.822 5.1218L17.7508 5.18102L17.6964 5.24213L17.6531 5.30667L17.6222 5.37753L17.6068 5.45165L17.6039 5.5244L17.613 5.60776L17.6376 5.69112L17.7878 6.10571L17.7941 6.13652L17.797 6.16682V6.20054L17.7907 6.23187L17.7792 6.25943L17.7633 6.28733L17.7455 6.3118L17.7205 6.33012L17.6741 6.36093L17.6275 6.37634L17.5822 6.37925L17.5336 6.36966L17.4839 6.34895L17.4372 6.31814L17.3915 6.27192L17.3424 6.21595L17.3057 6.15826L17.2813 6.09955L17.2686 6.0446V5.98914L17.2813 5.93676L17.3057 5.88472L17.3453 5.8356L17.3977 5.78596L17.2167 5.54032L17.1573 5.58996L17.1092 5.63858L17.0664 5.68771L17.0288 5.73974L16.9975 5.79264L16.9738 5.84467L16.9581 5.89671L16.9459 5.95217L16.943 6.00797L16.9459 6.06292L16.9523 6.12112L16.9672 6.17983L16.9892 6.2382L17.0197 6.29692L17.0534 6.35477L17.0938 6.41297L17.1395 6.46895L17.1825 6.51807L17.2325 6.56087L17.2813 6.59801L17.3299 6.6254L17.3819 6.64954L17.4353 6.66871L17.4898 6.68086L17.545 6.68377H17.601L17.6563 6.67744L17.7147 6.66203L17.77 6.64423L17.8283 6.61581L17.886 6.58209L17.942 6.54546L18.0249 6.47459L18.0552 6.44087L18.0831 6.40681L18.1048 6.36966L18.1226 6.33355L18.1385 6.29315L18.1481 6.25361L18.1544 6.18274V6.11821L18.1414 6.05077L18.1226 5.98007L17.9627 5.54666L17.954 5.51568L17.9511 5.48486V5.45748L17.9574 5.42958L17.9699 5.40202L17.9848 5.37754L18.0065 5.35255L18.0315 5.33132L18.0711 5.30667L18.1178 5.29127L18.1601 5.28801L18.2031 5.29418L18.2493 5.30958L18.2921 5.33748L18.3326 5.3712L18.3693 5.41708L18.4062 5.46946L18.4269 5.52441L18.4394 5.57747V5.6266L18.4309 5.67572L18.4062 5.72485L18.3725 5.77381L18.3263 5.82293L18.5074 6.06583L18.56 6.02338L18.6057 5.98007L18.6461 5.93386L18.6798 5.88473L18.7068 5.8356L18.7286 5.78305L18.7472 5.73101L18.7565 5.67573L18.7618 5.62317V5.56771L18.7565 5.51294L18.7411 5.45405L18.7227 5.39876L18.6986 5.34382L18.6668 5.28802L18.6307 5.23255L18.5868 5.18343L18.5469 5.13772L18.5007 5.09767L18.4554 5.06344L18.4062 5.03656L18.3571 5.01431L18.308 4.99651L18.2556 4.98641L18.2031 4.98401H18.151L18.151 4.984ZM13.3282 5.28801L13.291 5.29417L13.2607 5.30958L13.2332 5.32447L13.2082 5.34672L13.1683 5.39243L13.1466 5.42666L13.1378 5.44155L13.1245 5.51293L13.1065 5.58602L13.0855 5.65689L13.0579 5.72759L12.9929 5.86932L12.9163 6.00797L12.8268 6.13943L12.7315 6.26559L12.6332 6.38558L12.5321 6.49924L12.4338 6.60092L12.3355 6.69627L12.1693 6.84639L12.0528 6.94516L12.0065 6.97888L12.0831 7.11719L12.1505 7.21544L12.2094 7.27998L12.2585 7.31986L12.295 7.33817L12.3254 7.34502H12.3408L12.348 7.3416L12.4338 7.26782L12.6056 7.10743L13.0854 6.65622L13.7587 6.01671L13.7765 5.98008L13.7924 5.94293L13.8015 5.9087L13.8078 5.8784V5.82311L13.7953 5.77672L13.7765 5.74351L13.7587 5.71852L13.7369 5.69729L13.6075 5.4633L13.5526 5.39877L13.5035 5.35255L13.4538 5.31883L13.4076 5.2976L13.3646 5.28802H13.3282L13.3282 5.28801ZM8.43772 5.39243L8.404 5.39585L8.36736 5.39876L8.30249 5.41708L8.23162 5.44155L7.73984 5.93334L7.69705 5.96757L7.66281 6.00129L7.63782 6.02919L7.62276 6.05658L7.61129 6.08123L7.60735 6.10571V6.12402L7.6142 6.14285L7.62909 6.17366L7.65032 6.19438L7.67531 6.21029L7.94269 6.40047L8.19123 6.56668L8.42522 6.71166L8.64381 6.8344L8.84323 6.93556L9.03066 7.01892L9.19961 7.08637L9.35332 7.14183L9.48906 7.18171L9.60563 7.21252L9.70732 7.23426L9.79016 7.24624L9.90092 7.25549H9.94046L9.91581 7.14748L9.89082 7.05607L9.86377 6.97562L9.83397 6.91164L9.80316 6.85909L9.77184 6.81578L9.73863 6.78206L9.70833 6.75792L9.67701 6.73909L9.64962 6.73002L9.60049 6.71752L9.56677 6.72078L9.55701 6.72369L9.46219 6.6838L9.36736 6.63468L9.2715 6.58212L9.17563 6.52393L8.98871 6.40051L8.81634 6.27778L8.66947 6.1612L8.54896 6.06586L8.44506 5.97668L8.41716 5.9522L8.39885 5.92806L8.38344 5.90256L8.37711 5.87842L8.3742 5.85394L8.37711 5.8322L8.392 5.78941L8.41716 5.75226L8.43873 5.72488L8.46629 5.69732L8.50326 5.61704L8.52449 5.5525L8.53408 5.50047L8.53031 5.46041L8.5149 5.4296L8.4971 5.41129L8.46903 5.39879L8.43873 5.39246L8.43772 5.39243ZM13.9397 6.10315L13.9238 6.10554L13.9084 6.11461L13.8872 6.13961L13.8723 6.17384L13.8627 6.21047L12.6481 7.32019L12.6178 7.35048L12.5998 7.38421L12.5942 7.42135L12.5971 7.46123L12.6057 7.50129L12.624 7.54117L12.6452 7.58123L12.6707 7.62111L12.7286 7.6954L12.7806 7.75651L12.8398 7.8118L12.8547 7.83936L12.873 7.85767L12.8951 7.87308L12.9192 7.87976L12.9466 7.88267L12.9745 7.87976L13.0324 7.86384L13.0882 7.84227L13.1378 7.81813L13.1811 7.79075L14.2688 6.91416L14.2895 6.89293L14.3087 6.87119L14.327 6.82498L14.3333 6.77927L14.327 6.73596L14.3174 6.69642L14.3052 6.66561L14.2895 6.63771L14.1002 6.27499L14.0654 6.21628L14.0314 6.17383L14.0043 6.14301L13.9802 6.12093L13.9581 6.10878L13.9398 6.10313L13.9397 6.10315ZM7.46253 6.31831L7.32473 6.46569L7.19618 6.61598L7.0791 6.7637L6.97742 6.8991L6.83346 7.11101L6.7804 7.19095L6.93068 7.27671L7.10357 7.36041L7.29443 7.44566L7.4971 7.52902L7.91802 7.68599L8.34236 7.83011L8.72904 7.95335L9.04656 8.0487L9.34081 8.13155L9.32854 8.07291L9.32238 8.02379L9.31947 7.97791L9.32238 7.93803L9.32854 7.90088L9.33779 7.87007L9.36329 7.81804L9.39359 7.78431L9.41824 7.76275L9.44905 7.74734L9.48568 7.70112L9.52847 7.6674L9.58102 7.64275L9.6358 7.62735L9.69759 7.61828H9.7587L9.82426 7.6241L9.88537 7.63368L10.0052 7.65816L10.1034 7.68897L10.1955 7.72612L10.0235 7.4709L9.90421 7.46799L9.7837 7.46131L9.66422 7.44573L9.5473 7.42759L9.42971 7.39952L9.31314 7.37264L9.19656 7.33841L9.0829 7.29887L8.97164 7.25556L8.86141 7.21225L8.6524 7.114L8.44955 7.00992L8.26229 6.90208L8.08992 6.79458L7.93672 6.68674L7.79807 6.589L7.6839 6.49948L7.52162 6.36699L7.4624 6.31837L7.46253 6.31831ZM2.98958 7.24267L2.95073 7.24609L2.90725 7.25277L2.83365 7.27639L2.76329 7.31405L2.70167 7.36317L2.65254 7.4248L2.63423 7.458L2.61591 7.49224L2.60051 7.52921L2.59092 7.56875L2.5851 7.60881V7.65212V7.69166L2.59092 7.73154L2.61591 7.80908L2.65254 7.87944L2.70167 7.94106L2.76329 7.98967L2.7965 8.0085L2.83365 8.02733L2.87062 8.03931L2.90725 8.05181L2.95073 8.05763H2.98959H3.03341L3.07346 8.05181L3.14998 8.02733L3.21845 7.98967L3.27956 7.94106L3.32817 7.87943L3.36583 7.80908L3.38072 7.77194L3.38996 7.73154L3.39613 7.69165L3.40006 7.65211L3.39613 7.60881L3.38996 7.56875L3.36583 7.49224L3.32817 7.42479L3.27956 7.36317L3.24874 7.3351L3.21845 7.31405L3.14998 7.27639L3.113 7.2615L3.07346 7.25276L3.03341 7.24609L2.98959 7.24267L2.98958 7.24267ZM18.9964 7.24267L18.9565 7.24609L18.917 7.25277L18.8394 7.27639L18.7696 7.31405L18.7104 7.36317L18.6607 7.4248L18.64 7.458L18.6212 7.49224L18.6092 7.52921L18.6001 7.56875L18.5933 7.60881L18.5904 7.65212L18.5933 7.69166L18.6001 7.73154L18.6212 7.80908L18.6607 7.87944L18.7104 7.94106L18.7696 7.98967L18.8028 8.0085L18.8394 8.02733L18.8766 8.03931L18.917 8.05181L18.9565 8.05763H18.9964H19.0397L19.0797 8.05181L19.1563 8.02733L19.2266 7.98967L19.285 7.94106L19.3345 7.87943L19.375 7.80908L19.3865 7.77194L19.3957 7.73154L19.4024 7.69165L19.4053 7.65211L19.4024 7.60881L19.3957 7.56875L19.375 7.49224L19.3345 7.42479L19.285 7.36317L19.2266 7.31404L19.1563 7.27639L19.1196 7.26149L19.0797 7.25276L19.0397 7.24609L18.9964 7.24267V7.24267ZM6.67052 7.36044L6.63971 7.36917L6.6089 7.38406L6.57569 7.40922L6.50448 7.47376L6.43413 7.55079L6.36959 7.63021L6.31704 7.69765L6.2674 7.76886L6.2241 7.82672L6.17839 7.87294L6.13218 7.91059L6.0863 7.93456L6.03957 7.95339L5.99729 7.96537L5.95433 7.97222H5.91444L5.83981 7.95972L5.78538 7.94431L5.73334 7.91915L5.56764 8.09786L5.43516 8.22984L5.33022 8.31611L5.25029 8.3714L5.19483 8.39896L5.1611 8.41146H5.14279L5.13663 8.40803L5.09657 8.44467L5.06285 8.48215L5.03495 8.51878L5.00996 8.5525L4.97966 8.62337L4.96374 8.68499L4.95792 8.73754V8.77691L4.96374 8.81406L4.68781 9.37038L4.76433 9.35532L4.82595 9.34864L4.87508 9.35155L4.91462 9.36062L4.94303 9.37602L4.95792 9.39776L4.97145 9.4195L4.97384 9.4474V9.47479L4.96751 9.50235L4.94885 9.55148L4.92472 9.60437L4.53992 10.2247L4.6695 10.2314H4.78316L4.88141 10.2247L4.96375 10.2098L5.03256 10.191L5.09042 10.1698L5.13663 10.1453L5.17035 10.1201L5.19826 10.0927L5.21657 10.0653L5.23249 10.0402L5.2378 10.0162L5.24396 9.98147V9.96606V9.91163L5.25029 9.8649L5.25937 9.82827L5.26861 9.79694L5.28401 9.77623L5.296 9.75757L5.31192 9.74833L5.33023 9.73977L5.36053 9.73583L5.38843 9.74217L5.41359 9.75466L5.53342 9.70211L5.63167 9.65007L5.7111 9.5977L5.7758 9.54514L5.82493 9.50235L5.85899 9.46572L5.88313 9.43491L5.89323 9.38578L5.90487 9.34864L5.91976 9.31834L5.93893 9.29369L5.95724 9.27486L5.97556 9.26579L5.9973 9.25671L6.01887 9.25329L6.0555 9.25962L6.08922 9.26921L6.11764 9.2841H6.19039L6.26159 9.27503L6.32904 9.25329L6.39751 9.22299L6.46101 9.18636L6.52263 9.14014L6.581 9.09393L6.63629 9.04429L6.73181 8.94603L6.8025 8.85737L6.86755 8.77075L9.17207 8.94312L9.22171 8.94894H9.26793L9.30508 8.94603L9.33247 8.9397L9.3566 8.93063L9.37543 8.92104L9.39032 8.90889L9.39991 8.89399L9.40949 8.86661L9.4124 8.84144L9.40624 8.81406L9.3691 8.69407L9.34445 8.58674L9.31364 8.42053L9.30165 8.31611L9.29823 8.28239L8.9795 8.21153L8.67755 8.13741L8.40094 8.06072L8.1452 7.98369L7.90881 7.90666L7.69741 7.83015L7.5033 7.75637L7.33127 7.68602L7.18115 7.61823L7.05157 7.55695L6.85164 7.45545L6.73559 7.388L6.69519 7.36301V7.36284L6.67054 7.36044L6.67052 7.36044ZM11.561 7.69543L11.509 7.71084L11.4656 7.73189L11.4323 7.75996L11.4039 7.79317L11.3831 7.82689L11.3674 7.86096L11.3491 7.91642L11.3462 7.93815L11.3268 7.95972L11.3124 7.98386L11.2875 8.0489L11.2691 8.12884L11.2537 8.22076L11.2445 8.32193L11.2411 8.42977V8.65144L11.2503 8.86609L11.2657 9.04771L11.2806 9.21974L11.2657 9.29968L11.2474 9.35788L11.232 9.39793L11.2166 9.42532L11.1978 9.43782L11.1829 9.44124L11.168 9.432L11.1521 9.41625L11.1274 9.37329L11.1058 9.32091L11.0909 9.26305L11.0509 9.15846L11.0076 9.05404L10.9184 8.85121L10.8198 8.66001L10.7219 8.48815L10.6329 8.34368L10.562 8.23002L10.4942 8.13177L10.4234 8.05183L10.3554 7.98387L10.2919 7.93184L10.2298 7.88853L10.1719 7.85772L10.1166 7.83649L10.067 7.82451L10.0208 7.81818L9.97779 7.81475L9.94082 7.81818L9.88245 7.83016L9.84582 7.84556L9.83332 7.85481L9.78711 7.8519H9.74431L9.70768 7.85772L9.67002 7.86679L9.63972 7.8798L9.61182 7.89521L9.58769 7.91301L9.56612 7.93817L9.5324 7.99004L9.50775 8.04892L9.48943 8.11294L9.47933 8.1809L9.47642 8.25159L9.47933 8.31903L9.48943 8.43902L9.50484 8.52512L9.51305 8.55885L9.5478 8.67251L9.56612 8.7771L9.57228 8.87826L9.56612 8.97121L9.5478 9.05646L9.52024 9.13349L9.48943 9.20709L9.45194 9.27214L9.4124 9.3276L9.36909 9.37964L9.32904 9.41952L9.29258 9.45615L9.23712 9.50237L9.21247 9.51777L9.20973 9.5325L13.1382 9.45598L13.3431 9.43938L13.3285 9.43492L13.2696 9.41336L13.2239 9.38871L13.184 9.36423L13.1353 9.32469L13.1166 9.30586L13.0582 9.26889L13.012 9.22301L12.975 9.17388L12.947 9.12441L12.9254 9.07854L12.9138 9.04105L12.9037 9.00733L12.8521 8.87484L12.7967 8.75211L12.7351 8.63879L12.6739 8.53386L12.606 8.43903L12.5409 8.34985L12.4769 8.26991L12.4124 8.20195L12.2955 8.08556L12.2 8.00545L12.1383 7.95632L12.1147 7.93817L11.988 7.84951L11.8778 7.78104L11.782 7.73191L11.6959 7.70401L11.6226 7.69545H11.561L11.561 7.69543ZM13.3431 9.43932L13.3963 9.45609L13.1897 9.52747L12.9629 9.60108L12.6827 9.68683L12.3662 9.77636L12.0345 9.8587L11.8712 9.89635L11.7084 9.92665L11.5547 9.95079L11.4102 9.96619L9.17209 9.73305L9.20975 9.53243L9.1851 9.53296L8.09607 9.40389L7.39255 10.28L7.58324 11.1778L7.59231 14.6762L8.10343 14.9864V11.6329L8.10874 11.5745L8.12175 11.5187L8.1452 11.4672L8.17995 11.421L8.2224 11.3806L8.27187 11.3496L8.33366 11.3314L8.40436 11.3256L8.44681 11.3285L8.48721 11.3405L8.52093 11.3564L8.54832 11.3748L8.57297 11.3992L8.59471 11.4239L8.62552 11.4792L8.64418 11.5381L8.65291 11.5838L8.65924 11.6329L8.66592 15.2349L9.1601 15.3861L9.16626 11.71L9.16969 11.6728L9.175 11.6266L9.1904 11.5746L9.21539 11.5222L9.25254 11.4731L9.27376 11.4542L9.30167 11.4359L9.32905 11.421L9.36671 11.4085L9.40334 11.4022L9.44614 11.3993L9.49526 11.4022L9.53857 11.4114L9.57229 11.4272L9.60601 11.4455L9.63066 11.4702L9.65172 11.4946L9.68595 11.5496L9.70427 11.6083L9.71351 11.6574L9.71642 11.7033V15.5577L10.2519 15.7417L10.2394 11.7307L10.2423 11.6699L10.2543 11.6205L10.2755 11.5621L10.2919 11.5342L10.3092 11.5068L10.3318 11.4821L10.3583 11.4609L10.3897 11.4418L10.4271 11.4301L10.4701 11.421L10.5187 11.4181L10.5678 11.421L10.6112 11.4301L10.6444 11.4455L10.6781 11.4643L10.7036 11.488L10.7243 11.513L10.758 11.5684L10.7774 11.6266L10.7864 11.6728L10.7888 11.722V15.8062H11.3183L11.3032 11.7249L11.309 11.67L11.3207 11.6176L11.3422 11.5589L11.3799 11.5034L11.4011 11.4764L11.429 11.4543L11.4593 11.436L11.4965 11.4211L11.5363 11.4115L11.5826 11.4086L11.6346 11.4115L11.6805 11.424L11.7209 11.4389L11.7546 11.461L11.782 11.4851L11.8037 11.5098L11.822 11.5409L11.8345 11.5685L11.8534 11.6267L11.8619 11.6758V11.7249L11.8688 15.6897L12.3229 15.5577L12.32 11.688V11.6575L12.3296 11.6147L12.3484 11.5651L12.3725 11.513L12.4091 11.4644L12.4341 11.4418L12.461 11.4211L12.4918 11.4057L12.5255 11.3927L12.5627 11.3869L12.6031 11.384L12.6586 11.3869L12.7048 11.3994L12.7414 11.4153L12.7751 11.4331L12.8001 11.4577L12.8208 11.4851L12.8367 11.513L12.8487 11.5438L12.8638 11.6022L12.8676 11.6513V11.7005L12.8768 15.3766L13.3405 15.2172L13.3376 11.5871L13.3439 11.5222L13.3564 11.4731L13.3809 11.4211L13.4143 11.3719L13.4393 11.3468L13.4629 11.3286L13.4975 11.3103L13.5312 11.2944L13.5742 11.2857L13.6204 11.2822L13.67 11.2857L13.7128 11.2915L13.7494 11.3074L13.7803 11.3257L13.8082 11.3497L13.8289 11.3749L13.8597 11.4331L13.8785 11.488L13.8876 11.5382L13.8905 11.5873L13.8973 14.9803L14.4285 14.6912L14.4352 11.1778L14.6901 10.28L14.0509 9.38242L13.3431 9.43942L13.3431 9.43932ZM1.6754 9.03825L1.62919 9.35184L2.39502 9.46259L2.30019 10.1201L2.62235 10.1695L2.7206 9.51172L3.12663 9.57009L3.01622 10.3233L3.33853 10.3724L3.49499 9.30562L1.67538 9.03824L1.6754 9.03825ZM20.4263 9.06872L18.6032 9.31521L18.6645 9.76643L20.14 9.8402L18.7358 10.3044L18.7964 10.7625L20.6199 10.5163L20.5833 10.2245L19.0489 10.4306L20.5461 9.94804L20.5033 9.64027L18.9352 9.56667L20.4656 9.36092L20.4263 9.06873L20.4263 9.06872ZM15.5536 9.64729L15.52 9.65894L15.505 9.67143L15.4901 9.68684L15.4651 9.73305L15.4497 9.80101L15.4404 9.89344L15.4439 10.0095L15.4584 10.0374L15.4685 10.0653L15.4771 10.1048L15.4736 10.1545L15.4611 10.2094L15.4308 10.2681L15.4096 10.2984L15.3788 10.3293L15.3384 10.3505L15.3023 10.3755L15.271 10.4063L15.2585 10.4275L15.2532 10.4492L15.2556 10.4737L15.2617 10.5013L15.2806 10.5292L15.3081 10.56L15.3485 10.5932L15.4005 10.6274L15.4521 10.6463L15.4988 10.6673L15.5479 10.701L15.57 10.7228L15.5878 10.7445L15.6003 10.7719L15.6096 10.7998V10.8335L15.6003 10.8673L15.5817 10.9073L15.5508 10.9506L15.532 10.9843L15.5233 11.021V11.0704L15.5291 11.0946L15.5416 11.1225L15.5604 11.1471L15.5878 11.1745L15.6215 11.1995L15.6648 11.2236L15.7198 11.2486L15.7848 11.2699L15.8334 11.2637H15.8831L15.9447 11.2669L16.0058 11.2762L16.0652 11.2974L16.0916 11.3104L16.1128 11.3287L16.1345 11.3493L16.1476 11.3777L16.159 11.307L16.1749 11.2361L16.2023 11.15L16.2395 11.0574L16.2645 11.0152L16.291 10.9718L16.3252 10.9313L16.3595 10.8952L16.4028 10.8673L16.4485 10.8423L16.526 10.781L16.5953 10.7165L16.6633 10.6394L16.6912 10.6004L16.7135 10.56L16.7254 10.5199V10.483L16.7135 10.4493L16.7034 10.4309L16.6856 10.4184L16.6416 10.3909L16.5738 10.3726L16.5377 10.3693L16.4976 10.3572L16.4543 10.3356L16.436 10.3202L16.4139 10.2984L16.3994 10.2772L16.3874 10.2464L16.3778 10.2123L16.372 10.1723L16.3744 10.1266L16.3834 10.074L16.3805 10.0283L16.372 9.9816L16.3536 9.93573L16.3372 9.91467L16.3194 9.89636L16.2944 9.88386L16.2674 9.8741H16.2304L16.1909 9.88044L16.1417 9.89927L16.0859 9.92375L16.0493 9.93915L16.0087 9.94788L15.9659 9.95456L15.9226 9.95079L15.9048 9.94497L15.8865 9.93248L15.8711 9.91759L15.8586 9.89927L15.8518 9.8712L15.8499 9.84039L15.83 9.81933L15.7819 9.76678L15.7107 9.70841L15.6707 9.68051L15.6303 9.65894L15.5907 9.6473H15.5536L15.5536 9.64729ZM6.31093 9.92391L6.28919 9.93007L6.22859 9.95078L6.14146 9.98793L6.03791 10.0466L5.97868 10.0862L5.92373 10.1324L5.86827 10.1882L5.81675 10.2495L5.76728 10.3202L5.72055 10.4001L5.6805 10.4859L5.6502 10.5876L5.60689 10.6396L5.56786 10.7012L5.5302 10.7782L5.5148 10.8212L5.50179 10.8669L5.49597 10.9166V10.9657L5.50179 11.0151L5.52113 11.0643L5.54801 11.1134L5.58515 11.1622L5.60107 11.1962L5.61648 11.2363L5.63188 11.2913L5.64438 11.3625L5.64729 11.4516L5.64438 11.5556L5.62846 11.6761L5.71473 11.5715L5.80665 11.4544L5.9174 11.307L6.02815 11.1381L6.08019 11.0456L6.13223 10.9535L6.17844 10.8616L6.2161 10.7692L6.2464 10.6766L6.26763 10.5876L6.25564 10.5504L6.24982 10.5076L6.24007 10.4402V10.3507L6.24982 10.2346L6.27105 10.0929L6.31093 9.92393L6.31093 9.92391ZM3.30185 10.4737L1.4634 10.5598L1.51886 11.7099L1.84734 11.694L1.8078 10.8551L2.28126 10.8339L2.31498 11.5684L2.64055 11.553L2.60392 10.8179L2.99009 10.7998L3.02775 11.5987L3.35435 11.5838L3.3018 10.4737L3.30185 10.4737ZM6.84598 10.6091L6.82098 10.6582L6.78726 10.7164L6.7318 10.7936L6.65871 10.8856L6.55652 10.9872L6.49541 11.0391L6.42746 11.0946L6.35146 11.15L6.26758 11.2058L6.2556 11.2146L6.21845 11.2425L6.16933 11.2882L6.14142 11.3224L6.1178 11.3623L6.08939 11.4082L6.06491 11.464L6.04317 11.5251L6.02485 11.593L6.01287 11.6697L6.00363 11.7563V11.8479L6.01287 11.9528L6.00363 11.986L5.98822 12.0756L5.98497 12.1368V12.2046L5.99456 12.2784L6.01287 12.3578L6.04985 12.3001L6.09863 12.238L6.16316 12.1584L6.24635 12.066L6.34409 11.9706L6.45826 11.8724L6.52279 11.8262L6.58733 11.7837L6.60907 11.7678L6.66453 11.725L6.69859 11.6913L6.73865 11.648L6.77476 11.593L6.81225 11.5314L6.84597 11.4578L6.87644 11.3749L6.89801 11.2762L6.91341 11.1683L6.91632 11.0483L6.90725 10.9164L6.88209 10.769L6.84597 10.6091L6.84598 10.6091ZM5.02926 10.6707L4.88428 11.0179L4.79236 11.2173L4.74665 11.3102L4.73125 11.3344L4.73416 11.3898L4.73981 11.4485L4.75282 11.5035L4.76446 11.5554L4.80485 11.6637L4.85689 11.762L4.918 11.8541L4.98938 11.9431L5.06007 12.0259L5.13676 12.0997L5.21379 12.168L5.28414 12.2253L5.41612 12.3217L5.50906 12.3796L5.54227 12.4011L5.50513 12.3092L5.47534 12.2142L5.45018 12.1218L5.42861 12.0259L5.40157 11.8477L5.38856 11.6817L5.38274 11.541L5.38616 11.4297L5.39147 11.3344L5.37024 11.2669L5.32693 11.1745L5.2042 10.9533L5.08421 10.7565L5.02927 10.6707L5.02926 10.6707ZM17.0519 10.7195L17.0298 10.7259L17.0057 10.7384L16.9773 10.7532L16.9502 10.775L16.8949 10.8395L16.8333 10.9285L16.8516 10.9566L16.8665 10.984L16.8699 11.0182L16.8636 11.0365L16.8545 11.0543L16.8391 11.073L16.815 11.0886L16.7813 11.1072L16.738 11.1194L16.6859 11.1314L16.618 11.141H16.606H16.5741L16.5322 11.1497L16.5072 11.1593L16.4855 11.1742L16.4644 11.193L16.4461 11.2176L16.4307 11.2488L16.4209 11.2854L16.4143 11.3316L16.418 11.3866L16.4273 11.4516L16.449 11.5252L16.3936 11.5682L16.3479 11.6149L16.3227 11.6452L16.2982 11.6819L16.2765 11.7185L16.2611 11.7589L16.2529 11.8017L16.2491 11.8508L16.2549 11.8999L16.2712 11.9491L16.3016 12.005L16.3415 12.06L16.3627 12.085L16.3877 12.1153L16.409 12.1524L16.434 12.1986L16.449 12.2478L16.4547 12.3027V12.3301L16.449 12.358L16.4143 12.3917L16.3906 12.4289L16.3694 12.4785L16.3665 12.5064V12.5367L16.3723 12.5675L16.384 12.6007L16.4055 12.635L16.4364 12.6716L16.4802 12.7058L16.5322 12.7423L16.5723 12.7853L16.6609 12.8897L16.7499 13.0038L16.7778 13.0471L16.7898 13.08V13.0559L16.7986 13.0285L16.8179 12.9913L16.8514 12.9451L16.9069 12.896L16.9839 12.8407L17.088 12.7853L17.1217 12.7698L17.1555 12.752L17.1929 12.7241L17.2234 12.6836L17.2335 12.6596L17.2421 12.6321L17.245 12.6007L17.2421 12.5675L17.2335 12.5271L17.2176 12.4871L17.1929 12.4443L17.177 12.4015L17.1645 12.3494V12.3181L17.1674 12.2911L17.1746 12.2627L17.1897 12.2353L17.2107 12.2077L17.2388 12.1832L17.2758 12.1615L17.3217 12.1461L17.3682 12.1428L17.4112 12.1307L17.4333 12.1187L17.454 12.1062L17.4723 12.085L17.4848 12.06L17.494 12.0295V11.9925L17.4877 11.9463L17.4723 11.8943L17.4449 11.833L17.4083 11.7623L17.3865 11.7377L17.3711 11.7127L17.3586 11.6819L17.3528 11.6415L17.3562 11.6208L17.3615 11.599L17.374 11.5745L17.3924 11.5528L17.4203 11.5281L17.4507 11.5037L17.4757 11.4734L17.494 11.4386L17.5055 11.3895L17.51 11.3626L17.5028 11.3316L17.494 11.2976L17.4791 11.2609L17.454 11.2233L17.4204 11.1839L17.3764 11.141L17.3217 11.0976L17.3158 11.0668L17.2941 10.9936L17.2571 10.8977L17.2335 10.8486L17.2051 10.8058L17.1748 10.7657L17.1371 10.7383L17.0976 10.7229L17.0755 10.7195H17.0519L17.0519 10.7195ZM16.7898 13.0801V13.0806H16.79L16.7898 13.0801ZM18.8093 10.8822L18.6527 11.9831L20.4723 12.2447L20.6351 11.1071L20.3095 11.0614L20.1926 11.8913L19.7229 11.8233L19.8265 11.0917L19.5043 11.0455L19.4003 11.7771L19.0189 11.7221L19.132 10.9289L18.8094 10.8822L18.8093 10.8822ZM15.2161 11.273L15.1861 11.2793L15.1519 11.2976L15.121 11.3284L15.0926 11.3752L15.0658 11.4387L15.0377 11.5255L15.0411 11.5528L15.0377 11.5871L15.032 11.6237L15.0166 11.6699L14.9949 11.7161L14.9578 11.7624L14.9115 11.8019L14.8687 11.8452L14.8311 11.8909L14.8008 11.9464L14.7888 11.9772L14.7859 12.0109V12.0417L14.795 12.072L14.8104 12.1028L14.8384 12.1336L14.8773 12.1615L14.9338 12.1862L14.9458 12.2141L14.9675 12.2781L14.9737 12.3216L14.9766 12.3678L14.9699 12.4169L14.9545 12.4661L14.9458 12.481L14.9304 12.5208L14.915 12.583L14.9115 12.6167V12.6499L14.9184 12.6865L14.9304 12.7242L14.9516 12.7583L14.98 12.7887L15.0199 12.8161L15.0685 12.8408L15.133 12.8594L15.2102 12.8716L15.2313 12.887L15.2535 12.9056L15.2695 12.9303L15.2748 12.9611L15.2713 12.9794L15.2623 12.9982L15.2501 13.016L15.2285 13.0349L15.2044 13.0559L15.1668 13.0806L15.1303 13.1268L15.1027 13.1759L15.0897 13.2033L15.0812 13.2312L15.0772 13.2596L15.0812 13.2862L15.0926 13.3113L15.1115 13.3324L15.1433 13.3512L15.1895 13.3666L15.2434 13.3759L15.3176 13.3786L15.3792 13.4287L15.5387 13.539L15.6402 13.6059L15.7481 13.6677L15.8556 13.7235L15.9567 13.763L15.9533 13.7355L15.9567 13.698L15.9692 13.6523L15.9934 13.5939L16.0367 13.5294L16.1017 13.459L16.145 13.4186L16.1912 13.3786L16.212 13.3729L16.2611 13.3483L16.3227 13.3112L16.3569 13.2862L16.3838 13.2559L16.4055 13.2256L16.4239 13.1913L16.4305 13.1513L16.4239 13.1085L16.409 13.0652L16.3747 13.019L16.3256 12.9674L16.2547 12.9144L16.2029 12.899L16.1532 12.8812L16.1262 12.8623L16.1046 12.844L16.0834 12.8195L16.0656 12.7916L16.0521 12.755L16.0497 12.715L16.0521 12.6692L16.0656 12.6167L16.0892 12.5546L16.1262 12.4871L16.1657 12.4534L16.1936 12.4169L16.2183 12.3705L16.2244 12.3495V12.3243L16.2143 12.3028L16.2 12.2781L16.1724 12.2569L16.1349 12.2382L16.0863 12.2232L16.0218 12.2078H15.9783L15.9389 12.1948L15.9201 12.1862L15.9052 12.1713L15.8893 12.1525L15.88 12.1307L15.8739 12.0994L15.8763 12.0662L15.8869 12.0229L15.9052 11.9709L15.9355 11.9127L15.9785 11.8452L15.9881 11.7836L15.9905 11.722L15.9851 11.6573L15.9726 11.6237L15.9567 11.5956L15.9355 11.5683L15.9052 11.5499L15.8675 11.5345L15.8218 11.5282L15.7664 11.5311L15.7018 11.547L15.6734 11.5558L15.6471 11.5587H15.6099L15.5671 11.5499L15.5204 11.5282L15.4713 11.4946L15.4221 11.4387L15.3821 11.381L15.3359 11.3319L15.3085 11.3101L15.2777 11.2913L15.2469 11.2793L15.2161 11.273L15.2161 11.273ZM3.39412 11.7738L2.60432 11.9529L1.59916 12.1769L1.74603 12.8469L1.76486 12.9085L1.79276 12.9673L1.82597 13.0188L1.86928 13.0621L1.91892 13.105L1.97387 13.1417L2.03549 13.1763L2.10345 13.2036L2.17705 13.2254L2.25408 13.2403L2.33659 13.25L2.42611 13.2557L2.51855 13.2528L2.6043 13.25V13.2499L2.61338 13.2469L2.71163 13.2312L2.8128 13.2132L2.90814 13.1882L3.00108 13.1603L3.08393 13.1266L3.16011 13.0934L3.23131 13.053L3.29533 13.013L3.35473 12.9702L3.40625 12.921L3.44956 12.8685L3.48619 12.8159L3.51409 12.7582L3.53566 12.6994L3.55073 12.6412L3.5574 12.5761L3.55398 12.5126L3.54148 12.4476L3.39411 11.7738L3.39412 11.7738ZM7.01546 11.7836L7.01648 11.8029L7.01837 11.7985V11.7865L7.01546 11.7836V11.7836ZM7.01648 11.8029L7.00878 11.8202L6.98465 11.8606L6.93603 11.9156L6.85216 11.9893L6.73233 12.0876L6.56698 12.2074L6.54781 12.217L6.50159 12.248L6.43466 12.3028L6.40043 12.3404L6.36003 12.3832L6.32631 12.4318L6.28968 12.4907L6.25938 12.5576L6.23473 12.6323L6.21299 12.7151L6.2005 12.807L6.1981 12.9087L6.20341 13.019L6.21299 13.0439L6.22172 13.0773L6.22891 13.1268L6.23182 13.1881V13.2593L6.22172 13.345L6.20341 13.4438L6.28968 13.3421L6.49578 13.1052L6.73611 12.8442L6.84257 12.7329L6.92867 12.6564L6.95093 12.589L6.96924 12.509L6.98704 12.4044L7.00587 12.2754L7.02162 12.1251L7.02419 11.9618L7.01649 11.8029L7.01648 11.8029ZM4.64588 12.0602V12.0996L4.6517 12.2074L4.66025 12.2817L4.67566 12.3678L4.6974 12.4633L4.72821 12.5611L4.76861 12.6655L4.82013 12.7701L4.88466 12.8745L4.96135 12.9796L5.00517 13.0287L5.0543 13.071L5.10685 13.1206L5.16162 13.1636L5.22291 13.2064L5.29069 13.2468L5.36104 13.2834L5.43568 13.3166L5.45639 13.3108H5.48429L5.52777 13.3166L5.58939 13.3394L5.66881 13.3788L5.77614 13.44L5.90521 13.529L5.82253 13.3325L5.75218 13.1514L5.69381 12.9761L5.67789 12.9334L5.65683 12.8808L5.61387 12.8134L5.55225 12.7329L5.46598 12.6442L5.41411 12.5948L5.35283 12.5456L5.28111 12.4965L5.20168 12.4445L5.13082 12.4198L5.0543 12.389L4.96427 12.3491L4.86978 12.2937L4.77734 12.2254L4.73729 12.1893L4.70083 12.1487L4.67002 12.1064L4.64588 12.0602L4.64588 12.0602ZM18.6343 12.103L18.3241 13.2863L18.6405 13.3695L18.7541 12.9332L20.2203 13.3079L20.2997 13.007L18.8341 12.6254L18.9477 12.1862L18.6343 12.103L18.6343 12.103ZM3.14809 12.1489L3.21895 12.4691L3.22477 12.5063L3.22768 12.5429L3.22186 12.5761L3.21176 12.6098L3.20012 12.6446L3.17855 12.6754L3.15442 12.7023L3.12652 12.7302L3.05514 12.7827L2.96373 12.8289L2.85298 12.8685L2.72665 12.9017L2.60392 12.9272H2.59142L2.47194 12.9359L2.36119 12.9335L2.26584 12.9176L2.1859 12.8902L2.14824 12.8685L2.12137 12.8469L2.09723 12.8223L2.07515 12.792L2.05975 12.7612L2.0505 12.7269L1.9769 12.4104L2.60391 12.2718L3.14808 12.1489L3.14809 12.1489ZM6.97161 13.0189L6.95672 13.0246L6.91341 13.0474L6.85504 13.0965L6.81858 13.1302L6.78435 13.1759L6.74669 13.2285L6.70732 13.293L6.6736 13.3695L6.63988 13.459L6.60906 13.5602L6.58116 13.6773L6.55994 13.8092L6.54453 13.9566L6.58116 14.0182L6.61523 14.0891L6.65528 14.1845L6.69226 14.2923L6.70441 14.3529L6.71639 14.4147L6.72563 14.4796L6.72837 14.5465L6.72563 14.6144L6.71639 14.6824L6.75063 14.6607L6.78726 14.6269L6.83399 14.5711L6.88209 14.4946L6.90708 14.4426L6.93122 14.3842L6.95672 14.3192L6.97795 14.2427L6.99677 14.1564L7.01509 14.064L7.04196 14.0273L7.06661 13.9811L7.09161 13.9107L7.1166 13.8151L7.13166 13.6922L7.13491 13.6213V13.5419L7.13166 13.4553L7.1219 13.357L7.10992 13.3512L7.09743 13.3358L7.07962 13.3079L7.0584 13.2654L7.03341 13.2067L7.00242 13.1239L6.97161 13.0189V13.0189ZM3.72617 13.1668L2.00437 13.8214L2.41279 14.8943L2.72056 14.7769L2.42289 13.9933L2.86503 13.8276L3.12659 14.5164L3.43094 14.3993L3.16938 13.7107L3.5321 13.5724L3.81523 14.3223L4.11924 14.2057L3.72622 13.1668L3.72617 13.1668ZM16.5472 13.477L16.5111 13.4799L16.4765 13.4924L16.4433 13.5142L16.4091 13.5479L16.3812 13.5912L16.357 13.6489L16.335 13.7208L16.3199 13.8063L16.2891 14.0333L16.2862 14.052V14.0304L16.2983 13.8705L16.253 13.8555L16.2062 13.8464L16.1812 13.8435L16.1595 13.8464L16.1384 13.8555L16.1196 13.8671L16.108 13.8897L16.1018 13.9168L16.0989 13.9537L16.108 14.0001L16.123 14.0578L16.148 14.1258L16.1687 14.1417L16.2275 14.1816L16.3291 14.236L16.4707 14.2976L16.514 14.3135L16.5597 14.3194L16.6123 14.3164L16.6369 14.3106L16.658 14.2976L16.6759 14.2793L16.6951 14.2519L16.7067 14.2182L16.7139 14.1783V14.1258L16.7038 14.0641L16.7437 13.9898L16.778 13.9168L16.8117 13.8276L16.8242 13.7814L16.8305 13.7357L16.8334 13.6923L16.8305 13.6489L16.818 13.6085L16.7987 13.5753L16.7689 13.5479L16.7259 13.5296L16.71 13.5198L16.6706 13.5015L16.6147 13.4828L16.5804 13.477H16.5472L16.5472 13.477ZM18.5017 13.5203L18.4473 13.5294L18.3913 13.5419L18.3422 13.5602L18.293 13.5848L18.2439 13.6122L18.2006 13.6489L18.1611 13.6893L18.1207 13.7322L18.0869 13.7846L18.0561 13.8396L18.0287 13.8978L18.0075 13.9599L17.9892 14.0217L17.9796 14.0794L17.9738 14.1381L17.9767 14.193L17.9825 14.2456L17.9955 14.2976L18.0133 14.3473L18.0354 14.3935L18.0657 14.4392L18.1 14.4796L18.1395 14.5191L18.1857 14.5563L18.2383 14.59L18.293 14.6203L18.3552 14.6477L18.4404 14.679L18.5238 14.6944L18.6008 14.6973L18.6741 14.6853L18.7453 14.6607L18.8127 14.6237L18.874 14.5741L18.9322 14.51L19.2126 14.1662L19.2342 14.1439L19.2621 14.1256L19.2886 14.1102L19.317 14.0982L19.347 14.0919H19.3786L19.4091 14.0953L19.4402 14.104L19.4861 14.1285L19.5255 14.1627L19.5536 14.1994L19.569 14.2456L19.5786 14.2976L19.5751 14.3558L19.5631 14.4174L19.5385 14.4883L19.5073 14.5504L19.4702 14.6025L19.4269 14.6419L19.381 14.6732L19.3295 14.6882L19.2708 14.691L19.2092 14.6853L19.1417 14.6665L19.0246 14.9464L19.0955 14.9714L19.1629 14.9892L19.2312 14.9988L19.292 15.0046L19.3536 15.0017L19.4091 14.9958L19.4639 14.9833L19.5164 14.9655L19.5655 14.94L19.6157 14.9063L19.658 14.8692L19.6985 14.8264L19.7384 14.7807L19.7716 14.7257L19.8054 14.6636L19.8367 14.5991L19.8613 14.5311L19.8762 14.4671L19.8882 14.405L19.8945 14.3444V14.2851L19.8882 14.2302L19.8762 14.1747L19.8574 14.1227L19.8338 14.0736L19.803 14.0244L19.765 13.9811L19.7254 13.9412L19.6797 13.9007L19.6272 13.867L19.569 13.8337L19.5073 13.8064L19.4062 13.7721L19.36 13.763L19.317 13.7567H19.2737L19.2312 13.7601L19.1903 13.7692L19.1508 13.7817L19.0863 13.8122L19.0315 13.8462L18.9818 13.8897L18.9322 13.9442L18.6433 14.3072L18.622 14.3313L18.5976 14.35L18.5729 14.3622L18.545 14.3717L18.5147 14.3747H18.4866L18.4563 14.3717L18.4247 14.3587L18.3817 14.338L18.3451 14.3072L18.3211 14.2735L18.3018 14.2302L18.293 14.1845V14.1354L18.3018 14.0828L18.3211 14.0273L18.348 13.9691L18.3817 13.92L18.4197 13.8829L18.4622 13.8555L18.5118 13.8396L18.5667 13.8337L18.6255 13.8396L18.6895 13.8521L18.8036 13.5722L18.742 13.5477L18.6807 13.5323L18.6191 13.5231L18.5609 13.5203H18.5017L18.5017 13.5203ZM4.96463 13.529L4.97473 13.5575L4.99544 13.6403L5.04165 13.7603L5.11286 13.9135L5.16199 13.9967L5.21745 14.0859L5.27856 14.1749L5.35319 14.267L5.43844 14.3589L5.5343 14.4486L5.63837 14.5347L5.75545 14.6175L6.52351 14.7896L6.52642 14.7558L6.51444 14.6667L6.50195 14.6055L6.48072 14.5347L6.447 14.4577L6.40421 14.3714L6.34207 14.2853L6.26538 14.1928L6.17346 14.1042L6.11852 14.058L6.05638 14.0155L5.99236 13.9693L5.91824 13.926L5.8407 13.8859L5.75785 13.8466L5.66576 13.806L5.56853 13.769L5.46309 13.7319L5.34943 13.7016L5.33454 13.7106L5.30989 13.7141L5.26949 13.7106L5.22036 13.6952L5.15343 13.6644L5.07007 13.6086L4.96463 13.529L4.96463 13.529ZM15.3571 13.6153L15.3268 13.6217L15.2921 13.6371L15.256 13.6586L15.2198 13.6982L15.2005 13.7208L15.1896 13.7511L15.1765 13.7815L15.1697 13.8214L15.1641 13.8644L15.167 13.9135L15.1731 13.9202L15.1795 13.9289L15.1765 13.9438L15.1697 13.9597L15.149 13.9751L15.1144 13.9967L15.0595 14.0213L15.0199 14.0304L14.98 14.0458L14.9395 14.0739L14.9213 14.092L14.9058 14.1133L14.8972 14.1355L14.89 14.1658L14.8876 14.1966L14.8933 14.2333L14.9083 14.2731L14.9338 14.3194L14.9458 14.3469L14.9545 14.3777L14.9578 14.412L14.9516 14.4513L14.9458 14.4697L14.9338 14.4914L14.915 14.5102L14.89 14.5251L14.863 14.5405L14.8258 14.553L14.7859 14.5679L14.7488 14.5867L14.7089 14.6141L14.6723 14.6542L14.6564 14.6792L14.6447 14.7071L14.6386 14.7375V14.7716L14.6415 14.8111L14.6535 14.8541L14.6598 14.8786V14.9036L14.6564 14.937L14.6476 14.9774L14.6261 15.0145L14.5953 15.0539L14.5494 15.0881L14.5085 15.1218L14.4753 15.1579L14.4468 15.2108L14.4421 15.2379L14.4357 15.2721L14.4391 15.3034L14.4468 15.3401L14.4665 15.3765L14.497 15.4137L14.5369 15.4532L14.5889 15.4926L14.6232 15.5361L14.6938 15.6405L14.7796 15.7817L14.8168 15.8524L14.8476 15.9204L14.875 15.8866L14.9116 15.8524L14.9612 15.8158L15.0258 15.7788L15.1091 15.7485L15.1548 15.7358L15.2045 15.7297L15.2589 15.7268H15.3176L15.3792 15.7209L15.4376 15.7084L15.5054 15.6835L15.5388 15.6651L15.5672 15.6439L15.5941 15.616L15.6129 15.5823L15.6278 15.5451L15.6346 15.4989L15.6278 15.4474L15.6163 15.3863L15.6009 15.3457L15.5911 15.3034L15.5882 15.2576L15.5911 15.2297L15.6009 15.2047L15.6129 15.1835L15.6345 15.1614L15.6581 15.1436L15.6923 15.1276L15.7361 15.1152L15.7853 15.1093H15.8431L15.8922 15.103L15.9201 15.0939L15.9451 15.0814L15.9693 15.0669L15.9852 15.0448L15.9967 15.0172L16.0035 14.9832L15.9967 14.9397L15.9818 14.8911L15.9534 14.8358L15.9138 14.7684L15.896 14.75L15.8801 14.7254L15.8676 14.6941L15.8619 14.6576L15.8676 14.6141L15.8922 14.5655L15.9111 14.5376L15.9355 14.5102L15.9629 14.464L15.9852 14.412L15.9996 14.3469V14.3166L15.9967 14.2795L15.9881 14.2458L15.9727 14.2155L15.9451 14.1846L15.9111 14.1533L15.8647 14.1287L15.807 14.1042L15.7998 14.1071L15.7791 14.1104L15.7449 14.1013L15.6957 14.0766L15.6654 14.0551L15.6307 14.0248L15.5941 13.9842L15.5542 13.9351L15.5117 13.874L15.4655 13.8002L15.4124 13.7141L15.3571 13.6153L15.3571 13.6153ZM7.18169 14.3622L7.16868 14.3714L7.15362 14.3959L7.1353 14.4426L7.12041 14.5193L7.10449 14.633L7.09781 14.7894L7.10124 15.0018L7.10449 15.0669L7.1074 15.1343L7.12041 15.2172L7.13872 15.3125L7.16235 15.4068L7.20035 15.4988L7.22345 15.5388L7.25187 15.5792L7.28268 15.5879L7.3164 15.6039L7.35937 15.6254L7.40849 15.6591L7.45813 15.7055L7.50726 15.7603L7.55006 15.8341L7.57179 15.7637L7.59011 15.6862L7.60825 15.5821L7.62009 15.462V15.3297L7.61718 15.2594L7.60417 15.189L7.58927 15.1144L7.57096 15.044L7.51892 14.9646L7.40184 14.7739L7.27277 14.5499L7.22022 14.4449L7.1865 14.3616H7.18085L7.18169 14.3622ZM4.19952 14.3902L3.98127 14.5164V14.516L2.60434 15.3034L2.76131 15.5727L3.38507 15.2173L3.55076 15.5023L3.57524 15.5578L3.59065 15.604L3.59647 15.6468L3.59356 15.6864L3.57815 15.724L3.55076 15.7572L3.51122 15.7909L3.46209 15.825L3.21595 15.9758L3.14285 16.0249L3.05898 16.0958L3.23717 16.4031L3.27723 16.3784L3.28339 16.3385L3.30222 16.3048L3.33542 16.274L3.39089 16.2398L3.65227 16.0828L3.70773 16.0467L3.75343 16.013L3.79109 15.9758L3.82139 15.9387L3.84261 15.9017L3.85853 15.8584L3.86709 15.8159L3.87103 15.7668V15.7384L3.92306 15.7697L3.97784 15.7909L3.98126 15.7945L4.03621 15.8033L4.09835 15.8062L4.16237 15.8004L4.2269 15.785L4.29434 15.7571L4.3623 15.7238L4.40851 15.6954L4.45422 15.6617L4.49188 15.6285L4.52834 15.5914L4.55915 15.5518L4.5838 15.5114L4.60827 15.4686L4.62368 15.4262L4.63909 15.3832L4.64593 15.337L4.64884 15.2908V15.2446L4.63909 15.2012L4.63001 15.155L4.6117 15.1093L4.59013 15.0669L4.19951 14.3902L4.19952 14.3902ZM17.8479 14.4885L17.6596 14.7923L18.1855 15.4628L17.3402 15.3154L17.1466 15.6314L18.3973 15.7815L18.9874 16.1443L19.1539 15.8741L18.5664 15.5143L17.8479 14.4885L17.8479 14.4885ZM4.07682 14.8173L4.28258 15.1771L4.30123 15.2172L4.31099 15.2576V15.2966L4.29798 15.337L4.27967 15.3736L4.24885 15.4068L4.21171 15.4416L4.16549 15.4719L4.11688 15.496L4.0734 15.5085L4.0277 15.5143L3.98816 15.5114H3.98148V15.5116L3.95118 15.4986L3.91695 15.4808L3.88665 15.4532L3.85875 15.4168L3.65249 15.0607L3.98148 14.8729V14.8728L4.07683 14.8173L4.07682 14.8173ZM5.86269 15.0448L5.89692 15.0883L5.92722 15.1436L5.97926 15.2785L6.01965 15.3979L6.03506 15.45L6.13297 15.5265L6.235 15.595L6.33616 15.6532L6.44058 15.7081L6.54174 15.7543L6.64393 15.7947L6.83462 15.856L7.00031 15.8988L7.13229 15.9233L7.25212 15.9416L7.20265 15.8897L7.15677 15.8343L7.07392 15.7206L6.99399 15.6006L6.90788 15.4779L6.83462 15.3858L6.773 15.3185L6.72627 15.2721L6.69306 15.2418L6.67132 15.223L6.65249 15.2174L6.53319 15.2014L6.40412 15.1807L6.27163 15.1523L6.14547 15.122L5.94554 15.0695L5.8627 15.0448L5.86269 15.0448ZM7.78431 15.407L7.90088 15.539L8.00787 15.6773L8.10664 15.813L8.1924 15.9416L8.31564 16.1386L8.36185 16.2185L8.49383 16.2773L8.62923 16.3197L8.76103 16.3539L8.88445 16.3784L9.07514 16.4031L9.15166 16.4089L9.11177 16.3134L9.07172 16.2249L9.03183 16.1444L8.98887 16.0677L8.90362 15.9387L8.82317 15.8372L8.74905 15.7605L8.69034 15.7052L8.6383 15.6619L8.56504 15.616L8.49092 15.5727L8.41732 15.5361L8.34354 15.5053L8.19907 15.4601L8.06607 15.4325L7.95292 15.4166L7.86392 15.407H7.78432L7.78431 15.407ZM14.304 15.6744L14.2825 15.6773L14.2575 15.6864L14.2333 15.7018L14.2054 15.7264L14.1779 15.7485L14.1495 15.7697L14.1226 15.8034L14.0942 15.8438L14.0788 15.8897V15.9171V15.945L14.0884 15.9726L14.1014 16.0063L14.125 16.013L14.1495 16.0249L14.1779 16.0433L14.202 16.065L14.2174 16.0958L14.2214 16.1112V16.1324L14.2145 16.1537L14.2054 16.1752L14.2111 16.2124L14.2265 16.2456L14.2517 16.2827L14.27 16.2981L14.2939 16.3168L14.3253 16.3284L14.359 16.338L14.4023 16.3444H14.4511L14.5069 16.338L14.5714 16.3255L14.5834 16.3048L14.6139 16.2523L14.6508 16.172L14.6668 16.1232L14.6755 16.0679L14.6784 16.0273L14.6755 15.9846L14.6697 15.9388L14.6537 15.8959L14.645 15.8772L14.6322 15.8618L14.6139 15.8526L14.5955 15.8464H14.5738L14.5497 15.8555L14.5343 15.8584L14.5005 15.8555L14.479 15.8497L14.4579 15.8427L14.4401 15.8243L14.421 15.7964L14.4083 15.7661L14.3939 15.7381L14.3684 15.7073L14.3409 15.6862L14.3227 15.6828L14.3047 15.6799L14.304 15.6744ZM12.9021 15.8062L12.8684 15.8101L12.8376 15.8192L12.8092 15.837L12.7879 15.8587L12.7667 15.8803L12.7359 15.9294L12.7109 15.9844L12.619 16.0306L12.5492 16.059L12.4961 16.0768L12.4595 16.0826L12.435 16.0797L12.4225 16.0768L12.4132 16.0677L12.3492 16.0335L12.2905 16.0099L12.2385 15.994L12.1952 15.9844H12.1551L12.1185 15.9878L12.0906 15.9969L12.0622 16.0099L12.0444 16.0248L12.0255 16.0431L12.0011 16.0739L11.9862 16.111L11.4973 16.495L11.415 16.5537L11.3431 16.5994L11.2756 16.6331L11.2174 16.6578L11.1625 16.6735L11.1168 16.6793L11.0759 16.6828L11.0392 16.6764L11.0084 16.6708L10.9872 16.6578L10.9501 16.6331L10.9285 16.6119L10.9227 16.6028L10.8427 16.5566L10.7508 16.5017L10.6452 16.4308L10.4709 16.3134L10.3076 16.2186L10.1568 16.1419L10.0153 16.0826L9.88672 16.0407L9.76964 16.0099L9.66573 15.9907L9.57022 15.9844L9.48703 15.982L9.41326 15.9878L9.35163 16.0003L9.30251 16.0128L9.23797 16.0369L9.21349 16.0465L9.24756 16.0986L9.28128 16.1443L9.31842 16.1877L9.35454 16.2311L9.44116 16.3017L9.52982 16.3659L9.62517 16.4178L9.72051 16.4613L9.81552 16.495L9.9112 16.5234L10.0038 16.5441L10.0867 16.5595L10.2306 16.5744L10.3326 16.5811H10.3664L10.4646 16.5904L10.5475 16.6028L10.6183 16.6143L10.6736 16.6302L10.7227 16.6456L10.7589 16.6607L10.7898 16.6765L10.8119 16.6924L10.8239 16.7102L10.8337 16.7228L10.8427 16.7502L10.8388 16.7656L10.8361 16.7747L10.7536 16.8209L10.6736 16.8701L10.6024 16.9226L10.535 16.9781L10.4763 17.0357L10.4213 17.0917L10.3289 17.202L10.2614 17.3036L10.2128 17.3836L10.1752 17.4572L10.3047 17.5L10.3409 17.399L10.3876 17.3127L10.4396 17.2333L10.4951 17.1624L10.5509 17.1008L10.612 17.0453L10.6704 16.9991L10.7291 16.9587L10.8361 16.9009L10.9256 16.8642L10.9838 16.8427L11.0055 16.8363L11.0297 16.8151L11.0517 16.7994L11.0971 16.784L11.1399 16.781L11.1813 16.7896L11.215 16.8026L11.2392 16.8175L11.2607 16.8363L11.3191 16.8613L11.3715 16.8918L11.4203 16.9284L11.4665 16.9683L11.5064 17.0145L11.543 17.0607L11.6046 17.1561L11.6509 17.2447L11.6851 17.3223L11.7092 17.3932L11.8595 17.3276L11.8383 17.2881L11.8136 17.2418L11.753 17.1533L11.6784 17.0578L11.6009 16.9717L11.4697 16.8302L11.411 16.7747L11.4179 16.7405L11.4299 16.7131L11.4448 16.6948L11.4665 16.6794L11.4875 16.6669L11.5161 16.6605L11.5677 16.6576L11.62 16.664L11.6659 16.6735L11.7092 16.6889L11.7828 16.7352L11.8508 16.7656L11.9028 16.781L11.949 16.7867H11.9822L12.0112 16.781L12.0285 16.7747L12.0656 16.8124L12.1026 16.8398L12.1344 16.8615L12.1575 16.873L12.183 16.8764H12.2037L12.2221 16.8701L12.2385 16.8615L12.2597 16.8363L12.2751 16.805L12.2842 16.7747L12.3088 16.7559L12.3333 16.7434L12.3766 16.7352L12.4167 16.7405L12.4499 16.7532L12.4812 16.7747L12.5024 16.7935L12.5208 16.8153L12.5606 16.8822L12.6012 16.9351L12.644 16.9717L12.6835 16.993L12.7234 17.0049L12.764 17.0084L12.801 17.002L12.8342 16.9901L12.8684 16.9717L12.8992 16.9529L12.9451 16.9096L12.9786 16.873L12.9913 16.8581L13.0221 16.805L13.0562 16.7776L13.0896 16.7627H13.1175L13.1443 16.7686L13.1627 16.7811L13.1825 16.7935L13.2431 16.8517L13.2922 16.8918L13.3385 16.9192L13.3756 16.9351L13.4059 16.9409L13.4338 16.938L13.455 16.9284L13.4709 16.913L13.4834 16.8918L13.4917 16.8701L13.5018 16.8238V16.7747V16.7502V16.7324L13.5071 16.7165L13.5177 16.7073L13.5413 16.689L13.5687 16.6828H13.6H13.6245L13.652 16.689L13.7344 16.6398L13.7965 16.5994L13.8427 16.5596L13.8759 16.5017L13.9165 16.4396L13.9656 16.3785L14.018 16.3225L14.1043 16.234L14.1447 16.1968L13.9992 16.234L13.9011 16.2555L13.8369 16.2619L13.8028 16.2555L13.7902 16.246V16.234L13.8028 16.2186L13.7657 16.1419L13.7286 16.0797L13.6887 16.0335L13.652 16.0003L13.6178 15.9757L13.5817 15.9603L13.548 15.9536H13.5177L13.4858 15.9603L13.4584 15.9695L13.4151 15.994L13.3842 16.0157L13.3756 16.0248L13.2773 16.037L13.2094 16.0335L13.1626 16.0248L13.1329 16.0099L13.1207 15.994L13.1175 15.9791V15.9637L13.0678 15.9016L13.0221 15.8588L12.9786 15.8279L12.9388 15.8129L12.9021 15.8062L12.9021 15.8062ZM17.0825 15.8714L17.0272 15.8772L16.9752 15.8897L16.9221 15.9075L16.8701 15.9327L16.8182 15.9601L16.7691 15.9972L16.7227 16.0405L16.6762 16.0862L16.6342 16.1388L16.5995 16.1879L16.5692 16.2399L16.5445 16.2925L16.5296 16.344L16.5166 16.4003L16.5113 16.4519V16.5044L16.5195 16.5568L16.5325 16.6088L16.5503 16.6579L16.5745 16.71L16.6063 16.7591L16.6424 16.8088L16.6862 16.8555L16.7354 16.9007L16.8056 16.959L16.8759 16.9989L16.9505 17.0292L17.0238 17.0422L17.0979 17.0451L17.1749 17.0292L17.2516 17.0024L17.3281 16.9628L17.7039 16.7321L17.7308 16.7167L17.7612 16.7071L17.792 16.7007H17.8261L17.8571 16.7071L17.8845 16.7167L17.9124 16.7283L17.937 16.7475L17.974 16.787L17.9986 16.83L18.0135 16.8765V16.9253L18.0048 16.9745L17.9827 17.0292L17.9495 17.0857L17.9033 17.1405L17.8537 17.193L17.8021 17.2302L17.7491 17.2509L17.6975 17.2639L17.6412 17.2605L17.5863 17.248L17.5286 17.2201L17.4697 17.1776L17.2699 17.4084L17.3281 17.4512L17.3869 17.4907L17.4452 17.522L17.5031 17.5494L17.5589 17.5683L17.6171 17.5797L17.6726 17.5861L17.7278 17.5831L17.7833 17.5773L17.8388 17.5648L17.8906 17.5431L17.9432 17.5157L17.9957 17.482L18.0478 17.4421L18.1001 17.3962L18.1493 17.3433L18.1917 17.2913L18.2326 17.2358L18.2629 17.1811L18.2871 17.1251L18.3059 17.0698L18.3213 17.0148L18.3275 16.959V16.9036L18.3213 16.8486L18.3059 16.7933L18.2871 16.7408L18.2629 16.6858L18.2326 16.6362L18.1955 16.5843L18.1493 16.5352L18.1001 16.4856L18.0173 16.421L17.9769 16.3969L17.937 16.3786L17.8975 16.3627L17.8571 16.3536L17.8141 16.3478H17.7713L17.7039 16.3536L17.6388 16.369L17.5777 16.394L17.5132 16.4306L17.1191 16.6763L17.0912 16.6888L17.0642 16.698L17.0334 16.7042H17.006L16.9776 16.698L16.9505 16.6888L16.9221 16.6734L16.8982 16.6521L16.8639 16.6179L16.8393 16.578L16.8278 16.5352L16.8244 16.4917L16.8307 16.4455L16.8456 16.3969L16.8735 16.3512L16.9072 16.305L16.9534 16.2588L17.0026 16.225L17.0488 16.1999L17.1008 16.1908H17.1505L17.202 16.2028L17.2575 16.2278L17.3133 16.2615L17.5159 16.0338L17.4635 15.9938L17.4115 15.9566L17.3566 15.9263L17.3037 15.9048L17.2482 15.8868L17.1933 15.8743L17.1375 15.8714H17.0825L17.0825 15.8714ZM5.1896 15.9202L4.65212 16.1634V16.1633L3.44074 16.7042L3.65847 16.9589L4.01195 16.7966L4.37227 17.2175L4.14786 17.5338L4.37227 17.7949L4.65214 17.374V17.3736L5.42551 16.1994L5.18963 15.9202L5.1896 15.9202ZM7.75328 16.1847L7.73155 16.1879L7.72282 16.1937L7.71956 16.1972L7.12285 16.2399L7.17232 16.2713L7.22384 16.3171L7.27399 16.369L7.32021 16.4245L7.39347 16.5203L7.42189 16.5599L7.5133 16.6181L7.60008 16.6672L7.68533 16.7038L7.76578 16.7352L7.8423 16.7564L7.91351 16.7721L7.98146 16.7809L8.04274 16.7838L8.15007 16.7809L8.22949 16.7689L8.27913 16.7564L8.29745 16.753L8.54599 16.6706L8.74336 16.6181L8.86917 16.5902L8.91538 16.5809L8.8137 16.566L8.70347 16.541L8.59169 16.5102L8.48813 16.477L8.32192 16.4154L8.25414 16.3902L8.08553 16.3016L7.95304 16.2429L7.86113 16.2059L7.79608 16.1879L7.75329 16.1847L7.75328 16.1847ZM4.99311 16.3257L4.65213 16.8122L4.55953 16.9411L4.31116 16.6521L4.65213 16.4888V16.489L4.99311 16.3257V16.3257ZM5.85086 16.652L4.69198 18.0809L5.52475 18.7538L5.73427 18.4962L5.15005 18.0233L6.09938 16.8514L5.85084 16.652L5.85086 16.652ZM9.32093 16.6672L9.19803 16.6858L9.08779 16.71L8.98902 16.7408L8.90001 16.7721L8.82007 16.8088L8.75212 16.8454L8.69049 16.8858L8.63846 16.9224L8.59566 16.959L8.558 16.996L8.50699 17.0576L8.47567 17.0972L8.4666 17.116L8.58351 17.1405L8.70008 17.1502L8.81374 17.153L8.92159 17.1473L9.01368 17.1376L9.0878 17.128L9.15182 17.116L9.45292 17.0669L9.64361 17.0393L9.76976 17.0292L9.80057 16.9782L9.84679 16.9253L9.89831 16.8733L9.95429 16.8212L10.0496 16.7408L10.0895 16.71L9.89215 16.7071L9.72645 16.7042L9.4904 16.6888L9.36082 16.6734L9.32094 16.6672H9.32093ZM15.8189 16.9902L14.9004 17.6174L15.936 19.1353L16.8857 18.49L16.7013 18.2194L16.0067 18.6904L15.7424 18.2998L16.3511 17.8846L16.1662 17.6144L15.5584 18.029L15.3393 17.7088L16.0038 17.2605L15.8189 16.9902V16.9902ZM7.24033 17.6694L6.47124 19.3411L6.75437 19.4707L7.05546 18.8161L7.3569 18.9573L7.40894 18.9847L7.44882 19.0155L7.47963 19.0458L7.49846 19.0806L7.50428 19.1204V19.1629L7.4923 19.2125L7.47005 19.2678L7.3569 19.5352L7.32609 19.618L7.3011 19.7225L7.53218 19.8305V19.8306L7.62137 19.8707L7.63917 19.8274L7.6241 19.7902L7.61846 19.7531L7.62701 19.7074L7.65166 19.6487L7.7744 19.3693L7.79956 19.3077L7.81822 19.2522L7.82695 19.2031L7.82986 19.154L7.82695 19.1107L7.81496 19.0682L7.79614 19.0284L7.76875 18.988L7.7566 18.9633L7.81497 18.9575L7.87025 18.9455L7.9252 18.92L7.97775 18.8868L8.02722 18.8433L8.06967 18.7942L8.10973 18.7331L8.14619 18.6656L8.16844 18.616L8.18436 18.5641L8.19634 18.5111L8.20593 18.4619V18.4099V18.3647L8.19925 18.3151L8.18676 18.2721L8.17135 18.2255L8.15304 18.1855L8.12787 18.1459L8.10049 18.1119L8.06968 18.0776L8.03304 18.0468L7.99316 18.0193L7.95071 17.9982L7.53219 17.8079V17.8075L7.24033 17.6694L7.24033 17.6694ZM14.8109 17.6754L14.5132 17.8141L14.8085 19.2181L13.9223 18.0935L13.6151 18.2385L14.8571 19.6858L15.1277 19.5601L14.8109 17.6755L14.8109 17.6754ZM7.39011 18.0903L7.53218 18.1583V18.1581L7.76584 18.2655L7.80281 18.2867L7.83362 18.3151L7.85827 18.3488L7.87025 18.3858L7.87607 18.4282L7.87316 18.475L7.86118 18.5241L7.83944 18.5761L7.81496 18.6223L7.78449 18.6595L7.75317 18.6903L7.71962 18.711L7.67956 18.7235L7.63917 18.7264L7.60014 18.7206L7.55632 18.7052L7.53218 18.696V18.6963L7.18487 18.5359L7.39011 18.0903H7.39011ZM8.54601 18.2439L8.0455 20.0143L9.14943 20.3288L9.23809 20.0114L8.43237 19.7841L8.56144 19.326L9.27182 19.5292L9.36083 19.2153L8.65045 19.0159L8.75555 18.6407L9.52703 18.8589L9.61279 18.5487L8.54602 18.2439L8.54601 18.2439ZM13.2034 18.3697L13.157 18.3766L13.1078 18.388L13.0834 18.3981L12.3608 18.6105L12.8834 20.3742L13.0834 20.316V20.3161L13.1826 20.2857L13.0834 19.9592V19.9591L12.9759 19.5963L13.0834 19.566L13.2953 19.5015L13.3535 19.4895L13.4031 19.4832L13.4456 19.4861L13.4836 19.5015L13.5144 19.5261L13.5414 19.5602L13.5654 19.6027L13.5871 19.6614L13.6766 19.9346L13.7075 20.0212L13.76 20.1133L14.0986 20.0145L14.0827 19.9654L14.0457 19.9532L14.0181 19.9248L13.9966 19.8854L13.9753 19.8276L13.8833 19.5352L13.8607 19.4736L13.837 19.4181L13.812 19.3753L13.7812 19.3382L13.7504 19.3074L13.7138 19.2834L13.6737 19.2641L13.6246 19.2492L13.6001 19.2434L13.64 19.2006L13.6737 19.1509L13.6984 19.0989L13.7172 19.0373L13.7229 18.9722V18.9053L13.7172 18.8341L13.6984 18.7608L13.6796 18.7078L13.6583 18.6592L13.6333 18.6134L13.606 18.5701L13.5751 18.5301L13.5414 18.4964L13.5048 18.465L13.4676 18.4382L13.4278 18.413L13.3843 18.3952L13.3415 18.3822L13.2953 18.3726L13.2523 18.3697H13.2033L13.2034 18.3697ZM10.2215 18.6102L10.1638 18.6131L10.1051 18.6222L10.0526 18.6342L10.0011 18.6564L9.95433 18.6771L9.91137 18.7079L9.872 18.7422L9.83434 18.7821L9.80062 18.8254L9.7722 18.8712L9.74909 18.926L9.7265 18.982L9.7087 19.0431L9.6962 19.1111L9.68696 19.2001L9.69227 19.2858L9.7087 19.3634L9.73609 19.4303L9.77614 19.4953L9.82869 19.5503L9.8922 19.5994L9.97026 19.6427L10.3665 19.8334L10.3936 19.8485L10.4186 19.8671L10.4398 19.8918L10.4552 19.9192L10.4711 19.9476L10.4764 19.9779L10.4826 20.0084L10.4793 20.0387L10.4677 20.0912L10.4432 20.1345L10.4127 20.1711L10.3729 20.199L10.3227 20.2174L10.2679 20.2293H10.2034L10.1296 20.2235L10.0617 20.2081L10.004 20.1836L9.95434 20.1528L9.91394 20.1167L9.8869 20.0676L9.86807 20.0145L9.86191 19.95L9.86516 19.8788L9.56423 19.8334L9.55756 19.9072V19.9779L9.56029 20.045L9.57056 20.107L9.58631 20.1658L9.60702 20.2206L9.63167 20.2697L9.66248 20.3161L9.69911 20.3589L9.739 20.3961L9.78521 20.4293L9.83725 20.4606L9.8922 20.4851L9.95433 20.5092L10.0218 20.5246L10.0926 20.54L10.1639 20.5464L10.2279 20.5491L10.2929 20.5464L10.3535 20.5376L10.4095 20.5217L10.4648 20.5034L10.5136 20.4789L10.5598 20.4481L10.6026 20.4144L10.6426 20.3743L10.6763 20.3286L10.7077 20.279L10.7351 20.2235L10.7563 20.1658L10.7717 20.1008L10.7876 20.0334L10.7967 19.9284L10.79 19.8363L10.7813 19.793L10.7659 19.7559L10.7481 19.7165L10.7255 19.6828L10.6825 19.6273L10.6339 19.5811L10.5813 19.5412L10.5168 19.5075L10.0954 19.3105L10.068 19.2951L10.0473 19.2768L10.0252 19.2555L10.0098 19.2311L10.0011 19.203L9.99438 19.1756L9.99096 19.1453L9.99438 19.1111L10.0069 19.0648L10.0252 19.0248L10.0555 18.9878L10.0897 18.9632L10.133 18.9419L10.1816 18.93L10.2337 18.926L10.2929 18.9329L10.3564 18.9454L10.4129 18.9666L10.4552 18.994L10.4923 19.0311L10.5197 19.0744L10.5385 19.126L10.5476 19.1847V19.2492L10.8487 19.2951L10.8549 19.2311L10.8578 19.166L10.852 19.1047L10.8429 19.046L10.8275 18.9911L10.8092 18.9387L10.7813 18.8896L10.7537 18.8433L10.7167 18.8004L10.6762 18.7638L10.6339 18.7263L10.5848 18.696L10.5327 18.6713L10.4764 18.6501L10.4156 18.6314L10.3511 18.6193L10.2833 18.6131L10.2215 18.6102L10.2215 18.6102ZM12.1611 18.6566L11.0572 18.8069L11.31 20.6292L12.4472 20.4722L12.4039 20.1472L11.5745 20.2603L11.51 19.7903L12.2387 19.692L12.1954 19.3694L11.4638 19.4705L11.4112 19.0862L12.2039 18.9763L12.1611 18.6566H12.1611ZM13.1907 18.7021L13.2313 18.7049L13.2707 18.7146L13.3044 18.7329L13.3357 18.7608L13.3633 18.7975L13.3878 18.8432L13.4061 18.8957L13.4186 18.9481L13.422 18.994L13.4151 19.0373L13.4032 19.0772L13.3843 19.1109L13.3575 19.1384L13.3237 19.1629L13.2799 19.1788L13.0834 19.2405L12.8898 19.2987L12.7483 18.8283L13.0834 18.7304V18.7305L13.1445 18.7112L13.1907 18.7021L13.1907 18.7021Z" fill="#3F6587"/>
</svg>
