<svg width="22" height="22" viewBox="0 0 22 22" fill="none" xmlns="http://www.w3.org/2000/svg">
<path d="M9.43558 18.8051L9.6009 19.376C6.12303 18.8051 3.31257 16.1021 2.65129 12.5792L3.31257 12.8283C3.97386 15.7741 6.37408 18.1491 9.43558 18.8051Z" fill="#3F6587"/>
<path d="M1.24302 11.3523L9.01924 13.0712L11.0031 11.1033V22L8.51716 13.7272L1.2369 11.4312C1.1573 11.4312 1.1573 11.3523 1.24302 11.3523Z" fill="#3F6587"/>
<path d="M3.22078 9.45718L2.64521 9.62117C3.22078 6.17114 5.94552 3.38318 9.49686 2.72719L9.24582 3.38318C6.28228 4.03917 3.88206 6.42018 3.22078 9.45718Z" fill="#3F6587"/>
<path d="M10.654 1.33018C10.654 1.24515 10.7336 1.24515 10.7336 1.33018L9.00082 9.04416L10.9847 11.0121H-5.91274e-07L8.33954 8.54609L10.654 1.33018Z" fill="#3F6587"/>
<path d="M20.7632 10.6477L12.987 8.92877L11.0031 10.8967V0L13.489 8.27278L20.7693 10.5688C20.8489 10.5688 20.8489 10.6477 20.7632 10.6477Z" fill="#3F6587"/>
<path d="M11.0153 10.9818H22L13.6605 13.4478L11.346 20.6698C11.346 20.7548 11.2664 20.7548 11.2664 20.6698L12.9992 12.9558L11.0153 10.9818Z" fill="#3F6587"/>
<path d="M18.7793 12.5428L19.3549 12.3788C18.7793 15.8288 16.0546 18.6168 12.5033 19.2728L12.7543 18.6168C15.724 17.9547 18.1242 15.5798 18.7793 12.5428Z" fill="#3F6587"/>
<path d="M18.5588 8.64937C18.5588 8.6433 18.5527 8.63722 18.5527 8.62507C18.5466 8.61293 18.5466 8.60078 18.5405 8.58863C17.9588 6.72999 16.6791 5.1386 14.9953 4.13639C14.285 3.72336 13.5012 3.41966 12.6746 3.26174L12.6563 3.20707C12.6318 3.201 12.6073 3.19492 12.5828 3.18885L12.4175 2.61789C12.4236 2.61789 12.4297 2.61789 12.442 2.62397L12.4358 2.61182C15.9872 3.18885 18.7976 5.97681 19.3732 9.42077L18.7119 9.17781C18.6568 9.00166 18.6078 8.82552 18.5588 8.64937Z" fill="#3F6587"/>
</svg>
