<svg width="22" height="6" viewBox="0 0 22 6" fill="none" xmlns="http://www.w3.org/2000/svg">
<g clip-path="url(#clip0_5838_133940)">
<path d="M1.41371 0.929009L1.42717 1.85802H1.4541C1.6426 1.33293 2.11383 0.902081 2.80049 0.902081C3.68911 0.902081 3.95838 1.34639 3.95838 2.19461V3.86414C3.95838 4.37577 3.98531 4.90086 4.10649 5.29131H2.66585C2.78703 4.91432 2.80049 4.45655 2.80049 3.90453V2.31579C2.80049 1.92534 2.65239 1.75031 2.22154 1.75031C1.89841 1.75031 1.65606 1.84455 1.46756 2.00612V3.91799C1.46756 4.47001 1.48103 4.92779 1.6022 5.30477H0.175031C0.30967 4.91432 0.323133 4.37577 0.323133 3.8776V2.31579C0.323133 1.89841 0.175031 1.52142 0 1.33293L1.41371 0.929009V0.929009ZM6.58384 4.47001V2.9082C6.4896 3.04284 6.38189 3.12362 6.07222 3.25826C5.6683 3.46022 5.5202 3.67564 5.5202 4.11995C5.5202 4.49694 5.73562 4.73929 6.05875 4.73929C6.38189 4.75275 6.4896 4.63158 6.58384 4.47001ZM6.20685 0.915545C7.31089 0.915545 7.72828 1.35985 7.72828 2.26193V4.14688C7.72828 4.48348 7.86291 4.59119 8.13219 4.59119C8.17258 4.59119 8.32069 4.56426 8.36108 4.52387C8.33415 4.65851 8.32069 4.72583 8.29376 4.79315C8.15912 5.17013 7.93023 5.38556 7.47246 5.38556C6.92044 5.38556 6.65116 4.9951 6.6377 4.60465H6.62424C6.43574 5.15667 6.08568 5.38556 5.5202 5.38556C4.83354 5.38556 4.38923 4.96818 4.38923 4.32191C4.38923 3.63525 5.00857 3.33905 5.65484 3.0967C6.27417 2.85435 6.59731 2.67931 6.59731 2.23501V2.14076C6.59731 1.65606 6.44921 1.41371 5.99143 1.41371C5.70869 1.41371 5.60098 1.54835 5.54712 1.81763C5.45288 2.23501 5.29131 2.38311 5.02203 2.38311C4.77968 2.38311 4.5508 2.22154 4.5508 1.91187C4.52387 1.31946 5.35863 0.915545 6.20685 0.915545V0.915545ZM10.8654 4.82007C10.7173 5.15667 10.3537 5.38556 9.84211 5.38556C8.96695 5.38556 8.61689 4.94125 8.61689 4.13342V1.6022H8.19951V1.57528L9.72093 0L9.74786 0.0134639V1.00979H10.8519L10.7442 1.61567H9.76132V3.95838C9.76132 4.40269 9.94982 4.59119 10.3537 4.59119C10.6634 4.59119 10.825 4.5508 10.9731 4.47001C10.9327 4.61812 10.9192 4.6989 10.8654 4.82007V4.82007ZM12.4406 0.982864V3.94492C12.4406 4.38923 12.6157 4.63158 13.0465 4.63158C13.41 4.63158 13.6793 4.5104 13.8409 4.30845V2.30233C13.8409 1.85802 13.8005 1.49449 13.6524 1.1175L14.9718 0.982864V4.01224C14.9718 4.68543 15.0392 4.98164 15.1469 5.30477H13.8543V4.44308H13.8409C13.6524 4.9951 13.3023 5.38556 12.5618 5.38556C11.6328 5.38556 11.2827 4.82007 11.2827 3.98531V2.30233C11.2827 1.85802 11.2424 1.49449 11.0942 1.1175L12.4406 0.982864V0.982864ZM16.776 2.00612C16.9645 1.21175 17.328 0.902081 17.8127 0.902081C18.257 0.902081 18.4859 1.13097 18.4859 1.49449C18.4859 1.81763 18.2974 2.0869 17.9608 2.0869C17.7589 2.0869 17.6377 1.99266 17.5569 1.91187C17.4627 1.81763 17.3953 1.72338 17.2876 1.72338C17.0588 1.72338 16.8029 2.11383 16.8029 2.7601V3.83721C16.8029 4.3623 16.8433 4.88739 16.951 5.29131H15.5239C15.6585 4.90086 15.672 4.3623 15.672 3.86414V2.31579C15.672 1.89841 15.5239 1.52142 15.3488 1.33293L16.7491 0.929009L16.7625 0.942473V2.01958L16.776 2.00612V2.00612ZM19.4823 2.63892L20.9229 2.50428C20.9094 1.81763 20.8017 1.41371 20.3305 1.41371C19.8458 1.42717 19.563 1.81763 19.4823 2.63892V2.63892ZM20.3439 5.38556C19.2399 5.38556 18.3378 4.65851 18.3378 3.25826C18.3378 1.84455 19.1995 0.888617 20.3709 0.888617C21.4749 0.888617 22 1.58874 22 2.92166H19.4823V3.0563C19.4823 4.11995 20.0343 4.5508 20.7883 4.5508C21.4749 4.5508 21.7711 4.28152 21.9731 4.07956L22 4.14688C21.8115 4.79315 21.2999 5.38556 20.3439 5.38556V5.38556Z" fill="#3F6587"/>
</g>
<defs>
<clipPath id="clip0_5838_133940">
<rect width="22" height="5.38556" fill="white"/>
</clipPath>
</defs>
</svg>
