<svg width="25" height="25" viewBox="0 0 25 25" fill="none" xmlns="http://www.w3.org/2000/svg">
<g clip-path="url(#clip0_5838_134594)">
<path d="M21.6572 3.88003C23.455 5.80702 24.9882 8.64547 24.9765 12.2231C24.9738 13.113 24.8007 14.0281 24.6177 14.8248C24.0516 17.2828 22.7571 19.2287 21.2984 20.656C19.2844 22.6278 16.4369 24.1699 12.7758 24.2444C9.2834 24.3153 6.16864 22.9544 3.98418 20.9251C1.85355 18.9461 0.22978 16.2835 0.0369013 12.6717C-0.0806199 10.472 0.492632 8.52615 1.11343 7.19933C1.2785 6.84587 1.39512 6.52381 1.56199 6.21251C1.64362 6.0609 1.82035 5.92364 1.92083 5.76396C3.81283 2.75864 6.83878 0.569697 11.0713 0.112172C11.1261 0.105892 11.1772 0.0996123 11.161 0.0224609C12.0582 0.0224609 12.9553 0.0224609 13.8524 0.0224609C14.5781 0.206368 15.5345 0.338243 16.2746 0.560726C16.8532 0.734765 17.4067 1.01735 17.7996 1.1887C18.3828 1.44348 18.7721 1.61214 19.235 1.90639C20.1124 2.46439 21.005 3.18028 21.6572 3.88003ZM24.7074 11.2363C24.6984 10.707 24.7657 10.1015 24.3485 9.98037C23.5869 10.0862 22.9544 10.3204 22.1058 10.3392C21.9147 10.9178 22.3022 11.536 22.9132 11.5952C23.307 11.6894 23.2074 11.2919 23.5411 11.326C23.9063 11.5988 24.3746 11.4498 24.7074 11.2363ZM24.4383 13.3894C24.9281 13.401 24.6213 12.6161 24.7074 12.2231C23.7896 12.181 22.9867 12.146 22.1058 12.3128C22.1417 12.7381 21.9452 12.9301 22.0161 13.3894C22.1659 13.3894 22.3148 13.3894 22.4646 13.3894C22.4799 12.9435 22.2924 12.696 22.644 12.4923C23.1276 12.3676 23.0199 12.8341 23.4514 12.7614C23.5941 12.4223 24.1718 12.4528 24.4383 12.6717C24.4383 12.9112 24.4383 13.1499 24.4383 13.3894ZM24.4383 14.5556C24.4732 14.3108 24.1054 14.3152 23.9897 14.2865C23.3375 14.1223 22.7167 14.0865 22.1955 13.9276C22.1354 13.9276 22.0762 13.9276 22.0161 13.9276C22.0277 14.4113 21.589 14.91 21.9263 15.1836C22.3902 15.2285 22.1704 14.5907 22.3749 14.3762C22.74 14.318 23.0755 14.4857 23.4514 14.5556C23.7941 14.6192 24.3799 14.9046 24.4383 14.5556ZM22.1955 9.71123C22.9625 9.87451 24.275 9.23038 24.2588 8.6347C24.2436 8.06325 23.8865 7.94303 23.1823 8.00673C22.766 8.04441 22.4422 8.20589 22.1955 8.36557C21.9667 8.51359 21.4984 8.74864 21.5675 9.17297C21.6195 9.49234 21.921 9.65292 22.1955 9.71123ZM23.0029 7.10962C23.1365 6.98133 23.3895 6.9607 23.3617 6.75078C22.7598 6.71848 22.3623 7.3644 21.9263 7.19933C22.0672 6.56059 22.8575 6.20175 22.5543 5.40511C22.1955 5.45535 21.8636 5.72717 21.6572 5.85367C21.4724 5.9667 21.2715 6.06269 21.2087 6.1228C21.1333 6.19457 21.0158 6.22956 20.9395 6.30222C20.735 6.49869 20.3268 6.618 20.3116 6.9302C21.1207 6.81268 21.4464 6.21072 22.1955 6.03309C22.0609 6.40539 21.7981 6.68529 21.5675 7.01991C21.3648 7.31506 20.9629 7.63443 21.119 8.00673C21.4796 8.04082 21.7909 7.63084 21.9263 7.55817C22.2089 7.40656 22.8791 7.22804 23.0029 7.10962ZM22.8235 16.8881C23.1025 16.6405 22.7122 16.2503 22.4646 16.5293C22.4026 16.8298 22.6153 16.8567 22.8235 16.8881ZM21.2087 18.6823C21.7792 18.6053 22.6979 19.2628 22.7337 18.4132C22.0196 17.9906 21.5361 17.3385 20.6704 17.0675C20.6632 17.2236 20.6901 17.3465 20.7601 17.4264C21.0678 17.4883 21.3352 17.7054 21.5675 17.8749C21.7909 18.0382 22.1022 18.2113 22.1955 18.5029C21.8375 18.459 21.4697 18.4876 21.119 18.4132C20.6345 18.3101 20.1734 17.8167 19.9527 18.3235C20.2344 18.4006 20.3313 18.6626 20.6704 18.6823C20.7377 18.8672 20.9503 19.0574 21.0292 19.1309C21.0974 19.1946 21.2239 19.1588 21.2984 19.2206C21.4957 19.3839 21.6563 19.8513 21.9263 19.6691C21.9622 19.1228 21.0893 19.0143 21.2087 18.6823ZM21.119 5.3154C21.1898 5.0059 21.0355 4.92067 20.8498 4.86685C20.7413 5.0059 20.5627 5.21672 20.7601 5.40511C20.9297 5.42485 20.9584 5.30374 21.119 5.3154ZM20.7601 21.0148C20.8373 20.9421 20.813 20.7691 20.9395 20.7457C20.6955 19.8836 20.1187 19.3534 19.863 18.5029C19.6001 18.5836 19.5876 18.5836 19.3247 18.5029C19.0789 18.0696 18.6564 17.6085 18.3379 17.0675C18.3119 17.0237 18.3648 16.9312 18.3379 16.8881C18.2904 16.811 18.1181 16.7822 18.0688 16.7087C17.997 16.6011 18.0481 16.463 17.9791 16.3498C17.8517 16.1418 17.7135 16.0421 17.6202 15.8116C17.5198 15.5631 17.4632 15.407 17.3511 15.1836C17.2695 15.0204 17.2345 14.7477 17.2614 14.3762C17.2686 14.2748 17.4211 14.169 17.4408 14.1071C17.5018 13.9179 17.4516 13.6828 17.5305 13.4791C17.5978 13.3051 17.7808 13.1911 17.8894 13.0305C18.0715 12.7596 18.1989 12.5587 18.3379 12.2231C18.4151 12.0365 18.5855 11.6992 18.7865 11.5055C18.7748 10.6065 19.427 10.1284 19.4144 9.35239C19.41 9.09043 19.0726 8.82041 19.235 8.45528C18.7954 7.99776 18.5954 7.3007 18.3379 6.66106C17.9836 6.52291 17.7629 6.11203 17.4408 5.85367C17.23 5.68411 17.1098 5.65361 16.9025 5.40511C16.8801 5.3782 16.7339 5.33962 16.7231 5.3154C16.6316 5.11176 16.6406 5.16828 16.3643 4.95656C16.3347 4.93413 16.3006 4.7888 16.2746 4.77714C16.2306 4.7574 16.1328 4.80495 16.0951 4.77714C15.913 4.63988 15.7489 4.37792 15.6466 4.32858C15.5273 4.27117 15.2886 4.29898 15.1083 4.23887C15.0061 4.20478 14.8625 4.08188 14.7495 4.05945C14.7558 4.06035 14.6409 4.17607 14.5701 4.14916C14.5387 4.1375 14.562 4.07291 14.4803 4.05945C14.1834 4.01101 14.0147 3.92937 13.7627 4.05945C13.7905 3.85222 13.5034 3.95987 13.4935 3.79032C13.2208 3.84683 12.7211 3.67549 12.5964 3.88003C12.8754 3.88093 13.2163 4.05766 13.045 4.23887C12.7687 4.30167 12.8727 4.30167 12.5964 4.23887C12.5596 4.6946 12.9481 4.7251 13.3141 4.77714C13.3697 4.90722 13.4227 4.76817 13.3141 4.77714C13.2639 4.55824 12.9669 4.58605 13.045 4.23887C13.3886 4.12673 13.4245 3.97781 13.9421 4.14916C13.9887 4.16441 14.0874 4.31871 14.1215 4.32858C14.1897 4.34922 14.3314 4.2909 14.3906 4.32858C14.3942 4.33127 14.4472 4.66231 14.7495 4.508C14.7629 4.883 15.1514 4.883 15.3775 5.04627C15.5022 5.1907 15.8206 5.14136 15.9157 5.3154C15.8825 5.16289 15.9857 5.14585 16.0951 5.13598C16.1346 5.24632 16.21 5.31989 16.3643 5.3154C16.2889 5.63567 16.8209 5.80791 16.6334 5.94338C16.3517 5.71731 15.9848 5.57467 15.4672 5.58453C15.2267 5.3163 14.8562 5.17814 14.3009 5.22569C14.0775 5.26247 13.7115 4.71344 13.673 5.13598C13.8927 5.33514 14.4965 5.14944 14.3906 5.67425C14.8446 5.60876 15.0491 5.79356 15.2877 5.94338C15.2877 6.03309 15.2877 6.1228 15.2877 6.21251C15.5614 6.217 15.5031 5.88955 15.826 5.94338C15.8574 6.0609 15.9839 6.08422 16.0054 6.21251C16.0539 6.53009 15.6879 6.4332 15.7363 6.75078C16.0243 6.67632 15.922 6.67452 16.0951 6.84049C16.1526 6.56956 16.2351 6.32285 16.5437 6.30222C16.6173 6.39642 16.7716 6.48523 16.8128 6.57135C16.8972 6.74898 16.7473 6.96339 16.9025 7.10962C16.8613 7.45501 17.1439 7.93855 17.3511 7.7376C17.1932 7.71606 17.1466 7.58329 17.1717 7.37875C17.4901 7.5178 17.2255 7.07373 17.4408 7.10962C17.8005 7.40746 17.8382 8.02736 17.8894 8.6347C18.0499 8.64637 18.0787 8.52526 18.2482 8.54499C18.2482 8.6347 18.2482 8.72441 18.2482 8.81413C17.9064 8.81861 18.1836 9.661 17.7099 9.71123C17.9046 9.69598 17.7503 10.0297 17.7996 10.1598C17.6292 10.3275 17.5745 10.1697 17.3511 10.1598C17.4273 10.446 17.273 10.5007 17.1717 10.6083C17.3251 10.7241 17.5242 10.794 17.5305 11.0569C17.3044 11.2193 17.2757 11.579 16.9923 11.6849C16.9232 11.4552 17.343 11.2722 17.082 11.1466C16.9869 11.6194 16.3338 11.5351 16.0951 11.8643C16.1499 11.989 16.4405 11.8778 16.454 12.0437C16.4181 12.259 16.8622 11.9935 16.7231 12.3128C16.3508 12.2886 16.3732 12.4304 16.0951 12.3128C16.1256 12.1325 16.0772 12.0321 15.9157 12.0437C15.7363 12.2124 15.774 12.3694 15.4672 12.2231C15.5111 11.9343 15.7946 11.6929 15.4672 11.5055C15.4923 11.71 15.4456 11.8428 15.2877 11.8643C15.2806 11.7226 15.3308 11.5225 15.198 11.5055C15.2232 11.71 15.1765 11.8428 15.0186 11.8643C15.0123 11.3933 14.8473 10.9636 15.198 10.6981C15.2528 10.7501 15.6233 10.908 15.6466 10.6981C15.3075 10.4397 15.1487 10.0001 14.8392 9.71123C14.2937 10.0378 14.0103 9.03571 13.4935 9.35239C13.6981 9.32727 13.8308 9.37392 13.8524 9.53181C13.629 9.51836 13.5743 9.67266 13.4038 9.71123C13.2701 9.48606 13.001 9.39635 12.7758 9.26268C12.757 9.41609 12.9292 9.49503 12.7758 9.53181C12.5354 9.38379 12.3784 9.15144 12.1479 8.99355C11.8088 9.01328 11.3387 8.90204 11.3405 9.26268C12.0214 9.32996 12.6852 9.41339 12.9553 9.89066C12.7265 10.1203 12.5202 9.87092 12.417 9.71123C12.5031 9.33893 12.1479 9.69329 12.417 9.71123C12.3381 10.0925 12.478 10.2935 12.2376 10.6083C12.661 10.6128 12.696 10.2298 12.9553 10.0701C13.1912 10.2854 13.306 9.94179 13.5832 9.89066C13.7788 9.85477 13.9493 9.91667 14.2112 9.89066C14.2668 10.1338 14.5862 10.114 14.5701 10.4289C14.3135 10.2073 14.0318 10.01 13.4935 10.0701C13.0477 10.3177 13.0638 11.0704 12.9553 11.4157C12.9822 11.1789 12.8315 11.1215 12.5964 11.1466C12.4933 11.2525 12.495 11.4633 12.5067 11.6849C12.1864 11.8132 12.1326 12.2079 11.789 12.3128C11.8043 12.8403 10.9897 13.1185 11.6096 13.4791C11.6015 13.3517 11.5944 13.2252 11.6993 13.21C11.6275 13.5213 11.833 13.5545 11.789 13.8379C12.1075 13.9771 11.8428 13.533 12.0582 13.5688C12.1532 13.7725 12.6224 13.6029 12.8656 13.6585C13.5671 13.2171 14.0147 12.5918 15.0186 12.6717C15.0096 12.9022 14.6687 12.8 14.6598 13.0305C15.2734 12.9435 15.9283 12.7462 16.454 13.0305C16.3499 13.0162 16.2943 13.0503 16.2746 13.1202C16.1445 13.175 16.2835 13.2288 16.2746 13.1202C16.4334 13.1409 16.724 13.0296 16.6334 13.2997C16.6092 13.4846 16.236 13.3212 16.2746 13.5688C16.6406 13.6684 16.1723 13.8425 16.1849 14.1071C16.2575 14.1842 16.4307 14.1601 16.454 14.2865C16.4692 14.5458 16.5365 14.701 16.454 14.9145C16.4378 14.9575 16.2898 14.9701 16.2746 15.0042C16.1741 15.2276 16.0476 15.3298 15.826 15.5424C15.7013 15.6618 15.338 15.7542 15.1083 15.9013C15.0312 15.9507 15.0025 16.1211 14.9289 16.1704C14.7809 16.2692 14.0282 16.4055 14.3906 16.7984C14.4077 16.6961 14.4803 16.7482 14.4803 16.7984C14.6059 16.8415 14.6131 16.7438 14.6598 16.7087C14.693 16.6837 14.85 16.4746 14.9289 16.4395C14.9657 16.4226 15.0805 16.4674 15.1083 16.4395C15.2016 16.3454 15.1837 16.165 15.2877 16.0807C15.364 16.0189 15.4878 16.0547 15.5569 15.991C15.5928 15.9578 15.6089 15.8376 15.6466 15.8116C15.7614 15.7326 15.9902 15.7201 16.0951 15.6322C16.2835 15.4743 16.3535 15.1558 16.6334 15.0939C16.6352 15.3693 16.0754 15.5451 16.3643 15.8116C16.4656 15.5487 16.6217 15.9596 16.7231 15.991C16.5903 16.0673 16.5302 16.2172 16.5437 16.4395C16.1714 16.3534 16.5258 16.7078 16.5437 16.4395C16.6962 16.4441 16.8568 15.9973 17.082 15.991C17.0272 15.9929 17.4839 16.2781 17.5305 16.3498C17.6247 16.4952 17.6624 16.7393 17.5305 17.0675C17.683 17.0343 17.7001 17.1375 17.7099 17.2469C17.5987 17.5547 17.1797 17.5538 17.1717 17.9646C16.9178 17.9799 16.5563 17.8876 16.5437 18.1441C16.7043 18.0355 17.0658 18.1279 17.1717 17.9646C17.4821 17.9513 17.849 17.7225 18.0688 18.0543C17.91 18.1343 17.9548 18.4187 17.6202 18.3235C17.631 18.5478 17.7916 18.6043 17.5305 18.6823C16.9967 18.4438 16.2521 18.7003 16.0054 19.0412C16.4423 18.9999 16.3427 18.9811 16.6334 19.1309C16.8891 18.9685 17.0003 18.6599 17.5305 18.772C17.4991 18.8896 17.3726 18.9129 17.3511 19.0412C17.9495 19.1031 18.3801 18.3414 18.7865 18.772C18.6537 18.9982 18.4393 19.1425 18.1585 19.2206C18.0679 19.4673 17.7413 19.7006 17.4408 19.8486C17.2524 19.941 17.0308 19.9383 16.8128 20.028C16.4396 20.1814 16.0871 20.4183 15.7363 20.5662C15.5398 20.6488 15.3066 20.6631 15.1083 20.7457C14.8742 20.8435 14.614 21.0327 14.3009 21.1045C14.0327 21.1656 13.7456 21.1728 13.4935 21.2839C13.4388 21.1592 13.1481 21.2706 13.1347 21.1045C13.3392 20.7708 13.9896 20.8829 14.2112 20.5662C14.4848 20.5708 14.6678 20.4847 14.7495 20.2971C14.4463 20.263 14.3664 20.4523 14.2112 20.5662C13.6721 20.516 13.5653 20.8148 13.1347 20.656C13.1589 21.023 12.8126 20.8256 12.5964 20.9251C12.5552 20.9439 12.5399 21.0893 12.5067 21.1045C12.3964 21.1539 12.2546 21.0955 12.0582 21.1942C11.8662 21.2902 11.807 21.4355 11.6096 21.4634C11.2014 21.5209 10.8309 21.2956 10.3536 21.3736C10.3536 21.2839 10.3536 21.1942 10.3536 21.1045C10.2119 21.0973 10.0119 21.1476 9.99481 21.0148C9.70414 20.9037 9.92663 21.3046 9.63596 21.1942C9.38567 20.9557 8.92725 21.0086 8.55943 21.1045C8.42038 20.7259 9.05733 21.1243 8.91828 20.7457C8.34323 20.7691 7.98169 21.005 7.57261 21.1942C7.36717 20.9385 7.76549 20.4128 7.39319 20.2074C7.01192 20.2747 6.91503 20.6264 6.40637 20.5662C6.45571 20.2262 6.62347 20.0056 6.58579 19.5794C6.43239 19.583 6.35344 19.5131 6.31666 19.4C5.8995 19.3158 5.53438 19.7491 5.24013 19.4897C5.31549 19.1767 5.53977 19.0125 5.50926 18.5926C5.07147 18.7227 5.03828 19.2583 4.88129 19.6691C4.76377 19.7006 4.74044 19.8271 4.61215 19.8486C4.41479 20.0998 3.71415 19.8477 3.71505 20.2971C3.94471 20.5761 4.33046 19.9481 4.61215 20.2971C4.51258 20.4668 4.49733 20.7206 4.43273 20.9251C4.58165 21.1045 4.67406 21.3422 4.971 21.3736C5.24551 21.3736 5.6214 21.0139 5.86811 21.2839C5.79095 21.6294 5.67254 22.0824 6.13724 22.0913C6.43956 22.5838 6.84595 21.9191 7.21377 21.9119C6.98142 22.1703 7.25414 22.4681 7.21377 22.809C7.67937 22.7364 7.43715 21.9559 7.57261 21.5531C7.95209 21.4536 8.14228 21.1656 8.55943 21.1045C8.52086 21.502 9.08245 21.2992 9.0977 21.6428C9.14973 22.2932 8.8178 22.5597 8.46972 22.809C8.16201 23.0333 7.89019 22.6287 7.66232 22.809C8.06692 23.672 9.0026 22.8018 9.27712 22.4502C9.37311 22.0976 9.29686 21.5729 9.45654 21.2839C9.58842 21.6302 10.1527 21.545 10.2639 21.9119C10.2478 22.5838 10.0648 23.088 9.63596 23.3473C9.31749 23.4981 8.91289 23.0432 8.91828 23.437C9.10577 23.5787 9.39015 23.6227 9.72567 23.6164C10.1114 23.3752 10.4766 22.766 10.5331 22.181C10.551 21.9935 10.473 21.7773 10.5331 21.6428C10.8659 21.5791 10.9179 21.7962 11.2508 21.7325C11.5316 22.4251 11.5504 23.8667 10.3536 23.6164C10.4066 24.1663 11.1521 23.7492 11.4302 23.7061C11.4831 23.4244 11.6652 23.0324 11.6993 22.6296C11.7289 22.2878 11.6509 21.9362 11.6993 21.7325C11.8411 21.7397 12.0411 21.6895 12.0582 21.8222C11.5872 22.6395 11.8617 24.5315 13.1347 23.8856C13.1831 23.1481 13.0638 22.104 13.1347 21.6428C13.4855 21.6302 13.2657 22.024 13.3141 22.181C13.3285 22.2286 13.4837 22.3264 13.4935 22.3605C13.6209 22.7821 13.6478 23.3868 13.8524 23.8856C14.4579 23.7734 13.9968 22.5946 14.4803 22.3605C14.9011 22.7472 15.0446 23.411 15.6466 23.6164C15.8493 22.8324 15.2572 22.1021 15.2877 21.1942C15.5892 20.9547 15.9516 20.8292 16.454 20.656C16.8837 20.508 17.2452 20.3034 17.7099 20.2074C17.9683 20.8461 18.3523 21.3594 18.5173 22.0913C18.5613 22.3748 18.0724 22.1245 18.1585 22.4502C18.4366 22.7444 18.7569 22.2959 18.9659 22.181C19.2287 22.0375 19.6773 21.9874 19.6836 21.6428C19.3086 21.5674 19.2601 21.8168 18.9659 21.8222C18.5505 21.3109 18.3307 20.603 17.9791 20.028C18.0966 19.9966 18.1199 19.8701 18.2482 19.8486C19.3076 20.0154 19.6836 20.865 20.7601 21.0148ZM19.863 4.14916C20.5035 4.16172 20.7484 3.81992 20.6704 3.34176C20.6157 3.00624 20.0909 2.82772 19.863 2.71379C19.4584 3.17849 19.0251 3.63601 18.6968 4.05945C18.5909 4.19581 18.2931 4.3528 18.3379 4.59771C18.7667 4.54837 18.834 4.1366 19.235 4.05945C19.6809 4.55286 19.0888 4.95476 19.0556 5.49482C19.6943 5.41588 19.6199 4.62373 19.863 4.14916ZM18.4276 2.08581C18.7012 2.11542 19.0592 2.5245 19.3247 2.26523C18.982 2.06966 18.7865 1.72697 18.2482 1.72697C17.7844 2.37019 17.3646 3.05559 16.9923 3.79032C17.7467 3.91681 17.3475 2.88962 18.1585 3.07263C18.2545 2.73711 17.936 2.81695 17.9791 2.53437C18.2383 2.494 18.1908 2.14861 18.4276 2.08581ZM17.2614 18.1441C17.0568 18.119 16.9241 18.1656 16.9025 18.3235C17.0694 18.3109 17.2022 18.2643 17.2614 18.1441ZM16.8128 3.43147C16.9339 2.86181 16.1382 3.20899 16.1849 2.71379C16.3849 2.10644 16.6567 1.57087 16.9025 1.00928C16.7814 0.98147 16.7312 0.881891 16.5437 0.91957C16.1768 1.56908 15.9453 2.35405 15.7363 3.16234C16.1373 3.20989 16.4226 3.37316 16.8128 3.43147ZM16.6334 6.9302C16.646 6.82434 16.7931 6.72655 16.6334 6.66106C16.6208 6.76692 16.4737 6.86471 16.6334 6.9302ZM15.826 14.9145C15.6717 14.91 15.5964 14.9836 15.5569 15.0939C15.7112 15.0984 15.7864 15.0248 15.826 14.9145ZM15.6466 8.36557C15.7022 8.49565 15.7551 8.3566 15.6466 8.36557C15.591 8.23549 15.538 8.37454 15.6466 8.36557ZM15.5569 10.9672C15.582 10.9923 15.6932 10.9241 15.6466 10.8775C15.6215 10.8524 15.5102 10.9205 15.5569 10.9672ZM15.3775 3.07263C15.4376 2.11542 15.2043 1.45155 15.198 0.560726C14.9863 0.56252 14.9343 0.406423 14.6598 0.471015C14.4552 0.758987 14.2453 1.09809 14.0318 1.45783C13.8308 1.79694 13.4971 2.16924 13.5832 2.53437C14.2094 2.42223 13.934 1.66507 14.4803 1.63726C15.4734 1.58702 14.7163 2.88334 15.3775 3.07263ZM15.198 20.2074C15.3281 20.1517 15.1891 20.0989 15.198 20.2074C14.8256 20.1213 15.1801 20.4756 15.198 20.2074ZM15.0186 14.9145C15.0437 14.9396 15.155 14.8715 15.1083 14.8248C15.0832 14.7996 14.972 14.8678 15.0186 14.9145ZM14.3009 17.0675C14.326 17.0926 14.4373 17.0246 14.3906 16.9778C14.3655 16.9527 14.2543 17.0209 14.3009 17.0675ZM14.0318 7.91702C14.3198 7.98789 14.4238 8.24267 14.6598 8.36557C14.5683 7.94662 13.9735 7.55907 13.5832 7.7376C13.76 7.7995 13.8228 7.97712 13.8524 8.18615C13.6272 8.14847 13.3581 7.69633 13.2244 8.09644C13.8228 7.97174 13.8721 9.16669 14.3009 8.6347C13.9206 8.74056 14.0004 7.92599 14.0318 7.91702ZM14.3906 9.35239C14.2713 9.36585 14.1197 8.98727 14.0318 9.26268C14.0883 9.31202 14.3026 9.62691 14.3906 9.35239ZM14.3009 5.58453C14.0659 5.55942 13.9152 5.61683 13.9421 5.85367C14.1664 5.86892 14.2229 5.71551 14.3009 5.58453ZM14.1215 16.8881C14.2516 16.8324 14.1125 16.7796 14.1215 16.8881C14.0453 16.872 14.0372 16.9232 14.0318 16.9778C13.847 16.8989 13.629 17.2103 13.8524 17.2469C13.8838 17.1294 14.0103 17.1062 14.0318 16.9778C14.108 16.994 14.1161 16.9428 14.1215 16.8881ZM13.4038 17.6955C13.4029 17.6049 13.2468 17.5825 13.2244 17.6955C13.2432 17.804 13.324 17.7502 13.4038 17.6955ZM13.1347 8.36557C13.2047 8.34583 13.3114 8.36288 13.3141 8.27586C13.2441 8.2956 13.1374 8.27855 13.1347 8.36557ZM12.8656 7.64788C13.0064 7.63891 13.1768 7.65955 13.1347 7.46846C13.0746 7.46846 13.0154 7.46846 12.9553 7.46846C12.9553 7.55817 12.8826 7.57522 12.8656 7.64788ZM13.1347 17.8749C12.9104 17.8597 12.8539 18.0131 12.7758 18.1441C13.0001 18.1592 13.0566 18.0058 13.1347 17.8749ZM13.045 5.40511C13.1993 5.4096 13.2746 5.33604 13.3141 5.22569C13.1733 5.23376 13.0028 5.21403 13.045 5.40511ZM12.5964 8.72441C12.6188 8.92985 12.8817 8.96125 12.8656 8.81413C12.8593 8.75671 12.5731 8.5127 12.5964 8.72441ZM12.5964 9.26268C12.6215 9.2878 12.7328 9.21962 12.6861 9.17297C12.661 9.14785 12.5498 9.21603 12.5964 9.26268ZM12.5964 9.80094C12.6215 9.82606 12.7328 9.75788 12.6861 9.71123C12.661 9.68611 12.5498 9.7543 12.5964 9.80094ZM12.417 5.3154C12.417 5.36474 12.4897 5.41678 12.5067 5.3154C12.5067 5.26516 12.434 5.21313 12.417 5.3154ZM11.4302 4.77714C11.9864 4.58336 12.164 5.23466 12.5067 4.95656C12.068 4.67845 11.6087 4.3528 11.161 4.32858C11.1189 4.61027 11.4024 4.56542 11.4302 4.77714ZM12.0582 3.70061C12.1281 3.68087 12.2349 3.69791 12.2376 3.6109C12.1676 3.63063 12.0608 3.61359 12.0582 3.70061ZM11.8787 2.17552C11.9218 1.82924 12.3381 1.85795 12.417 1.54755C12.312 1.29366 11.8626 1.38427 11.9684 0.91957C11.8787 0.91957 11.789 0.91957 11.6993 0.91957C11.868 1.47667 11.3602 1.35736 11.3405 1.72697C11.6733 1.72248 11.5594 2.16655 11.8787 2.17552ZM11.8787 14.0174C11.9039 14.0425 12.0151 13.9744 11.9684 13.9276C11.9433 13.9025 11.8321 13.9707 11.8787 14.0174ZM11.789 14.9145C11.8141 14.9396 11.9254 14.8715 11.8787 14.8248C11.8536 14.7996 11.7424 14.8678 11.789 14.9145ZM11.6096 18.6823C11.7199 18.5559 12.077 18.6375 11.789 18.4132C11.5764 18.8285 10.8435 18.7236 10.8022 19.3103C11.2149 19.4027 11.4472 18.868 11.6096 18.6823ZM11.6993 15.4527C11.7244 15.4778 11.8357 15.4098 11.789 15.363C11.7639 15.3379 11.6527 15.4061 11.6993 15.4527ZM11.6096 14.1071C11.6096 14.1574 11.6823 14.2084 11.6993 14.1071C11.6993 14.0568 11.6266 14.0048 11.6096 14.1071ZM11.5199 9.53181C11.5899 9.51208 11.6966 9.52912 11.6993 9.4421C11.6293 9.46184 11.5226 9.44479 11.5199 9.53181ZM10.4434 4.86685C10.9978 4.73318 11.3898 5.23197 11.6993 5.04627C11.4033 4.83455 10.8928 4.83635 10.7125 4.508C10.5026 4.53581 10.342 4.68384 10.1742 4.508C10.0953 4.79598 10.4703 4.63091 10.4434 4.86685ZM11.4302 3.6109C11.4553 3.63601 11.5665 3.56783 11.5199 3.52118C11.4948 3.49607 11.3835 3.56425 11.4302 3.6109ZM11.5199 14.5556C11.3261 14.3529 11.214 14.6301 10.8919 14.5556C11.0139 14.8274 10.8803 15.1387 10.4434 15.0939C10.3438 15.3757 10.4012 15.3308 10.5331 15.5424C10.4021 15.7398 9.82256 15.4895 9.81538 15.8116C9.46641 16.0305 9.33274 16.4647 8.64914 16.3498C8.79089 15.9992 8.41589 16.1642 8.38001 15.991C8.59352 15.8753 8.63569 15.5892 8.73885 15.363C8.54777 15.3209 8.5684 15.4914 8.55943 15.6322C8.39078 15.651 8.09294 15.992 8.02117 15.8116C8.1028 15.5012 8.64197 15.181 8.38001 14.8248C8.25083 15.0419 8.10101 15.5568 7.75203 15.2733C7.59683 15.328 7.75921 15.6985 7.57261 15.7219C7.49277 15.652 7.36987 15.625 7.21377 15.6322C7.22723 15.4098 7.23081 15.1971 7.03435 15.1836C6.86838 15.7703 5.82505 15.4743 5.59897 15.0939C5.64204 15.4599 5.32356 15.1414 5.41955 14.9145C5.70483 15.1728 5.85106 14.7494 6.04753 14.6453C6.03317 14.7494 6.06726 14.805 6.13724 14.8248C6.31307 14.3717 5.57206 14.2049 5.86811 13.7482C5.91386 13.6774 6.03766 13.7941 6.04753 13.6585C6.04215 13.7294 5.8699 13.576 5.86811 13.5688C5.81249 13.3768 6.11122 13.324 6.04753 13.1202C5.93718 13.0809 5.86362 13.0054 5.86811 12.8511C5.94436 12.8673 5.95243 12.8161 5.95782 12.7614C6.11122 12.765 6.19017 12.695 6.22695 12.582C6.07354 12.5784 5.9946 12.6484 5.95782 12.7614C5.88156 12.7453 5.87349 12.7964 5.86811 12.8511C5.49222 12.7668 5.92732 12.3927 5.50926 12.3128C5.7147 11.9881 5.93539 12.2133 6.22695 12.0437C6.06009 12.0312 5.92732 11.9845 5.86811 11.8643C5.96679 11.9029 6.13455 11.8141 6.22695 11.8643C6.29692 11.902 6.26463 12.1038 6.31666 12.1334C6.47724 12.2258 6.69434 12.0796 6.76521 12.3128C6.85941 12.7569 6.91055 13.244 7.12406 13.5688C7.12137 13.0027 7.15994 12.3972 7.03435 11.954C7.06754 11.7988 7.30527 11.3996 7.12406 11.326C7.08459 11.4588 7.00923 11.291 6.85493 11.326C6.69973 11.3808 6.8621 11.7513 6.6755 11.7746C6.16864 11.6239 5.44198 11.692 5.15042 11.326C5.20335 10.7214 5.72008 10.5796 5.95782 10.1598C6.03407 10.1759 6.04215 10.1248 6.04753 10.0701C6.55439 9.97857 6.73202 9.55873 7.03435 9.26268C6.99846 9.73815 7.41652 8.95407 7.4829 9.26268C7.49456 9.97678 7.26849 10.6756 7.4829 11.326C7.70538 11.3395 7.918 11.3431 7.93146 11.1466C8.06154 11.091 7.92248 11.0381 7.93146 11.1466C7.64348 11.2247 7.65066 11.0085 7.57261 10.8775C7.72961 10.5868 8.11088 10.3473 8.11088 10.1598C8.2284 10.1284 8.25172 10.0019 8.38001 9.98037C8.59621 10.2612 8.85637 9.94089 9.0977 10.1598C9.08514 10.3267 9.03849 10.4594 8.91828 10.5186C8.53342 10.5222 8.258 10.6353 8.02117 10.7878C8.61595 10.7115 7.88391 11.0309 8.20059 11.1466C8.43025 10.8084 8.96044 10.7707 9.18741 10.4289C9.62161 10.5393 9.77501 10.4962 10.0845 10.2495C9.70235 10.2854 9.26904 10.0539 9.45654 9.80094C9.10129 9.91667 9.27353 9.5058 8.91828 9.62152C8.82587 9.23487 8.46344 9.12004 8.11088 8.99355C8.02565 8.75043 7.78792 8.65803 7.66232 8.45528C7.4228 8.45528 7.18416 8.45528 6.94464 8.45528C6.94464 8.24626 6.94464 8.03633 6.94464 7.82731C7.19314 7.61828 7.53942 7.23073 7.57261 7.01991C7.58607 6.93379 7.56005 6.64402 7.66232 6.57135C7.68565 6.55431 7.83008 6.59468 7.84174 6.57135C7.8866 6.48344 7.78433 6.29056 7.84174 6.21251C7.85969 6.18829 7.99246 6.15599 8.02117 6.1228C8.23019 5.88237 8.50471 5.65002 9.00799 5.49482C9.11654 5.46073 9.25469 5.51905 9.36683 5.49482C9.52024 5.46073 9.59739 5.33424 9.72567 5.3154C9.86472 5.29567 10.0576 5.41498 10.2639 5.40511C10.4954 5.39435 10.7152 5.22838 10.9816 5.3154C11.1422 5.34052 11.1655 5.23018 11.0713 5.22569C10.4452 5.34411 10.2998 4.98078 9.81538 4.95656C9.81449 4.62822 9.63776 4.47571 9.45654 4.32858C9.72208 4.67845 9.29596 4.92695 9.00799 4.68743C8.9416 4.99334 9.33902 4.83545 9.36683 5.04627C8.24006 5.38448 7.53583 6.14612 7.12406 7.19933C6.70511 7.40836 6.47993 7.81116 6.40637 8.36557C6.59476 8.59523 6.64769 8.96125 6.76521 9.26268C6.61719 9.62242 6.21977 9.73366 6.04753 10.0701C5.97127 10.0539 5.9632 10.1051 5.95782 10.1598C5.7156 10.1966 5.54335 10.4289 5.32984 10.6083C5.07417 10.8236 4.76556 10.9457 4.79158 11.5055C4.91269 11.7136 5.04636 11.9083 5.24013 12.0437C5.26076 12.4833 5.08224 12.7228 5.15042 13.21C5.189 13.3813 5.40699 13.3724 5.32984 13.6585C5.34509 13.8828 5.19169 13.9393 5.06071 14.0174C5.01585 14.1636 5.21501 14.2255 5.15042 14.3762C5.14235 14.396 4.9719 14.4587 4.971 14.4659C4.95036 14.622 5.06789 14.658 5.06071 14.8248C5.05174 15.0436 4.85527 15.2276 4.88129 15.363C4.90192 15.4698 5.03559 15.4787 5.06071 15.5424C5.08673 15.6079 5.02034 15.756 5.06071 15.8116C5.29216 16.1318 5.81428 16.165 6.13724 16.5293C6.53645 16.4594 6.6755 16.6486 7.03435 16.619C7.24696 16.6997 7.37525 16.9365 7.57261 17.0675C7.77715 17.204 8.17368 17.1868 8.20059 17.5161C8.60788 17.5125 8.93083 17.8058 9.0977 18.0543C9.12371 18.0938 8.98018 18.1675 9.00799 18.2338C9.04208 18.3145 9.24751 18.2508 9.27712 18.4132C9.31121 18.6017 9.21881 18.6501 9.18741 18.772C9.60367 18.8797 9.74541 19.269 9.63596 19.6691C9.46731 19.7992 9.16947 19.8011 9.0977 20.028C9.25021 19.9948 9.26725 20.098 9.27712 20.2074C9.7481 20.1096 9.94188 19.7364 10.2639 19.4897C10.0791 19.5921 10.0459 19.2412 9.99481 19.1309C9.92573 18.9802 9.81449 18.7398 9.81538 18.4132C9.51934 18.4096 9.47269 18.1584 9.45654 17.8749C9.46551 17.6445 9.80641 17.7466 9.81538 17.5161C9.31928 17.675 9.47 17.3923 9.00799 17.5161C9.11115 17.2532 8.57737 17.1833 8.82856 17.0675C9.23137 17.2505 9.51754 17.0209 9.90509 17.2469C9.95982 17.377 10.0136 17.238 9.90509 17.2469C9.85755 17.1743 9.8118 17.1016 9.81538 16.9778C9.9652 16.9778 10.1141 16.9778 10.2639 16.9778C10.2603 16.5589 10.0092 16.8066 9.72567 16.7984C9.83691 16.5078 9.43501 16.7293 9.54625 16.4395C9.61264 16.1776 10.0307 16.2656 9.99481 15.9013C9.89074 15.9156 9.83512 15.8815 9.81538 15.8116C10.2056 15.9345 10.4173 15.8107 10.8022 15.7219C10.8139 15.5613 10.6928 15.5327 10.7125 15.363C10.8731 15.3514 10.9018 15.4726 11.0713 15.4527C11.0965 15.2957 10.8184 15.0052 11.0713 14.9145C11.3001 14.9243 11.249 15.2151 11.2508 15.4527C11.5037 15.4662 11.4759 15.1988 11.6096 15.0939C11.4571 14.9315 11.2409 14.6588 11.5199 14.5556ZM11.2508 13.4791C11.3808 13.4234 11.2418 13.3705 11.2508 13.4791C11.0139 13.576 11.0139 14.0999 11.2508 14.1968C11.2508 13.9572 11.2508 13.7185 11.2508 13.4791ZM10.8919 12.4026C11.0256 12.3227 11.3037 12.3191 11.2508 12.0437C10.7277 11.9684 10.5259 12.216 10.4434 12.582C10.6901 12.6905 10.7565 12.4833 10.8919 12.4026ZM10.8022 3.6109C10.9323 3.56155 11.266 3.71586 11.2508 3.52118C11.1368 3.39918 10.8112 3.38303 10.8022 3.6109ZM10.8022 16.5293C10.8049 16.3157 11.2615 16.1013 10.9816 15.9013C10.9583 16.0413 10.7852 15.9632 10.7125 15.9013C10.7556 16.1839 10.4371 16.1041 10.5331 16.4395C10.6569 16.4359 10.7304 16.4817 10.8022 16.5293ZM10.8919 18.8617C10.917 18.8869 11.0283 18.8188 10.9816 18.772C10.9565 18.7469 10.8453 18.8151 10.8919 18.8617ZM10.7125 14.1968C10.7376 14.2219 10.8489 14.1538 10.8022 14.1071C10.7771 14.0819 10.6658 14.1501 10.7125 14.1968ZM10.8022 9.62152C10.8022 9.56142 10.8022 9.50221 10.8022 9.4421C10.7421 9.4421 10.6829 9.4421 10.6228 9.4421C10.6228 9.50221 10.6228 9.56142 10.6228 9.62152C10.6829 9.62152 10.7421 9.62152 10.8022 9.62152ZM10.3536 14.8248C10.3788 14.8499 10.49 14.7818 10.4434 14.735C10.4182 14.7099 10.307 14.7781 10.3536 14.8248ZM10.2639 3.70061C10.1096 3.69612 10.0343 3.76968 9.99481 3.88003C10.1491 3.88451 10.2245 3.81095 10.2639 3.70061ZM10.1742 15.363C10.2236 15.0509 9.57227 14.98 9.54625 15.2733C9.78488 15.2742 10.0585 15.2392 10.1742 15.363ZM10.2639 4.32858C9.90151 4.0128 10.0522 4.61745 10.2639 4.32858V4.32858ZM10.0845 12.7614C9.99032 13.2817 10.473 12.7991 10.0845 12.7614V12.7614ZM10.1742 20.028C10.045 19.9275 9.95533 19.9311 9.90509 20.1177C9.77591 20.168 9.6862 20.2577 9.63596 20.3868C9.83153 20.4031 9.92124 20.3134 9.90509 20.1177C10.0325 20.1258 10.159 20.132 10.1742 20.028ZM9.99481 9.98037C10.1365 9.44928 9.67992 9.51746 9.72567 9.08326C9.45116 9.14785 9.39913 8.99175 9.18741 8.99355C9.29237 8.6984 9.02413 8.75581 8.91828 8.6347C8.88957 8.60151 8.94878 8.48578 8.91828 8.45528C8.80434 8.34135 8.55046 8.46066 8.64914 8.18615C8.64376 8.13143 8.63569 8.08029 8.55943 8.09644C8.54418 8.2005 8.41769 8.19422 8.2903 8.18615C8.24186 8.89217 8.71553 9.07608 9.27712 9.17297C9.50947 9.44928 9.60815 9.85836 9.99481 9.98037ZM9.81538 3.07263C9.97597 2.33072 9.57227 1.41119 9.45654 0.650437C9.36683 0.650437 9.27712 0.650437 9.18741 0.650437C9.15242 0.778723 9.07975 0.802048 9.18741 0.91957C9.40899 1.62559 9.36234 2.59896 9.81538 3.07263ZM9.27712 19.6691C9.30224 19.6943 9.41348 19.6262 9.36683 19.5794C9.34171 19.5543 9.23047 19.6225 9.27712 19.6691ZM9.18741 15.7219C9.25738 15.7021 9.36414 15.7193 9.36683 15.6322C9.29686 15.6519 9.1901 15.6348 9.18741 15.7219ZM9.0977 12.4923C9.16767 12.4725 9.27443 12.4896 9.27712 12.4026C9.20714 12.4223 9.10039 12.4053 9.0977 12.4923ZM9.27712 3.96974C9.27622 3.87913 9.12012 3.8567 9.0977 3.96974C9.11654 4.07829 9.19728 4.02446 9.27712 3.96974ZM9.0977 4.59771C9.12282 4.62283 9.23406 4.55465 9.18741 4.508C9.16229 4.48288 9.05105 4.55107 9.0977 4.59771ZM8.82856 20.1177C9.22419 20.1347 8.85368 19.7642 8.82856 20.1177C8.45626 20.0316 8.81062 20.3859 8.82856 20.1177ZM8.73885 3.34176C8.68503 2.52809 8.85009 1.49641 8.64914 0.829859C8.55943 0.829859 8.46972 0.829859 8.38001 0.829859C8.18982 1.22548 8.70476 2.10016 8.38001 2.62408C8.10191 2.48144 7.96196 2.20513 7.75203 1.9961C7.51251 1.75747 7.37973 1.39593 6.94464 1.45783C6.74996 1.67045 7.1097 1.78438 7.21377 1.90639C7.66412 2.43748 8.09652 3.11659 8.73885 3.34176ZM8.02117 20.4765C8.17547 20.4811 8.25083 20.4075 8.2903 20.2971C8.14945 20.3061 7.979 20.2855 8.02117 20.4765ZM7.93146 14.3762C7.94402 14.0945 7.7018 14.0677 7.4829 14.0174C7.5439 14.2255 7.64438 14.3941 7.93146 14.3762ZM7.75203 20.2074C7.77715 20.2325 7.88839 20.1644 7.84174 20.1177C7.81663 20.0926 7.70538 20.1608 7.75203 20.2074ZM7.21377 4.05945C7.4228 4.03612 7.99784 3.79032 7.75203 3.34176C7.34295 3.29152 7.37256 3.67997 6.94464 3.6109C6.60553 3.44224 6.2126 3.29063 6.13724 2.89321C6.03138 2.3388 6.37408 2.13964 6.58579 1.72697C4.88757 2.14143 6.26642 4.16621 7.21377 4.05945ZM6.58579 15.363C6.61091 15.3881 6.72215 15.32 6.6755 15.2733C6.65038 15.2482 6.53914 15.3164 6.58579 15.363ZM6.49608 13.6585C6.62616 13.6028 6.48711 13.55 6.49608 13.6585C6.42342 13.6756 6.40637 13.7482 6.31666 13.7482C6.32473 13.6208 6.33191 13.4943 6.22695 13.4791C6.12647 13.6083 6.13006 13.698 6.31666 13.7482C6.30859 13.8756 6.30141 14.0021 6.40637 14.0174C6.47635 13.9375 6.50326 13.8146 6.49608 13.6585ZM6.49608 13.2997C6.5212 13.0952 6.47455 12.9624 6.31666 12.9408C6.29154 13.1454 6.33819 13.2781 6.49608 13.2997ZM6.40637 4.86685C6.44495 4.4793 5.96679 4.46763 5.7784 4.32858C5.57655 4.18056 5.38008 4.00562 5.24013 3.79032C5.02303 3.45659 5.14683 3.10044 4.79158 2.8035C4.51527 3.10851 5.06789 3.57501 4.79158 3.88003C4.40851 3.82082 3.916 3.24757 3.71505 3.79032C4.12323 4.01011 4.64086 4.12045 4.971 4.41829C5.10377 4.76458 5.25 5.09651 5.24013 5.58453C4.86245 5.62132 4.55564 5.81689 4.1636 5.76396C3.89895 5.72807 3.31404 5.3782 3.26649 5.04627C3.15974 4.65872 3.56074 4.54299 3.3562 4.32858C3.2028 4.16621 3.00364 4.35639 2.99736 4.59771C2.79641 4.63629 2.96058 5.03999 2.90765 5.22569C3.3257 5.7801 4.48118 6.4637 5.24013 5.85367C5.24013 5.76396 5.24013 5.67425 5.24013 5.58453C5.42763 5.62221 5.47786 5.52263 5.59897 5.49482C5.64921 5.14047 5.22309 4.80046 5.50926 4.508C5.91565 4.52056 5.97845 4.87582 6.40637 4.86685ZM6.31666 14.2865C6.33012 14.1923 6.24758 14.055 6.22695 14.1968C6.21349 14.291 6.29603 14.4282 6.31666 14.2865ZM6.04753 15.363C6.07265 15.3881 6.18389 15.32 6.13724 15.2733C6.11212 15.2482 6.00088 15.3164 6.04753 15.363ZM4.971 18.2338C4.95126 18.1639 4.89564 18.1298 4.79158 18.1441C4.66508 18.4607 4.40941 18.4311 4.1636 18.5926C4.02993 18.6805 3.92676 18.8608 3.80476 18.9515C3.72581 19.0098 3.6056 18.9873 3.53562 19.0412C3.48539 19.0798 3.40913 19.1721 3.3562 19.2206C3.21446 19.3507 3.01261 19.3848 3.08707 19.6691C3.50423 19.6324 3.77784 19.2557 4.07389 19.0412C4.21025 18.9425 4.46323 18.8985 4.61215 18.772C4.77812 18.6321 4.92435 18.4472 4.971 18.2338ZM4.61215 17.6058C4.49284 17.6058 4.37263 17.6058 4.25331 17.6058C3.85589 17.9521 3.30686 18.2688 2.90765 18.5029C2.74886 18.5962 2.45102 18.6205 2.45909 18.8617C2.87715 19.0502 3.27905 18.6232 3.62534 18.4132C3.98418 18.1961 4.50091 18.022 4.61215 17.6058ZM3.98418 7.10962C4.1331 6.8997 4.48477 6.89252 4.43273 6.48164C4.02724 6.43499 4.0712 6.8378 3.71505 6.84049C3.12385 6.68349 2.5497 6.51125 2.36938 5.94338C2.39719 5.73166 2.68068 5.77652 2.63852 5.49482C2.52369 5.48944 2.51472 5.37999 2.36938 5.40511C1.45074 6.23045 2.85382 7.26661 3.98418 7.10962ZM4.1636 16.9778C3.84064 16.8657 3.41452 17.1403 3.17678 17.2469C3.14538 17.2613 3.12475 17.4049 3.08707 17.4264C2.71477 17.6381 2.14869 17.7378 2.01054 18.1441C2.46986 18.1271 2.84037 17.8795 3.17678 17.6955C3.53473 17.4999 3.94201 17.3187 4.1636 16.9778ZM3.71505 8.00673C3.71325 7.79501 3.86935 7.74298 3.80476 7.46846C3.3248 7.40746 3.47193 7.97264 2.99736 7.91702C2.54611 7.74029 1.97466 7.68377 1.83112 7.19933C1.70642 6.79473 2.18009 6.75167 1.92083 6.48164C1.83112 6.48164 1.74141 6.48164 1.6517 6.48164C1.4337 6.74719 1.39961 7.11859 1.47228 7.37875C1.57724 7.75554 2.72284 8.32251 3.3562 8.18615C3.50961 8.15296 3.55446 7.92688 3.71505 8.00673ZM0.844299 15.6322C1.00129 16.6477 3.58586 15.7937 3.26649 15.0042C2.86728 14.1403 0.748308 15.0069 0.844299 15.6322ZM3.08707 9.71123C3.24586 9.54168 3.15256 9.11825 3.17678 8.81413C2.7668 8.55755 1.99619 8.02377 1.38256 8.09644C1.12061 8.12694 1.02731 8.30905 0.754588 8.36557C0.751 8.66072 0.602977 8.81233 0.664877 9.17297C1.57634 9.24833 2.18906 9.62242 3.08707 9.71123ZM2.99736 14.1071C2.99287 13.7222 2.90047 13.4262 2.72823 13.21C2.19893 13.1589 1.80331 13.2414 1.6517 13.5688C0.844299 13.1938 0.00191407 14.0112 0.575166 14.735C1.36462 14.5081 2.19804 14.3241 2.99736 14.1071ZM2.01054 11.7746C2.33529 11.7889 2.75514 12.0643 2.90765 11.6849C2.50036 11.4346 1.61761 11.6598 1.29285 11.326C1.49022 11.2982 1.70193 11.2076 1.92083 11.1466C2.13793 11.0865 2.53714 11.1681 2.54881 10.8775C2.35234 10.5949 1.83022 10.6388 1.6517 10.3392C1.91276 10.0512 2.85023 10.699 2.90765 10.0701C2.09487 10.0638 1.15649 9.74263 0.395745 9.98037C0.395745 10.0701 0.395745 10.1598 0.395745 10.2495C0.765353 10.5079 1.40858 10.4926 1.6517 10.8775C1.24262 11.1565 0.576064 11.178 0.216323 11.5055C0.611948 11.7495 1.39961 11.7468 2.01054 11.7746ZM2.63852 16.7984C2.63852 16.7087 2.63852 16.619 2.63852 16.5293C2.54881 16.5293 2.45909 16.5293 2.36938 16.5293C2.36938 16.619 2.36938 16.7087 2.36938 16.7984C2.45909 16.7984 2.54881 16.7984 2.63852 16.7984Z" fill="#3F6587"/>
<path d="M24.3485 9.98047C24.7656 10.1016 24.6983 10.7071 24.7073 11.2364C24.3745 11.4499 23.9062 11.5989 23.5411 11.3261C23.2073 11.292 23.3069 11.6895 22.9131 11.5953C22.3022 11.5361 21.9146 10.9179 22.1057 10.3393C22.9544 10.3205 23.5868 10.0863 24.3485 9.98047ZM24.4382 10.9673C24.6149 10.0567 23.5411 10.2971 23.6308 10.9673C23.7887 11.2023 24.2803 11.2023 24.4382 10.9673ZM22.9131 11.2364C23.1553 11.1494 23.3464 11.0112 23.3616 10.6982C23.2316 10.4793 22.469 10.3815 22.4645 10.7879C22.504 11.0471 22.6538 11.1969 22.9131 11.2364Z" fill="#F3F6F9"/>
<path d="M24.7069 12.2229C24.6207 12.6159 24.9275 13.4007 24.4377 13.3892C24.4377 13.1496 24.4377 12.911 24.4377 12.6715C24.1713 12.4526 23.5935 12.4221 23.4509 12.7612C23.0194 12.8339 23.1271 12.3674 22.6435 12.4921C22.2919 12.6957 22.4793 12.9433 22.4641 13.3892C22.3143 13.3892 22.1654 13.3892 22.0155 13.3892C21.9447 12.9299 22.1411 12.7379 22.1053 12.3126C22.9862 12.1458 23.789 12.1808 24.7069 12.2229Z" fill="#F3F6F9"/>
<path d="M23.6303 10.9672C23.5406 10.2971 24.6145 10.0567 24.4377 10.9672C24.2798 11.2023 23.7882 11.2023 23.6303 10.9672Z" fill="#3F6587"/>
<path d="M23.9899 14.2866C24.1057 14.3153 24.4735 14.3109 24.4385 14.5557C24.3802 14.9048 23.7944 14.6194 23.4517 14.5557C23.0758 14.4858 22.7403 14.3181 22.3751 14.3763C22.1706 14.5908 22.3904 15.2285 21.9266 15.1837C21.5893 14.9101 22.028 14.4114 22.0163 13.9277C22.0764 13.9277 22.1356 13.9277 22.1957 13.9277C22.7168 14.0865 23.3377 14.1223 23.9899 14.2866Z" fill="#F3F6F9"/>
<path d="M24.2588 8.63455C24.2749 9.23023 22.9624 9.87435 22.1954 9.71108C21.9209 9.65277 21.6195 9.49219 21.5674 9.17282C21.4984 8.74848 21.9666 8.51344 22.1954 8.36542C22.4421 8.20574 22.766 8.04426 23.1822 8.00658C23.8864 7.94288 24.2435 8.0631 24.2588 8.63455ZM23.0925 9.35224C23.611 9.23113 24.0569 9.00775 23.8999 8.45513C23.2827 8.05502 21.8931 8.44437 22.016 9.26253C22.2071 9.52269 22.6905 9.44643 23.0925 9.35224Z" fill="#F3F6F9"/>
<path d="M23.8994 8.45541C24.0564 9.00803 23.6105 9.23141 23.092 9.35252C22.6901 9.44671 22.2065 9.52297 22.0155 9.26281C21.8926 8.44464 23.2822 8.0553 23.8994 8.45541Z" fill="#3F6587"/>
<path d="M23.3627 6.75094C23.3905 6.96086 23.1375 6.98149 23.0038 7.10978C22.88 7.2282 22.2099 7.40672 21.9273 7.55833C21.7918 7.631 21.4805 8.04098 21.1199 8.00689C20.9638 7.63459 21.3657 7.31522 21.5685 7.02007C21.799 6.68545 22.0619 6.40555 22.1964 6.03325C21.4473 6.21088 21.1217 6.81284 20.3125 6.93036C20.3278 6.61816 20.7359 6.49885 20.9405 6.30238C21.0167 6.22972 21.1343 6.19473 21.2096 6.12296C21.2724 6.06285 21.4734 5.96686 21.6582 5.85383C21.8645 5.72734 22.1964 5.45551 22.5553 5.40527C22.8585 6.20191 22.0682 6.56075 21.9273 7.19949C22.3633 7.36456 22.7607 6.71864 23.3627 6.75094Z" fill="#F3F6F9"/>
<path d="M23.362 10.6979C23.3467 11.011 23.1556 11.1492 22.9134 11.2362C22.6541 11.1967 22.5043 11.0469 22.4648 10.7876C22.4693 10.3813 23.2319 10.479 23.362 10.6979Z" fill="#3F6587"/>
<path d="M22.4641 16.5291C22.7116 16.2502 23.1019 16.6403 22.8229 16.8879C22.6148 16.8565 22.4021 16.8296 22.4641 16.5291Z" fill="#F3F6F9"/>
<path d="M22.7342 18.413C22.6983 19.2627 21.7796 18.6051 21.2091 18.6822C21.0898 19.0141 21.9627 19.1227 21.9268 19.669C21.6567 19.8511 21.4962 19.3837 21.2988 19.2204C21.2243 19.1586 21.0978 19.1944 21.0297 19.1307C20.9507 19.0573 20.7381 18.8671 20.6708 18.6822C20.3317 18.6624 20.2348 18.4005 19.9531 18.3233C20.1738 17.8166 20.6349 18.31 21.1194 18.413C21.4701 18.4875 21.838 18.4589 22.1959 18.5028C22.1026 18.2112 21.7913 18.0381 21.5679 17.8748C21.3356 17.7052 21.0682 17.4881 20.7605 17.4262C20.6906 17.3464 20.6636 17.2235 20.6708 17.0674C21.5365 17.3383 22.0201 17.9905 22.7342 18.413Z" fill="#F3F6F9"/>
<path d="M20.8502 4.8667C21.0359 4.92053 21.1902 5.00575 21.1194 5.31525C20.9588 5.30359 20.9301 5.4247 20.7605 5.40496C20.5631 5.21657 20.7417 5.00575 20.8502 4.8667Z" fill="#F3F6F9"/>
<path d="M20.9393 20.7457C20.8128 20.7691 20.8371 20.9422 20.7599 21.0148C19.6834 20.865 19.3075 20.0154 18.248 19.8486C18.1197 19.8701 18.0964 19.9966 17.9789 20.028C18.3305 20.6031 18.5503 21.311 18.9657 21.8222C19.2599 21.8168 19.3084 21.5674 19.6834 21.6428C19.6771 21.9874 19.2285 22.0375 18.9657 22.1811C18.7567 22.2959 18.4364 22.7445 18.1583 22.4502C18.0722 22.1246 18.5611 22.3748 18.5171 22.0914C18.3521 21.3594 17.9681 20.8462 17.7097 20.2074C17.245 20.3034 16.8835 20.508 16.4538 20.656C15.9514 20.8292 15.589 20.9547 15.2875 21.1942C15.257 22.1021 15.8491 22.8325 15.6464 23.6164C15.0444 23.411 14.9009 22.7472 14.4801 22.3605C13.9966 22.5946 14.4577 23.7734 13.8522 23.8856C13.6476 23.3868 13.6207 22.7821 13.4933 22.3605C13.4835 22.3264 13.3283 22.2286 13.3139 22.1811C13.2655 22.0241 13.4852 21.6302 13.1345 21.6428C13.0636 22.104 13.1829 23.1482 13.1345 23.8856C11.8615 24.5315 11.587 22.6395 12.0579 21.8222C12.0409 21.6895 11.8408 21.7397 11.6991 21.7325C11.6507 21.9362 11.7287 22.2878 11.6991 22.6296C11.665 23.0324 11.4829 23.4245 11.43 23.7062C11.1519 23.7492 10.4064 24.1664 10.3534 23.6164C11.5502 23.8667 11.5313 22.4252 11.2505 21.7325C10.9177 21.7962 10.8657 21.5791 10.5329 21.6428C10.4728 21.7774 10.5508 21.9936 10.5329 22.1811C10.4763 22.7661 10.1112 23.3752 9.72546 23.6164C9.38994 23.6227 9.10556 23.5788 8.91806 23.437C8.91268 23.0432 9.31728 23.4981 9.63575 23.3473C10.0646 23.088 10.2476 22.5839 10.2637 21.9119C10.1525 21.545 9.5882 21.6302 9.45633 21.284C9.29664 21.5729 9.3729 22.0976 9.27691 22.4502C9.00239 22.8019 8.06671 23.6721 7.66211 22.809C7.88998 22.6287 8.1618 23.0333 8.46951 22.809C8.81759 22.5597 9.14952 22.2932 9.09748 21.6428C9.08223 21.2992 8.52064 21.502 8.55922 21.1045C8.92703 21.0086 9.38546 20.9557 9.63575 21.1942C9.92641 21.3046 9.70393 20.9037 9.99459 21.0148C10.0116 21.1476 10.2117 21.0974 10.3534 21.1045C10.3534 21.1942 10.3534 21.284 10.3534 21.3737C10.8307 21.2956 11.2012 21.5209 11.6094 21.4634C11.8068 21.4356 11.866 21.2902 12.0579 21.1942C12.2544 21.0956 12.3962 21.154 12.5065 21.1045C12.5397 21.0893 12.5549 20.944 12.5962 20.9251C12.8124 20.8256 13.1587 21.023 13.1345 20.656C13.5651 20.8149 13.6718 20.516 14.211 20.5663C13.9894 20.883 13.339 20.7708 13.1345 21.1045C13.1479 21.2706 13.4386 21.1593 13.4933 21.284C13.7454 21.1728 14.0325 21.1656 14.3007 21.1045C14.6138 21.0328 14.874 20.8436 15.1081 20.7457C15.3064 20.6632 15.5396 20.6488 15.7361 20.5663C16.0869 20.4183 16.4394 20.1814 16.8126 20.028C17.0306 19.9383 17.2522 19.941 17.4406 19.8486C17.7411 19.7006 18.0677 19.4673 18.1583 19.2206C18.4391 19.1426 18.6535 18.9982 18.7863 18.7721C18.3799 18.3414 17.9493 19.1031 17.3509 19.0412C17.3724 18.9129 17.4989 18.8897 17.5303 18.7721C17.0001 18.6599 16.8889 18.9685 16.6332 19.1309C16.3425 18.9811 16.4421 18.9999 16.0052 19.0412C16.2519 18.7003 16.9965 18.4438 17.5303 18.6823C17.7914 18.6043 17.6308 18.5478 17.62 18.3235C17.9546 18.4187 17.9098 18.1343 18.0686 18.0544C17.8488 17.7225 17.4819 17.9513 17.1715 17.9647C17.1795 17.5538 17.5985 17.5548 17.7097 17.247C17.6999 17.1375 17.6828 17.0344 17.5303 17.0675C17.6622 16.7393 17.6245 16.4952 17.5303 16.3499C17.4837 16.2781 17.027 15.9929 17.0818 15.991C16.8566 15.9973 16.696 16.4441 16.5435 16.4396C16.53 16.2172 16.5901 16.0674 16.7229 15.991C16.6215 15.9596 16.4654 15.5487 16.3641 15.8116C16.0752 15.5451 16.635 15.3693 16.6332 15.0939C16.3533 15.1558 16.2833 15.4743 16.0949 15.6322C15.99 15.7201 15.7612 15.7326 15.6464 15.8116C15.6087 15.8376 15.5926 15.9578 15.5567 15.991C15.4876 16.0547 15.3638 16.0189 15.2875 16.0807C15.1835 16.1651 15.2014 16.3454 15.1081 16.4396C15.0803 16.4675 14.9655 16.4226 14.9287 16.4396C14.8497 16.4746 14.6928 16.6837 14.6596 16.7087C14.6129 16.7438 14.6057 16.8415 14.4801 16.7984C14.4801 16.7482 14.4075 16.6961 14.3904 16.7984C14.028 16.4055 14.7807 16.2692 14.9287 16.1704C15.0023 16.1211 15.031 15.9507 15.1081 15.9013C15.3378 15.7542 15.7011 15.6618 15.8258 15.5425C16.0474 15.3298 16.1739 15.2276 16.2744 15.0042C16.2896 14.9701 16.4376 14.9575 16.4538 14.9145C16.5363 14.701 16.469 14.5459 16.4538 14.2865C16.4305 14.1601 16.2573 14.1842 16.1846 14.1071C16.1721 13.8425 16.6404 13.6684 16.2744 13.5688C16.2358 13.3212 16.609 13.4846 16.6332 13.2997C16.7238 13.0297 16.4331 13.1409 16.2744 13.1203C16.2941 13.0504 16.3497 13.0162 16.4538 13.0305C15.9281 12.7462 15.2732 12.9435 14.6596 13.0305C14.6685 12.8 15.0094 12.9023 15.0184 12.6717C14.0145 12.5919 13.5669 13.2171 12.8653 13.6585C12.6222 13.6029 12.153 13.7725 12.0579 13.5688C11.8426 13.533 12.1073 13.9771 11.7888 13.8379C11.8328 13.5546 11.6273 13.5214 11.6991 13.21C11.5941 13.2252 11.6013 13.3517 11.6094 13.4791C10.9895 13.1185 11.8041 12.8404 11.7888 12.3129C12.1324 12.2079 12.1862 11.8132 12.5065 11.6849C12.4948 11.4633 12.493 11.2525 12.5962 11.1466C12.8313 11.1215 12.982 11.1789 12.9551 11.4158C13.0636 11.0704 13.0475 10.3177 13.4933 10.0701C14.0316 10.01 14.3133 10.2073 14.5699 10.4289C14.586 10.114 14.2666 10.1338 14.211 9.89067C13.9491 9.91668 13.7786 9.85478 13.583 9.89067C13.3058 9.9418 13.191 10.2854 12.9551 10.0701C12.6958 10.2298 12.6608 10.6128 12.2374 10.6084C12.4778 10.2935 12.3378 10.0925 12.4168 9.71124C12.52 9.87093 12.7263 10.1203 12.9551 9.89067C12.685 9.4134 12.0212 9.32997 11.3403 9.26269C11.3385 8.90205 11.8085 9.01329 12.1477 8.99356C12.3782 9.15145 12.5352 9.3838 12.7756 9.53182C12.929 9.49504 12.7568 9.41609 12.7756 9.26269C13.0008 9.39636 13.2699 9.48607 13.4036 9.71124C13.5741 9.67267 13.6288 9.51837 13.8522 9.53182C13.8306 9.37393 13.6979 9.32728 13.4933 9.3524C14.0101 9.03572 14.2935 10.0378 14.839 9.71124C15.1485 10.0001 15.3073 10.4397 15.6464 10.6981C15.6231 10.908 15.2526 10.7501 15.1978 10.6981C14.8471 10.9636 15.0121 11.3933 15.0184 11.8643C15.1763 11.8428 15.2229 11.71 15.1978 11.5055C15.3306 11.5225 15.2804 11.7226 15.2875 11.8643C15.4454 11.8428 15.4921 11.71 15.467 11.5055C15.7944 11.693 15.5109 11.9343 15.467 12.2232C15.7738 12.3694 15.7361 12.2124 15.9155 12.0437C16.077 12.0321 16.1254 12.1325 16.0949 12.3129C16.373 12.4304 16.3506 12.2886 16.7229 12.3129C16.862 11.9935 16.4179 12.259 16.4538 12.0437C16.4403 11.8778 16.1497 11.989 16.0949 11.8643C16.3336 11.5351 16.9867 11.6194 17.0818 11.1466C17.3428 11.2722 16.923 11.4552 16.992 11.6849C17.2755 11.579 17.3042 11.2193 17.5303 11.0569C17.524 10.7941 17.3249 10.7241 17.1715 10.6084C17.2728 10.5007 17.4271 10.446 17.3509 10.1598C17.5743 10.1697 17.629 10.3276 17.7994 10.1598C17.7501 10.0297 17.9044 9.69599 17.7097 9.71124C18.1834 9.66101 17.9062 8.81862 18.248 8.81413C18.248 8.87424 18.248 8.93345 18.248 8.99356C18.361 8.97113 18.3386 8.81503 18.248 8.81413C18.248 8.72442 18.248 8.63471 18.248 8.545C18.0784 8.52526 18.0497 8.64637 17.8892 8.63471C17.838 8.02737 17.8003 7.40747 17.4406 7.10963C17.2253 7.07374 17.4899 7.51781 17.1715 7.37876C17.1463 7.5833 17.193 7.71607 17.3509 7.7376C17.1437 7.93856 16.8611 7.45501 16.9023 7.10963C17.1329 7.34198 17.2827 7.03427 17.3509 6.84049C17.1769 6.85305 17.2262 6.68529 17.0818 6.48165C16.8682 6.53817 17.0961 7.03337 16.9023 7.10963C16.7471 6.9634 16.897 6.74899 16.8126 6.57136C16.7714 6.48524 16.6171 6.39642 16.5435 6.30223C16.2349 6.32286 16.1524 6.56957 16.0949 6.84049C15.9218 6.67453 16.0241 6.67632 15.7361 6.75078C15.6876 6.43321 16.0537 6.53009 16.0052 6.21252C15.9837 6.08423 15.8572 6.0609 15.8258 5.94338C15.5028 5.88956 15.5612 6.217 15.2875 6.21252C15.2875 6.12281 15.2875 6.03309 15.2875 5.94338C15.0489 5.79357 14.8444 5.60876 14.3904 5.67425C14.4963 5.14944 13.8925 5.33514 13.6727 5.13598C13.7113 4.71345 14.0773 5.26248 14.3007 5.2257C14.856 5.17815 15.2265 5.3163 15.467 5.58454C15.9846 5.57467 16.3515 5.71731 16.6332 5.94338C16.8207 5.80792 16.2887 5.63567 16.3641 5.31541C16.2098 5.31989 16.1344 5.24633 16.0949 5.13598C15.9855 5.14585 15.8823 5.1629 15.9155 5.31541C15.8204 5.14137 15.5019 5.19071 15.3772 5.04627C15.5073 4.99065 15.3683 4.93772 15.3772 5.04627C15.1512 4.883 14.7627 4.883 14.7493 4.50801C14.4469 4.66231 14.394 4.33128 14.3904 4.32859C14.3312 4.29091 14.1895 4.34922 14.1213 4.32859C14.0872 4.31872 13.9885 4.16441 13.9419 4.14916C13.4242 3.97782 13.3884 4.12674 13.0448 4.23887C13.2161 4.05766 12.8752 3.88093 12.5962 3.88003C12.7209 3.67549 13.2206 3.84684 13.4933 3.79032C13.5032 3.95987 13.7903 3.85222 13.7625 4.05945C14.0145 3.92937 14.1832 4.01101 14.4801 4.05945C14.5618 4.07291 14.5385 4.1375 14.5699 4.14916C14.6407 4.17608 14.7556 4.06035 14.7493 4.05945C14.8623 4.08188 15.0058 4.20478 15.1081 4.23887C15.2884 4.29898 15.5271 4.27117 15.6464 4.32859C15.7487 4.37793 15.9128 4.63988 16.0949 4.77714C16.1326 4.80495 16.2304 4.7574 16.2744 4.77714C16.3004 4.7888 16.3345 4.93413 16.3641 4.95656C16.6404 5.16828 16.6314 5.11176 16.7229 5.31541C16.7337 5.33963 16.8799 5.3782 16.9023 5.40512C17.1096 5.65362 17.2298 5.68412 17.4406 5.85367C17.7627 6.11204 17.9834 6.52292 18.3377 6.66107C18.5952 7.30071 18.7952 7.99776 19.2348 8.45529C19.0724 8.82041 19.4098 9.09044 19.4142 9.3524C19.4268 10.1284 18.7746 10.6066 18.7863 11.5055C18.5853 11.6992 18.4149 12.0366 18.3377 12.2232C18.1987 12.5587 18.0713 12.7596 17.8892 13.0305C17.7806 13.1911 17.5976 13.3051 17.5303 13.4791C17.4514 13.6828 17.5016 13.9179 17.4406 14.1071C17.4209 14.169 17.2684 14.2748 17.2612 14.3762C17.2343 14.7477 17.2693 15.0204 17.3509 15.1836C17.463 15.407 17.5195 15.5631 17.62 15.8116C17.7133 16.0421 17.8515 16.1418 17.9789 16.3499C18.0479 16.463 17.9968 16.6011 18.0686 16.7087C18.1179 16.7823 18.2902 16.8111 18.3377 16.8881C18.3646 16.9312 18.3117 17.0237 18.3377 17.0675C18.6562 17.6085 19.0787 18.0696 19.3245 18.5029C19.5874 18.5837 19.5999 18.5837 19.8628 18.5029C20.1184 19.3534 20.6953 19.8836 20.9393 20.7457ZM20.5805 20.656C20.6164 20.2317 20.3957 20.0639 20.1319 19.9383C20.0521 20.098 19.8816 20.1662 19.9525 20.4766C20.236 20.4622 20.2521 20.7152 20.5805 20.656ZM19.9525 19.6692C19.931 19.2717 19.8565 18.9281 19.504 18.8618C19.172 19.0386 18.8598 19.2341 18.7863 19.6692C19.1092 19.7347 19.2214 20.0119 19.6834 19.9383C19.7335 19.8091 19.8232 19.7194 19.9525 19.6692ZM18.1583 7.82731C18.1834 7.85243 18.2946 7.78425 18.248 7.7376C18.2229 7.71248 18.1116 7.78066 18.1583 7.82731ZM17.9789 8.36558C18.004 8.3907 18.1152 8.32252 18.0686 8.27587C18.0435 8.25075 17.9322 8.31893 17.9789 8.36558ZM17.9789 7.91702C18.0049 7.8623 18.2022 7.57164 17.9789 7.55818C17.9529 7.6129 17.7555 7.90357 17.9789 7.91702ZM16.6332 11.7746C16.7337 11.7656 16.7732 11.9047 16.8126 11.7746C16.8117 11.684 16.6556 11.6616 16.6332 11.7746ZM15.1978 22.809C15.2723 22.1372 14.9583 21.8528 14.9287 21.284C13.6324 21.3189 14.9296 22.4547 15.1978 22.809ZM14.9287 11.6849C14.839 11.6849 14.7493 11.6849 14.6596 11.6849C14.7251 11.9298 14.481 11.8652 14.4801 12.0437C14.691 12.0715 14.5331 12.469 14.839 12.4026C14.9027 12.1882 14.8811 12.0724 14.9287 11.6849ZM14.5699 11.1466C14.839 11.1287 14.4837 10.7743 14.5699 11.1466C14.3994 11.1852 14.3447 11.3395 14.1213 11.326C14.1285 11.8715 13.6799 11.9612 13.583 12.4026C14.0343 12.3757 14.133 11.9953 14.211 11.5952C14.3644 11.4794 14.5636 11.4095 14.5699 11.1466ZM14.3904 11.0569C14.4398 11.0076 14.3931 10.8748 14.3007 10.9672C14.2514 11.0165 14.298 11.1493 14.3904 11.0569ZM13.9419 22.7193C13.9437 22.4619 14.2559 21.4985 13.8522 21.4634C13.8369 21.5674 13.7104 21.5613 13.583 21.5531C13.5857 22.0591 13.7229 22.4296 13.9419 22.7193ZM13.6727 11.954C13.7409 11.3341 14.0235 10.9286 14.211 10.4289C14.0397 10.3904 14.0486 10.1724 13.7625 10.2495C13.5086 10.3904 13.9652 10.7304 13.6727 10.8775C13.4574 10.9134 13.7221 10.4684 13.4036 10.6084C13.4673 11.082 13.5256 11.5629 13.6727 11.954ZM12.3271 12.4923C12.9246 12.46 13.662 12.094 13.3139 11.4158C13.3372 11.7656 13.0349 11.7019 12.9551 11.5055C12.868 12.0159 12.2867 12.033 12.1477 12.4923C12.2078 12.4923 12.267 12.4923 12.3271 12.4923C12.275 12.6502 12.4356 13.0198 12.2374 13.0305C12.0301 13.0584 12.1378 12.7713 11.9682 12.7614C11.7763 12.9444 11.9934 13.1166 12.0579 13.2997C12.4482 13.3913 12.4706 13.1141 12.6859 13.0305C12.9533 12.9992 13.2323 12.9785 13.3139 12.7614C12.9533 12.617 12.6572 12.9929 12.5962 12.8511C12.5774 12.3721 12.9981 12.8529 13.1345 12.4923C12.8653 12.4923 12.5962 12.4923 12.3271 12.4923ZM13.2242 12.4923C13.2493 12.5174 13.3605 12.4492 13.3139 12.4026C13.2888 12.3775 13.1775 12.4456 13.2242 12.4923ZM13.0448 21.1942C12.9102 21.2095 12.7137 21.162 12.6859 21.284C12.8205 21.2687 13.017 21.3163 13.0448 21.1942ZM12.8653 23.7062C12.9093 23.3671 12.8976 22.3775 12.7756 21.9119C11.8552 21.7361 11.8516 23.9904 12.8653 23.7062Z" fill="#F3F6F9"/>
<path d="M20.671 3.34184C20.7491 3.82 20.5042 4.1618 19.8636 4.14924C19.6205 4.62381 19.695 5.41596 19.0562 5.4949C19.0894 4.95484 19.6815 4.55294 19.2357 4.05953C18.8347 4.13668 18.7674 4.54845 18.3386 4.5978C18.2937 4.35288 18.5915 4.19589 18.6974 4.05953C19.0257 3.63609 19.459 3.17857 19.8636 2.71387C20.0915 2.8278 20.6163 3.00632 20.671 3.34184ZM20.3122 3.7904C20.2925 3.62084 20.4136 3.59214 20.4019 3.43155C20.2027 2.82601 19.468 3.17588 19.5945 3.88011C19.8529 3.86934 20.1821 3.92945 20.3122 3.7904Z" fill="#F3F6F9"/>
<path d="M20.1318 19.9385C20.3956 20.0641 20.6163 20.2319 20.5804 20.6562C20.252 20.7154 20.2359 20.4625 19.9524 20.4768C19.8815 20.1663 20.052 20.0982 20.1318 19.9385Z" fill="#3F6587"/>
<path d="M20.402 3.43168C20.4137 3.59227 20.2926 3.62097 20.3123 3.79053C20.1822 3.92958 19.853 3.86947 19.5946 3.88024C19.4681 3.17601 20.2029 2.82613 20.402 3.43168Z" fill="#3F6587"/>
<path d="M19.5048 18.8618C19.8574 18.9282 19.9318 19.2718 19.9534 19.6692C19.8242 19.7196 19.7345 19.8093 19.6842 19.9384C19.2222 20.0119 19.1101 19.7347 18.7871 19.6692C18.8607 19.2341 19.1729 19.0385 19.5048 18.8618Z" fill="#3F6587"/>
<path d="M19.3247 2.26532C19.0592 2.52458 18.7013 2.1155 18.4276 2.08589C18.1908 2.14869 18.2384 2.49408 17.9791 2.53445C17.936 2.81704 18.2545 2.7372 18.1585 3.07271C17.3475 2.8897 17.7467 3.91689 16.9923 3.7904C17.3646 3.05567 17.7844 2.37028 18.2482 1.72705C18.7865 1.72705 18.9821 2.06975 19.3247 2.26532Z" fill="#F3F6F9"/>
<path d="M18.248 8.81396C18.3386 8.81486 18.3611 8.97096 18.248 8.99339C18.248 8.93328 18.248 8.87407 18.248 8.81396Z" fill="#3F6587"/>
<path d="M18.2475 7.73782C18.2942 7.78447 18.1829 7.85265 18.1578 7.82753C18.1111 7.78088 18.2224 7.7127 18.2475 7.73782Z" fill="#3F6587"/>
<path d="M18.0678 8.2759C18.1144 8.32255 18.0032 8.39074 17.9781 8.36562C17.9315 8.31897 18.0427 8.25078 18.0678 8.2759Z" fill="#3F6587"/>
<path d="M17.9784 7.55811C18.2017 7.57156 18.0044 7.86223 17.9784 7.91695C17.755 7.90349 17.9523 7.61283 17.9784 7.55811Z" fill="#3F6587"/>
<path d="M17.0818 6.48145C17.2262 6.68509 17.1769 6.85285 17.3509 6.84029C17.2827 7.03406 17.1329 7.34177 16.9023 7.10942C17.0961 7.03316 16.8683 6.53796 17.0818 6.48145Z" fill="#3F6587"/>
<path d="M16.9023 18.3235C16.9239 18.1656 17.0567 18.119 17.2612 18.1441C17.202 18.2643 17.0692 18.3109 16.9023 18.3235Z" fill="#F3F6F9"/>
<path d="M16.543 18.144C16.5555 17.8876 16.9171 17.9799 17.171 17.9646C17.0651 18.1279 16.7036 18.0355 16.543 18.144Z" fill="#F3F6F9"/>
<path d="M16.1849 2.71376C16.1382 3.20896 16.9339 2.86178 16.8128 3.43144C16.4226 3.37313 16.1373 3.20986 15.7363 3.16231C15.9453 2.35402 16.1768 1.56905 16.5437 0.919539C16.7312 0.88186 16.7814 0.98144 16.9025 1.00925C16.6567 1.57084 16.3849 2.10641 16.1849 2.71376Z" fill="#F3F6F9"/>
<path d="M16.8122 11.7743C16.7728 11.9044 16.7333 11.7654 16.6328 11.7743C16.6552 11.6613 16.8113 11.6837 16.8122 11.7743Z" fill="#3F6587"/>
<path d="M16.6324 6.66113C16.7921 6.72662 16.645 6.82441 16.6324 6.93027C16.4728 6.86478 16.6199 6.76699 16.6324 6.66113Z" fill="#F3F6F9"/>
<path d="M16.5446 16.4396C16.5266 16.7079 16.1722 16.3535 16.5446 16.4396V16.4396Z" fill="#F3F6F9"/>
<path d="M16.2746 13.1201C16.2835 13.2286 16.1446 13.1748 16.2746 13.1201V13.1201Z" fill="#F3F6F9"/>
<path d="M15.5566 15.0937C15.5961 14.9834 15.6715 14.9098 15.8258 14.9143C15.7862 15.0246 15.7109 15.0982 15.5566 15.0937Z" fill="#F3F6F9"/>
<path d="M15.6465 8.36565C15.755 8.35668 15.7021 8.49574 15.6465 8.36565V8.36565Z" fill="#F3F6F9"/>
<path d="M15.6459 10.8775C15.6926 10.9241 15.5813 10.9923 15.5562 10.9672C15.5096 10.9205 15.6208 10.8523 15.6459 10.8775Z" fill="#F3F6F9"/>
<path d="M15.6471 8.36544C15.5385 8.37442 15.5915 8.23536 15.6471 8.36544V8.36544Z" fill="#F3F6F9"/>
<path d="M15.3774 5.04649C15.3684 4.93794 15.5074 4.99087 15.3774 5.04649V5.04649Z" fill="#3F6587"/>
<path d="M15.199 0.560947C15.2053 1.45178 15.4385 2.11564 15.3784 3.07286C14.7173 2.88356 15.4744 1.58724 14.4813 1.63748C13.935 1.66529 14.2104 2.42245 13.5842 2.53459C13.4981 2.16947 13.8318 1.79716 14.0328 1.45806C14.2463 1.09832 14.4562 0.759208 14.6608 0.471236C14.9352 0.406644 14.9873 0.562741 15.199 0.560947ZM14.9299 1.45806C14.9963 1.24813 14.9918 0.952984 14.8402 0.740369C14.7361 0.965543 14.4831 1.0409 14.4813 1.36835C14.6895 1.33964 14.8258 1.3827 14.9299 1.45806Z" fill="#F3F6F9"/>
<path d="M15.1977 20.2076C15.1887 20.0991 15.3277 20.1519 15.1977 20.2076V20.2076Z" fill="#F3F6F9"/>
<path d="M14.9298 21.2842C14.9594 21.853 15.2733 22.1374 15.1989 22.8093C14.9306 22.4549 13.6334 21.3192 14.9298 21.2842Z" fill="#3F6587"/>
<path d="M15.1989 20.2072C15.1809 20.4755 14.8265 20.1211 15.1989 20.2072V20.2072Z" fill="#F3F6F9"/>
<path d="M15.1088 14.8247C15.1555 14.8715 15.0442 14.9396 15.0191 14.9145C14.9725 14.8678 15.0837 14.7996 15.1088 14.8247Z" fill="#F3F6F9"/>
<path d="M14.8393 0.740234C14.9909 0.952849 14.9954 1.248 14.929 1.45792C14.825 1.38256 14.6886 1.3395 14.4805 1.36821C14.4822 1.04077 14.7352 0.965409 14.8393 0.740234Z" fill="#3F6587"/>
<path d="M14.6599 11.6851C14.7496 11.6851 14.8393 11.6851 14.929 11.6851C14.8815 12.0726 14.903 12.1883 14.8393 12.4027C14.5334 12.4691 14.6913 12.0717 14.4805 12.0439C14.4814 11.8654 14.7254 11.93 14.6599 11.6851Z" fill="#3F6587"/>
<path d="M14.2109 20.5662C14.3661 20.4522 14.446 20.2629 14.7492 20.297C14.6676 20.4845 14.4846 20.5706 14.2109 20.5662Z" fill="#F3F6F9"/>
<path d="M14.5705 11.1466C14.4843 10.7743 14.8396 11.1286 14.5705 11.1466V11.1466Z" fill="#3F6587"/>
<path d="M14.5708 11.1465C14.5645 11.4093 14.3654 11.4793 14.2119 11.595C14.1339 11.9951 14.0352 12.3755 13.584 12.4024C13.6809 11.9611 14.1294 11.8713 14.1222 11.3259C14.3456 11.3394 14.4002 11.1851 14.5708 11.1465Z" fill="#3F6587"/>
<path d="M14.3012 10.967C14.3936 10.8746 14.4403 11.0073 14.3909 11.0567C14.2985 11.1491 14.2519 11.0163 14.3012 10.967Z" fill="#3F6587"/>
<path d="M14.3901 16.9781C14.4367 17.0248 14.3255 17.0929 14.3004 17.0678C14.2537 17.0211 14.3649 16.9529 14.3901 16.9781Z" fill="#F3F6F9"/>
<path d="M14.66 8.36545C14.424 8.24255 14.32 7.98777 14.032 7.91689C14.0006 7.92586 13.9208 8.74044 14.3011 8.63458C13.8723 9.16657 13.823 7.97162 13.2246 8.09632C13.3583 7.6962 13.6274 8.14835 13.8526 8.18603C13.823 7.977 13.7602 7.79937 13.5835 7.73747C13.9736 7.55894 14.5685 7.9465 14.66 8.36545Z" fill="#F3F6F9"/>
<path d="M14.0312 9.26276C14.1192 8.98735 14.2708 9.36593 14.3901 9.35247C14.3021 9.62699 14.0878 9.3121 14.0312 9.26276Z" fill="#F3F6F9"/>
<path d="M13.9426 5.85366C13.9156 5.61683 14.0663 5.55941 14.3014 5.58453C14.2233 5.71551 14.1668 5.86891 13.9426 5.85366Z" fill="#F3F6F9"/>
<path d="M14.1215 16.8883C14.1125 16.7798 14.2516 16.8326 14.1215 16.8883V16.8883Z" fill="#F3F6F9"/>
<path d="M14.0312 16.978C14.0366 16.9234 14.0447 16.8721 14.121 16.8883C14.1156 16.943 14.1074 16.9941 14.0312 16.978Z" fill="#F3F6F9"/>
<path d="M13.8525 17.2467C13.6291 17.21 13.8471 16.8987 14.0319 16.9776C14.0104 17.1059 13.8838 17.1292 13.8525 17.2467Z" fill="#F3F6F9"/>
<path d="M13.8531 21.4634C14.2568 21.4985 13.9446 22.4619 13.9428 22.7193C13.7239 22.4297 13.5867 22.0591 13.584 21.5531C13.7114 21.5612 13.8379 21.5674 13.8531 21.4634Z" fill="#3F6587"/>
<path d="M14.2117 10.4287C14.0242 10.9284 13.7416 11.3339 13.6734 11.9538C13.5263 11.5627 13.468 11.0818 13.4043 10.6082C13.7228 10.4682 13.4581 10.9132 13.6734 10.8773C13.9659 10.7302 13.5093 10.3902 13.7631 10.2493C14.0493 10.1722 14.0403 10.3902 14.2117 10.4287Z" fill="#3F6587"/>
<path d="M13.3145 4.77728C13.423 4.7683 13.3701 4.90736 13.3145 4.77728V4.77728Z" fill="#F3F6F9"/>
<path d="M13.3147 11.4155C13.6628 12.0937 12.9253 12.4598 12.3279 12.4921C12.2678 12.4921 12.2085 12.4921 12.1484 12.4921C12.2875 12.0327 12.8688 12.0157 12.9558 11.5052C13.0357 11.7017 13.338 11.7654 13.3147 11.4155Z" fill="#3F6587"/>
<path d="M13.2246 17.6957C13.247 17.5827 13.4031 17.6051 13.404 17.6957C13.3242 17.7505 13.2435 17.8042 13.2246 17.6957Z" fill="#F3F6F9"/>
<path d="M13.3139 12.4024C13.3605 12.449 13.2493 12.5172 13.2242 12.4921C13.1775 12.4454 13.2888 12.3772 13.3139 12.4024Z" fill="#3F6587"/>
<path d="M13.3141 8.27588C13.3114 8.3629 13.2047 8.34585 13.1347 8.36559C13.1374 8.27857 13.2441 8.29562 13.3141 8.27588Z" fill="#F3F6F9"/>
<path d="M12.5961 12.851C12.6571 12.9928 12.9532 12.6169 13.3138 12.7613C13.2322 12.9784 12.9532 12.999 12.6858 13.0304C12.4705 13.1139 12.4481 13.3911 12.0579 13.2996C11.9933 13.1166 11.7762 12.9444 11.9681 12.7613C12.1377 12.7712 12.03 13.0583 12.2373 13.0304C12.4355 13.0197 12.275 12.6501 12.327 12.4922C12.5961 12.4922 12.8653 12.4922 13.1344 12.4922C12.998 12.8528 12.5773 12.372 12.5961 12.851Z" fill="#3F6587"/>
<path d="M13.1344 7.46826C13.1765 7.65935 13.0061 7.63871 12.8652 7.64768C12.8823 7.57502 12.9549 7.55797 12.9549 7.46826C13.0151 7.46826 13.0743 7.46826 13.1344 7.46826Z" fill="#F3F6F9"/>
<path d="M12.7754 18.1442C12.8534 18.0132 12.91 17.8598 13.1342 17.8751C13.0562 18.006 12.9997 18.1594 12.7754 18.1442Z" fill="#F3F6F9"/>
<path d="M13.3147 5.22559C13.2753 5.33593 13.1999 5.40949 13.0456 5.40501C13.0034 5.21392 13.1739 5.23366 13.3147 5.22559Z" fill="#F3F6F9"/>
<path d="M13.0447 4.23877C12.9667 4.58595 13.2636 4.55814 13.3139 4.77703C12.9478 4.725 12.5594 4.6945 12.5962 4.23877C12.8725 4.30157 12.7684 4.30157 13.0447 4.23877Z" fill="#F3F6F9"/>
<path d="M12.6855 21.284C12.7134 21.1621 12.9098 21.2096 13.0444 21.1943C13.0166 21.3163 12.8201 21.2688 12.6855 21.284Z" fill="#3F6587"/>
<path d="M12.7765 21.9121C12.8985 22.3777 12.9102 23.3673 12.8662 23.7063C11.8525 23.9906 11.8561 21.7363 12.7765 21.9121Z" fill="#3F6587"/>
<path d="M12.8662 8.81425C12.8824 8.96137 12.6195 8.92998 12.5971 8.72453C12.5737 8.51281 12.8599 8.75683 12.8662 8.81425Z" fill="#F3F6F9"/>
<path d="M12.687 9.17287C12.7336 9.21952 12.6224 9.2877 12.5972 9.26258C12.5506 9.21593 12.6618 9.14776 12.687 9.17287Z" fill="#F3F6F9"/>
<path d="M12.687 9.71145C12.7336 9.7581 12.6224 9.82627 12.5972 9.80116C12.5506 9.75451 12.6618 9.68633 12.687 9.71145Z" fill="#F3F6F9"/>
<path d="M12.5077 5.3156C12.4906 5.41698 12.418 5.36494 12.418 5.3156C12.435 5.21334 12.5077 5.26537 12.5077 5.3156Z" fill="#F3F6F9"/>
<path d="M12.4171 9.71103C12.1479 9.69309 12.5032 9.33873 12.4171 9.71103V9.71103Z" fill="#F3F6F9"/>
<path d="M12.5062 4.95659C12.1635 5.23469 11.9859 4.58339 11.4297 4.77717C11.4018 4.56545 11.1184 4.61031 11.1605 4.32861C11.6082 4.35284 12.0675 4.67849 12.5062 4.95659Z" fill="#F3F6F9"/>
<path d="M12.238 3.61084C12.2353 3.69786 12.1286 3.68081 12.0586 3.70055C12.0613 3.61353 12.168 3.63058 12.238 3.61084Z" fill="#F3F6F9"/>
<path d="M12.4164 1.54741C12.3374 1.85781 11.9212 1.8291 11.8781 2.17539C11.5587 2.16641 11.6727 1.72235 11.3398 1.72683C11.3596 1.35722 11.8673 1.47654 11.6987 0.919434C11.7884 0.919434 11.8781 0.919434 11.9678 0.919434C11.862 1.38414 12.3114 1.29353 12.4164 1.54741Z" fill="#F3F6F9"/>
<path d="M11.9682 13.9278C12.0149 13.9745 11.9036 14.0426 11.8785 14.0175C11.8318 13.9708 11.9431 13.9026 11.9682 13.9278Z" fill="#F3F6F9"/>
<path d="M11.8784 14.8247C11.925 14.8715 11.8138 14.9396 11.7886 14.9145C11.742 14.8678 11.8532 14.7996 11.8784 14.8247Z" fill="#F3F6F9"/>
<path d="M11.7895 18.4131C12.0775 18.6374 11.7205 18.5558 11.6101 18.6822C11.4478 18.8679 11.2154 19.4026 10.8027 19.3102C10.844 18.7234 11.5769 18.8284 11.7895 18.4131Z" fill="#F3F6F9"/>
<path d="M11.7885 15.3628C11.8352 15.4096 11.7239 15.4777 11.6988 15.4525C11.6521 15.4059 11.7634 15.3377 11.7885 15.3628Z" fill="#F3F6F9"/>
<path d="M11.6991 14.1071C11.682 14.2085 11.6094 14.1574 11.6094 14.1071C11.6264 14.0048 11.6991 14.0569 11.6991 14.1071Z" fill="#F3F6F9"/>
<path d="M11.699 9.44189C11.6963 9.52891 11.5895 9.51187 11.5195 9.53161C11.5222 9.44459 11.629 9.46163 11.699 9.44189Z" fill="#F3F6F9"/>
<path d="M11.7001 5.04608C11.3906 5.23178 10.9986 4.73299 10.4441 4.86666C10.4711 4.63072 10.0961 4.79578 10.175 4.50781C10.3428 4.68365 10.5033 4.53562 10.7133 4.50781C10.8936 4.83615 11.4041 4.83436 11.7001 5.04608Z" fill="#F3F6F9"/>
<path d="M11.519 3.52102C11.5656 3.56767 11.4544 3.63585 11.4293 3.61073C11.3826 3.56408 11.4939 3.4959 11.519 3.52102Z" fill="#F3F6F9"/>
<path d="M10.891 14.5557C11.213 14.6301 11.3252 14.3529 11.519 14.5557C11.24 14.6588 11.4562 14.9315 11.6087 15.0939C11.475 15.1989 11.5028 15.4662 11.2498 15.4528C11.248 15.2151 11.2992 14.9244 11.0704 14.9145C10.8174 15.0052 11.0955 15.2958 11.0704 15.4528C10.9009 15.4726 10.8721 15.3514 10.7116 15.3631C10.6918 15.5327 10.8129 15.5613 10.8013 15.7219C10.4164 15.8107 10.2047 15.9345 9.81445 15.8116C9.82163 15.4895 10.4012 15.7398 10.5321 15.5425C10.4003 15.3309 10.3429 15.3757 10.4424 15.0939C10.8793 15.1388 11.013 14.8275 10.891 14.5557Z" fill="#F3F6F9"/>
<path d="M11.2504 13.4791C11.2415 13.3706 11.3805 13.4234 11.2504 13.4791V13.4791Z" fill="#F3F6F9"/>
<path d="M11.2507 12.0438C11.3037 12.3192 11.0256 12.3228 10.8919 12.4026C10.7564 12.4834 10.6901 12.6906 10.4434 12.5821C10.5259 12.216 10.7277 11.9684 11.2507 12.0438Z" fill="#F3F6F9"/>
<path d="M11.2513 3.52141C11.2665 3.71608 10.9328 3.56178 10.8027 3.61112C10.8117 3.38326 11.1374 3.3994 11.2513 3.52141Z" fill="#F3F6F9"/>
<path d="M11.2499 13.479C11.2499 13.7185 11.2499 13.9572 11.2499 14.1967C11.0131 14.0997 11.0131 13.5759 11.2499 13.479Z" fill="#F3F6F9"/>
<path d="M11.0707 5.22572C11.1649 5.23021 11.1416 5.34055 10.981 5.31543C10.7145 5.22841 10.4947 5.39438 10.2633 5.40515C10.057 5.41501 9.86408 5.2957 9.72503 5.31543C9.59674 5.33427 9.51959 5.46077 9.36618 5.49486C9.25404 5.51908 9.11589 5.46077 9.00734 5.49486C8.50406 5.65006 8.22954 5.88241 8.02052 6.12283C7.99181 6.15603 7.85904 6.18832 7.84109 6.21254C7.78368 6.29059 7.88595 6.48347 7.84109 6.57139C7.82943 6.59471 7.685 6.55434 7.66167 6.57139C7.5594 6.64405 7.58542 6.93382 7.57196 7.01994C7.53877 7.23076 7.19248 7.61832 6.94398 7.82734C6.94398 8.03637 6.94398 8.24629 6.94398 8.45532C7.18351 8.45532 7.42214 8.45532 7.66167 8.45532C7.78727 8.65807 8.025 8.75047 8.11023 8.99359C8.46279 9.12008 8.82522 9.23491 8.91763 9.62156C9.27288 9.50583 9.10064 9.91671 9.45589 9.80098C9.2684 10.054 9.7017 10.2854 10.0839 10.2495C9.77437 10.4962 9.62096 10.5393 9.18676 10.429C8.95979 10.7708 8.4296 10.8084 8.19994 11.1466C7.88326 11.0309 8.6153 10.7116 8.02052 10.7878C8.25735 10.6353 8.53277 10.5223 8.91763 10.5187C9.03784 10.4595 9.08449 10.3267 9.09705 10.1598C8.85573 9.94093 8.59556 10.2612 8.37936 9.98041C8.25107 10.0019 8.22775 10.1284 8.11023 10.1598C8.11023 10.3473 7.72896 10.5869 7.57196 10.8775C7.65001 11.0085 7.64283 11.2247 7.93081 11.1466C7.91735 11.3431 7.70473 11.3395 7.48225 11.3261C7.26784 10.6757 7.49391 9.97682 7.48225 9.26272C7.41586 8.95411 6.99781 9.73819 7.0337 9.26272C6.73137 9.55876 6.55374 9.97861 6.04688 10.0701C6.21912 9.7337 6.61654 9.62246 6.76456 9.26272C6.64704 8.96129 6.59411 8.59527 6.40572 8.36561C6.47928 7.81119 6.70446 7.40839 7.12341 7.19937C7.53518 6.14616 8.23941 5.38451 9.36618 5.0463C9.33837 4.83548 8.94095 4.99337 9.00734 4.68746C9.29531 4.92699 9.72144 4.67849 9.45589 4.32861C9.63711 4.47574 9.81384 4.62825 9.81474 4.95659C10.2992 4.98081 10.4445 5.34414 11.0707 5.22572ZM8.28965 9.71127C8.40538 9.78932 8.62607 10.1473 8.7382 9.8907C8.40538 9.77497 8.40538 9.32641 7.93081 9.35243C7.78727 9.65565 8.14791 9.61528 8.28965 9.71127ZM7.75138 9.71127C7.71012 9.99117 7.94337 9.99835 8.19994 9.98041C8.16316 9.59465 7.89313 9.86109 7.75138 9.71127Z" fill="#F3F6F9"/>
<path d="M10.9823 15.9014C11.2622 16.1014 10.8056 16.3158 10.8029 16.5293C10.7311 16.4819 10.6576 16.436 10.5338 16.4396C10.4378 16.1042 10.7562 16.184 10.7132 15.9014C10.7858 15.9633 10.959 16.0413 10.9823 15.9014Z" fill="#F3F6F9"/>
<path d="M10.9819 18.772C11.0285 18.8187 10.9173 18.8868 10.8922 18.8617C10.8455 18.8151 10.9568 18.7469 10.9819 18.772Z" fill="#F3F6F9"/>
<path d="M10.8022 14.107C10.8488 14.1537 10.7376 14.2218 10.7125 14.1967C10.6658 14.15 10.7771 14.0818 10.8022 14.107Z" fill="#F3F6F9"/>
<path d="M10.8025 9.44189C10.8025 9.502 10.8025 9.56121 10.8025 9.62132C10.7424 9.62132 10.6832 9.62132 10.623 9.62132C10.623 9.56121 10.623 9.502 10.623 9.44189C10.6832 9.44189 10.7424 9.44189 10.8025 9.44189Z" fill="#F3F6F9"/>
<path d="M10.4428 14.7349C10.4895 14.7816 10.3782 14.8497 10.3531 14.8246C10.3064 14.7779 10.4177 14.7098 10.4428 14.7349Z" fill="#F3F6F9"/>
<path d="M9.99414 3.87981C10.0336 3.76947 10.109 3.6959 10.2633 3.70039C10.2238 3.81073 10.1484 3.8843 9.99414 3.87981Z" fill="#F3F6F9"/>
<path d="M10.263 16.9777C10.1132 16.9777 9.96423 16.9777 9.81442 16.9777C9.81083 17.1015 9.85658 17.1742 9.90413 17.2468C9.51658 17.0208 9.2304 17.2504 8.8276 17.0674C8.57641 17.1831 9.11019 17.2531 9.00702 17.516C9.46903 17.3922 9.31832 17.6748 9.81442 17.516C9.80545 17.7465 9.46454 17.6443 9.45557 17.8748C9.47172 18.1583 9.51837 18.4095 9.81442 18.4131C9.81352 18.7397 9.92476 18.98 9.99384 19.1308C10.045 19.2411 10.0782 19.592 10.263 19.4896C9.94091 19.7363 9.74713 20.1095 9.27615 20.2073C9.26628 20.0978 9.24924 19.9947 9.09673 20.0279C9.1685 19.801 9.46634 19.7991 9.63499 19.669C9.74444 19.2689 9.6027 18.8796 9.18644 18.7719C9.21784 18.65 9.31024 18.6016 9.27615 18.4131C9.24655 18.2507 9.04111 18.3144 9.00702 18.2336C8.97921 18.1673 9.12275 18.0937 9.09673 18.0542C8.92987 17.8057 8.60691 17.5124 8.19962 17.516C8.17271 17.1867 7.77618 17.2039 7.57164 17.0674C7.37428 16.9364 7.24599 16.6996 7.03338 16.6189C6.67453 16.6485 6.53548 16.4593 6.13627 16.5291C5.81331 16.1649 5.29119 16.1317 5.05974 15.8115C5.01937 15.7558 5.08575 15.6078 5.05974 15.5423C5.03462 15.4786 4.90095 15.4697 4.88031 15.3629C4.8543 15.2274 5.05076 15.0435 5.05974 14.8246C5.06691 14.6579 4.94939 14.6219 4.97003 14.4658C4.97092 14.4586 5.14137 14.3959 5.14945 14.3761C5.21404 14.2254 5.01488 14.1635 5.05974 14.0172C5.19071 13.9392 5.34412 13.8827 5.32887 13.6584C5.40602 13.3723 5.18802 13.3812 5.14945 13.2098C5.08127 12.7227 5.25979 12.4832 5.23916 12.0436C5.04538 11.9081 4.91171 11.7135 4.7906 11.5053C4.76459 10.9455 5.07319 10.8235 5.32887 10.6082C5.54238 10.4288 5.71463 10.1964 5.95685 10.1597C5.71911 10.5795 5.20238 10.7213 5.14945 11.3259C5.44101 11.6919 6.16767 11.6237 6.67453 11.7745C6.86113 11.7511 6.69876 11.3806 6.85396 11.3259C7.00826 11.2909 7.08362 11.4587 7.12309 11.3259C7.3043 11.3995 7.06657 11.7987 7.03338 11.9539C7.15897 12.3971 7.1204 13.0026 7.12309 13.5687C6.90958 13.2439 6.85844 12.7568 6.76424 12.3127C6.69337 12.0795 6.47627 12.2257 6.31569 12.1333C6.26366 12.1037 6.29595 11.9019 6.22598 11.8642C6.13358 11.8139 5.96582 11.9028 5.86713 11.8642C5.92634 11.9844 6.05912 12.031 6.22598 12.0436C5.93442 12.2131 5.71373 11.988 5.50829 12.3127C5.92634 12.3926 5.49125 12.7667 5.86713 12.851C5.86265 13.0053 5.93621 13.0807 6.04656 13.1201C6.11025 13.3239 5.81151 13.3767 5.86713 13.5687C5.86893 13.5759 6.04117 13.7293 6.04656 13.6584C6.03669 13.7939 5.91289 13.6772 5.86713 13.7481C5.57109 14.2048 6.3121 14.3716 6.13627 14.8246C6.06629 14.8049 6.0322 14.7493 6.04656 14.6452C5.85009 14.7493 5.70386 15.1727 5.41858 14.9143C5.32259 15.1413 5.64106 15.4598 5.598 15.0938C5.82407 15.4741 6.86741 15.7702 7.03338 15.1835C7.22984 15.1969 7.22626 15.4096 7.2128 15.632C7.3689 15.6249 7.4918 15.6519 7.57164 15.7217C7.75824 15.6984 7.59586 15.3279 7.75106 15.2732C8.10004 15.5567 8.24986 15.0417 8.37904 14.8246C8.641 15.1809 8.10183 15.5011 8.0202 15.8115C8.09197 15.9919 8.38981 15.6509 8.55846 15.632C8.56743 15.4913 8.5468 15.3207 8.73789 15.3629C8.63472 15.5891 8.59255 15.8751 8.37904 15.9909C8.41493 16.1641 8.78992 15.999 8.64817 16.3497C9.33177 16.4645 9.46544 16.0303 9.81442 15.8115C9.83415 15.8814 9.88977 15.9155 9.99384 15.9012C10.0297 16.2655 9.61167 16.1775 9.54528 16.4394C9.43404 16.7292 9.83595 16.5077 9.72471 16.7983C10.0082 16.8063 10.2594 16.5587 10.263 16.9777ZM8.91731 16.7086C8.94243 16.7337 9.05367 16.6656 9.00702 16.6189C8.9819 16.5937 8.87066 16.6619 8.91731 16.7086ZM8.37904 16.26C8.20231 16.3874 8.63023 16.9723 8.8276 16.7086C8.66253 16.574 8.60422 16.3345 8.37904 16.26Z" fill="#F3F6F9"/>
<path d="M9.54688 15.2731C9.57289 14.9797 10.2242 15.0507 10.1748 15.3628C10.0591 15.239 9.7855 15.274 9.54688 15.2731Z" fill="#F3F6F9"/>
<path d="M10.2638 4.32846C10.0521 4.61733 9.90138 4.01268 10.2638 4.32846V4.32846Z" fill="#F3F6F9"/>
<path d="M10.0847 12.7612C10.4732 12.7989 9.99055 13.2816 10.0847 12.7612V12.7612Z" fill="#F3F6F9"/>
<path d="M9.9043 20.1178C9.95454 19.9312 10.0443 19.9276 10.1734 20.0281C10.1582 20.1322 10.0317 20.1259 9.9043 20.1178Z" fill="#F3F6F9"/>
<path d="M9.72589 9.08311C9.68014 9.51731 10.1368 9.44913 9.99502 9.98022C9.60837 9.85821 9.50969 9.44913 9.27734 9.17282C8.71575 9.07593 8.24208 8.89202 8.29053 8.186C8.41791 8.19407 8.54441 8.20035 8.55966 8.09629C8.63591 8.08014 8.64398 8.13128 8.64937 8.186C8.55069 8.46051 8.80457 8.3412 8.9185 8.45513C8.949 8.48563 8.88979 8.60136 8.9185 8.63455C9.02436 8.75566 9.29259 8.69825 9.18763 8.9934C9.39935 8.9916 9.45138 9.1477 9.72589 9.08311Z" fill="#F3F6F9"/>
<path d="M9.9043 17.247C10.0129 17.238 9.95903 17.377 9.9043 17.247V17.247Z" fill="#F3F6F9"/>
<path d="M9.90586 20.1177C9.92201 20.3133 9.8323 20.403 9.63672 20.3868C9.68696 20.2576 9.77667 20.1679 9.90586 20.1177Z" fill="#F3F6F9"/>
<path d="M9.45653 0.650391C9.57226 1.41114 9.97595 2.33068 9.81537 3.07258C9.36234 2.59891 9.40899 1.62555 9.1874 0.919523C9.07975 0.802002 9.15242 0.778677 9.1874 0.650391C9.27711 0.650391 9.36682 0.650391 9.45653 0.650391Z" fill="#F3F6F9"/>
<path d="M9.36664 19.5796C9.41329 19.6264 9.30205 19.6944 9.27693 19.6693C9.23027 19.6227 9.34152 19.5545 9.36664 19.5796Z" fill="#F3F6F9"/>
<path d="M9.36692 15.6323C9.36423 15.7194 9.25747 15.7023 9.1875 15.722C9.19019 15.635 9.29695 15.6521 9.36692 15.6323Z" fill="#F3F6F9"/>
<path d="M9.27709 12.4023C9.2744 12.4894 9.16763 12.4723 9.09766 12.4921C9.10035 12.405 9.20711 12.4221 9.27709 12.4023Z" fill="#F3F6F9"/>
<path d="M9.09769 3.96967C9.12012 3.85663 9.27622 3.87905 9.27712 3.96967C9.19727 4.02439 9.11653 4.07822 9.09769 3.96967Z" fill="#F3F6F9"/>
<path d="M9.18695 4.50784C9.2336 4.55449 9.12236 4.62267 9.09724 4.59755C9.05059 4.5509 9.16183 4.48272 9.18695 4.50784Z" fill="#F3F6F9"/>
<path d="M9.00726 16.6192C9.05391 16.6659 8.94267 16.734 8.91755 16.7089C8.8709 16.6622 8.98214 16.594 9.00726 16.6192Z" fill="#3F6587"/>
<path d="M8.82812 20.1177C8.85324 19.7643 9.22375 20.1348 8.82812 20.1177V20.1177Z" fill="#F3F6F9"/>
<path d="M8.91807 20.7458C9.05712 21.1245 8.42018 20.7261 8.55923 21.1047C8.14207 21.1658 7.95189 21.4537 7.57241 21.5532C7.43695 21.956 7.67916 22.7365 7.21357 22.8092C7.25394 22.4683 6.98121 22.1704 7.21357 21.9121C6.84575 21.9193 6.43936 22.584 6.13704 22.0915C6.59097 22.0073 6.77937 21.6573 7.21357 21.5532C7.21357 21.2841 7.21357 21.015 7.21357 20.7458C6.35503 20.6472 5.97825 21.4671 6.13704 22.0915C5.67233 22.0825 5.79075 21.6296 5.8679 21.2841C5.6212 21.0141 5.24531 21.3738 4.9708 21.3738C4.67385 21.3424 4.58145 21.1047 4.43253 20.9253C4.49712 20.7208 4.51237 20.4669 4.61195 20.2973C4.33026 19.9483 3.9445 20.5763 3.71484 20.2973C3.71395 19.8478 4.41459 20.1 4.61195 19.8487C4.74024 19.8273 4.76356 19.7008 4.88109 19.6693C5.03808 19.2584 5.07127 18.7229 5.50906 18.5928C5.53956 19.0127 5.31529 19.1769 5.23993 19.4899C5.53418 19.7492 5.8993 19.3159 6.31646 19.4002C6.35324 19.5133 6.43218 19.5832 6.58559 19.5796C6.62327 20.0057 6.45551 20.2264 6.40617 20.5664C6.91483 20.6265 7.01172 20.2749 7.39299 20.2076C7.76529 20.413 7.36697 20.9387 7.57241 21.1944C7.98149 21.0051 8.34302 20.7692 8.91807 20.7458ZM6.04733 20.6561C5.97017 20.2202 6.3039 20.195 6.22675 19.759C5.79524 19.8058 5.46062 19.9501 5.06051 20.0281C4.97887 20.3646 4.85776 20.6624 4.79137 21.015C5.34489 21.0301 5.66964 20.8167 6.04733 20.6561Z" fill="#F3F6F9"/>
<path d="M8.82773 20.1179C8.80979 20.3861 8.45542 20.0317 8.82773 20.1179V20.1179Z" fill="#F3F6F9"/>
<path d="M8.64999 0.830078C8.85094 1.49663 8.68587 2.52831 8.7397 3.34198C8.09737 3.11681 7.66496 2.4377 7.21461 1.90661C7.11055 1.7846 6.75081 1.67067 6.94548 1.45805C7.38058 1.39615 7.51335 1.75769 7.75288 1.99632C7.9628 2.20535 8.10275 2.48166 8.38086 2.6243C8.70561 2.10038 8.19067 1.2257 8.38086 0.830078C8.47057 0.830078 8.56028 0.830078 8.64999 0.830078Z" fill="#F3F6F9"/>
<path d="M8.82829 16.7088C8.63093 16.9726 8.20301 16.3876 8.37974 16.2603C8.60491 16.3347 8.66322 16.5742 8.82829 16.7088Z" fill="#3F6587"/>
<path d="M8.73897 9.89043C8.62683 10.147 8.40614 9.78905 8.29042 9.711C8.14868 9.61501 7.78804 9.65538 7.93158 9.35216C8.40614 9.32614 8.40614 9.7747 8.73897 9.89043Z" fill="#3F6587"/>
<path d="M8.20136 9.98056C7.94479 9.9985 7.71155 9.99132 7.75281 9.71143C7.89455 9.86124 8.16458 9.5948 8.20136 9.98056Z" fill="#3F6587"/>
<path d="M8.28934 20.2969C8.24987 20.4072 8.17451 20.4809 8.0202 20.4763C7.97804 20.2852 8.14849 20.3058 8.28934 20.2969Z" fill="#F3F6F9"/>
<path d="M7.93206 11.1466C7.92309 11.038 8.06215 11.091 7.93206 11.1466V11.1466Z" fill="#F3F6F9"/>
<path d="M7.48242 14.0176C7.70131 14.0679 7.94353 14.0947 7.93097 14.3764C7.6439 14.3944 7.54342 14.2257 7.48242 14.0176Z" fill="#F3F6F9"/>
<path d="M7.84124 20.1177C7.88789 20.1644 7.77665 20.2325 7.75154 20.2074C7.70489 20.1608 7.81612 20.0926 7.84124 20.1177Z" fill="#F3F6F9"/>
<path d="M7.75246 3.34184C7.99827 3.7904 7.42322 4.03621 7.21419 4.05953C6.26685 4.16629 4.88799 2.14151 6.58622 1.72705C6.3745 2.13972 6.0318 2.33888 6.13766 2.89329C6.21302 3.29071 6.60595 3.44232 6.94506 3.61098C7.37298 3.68005 7.34338 3.29161 7.75246 3.34184Z" fill="#F3F6F9"/>
<path d="M7.21358 20.7454C7.21358 21.0146 7.21358 21.2837 7.21358 21.5528C6.77938 21.6569 6.59099 22.0069 6.13705 22.0911C5.97826 21.4667 6.35505 20.6468 7.21358 20.7454Z" fill="#3F6587"/>
<path d="M6.67524 15.2735C6.72189 15.3202 6.61064 15.3883 6.58552 15.3632C6.53887 15.3165 6.65012 15.2483 6.67524 15.2735Z" fill="#F3F6F9"/>
<path d="M6.49651 13.6583C6.48754 13.5498 6.62658 13.6026 6.49651 13.6583V13.6583Z" fill="#F3F6F9"/>
<path d="M6.31694 12.9409C6.47484 12.9624 6.5215 13.0952 6.49638 13.2998C6.33848 13.2782 6.29182 13.1455 6.31694 12.9409Z" fill="#F3F6F9"/>
<path d="M6.49607 13.6587C6.50325 13.8148 6.47634 13.9377 6.40637 14.0175C6.30141 14.0023 6.30859 13.8758 6.31666 13.7484C6.40637 13.7484 6.42341 13.6757 6.49607 13.6587Z" fill="#F3F6F9"/>
<path d="M5.7782 4.3288C5.96659 4.46785 6.44475 4.47951 6.40617 4.86706C5.97825 4.87603 5.91545 4.52078 5.50906 4.50822C5.22288 4.80068 5.64901 5.14068 5.59877 5.49504C5.47766 5.52285 5.42743 5.62243 5.23993 5.58475C5.2498 5.09672 5.10357 4.76479 4.9708 4.41851C4.64066 4.12067 4.12303 4.01032 3.71484 3.79053C3.9158 3.24778 4.40831 3.82103 4.79138 3.88024C5.06768 3.57522 4.51507 3.10873 4.79138 2.80371C5.14663 3.10065 5.02283 3.45681 5.23993 3.79053C5.37988 4.00584 5.57635 4.18077 5.7782 4.3288Z" fill="#F3F6F9"/>
<path d="M6.22779 13.479C6.33274 13.4943 6.32557 13.6207 6.31749 13.7481C6.13091 13.6979 6.12732 13.6082 6.22779 13.479Z" fill="#F3F6F9"/>
<path d="M6.22608 14.1967C6.24672 14.055 6.32926 14.1922 6.3158 14.2864C6.29517 14.4282 6.21263 14.2909 6.22608 14.1967Z" fill="#F3F6F9"/>
<path d="M6.22639 19.7588C6.30354 20.1948 5.96982 20.22 6.04697 20.6559C5.66928 20.8165 5.34453 21.03 4.79102 21.0147C4.8574 20.6622 4.97851 20.3643 5.06015 20.0279C5.46026 19.9498 5.79488 19.8054 6.22639 19.7588Z" fill="#3F6587"/>
<path d="M5.95703 12.7616C5.99381 12.6485 6.07276 12.5786 6.22617 12.5822C6.18939 12.6952 6.11044 12.7652 5.95703 12.7616Z" fill="#F3F6F9"/>
<path d="M6.13812 15.2735C6.18477 15.3202 6.07353 15.3883 6.04841 15.3632C6.00176 15.3165 6.113 15.2483 6.13812 15.2735Z" fill="#F3F6F9"/>
<path d="M5.95703 10.1596C5.96241 10.1049 5.97049 10.0538 6.04674 10.0699C6.04136 10.1246 6.03329 10.1758 5.95703 10.1596Z" fill="#F3F6F9"/>
<path d="M5.86719 12.851C5.87257 12.7963 5.88064 12.7452 5.95689 12.7613C5.95151 12.8161 5.94343 12.8672 5.86719 12.851Z" fill="#F3F6F9"/>
<path d="M5.24047 5.58447C5.24047 5.67418 5.24047 5.76389 5.24047 5.85361C4.48152 6.46364 3.32604 5.78004 2.90799 5.22563C2.96092 5.03993 2.79675 4.63623 2.9977 4.59765C3.00398 4.35633 3.20314 4.16614 3.35654 4.32852C3.56108 4.54293 3.16008 4.65866 3.26683 5.04621C3.31438 5.37814 3.89929 5.72801 4.16394 5.76389C4.55598 5.81682 4.86279 5.62125 5.24047 5.58447Z" fill="#F3F6F9"/>
<path d="M4.79081 18.1438C4.89488 18.1296 4.9505 18.1636 4.97023 18.2335C4.92359 18.447 4.77736 18.6318 4.61139 18.7718C4.46247 18.8983 4.20949 18.9422 4.07313 19.0409C3.77708 19.2554 3.50346 19.6322 3.08631 19.6689C3.01185 19.3845 3.2137 19.3504 3.35544 19.2204C3.40837 19.1719 3.48462 19.0796 3.53486 19.0409C3.60484 18.9871 3.72505 19.0095 3.80399 18.9512C3.926 18.8606 4.02917 18.6803 4.16284 18.5924C4.40864 18.4309 4.66432 18.4605 4.79081 18.1438Z" fill="#F3F6F9"/>
<path d="M4.25336 17.606C4.37268 17.606 4.49289 17.606 4.61221 17.606C4.50097 18.0223 3.98423 18.1963 3.62539 18.4134C3.2791 18.6234 2.8772 19.0504 2.45915 18.8619C2.45107 18.6207 2.74891 18.5964 2.9077 18.5031C3.30691 18.2689 3.85594 17.9522 4.25336 17.606Z" fill="#F3F6F9"/>
<path d="M4.43275 6.48164C4.48478 6.89252 4.13311 6.8997 3.98419 7.10962C2.85383 7.26661 1.45075 6.23045 2.36939 5.40511C2.51472 5.37999 2.5237 5.48944 2.63853 5.49482C2.68069 5.77651 2.3972 5.73166 2.36939 5.94337C2.54971 6.51125 3.12386 6.68349 3.71506 6.84049C4.07121 6.83779 4.02725 6.43499 4.43275 6.48164Z" fill="#F3F6F9"/>
<path d="M3.17601 17.2467C3.41374 17.1401 3.83987 16.8654 4.16283 16.9776C3.94124 17.3186 3.53395 17.4997 3.17601 17.6953C2.83959 17.8793 2.46909 18.1269 2.00977 18.1438C2.14792 17.7375 2.714 17.6379 3.0863 17.4261C3.12397 17.4046 3.14461 17.2611 3.17601 17.2467Z" fill="#F3F6F9"/>
<path d="M3.80449 7.46826C3.86908 7.74278 3.71299 7.79481 3.71478 8.00653C3.5542 7.92668 3.50934 8.15275 3.35594 8.18595C2.72258 8.32231 1.57697 7.75534 1.47201 7.37855C1.39934 7.11839 1.43343 6.74699 1.65143 6.48145C1.74114 6.48145 1.83085 6.48145 1.92056 6.48145C2.17983 6.75147 1.70615 6.79454 1.83085 7.19913C1.97439 7.68357 2.54585 7.74009 2.99709 7.91682C3.47166 7.97244 3.32454 7.40726 3.80449 7.46826Z" fill="#F3F6F9"/>
<path d="M3.26715 15.0042C3.58652 15.7937 1.00195 16.6477 0.844958 15.6321C0.748967 15.0068 2.86794 14.1402 3.26715 15.0042ZM2.90831 15.2733C2.90741 14.8507 2.41669 14.8866 2.10091 14.9144C1.86048 14.9351 1.06116 15.3702 1.2038 15.6321C1.56713 16.1614 2.54318 15.5702 2.90831 15.2733Z" fill="#F3F6F9"/>
<path d="M3.17741 8.81426C3.15319 9.11838 3.24649 9.54181 3.0877 9.71136C2.18969 9.62255 1.57697 9.24846 0.665503 9.1731C0.603603 8.81246 0.751626 8.66085 0.755214 8.36571C1.02794 8.30919 1.12123 8.12708 1.38319 8.09658C1.99681 8.02391 2.76743 8.55769 3.17741 8.81426ZM2.81857 9.26281C2.83651 8.48502 1.77792 8.34687 1.11406 8.54513C1.08625 8.66624 0.986668 8.71648 1.02435 8.90397C1.65053 8.99547 2.126 9.23769 2.81857 9.26281Z" fill="#F3F6F9"/>
<path d="M2.72831 13.2098C2.90056 13.426 2.99296 13.722 2.99745 14.1069C2.19812 14.324 1.36471 14.508 0.575252 14.7349C0.00199953 14.011 0.844385 13.1936 1.65178 13.5686C1.80339 13.2412 2.19902 13.1586 2.72831 13.2098ZM1.92092 14.0172C2.26899 14.0064 2.74715 14.1257 2.6386 13.6583C2.4538 13.3399 1.77917 13.4852 1.92092 14.0172ZM1.56207 13.9275C1.35663 13.5319 0.550133 13.7965 0.664963 14.2863C0.934993 14.4451 1.52708 14.289 1.56207 13.9275Z" fill="#F3F6F9"/>
<path d="M1.11374 8.54497C1.7776 8.34671 2.83619 8.48486 2.81825 9.26266C2.12568 9.23754 1.65021 8.99532 1.02403 8.90382C0.986353 8.71632 1.08593 8.66608 1.11374 8.54497Z" fill="#3F6587"/>
<path d="M2.63945 13.6585C2.748 14.1259 2.26984 14.0066 1.92176 14.0173C1.78002 13.4853 2.45464 13.34 2.63945 13.6585Z" fill="#3F6587"/>
<path d="M2.90812 11.6851C2.75561 12.0646 2.33577 11.7892 2.01101 11.7748C1.40008 11.747 0.612422 11.7497 0.216797 11.5057C0.576537 11.1782 1.24309 11.1567 1.65217 10.8777C1.40905 10.4928 0.765827 10.5081 0.396219 10.2497C0.396219 10.16 0.396219 10.0703 0.396219 9.9806C1.15697 9.74286 2.09534 10.064 2.90812 10.0703C2.85071 10.6992 1.91323 10.0515 1.65217 10.3394C1.83069 10.6391 2.35281 10.5951 2.54928 10.8777C2.53762 11.1684 2.1384 11.0867 1.9213 11.1468C1.70241 11.2078 1.49069 11.2985 1.29333 11.3263C1.61808 11.66 2.50083 11.4348 2.90812 11.6851Z" fill="#F3F6F9"/>
<path d="M2.63827 16.5293C2.63827 16.619 2.63827 16.7087 2.63827 16.7984C2.54856 16.7984 2.45885 16.7984 2.36914 16.7984C2.36914 16.7087 2.36914 16.619 2.36914 16.5293C2.45885 16.5293 2.54856 16.5293 2.63827 16.5293Z" fill="#F3F6F9"/>
<path d="M2.09957 14.9145C2.41536 14.8867 2.90608 14.8509 2.90697 15.2734C2.54185 15.5704 1.56579 16.1615 1.20247 15.6322C1.05983 15.3703 1.85915 14.9352 2.09957 14.9145Z" fill="#3F6587"/>
<path d="M0.665431 14.2863C0.550601 13.7965 1.3571 13.5319 1.56254 13.9275C1.52755 14.289 0.93546 14.4451 0.665431 14.2863Z" fill="#3F6587"/>
</g>
<defs>
<clipPath id="clip0_5838_134594">
<rect width="25" height="24.2694" fill="white"/>
</clipPath>
</defs>
</svg>
