<svg width="87" height="30" viewBox="0 0 87 30" fill="none" xmlns="http://www.w3.org/2000/svg">
<path d="M12.6443 20.9966V26.6915H14.2467V20.9966H12.6443V20.9966ZM0 20.9966V26.7007H1.63004V22.3648H2.8825C3.29692 22.3648 3.60083 22.4665 3.79422 22.6791C4.05208 22.9472 4.15338 23.4002 4.15338 24.1861V26.6915H5.72817V23.5389C5.72817 21.2924 4.30073 20.9873 2.89171 20.9873L0 20.9966ZM15.2321 20.9873V26.6822H17.8384C19.229 26.6822 19.6802 26.4511 20.1683 25.9334C20.5183 25.5728 20.7393 24.7685 20.7393 23.8995C20.7393 23.0952 20.5459 22.3833 20.2236 21.9395C19.625 21.1445 18.7685 20.9873 17.4884 20.9873H15.2321ZM16.8253 22.2261H17.516C18.5198 22.2261 19.1645 22.6791 19.1645 23.8348C19.1645 24.9996 18.5198 25.4434 17.516 25.4434H16.8253V22.2261ZM10.3236 20.9873L8.98825 25.4989L7.69895 20.9966H5.9584L7.79104 26.6915H10.1118L11.9721 20.9966L10.3236 20.9873ZM21.4944 26.6822H23.0969V20.9966H21.4944V26.6822ZM25.9978 20.9873L23.7507 26.6915H25.3347L25.6939 25.6838H28.3461L28.6869 26.6915H30.409L28.1435 20.9966L25.9978 20.9873ZM31.2379 26.8579C30.9616 26.8579 30.7406 26.6268 30.7406 26.3494C30.7406 26.0721 30.9708 25.8502 31.2471 25.8502C31.5233 25.8502 31.7444 26.0721 31.7444 26.3494C31.7444 26.636 31.5233 26.8579 31.2379 26.8579C31.2379 26.8671 31.2379 26.8671 31.2379 26.8579ZM31.2379 25.9519C31.0168 25.9519 30.8326 26.1275 30.8234 26.3494C30.8234 26.5713 30.9984 26.7562 31.2194 26.7654C31.4405 26.7747 31.6246 26.5898 31.6339 26.3679V26.3586C31.6339 26.1368 31.4589 25.9611 31.2379 25.9519C31.2379 25.9611 31.2379 25.9611 31.2379 25.9519ZM31.3299 26.6175L31.2286 26.4141H31.1734V26.6175H31.0537V26.0813H31.2747C31.3668 26.0721 31.4497 26.146 31.4497 26.2385V26.2477C31.4497 26.3124 31.4128 26.3679 31.3484 26.3864L31.4589 26.6083L31.3299 26.6175ZM31.2563 26.183H31.1734V26.3217H31.2563C31.2931 26.3309 31.3299 26.3032 31.3392 26.2662C31.3484 26.2292 31.3207 26.1922 31.2839 26.183C31.2655 26.183 31.2563 26.183 31.2563 26.183ZM27.0476 22.032L28.0238 24.6945H26.0438L27.0476 22.032Z" fill="black"/>
<path d="M10.5175 7.65606V6.2878C10.6464 6.2878 10.7845 6.26931 10.9227 6.26931C14.6708 6.14912 17.1205 9.48656 17.1205 9.48656C17.1205 9.48656 14.4775 13.1753 11.6226 13.1753C11.245 13.1753 10.8766 13.1198 10.5175 12.9997V8.84866C11.9725 9.02431 12.2672 9.67146 13.1421 11.1322L15.0853 9.48656C15.0853 9.48656 13.667 7.61908 11.2726 7.61908C11.024 7.60983 10.7661 7.62832 10.5175 7.65606ZM10.5175 3.13525V5.1784C10.6556 5.16915 10.7845 5.15991 10.9227 5.15066C16.1259 4.97501 19.5149 9.42185 19.5149 9.42185C19.5149 9.42185 15.6194 14.1553 11.5673 14.1553C11.2174 14.1553 10.8674 14.1276 10.5175 14.0628V15.3202C10.803 15.3571 11.0976 15.3756 11.3923 15.3756C15.1681 15.3756 17.8941 13.4434 20.5372 11.1692C20.97 11.5297 22.7658 12.371 23.1342 12.75C20.62 14.8579 14.7629 16.5497 11.4476 16.5497C11.1345 16.5497 10.8306 16.5312 10.5175 16.5035V18.2786H24.8563V3.13525H10.5175ZM10.5175 12.9904V14.0628C7.02715 13.4434 6.05097 9.81014 6.05097 9.81014C7.25738 8.60829 8.82296 7.8502 10.5175 7.64681V8.83017C9.05319 8.65451 7.91124 10.0228 7.91124 10.0228C7.91124 10.0228 8.55589 12.3248 10.5175 12.9904ZM4.31962 9.65297C5.81153 7.69304 8.0678 6.4727 10.5175 6.27855V5.16915C5.94046 5.53895 1.98047 9.4126 1.98047 9.4126C1.98047 9.4126 4.22753 15.9026 10.5175 16.4943V15.3294C5.90362 14.747 4.31962 9.65297 4.31962 9.65297Z" fill="#76B900"/>
<path d="M38.7444 0H37.7444V30H38.7444V0Z" fill="#828282"/>
<path d="M44.7444 13.7669V7.67448H45.389V13.7669H44.7444ZM50.887 13.7669L47.6637 8.87633V13.7669H47.0099V7.67448H47.6269L50.8501 12.5466V7.65599H51.4948V13.7484L50.887 13.7669ZM55.0956 13.8132C54.5154 13.8224 53.9537 13.5913 53.5392 13.1845C52.9683 12.6113 52.9683 12.0104 52.9683 10.7161C52.9683 9.42178 52.9683 8.82086 53.5392 8.24767C53.9537 7.83165 54.5154 7.60977 55.0956 7.61901C56.1915 7.61901 57.0019 8.28465 57.2045 9.43103H56.5415C56.3757 8.68218 55.86 8.20144 55.0956 8.20144C54.6996 8.1922 54.322 8.34937 54.0457 8.62672C53.659 9.02425 53.6221 9.44027 53.6221 10.7161C53.6221 11.9919 53.6682 12.4079 54.0457 12.8055C54.322 13.0828 54.6996 13.24 55.0956 13.2307C55.8508 13.2307 56.3941 12.7407 56.5507 12.0011H57.1953C57.0019 13.1383 56.1731 13.8132 55.0956 13.8132ZM58.5583 13.7669V7.67448H62.3341V8.25692H59.2122V10.411H61.8736V10.9934H59.2122V13.1937H62.3341V13.7669H58.5583ZM65.8981 11.2615H64.2865V13.7669H63.6418V7.67448H65.9073C67.0124 7.67448 67.786 8.36786 67.786 9.46801C67.786 10.5682 67.0032 11.2615 65.8981 11.2615ZM65.8336 8.24767H64.2773V10.6699H65.8336C66.5888 10.6699 67.1229 10.2631 67.1229 9.44952C67.1229 8.63596 66.5888 8.24767 65.8336 8.24767ZM70.9724 8.24767V13.7762H70.3185V8.24767H68.5596V7.66524H72.7222V8.24767H70.9724ZM73.9286 13.7669V7.67448H74.5824V13.7669H73.9286ZM79.712 13.1845C78.8463 14.0258 77.4741 14.0258 76.6085 13.1845C76.0375 12.6113 76.0375 12.0104 76.0375 10.7161C76.0375 9.42178 76.0375 8.82086 76.6085 8.24767C77.4741 7.40638 78.8463 7.40638 79.712 8.24767C80.283 8.82086 80.283 9.42178 80.283 10.7161C80.283 12.0104 80.2922 12.6021 79.712 13.1845ZM79.2055 8.63596C78.6253 8.05353 77.6859 8.05353 77.115 8.63596C76.7282 9.02425 76.6913 9.44027 76.6913 10.7161C76.6913 11.9919 76.7374 12.4079 77.115 12.7962C77.6952 13.3786 78.6345 13.3786 79.2055 12.7962C79.5923 12.4079 79.6291 11.9919 79.6291 10.7161C79.6291 9.44027 79.5923 9.02425 79.2055 8.63596ZM85.6243 13.7669L82.4011 8.87633V13.7669H81.7564V7.67448H82.3735L85.5967 12.5466V7.65599H86.2414V13.7484L85.6243 13.7669ZM47.0007 19.8224H45.3982V22.3278H44.7536V16.2353H47.0191C48.1242 16.2353 48.8978 16.9287 48.8978 18.0289C48.8886 19.129 48.115 19.8224 47.0007 19.8224ZM46.9454 16.8178H45.389V19.24H46.9454C47.7098 19.24 48.2347 18.8239 48.2347 18.0196C48.2347 17.2153 47.7006 16.8178 46.9454 16.8178ZM53.6221 22.3278L52.2407 19.619H50.7857V22.3278H50.1318V16.2353H52.4618C53.5208 16.2353 54.2668 16.8825 54.2668 17.9364C54.3036 18.7407 53.7326 19.4434 52.9406 19.5728L54.3865 22.337L53.6221 22.3278ZM52.4065 16.8178H50.7857V19.0551H52.4065C53.1248 19.0551 53.6129 18.6853 53.6129 17.9364C53.6129 17.1876 53.1156 16.8178 52.4065 16.8178ZM59.1937 21.7454C58.3281 22.5867 56.9559 22.5867 56.0902 21.7454C55.5192 21.1722 55.5192 20.5712 55.5192 19.2769C55.5192 17.9826 55.5192 17.3817 56.0902 16.8085C56.9559 15.9672 58.3281 15.9672 59.1937 16.8085C59.7647 17.3817 59.7647 17.9826 59.7647 19.2769C59.7647 20.5712 59.7647 21.1722 59.1937 21.7454ZM58.6964 17.1968C58.1162 16.6144 57.1769 16.6144 56.6059 17.1968C56.2191 17.5944 56.1823 18.0011 56.1823 19.2769C56.1823 20.5528 56.2283 20.9595 56.6059 21.3571C57.1861 21.9395 58.1255 21.9395 58.6964 21.3571C59.0832 20.9595 59.1201 20.5528 59.1201 19.2769C59.1201 18.0011 59.074 17.5944 58.6964 17.1968ZM64.8022 21.6806C63.9549 22.5774 62.5551 22.6236 61.6526 21.7731C61.6434 21.7638 61.6342 21.7546 61.625 21.7454C61.054 21.1722 61.054 20.5712 61.054 19.2769C61.054 17.9826 61.054 17.3817 61.625 16.8085C62.0394 16.3925 62.592 16.1706 63.1813 16.1706C64.3417 16.1706 65.1245 16.9287 65.3087 17.9919H64.664C64.4891 17.2153 63.9457 16.7438 63.1906 16.7438C62.7946 16.7438 62.417 16.901 62.1407 17.1783C61.7539 17.5759 61.7171 17.9826 61.7171 19.2585C61.7171 20.5343 61.7631 20.9503 62.1407 21.3478C62.417 21.6252 62.7946 21.7823 63.1906 21.7731C63.6326 21.7823 64.0562 21.5882 64.3417 21.2461C64.5904 20.9318 64.7101 20.5435 64.6825 20.146V19.6837H63.1813V19.1105H65.3271V20.0813C65.3179 20.8024 65.1706 21.2739 64.8022 21.6806ZM70.2449 22.3278L68.8635 19.619H67.3992V22.3278H66.7545V16.2353H69.0845C70.1436 16.2353 70.8895 16.8825 70.8895 17.9364C70.9263 18.7407 70.3554 19.4434 69.5634 19.5728L71.0092 22.3278H70.2449ZM69.02 16.8178H67.3992V19.0551H69.02C69.7383 19.0551 70.2264 18.6853 70.2264 17.9364C70.2264 17.1876 69.7291 16.8178 69.02 16.8178ZM76.2401 22.3278L75.752 20.9503H73.0997L72.6116 22.3278H71.9302L74.168 16.2353H74.7114L76.94 22.3278H76.2401ZM74.4443 17.1691L73.3023 20.3956H75.5678L74.4443 17.1691ZM82.6129 22.3278V17.6961L80.946 21.3756H80.3935L78.699 17.6961V22.3278H78.0543V16.2353H78.699L80.679 20.562L82.6129 16.2353H83.2576V22.3278H82.6129V22.3278Z" fill="black"/>
</svg>
