<svg width="25" height="34" viewBox="0 0 25 34" fill="none" xmlns="http://www.w3.org/2000/svg">
<g clip-path="url(#clip0_5838_134749)">
<path d="M25 4.4964C25 0.899281 21.5827 0 18.8849 0V0.539568C20.5036 0.539568 21.7626 1.07914 21.7626 2.33813C21.7503 2.6021 21.6833 2.86063 21.5657 3.09727C21.4481 3.33391 21.2825 3.54348 21.0795 3.71265C20.8765 3.88182 20.6405 4.00689 20.3865 4.07989C20.1326 4.15289 19.8662 4.17224 19.6043 4.13669C17.5714 3.91948 15.5758 3.43571 13.6691 2.69784C11.6456 1.93539 9.52789 1.45134 7.3741 1.25899C6.59282 1.22785 5.81317 1.35278 5.08075 1.62649C4.34832 1.9002 3.67781 2.31718 3.10843 2.85307C2.53905 3.38896 2.08223 4.03298 1.76468 4.7475C1.44712 5.46201 1.27521 6.23266 1.25899 7.01439C1.24745 7.87125 1.50027 8.71085 1.98301 9.41888C2.46576 10.1269 3.15498 10.669 3.95683 10.9712L4.13669 10.6115C3.79975 10.4512 3.51762 10.1951 3.32565 9.87511C3.13369 9.55517 3.04042 9.18568 3.05755 8.81295C3.13225 8.21809 3.43855 7.67669 3.90998 7.30629C4.3814 6.93589 4.97989 6.76637 5.57554 6.83453C7.8543 7.08482 10.0911 7.6289 12.2302 8.45324C14.4138 9.08106 16.637 9.56176 18.8849 9.89209V15.4676L16.187 17.8058V17.9856L18.8849 20.3237V28.0576C17.5185 28.8357 15.9592 29.2099 14.3885 29.1367C13.0793 29.2055 11.7711 28.9831 10.5581 28.4855C9.34522 27.9879 8.25776 27.2275 7.3741 26.259L14.7482 22.6619V10.0719L5.7554 14.0288C6.7619 11.8646 8.38976 10.0489 10.4317 8.81295L10.2518 8.45324C7.43224 9.13775 4.90997 10.7165 3.06209 12.9534C1.2142 15.1903 0.139973 17.9652 0 20.8633C0.00924566 24.1995 1.33865 27.3965 3.69772 29.7555C6.05679 32.1146 9.25371 33.444 12.5899 33.4532C14.1399 33.4758 15.6789 33.1901 17.1175 32.6129C18.5561 32.0356 19.8657 31.1782 20.9701 30.0905C22.0746 29.0028 22.9519 27.7064 23.551 26.2768C24.1502 24.8472 24.4593 23.3127 24.4604 21.7626H24.1007C23.154 24.0587 21.5207 26.0061 19.4245 27.3381V19.964L22.3022 17.6259V17.446L19.6043 15.1079V9.71223C20.3069 9.7473 21.0093 9.63776 21.6679 9.3904C22.3264 9.14305 22.9272 8.76313 23.433 8.27419C23.9388 7.78524 24.3389 7.19767 24.6084 6.54785C24.878 5.89804 25.0112 5.19981 25 4.4964ZM9.35252 24.2806L7.19424 25.3597C5.77223 23.375 5.07391 20.9626 5.21583 18.5252C5.2057 17.2463 5.38759 15.9731 5.7554 14.7482L9.53237 13.1295L9.35252 24.2806Z" fill="#3F6587"/>
</g>
<defs>
<clipPath id="clip0_5838_134749">
<rect width="25" height="33.4532" fill="white"/>
</clipPath>
</defs>
</svg>
