<svg width="22" height="11" viewBox="0 0 22 11" fill="none" xmlns="http://www.w3.org/2000/svg">
<path d="M5.02848 6.55866C6.23725 6.11628 7.09713 5.00026 7.09713 3.69659C7.09713 2.00623 5.65148 0.631348 3.87412 0.631348C2.09676 0.631348 0.646454 2.00623 0.646454 3.69659C0.646454 5.38695 2.09676 6.76183 3.87412 6.76183C3.9421 6.76183 4.0096 6.75982 4.07655 6.75586C4.05008 6.57125 4.05886 6.27103 4.08242 6.15161C4.01373 6.15678 3.94426 6.15941 3.87412 6.15941C2.44062 6.15941 1.28454 5.05991 1.28454 3.69658C1.28454 2.33326 2.44062 1.23376 3.87412 1.23376V1.23377C5.30762 1.23377 6.45905 2.33326 6.45905 3.69659C6.45905 4.63304 5.91579 5.44501 5.11102 5.86168C5.07183 6.02385 5.02252 6.37168 5.02848 6.55866V6.55866Z" fill="#3F6587"/>
<path d="M10.0184 6.78878C9.8507 7.99572 8.77232 8.9226 7.45615 8.9226C6.02265 8.9226 4.86657 7.8231 4.86657 6.45977C4.86657 5.52551 5.40948 4.71515 6.21253 4.29761C6.26878 4.08764 6.30292 3.86057 6.29408 3.6003C5.08777 4.04445 4.22849 5.15865 4.22849 6.45977C4.22849 8.15013 5.67879 9.52501 7.45615 9.52501C9.07614 9.52501 10.4206 8.38283 10.6459 6.90063C10.4807 6.89651 10.1339 6.82928 10.0184 6.78878V6.78878ZM10.6386 5.97303C10.3927 4.51321 9.05938 3.39453 7.45615 3.39453C7.38569 3.39453 7.31574 3.3967 7.24638 3.40094C7.28515 3.54317 7.28461 3.86999 7.24431 4.00501V4.00501C7.31417 3.99967 7.38482 3.99695 7.45615 3.99695C8.64335 3.99695 9.63708 4.75108 9.94352 5.78465C10.1528 5.86044 10.3776 5.92729 10.6386 5.97303H10.6386Z" fill="#3F6587"/>
<path d="M14.9431 4.16646C15.1425 5.38354 16.1079 6.41854 17.4478 6.6938C19.1851 7.05071 20.9034 5.99712 21.2787 4.34487C21.654 2.69262 20.5471 1.05411 18.8098 0.6972C17.0725 0.340291 15.3533 1.39821 14.978 3.05046C14.9636 3.11365 14.9514 3.17682 14.9414 3.2399C15.1367 3.25427 15.4434 3.32582 15.5612 3.37293C15.5703 3.30799 15.5823 3.24286 15.5971 3.17765C15.8998 1.84506 17.2739 1.00251 18.6751 1.29037C20.0763 1.57822 20.9622 2.88509 20.6595 4.21768L20.6595 4.21767C20.3569 5.55027 18.9837 6.38849 17.5825 6.10064C16.6201 5.90291 15.9003 5.22645 15.642 4.39035C15.4836 4.31968 15.1365 4.2004 14.9431 4.16646V4.16646Z" fill="#3F6587"/>
<path d="M8.43608 3.36612C8.6038 2.15917 9.68218 1.2323 10.9983 1.2323C12.4318 1.2323 13.5879 2.3318 13.5879 3.69512C13.5879 4.62939 13.045 5.43975 12.242 5.85729C12.1857 6.06726 12.1516 6.29432 12.1604 6.55459C13.3667 6.11045 14.226 4.99624 14.226 3.69512C14.226 2.00477 12.7757 0.629883 10.9983 0.629883C9.37836 0.629883 8.03394 1.77207 7.80856 3.25426C7.97376 3.25838 8.32056 3.32561 8.43608 3.36612V3.36612ZM7.81592 4.18186C8.06178 5.64168 9.39512 6.76036 10.9983 6.76036C11.0688 6.76036 11.1388 6.7582 11.2081 6.75395C11.1693 6.61172 11.1699 6.2849 11.2102 6.14989V6.14988C11.1403 6.15522 11.0697 6.15795 10.9983 6.15795C9.81115 6.15795 8.81742 5.40382 8.51098 4.37025C8.30166 4.29445 8.07695 4.2276 7.81592 4.18186H7.81592Z" fill="#3F6587"/>
<path d="M17.1473 6.78878C16.9796 7.99572 15.9012 8.9226 14.5851 8.9226C13.1516 8.9226 11.9955 7.8231 11.9955 6.45977C11.9955 5.52551 12.5384 4.71515 13.3414 4.29761C13.3977 4.08764 13.4318 3.86057 13.423 3.6003C12.2167 4.04444 11.3574 5.15865 11.3574 6.45977C11.3574 8.15013 12.8077 9.52501 14.5851 9.52501C16.205 9.52501 17.5495 8.38282 17.7748 6.90063C17.6096 6.89651 17.2628 6.82929 17.1473 6.78878V6.78878ZM17.7675 5.97303C17.5216 4.51321 16.1883 3.39453 14.5851 3.39453C14.5146 3.39453 14.4446 3.3967 14.3753 3.40094C14.4141 3.54317 14.4135 3.86999 14.3732 4.00501V4.00501C14.4431 3.99967 14.5137 3.99695 14.5851 3.99695C15.7723 3.99695 16.766 4.75108 17.0724 5.78465C17.2817 5.86044 17.5065 5.92729 17.7675 5.97303H17.7675Z" fill="#3F6587"/>
</svg>
