<svg width="22" height="22" viewBox="0 0 22 22" fill="none" xmlns="http://www.w3.org/2000/svg">
<path d="M0 13.3474C0.339914 12.6469 0.679828 11.9843 1.05751 11.3217C0.623176 10.2614 0.283262 9.18227 0 8.06526V13.3474ZM2.05837 0C2.05837 0 0 0 0 2.55589V3.91903C0.188841 6.24773 0.679828 8.51964 1.49185 10.6401C2.64378 8.82256 4.02232 7.15649 5.70301 5.71762C9.02661 2.85881 13.5021 0.889829 19.5828 0.0189325L2.05837 0Z" fill="#3F6587"/>
<path d="M21.8867 1.38173C14.9373 2.04436 10.1785 4.03228 6.7794 6.94789C4.94764 8.51929 3.51245 10.3557 2.32275 12.4383C4.98541 17.6258 10.0841 21.4502 18.5631 21.9992H19.394C19.394 21.9992 22 22.0939 22 19.1783V1.36279L21.8867 1.38173ZM4.00343 16.168C3.2103 15.2403 2.51159 14.218 1.92618 13.1388C1.1897 14.5588 0.54764 16.0734 0 17.6826V21.9803L13.8987 21.9992C9.57425 20.958 6.32618 18.8943 4.00343 16.168Z" fill="#3F6587"/>
</svg>
