<svg width="25" height="25" viewBox="0 0 25 25" fill="none" xmlns="http://www.w3.org/2000/svg">
<path d="M2.76822 24.9688C2.40134 24.875 2.21046 24.7243 1.23185 23.7524C0.0709677 22.593 -0.001783 22.4781 0.00212832 21.8765C0.00212832 21.2047 -0.206737 21.4453 3.51372 17.7226C7.26546 13.9662 7.07459 14.1287 7.75046 14.1287C8.06885 14.1287 8.14551 14.1451 8.39818 14.2756L8.6884 14.4225L10.5056 12.6076L10.2772 12.249C9.83677 11.5576 9.41747 10.5521 9.22973 9.71771C8.70013 7.36141 9.27041 4.89573 10.7747 3.0082C13.3695 -0.238745 18.031 -0.96376 21.473 1.35582C23.3637 2.62538 24.595 4.58167 24.9454 6.88952C25.0182 7.37782 25.0182 8.53331 24.9454 9.05129C24.7131 10.7919 23.9027 12.4076 22.6464 13.6365C22.0644 14.2389 21.376 14.7358 20.6179 15.0967C19.6198 15.5975 18.7687 15.8335 17.6148 15.9311C15.9729 16.0694 14.1517 15.6131 12.7585 14.7225L12.3995 14.4944L10.5784 16.3092L10.7254 16.603C10.8561 16.8554 10.8717 16.9319 10.8717 17.246C10.8756 17.921 11.0352 17.7304 7.2991 21.4617C4.41801 24.3336 3.97369 24.7579 3.75387 24.8586C3.47304 24.9891 3.03732 25.0375 2.76822 24.9688V24.9688ZM18.2172 14.5311C20.3074 14.1444 22.0917 12.785 23.0211 10.8771C24.4706 7.85439 23.4936 4.30588 20.6938 2.43006C20.0305 1.98239 19.1011 1.60426 18.225 1.42926C17.6219 1.30738 16.339 1.31988 15.7069 1.45426C14.7901 1.64489 13.9178 2.02302 13.1528 2.56444C12.6889 2.88944 11.9223 3.65508 11.6008 4.11056C9.80782 6.61764 9.97053 10.0271 11.9958 12.3474C13.0417 13.5514 14.4889 14.3412 16.0659 14.5725C16.5955 14.6537 17.6751 14.6342 18.2211 14.5358L18.2172 14.5311ZM14.3184 22.2133C13.5525 22.0015 12.7906 21.7734 12.0287 21.5383C12.0036 21.5094 13.2873 16.9561 13.3405 16.9038C13.3648 16.8749 17.765 18.1038 17.9442 18.189C18.0091 18.2171 17.9403 18.4898 17.3934 20.3773C17.1736 21.1554 16.953 21.9328 16.7332 22.7094C16.7051 22.7992 16.6605 22.8719 16.6323 22.8719C16.6041 22.868 15.5614 22.5711 14.3176 22.2125L14.3184 22.2133ZM17.3575 22.7633C17.3575 22.7063 18.6373 18.2468 18.6568 18.2343C18.7061 18.1976 23.1666 16.9522 23.1838 16.9725C23.2049 16.9921 21.9329 21.489 21.9009 21.5133C21.8797 21.5344 17.5984 22.7547 17.4599 22.7828C17.4028 22.7953 17.3575 22.7828 17.3575 22.7633V22.7633ZM9.94707 20.7695C10.8263 19.882 11.6125 19.0757 11.6907 18.9702C11.8691 18.7421 12.1139 18.2085 12.1828 17.9116C12.2117 17.7897 12.2399 17.546 12.2446 17.371L12.2571 17.0491L12.4441 16.996C12.5544 16.9679 12.6482 16.9514 12.656 16.9593C12.6811 16.9882 11.3974 21.4601 11.3567 21.5008C11.3372 21.5164 10.6519 21.7234 9.82894 21.9562L8.34655 22.3789L9.94785 20.7718L9.94707 20.7695ZM18.5927 17.5827C18.5676 17.5171 18.5481 17.4522 18.5309 17.3866L18.4816 17.2241L18.6451 17.196C20.0414 16.9593 21.5418 16.3046 22.723 15.4139C22.8896 15.2834 22.9835 15.235 22.9992 15.2709C23.0524 15.442 23.2808 16.2592 23.2769 16.2717C23.2401 16.3038 18.6028 17.6061 18.5919 17.5866L18.5927 17.5827ZM2.86209 16.228C2.8089 16.1874 1.63159 12.2037 1.54163 11.7599C1.5252 11.6701 1.6926 11.7154 3.81098 12.317C6.01931 12.9482 6.09597 12.9725 6.1257 13.0896C6.15777 13.192 6.13743 13.224 5.99506 13.3217C5.9098 13.3834 5.19168 14.0748 4.4055 14.86C3.93301 15.3436 3.44801 15.8163 2.95909 16.2842C2.94345 16.2842 2.89886 16.2592 2.86209 16.2272V16.228ZM3.71711 11.6662C2.47878 11.3123 1.46027 11.0193 1.45558 11.0154C1.43915 11.0029 2.77213 6.39733 2.7956 6.36842C2.82063 6.34889 7.40783 7.63016 7.45712 7.6747C7.46572 7.68329 7.1755 8.73331 6.81331 10.006C6.21018 12.1099 6.14056 12.3217 6.05921 12.3178C6.00601 12.3178 4.95543 12.0209 3.71241 11.667L3.71711 11.6662ZM6.80158 12.2279C6.81409 12.1959 7.02609 11.4756 7.26546 10.6287L7.70118 9.09426L7.76298 9.42864C7.86076 10.006 8.04069 10.6654 8.24799 11.2388C8.3575 11.5482 8.43886 11.8006 8.43495 11.8084C8.42791 11.817 8.0884 11.9146 7.68632 12.0279C7.27876 12.1412 6.91266 12.2474 6.86729 12.2631C6.80549 12.2795 6.78515 12.267 6.80158 12.2264V12.2279ZM5.0978 6.36842C3.85948 6.01451 2.83627 5.70591 2.82532 5.68481C2.78073 5.61997 1.52442 1.18472 1.54163 1.16832C1.56666 1.14019 6.03574 2.42147 6.08111 2.466C6.13039 2.51912 7.41331 7.02781 7.38045 7.02312L5.1025 6.36764L5.0978 6.36842ZM7.33978 4.58167L6.79767 2.70272L6.71631 2.40897L8.48032 1.90505C9.45424 1.63239 10.2772 1.39254 10.3179 1.37613C10.3499 1.36051 10.2279 1.52301 10.0448 1.72614C9.08032 2.78866 8.37941 4.06603 8.00392 5.44887C7.94368 5.64028 7.89831 5.83638 7.86624 6.03091C7.86624 6.34029 7.74342 6.00669 7.34056 4.58635L7.33978 4.58167Z" fill="#3F6587"/>
</svg>
