<svg width="58" height="41" viewBox="0 0 58 41" fill="none" xmlns="http://www.w3.org/2000/svg">
<g clip-path="url(#clip0_5856_135855)">
<path d="M34.7516 1.0595C31.9723 0.981305 29.2028 2.18297 27.352 4.50272C25.6354 6.65424 24.9921 9.48551 25.5973 12.1672C25.8117 13.1171 26.283 14.275 26.7892 15.0642L27.0541 15.4614L26.0112 16.5044L25.0179 17.4976L27.1699 19.6662L28.1797 18.6564L29.2061 17.63L29.6199 17.8783C31.2117 18.8994 33.2901 19.425 35.1655 19.2689C36.4817 19.1592 37.4504 18.8836 38.5922 18.3087C39.5512 17.8259 40.1562 17.405 40.9097 16.6533C42.3723 15.1943 43.2328 13.451 43.5253 11.4057C43.6092 10.8178 43.6097 9.49642 43.5253 8.93919C43.1256 6.30326 41.7278 4.05013 39.5689 2.59901C38.0934 1.60735 36.4193 1.10641 34.7516 1.0595Z" fill="black"/>
<path d="M23.6439 17.1995C23.1083 17.2211 22.8075 17.5458 19.0585 21.3049C14.816 25.5588 15.0546 25.2858 15.0524 26.0559C15.0503 26.7452 15.1316 26.883 16.4595 28.2079C17.5756 29.3216 17.7961 29.4932 18.2142 29.5985C18.5176 29.6749 19.0175 29.613 19.3399 29.466C19.5916 29.3513 20.0929 28.8745 23.3791 25.5924C27.6463 21.3305 27.47 21.5495 27.4679 20.7752C27.467 20.4169 27.4479 20.3192 27.3024 20.0303L27.1534 19.7323L27.1368 19.6992L24.9683 17.5472L24.6372 17.3651C24.3482 17.2195 24.2671 17.2006 23.9088 17.1995C23.8119 17.1993 23.7205 17.1965 23.6439 17.1995Z" fill="#75570F"/>
<path d="M35.8555 17.668C38.2269 17.2339 40.2979 15.655 41.3359 13.4897C42.9909 10.0375 41.8778 5.98027 38.6873 3.83541C37.9262 3.32374 36.8634 2.89242 35.8659 2.69041C35.1749 2.55045 33.7127 2.56477 32.992 2.71853C31.9161 2.94807 30.9283 3.37611 30.0724 3.98371C29.5434 4.35921 28.6712 5.23107 28.3017 5.75363C26.2545 8.6493 26.4397 12.4979 28.7549 15.1694C29.9416 16.5388 31.5829 17.4377 33.3991 17.7129C34.0023 17.8043 35.2337 17.7818 35.8555 17.668V17.668Z" fill="#C0C0C0"/>
<path d="M33.7554 16.6368C32.9372 16.5073 32.2436 16.2995 31.6813 16.0156L31.3632 15.855V14.3797V12.9043H30.8024C30.3148 12.9043 29.6468 13.0001 29.1644 13.1391C29.1004 13.1576 29.0739 13.2317 29.0626 13.424L29.0473 13.6839L28.8039 13.2213C28.2703 12.207 28.0802 11.4085 28.0802 10.1812C28.0802 9.23236 28.1476 8.79549 28.4115 8.03389C28.5516 7.62962 28.8968 6.91363 29.0478 6.71421C29.1134 6.62753 29.1205 6.64655 29.122 6.91166L29.1236 7.20502L30.7905 7.19162L32.4575 7.17822L32.4722 6.7583L32.487 6.33839H31.9251H31.3631V5.42323V4.50809L31.5622 4.40651C31.8905 4.23902 32.5002 4.00838 32.8457 3.92102C33.0241 3.87589 33.2072 3.82812 33.2525 3.81486C33.3239 3.79399 33.3293 3.82021 33.2929 4.00841C33.2227 4.3716 33.2412 5.36833 33.3247 5.72286C33.4902 6.42473 33.9016 6.94421 34.4605 7.15701C34.7941 7.28408 35.4234 7.30814 35.7913 7.20792C36.1421 7.11236 36.5313 6.83067 36.7294 6.52895C37.0223 6.08271 37.1255 5.69299 37.1539 4.9268L37.1788 4.25325L37.5903 4.46731C38.0642 4.71388 38.6404 5.13 39.0616 5.52986C39.3449 5.79885 39.3543 5.81619 39.3543 6.07306V6.33839H38.7944H38.2345V6.77103V7.20367H39.2678H40.3011L40.4124 7.43272L40.5236 7.66177L39.9517 7.66071C39.5577 7.65965 39.2015 7.69514 38.8071 7.77409L38.2345 7.88868V8.30974C38.2345 8.54132 38.2434 8.73079 38.2544 8.73079C38.2653 8.73079 38.4968 8.68497 38.769 8.62899C39.0411 8.573 39.2841 8.5272 39.309 8.5272C39.3344 8.5272 39.3543 9.19532 39.3543 10.0524V11.5777L38.8071 11.5922L38.26 11.6066L38.2452 12.0256L38.2304 12.4446L39.4257 12.4583L40.6209 12.4719L40.5328 12.6716L40.4447 12.8712L39.8104 12.875C39.2241 12.8787 39.1543 12.8896 38.888 13.0204C38.1927 13.3618 37.8189 14.1363 37.8074 15.2587L37.8019 15.8062L37.4616 15.9851C37.1645 16.1413 36.1255 16.5182 35.992 16.5182C35.9629 16.5182 35.944 15.8087 35.944 14.7113V12.9043H35.3898C35.0331 12.9043 34.6565 12.941 34.3336 13.0072C33.5873 13.1601 33.6536 13.1053 33.6536 13.5695C33.6536 13.8669 33.671 13.9732 33.7198 13.9732C33.7562 13.9732 33.991 13.9279 34.2415 13.8725C34.492 13.8171 34.7142 13.7713 34.7352 13.7707C34.7562 13.7702 34.7734 14.4224 34.7734 15.2202V16.6709L34.328 16.6639C34.0831 16.6602 33.8254 16.6479 33.7554 16.6369L33.7554 16.6368Z" fill="#C6E0AD"/>
<path d="M31.4258 12.4067C31.9493 12.1751 32.3463 11.6447 32.5074 10.9613C32.6041 10.5511 32.6054 9.62546 32.51 9.175C32.3597 8.46582 31.9409 7.92639 31.3707 7.70754C30.9655 7.55204 30.2823 7.55304 29.8738 7.70966C29.3033 7.92853 28.9015 8.46506 28.741 9.22254C28.6468 9.66728 28.6465 10.49 28.7405 10.933C28.8969 11.671 29.364 12.2525 29.9562 12.4464C30.3703 12.582 31.0725 12.563 31.426 12.4067L31.4258 12.4067Z" fill="#C0C0C0"/>
<path d="M30.2481 11.5517C30.0396 11.3762 29.9414 11.0279 29.9049 10.3339C29.8723 9.71353 29.9429 9.07202 30.0742 8.79536C30.1943 8.54228 30.4183 8.41413 30.6919 8.44199C31.1298 8.48659 31.2981 8.82848 31.3476 9.77404C31.3991 10.7598 31.2365 11.4832 30.9322 11.6218C30.7029 11.7263 30.4214 11.6975 30.2481 11.5517V11.5517Z" fill="#C6E0AD"/>
<path d="M35.8575 12.4457C36.7436 12.172 37.2053 11.2554 37.1518 9.8758C37.1063 8.70159 36.6873 7.97743 35.881 7.67913C35.5464 7.55533 34.8191 7.56983 34.4605 7.70747C33.8932 7.92523 33.4893 8.44201 33.3187 9.16846C33.1998 9.67489 33.2417 10.8235 33.3947 11.25C33.6333 11.9156 34.0821 12.3569 34.6581 12.4926C35.001 12.5734 35.5082 12.5536 35.8575 12.4457V12.4457Z" fill="#C0C0C0"/>
<path d="M34.8692 11.6063C34.5745 11.4461 34.4398 10.8255 34.4833 9.82829C34.5164 9.06911 34.57 8.8399 34.7655 8.62111C35.0445 8.3088 35.5682 8.39746 35.7537 8.78842C35.9572 9.21721 35.9919 10.5685 35.8147 11.1651C35.7143 11.5031 35.5045 11.6835 35.2149 11.6807C35.0981 11.6797 34.9425 11.6461 34.8692 11.6063V11.6063Z" fill="#C6E0AD"/>
<path d="M29.8338 14.6523C29.4043 14.2034 29.2457 13.9801 29.3363 13.9516C29.5066 13.8981 30.1598 13.7708 30.1768 13.7878C30.1873 13.7983 30.1893 14.0754 30.1816 14.4037L30.1672 15.0005L29.8339 14.6523H29.8338Z" fill="#C6E0AD"/>
<path d="M39.0776 14.584C39.1184 14.2301 39.2592 13.9025 39.4132 13.8028C39.5817 13.6938 39.7907 13.6507 39.8877 13.7049C39.9591 13.7449 39.9393 13.7927 39.7444 14.0531C39.62 14.2191 39.4119 14.4695 39.2818 14.6095L39.0453 14.864L39.0776 14.584H39.0776Z" fill="#C6E0AD"/>
<path d="M40.5299 9.63402L40.5347 7.68713L40.6867 8.14523C40.9873 9.05096 41.0934 10.0234 40.9872 10.8987C40.9037 11.5858 40.9058 11.5809 40.6996 11.5809H40.5248L40.5296 9.63402H40.5299Z" fill="#C6E0AD"/>
<path d="M34.9459 6.39032C34.7938 6.32888 34.6314 6.10618 34.5599 5.86094C34.4903 5.62254 34.4714 4.17748 34.5339 3.88252C34.5716 3.70491 34.5871 3.69165 34.7572 3.69165C35.1225 3.69165 35.8382 3.81119 35.8632 3.87637C35.8769 3.91218 35.9034 4.16586 35.922 4.44009C35.9608 5.01287 35.8791 5.81278 35.755 6.07418C35.6126 6.37446 35.2536 6.51468 34.9458 6.39032H34.9459Z" fill="#C6E0AD"/>
<path d="M29.3716 6.24929C29.398 6.20029 29.5924 5.97697 29.8037 5.75302L30.1877 5.34583L30.1898 5.84209L30.192 6.33836H29.7575C29.3594 6.33836 29.3271 6.33089 29.3711 6.24929H29.3716Z" fill="#C6E0AD"/>
<path d="M31.4042 26.451C29.9851 26.0409 28.8103 25.6912 28.7936 25.6737C28.7624 25.641 30.229 20.4395 30.2872 20.3769C30.3162 20.3457 35.3378 21.7519 35.5435 21.8489C35.6163 21.8832 35.5393 22.1933 34.9193 24.3566C34.5304 25.7143 34.1886 26.9111 34.16 27.0161C34.1312 27.1211 34.0801 27.2046 34.0461 27.2017C34.0122 27.1991 32.8234 26.861 31.4042 26.451V26.451Z" fill="#C6E0AD"/>
<path d="M34.8752 27.0725C34.8752 27.009 36.3344 21.9124 36.3575 21.895C36.4104 21.8554 41.5048 20.4331 41.5242 20.4526C41.5473 20.4756 40.1002 25.6164 40.0622 25.6466C40.0362 25.6671 35.1459 27.0626 34.9897 27.094C34.9268 27.1067 34.8752 27.0972 34.8752 27.0725V27.0725Z" fill="#A5D383"/>
<path d="M26.4106 24.7969C27.4174 23.7849 28.3145 22.8608 28.4044 22.7435C28.6068 22.4789 28.8883 21.8703 28.9648 21.5317C28.9964 21.3917 29.0279 21.1127 29.0348 20.9117L29.0473 20.5462L29.2651 20.4848C29.3849 20.451 29.492 20.4325 29.5033 20.4437C29.5312 20.4716 28.0662 25.5878 28.0174 25.6328C27.996 25.6525 27.2138 25.8866 26.2793 26.1528L24.5802 26.6369L26.4107 24.7969L26.4106 24.7969Z" fill="#A5D383"/>
<path d="M36.2793 21.1564C36.2689 21.1391 36.2371 21.0396 36.2085 20.9355L36.1567 20.7461L36.343 20.7145C37.9399 20.4444 39.6501 19.6946 40.9972 18.6742C41.1896 18.5284 41.2987 18.4737 41.3128 18.5157C41.3781 18.7097 41.6381 19.6469 41.6292 19.6559C41.5887 19.6964 36.2942 21.1814 36.2793 21.1564L36.2793 21.1564Z" fill="#C6E0AD"/>
<path d="M18.3249 19.6106C18.2633 19.5606 16.9197 15.0037 16.8183 14.5009C16.798 14.4002 16.9931 14.4483 19.4064 15.1381C21.9314 15.8599 22.0176 15.8886 22.0527 16.0199C22.084 16.137 22.0636 16.1734 21.9034 16.2849C21.8013 16.3561 20.985 17.1477 20.0893 18.0442C19.1937 18.9407 18.4479 19.6742 18.4321 19.6742C18.4163 19.6742 18.3681 19.6456 18.3249 19.6106V19.6106Z" fill="#A5D383"/>
<path d="M19.3001 14.3947C17.8864 13.9883 16.7256 13.6525 16.7205 13.6485C16.7028 13.6344 18.2188 8.37 18.2494 8.33947C18.276 8.31288 23.5159 9.78098 23.5703 9.83024C23.5814 9.84025 23.2502 11.04 22.8345 12.4963C22.1481 14.9007 22.069 15.1437 21.9746 15.1389C21.9173 15.1362 20.7138 14.8011 19.3001 14.3947V14.3947Z" fill="#C6E0AD"/>
<path d="M22.8231 15.0355C22.8376 14.9973 23.0753 14.1758 23.3514 13.21L23.8533 11.454L23.9188 11.8357C24.0321 12.4971 24.2332 13.2511 24.4715 13.9085C24.5982 14.258 24.6946 14.5502 24.6859 14.5579C24.6771 14.5656 24.292 14.6788 23.8301 14.8095C23.3682 14.9402 22.9467 15.0602 22.8935 15.0761C22.8256 15.0964 22.8046 15.0843 22.8231 15.0355V15.0355Z" fill="#A5D383"/>
<path d="M20.878 8.33718C19.4642 7.9305 18.2953 7.57878 18.2804 7.55557C18.2318 7.48016 16.7965 2.41192 16.8177 2.39071C16.8475 2.36088 21.9478 3.82455 21.9965 3.87689C22.0511 3.9356 23.5192 9.08859 23.4794 9.08185C23.4623 9.0792 22.2917 8.74385 20.878 8.33718V8.33718Z" fill="#A5D383"/>
<path d="M23.4326 6.29771C23.1476 5.29846 22.8712 4.33013 22.8184 4.14587L22.7224 3.81086L24.7396 3.23574C25.8491 2.91942 26.7912 2.64777 26.8332 2.63206C26.8752 2.61633 26.7362 2.79686 26.5243 3.03319C25.3978 4.28998 24.6592 5.63671 24.192 7.28591C24.105 7.59333 24.0337 7.894 24.0337 7.95406C24.0337 8.30243 23.8965 7.9244 23.4326 6.29771V6.29771Z" fill="#C6E0AD"/>
<path d="M34.5365 2.56592C30.3276 2.56592 26.9216 5.97184 26.9216 10.1807C26.9216 14.3896 30.3276 17.7956 34.5365 17.7956C38.7454 17.7956 42.1678 14.3896 42.1678 10.1807V10.1145C42.1285 5.93376 38.7174 2.56592 34.5365 2.56592ZM34.5365 3.69159C38.0937 3.69159 40.9922 6.55746 41.0256 10.1145V10.1807C41.0256 13.7617 38.1175 16.6699 34.5365 16.6699C30.9555 16.6699 28.0639 13.7617 28.0639 10.1807C28.0639 6.59974 30.9555 3.69159 34.5365 3.69159Z" fill="white"/>
</g>
<path d="M3.86363 38.2888C3.09364 38.2888 2.50518 38.0812 2.09825 37.666C1.55243 37.1566 1.27953 36.4227 1.27953 35.4643C1.27953 34.4866 1.55243 33.7527 2.09825 33.2626C2.50518 32.8474 3.09364 32.6398 3.86363 32.6398C4.63362 32.6398 5.22208 32.8474 5.629 33.2626C6.17238 33.7527 6.44407 34.4866 6.44407 35.4643C6.44407 36.4227 6.17238 37.1566 5.629 37.666C5.22208 38.0812 4.63362 38.2888 3.86363 38.2888ZM4.92724 36.8548C5.18796 36.5289 5.31833 36.0654 5.31833 35.4643C5.31833 34.8656 5.18675 34.4033 4.92358 34.0774C4.66286 33.7491 4.30954 33.5849 3.86363 33.5849C3.41771 33.5849 3.06196 33.7479 2.79636 34.0738C2.53076 34.3997 2.39796 34.8632 2.39796 35.4643C2.39796 36.0654 2.53076 36.5289 2.79636 36.8548C3.06196 37.1807 3.41771 37.3437 3.86363 37.3437C4.30954 37.3437 4.66408 37.1807 4.92724 36.8548Z" fill="black"/>
<path d="M10.7093 34.6169C11.031 34.9573 11.1918 35.457 11.1918 36.1161C11.1918 36.8114 11.0334 37.3413 10.7166 37.7058C10.4023 38.0703 9.99661 38.2526 9.49953 38.2526C9.18276 38.2526 8.9196 38.1741 8.71004 38.0172C8.59552 37.9303 8.48343 37.8036 8.37378 37.637V39.6938H7.34306V34.1933H8.34089V34.7763C8.45297 34.6049 8.57237 34.4697 8.69908 34.3707C8.93056 34.1945 9.20591 34.1063 9.52511 34.1063C9.99052 34.1063 10.3853 34.2765 10.7093 34.6169ZM10.1172 36.1668C10.1172 35.8626 10.0466 35.5934 9.90523 35.3593C9.76634 35.1251 9.53973 35.008 9.2254 35.008C8.84772 35.008 8.58821 35.1855 8.44688 35.5403C8.37378 35.7286 8.33723 35.9676 8.33723 36.2573C8.33723 36.716 8.46028 37.0383 8.70639 37.2242C8.85259 37.3328 9.02559 37.3871 9.2254 37.3871C9.51537 37.3871 9.73589 37.2761 9.88696 37.054C10.0405 36.8319 10.1172 36.5362 10.1172 36.1668Z" fill="black"/>
<path d="M15.5082 36.9816C15.4814 37.2157 15.3584 37.4535 15.1391 37.6949C14.7979 38.0788 14.3204 38.2707 13.7063 38.2707C13.1995 38.2707 12.7524 38.109 12.3649 37.7855C11.9775 37.462 11.7838 36.9357 11.7838 36.2066C11.7838 35.5234 11.958 34.9996 12.3064 34.635C12.6573 34.2705 13.1118 34.0882 13.6698 34.0882C14.0012 34.0882 14.2996 34.1498 14.5652 34.2729C14.8308 34.396 15.0501 34.5904 15.2231 34.8559C15.3791 35.0901 15.4802 35.3617 15.5265 35.6707C15.5533 35.8518 15.5643 36.1125 15.5594 36.4529H12.8328C12.8474 36.8488 12.9729 37.1264 13.2092 37.2857C13.353 37.3847 13.526 37.4342 13.7282 37.4342C13.9427 37.4342 14.1169 37.3739 14.2509 37.2532C14.324 37.188 14.3886 37.0974 14.4446 36.9816H15.5082ZM14.4775 35.7721C14.4605 35.4993 14.3764 35.2929 14.2253 35.1529C14.0767 35.0104 13.8915 34.9392 13.6698 34.9392C13.4285 34.9392 13.2409 35.0141 13.1069 35.1637C12.9753 35.3134 12.8925 35.5162 12.8583 35.7721H14.4775Z" fill="black"/>
<path d="M18.2896 34.9573C17.9362 34.9573 17.6938 35.1058 17.5622 35.4027C17.494 35.5596 17.4599 35.76 17.4599 36.0038V38.1403H16.4219V34.2005H17.427V34.7763C17.561 34.5735 17.6877 34.4274 17.8071 34.3381C18.0215 34.1788 18.2932 34.0991 18.6222 34.0991C19.034 34.0991 19.3702 34.2065 19.631 34.4214C19.8941 34.6338 20.0257 34.9875 20.0257 35.4824V38.1403H18.9584V35.7395C18.9584 35.5319 18.9304 35.3726 18.8744 35.2615C18.772 35.0587 18.5771 34.9573 18.2896 34.9573Z" fill="black"/>
<path d="M23.1798 37.369C23.4454 37.369 23.6611 37.3401 23.8268 37.2821C24.1411 37.1711 24.2983 36.9647 24.2983 36.6629C24.2983 36.4867 24.2203 36.3503 24.0644 36.2537C23.9084 36.1596 23.6635 36.0763 23.3297 36.0038L22.7595 35.8771C22.1991 35.7516 21.8116 35.6152 21.5972 35.4679C21.2342 35.2217 21.0526 34.8366 21.0526 34.3128C21.0526 33.8348 21.2281 33.4376 21.5789 33.1214C21.9298 32.8051 22.4452 32.647 23.125 32.647C23.6928 32.647 24.1764 32.7967 24.5761 33.096C24.9781 33.393 25.1889 33.8251 25.2084 34.3924H24.1265C24.107 34.0713 23.9657 33.8432 23.7025 33.708C23.5271 33.6187 23.309 33.574 23.0483 33.574C22.7583 33.574 22.5268 33.632 22.3538 33.7479C22.1808 33.8637 22.0943 34.0255 22.0943 34.2331C22.0943 34.4238 22.1796 34.5662 22.3502 34.6604C22.4598 34.7232 22.6937 34.7968 23.0519 34.8813L23.9803 35.1022C24.3872 35.1987 24.6942 35.3279 24.9014 35.4896C25.223 35.7407 25.3838 36.104 25.3838 36.5796C25.3838 37.0673 25.195 37.4728 24.8173 37.7963C24.442 38.1174 23.9108 38.2779 23.2237 38.2779C22.5219 38.2779 21.97 38.1198 21.568 37.8036C21.1659 37.4849 20.9649 37.048 20.9649 36.4927H22.0395C22.0736 36.7365 22.1406 36.9188 22.2405 37.0395C22.4233 37.2592 22.7364 37.369 23.1798 37.369Z" fill="black"/>
<path d="M28.1067 37.4052V38.1766L27.6132 38.1947C27.121 38.2116 26.7848 38.1271 26.6045 37.9412C26.4875 37.8229 26.429 37.6406 26.429 37.3944V34.9646H25.8734V34.2295H26.429V33.1286H27.4597V34.2295H28.1067V34.9646H27.4597V37.0504C27.4597 37.2121 27.4804 37.3135 27.5219 37.3545C27.5633 37.3932 27.69 37.4125 27.902 37.4125C27.9337 37.4125 27.9666 37.4125 28.0007 37.4125C28.0372 37.4101 28.0726 37.4077 28.1067 37.4052Z" fill="black"/>
<path d="M30.9282 35.1456C30.5091 35.1456 30.2277 35.2808 30.0839 35.5512C30.0035 35.7033 29.9633 35.9375 29.9633 36.2537V38.1403H28.9143V34.1933H29.9084V34.8813C30.0693 34.6181 30.2094 34.4383 30.3288 34.3417C30.5237 34.18 30.7771 34.0991 31.089 34.0991C31.1085 34.0991 31.1244 34.1003 31.1365 34.1027C31.1512 34.1027 31.1816 34.1039 31.2279 34.1063V35.1637C31.1621 35.1565 31.1036 35.1517 31.0525 35.1492C31.0013 35.1468 30.9599 35.1456 30.9282 35.1456Z" fill="black"/>
<path d="M35.4018 36.9816C35.375 37.2157 35.2519 37.4535 35.0326 37.6949C34.6915 38.0788 34.2139 38.2707 33.5999 38.2707C33.093 38.2707 32.6459 38.109 32.2585 37.7855C31.871 37.462 31.6773 36.9357 31.6773 36.2066C31.6773 35.5234 31.8516 34.9996 32.2 34.635C32.5509 34.2705 33.0053 34.0882 33.5633 34.0882C33.8947 34.0882 34.1932 34.1498 34.4588 34.2729C34.7244 34.396 34.9437 34.5904 35.1167 34.8559C35.2727 35.0901 35.3738 35.3617 35.4201 35.6707C35.4469 35.8518 35.4578 36.1125 35.453 36.4529H32.7263C32.7409 36.8488 32.8664 37.1264 33.1028 37.2857C33.2466 37.3847 33.4196 37.4342 33.6218 37.4342C33.8362 37.4342 34.0105 37.3739 34.1445 37.2532C34.2176 37.188 34.2821 37.0974 34.3382 36.9816H35.4018ZM34.3711 35.7721C34.354 35.4993 34.27 35.2929 34.1189 35.1529C33.9703 35.0104 33.7851 34.9392 33.5633 34.9392C33.3221 34.9392 33.1345 35.0141 33.0005 35.1637C32.8689 35.3134 32.786 35.5162 32.7519 35.7721H34.3711Z" fill="black"/>
<path d="M39.7182 36.9816C39.6914 37.2157 39.5684 37.4535 39.3491 37.6949C39.0079 38.0788 38.5304 38.2707 37.9163 38.2707C37.4095 38.2707 36.9624 38.109 36.5749 37.7855C36.1875 37.462 35.9938 36.9357 35.9938 36.2066C35.9938 35.5234 36.168 34.9996 36.5164 34.635C36.8673 34.2705 37.3218 34.0882 37.8798 34.0882C38.2112 34.0882 38.5096 34.1498 38.7752 34.2729C39.0408 34.396 39.2601 34.5904 39.4331 34.8559C39.5891 35.0901 39.6902 35.3617 39.7365 35.6707C39.7633 35.8518 39.7743 36.1125 39.7694 36.4529H37.0428C37.0574 36.8488 37.1829 37.1264 37.4192 37.2857C37.563 37.3847 37.736 37.4342 37.9382 37.4342C38.1527 37.4342 38.3269 37.3739 38.4609 37.2532C38.534 37.188 38.5986 37.0974 38.6546 36.9816H39.7182ZM38.6875 35.7721C38.6705 35.4993 38.5864 35.2929 38.4353 35.1529C38.2867 35.0104 38.1015 34.9392 37.8798 34.9392C37.6385 34.9392 37.4509 35.0141 37.3169 35.1637C37.1853 35.3134 37.1025 35.5162 37.0683 35.7721H38.6875Z" fill="black"/>
<path d="M42.4484 37.4052V38.1766L41.955 38.1947C41.4628 38.2116 41.1265 38.1271 40.9462 37.9412C40.8292 37.8229 40.7707 37.6406 40.7707 37.3944V34.9646H40.2152V34.2295H40.7707V33.1286H41.8015V34.2295H42.4484V34.9646H41.8015V37.0504C41.8015 37.2121 41.8222 37.3135 41.8636 37.3545C41.905 37.3932 42.0317 37.4125 42.2437 37.4125C42.2754 37.4125 42.3083 37.4125 42.3424 37.4125C42.3789 37.4101 42.4143 37.4077 42.4484 37.4052Z" fill="black"/>
<path d="M44.3818 38.1403H43.3328V32.8027H44.9702L45.9498 36.9997L46.922 32.8027H48.5412V38.1403H47.4922V34.53C47.4922 34.4262 47.4934 34.2814 47.4958 34.0955C47.4983 33.9072 47.4995 33.7623 47.4995 33.6609L46.4797 38.1403H45.3869L44.3744 33.6609C44.3744 33.7623 44.3757 33.9072 44.3781 34.0955C44.3805 34.2814 44.3818 34.4262 44.3818 34.53V38.1403Z" fill="black"/>
<path d="M49.802 34.6206C50.0774 34.2729 50.5501 34.0991 51.2202 34.0991C51.6563 34.0991 52.0438 34.1848 52.3825 34.3562C52.7212 34.5276 52.8905 34.8511 52.8905 35.3267V37.1373C52.8905 37.2628 52.8929 37.4149 52.8978 37.5935C52.9051 37.7287 52.9258 37.8205 52.96 37.8688C52.9941 37.917 53.0452 37.9569 53.1135 37.9883V38.1403H51.9804C51.9487 38.0607 51.9268 37.9858 51.9146 37.9158C51.9024 37.8458 51.8927 37.7662 51.8854 37.6768C51.7416 37.8313 51.5759 37.9629 51.3883 38.0715C51.1641 38.1995 50.9107 38.2635 50.628 38.2635C50.2674 38.2635 49.9689 38.1621 49.7326 37.9593C49.4986 37.7541 49.3817 37.4644 49.3817 37.0902C49.3817 36.605 49.5705 36.2537 49.9482 36.0364C50.1553 35.9181 50.4599 35.8337 50.862 35.783L51.2165 35.7395C51.409 35.7154 51.5467 35.6852 51.6295 35.649C51.7782 35.5862 51.8525 35.4884 51.8525 35.3557C51.8525 35.1939 51.7952 35.0829 51.6807 35.0225C51.5686 34.9597 51.4029 34.9284 51.1836 34.9284C50.9375 34.9284 50.7633 34.9887 50.6609 35.1094C50.5878 35.1987 50.5391 35.3194 50.5147 35.4715H49.5096C49.5315 35.1263 49.629 34.8427 49.802 34.6206ZM50.5769 37.3944C50.6743 37.474 50.7937 37.5139 50.9351 37.5139C51.1592 37.5139 51.3651 37.4487 51.5528 37.3183C51.7428 37.188 51.8415 36.9502 51.8488 36.605V36.2211C51.783 36.2622 51.716 36.296 51.6478 36.3225C51.582 36.3467 51.4906 36.3696 51.3737 36.3913L51.1398 36.4348C50.9204 36.4734 50.7633 36.5205 50.6683 36.576C50.5074 36.6701 50.427 36.8162 50.427 37.0142C50.427 37.1904 50.477 37.3171 50.5769 37.3944Z" fill="black"/>
<path d="M57.3056 34.6169C57.6273 34.9573 57.7881 35.457 57.7881 36.1161C57.7881 36.8114 57.6297 37.3413 57.3129 37.7058C56.9986 38.0703 56.5929 38.2526 56.0958 38.2526C55.779 38.2526 55.5159 38.1741 55.3063 38.0172C55.1918 37.9303 55.0797 37.8036 54.9701 37.637V39.6938H53.9394V34.1933H54.9372V34.7763C55.0493 34.6049 55.1687 34.4697 55.2954 34.3707C55.5269 34.1945 55.8022 34.1063 56.1214 34.1063C56.5868 34.1063 56.9816 34.2765 57.3056 34.6169ZM56.7135 36.1668C56.7135 35.8626 56.6429 35.5934 56.5015 35.3593C56.3626 35.1251 56.136 35.008 55.8217 35.008C55.444 35.008 55.1845 35.1855 55.0432 35.5403C54.9701 35.7286 54.9335 35.9676 54.9335 36.2573C54.9335 36.716 55.0566 37.0383 55.3027 37.2242C55.4489 37.3328 55.6219 37.3871 55.8217 37.3871C56.1117 37.3871 56.3322 37.2761 56.4832 37.054C56.6368 36.8319 56.7135 36.5362 56.7135 36.1668Z" fill="black"/>
<defs>
<clipPath id="clip0_5856_135855">
<rect width="28.5435" height="28.5725" fill="white" transform="translate(15.0524 1.05945)"/>
</clipPath>
</defs>
</svg>
