<svg width="42" height="24" viewBox="0 0 42 24" fill="none" xmlns="http://www.w3.org/2000/svg">
<g clip-path="url(#clip0_5856_135857)">
<path d="M0.7435 0.00463867L41.3435 0.00463867V20.8653L0.7435 20.8653L0.7435 0.00463867Z" fill="#002147"/>
<path d="M8.67043 6.23008C8.67043 6.69408 8.59307 7.10008 8.45774 7.48675C8.18707 8.22142 7.62644 8.82075 6.89177 9.11075C6.52444 9.26542 6.11843 9.34275 5.67376 9.34275C5.22909 9.34275 4.82308 9.26542 4.45575 9.11075C3.72108 8.82075 3.16045 8.22142 2.88978 7.48675C2.73511 7.08075 2.67709 6.65542 2.67709 6.23008C2.67709 5.76608 2.75445 5.36008 2.88978 4.97342C3.04445 4.58675 3.23777 4.25808 3.50844 3.98742C3.7791 3.71675 4.10775 3.48475 4.45575 3.34942C4.82308 3.19475 5.22909 3.11742 5.67376 3.11742C6.11843 3.11742 6.52444 3.19475 6.89177 3.34942C7.2591 3.50408 7.58775 3.71675 7.83908 3.98742C8.10975 4.27742 8.32241 4.60608 8.45774 4.97342C8.61241 5.37942 8.67043 5.80475 8.67043 6.23008ZM7.81978 6.23008C7.81978 5.86275 7.76177 5.51475 7.6651 5.22475C7.56844 4.95408 7.43311 4.68342 7.23978 4.47075C7.04645 4.25808 6.81445 4.10342 6.56311 3.98742C6.27311 3.87142 5.98309 3.81342 5.67376 3.81342C5.34509 3.81342 5.05507 3.87142 4.78441 3.98742C4.53307 4.08408 4.28174 4.25808 4.10774 4.47075C3.91441 4.68342 3.75975 4.95408 3.68242 5.22475C3.58575 5.51475 3.52774 5.86275 3.52774 6.23008C3.52774 6.59742 3.58575 6.94542 3.68242 7.23542C3.77908 7.50609 3.91441 7.77675 4.10774 7.98942C4.30107 8.20208 4.53309 8.35675 4.80376 8.45342C5.07443 8.56942 5.36445 8.60808 5.69311 8.60808C6.02178 8.60808 6.31175 8.55008 6.58242 8.45342C6.83375 8.35675 7.06575 8.18275 7.25908 7.98942C7.45242 7.77675 7.60707 7.50609 7.68441 7.23542C7.78107 6.94542 7.81978 6.61675 7.81978 6.23008ZM12.9044 4.97342L12.9044 9.28475H12.4598C12.3438 9.28475 12.2858 9.22675 12.2471 9.13008L12.1891 8.66608C12.0151 8.85942 11.8024 9.03342 11.5511 9.16875C11.3191 9.28475 11.0484 9.36208 10.7584 9.36208C10.5264 9.36208 10.3138 9.32342 10.1398 9.24608C9.96578 9.16875 9.8111 9.05275 9.6951 8.91742C9.55977 8.76275 9.48241 8.58875 9.42441 8.39542C9.36641 8.20208 9.32774 7.97008 9.32774 7.71875V4.97342H10.0818V7.71875C10.0818 8.04742 10.1591 8.29875 10.3138 8.47275C10.4684 8.64675 10.7004 8.74342 10.9904 8.74342C11.2224 8.74342 11.4158 8.68542 11.6091 8.58875C11.8218 8.47275 11.9958 8.31808 12.1504 8.14408V4.97342H12.9044ZM14.5671 5.84342C14.6831 5.57275 14.8571 5.34075 15.0698 5.14742C15.2824 4.97342 15.5337 4.89609 15.8044 4.89609C15.9011 4.89609 15.9784 4.89609 16.0558 4.91542C16.1331 4.93475 16.2104 4.97342 16.2877 5.01209L16.2298 5.57275C16.2104 5.65008 16.1717 5.66942 16.0944 5.66942C16.0557 5.66942 15.9978 5.66942 15.9204 5.65008C15.7078 5.61142 15.4951 5.61142 15.3018 5.68875C15.2051 5.72742 15.1084 5.78542 15.0118 5.86275C14.9344 5.94008 14.8571 6.03675 14.7798 6.15275C14.7218 6.26875 14.6638 6.40408 14.6058 6.53942L14.6058 9.26542H13.8518L13.8518 4.97342H14.2771C14.3544 4.97342 14.4124 4.99275 14.4511 5.01209C14.4897 5.05075 14.5091 5.08942 14.5091 5.16675L14.5671 5.84342ZM26.3798 3.19475L24.4851 9.28475H23.7504L22.2038 4.64475C22.1651 4.54808 22.1458 4.45142 22.1264 4.33542C22.1071 4.43209 22.0684 4.54808 22.0491 4.64475L20.5024 9.28475H19.7677L17.8731 3.19475H18.5498C18.6271 3.19475 18.6851 3.21408 18.7431 3.25275C18.8011 3.29142 18.8204 3.33008 18.8398 3.38808L20.0964 7.62209L20.1544 7.87342L20.2124 8.16342L20.2704 7.87342L20.3477 7.62209L21.7784 3.38808C21.7978 3.34942 21.8364 3.29142 21.8751 3.25275C21.9331 3.21408 21.9911 3.19475 22.0491 3.19475H22.2811C22.3584 3.19475 22.4164 3.21408 22.4551 3.25275C22.4938 3.29142 22.5324 3.33008 22.5518 3.38808L23.9824 7.62209C24.0404 7.79608 24.0791 7.95075 24.1177 8.12475C24.1371 7.95075 24.1757 7.79608 24.2144 7.62209L25.4711 3.38808C25.4904 3.33008 25.5097 3.29142 25.5677 3.25275C25.6257 3.21408 25.6838 3.19475 25.7418 3.19475L26.3798 3.19475ZM28.1971 4.89609C28.5064 4.89609 28.7964 4.95408 29.0477 5.05075C29.5504 5.26342 29.9371 5.66942 30.1111 6.19142C30.2077 6.46208 30.2464 6.77142 30.2464 7.10008C30.2464 7.44808 30.2077 7.73808 30.1111 8.02808C29.9564 8.55008 29.5697 8.97542 29.0477 9.16875C28.7964 9.26542 28.5064 9.32342 28.1971 9.32342C27.8878 9.32342 27.5978 9.26542 27.3464 9.16875C27.0951 9.07208 26.8824 8.91742 26.7084 8.72408C26.5344 8.53075 26.3991 8.29875 26.3024 8.02808C26.2058 7.75742 26.1671 7.44808 26.1671 7.10008C26.1671 6.75208 26.2058 6.46208 26.3024 6.19142C26.3991 5.92075 26.5344 5.68875 26.7084 5.49542C26.8824 5.30209 27.0951 5.14742 27.3464 5.05075C27.5978 4.95408 27.8684 4.89609 28.1971 4.89609ZM28.1971 8.74342C28.6224 8.74342 28.9317 8.60808 29.1444 8.31808C29.3571 8.02808 29.4538 7.64142 29.4538 7.11942C29.4538 6.59742 29.3377 6.21075 29.1444 5.92075C28.9317 5.63075 28.6224 5.49542 28.1971 5.49542C27.9844 5.49542 27.7911 5.53408 27.6364 5.61142C27.4818 5.68875 27.3464 5.78542 27.2304 5.92075C27.1338 6.05608 27.0371 6.23008 26.9984 6.44275C26.9404 6.63608 26.9211 6.86808 26.9211 7.11942C26.9211 7.62208 27.0371 8.02808 27.2304 8.31808C27.4431 8.60808 27.7524 8.74342 28.1971 8.74342ZM31.6577 5.84342C31.7737 5.57275 31.9478 5.34075 32.1604 5.14742C32.3731 4.97342 32.6244 4.89609 32.8951 4.89609C32.9918 4.89609 33.0691 4.89609 33.1464 4.91542C33.2238 4.93475 33.3011 4.97342 33.3784 5.01209L33.3204 5.57275C33.3011 5.65008 33.2624 5.66942 33.1851 5.66942C33.1464 5.66942 33.0884 5.66942 33.0111 5.65008C32.7984 5.61142 32.5857 5.61142 32.3924 5.68875C32.2957 5.72742 32.1991 5.78542 32.1024 5.86275C32.0251 5.94008 31.9478 6.03675 31.8704 6.15275C31.7931 6.26875 31.7351 6.40408 31.6964 6.53942V9.26542H30.9424V4.97342H31.3677C31.4451 4.97342 31.5031 4.99275 31.5418 5.01209C31.5804 5.05075 31.5998 5.08942 31.5998 5.16675L31.6577 5.84342ZM34.5771 3.02075V9.28475H33.8231V3.02075L34.5771 3.02075ZM38.3471 5.99808C38.2311 5.82408 38.0764 5.68875 37.8831 5.61142C37.7091 5.53408 37.5157 5.49542 37.3224 5.49542C36.9164 5.49542 36.6071 5.65008 36.3944 5.92075C36.1817 6.21075 36.0657 6.61675 36.0657 7.13875C36.0657 7.42875 36.0851 7.66075 36.1431 7.85408C36.1818 8.02808 36.2591 8.20208 36.3557 8.35675C36.4524 8.47275 36.5684 8.56942 36.7038 8.64675C36.8391 8.70475 36.9937 8.74342 37.1677 8.74342C37.4191 8.74342 37.6318 8.68542 37.8251 8.56942C38.0184 8.43408 38.1924 8.27942 38.3471 8.08608V5.99808ZM39.1011 3.02075V9.28475H38.6564C38.5404 9.28475 38.4824 9.22675 38.4438 9.13008L38.3857 8.60808C38.2117 8.82075 37.9991 8.99475 37.7671 9.14942C37.5158 9.28475 37.2258 9.36208 36.9551 9.36208C36.4911 9.38142 36.0464 9.16875 35.7757 8.80142C35.6404 8.60808 35.5244 8.37608 35.4471 8.10542C35.2924 7.50609 35.2924 6.86809 35.4664 6.26875C35.5438 6.01742 35.6598 5.76608 35.8338 5.55342C36.1624 5.12808 36.6651 4.89609 37.2064 4.91542C37.6511 4.89609 38.0957 5.08942 38.3857 5.41808V3.02075H39.1011ZM9.75311 13.6734L9.75311 17.9848H8.99908L8.99908 13.6734H9.75311ZM9.92709 12.3201C9.92709 12.3974 9.90777 12.4748 9.88844 12.5328C9.8691 12.5908 9.83042 12.6488 9.77242 12.7068C9.73375 12.7454 9.65644 12.7841 9.59844 12.8228C9.4631 12.8808 9.30845 12.8808 9.17311 12.8228C9.05711 12.7648 8.94108 12.6681 8.90242 12.5328C8.84442 12.3974 8.84442 12.2428 8.90242 12.1074C8.92175 12.0494 8.97977 11.9721 9.01844 11.9334C9.0571 11.8754 9.11511 11.8368 9.17311 11.8174C9.30845 11.7594 9.4631 11.7594 9.59844 11.8174C9.67577 11.8561 9.73375 11.8754 9.77242 11.9334C9.83042 11.9721 9.8691 12.0301 9.88844 12.1074C9.90777 12.1848 9.92709 12.2428 9.92709 12.3201ZM11.4738 14.2921C11.5704 14.1954 11.6671 14.0988 11.7638 14.0021C11.9764 13.8281 12.2084 13.7121 12.4791 13.6541C12.8271 13.5768 13.1944 13.5961 13.5231 13.7121C13.6971 13.7894 13.8517 13.9054 13.9677 14.0408C14.0837 14.1761 14.1804 14.3501 14.2384 14.5628C14.2964 14.7561 14.3351 14.9881 14.3351 15.2201V17.9654H13.5811V15.2394C13.5811 14.9108 13.5038 14.6594 13.3491 14.4854C13.1944 14.3114 12.9818 14.2148 12.6724 14.2148C12.4598 14.2148 12.2471 14.2728 12.0538 14.3694C11.8604 14.4854 11.6864 14.6208 11.5124 14.8141V17.9848H10.7584V13.6734H11.2224C11.3384 13.6734 11.3964 13.7314 11.4158 13.8281L11.4738 14.2921ZM22.6291 14.9301C22.6291 15.3941 22.5518 15.8001 22.4164 16.1674C22.2811 16.5348 22.0684 16.8634 21.7977 17.1341C21.5271 17.4048 21.2178 17.5981 20.8504 17.7528C20.4831 17.9074 20.0771 17.9654 19.6324 17.9654L17.3511 17.9654V11.8754L19.6324 11.8754C20.0771 11.8754 20.4831 11.9528 20.8504 12.1074C21.5851 12.3781 22.1458 12.9581 22.4164 13.6928C22.5518 14.0794 22.6291 14.5048 22.6291 14.9301ZM21.7784 14.9301C21.7784 14.5628 21.7204 14.2148 21.6238 13.9248C21.5271 13.6541 21.3918 13.4028 21.1984 13.1708C21.0051 12.9581 20.7731 12.8034 20.5218 12.7068C20.2318 12.5908 19.9418 12.5328 19.6324 12.5521L18.1824 12.5521V17.3081L19.6324 17.3081C19.9611 17.3081 20.2511 17.2501 20.5218 17.1534C20.7731 17.0568 21.0051 16.9021 21.1984 16.6894C21.3918 16.4768 21.5464 16.2254 21.6238 15.9354C21.7204 15.6454 21.7784 15.3168 21.7784 14.9301ZM25.6064 16.0321C25.2584 16.0514 24.9684 16.0708 24.7171 16.1094C24.4658 16.1481 24.2724 16.2061 24.1177 16.2834C23.9631 16.3608 23.8471 16.4381 23.7891 16.5348C23.7118 16.6314 23.6924 16.7474 23.6924 16.8634C23.6924 16.9794 23.7118 17.0761 23.7504 17.1534C23.7891 17.2308 23.8278 17.3081 23.9051 17.3661C23.9631 17.4241 24.0404 17.4628 24.1371 17.4821C24.2338 17.5014 24.3304 17.5208 24.4077 17.5208C24.6397 17.5208 24.8717 17.4628 25.0844 17.3661C25.2777 17.2501 25.4711 17.1148 25.6258 16.9408L25.6064 16.0321ZM23.1511 14.2728C23.3637 14.0601 23.6344 13.8861 23.9244 13.7508C24.1951 13.6348 24.5044 13.5768 24.8331 13.5768C25.0651 13.5768 25.2971 13.6154 25.4711 13.6928C25.8384 13.8474 26.1284 14.1568 26.2251 14.5434C26.2831 14.7368 26.3218 14.9688 26.3218 15.2008V17.9654H25.9931C25.9351 17.9654 25.8771 17.9654 25.8191 17.9268C25.7804 17.9074 25.7418 17.8494 25.7224 17.7914L25.6451 17.3854L25.3164 17.6754C25.1038 17.8301 24.8524 17.9461 24.6011 18.0041C24.4657 18.0428 24.3111 18.0428 24.1564 18.0428C23.9824 18.0428 23.8278 18.0234 23.6924 17.9848C23.4024 17.9074 23.1704 17.6948 23.0544 17.4241C22.9964 17.2694 22.9577 17.0954 22.9577 16.9214C22.9577 16.7474 22.9964 16.5928 23.0931 16.4381C23.2091 16.2641 23.3638 16.1094 23.5571 16.0128C23.7698 15.8968 24.0404 15.7808 24.3691 15.7228C24.7171 15.6454 25.1231 15.5874 25.6064 15.5874V15.2201C25.6064 14.8914 25.5291 14.6401 25.3938 14.4661C25.2391 14.2921 25.0458 14.2148 24.7558 14.2148C24.5624 14.2148 24.4078 14.2341 24.2918 14.2921C24.1758 14.3308 24.0598 14.3888 23.9631 14.4468L23.7311 14.6014C23.6731 14.6401 23.5957 14.6594 23.5377 14.6594C23.4797 14.6594 23.4411 14.6401 23.4024 14.6208C23.3638 14.6014 23.3251 14.5628 23.3058 14.5241L23.1511 14.2728ZM28.5064 18.0428C28.1584 18.0428 27.9071 17.9461 27.7138 17.7528C27.5398 17.5594 27.4431 17.2888 27.4431 16.9408V14.3114H26.9211C26.8824 14.3114 26.8438 14.2921 26.8051 14.2728C26.7664 14.2534 26.7664 14.1954 26.7664 14.1374L26.7664 13.8281L27.4624 13.7314L27.6364 12.3974C27.6364 12.3588 27.6557 12.3201 27.6944 12.3008C27.7331 12.2621 27.7718 12.2621 27.8104 12.2621H28.1971V13.7508H29.4344L29.4344 14.2921H28.1971V16.8828C28.1971 17.0568 28.2357 17.1921 28.3324 17.2888C28.4291 17.3661 28.5258 17.4241 28.6804 17.4241C28.8158 17.4241 28.9317 17.3854 29.0477 17.3274L29.1638 17.2694C29.2024 17.2501 29.2217 17.2308 29.2411 17.2308C29.2797 17.2308 29.3184 17.2501 29.3571 17.3081L29.5698 17.6754C29.4344 17.8108 29.2797 17.9074 29.1057 17.9654C28.8931 18.0234 28.6998 18.0428 28.5064 18.0428ZM32.3151 16.0321C31.9671 16.0514 31.6771 16.0708 31.4257 16.1094C31.1744 16.1481 30.9811 16.2061 30.8264 16.2834C30.6718 16.3608 30.5557 16.4381 30.4977 16.5348C30.4204 16.6314 30.4011 16.7474 30.4011 16.8634C30.4011 16.9794 30.4204 17.0761 30.4591 17.1534C30.4977 17.2308 30.5364 17.3081 30.6138 17.3661C30.6718 17.4241 30.7491 17.4628 30.8457 17.4821C30.9424 17.5014 31.0391 17.5208 31.1164 17.5208C31.3484 17.5208 31.5804 17.4628 31.7931 17.3661C31.9864 17.2501 32.1797 17.1148 32.3344 16.9408L32.3151 16.0321ZM29.8598 14.2728C30.0724 14.0601 30.3431 13.8861 30.6331 13.7508C30.9038 13.6348 31.2131 13.5768 31.5418 13.5768C31.7738 13.5768 32.0058 13.6154 32.1798 13.6928C32.5471 13.8474 32.8371 14.1568 32.9338 14.5434C32.9918 14.7368 33.0304 14.9688 33.0304 15.2008V17.9654H32.7018C32.6438 17.9654 32.5857 17.9654 32.5277 17.9268C32.4891 17.9074 32.4504 17.8494 32.4311 17.7914L32.3538 17.3854L32.0251 17.6754C31.8124 17.8301 31.5611 17.9461 31.3098 18.0041C31.1744 18.0428 31.0198 18.0428 30.8651 18.0428C30.6911 18.0428 30.5364 18.0234 30.4011 17.9848C30.1111 17.9074 29.8791 17.6948 29.7631 17.4241C29.7051 17.2694 29.6664 17.0954 29.6664 16.9214C29.6664 16.7474 29.7051 16.5928 29.8018 16.4381C29.9178 16.2641 30.0724 16.1094 30.2657 16.0128C30.4784 15.8968 30.7491 15.7808 31.0777 15.7228C31.4064 15.6454 31.8318 15.5874 32.3151 15.5874V15.2201C32.3151 14.8914 32.2377 14.6401 32.1024 14.4661C31.9477 14.2921 31.7544 14.2148 31.4644 14.2148C31.2711 14.2148 31.1164 14.2341 31.0004 14.2921C30.8844 14.3308 30.7684 14.3888 30.6718 14.4468L30.4398 14.6014C30.3818 14.6401 30.3044 14.6594 30.2464 14.6594C30.1884 14.6594 30.1497 14.6401 30.1111 14.6208C30.0724 14.6014 30.0337 14.5628 30.0144 14.5241L29.8598 14.2728ZM8.67043 6.23008C8.67043 6.69408 8.59307 7.10008 8.45774 7.48675C8.18707 8.22142 7.62644 8.82075 6.89177 9.11075C6.52444 9.26542 6.11843 9.34275 5.67376 9.34275C5.22909 9.34275 4.82308 9.26542 4.45575 9.11075C3.72108 8.82075 3.16045 8.22142 2.88978 7.48675C2.73511 7.08075 2.67709 6.65542 2.67709 6.23008C2.67709 5.76608 2.75445 5.36008 2.88978 4.97342C3.04445 4.58675 3.23777 4.25808 3.50844 3.98742C3.7791 3.71675 4.10775 3.48475 4.45575 3.34942C4.82308 3.19475 5.22909 3.11742 5.67376 3.11742C6.11843 3.11742 6.52444 3.19475 6.89177 3.34942C7.2591 3.50408 7.58775 3.71675 7.83908 3.98742C8.10975 4.27742 8.32241 4.60608 8.45774 4.97342C8.61241 5.37942 8.67043 5.80475 8.67043 6.23008ZM7.81978 6.23008C7.81978 5.86275 7.76177 5.51475 7.6651 5.22475C7.56844 4.95408 7.43311 4.68342 7.23978 4.47075C7.04645 4.25808 6.81445 4.10342 6.56311 3.98742C6.27311 3.87142 5.98309 3.81342 5.67376 3.81342C5.34509 3.81342 5.05507 3.87142 4.78441 3.98742C4.53307 4.08408 4.28174 4.25808 4.10774 4.47075C3.91441 4.68342 3.75975 4.95408 3.68242 5.22475C3.58575 5.51475 3.52774 5.86275 3.52774 6.23008C3.52774 6.59742 3.58575 6.94542 3.68242 7.23542C3.77908 7.50609 3.91441 7.77675 4.10774 7.98942C4.30107 8.20208 4.53309 8.35675 4.80376 8.45342C5.07443 8.56942 5.36445 8.60808 5.69311 8.60808C6.02178 8.60808 6.31175 8.55008 6.58242 8.45342C6.83375 8.35675 7.06575 8.18275 7.25908 7.98942C7.45242 7.77675 7.60707 7.50609 7.68441 7.23542C7.78107 6.94542 7.81978 6.61675 7.81978 6.23008ZM12.9044 4.97342L12.9044 9.28475H12.4598C12.3438 9.28475 12.2858 9.22675 12.2471 9.13008L12.1891 8.66608C12.0151 8.85942 11.8024 9.03342 11.5511 9.16875C11.3191 9.28475 11.0484 9.36208 10.7584 9.36208C10.5264 9.36208 10.3138 9.32342 10.1398 9.24608C9.96578 9.16875 9.8111 9.05275 9.6951 8.91742C9.55977 8.76275 9.48241 8.58875 9.42441 8.39542C9.36641 8.20208 9.32774 7.97008 9.32774 7.71875V4.97342H10.0818V7.71875C10.0818 8.04742 10.1591 8.29875 10.3138 8.47275C10.4684 8.64675 10.7004 8.74342 10.9904 8.74342C11.2224 8.74342 11.4158 8.68542 11.6091 8.58875C11.8218 8.47275 11.9958 8.31808 12.1504 8.14408V4.97342H12.9044ZM14.5671 5.84342C14.6831 5.57275 14.8571 5.34075 15.0698 5.14742C15.2824 4.97342 15.5337 4.89609 15.8044 4.89609C15.9011 4.89609 15.9784 4.89609 16.0558 4.91542C16.1331 4.93475 16.2104 4.97342 16.2877 5.01209L16.2298 5.57275C16.2104 5.65008 16.1717 5.66942 16.0944 5.66942C16.0557 5.66942 15.9978 5.66942 15.9204 5.65008C15.7078 5.61142 15.4951 5.61142 15.3018 5.68875C15.2051 5.72742 15.1084 5.78542 15.0118 5.86275C14.9344 5.94008 14.8571 6.03675 14.7798 6.15275C14.7218 6.26875 14.6638 6.40408 14.6058 6.53942L14.6058 9.26542H13.8518L13.8518 4.97342H14.2771C14.3544 4.97342 14.4124 4.99275 14.4511 5.01209C14.4897 5.05075 14.5091 5.08942 14.5091 5.16675L14.5671 5.84342ZM26.3798 3.19475L24.4851 9.28475H23.7504L22.2038 4.64475C22.1651 4.54808 22.1458 4.45142 22.1264 4.33542C22.1071 4.43209 22.0684 4.54808 22.0491 4.64475L20.5024 9.28475H19.7677L17.8731 3.19475H18.5498C18.6271 3.19475 18.6851 3.21408 18.7431 3.25275C18.8011 3.29142 18.8204 3.33008 18.8398 3.38808L20.0964 7.62209L20.1544 7.87342L20.2124 8.16342L20.2704 7.87342L20.3477 7.62209L21.7784 3.38808C21.7978 3.34942 21.8364 3.29142 21.8751 3.25275C21.9331 3.21408 21.9911 3.19475 22.0491 3.19475H22.2811C22.3584 3.19475 22.4164 3.21408 22.4551 3.25275C22.4938 3.29142 22.5324 3.33008 22.5518 3.38808L23.9824 7.62209C24.0404 7.79608 24.0791 7.95075 24.1177 8.12475C24.1371 7.95075 24.1757 7.79608 24.2144 7.62209L25.4711 3.38808C25.4904 3.33008 25.5097 3.29142 25.5677 3.25275C25.6257 3.21408 25.6838 3.19475 25.7418 3.19475L26.3798 3.19475ZM28.1971 4.89609C28.5064 4.89609 28.7964 4.95408 29.0477 5.05075C29.5504 5.26342 29.9371 5.66942 30.1111 6.19142C30.2077 6.46208 30.2464 6.77142 30.2464 7.10008C30.2464 7.44808 30.2077 7.73808 30.1111 8.02808C29.9564 8.55008 29.5697 8.97542 29.0477 9.16875C28.7964 9.26542 28.5064 9.32342 28.1971 9.32342C27.8878 9.32342 27.5978 9.26542 27.3464 9.16875C27.0951 9.07208 26.8824 8.91742 26.7084 8.72408C26.5344 8.53075 26.3991 8.29875 26.3024 8.02808C26.2058 7.75742 26.1671 7.44808 26.1671 7.10008C26.1671 6.75208 26.2058 6.46208 26.3024 6.19142C26.3991 5.92075 26.5344 5.68875 26.7084 5.49542C26.8824 5.30209 27.0951 5.14742 27.3464 5.05075C27.5978 4.95408 27.8684 4.89609 28.1971 4.89609ZM28.1971 8.74342C28.6224 8.74342 28.9317 8.60808 29.1444 8.31808C29.3571 8.02808 29.4538 7.64142 29.4538 7.11942C29.4538 6.59742 29.3377 6.21075 29.1444 5.92075C28.9317 5.63075 28.6224 5.49542 28.1971 5.49542C27.9844 5.49542 27.7911 5.53408 27.6364 5.61142C27.4818 5.68875 27.3464 5.78542 27.2304 5.92075C27.1338 6.05608 27.0371 6.23008 26.9984 6.44275C26.9404 6.63608 26.9211 6.86808 26.9211 7.11942C26.9211 7.62208 27.0371 8.02808 27.2304 8.31808C27.4431 8.60808 27.7524 8.74342 28.1971 8.74342ZM31.6577 5.84342C31.7737 5.57275 31.9478 5.34075 32.1604 5.14742C32.3731 4.97342 32.6244 4.89609 32.8951 4.89609C32.9918 4.89609 33.0691 4.89609 33.1464 4.91542C33.2238 4.93475 33.3011 4.97342 33.3784 5.01209L33.3204 5.57275C33.3011 5.65008 33.2624 5.66942 33.1851 5.66942C33.1464 5.66942 33.0884 5.66942 33.0111 5.65008C32.7984 5.61142 32.5857 5.61142 32.3924 5.68875C32.2957 5.72742 32.1991 5.78542 32.1024 5.86275C32.0251 5.94008 31.9478 6.03675 31.8704 6.15275C31.7931 6.26875 31.7351 6.40408 31.6964 6.53942V9.26542H30.9424V4.97342H31.3677C31.4451 4.97342 31.5031 4.99275 31.5418 5.01209C31.5804 5.05075 31.5998 5.08942 31.5998 5.16675L31.6577 5.84342ZM34.5771 3.02075V9.28475H33.8231V3.02075L34.5771 3.02075ZM38.3471 5.99808C38.2311 5.82408 38.0764 5.68875 37.8831 5.61142C37.7091 5.53408 37.5157 5.49542 37.3224 5.49542C36.9164 5.49542 36.6071 5.65008 36.3944 5.92075C36.1817 6.21075 36.0657 6.61675 36.0657 7.13875C36.0657 7.42875 36.0851 7.66075 36.1431 7.85408C36.1818 8.02808 36.2591 8.20208 36.3557 8.35675C36.4524 8.47275 36.5684 8.56942 36.7038 8.64675C36.8391 8.70475 36.9937 8.74342 37.1677 8.74342C37.4191 8.74342 37.6318 8.68542 37.8251 8.56942C38.0184 8.43408 38.1924 8.27942 38.3471 8.08608V5.99808ZM39.1011 3.02075V9.28475H38.6564C38.5404 9.28475 38.4824 9.22675 38.4438 9.13008L38.3857 8.60808C38.2117 8.82075 37.9991 8.99475 37.7671 9.14942C37.5158 9.28475 37.2258 9.36208 36.9551 9.36208C36.4911 9.38142 36.0464 9.16875 35.7757 8.80142C35.6404 8.60808 35.5244 8.37608 35.4471 8.10542C35.2924 7.50609 35.2924 6.86809 35.4664 6.26875C35.5438 6.01742 35.6598 5.76608 35.8338 5.55342C36.1624 5.12808 36.6651 4.89609 37.2064 4.91542C37.6511 4.89609 38.0957 5.08942 38.3857 5.41808V3.02075H39.1011ZM9.75311 13.6734L9.75311 17.9848H8.99908L8.99908 13.6734H9.75311ZM9.92709 12.3201C9.92709 12.3974 9.90777 12.4748 9.88844 12.5328C9.8691 12.5908 9.83042 12.6488 9.77242 12.7068C9.73375 12.7454 9.65644 12.7841 9.59844 12.8228C9.4631 12.8808 9.30845 12.8808 9.17311 12.8228C9.05711 12.7648 8.94108 12.6681 8.90242 12.5328C8.84442 12.3974 8.84442 12.2428 8.90242 12.1074C8.92175 12.0494 8.97977 11.9721 9.01844 11.9334C9.0571 11.8754 9.11511 11.8368 9.17311 11.8174C9.30845 11.7594 9.4631 11.7594 9.59844 11.8174C9.67577 11.8561 9.73375 11.8754 9.77242 11.9334C9.83042 11.9721 9.8691 12.0301 9.88844 12.1074C9.90777 12.1848 9.92709 12.2428 9.92709 12.3201ZM11.4738 14.2921C11.5704 14.1954 11.6671 14.0988 11.7638 14.0021C11.9764 13.8281 12.2084 13.7121 12.4791 13.6541C12.8271 13.5768 13.1944 13.5961 13.5231 13.7121C13.6971 13.7894 13.8517 13.9054 13.9677 14.0408C14.0837 14.1761 14.1804 14.3501 14.2384 14.5628C14.2964 14.7561 14.3351 14.9881 14.3351 15.2201V17.9654H13.5811V15.2394C13.5811 14.9108 13.5038 14.6594 13.3491 14.4854C13.1944 14.3114 12.9818 14.2148 12.6724 14.2148C12.4598 14.2148 12.2471 14.2728 12.0538 14.3694C11.8604 14.4854 11.6864 14.6208 11.5124 14.8141V17.9848H10.7584V13.6734H11.2224C11.3384 13.6734 11.3964 13.7314 11.4158 13.8281L11.4738 14.2921ZM22.6291 14.9301C22.6291 15.3941 22.5518 15.8001 22.4164 16.1674C22.2811 16.5348 22.0684 16.8634 21.7977 17.1341C21.5271 17.4048 21.2178 17.5981 20.8504 17.7528C20.4831 17.9074 20.0771 17.9654 19.6324 17.9654L17.3511 17.9654V11.8754L19.6324 11.8754C20.0771 11.8754 20.4831 11.9528 20.8504 12.1074C21.5851 12.3781 22.1458 12.9581 22.4164 13.6928C22.5518 14.0794 22.6291 14.5048 22.6291 14.9301ZM21.7784 14.9301C21.7784 14.5628 21.7204 14.2148 21.6238 13.9248C21.5271 13.6541 21.3918 13.4028 21.1984 13.1708C21.0051 12.9581 20.7731 12.8034 20.5218 12.7068C20.2318 12.5908 19.9418 12.5328 19.6324 12.5521L18.1824 12.5521V17.3081L19.6324 17.3081C19.9611 17.3081 20.2511 17.2501 20.5218 17.1534C20.7731 17.0568 21.0051 16.9021 21.1984 16.6894C21.3918 16.4768 21.5464 16.2254 21.6238 15.9354C21.7204 15.6454 21.7784 15.3168 21.7784 14.9301ZM25.6064 16.0321C25.2584 16.0514 24.9684 16.0708 24.7171 16.1094C24.4658 16.1481 24.2724 16.2061 24.1177 16.2834C23.9631 16.3608 23.8471 16.4381 23.7891 16.5348C23.7118 16.6314 23.6924 16.7474 23.6924 16.8634C23.6924 16.9794 23.7118 17.0761 23.7504 17.1534C23.7891 17.2308 23.8278 17.3081 23.9051 17.3661C23.9631 17.4241 24.0404 17.4628 24.1371 17.4821C24.2338 17.5014 24.3304 17.5208 24.4077 17.5208C24.6397 17.5208 24.8717 17.4628 25.0844 17.3661C25.2777 17.2501 25.4711 17.1148 25.6258 16.9408L25.6064 16.0321ZM23.1511 14.2728C23.3637 14.0601 23.6344 13.8861 23.9244 13.7508C24.1951 13.6348 24.5044 13.5768 24.8331 13.5768C25.0651 13.5768 25.2971 13.6154 25.4711 13.6928C25.8384 13.8474 26.1284 14.1568 26.2251 14.5434C26.2831 14.7368 26.3218 14.9688 26.3218 15.2008V17.9654H25.9931C25.9351 17.9654 25.8771 17.9654 25.8191 17.9268C25.7804 17.9074 25.7418 17.8494 25.7224 17.7914L25.6451 17.3854L25.3164 17.6754C25.1038 17.8301 24.8524 17.9461 24.6011 18.0041C24.4657 18.0428 24.3111 18.0428 24.1564 18.0428C23.9824 18.0428 23.8278 18.0234 23.6924 17.9848C23.4024 17.9074 23.1704 17.6948 23.0544 17.4241C22.9964 17.2694 22.9577 17.0954 22.9577 16.9214C22.9577 16.7474 22.9964 16.5928 23.0931 16.4381C23.2091 16.2641 23.3638 16.1094 23.5571 16.0128C23.7698 15.8968 24.0404 15.7808 24.3691 15.7228C24.7171 15.6454 25.1231 15.5874 25.6064 15.5874V15.2201C25.6064 14.8914 25.5291 14.6401 25.3938 14.4661C25.2391 14.2921 25.0458 14.2148 24.7558 14.2148C24.5624 14.2148 24.4078 14.2341 24.2918 14.2921C24.1758 14.3308 24.0598 14.3888 23.9631 14.4468L23.7311 14.6014C23.6731 14.6401 23.5957 14.6594 23.5377 14.6594C23.4797 14.6594 23.4411 14.6401 23.4024 14.6208C23.3638 14.6014 23.3251 14.5628 23.3058 14.5241L23.1511 14.2728ZM28.5064 18.0428C28.1584 18.0428 27.9071 17.9461 27.7138 17.7528C27.5398 17.5594 27.4431 17.2888 27.4431 16.9408V14.3114H26.9211C26.8824 14.3114 26.8438 14.2921 26.8051 14.2728C26.7664 14.2534 26.7664 14.1954 26.7664 14.1374L26.7664 13.8281L27.4624 13.7314L27.6364 12.3974C27.6364 12.3588 27.6557 12.3201 27.6944 12.3008C27.7331 12.2621 27.7718 12.2621 27.8104 12.2621H28.1971V13.7508H29.4344L29.4344 14.2921H28.1971V16.8828C28.1971 17.0568 28.2357 17.1921 28.3324 17.2888C28.4291 17.3661 28.5258 17.4241 28.6804 17.4241C28.8158 17.4241 28.9317 17.3854 29.0477 17.3274L29.1638 17.2694C29.2024 17.2501 29.2217 17.2308 29.2411 17.2308C29.2797 17.2308 29.3184 17.2501 29.3571 17.3081L29.5698 17.6754C29.4344 17.8108 29.2797 17.9074 29.1057 17.9654C28.8931 18.0234 28.6998 18.0428 28.5064 18.0428ZM32.3151 16.0321C31.9671 16.0514 31.6771 16.0708 31.4257 16.1094C31.1744 16.1481 30.9811 16.2061 30.8264 16.2834C30.6718 16.3608 30.5557 16.4381 30.4977 16.5348C30.4204 16.6314 30.4011 16.7474 30.4011 16.8634C30.4011 16.9794 30.4204 17.0761 30.4591 17.1534C30.4977 17.2308 30.5364 17.3081 30.6138 17.3661C30.6718 17.4241 30.7491 17.4628 30.8457 17.4821C30.9424 17.5014 31.0391 17.5208 31.1164 17.5208C31.3484 17.5208 31.5804 17.4628 31.7931 17.3661C31.9864 17.2501 32.1797 17.1148 32.3344 16.9408L32.3151 16.0321ZM29.8598 14.2728C30.0724 14.0601 30.3431 13.8861 30.6331 13.7508C30.9038 13.6348 31.2131 13.5768 31.5418 13.5768C31.7738 13.5768 32.0058 13.6154 32.1798 13.6928C32.5471 13.8474 32.8371 14.1568 32.9338 14.5434C32.9918 14.7368 33.0304 14.9688 33.0304 15.2008V17.9654H32.7018C32.6438 17.9654 32.5857 17.9654 32.5277 17.9268C32.4891 17.9074 32.4504 17.8494 32.4311 17.7914L32.3538 17.3854L32.0251 17.6754C31.8124 17.8301 31.5611 17.9461 31.3098 18.0041C31.1744 18.0428 31.0198 18.0428 30.8651 18.0428C30.6911 18.0428 30.5364 18.0234 30.4011 17.9848C30.1111 17.9074 29.8791 17.6948 29.7631 17.4241C29.7051 17.2694 29.6664 17.0954 29.6664 16.9214C29.6664 16.7474 29.7051 16.5928 29.8018 16.4381C29.9178 16.2641 30.0724 16.1094 30.2657 16.0128C30.4784 15.8968 30.7491 15.7808 31.0777 15.7228C31.4064 15.6454 31.8318 15.5874 32.3151 15.5874V15.2201C32.3151 14.8914 32.2377 14.6401 32.1024 14.4661C31.9477 14.2921 31.7544 14.2148 31.4644 14.2148C31.2711 14.2148 31.1164 14.2341 31.0004 14.2921C30.8844 14.3308 30.7684 14.3888 30.6718 14.4468L30.4398 14.6014C30.3818 14.6401 30.3044 14.6594 30.2464 14.6594C30.1884 14.6594 30.1497 14.6401 30.1111 14.6208C30.0724 14.6014 30.0337 14.5628 30.0144 14.5241L29.8598 14.2728ZM8.67043 6.23008C8.67043 6.69408 8.59307 7.10008 8.45774 7.48675C8.18707 8.22142 7.62644 8.82075 6.89177 9.11075C6.52444 9.26542 6.11843 9.34275 5.67376 9.34275C5.22909 9.34275 4.82308 9.26542 4.45575 9.11075C3.72108 8.82075 3.16045 8.22142 2.88978 7.48675C2.73511 7.08075 2.67709 6.65542 2.67709 6.23008C2.67709 5.76608 2.75445 5.36008 2.88978 4.97342C3.04445 4.58675 3.23777 4.25808 3.50844 3.98742C3.7791 3.71675 4.10775 3.48475 4.45575 3.34942C4.82308 3.19475 5.22909 3.11742 5.67376 3.11742C6.11843 3.11742 6.52444 3.19475 6.89177 3.34942C7.2591 3.50408 7.58775 3.71675 7.83908 3.98742C8.10975 4.27742 8.32241 4.60608 8.45774 4.97342C8.61241 5.37942 8.67043 5.80475 8.67043 6.23008ZM7.81978 6.23008C7.81978 5.86275 7.76177 5.51475 7.6651 5.22475C7.56844 4.95408 7.43311 4.68342 7.23978 4.47075C7.04645 4.25808 6.81445 4.10342 6.56311 3.98742C6.27311 3.87142 5.98309 3.81342 5.67376 3.81342C5.34509 3.81342 5.05507 3.87142 4.78441 3.98742C4.53307 4.08408 4.28174 4.25808 4.10774 4.47075C3.91441 4.68342 3.75975 4.95408 3.68242 5.22475C3.58575 5.51475 3.52774 5.86275 3.52774 6.23008C3.52774 6.59742 3.58575 6.94542 3.68242 7.23542C3.77908 7.50609 3.91441 7.77675 4.10774 7.98942C4.30107 8.20208 4.53309 8.35675 4.80376 8.45342C5.07443 8.56942 5.36445 8.60808 5.69311 8.60808C6.02178 8.60808 6.31175 8.55008 6.58242 8.45342C6.83375 8.35675 7.06575 8.18275 7.25908 7.98942C7.45242 7.77675 7.60707 7.50609 7.68441 7.23542C7.78107 6.94542 7.81978 6.61675 7.81978 6.23008ZM12.9044 4.97342L12.9044 9.28475H12.4598C12.3438 9.28475 12.2858 9.22675 12.2471 9.13008L12.1891 8.66608C12.0151 8.85942 11.8024 9.03342 11.5511 9.16875C11.3191 9.28475 11.0484 9.36208 10.7584 9.36208C10.5264 9.36208 10.3138 9.32342 10.1398 9.24608C9.96578 9.16875 9.8111 9.05275 9.6951 8.91742C9.55977 8.76275 9.48241 8.58875 9.42441 8.39542C9.36641 8.20208 9.32774 7.97008 9.32774 7.71875V4.97342H10.0818V7.71875C10.0818 8.04742 10.1591 8.29875 10.3138 8.47275C10.4684 8.64675 10.7004 8.74342 10.9904 8.74342C11.2224 8.74342 11.4158 8.68542 11.6091 8.58875C11.8218 8.47275 11.9958 8.31808 12.1504 8.14408V4.97342H12.9044ZM14.5671 5.84342C14.6831 5.57275 14.8571 5.34075 15.0698 5.14742C15.2824 4.97342 15.5337 4.89609 15.8044 4.89609C15.9011 4.89609 15.9784 4.89609 16.0558 4.91542C16.1331 4.93475 16.2104 4.97342 16.2877 5.01209L16.2298 5.57275C16.2104 5.65008 16.1717 5.66942 16.0944 5.66942C16.0557 5.66942 15.9978 5.66942 15.9204 5.65008C15.7078 5.61142 15.4951 5.61142 15.3018 5.68875C15.2051 5.72742 15.1084 5.78542 15.0118 5.86275C14.9344 5.94008 14.8571 6.03675 14.7798 6.15275C14.7218 6.26875 14.6638 6.40408 14.6058 6.53942L14.6058 9.26542H13.8518L13.8518 4.97342H14.2771C14.3544 4.97342 14.4124 4.99275 14.4511 5.01209C14.4897 5.05075 14.5091 5.08942 14.5091 5.16675L14.5671 5.84342ZM26.3798 3.19475L24.4851 9.28475H23.7504L22.2038 4.64475C22.1651 4.54808 22.1458 4.45142 22.1264 4.33542C22.1071 4.43209 22.0684 4.54808 22.0491 4.64475L20.5024 9.28475H19.7677L17.8731 3.19475H18.5498C18.6271 3.19475 18.6851 3.21408 18.7431 3.25275C18.8011 3.29142 18.8204 3.33008 18.8398 3.38808L20.0964 7.62209L20.1544 7.87342L20.2124 8.16342L20.2704 7.87342L20.3477 7.62209L21.7784 3.38808C21.7978 3.34942 21.8364 3.29142 21.8751 3.25275C21.9331 3.21408 21.9911 3.19475 22.0491 3.19475H22.2811C22.3584 3.19475 22.4164 3.21408 22.4551 3.25275C22.4938 3.29142 22.5324 3.33008 22.5518 3.38808L23.9824 7.62209C24.0404 7.79608 24.0791 7.95075 24.1177 8.12475C24.1371 7.95075 24.1757 7.79608 24.2144 7.62209L25.4711 3.38808C25.4904 3.33008 25.5097 3.29142 25.5677 3.25275C25.6257 3.21408 25.6838 3.19475 25.7418 3.19475L26.3798 3.19475ZM28.1971 4.89609C28.5064 4.89609 28.7964 4.95408 29.0477 5.05075C29.5504 5.26342 29.9371 5.66942 30.1111 6.19142C30.2077 6.46208 30.2464 6.77142 30.2464 7.10008C30.2464 7.44808 30.2077 7.73808 30.1111 8.02808C29.9564 8.55008 29.5697 8.97542 29.0477 9.16875C28.7964 9.26542 28.5064 9.32342 28.1971 9.32342C27.8878 9.32342 27.5978 9.26542 27.3464 9.16875C27.0951 9.07208 26.8824 8.91742 26.7084 8.72408C26.5344 8.53075 26.3991 8.29875 26.3024 8.02808C26.2058 7.75742 26.1671 7.44808 26.1671 7.10008C26.1671 6.75208 26.2058 6.46208 26.3024 6.19142C26.3991 5.92075 26.5344 5.68875 26.7084 5.49542C26.8824 5.30209 27.0951 5.14742 27.3464 5.05075C27.5978 4.95408 27.8684 4.89609 28.1971 4.89609ZM28.1971 8.74342C28.6224 8.74342 28.9317 8.60808 29.1444 8.31808C29.3571 8.02808 29.4538 7.64142 29.4538 7.11942C29.4538 6.59742 29.3377 6.21075 29.1444 5.92075C28.9317 5.63075 28.6224 5.49542 28.1971 5.49542C27.9844 5.49542 27.7911 5.53408 27.6364 5.61142C27.4818 5.68875 27.3464 5.78542 27.2304 5.92075C27.1338 6.05608 27.0371 6.23008 26.9984 6.44275C26.9404 6.63608 26.9211 6.86808 26.9211 7.11942C26.9211 7.62208 27.0371 8.02808 27.2304 8.31808C27.4431 8.60808 27.7524 8.74342 28.1971 8.74342ZM31.6577 5.84342C31.7737 5.57275 31.9478 5.34075 32.1604 5.14742C32.3731 4.97342 32.6244 4.89609 32.8951 4.89609C32.9918 4.89609 33.0691 4.89609 33.1464 4.91542C33.2238 4.93475 33.3011 4.97342 33.3784 5.01209L33.3204 5.57275C33.3011 5.65008 33.2624 5.66942 33.1851 5.66942C33.1464 5.66942 33.0884 5.66942 33.0111 5.65008C32.7984 5.61142 32.5857 5.61142 32.3924 5.68875C32.2957 5.72742 32.1991 5.78542 32.1024 5.86275C32.0251 5.94008 31.9478 6.03675 31.8704 6.15275C31.7931 6.26875 31.7351 6.40408 31.6964 6.53942V9.26542H30.9424V4.97342H31.3677C31.4451 4.97342 31.5031 4.99275 31.5418 5.01209C31.5804 5.05075 31.5998 5.08942 31.5998 5.16675L31.6577 5.84342ZM34.5771 3.02075V9.28475H33.8231V3.02075L34.5771 3.02075ZM38.3471 5.99808C38.2311 5.82408 38.0764 5.68875 37.8831 5.61142C37.7091 5.53408 37.5157 5.49542 37.3224 5.49542C36.9164 5.49542 36.6071 5.65008 36.3944 5.92075C36.1817 6.21075 36.0657 6.61675 36.0657 7.13875C36.0657 7.42875 36.0851 7.66075 36.1431 7.85408C36.1818 8.02808 36.2591 8.20208 36.3557 8.35675C36.4524 8.47275 36.5684 8.56942 36.7038 8.64675C36.8391 8.70475 36.9937 8.74342 37.1677 8.74342C37.4191 8.74342 37.6318 8.68542 37.8251 8.56942C38.0184 8.43408 38.1924 8.27942 38.3471 8.08608V5.99808ZM39.1011 3.02075V9.28475H38.6564C38.5404 9.28475 38.4824 9.22675 38.4438 9.13008L38.3857 8.60808C38.2117 8.82075 37.9991 8.99475 37.7671 9.14942C37.5158 9.28475 37.2258 9.36208 36.9551 9.36208C36.4911 9.38142 36.0464 9.16875 35.7757 8.80142C35.6404 8.60808 35.5244 8.37608 35.4471 8.10542C35.2924 7.50609 35.2924 6.86809 35.4664 6.26875C35.5438 6.01742 35.6598 5.76608 35.8338 5.55342C36.1624 5.12808 36.6651 4.89609 37.2064 4.91542C37.6511 4.89609 38.0957 5.08942 38.3857 5.41808V3.02075H39.1011ZM9.75311 13.6734L9.75311 17.9848H8.99908L8.99908 13.6734H9.75311ZM9.92709 12.3201C9.92709 12.3974 9.90777 12.4748 9.88844 12.5328C9.8691 12.5908 9.83042 12.6488 9.77242 12.7068C9.73375 12.7454 9.65644 12.7841 9.59844 12.8228C9.4631 12.8808 9.30845 12.8808 9.17311 12.8228C9.05711 12.7648 8.94108 12.6681 8.90242 12.5328C8.84442 12.3974 8.84442 12.2428 8.90242 12.1074C8.92175 12.0494 8.97977 11.9721 9.01844 11.9334C9.0571 11.8754 9.11511 11.8368 9.17311 11.8174C9.30845 11.7594 9.4631 11.7594 9.59844 11.8174C9.67577 11.8561 9.73375 11.8754 9.77242 11.9334C9.83042 11.9721 9.8691 12.0301 9.88844 12.1074C9.90777 12.1848 9.92709 12.2428 9.92709 12.3201ZM11.4738 14.2921C11.5704 14.1954 11.6671 14.0988 11.7638 14.0021C11.9764 13.8281 12.2084 13.7121 12.4791 13.6541C12.8271 13.5768 13.1944 13.5961 13.5231 13.7121C13.6971 13.7894 13.8517 13.9054 13.9677 14.0408C14.0837 14.1761 14.1804 14.3501 14.2384 14.5628C14.2964 14.7561 14.3351 14.9881 14.3351 15.2201V17.9654H13.5811V15.2394C13.5811 14.9108 13.5038 14.6594 13.3491 14.4854C13.1944 14.3114 12.9818 14.2148 12.6724 14.2148C12.4598 14.2148 12.2471 14.2728 12.0538 14.3694C11.8604 14.4854 11.6864 14.6208 11.5124 14.8141V17.9848H10.7584V13.6734H11.2224C11.3384 13.6734 11.3964 13.7314 11.4158 13.8281L11.4738 14.2921ZM22.6291 14.9301C22.6291 15.3941 22.5518 15.8001 22.4164 16.1674C22.2811 16.5348 22.0684 16.8634 21.7977 17.1341C21.5271 17.4048 21.2178 17.5981 20.8504 17.7528C20.4831 17.9074 20.0771 17.9654 19.6324 17.9654L17.3511 17.9654V11.8754L19.6324 11.8754C20.0771 11.8754 20.4831 11.9528 20.8504 12.1074C21.5851 12.3781 22.1458 12.9581 22.4164 13.6928C22.5518 14.0794 22.6291 14.5048 22.6291 14.9301ZM21.7784 14.9301C21.7784 14.5628 21.7204 14.2148 21.6238 13.9248C21.5271 13.6541 21.3918 13.4028 21.1984 13.1708C21.0051 12.9581 20.7731 12.8034 20.5218 12.7068C20.2318 12.5908 19.9418 12.5328 19.6324 12.5521L18.1824 12.5521V17.3081L19.6324 17.3081C19.9611 17.3081 20.2511 17.2501 20.5218 17.1534C20.7731 17.0568 21.0051 16.9021 21.1984 16.6894C21.3918 16.4768 21.5464 16.2254 21.6238 15.9354C21.7204 15.6454 21.7784 15.3168 21.7784 14.9301ZM25.6064 16.0321C25.2584 16.0514 24.9684 16.0708 24.7171 16.1094C24.4658 16.1481 24.2724 16.2061 24.1177 16.2834C23.9631 16.3608 23.8471 16.4381 23.7891 16.5348C23.7118 16.6314 23.6924 16.7474 23.6924 16.8634C23.6924 16.9794 23.7118 17.0761 23.7504 17.1534C23.7891 17.2308 23.8278 17.3081 23.9051 17.3661C23.9631 17.4241 24.0404 17.4628 24.1371 17.4821C24.2338 17.5014 24.3304 17.5208 24.4077 17.5208C24.6397 17.5208 24.8717 17.4628 25.0844 17.3661C25.2777 17.2501 25.4711 17.1148 25.6258 16.9408L25.6064 16.0321ZM23.1511 14.2728C23.3637 14.0601 23.6344 13.8861 23.9244 13.7508C24.1951 13.6348 24.5044 13.5768 24.8331 13.5768C25.0651 13.5768 25.2971 13.6154 25.4711 13.6928C25.8384 13.8474 26.1284 14.1568 26.2251 14.5434C26.2831 14.7368 26.3218 14.9688 26.3218 15.2008V17.9654H25.9931C25.9351 17.9654 25.8771 17.9654 25.8191 17.9268C25.7804 17.9074 25.7418 17.8494 25.7224 17.7914L25.6451 17.3854L25.3164 17.6754C25.1038 17.8301 24.8524 17.9461 24.6011 18.0041C24.4657 18.0428 24.3111 18.0428 24.1564 18.0428C23.9824 18.0428 23.8278 18.0234 23.6924 17.9848C23.4024 17.9074 23.1704 17.6948 23.0544 17.4241C22.9964 17.2694 22.9577 17.0954 22.9577 16.9214C22.9577 16.7474 22.9964 16.5928 23.0931 16.4381C23.2091 16.2641 23.3638 16.1094 23.5571 16.0128C23.7698 15.8968 24.0404 15.7808 24.3691 15.7228C24.7171 15.6454 25.1231 15.5874 25.6064 15.5874V15.2201C25.6064 14.8914 25.5291 14.6401 25.3938 14.4661C25.2391 14.2921 25.0458 14.2148 24.7558 14.2148C24.5624 14.2148 24.4078 14.2341 24.2918 14.2921C24.1758 14.3308 24.0598 14.3888 23.9631 14.4468L23.7311 14.6014C23.6731 14.6401 23.5957 14.6594 23.5377 14.6594C23.4797 14.6594 23.4411 14.6401 23.4024 14.6208C23.3638 14.6014 23.3251 14.5628 23.3058 14.5241L23.1511 14.2728ZM28.5064 18.0428C28.1584 18.0428 27.9071 17.9461 27.7138 17.7528C27.5398 17.5594 27.4431 17.2888 27.4431 16.9408V14.3114H26.9211C26.8824 14.3114 26.8438 14.2921 26.8051 14.2728C26.7664 14.2534 26.7664 14.1954 26.7664 14.1374L26.7664 13.8281L27.4624 13.7314L27.6364 12.3974C27.6364 12.3588 27.6557 12.3201 27.6944 12.3008C27.7331 12.2621 27.7718 12.2621 27.8104 12.2621H28.1971V13.7508H29.4344L29.4344 14.2921H28.1971V16.8828C28.1971 17.0568 28.2357 17.1921 28.3324 17.2888C28.4291 17.3661 28.5258 17.4241 28.6804 17.4241C28.8158 17.4241 28.9317 17.3854 29.0477 17.3274L29.1638 17.2694C29.2024 17.2501 29.2217 17.2308 29.2411 17.2308C29.2797 17.2308 29.3184 17.2501 29.3571 17.3081L29.5698 17.6754C29.4344 17.8108 29.2797 17.9074 29.1057 17.9654C28.8931 18.0234 28.6998 18.0428 28.5064 18.0428ZM32.3151 16.0321C31.9671 16.0514 31.6771 16.0708 31.4257 16.1094C31.1744 16.1481 30.9811 16.2061 30.8264 16.2834C30.6718 16.3608 30.5557 16.4381 30.4977 16.5348C30.4204 16.6314 30.4011 16.7474 30.4011 16.8634C30.4011 16.9794 30.4204 17.0761 30.4591 17.1534C30.4977 17.2308 30.5364 17.3081 30.6138 17.3661C30.6718 17.4241 30.7491 17.4628 30.8457 17.4821C30.9424 17.5014 31.0391 17.5208 31.1164 17.5208C31.3484 17.5208 31.5804 17.4628 31.7931 17.3661C31.9864 17.2501 32.1797 17.1148 32.3344 16.9408L32.3151 16.0321ZM29.8598 14.2728C30.0724 14.0601 30.3431 13.8861 30.6331 13.7508C30.9038 13.6348 31.2131 13.5768 31.5418 13.5768C31.7738 13.5768 32.0058 13.6154 32.1798 13.6928C32.5471 13.8474 32.8371 14.1568 32.9338 14.5434C32.9918 14.7368 33.0304 14.9688 33.0304 15.2008V17.9654H32.7018C32.6438 17.9654 32.5857 17.9654 32.5277 17.9268C32.4891 17.9074 32.4504 17.8494 32.4311 17.7914L32.3538 17.3854L32.0251 17.6754C31.8124 17.8301 31.5611 17.9461 31.3098 18.0041C31.1744 18.0428 31.0198 18.0428 30.8651 18.0428C30.6911 18.0428 30.5364 18.0234 30.4011 17.9848C30.1111 17.9074 29.8791 17.6948 29.7631 17.4241C29.7051 17.2694 29.6664 17.0954 29.6664 16.9214C29.6664 16.7474 29.7051 16.5928 29.8018 16.4381C29.9178 16.2641 30.0724 16.1094 30.2657 16.0128C30.4784 15.8968 30.7491 15.7808 31.0777 15.7228C31.4064 15.6454 31.8318 15.5874 32.3151 15.5874V15.2201C32.3151 14.8914 32.2377 14.6401 32.1024 14.4661C31.9477 14.2921 31.7544 14.2148 31.4644 14.2148C31.2711 14.2148 31.1164 14.2341 31.0004 14.2921C30.8844 14.3308 30.7684 14.3888 30.6718 14.4468L30.4398 14.6014C30.3818 14.6401 30.3044 14.6594 30.2464 14.6594C30.1884 14.6594 30.1497 14.6401 30.1111 14.6208C30.0724 14.6014 30.0337 14.5628 30.0144 14.5241L29.8598 14.2728Z" fill="white"/>
<path d="M0.7435 20.6526L41.3435 20.6526V23.2046L0.7435 23.2046L0.7435 20.6526Z" fill="#D42B21"/>
</g>
<defs>
<clipPath id="clip0_5856_135857">
<rect width="40.6" height="23.2" fill="white" transform="translate(0.75)"/>
</clipPath>
</defs>
</svg>
