<svg width="61" height="35" viewBox="0 0 61 35" fill="none" xmlns="http://www.w3.org/2000/svg">
<g clip-path="url(#clip0_5845_134341)">
<path d="M-0.00976562 0.00708008H60.8902V31.2981H-0.00976562V0.00708008Z" fill="#002147"/>
<path d="M11.8806 9.34501C11.8806 10.041 11.7646 10.65 11.5616 11.23C11.1556 12.332 10.3146 13.231 9.21264 13.666C8.66164 13.898 8.05262 14.014 7.38562 14.014C6.71862 14.014 6.10961 13.898 5.55861 13.666C4.45661 13.231 3.61565 12.332 3.20965 11.23C2.97765 10.621 2.89062 9.98301 2.89062 9.34501C2.89062 8.64901 3.00665 8.04001 3.20965 7.46001C3.44165 6.88001 3.73164 6.38701 4.13764 5.98101C4.54364 5.57501 5.03661 5.227 5.55861 5.024C6.10961 4.792 6.71862 4.67601 7.38562 4.67601C8.05262 4.67601 8.66164 4.792 9.21264 5.024C9.76364 5.256 10.2566 5.57501 10.6336 5.98101C11.0396 6.41601 11.3586 6.90901 11.5616 7.46001C11.7936 8.06901 11.8806 8.70701 11.8806 9.34501ZM10.6047 9.34501C10.6047 8.79401 10.5176 8.27201 10.3726 7.83701C10.2276 7.43101 10.0247 7.02501 9.73465 6.70601C9.44465 6.38701 9.09665 6.15501 8.71965 5.98101C8.28465 5.80701 7.84962 5.72001 7.38562 5.72001C6.89262 5.72001 6.4576 5.80701 6.0516 5.98101C5.6746 6.12601 5.2976 6.38701 5.0366 6.70601C4.7466 7.02501 4.51461 7.43101 4.39861 7.83701C4.25361 8.27201 4.1666 8.79401 4.1666 9.34501C4.1666 9.89601 4.25361 10.418 4.39861 10.853C4.54361 11.259 4.7466 11.665 5.0366 11.984C5.3266 12.303 5.67462 12.535 6.08062 12.68C6.48662 12.854 6.92165 12.912 7.41465 12.912C7.90765 12.912 8.34261 12.825 8.74861 12.68C9.12561 12.535 9.47361 12.274 9.76361 11.984C10.0536 11.665 10.2856 11.259 10.4016 10.853C10.5466 10.418 10.6047 9.92501 10.6047 9.34501ZM18.2316 7.46001V13.927H17.5647C17.3907 13.927 17.3036 13.84 17.2456 13.695L17.1586 12.999C16.8976 13.289 16.5786 13.55 16.2016 13.753C15.8536 13.927 15.4476 14.043 15.0126 14.043C14.6646 14.043 14.3457 13.985 14.0847 13.869C13.8237 13.753 13.5916 13.579 13.4176 13.376C13.2146 13.144 13.0986 12.883 13.0116 12.593C12.9246 12.303 12.8666 11.955 12.8666 11.578V7.46001H13.9976V11.578C13.9976 12.071 14.1136 12.448 14.3456 12.709C14.5776 12.97 14.9256 13.115 15.3606 13.115C15.7086 13.115 15.9986 13.028 16.2886 12.883C16.6076 12.709 16.8686 12.477 17.1006 12.216V7.46001H18.2316ZM20.7256 8.76501C20.8996 8.35901 21.1607 8.01101 21.4797 7.72101C21.7987 7.46001 22.1756 7.34401 22.5816 7.34401C22.7266 7.34401 22.8426 7.34401 22.9586 7.37301C23.0746 7.40201 23.1906 7.46001 23.3066 7.51801L23.2197 8.35901C23.1907 8.47501 23.1326 8.50401 23.0166 8.50401C22.9586 8.50401 22.8716 8.50401 22.7556 8.47501C22.4366 8.41701 22.1176 8.41701 21.8276 8.53301C21.6826 8.59101 21.5376 8.67801 21.3926 8.79401C21.2766 8.91001 21.1607 9.05501 21.0447 9.22901C20.9577 9.40301 20.8706 9.60601 20.7836 9.80901V13.898H19.6526V7.46001H20.2906C20.4066 7.46001 20.4936 7.48901 20.5516 7.51801C20.6096 7.57601 20.6386 7.63401 20.6386 7.75001L20.7256 8.76501ZM38.4447 4.79201L35.6026 13.927H34.5006L32.1806 6.96701C32.1226 6.82201 32.0937 6.67701 32.0647 6.50301C32.0357 6.64801 31.9776 6.82201 31.9486 6.96701L29.6286 13.927H28.5266L25.6847 4.79201H26.6997C26.8157 4.79201 26.9027 4.821 26.9897 4.879C27.0767 4.937 27.1057 4.99501 27.1347 5.08201L29.0197 11.433L29.1066 11.81L29.1936 12.245L29.2806 11.81L29.3966 11.433L31.5426 5.08201C31.5716 5.02401 31.6296 4.937 31.6876 4.879C31.7746 4.821 31.8616 4.79201 31.9486 4.79201H32.2966C32.4126 4.79201 32.4996 4.821 32.5576 4.879C32.6156 4.937 32.6736 4.99501 32.7026 5.08201L34.8486 11.433C34.9356 11.694 34.9936 11.926 35.0516 12.187C35.0806 11.926 35.1386 11.694 35.1966 11.433L37.0816 5.08201C37.1106 4.99501 37.1396 4.937 37.2266 4.879C37.3136 4.821 37.4006 4.79201 37.4876 4.79201H38.4447ZM41.1706 7.34401C41.6346 7.34401 42.0696 7.43101 42.4466 7.57601C43.2006 7.89501 43.7806 8.50401 44.0416 9.28701C44.1866 9.69301 44.2447 10.157 44.2447 10.65C44.2447 11.172 44.1866 11.607 44.0416 12.042C43.8096 12.825 43.2296 13.463 42.4466 13.753C42.0696 13.898 41.6346 13.985 41.1706 13.985C40.7066 13.985 40.2717 13.898 39.8947 13.753C39.5177 13.608 39.1986 13.376 38.9376 13.086C38.6766 12.796 38.4736 12.448 38.3286 12.042C38.1836 11.636 38.1256 11.172 38.1256 10.65C38.1256 10.128 38.1836 9.69301 38.3286 9.28701C38.4736 8.88101 38.6766 8.53301 38.9376 8.24301C39.1986 7.95301 39.5177 7.72101 39.8947 7.57601C40.2717 7.43101 40.6776 7.34401 41.1706 7.34401ZM41.1706 13.115C41.8086 13.115 42.2726 12.912 42.5916 12.477C42.9106 12.042 43.0556 11.462 43.0556 10.679C43.0556 9.89601 42.8816 9.31601 42.5916 8.88101C42.2726 8.44601 41.8086 8.24301 41.1706 8.24301C40.8516 8.24301 40.5617 8.30101 40.3297 8.41701C40.0977 8.53301 39.8946 8.67801 39.7206 8.88101C39.5756 9.08401 39.4306 9.34501 39.3726 9.66401C39.2856 9.95401 39.2566 10.302 39.2566 10.679C39.2566 11.433 39.4306 12.042 39.7206 12.477C40.0396 12.912 40.5036 13.115 41.1706 13.115ZM46.3616 8.76501C46.5356 8.35901 46.7966 8.01101 47.1156 7.72101C47.4346 7.46001 47.8116 7.34401 48.2176 7.34401C48.3626 7.34401 48.4787 7.34401 48.5947 7.37301C48.7107 7.40201 48.8266 7.46001 48.9426 7.51801L48.8556 8.35901C48.8266 8.47501 48.7686 8.50401 48.6526 8.50401C48.5946 8.50401 48.5076 8.50401 48.3916 8.47501C48.0726 8.41701 47.7536 8.41701 47.4636 8.53301C47.3186 8.59101 47.1736 8.67801 47.0286 8.79401C46.9126 8.91001 46.7966 9.05501 46.6806 9.22901C46.5646 9.40301 46.4777 9.60601 46.4197 9.80901V13.898H45.2886V7.46001H45.9266C46.0426 7.46001 46.1296 7.48901 46.1876 7.51801C46.2456 7.57601 46.2747 7.63401 46.2747 7.75001L46.3616 8.76501ZM50.7406 4.53101V13.927H49.6097V4.53101H50.7406ZM56.3956 8.99701C56.2216 8.73601 55.9897 8.53301 55.6997 8.41701C55.4387 8.30101 55.1486 8.24301 54.8586 8.24301C54.2496 8.24301 53.7856 8.47501 53.4666 8.88101C53.1476 9.31601 52.9736 9.92501 52.9736 10.708C52.9736 11.143 53.0027 11.491 53.0897 11.781C53.1477 12.042 53.2636 12.303 53.4086 12.535C53.5536 12.709 53.7276 12.854 53.9306 12.97C54.1336 13.057 54.3656 13.115 54.6266 13.115C55.0036 13.115 55.3226 13.028 55.6126 12.854C55.9026 12.651 56.1636 12.419 56.3956 12.129V8.99701ZM57.5266 4.53101V13.927H56.8597C56.6857 13.927 56.5986 13.84 56.5406 13.695L56.4536 12.912C56.1926 13.231 55.8736 13.492 55.5256 13.724C55.1486 13.927 54.7136 14.043 54.3076 14.043C53.6116 14.072 52.9446 13.753 52.5386 13.202C52.3356 12.912 52.1616 12.564 52.0456 12.158C51.8136 11.259 51.8137 10.302 52.0747 9.40301C52.1907 9.02601 52.3646 8.64901 52.6256 8.33001C53.1186 7.69201 53.8727 7.34401 54.6847 7.37301C55.3517 7.34401 56.0186 7.63401 56.4536 8.12701V4.53101H57.5266ZM13.5047 20.51V26.977H12.3736V20.51H13.5047ZM13.7656 18.48C13.7656 18.596 13.7366 18.712 13.7076 18.799C13.6786 18.886 13.6206 18.973 13.5336 19.06C13.4756 19.118 13.3596 19.176 13.2726 19.234C13.0696 19.321 12.8377 19.321 12.6347 19.234C12.4607 19.147 12.2866 19.002 12.2286 18.799C12.1416 18.596 12.1416 18.364 12.2286 18.161C12.2576 18.074 12.3446 17.958 12.4026 17.9C12.4606 17.813 12.5477 17.755 12.6347 17.726C12.8377 17.639 13.0696 17.639 13.2726 17.726C13.3886 17.784 13.4756 17.813 13.5336 17.9C13.6206 17.958 13.6786 18.045 13.7076 18.161C13.7366 18.277 13.7656 18.364 13.7656 18.48ZM16.0856 21.438C16.2306 21.293 16.3756 21.148 16.5206 21.003C16.8396 20.742 17.1876 20.568 17.5936 20.481C18.1156 20.365 18.6667 20.394 19.1597 20.568C19.4207 20.684 19.6526 20.858 19.8266 21.061C20.0006 21.264 20.1456 21.525 20.2326 21.844C20.3196 22.134 20.3776 22.482 20.3776 22.83V26.948H19.2466V22.859C19.2466 22.366 19.1306 21.989 18.8986 21.728C18.6666 21.467 18.3476 21.322 17.8836 21.322C17.5646 21.322 17.2456 21.409 16.9556 21.554C16.6656 21.728 16.4046 21.931 16.1436 22.221V26.977H15.0126V20.51H15.7086C15.8826 20.51 15.9696 20.597 15.9986 20.742L16.0856 21.438ZM32.8186 22.395C32.8186 23.091 32.7027 23.7 32.4997 24.251C32.2967 24.802 31.9776 25.295 31.5716 25.701C31.1656 26.107 30.7016 26.397 30.1506 26.629C29.5996 26.861 28.9906 26.948 28.3236 26.948H24.9016V17.813H28.3236C28.9906 17.813 29.5996 17.929 30.1506 18.161C31.2526 18.567 32.0937 19.437 32.4997 20.539C32.7027 21.119 32.8186 21.757 32.8186 22.395ZM31.5426 22.395C31.5426 21.844 31.4556 21.322 31.3106 20.887C31.1656 20.481 30.9626 20.104 30.6726 19.756C30.3826 19.437 30.0346 19.205 29.6576 19.06C29.2226 18.886 28.7876 18.799 28.3236 18.828H26.1486V25.962H28.3236C28.8166 25.962 29.2516 25.875 29.6576 25.73C30.0346 25.585 30.3826 25.353 30.6726 25.034C30.9626 24.715 31.1946 24.338 31.3106 23.903C31.4556 23.468 31.5426 22.975 31.5426 22.395ZM37.2847 24.048C36.7627 24.077 36.3276 24.106 35.9506 24.164C35.5736 24.222 35.2836 24.309 35.0516 24.425C34.8196 24.541 34.6456 24.657 34.5586 24.802C34.4426 24.947 34.4136 25.121 34.4136 25.295C34.4136 25.469 34.4426 25.614 34.5006 25.73C34.5586 25.846 34.6166 25.962 34.7326 26.049C34.8196 26.136 34.9356 26.194 35.0806 26.223C35.2256 26.252 35.3706 26.281 35.4866 26.281C35.8346 26.281 36.1826 26.194 36.5016 26.049C36.7916 25.875 37.0816 25.672 37.3136 25.411L37.2847 24.048ZM33.6016 21.409C33.9206 21.09 34.3266 20.829 34.7616 20.626C35.1676 20.452 35.6317 20.365 36.1247 20.365C36.4727 20.365 36.8206 20.423 37.0816 20.539C37.6326 20.771 38.0676 21.235 38.2126 21.815C38.2996 22.105 38.3576 22.453 38.3576 22.801V26.948H37.8647C37.7777 26.948 37.6906 26.948 37.6036 26.89C37.5456 26.861 37.4876 26.774 37.4586 26.687L37.3426 26.078L36.8497 26.513C36.5307 26.745 36.1536 26.919 35.7766 27.006C35.5736 27.064 35.3417 27.064 35.1097 27.064C34.8487 27.064 34.6166 27.035 34.4136 26.977C33.9786 26.861 33.6306 26.542 33.4566 26.136C33.3696 25.904 33.3116 25.643 33.3116 25.382C33.3116 25.121 33.3697 24.889 33.5147 24.657C33.6887 24.396 33.9206 24.164 34.2106 24.019C34.5296 23.845 34.9356 23.671 35.4286 23.584C35.9506 23.468 36.5597 23.381 37.2847 23.381V22.83C37.2847 22.337 37.1686 21.96 36.9656 21.699C36.7336 21.438 36.4436 21.322 36.0086 21.322C35.7186 21.322 35.4866 21.351 35.3126 21.438C35.1386 21.496 34.9647 21.583 34.8197 21.67L34.4716 21.902C34.3846 21.96 34.2686 21.989 34.1816 21.989C34.0946 21.989 34.0366 21.96 33.9786 21.931C33.9206 21.902 33.8626 21.844 33.8336 21.786L33.6016 21.409ZM41.6347 27.064C41.1127 27.064 40.7356 26.919 40.4456 26.629C40.1846 26.339 40.0397 25.933 40.0397 25.411V21.467H39.2566C39.1986 21.467 39.1406 21.438 39.0826 21.409C39.0246 21.38 39.0247 21.293 39.0247 21.206V20.742L40.0686 20.597L40.3297 18.596C40.3297 18.538 40.3586 18.48 40.4166 18.451C40.4746 18.393 40.5326 18.393 40.5906 18.393H41.1706V20.626H43.0266V21.438H41.1706V25.324C41.1706 25.585 41.2286 25.788 41.3736 25.933C41.5186 26.049 41.6636 26.136 41.8956 26.136C42.0986 26.136 42.2726 26.078 42.4466 25.991L42.6206 25.904C42.6786 25.875 42.7076 25.846 42.7366 25.846C42.7946 25.846 42.8526 25.875 42.9106 25.962L43.2297 26.513C43.0267 26.716 42.7946 26.861 42.5336 26.948C42.2146 27.035 41.9247 27.064 41.6347 27.064ZM47.3476 24.048C46.8256 24.077 46.3906 24.106 46.0136 24.164C45.6366 24.222 45.3467 24.309 45.1147 24.425C44.8827 24.541 44.7086 24.657 44.6216 24.802C44.5056 24.947 44.4766 25.121 44.4766 25.295C44.4766 25.469 44.5056 25.614 44.5636 25.73C44.6216 25.846 44.6796 25.962 44.7956 26.049C44.8826 26.136 44.9986 26.194 45.1436 26.223C45.2886 26.252 45.4337 26.281 45.5497 26.281C45.8977 26.281 46.2457 26.194 46.5647 26.049C46.8547 25.875 47.1446 25.672 47.3766 25.411L47.3476 24.048ZM43.6647 21.409C43.9837 21.09 44.3897 20.829 44.8247 20.626C45.2307 20.452 45.6946 20.365 46.1876 20.365C46.5356 20.365 46.8837 20.423 47.1447 20.539C47.6957 20.771 48.1306 21.235 48.2756 21.815C48.3626 22.105 48.4206 22.453 48.4206 22.801V26.948H47.9276C47.8406 26.948 47.7536 26.948 47.6666 26.89C47.6086 26.861 47.5506 26.774 47.5216 26.687L47.4056 26.078L46.9126 26.513C46.5936 26.745 46.2167 26.919 45.8397 27.006C45.6367 27.064 45.4046 27.064 45.1726 27.064C44.9116 27.064 44.6796 27.035 44.4766 26.977C44.0416 26.861 43.6937 26.542 43.5197 26.136C43.4327 25.904 43.3747 25.643 43.3747 25.382C43.3747 25.121 43.4326 24.889 43.5776 24.657C43.7516 24.396 43.9836 24.164 44.2736 24.019C44.5926 23.845 44.9986 23.671 45.4916 23.584C45.9846 23.468 46.6226 23.381 47.3476 23.381V22.83C47.3476 22.337 47.2316 21.96 47.0286 21.699C46.7966 21.438 46.5066 21.322 46.0716 21.322C45.7816 21.322 45.5496 21.351 45.3756 21.438C45.2016 21.496 45.0276 21.583 44.8826 21.67L44.5347 21.902C44.4477 21.96 44.3317 21.989 44.2447 21.989C44.1577 21.989 44.0996 21.96 44.0416 21.931C43.9836 21.902 43.9256 21.844 43.8966 21.786L43.6647 21.409ZM11.8806 9.34501C11.8806 10.041 11.7646 10.65 11.5616 11.23C11.1556 12.332 10.3146 13.231 9.21264 13.666C8.66164 13.898 8.05262 14.014 7.38562 14.014C6.71862 14.014 6.10961 13.898 5.55861 13.666C4.45661 13.231 3.61565 12.332 3.20965 11.23C2.97765 10.621 2.89062 9.98301 2.89062 9.34501C2.89062 8.64901 3.00665 8.04001 3.20965 7.46001C3.44165 6.88001 3.73164 6.38701 4.13764 5.98101C4.54364 5.57501 5.03661 5.227 5.55861 5.024C6.10961 4.792 6.71862 4.67601 7.38562 4.67601C8.05262 4.67601 8.66164 4.792 9.21264 5.024C9.76364 5.256 10.2566 5.57501 10.6336 5.98101C11.0396 6.41601 11.3586 6.90901 11.5616 7.46001C11.7936 8.06901 11.8806 8.70701 11.8806 9.34501ZM10.6047 9.34501C10.6047 8.79401 10.5176 8.27201 10.3726 7.83701C10.2276 7.43101 10.0247 7.02501 9.73465 6.70601C9.44465 6.38701 9.09665 6.15501 8.71965 5.98101C8.28465 5.80701 7.84962 5.72001 7.38562 5.72001C6.89262 5.72001 6.4576 5.80701 6.0516 5.98101C5.6746 6.12601 5.2976 6.38701 5.0366 6.70601C4.7466 7.02501 4.51461 7.43101 4.39861 7.83701C4.25361 8.27201 4.1666 8.79401 4.1666 9.34501C4.1666 9.89601 4.25361 10.418 4.39861 10.853C4.54361 11.259 4.7466 11.665 5.0366 11.984C5.3266 12.303 5.67462 12.535 6.08062 12.68C6.48662 12.854 6.92165 12.912 7.41465 12.912C7.90765 12.912 8.34261 12.825 8.74861 12.68C9.12561 12.535 9.47361 12.274 9.76361 11.984C10.0536 11.665 10.2856 11.259 10.4016 10.853C10.5466 10.418 10.6047 9.92501 10.6047 9.34501ZM18.2316 7.46001V13.927H17.5647C17.3907 13.927 17.3036 13.84 17.2456 13.695L17.1586 12.999C16.8976 13.289 16.5786 13.55 16.2016 13.753C15.8536 13.927 15.4476 14.043 15.0126 14.043C14.6646 14.043 14.3457 13.985 14.0847 13.869C13.8237 13.753 13.5916 13.579 13.4176 13.376C13.2146 13.144 13.0986 12.883 13.0116 12.593C12.9246 12.303 12.8666 11.955 12.8666 11.578V7.46001H13.9976V11.578C13.9976 12.071 14.1136 12.448 14.3456 12.709C14.5776 12.97 14.9256 13.115 15.3606 13.115C15.7086 13.115 15.9986 13.028 16.2886 12.883C16.6076 12.709 16.8686 12.477 17.1006 12.216V7.46001H18.2316ZM20.7256 8.76501C20.8996 8.35901 21.1607 8.01101 21.4797 7.72101C21.7987 7.46001 22.1756 7.34401 22.5816 7.34401C22.7266 7.34401 22.8426 7.34401 22.9586 7.37301C23.0746 7.40201 23.1906 7.46001 23.3066 7.51801L23.2197 8.35901C23.1907 8.47501 23.1326 8.50401 23.0166 8.50401C22.9586 8.50401 22.8716 8.50401 22.7556 8.47501C22.4366 8.41701 22.1176 8.41701 21.8276 8.53301C21.6826 8.59101 21.5376 8.67801 21.3926 8.79401C21.2766 8.91001 21.1607 9.05501 21.0447 9.22901C20.9577 9.40301 20.8706 9.60601 20.7836 9.80901V13.898H19.6526V7.46001H20.2906C20.4066 7.46001 20.4936 7.48901 20.5516 7.51801C20.6096 7.57601 20.6386 7.63401 20.6386 7.75001L20.7256 8.76501ZM38.4447 4.79201L35.6026 13.927H34.5006L32.1806 6.96701C32.1226 6.82201 32.0937 6.67701 32.0647 6.50301C32.0357 6.64801 31.9776 6.82201 31.9486 6.96701L29.6286 13.927H28.5266L25.6847 4.79201H26.6997C26.8157 4.79201 26.9027 4.821 26.9897 4.879C27.0767 4.937 27.1057 4.99501 27.1347 5.08201L29.0197 11.433L29.1066 11.81L29.1936 12.245L29.2806 11.81L29.3966 11.433L31.5426 5.08201C31.5716 5.02401 31.6296 4.937 31.6876 4.879C31.7746 4.821 31.8616 4.79201 31.9486 4.79201H32.2966C32.4126 4.79201 32.4996 4.821 32.5576 4.879C32.6156 4.937 32.6736 4.99501 32.7026 5.08201L34.8486 11.433C34.9356 11.694 34.9936 11.926 35.0516 12.187C35.0806 11.926 35.1386 11.694 35.1966 11.433L37.0816 5.08201C37.1106 4.99501 37.1396 4.937 37.2266 4.879C37.3136 4.821 37.4006 4.79201 37.4876 4.79201H38.4447ZM41.1706 7.34401C41.6346 7.34401 42.0696 7.43101 42.4466 7.57601C43.2006 7.89501 43.7806 8.50401 44.0416 9.28701C44.1866 9.69301 44.2447 10.157 44.2447 10.65C44.2447 11.172 44.1866 11.607 44.0416 12.042C43.8096 12.825 43.2296 13.463 42.4466 13.753C42.0696 13.898 41.6346 13.985 41.1706 13.985C40.7066 13.985 40.2717 13.898 39.8947 13.753C39.5177 13.608 39.1986 13.376 38.9376 13.086C38.6766 12.796 38.4736 12.448 38.3286 12.042C38.1836 11.636 38.1256 11.172 38.1256 10.65C38.1256 10.128 38.1836 9.69301 38.3286 9.28701C38.4736 8.88101 38.6766 8.53301 38.9376 8.24301C39.1986 7.95301 39.5177 7.72101 39.8947 7.57601C40.2717 7.43101 40.6776 7.34401 41.1706 7.34401ZM41.1706 13.115C41.8086 13.115 42.2726 12.912 42.5916 12.477C42.9106 12.042 43.0556 11.462 43.0556 10.679C43.0556 9.89601 42.8816 9.31601 42.5916 8.88101C42.2726 8.44601 41.8086 8.24301 41.1706 8.24301C40.8516 8.24301 40.5617 8.30101 40.3297 8.41701C40.0977 8.53301 39.8946 8.67801 39.7206 8.88101C39.5756 9.08401 39.4306 9.34501 39.3726 9.66401C39.2856 9.95401 39.2566 10.302 39.2566 10.679C39.2566 11.433 39.4306 12.042 39.7206 12.477C40.0396 12.912 40.5036 13.115 41.1706 13.115ZM46.3616 8.76501C46.5356 8.35901 46.7966 8.01101 47.1156 7.72101C47.4346 7.46001 47.8116 7.34401 48.2176 7.34401C48.3626 7.34401 48.4787 7.34401 48.5947 7.37301C48.7107 7.40201 48.8266 7.46001 48.9426 7.51801L48.8556 8.35901C48.8266 8.47501 48.7686 8.50401 48.6526 8.50401C48.5946 8.50401 48.5076 8.50401 48.3916 8.47501C48.0726 8.41701 47.7536 8.41701 47.4636 8.53301C47.3186 8.59101 47.1736 8.67801 47.0286 8.79401C46.9126 8.91001 46.7966 9.05501 46.6806 9.22901C46.5646 9.40301 46.4777 9.60601 46.4197 9.80901V13.898H45.2886V7.46001H45.9266C46.0426 7.46001 46.1296 7.48901 46.1876 7.51801C46.2456 7.57601 46.2747 7.63401 46.2747 7.75001L46.3616 8.76501ZM50.7406 4.53101V13.927H49.6097V4.53101H50.7406ZM56.3956 8.99701C56.2216 8.73601 55.9897 8.53301 55.6997 8.41701C55.4387 8.30101 55.1486 8.24301 54.8586 8.24301C54.2496 8.24301 53.7856 8.47501 53.4666 8.88101C53.1476 9.31601 52.9736 9.92501 52.9736 10.708C52.9736 11.143 53.0027 11.491 53.0897 11.781C53.1477 12.042 53.2636 12.303 53.4086 12.535C53.5536 12.709 53.7276 12.854 53.9306 12.97C54.1336 13.057 54.3656 13.115 54.6266 13.115C55.0036 13.115 55.3226 13.028 55.6126 12.854C55.9026 12.651 56.1636 12.419 56.3956 12.129V8.99701ZM57.5266 4.53101V13.927H56.8597C56.6857 13.927 56.5986 13.84 56.5406 13.695L56.4536 12.912C56.1926 13.231 55.8736 13.492 55.5256 13.724C55.1486 13.927 54.7136 14.043 54.3076 14.043C53.6116 14.072 52.9446 13.753 52.5386 13.202C52.3356 12.912 52.1616 12.564 52.0456 12.158C51.8136 11.259 51.8137 10.302 52.0747 9.40301C52.1907 9.02601 52.3646 8.64901 52.6256 8.33001C53.1186 7.69201 53.8727 7.34401 54.6847 7.37301C55.3517 7.34401 56.0186 7.63401 56.4536 8.12701V4.53101H57.5266ZM13.5047 20.51V26.977H12.3736V20.51H13.5047ZM13.7656 18.48C13.7656 18.596 13.7366 18.712 13.7076 18.799C13.6786 18.886 13.6206 18.973 13.5336 19.06C13.4756 19.118 13.3596 19.176 13.2726 19.234C13.0696 19.321 12.8377 19.321 12.6347 19.234C12.4607 19.147 12.2866 19.002 12.2286 18.799C12.1416 18.596 12.1416 18.364 12.2286 18.161C12.2576 18.074 12.3446 17.958 12.4026 17.9C12.4606 17.813 12.5477 17.755 12.6347 17.726C12.8377 17.639 13.0696 17.639 13.2726 17.726C13.3886 17.784 13.4756 17.813 13.5336 17.9C13.6206 17.958 13.6786 18.045 13.7076 18.161C13.7366 18.277 13.7656 18.364 13.7656 18.48ZM16.0856 21.438C16.2306 21.293 16.3756 21.148 16.5206 21.003C16.8396 20.742 17.1876 20.568 17.5936 20.481C18.1156 20.365 18.6667 20.394 19.1597 20.568C19.4207 20.684 19.6526 20.858 19.8266 21.061C20.0006 21.264 20.1456 21.525 20.2326 21.844C20.3196 22.134 20.3776 22.482 20.3776 22.83V26.948H19.2466V22.859C19.2466 22.366 19.1306 21.989 18.8986 21.728C18.6666 21.467 18.3476 21.322 17.8836 21.322C17.5646 21.322 17.2456 21.409 16.9556 21.554C16.6656 21.728 16.4046 21.931 16.1436 22.221V26.977H15.0126V20.51H15.7086C15.8826 20.51 15.9696 20.597 15.9986 20.742L16.0856 21.438ZM32.8186 22.395C32.8186 23.091 32.7027 23.7 32.4997 24.251C32.2967 24.802 31.9776 25.295 31.5716 25.701C31.1656 26.107 30.7016 26.397 30.1506 26.629C29.5996 26.861 28.9906 26.948 28.3236 26.948H24.9016V17.813H28.3236C28.9906 17.813 29.5996 17.929 30.1506 18.161C31.2526 18.567 32.0937 19.437 32.4997 20.539C32.7027 21.119 32.8186 21.757 32.8186 22.395ZM31.5426 22.395C31.5426 21.844 31.4556 21.322 31.3106 20.887C31.1656 20.481 30.9626 20.104 30.6726 19.756C30.3826 19.437 30.0346 19.205 29.6576 19.06C29.2226 18.886 28.7876 18.799 28.3236 18.828H26.1486V25.962H28.3236C28.8166 25.962 29.2516 25.875 29.6576 25.73C30.0346 25.585 30.3826 25.353 30.6726 25.034C30.9626 24.715 31.1946 24.338 31.3106 23.903C31.4556 23.468 31.5426 22.975 31.5426 22.395ZM37.2847 24.048C36.7627 24.077 36.3276 24.106 35.9506 24.164C35.5736 24.222 35.2836 24.309 35.0516 24.425C34.8196 24.541 34.6456 24.657 34.5586 24.802C34.4426 24.947 34.4136 25.121 34.4136 25.295C34.4136 25.469 34.4426 25.614 34.5006 25.73C34.5586 25.846 34.6166 25.962 34.7326 26.049C34.8196 26.136 34.9356 26.194 35.0806 26.223C35.2256 26.252 35.3706 26.281 35.4866 26.281C35.8346 26.281 36.1826 26.194 36.5016 26.049C36.7916 25.875 37.0816 25.672 37.3136 25.411L37.2847 24.048ZM33.6016 21.409C33.9206 21.09 34.3266 20.829 34.7616 20.626C35.1676 20.452 35.6317 20.365 36.1247 20.365C36.4727 20.365 36.8206 20.423 37.0816 20.539C37.6326 20.771 38.0676 21.235 38.2126 21.815C38.2996 22.105 38.3576 22.453 38.3576 22.801V26.948H37.8647C37.7777 26.948 37.6906 26.948 37.6036 26.89C37.5456 26.861 37.4876 26.774 37.4586 26.687L37.3426 26.078L36.8497 26.513C36.5307 26.745 36.1536 26.919 35.7766 27.006C35.5736 27.064 35.3417 27.064 35.1097 27.064C34.8487 27.064 34.6166 27.035 34.4136 26.977C33.9786 26.861 33.6306 26.542 33.4566 26.136C33.3696 25.904 33.3116 25.643 33.3116 25.382C33.3116 25.121 33.3697 24.889 33.5147 24.657C33.6887 24.396 33.9206 24.164 34.2106 24.019C34.5296 23.845 34.9356 23.671 35.4286 23.584C35.9506 23.468 36.5597 23.381 37.2847 23.381V22.83C37.2847 22.337 37.1686 21.96 36.9656 21.699C36.7336 21.438 36.4436 21.322 36.0086 21.322C35.7186 21.322 35.4866 21.351 35.3126 21.438C35.1386 21.496 34.9647 21.583 34.8197 21.67L34.4716 21.902C34.3846 21.96 34.2686 21.989 34.1816 21.989C34.0946 21.989 34.0366 21.96 33.9786 21.931C33.9206 21.902 33.8626 21.844 33.8336 21.786L33.6016 21.409ZM41.6347 27.064C41.1127 27.064 40.7356 26.919 40.4456 26.629C40.1846 26.339 40.0397 25.933 40.0397 25.411V21.467H39.2566C39.1986 21.467 39.1406 21.438 39.0826 21.409C39.0246 21.38 39.0247 21.293 39.0247 21.206V20.742L40.0686 20.597L40.3297 18.596C40.3297 18.538 40.3586 18.48 40.4166 18.451C40.4746 18.393 40.5326 18.393 40.5906 18.393H41.1706V20.626H43.0266V21.438H41.1706V25.324C41.1706 25.585 41.2286 25.788 41.3736 25.933C41.5186 26.049 41.6636 26.136 41.8956 26.136C42.0986 26.136 42.2726 26.078 42.4466 25.991L42.6206 25.904C42.6786 25.875 42.7076 25.846 42.7366 25.846C42.7946 25.846 42.8526 25.875 42.9106 25.962L43.2297 26.513C43.0267 26.716 42.7946 26.861 42.5336 26.948C42.2146 27.035 41.9247 27.064 41.6347 27.064ZM47.3476 24.048C46.8256 24.077 46.3906 24.106 46.0136 24.164C45.6366 24.222 45.3467 24.309 45.1147 24.425C44.8827 24.541 44.7086 24.657 44.6216 24.802C44.5056 24.947 44.4766 25.121 44.4766 25.295C44.4766 25.469 44.5056 25.614 44.5636 25.73C44.6216 25.846 44.6796 25.962 44.7956 26.049C44.8826 26.136 44.9986 26.194 45.1436 26.223C45.2886 26.252 45.4337 26.281 45.5497 26.281C45.8977 26.281 46.2457 26.194 46.5647 26.049C46.8547 25.875 47.1446 25.672 47.3766 25.411L47.3476 24.048ZM43.6647 21.409C43.9837 21.09 44.3897 20.829 44.8247 20.626C45.2307 20.452 45.6946 20.365 46.1876 20.365C46.5356 20.365 46.8837 20.423 47.1447 20.539C47.6957 20.771 48.1306 21.235 48.2756 21.815C48.3626 22.105 48.4206 22.453 48.4206 22.801V26.948H47.9276C47.8406 26.948 47.7536 26.948 47.6666 26.89C47.6086 26.861 47.5506 26.774 47.5216 26.687L47.4056 26.078L46.9126 26.513C46.5936 26.745 46.2167 26.919 45.8397 27.006C45.6367 27.064 45.4046 27.064 45.1726 27.064C44.9116 27.064 44.6796 27.035 44.4766 26.977C44.0416 26.861 43.6937 26.542 43.5197 26.136C43.4327 25.904 43.3747 25.643 43.3747 25.382C43.3747 25.121 43.4326 24.889 43.5776 24.657C43.7516 24.396 43.9836 24.164 44.2736 24.019C44.5926 23.845 44.9986 23.671 45.4916 23.584C45.9846 23.468 46.6226 23.381 47.3476 23.381V22.83C47.3476 22.337 47.2316 21.96 47.0286 21.699C46.7966 21.438 46.5066 21.322 46.0716 21.322C45.7816 21.322 45.5496 21.351 45.3756 21.438C45.2016 21.496 45.0276 21.583 44.8826 21.67L44.5347 21.902C44.4477 21.96 44.3317 21.989 44.2447 21.989C44.1577 21.989 44.0996 21.96 44.0416 21.931C43.9836 21.902 43.9256 21.844 43.8966 21.786L43.6647 21.409ZM11.8806 9.34501C11.8806 10.041 11.7646 10.65 11.5616 11.23C11.1556 12.332 10.3146 13.231 9.21264 13.666C8.66164 13.898 8.05262 14.014 7.38562 14.014C6.71862 14.014 6.10961 13.898 5.55861 13.666C4.45661 13.231 3.61565 12.332 3.20965 11.23C2.97765 10.621 2.89062 9.98301 2.89062 9.34501C2.89062 8.64901 3.00665 8.04001 3.20965 7.46001C3.44165 6.88001 3.73164 6.38701 4.13764 5.98101C4.54364 5.57501 5.03661 5.227 5.55861 5.024C6.10961 4.792 6.71862 4.67601 7.38562 4.67601C8.05262 4.67601 8.66164 4.792 9.21264 5.024C9.76364 5.256 10.2566 5.57501 10.6336 5.98101C11.0396 6.41601 11.3586 6.90901 11.5616 7.46001C11.7936 8.06901 11.8806 8.70701 11.8806 9.34501ZM10.6047 9.34501C10.6047 8.79401 10.5176 8.27201 10.3726 7.83701C10.2276 7.43101 10.0247 7.02501 9.73465 6.70601C9.44465 6.38701 9.09665 6.15501 8.71965 5.98101C8.28465 5.80701 7.84962 5.72001 7.38562 5.72001C6.89262 5.72001 6.4576 5.80701 6.0516 5.98101C5.6746 6.12601 5.2976 6.38701 5.0366 6.70601C4.7466 7.02501 4.51461 7.43101 4.39861 7.83701C4.25361 8.27201 4.1666 8.79401 4.1666 9.34501C4.1666 9.89601 4.25361 10.418 4.39861 10.853C4.54361 11.259 4.7466 11.665 5.0366 11.984C5.3266 12.303 5.67462 12.535 6.08062 12.68C6.48662 12.854 6.92165 12.912 7.41465 12.912C7.90765 12.912 8.34261 12.825 8.74861 12.68C9.12561 12.535 9.47361 12.274 9.76361 11.984C10.0536 11.665 10.2856 11.259 10.4016 10.853C10.5466 10.418 10.6047 9.92501 10.6047 9.34501ZM18.2316 7.46001V13.927H17.5647C17.3907 13.927 17.3036 13.84 17.2456 13.695L17.1586 12.999C16.8976 13.289 16.5786 13.55 16.2016 13.753C15.8536 13.927 15.4476 14.043 15.0126 14.043C14.6646 14.043 14.3457 13.985 14.0847 13.869C13.8237 13.753 13.5916 13.579 13.4176 13.376C13.2146 13.144 13.0986 12.883 13.0116 12.593C12.9246 12.303 12.8666 11.955 12.8666 11.578V7.46001H13.9976V11.578C13.9976 12.071 14.1136 12.448 14.3456 12.709C14.5776 12.97 14.9256 13.115 15.3606 13.115C15.7086 13.115 15.9986 13.028 16.2886 12.883C16.6076 12.709 16.8686 12.477 17.1006 12.216V7.46001H18.2316ZM20.7256 8.76501C20.8996 8.35901 21.1607 8.01101 21.4797 7.72101C21.7987 7.46001 22.1756 7.34401 22.5816 7.34401C22.7266 7.34401 22.8426 7.34401 22.9586 7.37301C23.0746 7.40201 23.1906 7.46001 23.3066 7.51801L23.2197 8.35901C23.1907 8.47501 23.1326 8.50401 23.0166 8.50401C22.9586 8.50401 22.8716 8.50401 22.7556 8.47501C22.4366 8.41701 22.1176 8.41701 21.8276 8.53301C21.6826 8.59101 21.5376 8.67801 21.3926 8.79401C21.2766 8.91001 21.1607 9.05501 21.0447 9.22901C20.9577 9.40301 20.8706 9.60601 20.7836 9.80901V13.898H19.6526V7.46001H20.2906C20.4066 7.46001 20.4936 7.48901 20.5516 7.51801C20.6096 7.57601 20.6386 7.63401 20.6386 7.75001L20.7256 8.76501ZM38.4447 4.79201L35.6026 13.927H34.5006L32.1806 6.96701C32.1226 6.82201 32.0937 6.67701 32.0647 6.50301C32.0357 6.64801 31.9776 6.82201 31.9486 6.96701L29.6286 13.927H28.5266L25.6847 4.79201H26.6997C26.8157 4.79201 26.9027 4.821 26.9897 4.879C27.0767 4.937 27.1057 4.99501 27.1347 5.08201L29.0197 11.433L29.1066 11.81L29.1936 12.245L29.2806 11.81L29.3966 11.433L31.5426 5.08201C31.5716 5.02401 31.6296 4.937 31.6876 4.879C31.7746 4.821 31.8616 4.79201 31.9486 4.79201H32.2966C32.4126 4.79201 32.4996 4.821 32.5576 4.879C32.6156 4.937 32.6736 4.99501 32.7026 5.08201L34.8486 11.433C34.9356 11.694 34.9936 11.926 35.0516 12.187C35.0806 11.926 35.1386 11.694 35.1966 11.433L37.0816 5.08201C37.1106 4.99501 37.1396 4.937 37.2266 4.879C37.3136 4.821 37.4006 4.79201 37.4876 4.79201H38.4447ZM41.1706 7.34401C41.6346 7.34401 42.0696 7.43101 42.4466 7.57601C43.2006 7.89501 43.7806 8.50401 44.0416 9.28701C44.1866 9.69301 44.2447 10.157 44.2447 10.65C44.2447 11.172 44.1866 11.607 44.0416 12.042C43.8096 12.825 43.2296 13.463 42.4466 13.753C42.0696 13.898 41.6346 13.985 41.1706 13.985C40.7066 13.985 40.2717 13.898 39.8947 13.753C39.5177 13.608 39.1986 13.376 38.9376 13.086C38.6766 12.796 38.4736 12.448 38.3286 12.042C38.1836 11.636 38.1256 11.172 38.1256 10.65C38.1256 10.128 38.1836 9.69301 38.3286 9.28701C38.4736 8.88101 38.6766 8.53301 38.9376 8.24301C39.1986 7.95301 39.5177 7.72101 39.8947 7.57601C40.2717 7.43101 40.6776 7.34401 41.1706 7.34401ZM41.1706 13.115C41.8086 13.115 42.2726 12.912 42.5916 12.477C42.9106 12.042 43.0556 11.462 43.0556 10.679C43.0556 9.89601 42.8816 9.31601 42.5916 8.88101C42.2726 8.44601 41.8086 8.24301 41.1706 8.24301C40.8516 8.24301 40.5617 8.30101 40.3297 8.41701C40.0977 8.53301 39.8946 8.67801 39.7206 8.88101C39.5756 9.08401 39.4306 9.34501 39.3726 9.66401C39.2856 9.95401 39.2566 10.302 39.2566 10.679C39.2566 11.433 39.4306 12.042 39.7206 12.477C40.0396 12.912 40.5036 13.115 41.1706 13.115ZM46.3616 8.76501C46.5356 8.35901 46.7966 8.01101 47.1156 7.72101C47.4346 7.46001 47.8116 7.34401 48.2176 7.34401C48.3626 7.34401 48.4787 7.34401 48.5947 7.37301C48.7107 7.40201 48.8266 7.46001 48.9426 7.51801L48.8556 8.35901C48.8266 8.47501 48.7686 8.50401 48.6526 8.50401C48.5946 8.50401 48.5076 8.50401 48.3916 8.47501C48.0726 8.41701 47.7536 8.41701 47.4636 8.53301C47.3186 8.59101 47.1736 8.67801 47.0286 8.79401C46.9126 8.91001 46.7966 9.05501 46.6806 9.22901C46.5646 9.40301 46.4777 9.60601 46.4197 9.80901V13.898H45.2886V7.46001H45.9266C46.0426 7.46001 46.1296 7.48901 46.1876 7.51801C46.2456 7.57601 46.2747 7.63401 46.2747 7.75001L46.3616 8.76501ZM50.7406 4.53101V13.927H49.6097V4.53101H50.7406ZM56.3956 8.99701C56.2216 8.73601 55.9897 8.53301 55.6997 8.41701C55.4387 8.30101 55.1486 8.24301 54.8586 8.24301C54.2496 8.24301 53.7856 8.47501 53.4666 8.88101C53.1476 9.31601 52.9736 9.92501 52.9736 10.708C52.9736 11.143 53.0027 11.491 53.0897 11.781C53.1477 12.042 53.2636 12.303 53.4086 12.535C53.5536 12.709 53.7276 12.854 53.9306 12.97C54.1336 13.057 54.3656 13.115 54.6266 13.115C55.0036 13.115 55.3226 13.028 55.6126 12.854C55.9026 12.651 56.1636 12.419 56.3956 12.129V8.99701ZM57.5266 4.53101V13.927H56.8597C56.6857 13.927 56.5986 13.84 56.5406 13.695L56.4536 12.912C56.1926 13.231 55.8736 13.492 55.5256 13.724C55.1486 13.927 54.7136 14.043 54.3076 14.043C53.6116 14.072 52.9446 13.753 52.5386 13.202C52.3356 12.912 52.1616 12.564 52.0456 12.158C51.8136 11.259 51.8137 10.302 52.0747 9.40301C52.1907 9.02601 52.3646 8.64901 52.6256 8.33001C53.1186 7.69201 53.8727 7.34401 54.6847 7.37301C55.3517 7.34401 56.0186 7.63401 56.4536 8.12701V4.53101H57.5266ZM13.5047 20.51V26.977H12.3736V20.51H13.5047ZM13.7656 18.48C13.7656 18.596 13.7366 18.712 13.7076 18.799C13.6786 18.886 13.6206 18.973 13.5336 19.06C13.4756 19.118 13.3596 19.176 13.2726 19.234C13.0696 19.321 12.8377 19.321 12.6347 19.234C12.4607 19.147 12.2866 19.002 12.2286 18.799C12.1416 18.596 12.1416 18.364 12.2286 18.161C12.2576 18.074 12.3446 17.958 12.4026 17.9C12.4606 17.813 12.5477 17.755 12.6347 17.726C12.8377 17.639 13.0696 17.639 13.2726 17.726C13.3886 17.784 13.4756 17.813 13.5336 17.9C13.6206 17.958 13.6786 18.045 13.7076 18.161C13.7366 18.277 13.7656 18.364 13.7656 18.48ZM16.0856 21.438C16.2306 21.293 16.3756 21.148 16.5206 21.003C16.8396 20.742 17.1876 20.568 17.5936 20.481C18.1156 20.365 18.6667 20.394 19.1597 20.568C19.4207 20.684 19.6526 20.858 19.8266 21.061C20.0006 21.264 20.1456 21.525 20.2326 21.844C20.3196 22.134 20.3776 22.482 20.3776 22.83V26.948H19.2466V22.859C19.2466 22.366 19.1306 21.989 18.8986 21.728C18.6666 21.467 18.3476 21.322 17.8836 21.322C17.5646 21.322 17.2456 21.409 16.9556 21.554C16.6656 21.728 16.4046 21.931 16.1436 22.221V26.977H15.0126V20.51H15.7086C15.8826 20.51 15.9696 20.597 15.9986 20.742L16.0856 21.438ZM32.8186 22.395C32.8186 23.091 32.7027 23.7 32.4997 24.251C32.2967 24.802 31.9776 25.295 31.5716 25.701C31.1656 26.107 30.7016 26.397 30.1506 26.629C29.5996 26.861 28.9906 26.948 28.3236 26.948H24.9016V17.813H28.3236C28.9906 17.813 29.5996 17.929 30.1506 18.161C31.2526 18.567 32.0937 19.437 32.4997 20.539C32.7027 21.119 32.8186 21.757 32.8186 22.395ZM31.5426 22.395C31.5426 21.844 31.4556 21.322 31.3106 20.887C31.1656 20.481 30.9626 20.104 30.6726 19.756C30.3826 19.437 30.0346 19.205 29.6576 19.06C29.2226 18.886 28.7876 18.799 28.3236 18.828H26.1486V25.962H28.3236C28.8166 25.962 29.2516 25.875 29.6576 25.73C30.0346 25.585 30.3826 25.353 30.6726 25.034C30.9626 24.715 31.1946 24.338 31.3106 23.903C31.4556 23.468 31.5426 22.975 31.5426 22.395ZM37.2847 24.048C36.7627 24.077 36.3276 24.106 35.9506 24.164C35.5736 24.222 35.2836 24.309 35.0516 24.425C34.8196 24.541 34.6456 24.657 34.5586 24.802C34.4426 24.947 34.4136 25.121 34.4136 25.295C34.4136 25.469 34.4426 25.614 34.5006 25.73C34.5586 25.846 34.6166 25.962 34.7326 26.049C34.8196 26.136 34.9356 26.194 35.0806 26.223C35.2256 26.252 35.3706 26.281 35.4866 26.281C35.8346 26.281 36.1826 26.194 36.5016 26.049C36.7916 25.875 37.0816 25.672 37.3136 25.411L37.2847 24.048ZM33.6016 21.409C33.9206 21.09 34.3266 20.829 34.7616 20.626C35.1676 20.452 35.6317 20.365 36.1247 20.365C36.4727 20.365 36.8206 20.423 37.0816 20.539C37.6326 20.771 38.0676 21.235 38.2126 21.815C38.2996 22.105 38.3576 22.453 38.3576 22.801V26.948H37.8647C37.7777 26.948 37.6906 26.948 37.6036 26.89C37.5456 26.861 37.4876 26.774 37.4586 26.687L37.3426 26.078L36.8497 26.513C36.5307 26.745 36.1536 26.919 35.7766 27.006C35.5736 27.064 35.3417 27.064 35.1097 27.064C34.8487 27.064 34.6166 27.035 34.4136 26.977C33.9786 26.861 33.6306 26.542 33.4566 26.136C33.3696 25.904 33.3116 25.643 33.3116 25.382C33.3116 25.121 33.3697 24.889 33.5147 24.657C33.6887 24.396 33.9206 24.164 34.2106 24.019C34.5296 23.845 34.9356 23.671 35.4286 23.584C35.9506 23.468 36.5597 23.381 37.2847 23.381V22.83C37.2847 22.337 37.1686 21.96 36.9656 21.699C36.7336 21.438 36.4436 21.322 36.0086 21.322C35.7186 21.322 35.4866 21.351 35.3126 21.438C35.1386 21.496 34.9647 21.583 34.8197 21.67L34.4716 21.902C34.3846 21.96 34.2686 21.989 34.1816 21.989C34.0946 21.989 34.0366 21.96 33.9786 21.931C33.9206 21.902 33.8626 21.844 33.8336 21.786L33.6016 21.409ZM41.6347 27.064C41.1127 27.064 40.7356 26.919 40.4456 26.629C40.1846 26.339 40.0397 25.933 40.0397 25.411V21.467H39.2566C39.1986 21.467 39.1406 21.438 39.0826 21.409C39.0246 21.38 39.0247 21.293 39.0247 21.206V20.742L40.0686 20.597L40.3297 18.596C40.3297 18.538 40.3586 18.48 40.4166 18.451C40.4746 18.393 40.5326 18.393 40.5906 18.393H41.1706V20.626H43.0266V21.438H41.1706V25.324C41.1706 25.585 41.2286 25.788 41.3736 25.933C41.5186 26.049 41.6636 26.136 41.8956 26.136C42.0986 26.136 42.2726 26.078 42.4466 25.991L42.6206 25.904C42.6786 25.875 42.7076 25.846 42.7366 25.846C42.7946 25.846 42.8526 25.875 42.9106 25.962L43.2297 26.513C43.0267 26.716 42.7946 26.861 42.5336 26.948C42.2146 27.035 41.9247 27.064 41.6347 27.064ZM47.3476 24.048C46.8256 24.077 46.3906 24.106 46.0136 24.164C45.6366 24.222 45.3467 24.309 45.1147 24.425C44.8827 24.541 44.7086 24.657 44.6216 24.802C44.5056 24.947 44.4766 25.121 44.4766 25.295C44.4766 25.469 44.5056 25.614 44.5636 25.73C44.6216 25.846 44.6796 25.962 44.7956 26.049C44.8826 26.136 44.9986 26.194 45.1436 26.223C45.2886 26.252 45.4337 26.281 45.5497 26.281C45.8977 26.281 46.2457 26.194 46.5647 26.049C46.8547 25.875 47.1446 25.672 47.3766 25.411L47.3476 24.048ZM43.6647 21.409C43.9837 21.09 44.3897 20.829 44.8247 20.626C45.2307 20.452 45.6946 20.365 46.1876 20.365C46.5356 20.365 46.8837 20.423 47.1447 20.539C47.6957 20.771 48.1306 21.235 48.2756 21.815C48.3626 22.105 48.4206 22.453 48.4206 22.801V26.948H47.9276C47.8406 26.948 47.7536 26.948 47.6666 26.89C47.6086 26.861 47.5506 26.774 47.5216 26.687L47.4056 26.078L46.9126 26.513C46.5936 26.745 46.2167 26.919 45.8397 27.006C45.6367 27.064 45.4046 27.064 45.1726 27.064C44.9116 27.064 44.6796 27.035 44.4766 26.977C44.0416 26.861 43.6937 26.542 43.5197 26.136C43.4327 25.904 43.3747 25.643 43.3747 25.382C43.3747 25.121 43.4326 24.889 43.5776 24.657C43.7516 24.396 43.9836 24.164 44.2736 24.019C44.5926 23.845 44.9986 23.671 45.4916 23.584C45.9846 23.468 46.6226 23.381 47.3476 23.381V22.83C47.3476 22.337 47.2316 21.96 47.0286 21.699C46.7966 21.438 46.5066 21.322 46.0716 21.322C45.7816 21.322 45.5496 21.351 45.3756 21.438C45.2016 21.496 45.0276 21.583 44.8826 21.67L44.5347 21.902C44.4477 21.96 44.3317 21.989 44.2447 21.989C44.1577 21.989 44.0996 21.96 44.0416 21.931C43.9836 21.902 43.9256 21.844 43.8966 21.786L43.6647 21.409Z" fill="white"/>
<path d="M-0.00976562 30.9791H60.8902V34.8071H-0.00976562V30.9791Z" fill="#D42B21"/>
</g>
<defs>
<clipPath id="clip0_5845_134341">
<rect width="60.9" height="34.8" fill="white"/>
</clipPath>
</defs>
</svg>
