<svg width="47" height="23" viewBox="0 0 47 23" fill="none" xmlns="http://www.w3.org/2000/svg">
<path d="M7.91247 14.6263C9.35753 14.6263 10.4363 14.3612 11.1189 13.8386C11.7942 13.3214 12.2606 12.4252 12.505 11.1751C12.733 10.0067 12.6461 9.19083 12.2471 8.75055C11.839 8.30086 10.9567 8.07279 9.62486 8.07279H7.31552L6.03527 14.6263H7.91247ZM0.359221 22.6991C0.252024 22.6991 0.150217 22.6515 0.0820661 22.569C0.0137955 22.4867 -0.0138727 22.3783 0.00660852 22.2735L3.39954 4.90647C3.43236 4.73858 3.58028 4.61728 3.75227 4.61728H11.0649C13.3631 4.61728 15.0737 5.23808 16.1489 6.46264C17.2299 7.69364 17.5637 9.41437 17.141 11.5769C16.969 12.458 16.6731 13.2762 16.2617 14.0088C15.8498 14.7422 15.3055 15.4208 14.6435 16.0261C13.8511 16.7639 12.9542 17.2989 11.9802 17.6137C11.0217 17.9243 9.79063 18.0819 8.32137 18.0819H5.36034L4.51475 22.4098C4.48193 22.5778 4.33413 22.6991 4.16213 22.6991H0.359221Z" fill="#777BB3"/>
<path d="M25.8603 18.0819C25.753 18.0819 25.6513 18.0342 25.5832 17.9518C25.5148 17.8694 25.4871 17.7611 25.5076 17.6562L27.0085 9.97202C27.1512 9.24124 27.116 8.71671 26.9094 8.49508C26.7829 8.3596 26.403 8.13237 25.2797 8.13237H22.5606L20.6735 17.7926C20.6407 17.9606 20.4928 18.0819 20.3208 18.0819H16.548C16.4406 18.0819 16.3389 18.0342 16.2707 17.9518C16.2024 17.8694 16.1747 17.761 16.1952 17.6562L19.5882 0.289191C19.621 0.121301 19.7689 0 19.9409 0H23.7137C23.8211 0 23.9228 0.0476627 23.991 0.129999C24.0593 0.212455 24.087 0.320768 24.0665 0.425625L23.2477 4.61728H26.1728C28.4012 4.61728 29.9123 5.00811 30.7924 5.81217C31.6895 6.63244 31.9694 7.94399 31.6244 9.71083L30.0458 17.7926C30.013 17.9606 29.8652 18.0819 29.6931 18.0819H25.8603Z" fill="#777BB3"/>
<path d="M37.5941 14.6263C39.0391 14.6263 40.1179 14.3612 40.8005 13.8386C41.4758 13.3215 41.9422 12.4253 42.1868 11.1751C42.4147 10.0067 42.3279 9.19083 41.9287 8.75055C41.5206 8.30086 40.6384 8.07279 39.3065 8.07279H36.9971L35.7169 14.6263H37.5941ZM30.041 22.6991C29.9338 22.6991 29.832 22.6515 29.7638 22.569C29.6955 22.4867 29.6677 22.3783 29.6882 22.2735L33.0812 4.90647C33.1141 4.73858 33.2619 4.61728 33.434 4.61728H40.7465C43.0448 4.61728 44.7553 5.23808 45.8306 6.46264C46.9116 7.69352 47.2453 9.41425 46.8227 11.5769C46.6505 12.458 46.3548 13.2762 45.9433 14.0088C45.5314 14.7422 44.9871 15.4208 44.3251 16.0261C43.5327 16.7639 42.6358 17.2989 41.6618 17.6137C40.7033 17.9243 39.4722 18.0819 38.003 18.0819H35.0418L34.1966 22.4098C34.1637 22.5778 34.0159 22.6991 33.8438 22.6991H30.041Z" fill="#777BB3"/>
</svg>
