<svg width="25" height="25" viewBox="0 0 25 25" fill="none" xmlns="http://www.w3.org/2000/svg">
<path d="M12.4824 0.9375C6.09353 0.9375 0.919922 6.11111 0.919922 12.5C0.919922 17.3958 3.95812 21.5799 8.26367 23.2639C8.15951 22.3438 8.0727 20.9549 8.2984 19.9479C8.50673 19.0451 9.65256 14.2014 9.65256 14.2014C9.65256 14.2014 9.30534 13.5069 9.30534 12.4826C9.30534 10.8681 10.2428 9.67014 11.3887 9.67014C12.3783 9.67014 12.847 10.4167 12.847 11.3021C12.847 12.2917 12.222 13.7847 11.8921 15.1563C11.6144 16.3021 12.4651 17.2396 13.6109 17.2396C15.6595 17.2396 17.2394 15.0694 17.2394 11.9444C17.2394 9.18403 15.2428 7.23958 12.413 7.23958C9.13173 7.23958 7.18728 9.70486 7.18728 12.2569C7.18728 13.2465 7.56923 14.3229 8.05534 14.8958C8.14215 15.0174 8.15951 15.1042 8.14215 15.2257C8.05534 15.5903 7.86437 16.3715 7.82964 16.5278C7.77756 16.7361 7.65603 16.7882 7.4477 16.684C6.00673 16.0069 5.10395 13.9063 5.10395 12.2049C5.10395 8.55903 7.7602 5.20833 12.7428 5.20833C16.7533 5.20833 19.8609 8.07292 19.8609 11.875C19.8609 15.8507 17.3435 19.0625 13.8713 19.0625C12.7081 19.0625 11.597 18.4549 11.2151 17.7431C11.2151 17.7431 10.6421 19.9479 10.5033 20.4861C10.2428 21.4931 9.53103 22.7431 9.06228 23.5243C10.1387 23.8542 11.2845 24.0451 12.4824 24.0451C18.8713 24.0451 24.0449 18.8715 24.0449 12.4826C24.0449 6.11111 18.8713 0.9375 12.4824 0.9375Z" fill="#3F6587"/>
</svg>
