<svg width="25" height="25" viewBox="0 0 25 25" fill="none" xmlns="http://www.w3.org/2000/svg">
<path d="M12.5 2.04785C18.2996 2.04785 23 6.74824 23 12.5479C23 18.3475 18.2996 23.0479 12.5 23.0479C6.70039 23.0479 2 18.3475 2 12.5479C2 6.74824 6.70039 2.04785 12.5 2.04785ZM12.5 21.7354C13.185 21.7354 14.157 21.1447 15.0389 19.3852C15.4449 18.573 15.7854 17.5559 15.9904 16.4854H8.97266C9.21465 17.5559 9.55508 18.573 9.96113 19.3852C10.843 21.1447 11.815 21.7354 12.5 21.7354ZM8.73887 15.1729H16.2611C16.376 14.3443 16.4375 13.4625 16.4375 12.5479C16.4375 11.6332 16.376 10.7514 16.2611 9.92285H8.73887C8.62402 10.7514 8.5625 11.6332 8.5625 12.5479C8.5625 13.4625 8.62402 14.3443 8.73887 15.1729ZM15.9904 8.61035C15.7854 7.50293 15.4449 6.52266 15.0389 5.71014C14.157 3.94975 13.185 3.36035 12.5 3.36035C11.815 3.36035 10.843 3.94975 9.96113 5.71014C9.55508 6.52266 9.21465 7.50293 8.97266 8.61035H15.9904ZM17.549 9.92285C17.6926 10.7637 17.75 11.6414 17.75 12.5479C17.75 13.4543 17.6926 14.332 17.549 15.1729H21.3061C21.5563 14.3402 21.6875 13.4584 21.6875 12.5479C21.6875 11.6373 21.5563 10.7555 21.3061 9.92285H17.549ZM15.4326 3.83859C16.2939 5.00057 16.9748 6.65801 17.3686 8.61035H20.8016C19.7434 6.375 17.8033 4.63676 15.4326 3.83859ZM9.56738 3.83859C7.19668 4.63676 5.25828 6.375 4.1968 8.61035H7.63145C8.0252 6.65801 8.70605 5.00057 9.56738 3.83859ZM3.3125 12.5479C3.3125 13.4584 3.44539 14.3402 3.69312 15.1729H7.41406C7.30742 14.332 7.25 13.4543 7.25 12.5479C7.25 11.6414 7.30742 10.7637 7.41406 9.92285H3.69312C3.44539 10.7555 3.3125 11.6373 3.3125 12.5479ZM20.8016 16.4854H17.3686C16.9748 18.4377 16.2939 20.0947 15.4326 21.2555C17.8033 20.4598 19.7434 18.7207 20.8016 16.4854ZM7.63145 16.4854H4.1968C5.25828 18.7207 7.19668 20.4598 9.56738 21.2555C8.70605 20.0947 8.0252 18.4377 7.63145 16.4854Z" fill="#3F6587"/>
</svg>
