<svg width="47" height="47" viewBox="0 0 47 47" fill="none" xmlns="http://www.w3.org/2000/svg">
<path d="M39.2785 0H26.8198C25.7486 0 24.8801 0.868425 24.8801 1.93968V45.0603C24.8801 46.1316 25.7486 47 26.8198 47H39.2785C40.3498 47 41.2182 46.1316 41.2182 45.0603V1.93968C41.2182 0.868425 40.3498 0 39.2785 0Z" fill="url(#paint0_linear_5838_133777)"/>
<path d="M31.5945 45.0603V46.9999H29.6548H17.196C16.1248 46.9999 15.2563 46.1315 15.2563 45.0603V13.6523C15.2563 12.5811 16.1248 11.7126 17.196 11.7126H29.6548C30.726 11.7126 31.5945 12.5811 31.5945 13.6523V45.0603Z" fill="url(#paint1_linear_5838_133777)"/>
<path fill-rule="evenodd" clip-rule="evenodd" d="M22.1198 45.0603V47H20.1801H7.72142C6.65016 47 5.78174 46.1316 5.78174 45.0603V25.4397C5.78174 24.3684 6.65016 23.5 7.72142 23.5H20.1801C21.2514 23.5 22.1198 24.3684 22.1198 25.4397V45.0603Z" fill="url(#paint2_linear_5838_133777)"/>
<defs>
<linearGradient id="paint0_linear_5838_133777" x1="33.0492" y1="0" x2="33.0492" y2="47" gradientUnits="userSpaceOnUse">
<stop stop-color="#EBBB14"/>
<stop offset="1" stop-color="#B25400"/>
</linearGradient>
<linearGradient id="paint1_linear_5838_133777" x1="23.4254" y1="11.7126" x2="23.4254" y2="46.9999" gradientUnits="userSpaceOnUse">
<stop stop-color="#F9E583"/>
<stop offset="1" stop-color="#DE9800"/>
</linearGradient>
<linearGradient id="paint2_linear_5838_133777" x1="13.9508" y1="23.5" x2="13.9508" y2="47" gradientUnits="userSpaceOnUse">
<stop stop-color="#F9E68B"/>
<stop offset="1" stop-color="#F3CD32"/>
</linearGradient>
</defs>
</svg>
