<svg width="48" height="47" viewBox="0 0 48 47" fill="none" xmlns="http://www.w3.org/2000/svg">
<path d="M23.4035 0C11.4347 8.5434e-07 12.1821 5.19279 12.1821 5.19279L12.1954 10.5725H23.617V12.1877H7.65883C7.65883 12.1877 0 11.3187 0 23.4009C-8.53947e-07 35.4831 6.6848 35.0546 6.6848 35.0546H10.6743V29.448C10.6743 29.448 10.4593 22.7602 17.2524 22.7602C24.0455 22.7602 28.5805 22.7602 28.5805 22.7602C28.5805 22.7602 34.9451 22.8631 34.9451 16.6062C34.9451 10.3494 34.9451 6.26071 34.9451 6.26071C34.9451 6.26071 35.9114 0 23.4035 0ZM17.1056 3.6176C18.242 3.6176 19.1604 4.53647 19.1604 5.67335C19.1604 6.81023 18.242 7.72911 17.1056 7.72911C15.9693 7.72911 15.0508 6.81023 15.0508 5.67335C15.0508 4.53647 15.9693 3.6176 17.1056 3.6176Z" fill="url(#paint0_linear_5838_133773)"/>
<path d="M23.7428 46.9218C35.7116 46.9218 34.9642 41.729 34.9642 41.729L34.9508 36.3493H23.5293V34.7341H39.4874C39.4874 34.7341 47.1462 35.603 47.1462 23.5208C47.1462 11.4387 40.4614 11.8671 40.4614 11.8671H36.4719V17.4737C36.4719 17.4737 36.687 24.1616 29.8939 24.1616C23.1008 24.1616 18.5657 24.1616 18.5657 24.1616C18.5657 24.1616 12.2011 24.0587 12.2011 30.3155C12.2011 36.5724 12.2011 40.661 12.2011 40.661C12.2011 40.661 11.2348 46.9218 23.7428 46.9218ZM30.0406 43.3042C28.9043 43.3042 27.9858 42.3853 27.9858 41.2484C27.9858 40.1115 28.9043 39.1926 30.0406 39.1926C31.177 39.1926 32.0954 40.1115 32.0954 41.2484C32.0954 42.3853 31.177 43.3042 30.0406 43.3042Z" fill="url(#paint1_linear_5838_133773)"/>
<defs>
<linearGradient id="paint0_linear_5838_133773" x1="4.5309" y1="4.10148" x2="27.8544" y2="27.4922" gradientUnits="userSpaceOnUse">
<stop stop-color="#387EB8"/>
<stop offset="1" stop-color="#366994"/>
</linearGradient>
<linearGradient id="paint1_linear_5838_133773" x1="18.8713" y1="18.9873" x2="43.9203" y2="42.9744" gradientUnits="userSpaceOnUse">
<stop stop-color="#FFE052"/>
<stop offset="1" stop-color="#FFC331"/>
</linearGradient>
</defs>
</svg>
