<svg width="101" height="113" viewBox="0 0 101 113" fill="none" xmlns="http://www.w3.org/2000/svg">
<path d="M100.46 78.1238C100.17 77.0612 99.6732 76.0664 98.9974 75.1966C98.3215 74.3269 97.4804 73.5993 96.5224 73.0558C95.7456 72.6211 94.9062 72.3093 94.0341 72.1313L94.1368 40.3309C95.0041 40.1552 95.8369 39.8391 96.6023 39.3949C98.509 38.275 99.8964 36.4475 100.463 34.31C101.029 32.1725 100.729 29.8978 99.6271 27.9806C99.0786 27.0248 98.3448 26.1881 97.4686 25.5197C96.5925 24.8514 95.5916 24.3647 94.5249 24.0883C93.8206 23.9031 93.0958 23.8073 92.3676 23.803C90.8905 23.8007 89.4399 24.1949 88.1671 24.9444C87.7633 25.1626 87.3811 25.4187 87.0257 25.7092L59.403 9.59211C59.4607 9.21431 59.4912 8.83285 59.4943 8.45068C59.5029 7.25784 59.2572 6.07685 58.7733 4.98652C58.2895 3.8962 57.5786 2.92158 56.6883 2.12771C55.798 1.33384 54.7486 0.738965 53.6101 0.382767C52.4717 0.026568 51.2703 -0.0827655 50.0863 0.0620692C48.9023 0.206904 47.7627 0.602575 46.7437 1.22268C45.7247 1.84278 44.8496 2.67307 44.1769 3.65814C43.5041 4.64321 43.0492 5.76042 42.8424 6.93523C42.6356 8.11004 42.6817 9.31543 42.9777 10.471L15.5034 26.6337C14.632 25.6193 13.5307 24.8279 12.2913 24.3255C11.052 23.8231 9.71045 23.6242 8.37864 23.7455C7.04684 23.8668 5.7633 24.3047 4.63509 25.0228C3.50687 25.7408 2.56667 26.7181 1.89283 27.8733C1.219 29.0284 0.831071 30.3279 0.761396 31.6634C0.691721 32.9989 0.942304 34.3317 1.49228 35.5507C2.04225 36.7697 2.87568 37.8396 3.92305 38.6711C4.97042 39.5026 6.2014 40.0717 7.51335 40.3309L7.43344 72.097C6.25208 72.3545 5.14045 72.8646 4.17488 73.5923C3.20931 74.32 2.41268 75.2482 1.83973 76.3129C1.26678 77.3776 0.931068 78.5537 0.855656 79.7605C0.780244 80.9672 0.966922 82.176 1.40286 83.3037C1.8388 84.4315 2.51367 85.4516 3.38112 86.2938C4.24858 87.1361 5.28807 87.7807 6.42819 88.1832C7.56831 88.5857 8.78205 88.7367 9.98605 88.6258C11.19 88.5149 12.3558 88.1447 13.4032 87.5406C14.0838 87.1365 14.706 86.6411 15.2523 86.0682L42.9549 102.219C42.8227 102.823 42.7538 103.439 42.7494 104.057C42.7078 105.184 42.8939 106.308 43.2965 107.361C43.6991 108.415 44.3099 109.376 45.0925 110.188C45.8752 111.001 46.8135 111.646 47.8514 112.088C48.8893 112.529 50.0055 112.756 51.1333 112.756C52.261 112.756 53.3772 112.529 54.4151 112.088C55.453 111.646 56.3913 111.001 57.174 110.188C57.9566 109.376 58.5674 108.415 58.97 107.361C59.3726 106.308 59.5587 105.184 59.5171 104.057C59.5132 103.348 59.4212 102.643 59.2431 101.957L86.2495 85.9769C87.0298 86.8123 87.9736 87.4784 89.0221 87.9339C90.0706 88.3895 91.2015 88.6247 92.3447 88.625C93.6371 88.6292 94.913 88.3343 96.0725 87.7634C97.232 87.1926 98.2437 86.3612 99.0285 85.3343C99.8133 84.3075 100.35 83.113 100.596 81.8443C100.843 80.5756 100.792 79.267 100.449 78.0211L100.46 78.1238ZM87.5621 30.9141C87.8421 29.8534 88.4654 28.9153 89.3347 28.2462C90.2041 27.5771 91.2706 27.2148 92.3676 27.2158C92.7989 27.2127 93.2287 27.2664 93.646 27.3756C94.5975 27.6274 95.4531 28.1556 96.1044 28.8935C96.7558 29.6315 97.1737 30.546 97.3053 31.5215C97.4369 32.4969 97.2762 33.4895 96.8437 34.3737C96.4112 35.2578 95.7262 35.9939 94.8754 36.4888C94.0245 36.9836 93.046 37.2151 92.0636 37.1538C91.0813 37.0926 90.1391 36.7414 89.3563 36.1447C88.5735 35.548 87.9852 34.7326 87.6659 33.8015C87.3465 32.8705 87.3104 31.8657 87.5621 30.9141ZM90.7125 40.3309L90.6212 72.1084L90.1532 72.2226H90.0505L74.4014 44.383L85.9984 37.5344C87.2129 38.9674 88.8727 39.952 90.7125 40.3309ZM58.2501 12.8109L84.9026 28.3459C84.6358 28.8753 84.4217 29.4296 84.2634 30.0009C83.8729 31.5022 83.9044 33.0822 84.3547 34.5667L72.7235 41.4153L57.3141 14.0209C57.6618 13.6629 57.9751 13.2731 58.2501 12.8566V12.8109ZM69.79 43.1731L61.526 48.047C58.7409 44.0177 55.8188 40.1597 52.9082 36.5185L52.9652 16.5548C53.5048 16.4317 54.032 16.2598 54.5404 16.0412L69.79 43.1731ZM84.4574 77.5531C84.3412 77.8932 84.2459 78.2401 84.1721 78.5918H52.794V71.7432C59.5209 71.7432 66.1945 71.4122 72.8148 70.7501L84.4574 77.5531ZM29.6686 70.7844C36.2813 71.3627 42.8407 71.6861 49.3469 71.7546V78.6032L17.3868 78.6032C17.3868 78.4434 17.3069 78.295 17.2726 78.1352L29.6686 70.7844ZM62.7702 68.0792L56.2412 64.6549C54.2499 65.8775 51.885 66.3423 49.5792 65.9642C47.2733 65.5861 45.1807 64.3904 43.6841 62.596C42.1876 60.8015 41.3872 58.5281 41.4293 56.1919C41.4715 53.8556 42.3534 51.6126 43.9137 49.8733C45.5393 48.0829 47.7738 46.9623 50.181 46.7304C52.5882 46.4985 54.9955 47.1718 56.9331 48.6189C58.8707 50.066 60.1996 52.1832 60.6605 54.5572C61.1213 56.9313 60.6811 59.3919 59.4258 61.4589L62.8501 67.9879C62.8641 68.0094 62.8695 68.0354 62.8653 68.0608C62.8611 68.0862 62.8475 68.109 62.8273 68.1248L62.7702 68.0792ZM51.0819 3.40552C52.0704 3.38738 53.0418 3.66407 53.8724 4.20027C54.703 4.73648 55.355 5.50792 55.7454 6.41621C56.1358 7.3245 56.2468 8.32846 56.0643 9.3001C55.8818 10.2717 55.414 11.167 54.7206 11.8717C54.0273 12.5764 53.1397 13.0587 52.1712 13.2569C51.2026 13.4552 50.197 13.3604 49.2825 12.9849C48.368 12.6093 47.5861 11.9698 47.0365 11.148C46.4869 10.3262 46.1945 9.35939 46.1966 8.37077C46.2115 7.0667 46.7377 5.82059 47.662 4.90055C48.5863 3.98052 49.8348 3.46008 51.139 3.45119L51.0819 3.40552ZM47.8402 16.1097C48.3748 16.3263 48.9291 16.4907 49.4953 16.6005L49.4382 37.0664C46.4591 40.4907 43.5827 44.2118 40.7747 48.1612L32.3053 43.2302L47.8402 16.1097ZM44.4159 13.473C44.5976 13.7115 44.7919 13.9401 44.998 14.1578L29.3262 41.5523L17.1585 34.464C17.5809 32.9946 17.5809 31.436 17.1585 29.9667C17.1311 29.8581 17.0968 29.7513 17.0557 29.6471L44.4159 13.473ZM15.5833 37.4431L27.6254 44.4743L11.6453 72.3367C11.3492 72.2409 11.0482 72.1609 10.7436 72.097L10.8235 40.3195L11.3029 40.2282C13.0145 39.8035 14.546 38.8438 15.6746 37.4887L15.5833 37.4431ZM6.64587 36.4615C5.68748 35.9216 4.93548 35.0788 4.50793 34.0653C4.08037 33.0518 4.00146 31.925 4.28358 30.8619C4.5657 29.7987 5.19288 28.8593 6.06667 28.1911C6.94046 27.5229 8.01139 27.1638 9.11135 27.1702C9.96884 27.1668 10.8118 27.3914 11.554 27.8208C12.1243 28.1402 12.625 28.5702 13.0268 29.0857C13.4287 29.6012 13.7235 30.1918 13.894 30.8228C14.2488 32.0866 14.0874 33.4397 13.4454 34.5847C12.8033 35.7297 11.7331 36.573 10.4697 36.9295C9.84032 37.1057 9.18221 37.1551 8.5336 37.0748C7.88499 36.9944 7.25884 36.786 6.69152 36.4615H6.64587ZM11.5997 84.5957C10.8449 85.0374 9.98591 85.2699 9.11135 85.2692C8.23654 85.2744 7.37581 85.0488 6.61593 84.6154C5.85605 84.1819 5.22386 83.5558 4.78308 82.8001C4.3423 82.0444 4.10851 81.1859 4.10527 80.3111C4.10202 79.4362 4.32944 78.576 4.7646 77.8171C5.19976 77.0582 5.82729 76.4274 6.58394 75.9883C7.34058 75.5492 8.1996 75.3173 9.07443 75.316C9.94926 75.3147 10.809 75.544 11.5669 75.9808C12.3249 76.4177 12.9543 77.0466 13.3917 77.8042C13.7312 78.3642 13.9566 78.9858 14.0548 79.6333C14.153 80.2807 14.1222 80.9412 13.9642 81.5767C13.8061 82.2122 13.5238 82.8102 13.1337 83.3361C12.7436 83.8621 12.2533 84.3057 11.691 84.6414L11.5997 84.5957ZM14.6359 74.0146L30.616 46.1865L38.8229 50.9805C35.3073 56.117 31.9743 61.6301 28.6299 67.4286L15.6746 75.0762C15.3886 74.7109 15.0717 74.371 14.7272 74.0603L14.6359 74.0146ZM44.3132 99.1262L16.9873 83.1461C17.1215 82.7739 17.2283 82.3924 17.3069 82.0047L49.267 82.0047V95.8845C47.3033 96.3593 45.5743 97.5214 44.3931 99.1604L44.3132 99.1262ZM51.0591 109.057C50.0748 109.057 49.1126 108.765 48.2942 108.218C47.4758 107.671 46.8379 106.894 46.4612 105.984C46.0846 105.075 45.986 104.074 46.178 103.109C46.3701 102.144 46.844 101.257 47.54 100.561C48.236 99.865 49.1228 99.391 50.0882 99.199C51.0535 99.007 52.0542 99.1055 52.9635 99.4822C53.8729 99.8589 54.6502 100.497 55.197 101.315C55.7438 102.134 56.0357 103.096 56.0357 104.08C56.0449 105.392 55.5356 106.655 54.6185 107.593C53.7015 108.532 52.4509 109.07 51.139 109.091L51.0591 109.057ZM57.6565 98.9207C56.4167 97.3258 54.6403 96.2348 52.6571 95.8503V82.0161H84.0465C84.1239 82.4041 84.2307 82.7857 84.3661 83.1575L57.6565 98.9207ZM86.1239 74.6424L73.3627 67.1889C70.1438 61.4817 66.8108 56.0485 63.3637 50.8892L71.3538 46.1637L86.9229 73.8548C86.6666 74.1137 86.4264 74.3882 86.2038 74.6767L86.1239 74.6424ZM96.6137 82.7694C95.9628 83.9153 94.8835 84.7556 93.613 85.1056C92.3426 85.4556 90.9851 85.2865 89.8393 84.6357C88.6935 83.9848 87.8531 82.9054 87.5031 81.635C87.1532 80.3645 87.3222 79.0071 87.9731 77.8613C88.2982 77.3016 88.7308 76.8118 89.246 76.42C89.7612 76.0282 90.3488 75.7422 90.975 75.5784C91.4055 75.4554 91.8513 75.3939 92.2991 75.3958C93.1591 75.4004 94.0038 75.6243 94.7532 76.0464C95.3211 76.3688 95.8199 76.8001 96.2209 77.3156C96.6219 77.8311 96.9173 78.4206 97.0902 79.0504C97.263 79.6802 97.3099 80.338 97.2281 80.9859C97.1463 81.6339 96.9376 82.2594 96.6137 82.8265V82.7694Z" fill="#3F6587"/>
<path d="M57.8105 56.3181C57.8089 54.7937 57.2788 53.3169 56.3105 52.1395C55.3422 50.9621 53.9956 50.1568 52.5001 49.8608C51.0047 49.5649 49.4529 49.7966 48.1091 50.5165C46.7654 51.2364 45.7128 52.3999 45.1307 53.8088C44.5485 55.2178 44.4729 56.7849 44.9167 58.2434C45.3605 59.7018 46.2962 60.9612 47.5644 61.8071C48.8327 62.653 50.355 63.033 51.8719 62.8824C53.3889 62.7318 54.8068 62.0599 55.8839 60.9811C56.4973 60.3698 56.9833 59.6429 57.314 58.8425C57.6447 58.0421 57.8134 57.1841 57.8105 56.3181Z" fill="#3F6587"/>
</svg>
