<svg width="335" height="65" viewBox="0 0 335 65" fill="none" xmlns="http://www.w3.org/2000/svg">
<path d="M71.1421 0H8V62.3419H71.1421V0Z" fill="url(#paint0_linear_5842_137115)"/>
<path fill-rule="evenodd" clip-rule="evenodd" d="M67.394 58.6396L61.0624 46.9964C63.2268 43.5194 64.0233 39.3788 63.3006 35.3604C62.578 31.3419 60.3865 27.7252 57.1419 25.1964C53.8974 22.6676 49.8255 21.4026 45.6989 21.6416C41.5724 21.8805 37.6782 23.6067 34.7552 26.4926C31.8323 29.3785 30.0839 33.2233 29.8419 37.2976C29.6 41.3719 30.8811 45.3922 33.4424 48.5956C36.0037 51.7991 39.6668 53.9628 43.7368 54.6763C47.8068 55.3898 52.0005 54.6034 55.5222 52.4664L67.394 58.6396Z" fill="white"/>
<path d="M46.7484 48.7599C52.6232 48.7599 57.3856 44.0578 57.3856 38.2576C57.3856 32.4573 52.6232 27.7552 46.7484 27.7552C40.8737 27.7552 36.1113 32.4573 36.1113 38.2576C36.1113 44.0578 40.8737 48.7599 46.7484 48.7599Z" fill="url(#paint1_linear_5842_137115)"/>
<path fill-rule="evenodd" clip-rule="evenodd" d="M130.074 34.1787C130.115 34.1822 130.153 34.1998 130.182 34.2284C130.211 34.257 130.229 34.2947 130.233 34.335V45.0405C130.233 47.3379 130.597 50.0729 133.541 50.0729C136.485 50.0729 136.849 47.3379 136.849 45.0405V34.3819C136.849 34.343 136.863 34.3054 136.89 34.2765C136.916 34.2476 136.952 34.2295 136.992 34.2256H142.548C142.587 34.2295 142.623 34.2476 142.649 34.2765C142.676 34.3054 142.69 34.343 142.69 34.3819V46.0251C142.69 51.8701 139.635 54.9333 133.604 54.9333C127.573 54.9333 124.502 51.8076 124.502 46.0251V34.3819C124.502 34.343 124.517 34.3054 124.543 34.2765C124.569 34.2476 124.606 34.2295 124.645 34.2256L130.074 34.1787Z" fill="#333333"/>
<path fill-rule="evenodd" clip-rule="evenodd" d="M153.295 27.2694C153.295 27.9402 153.093 28.5958 152.716 29.1536C152.338 29.7113 151.802 30.1459 151.174 30.4026C150.547 30.6593 149.856 30.7265 149.19 30.5956C148.523 30.4648 147.911 30.1418 147.431 29.6675C146.95 29.1932 146.623 28.5889 146.491 27.931C146.358 27.2732 146.426 26.5913 146.686 25.9716C146.946 25.3519 147.387 24.8222 147.951 24.4496C148.516 24.0769 149.18 23.878 149.86 23.878C150.311 23.876 150.759 23.9623 151.177 24.132C151.594 24.3017 151.974 24.5514 152.293 24.8667C152.613 25.1821 152.866 25.5567 153.037 25.9691C153.209 26.3815 153.297 26.8235 153.295 27.2694ZM152.614 54.2285H147.121C147.101 54.2286 147.081 54.2245 147.063 54.2165C147.044 54.2085 147.028 54.1967 147.015 54.1819C147.001 54.1672 146.991 54.1498 146.985 54.1309C146.979 54.1119 146.977 54.092 146.979 54.0722V34.3804C146.979 34.3415 146.993 34.3039 147.019 34.275C147.046 34.2461 147.082 34.228 147.121 34.2241H152.614C152.653 34.228 152.689 34.2461 152.716 34.275C152.742 34.3039 152.757 34.3415 152.756 34.3804V54.0722C152.759 54.092 152.757 54.1119 152.75 54.1309C152.744 54.1498 152.734 54.1672 152.721 54.1819C152.707 54.1967 152.691 54.2085 152.672 54.2165C152.654 54.2245 152.634 54.2286 152.614 54.2285Z" fill="#333333"/>
<path fill-rule="evenodd" clip-rule="evenodd" d="M171.039 39.9625C171.04 39.9921 171.032 40.0212 171.015 40.0459C170.999 40.0705 170.974 40.0893 170.946 40.0997C170.918 40.1101 170.888 40.1115 170.859 40.1037C170.83 40.0959 170.804 40.0793 170.785 40.0563C170.267 39.5225 169.646 39.0967 168.958 38.8041C168.27 38.5115 167.53 38.3581 166.781 38.3528C163.504 38.3528 161.652 41.3691 161.652 44.3072C161.55 45.3808 161.788 46.4591 162.332 47.3941C162.876 48.329 163.7 49.0747 164.69 49.5286C165.681 49.9825 166.79 50.1224 167.864 49.929C168.938 49.7357 169.926 49.2186 170.691 48.4488C170.713 48.4274 170.741 48.4128 170.771 48.407C170.801 48.4011 170.833 48.4042 170.862 48.4159C170.89 48.4275 170.915 48.4472 170.932 48.4725C170.95 48.4978 170.959 48.5276 170.96 48.5582V53.6062C170.969 53.6256 170.974 53.647 170.974 53.6687C170.974 53.6904 170.969 53.7118 170.96 53.7312C169.447 54.5331 167.753 54.9419 166.037 54.9189C164.652 54.9053 163.284 54.6178 162.014 54.0736C160.743 53.5293 159.596 52.7393 158.64 51.7502C157.684 50.7611 156.938 49.5929 156.447 48.3145C155.956 47.0362 155.729 45.6736 155.78 44.3072C155.724 42.9114 155.955 41.5189 156.459 40.2134C156.962 38.908 157.728 37.7165 158.709 36.7107C159.691 35.7048 160.869 34.9054 162.172 34.3604C163.474 33.8154 164.875 33.536 166.29 33.5392C167.919 33.5278 169.521 33.9488 170.928 34.7582C170.938 34.7777 170.943 34.7991 170.943 34.8208C170.943 34.8425 170.938 34.8638 170.928 34.8833L171.039 39.9625Z" fill="#333333"/>
<path fill-rule="evenodd" clip-rule="evenodd" d="M180.347 41.5414H180.426L186.457 34.2429C186.498 34.2286 186.542 34.2286 186.583 34.2429H193.675C193.706 34.2433 193.736 34.2527 193.762 34.2699C193.787 34.2871 193.807 34.3113 193.819 34.3396C193.831 34.3679 193.834 34.399 193.828 34.429C193.822 34.4591 193.807 34.4867 193.786 34.5086L185.475 43.073L194.498 54.0129C194.515 54.0361 194.526 54.0637 194.529 54.0926C194.532 54.1215 194.526 54.1506 194.513 54.1765C194.5 54.2025 194.479 54.2243 194.454 54.2396C194.429 54.2548 194.401 54.2629 194.371 54.2629H187.153C187.136 54.2712 187.117 54.2755 187.098 54.2755C187.079 54.2755 187.06 54.2712 187.042 54.2629L180.426 45.7923H180.347V54.0754C180.347 54.1168 180.33 54.1566 180.3 54.1859C180.271 54.2152 180.23 54.2317 180.188 54.2317H174.712C174.69 54.2342 174.668 54.2319 174.648 54.2249C174.628 54.2179 174.609 54.2065 174.594 54.1915C174.579 54.1764 174.567 54.1581 174.56 54.138C174.553 54.1179 174.551 54.0965 174.553 54.0754V25.5378C174.551 25.5167 174.553 25.4953 174.56 25.4752C174.567 25.4551 174.579 25.4368 174.594 25.4218C174.609 25.4067 174.628 25.3953 174.648 25.3883C174.668 25.3813 174.69 25.379 174.712 25.3815H180.188C180.209 25.3815 180.23 25.3856 180.249 25.3934C180.268 25.4013 180.286 25.4128 180.3 25.4273C180.315 25.4418 180.327 25.4591 180.335 25.478C180.343 25.497 180.347 25.5173 180.347 25.5378V41.5414Z" fill="#333333"/>
<path fill-rule="evenodd" clip-rule="evenodd" d="M214.507 49.0108H222.944C222.964 49.0086 222.985 49.0106 223.004 49.0167C223.023 49.0227 223.041 49.0327 223.055 49.046C223.07 49.0593 223.082 49.0756 223.09 49.0938C223.099 49.1119 223.103 49.1316 223.103 49.1514V54.0744C223.105 54.0955 223.103 54.117 223.096 54.1371C223.089 54.1572 223.077 54.1754 223.062 54.1905C223.047 54.2055 223.028 54.217 223.008 54.2239C222.987 54.2309 222.966 54.2332 222.944 54.2307H208.572C208.551 54.2308 208.532 54.2267 208.513 54.2187C208.495 54.2107 208.478 54.1989 208.465 54.1841C208.451 54.1694 208.441 54.152 208.435 54.1331C208.429 54.1141 208.427 54.0942 208.429 54.0744V25.5368C208.427 25.5171 208.429 25.4971 208.435 25.4782C208.441 25.4593 208.451 25.4419 208.465 25.4271C208.478 25.4124 208.495 25.4006 208.513 25.3925C208.532 25.3845 208.551 25.3804 208.572 25.3806H214.349C214.37 25.3806 214.391 25.3846 214.41 25.3925C214.429 25.4003 214.446 25.4118 214.461 25.4263C214.476 25.4408 214.487 25.4581 214.495 25.477C214.503 25.496 214.507 25.5163 214.507 25.5368V49.0108Z" fill="#333333"/>
<path fill-rule="evenodd" clip-rule="evenodd" d="M244.806 44.2288C244.806 47.0225 243.682 49.7017 241.681 51.6771C239.68 53.6526 236.967 54.7624 234.137 54.7624C231.308 54.7624 228.594 53.6526 226.593 51.6771C224.592 49.7017 223.468 47.0225 223.468 44.2288C223.468 41.4351 224.592 38.7558 226.593 36.7804C228.594 34.805 231.308 33.6952 234.137 33.6952C236.967 33.6952 239.68 34.805 241.681 36.7804C243.682 38.7558 244.806 41.4351 244.806 44.2288ZM229.341 44.2288C229.341 46.9169 231.161 49.8238 234.09 49.8238C237.018 49.8238 238.838 46.9169 238.838 44.2288C238.838 41.5407 237.034 38.5869 234.09 38.5869C231.145 38.5869 229.341 41.4469 229.341 44.2288Z" fill="#333333"/>
<path fill-rule="evenodd" clip-rule="evenodd" d="M267.47 44.2288C267.47 45.6121 267.194 46.9818 266.658 48.2598C266.122 49.5378 265.336 50.699 264.346 51.6771C263.355 52.6553 262.179 53.4312 260.884 53.9605C259.59 54.4899 258.203 54.7624 256.802 54.7624C255.401 54.7624 254.013 54.4899 252.719 53.9605C251.424 53.4312 250.248 52.6553 249.258 51.6771C248.267 50.699 247.481 49.5378 246.945 48.2598C246.409 46.9818 246.133 45.6121 246.133 44.2288C246.133 42.8455 246.409 41.4757 246.945 40.1977C247.481 38.9198 248.267 37.7585 249.258 36.7804C250.248 35.8023 251.424 35.0264 252.719 34.497C254.013 33.9676 255.401 33.6952 256.802 33.6952C258.203 33.6952 259.59 33.9676 260.884 34.497C262.179 35.0264 263.355 35.8023 264.346 36.7804C265.336 37.7585 266.122 38.9198 266.658 40.1977C267.194 41.4757 267.47 42.8455 267.47 44.2288ZM252.005 44.2288C252.005 46.9169 253.826 49.8238 256.754 49.8238C259.682 49.8238 261.503 46.9169 261.503 44.2288C261.503 41.5407 259.682 38.5869 256.754 38.5869C253.826 38.5869 252.005 41.4469 252.005 44.2288Z" fill="#333333"/>
<path fill-rule="evenodd" clip-rule="evenodd" d="M275.987 41.5404L282.018 34.2419C282.059 34.2276 282.103 34.2276 282.144 34.2419H289.236C289.267 34.2423 289.297 34.2517 289.322 34.2689C289.348 34.2861 289.368 34.3104 289.38 34.3387C289.392 34.3669 289.395 34.398 289.389 34.4281C289.383 34.4581 289.368 34.4857 289.346 34.5076L281.036 43.072L290.059 54.0119C290.076 54.0351 290.087 54.0627 290.09 54.0916C290.092 54.1206 290.087 54.1496 290.074 54.1756C290.061 54.2015 290.04 54.2234 290.015 54.2386C289.99 54.2539 289.962 54.262 289.932 54.262H282.73C282.71 54.2716 282.689 54.2766 282.667 54.2766C282.645 54.2766 282.623 54.2716 282.603 54.262L275.987 45.7913V54.0744C275.989 54.0942 275.987 54.1141 275.981 54.1331C275.975 54.152 275.965 54.1694 275.951 54.1841C275.938 54.1989 275.921 54.2107 275.903 54.2187C275.884 54.2267 275.864 54.2308 275.844 54.2307H270.352C270.31 54.2307 270.269 54.2142 270.24 54.1849C270.21 54.1556 270.193 54.1159 270.193 54.0744V25.5368C270.193 25.5163 270.197 25.496 270.205 25.477C270.213 25.4581 270.225 25.4408 270.24 25.4263C270.254 25.4118 270.272 25.4003 270.291 25.3925C270.31 25.3846 270.331 25.3806 270.352 25.3806H275.844C275.864 25.3804 275.884 25.3845 275.903 25.3925C275.921 25.4006 275.938 25.4124 275.951 25.4271C275.965 25.4419 275.975 25.4593 275.981 25.4782C275.987 25.4971 275.989 25.5171 275.987 25.5368V41.5404Z" fill="#333333"/>
<path fill-rule="evenodd" clip-rule="evenodd" d="M297.466 34.1787C297.505 34.1826 297.541 34.2008 297.568 34.2297C297.594 34.2586 297.608 34.2961 297.608 34.335V45.0405C297.608 47.3379 297.988 50.0729 300.916 50.0729C303.845 50.0729 304.225 47.3379 304.225 45.0405V34.3819C304.228 34.3416 304.246 34.3039 304.275 34.2753C304.304 34.2467 304.342 34.2291 304.383 34.2256H309.86C309.902 34.2256 309.942 34.2421 309.972 34.2714C310.001 34.3007 310.018 34.3404 310.018 34.3819V46.0251C310.018 51.8701 306.963 54.9333 300.916 54.9333C294.87 54.9333 291.831 51.8076 291.831 46.0251V34.3819C291.83 34.343 291.845 34.3054 291.871 34.2765C291.898 34.2476 291.934 34.2295 291.973 34.2256L297.466 34.1787Z" fill="#333333"/>
<path fill-rule="evenodd" clip-rule="evenodd" d="M319.832 36.024C320.536 35.2386 321.401 34.6106 322.37 34.182C323.339 33.7535 324.39 33.5343 325.452 33.5391C331.198 33.5391 334.712 38.8371 334.712 44.1039C334.712 49.3707 331.324 54.8876 325.325 54.8876C324.286 54.9071 323.256 54.6886 322.317 54.2494C321.378 53.8101 320.555 53.1619 319.912 52.3557V64.8585C319.908 64.8972 319.889 64.933 319.86 64.959C319.831 64.9851 319.793 64.9994 319.753 64.9992H314.276C314.256 65.0014 314.236 64.9994 314.217 64.9933C314.198 64.9872 314.18 64.9772 314.165 64.9639C314.15 64.9506 314.138 64.9344 314.13 64.9162C314.122 64.898 314.118 64.8784 314.118 64.8585V34.383C314.118 34.3416 314.135 34.3018 314.165 34.2725C314.194 34.2432 314.234 34.2267 314.276 34.2267H319.753C319.794 34.2303 319.832 34.2479 319.861 34.2764C319.89 34.305 319.908 34.3428 319.912 34.383V36.0709L319.832 36.024ZM328.839 44.1821C328.839 41.494 327.019 38.5871 324.09 38.5871C321.162 38.5871 319.342 41.494 319.342 44.1821C319.342 46.8702 321.162 49.8239 324.09 49.8239C327.019 49.8239 328.871 46.8858 328.871 44.1821H328.839Z" fill="#333333"/>
<path fill-rule="evenodd" clip-rule="evenodd" d="M117.948 47.2758C120.045 43.897 120.813 39.8756 120.106 35.9746C119.399 32.0736 117.267 28.5645 114.113 26.1133C110.959 23.6621 107.004 22.4392 102.997 22.6768C98.9904 22.9144 95.2116 24.5959 92.3776 27.4023C89.5437 30.2086 87.8517 33.9445 87.6229 37.9009C87.394 41.8574 88.6442 45.7592 91.1362 48.8658C93.6281 51.9724 97.1885 54.0678 101.142 54.7542C105.095 55.4406 109.165 54.6703 112.581 52.5895L123.662 58.372C123.788 58.372 123.947 58.2939 123.868 58.1688L117.948 47.2758ZM96.6416 46.0099C95.1972 44.5822 94.2139 42.7637 93.816 40.7844C93.4182 38.8051 93.6235 36.7537 94.4062 34.8896C95.1889 33.0254 96.5137 31.4323 98.2133 30.3114C99.9128 29.1905 101.911 28.5923 103.955 28.5923C105.998 28.5923 107.996 29.1905 109.696 30.3114C111.396 31.4323 112.72 33.0254 113.503 34.8896C114.286 36.7537 114.491 38.8051 114.093 40.7844C113.695 42.7637 112.712 44.5822 111.268 46.0099C109.327 47.9224 106.697 48.9966 103.955 48.9966C101.213 48.9966 98.5825 47.9224 96.6416 46.0099Z" fill="#333333"/>
<g filter="url(#filter0_d_5842_137115)">
<path d="M2.8999 6.85C2.8999 6.38056 3.28046 6 3.7499 6H34.4999C36.3777 6 37.8999 7.52222 37.8999 9.39998V17.6C37.8999 19.4778 36.3777 21 34.4999 21H2.8999V6.85Z" fill="white"/>
<path d="M7.5119 17L7.5119 9.56934H10.2455C10.7589 9.56934 11.1958 9.61694 11.5562 9.71213C11.9166 9.80733 12.2107 9.94163 12.4385 10.115C12.6663 10.2884 12.8312 10.4992 12.9332 10.7474C13.0386 10.9956 13.0913 11.2727 13.0913 11.5787C13.0913 11.7453 13.0675 11.9068 13.0199 12.0632C12.9723 12.2162 12.8975 12.3607 12.7955 12.4967C12.6935 12.6327 12.5626 12.7568 12.4028 12.869C12.243 12.9778 12.0509 13.073 11.8265 13.1546C12.3161 13.2736 12.6782 13.4674 12.9128 13.736C13.1474 14.0012 13.2647 14.3429 13.2647 14.7611C13.2647 15.0773 13.2035 15.3714 13.0811 15.6434C12.9587 15.9154 12.7785 16.1534 12.5405 16.3574C12.3059 16.558 12.0152 16.7161 11.6684 16.8317C11.3216 16.9439 10.9255 17 10.4801 17H7.5119ZM9.23569 13.8482L9.23569 15.6995H10.4495C10.6773 15.6995 10.8626 15.6706 11.0054 15.6128C11.1516 15.555 11.2655 15.4802 11.3471 15.3884C11.4287 15.2966 11.4848 15.1929 11.5154 15.0773C11.546 14.9617 11.5613 14.8444 11.5613 14.7254C11.5613 14.5894 11.5426 14.467 11.5052 14.3582C11.4712 14.2494 11.41 14.1576 11.3216 14.0828C11.2366 14.008 11.1227 13.9502 10.9799 13.9094C10.8371 13.8686 10.6569 13.8482 10.4393 13.8482H9.23569ZM9.23569 12.6956H10.1333C10.3237 12.6956 10.4954 12.682 10.6484 12.6548C10.8014 12.6276 10.9306 12.58 11.036 12.512C11.1448 12.444 11.2264 12.3505 11.2808 12.2315C11.3386 12.1125 11.3675 11.9629 11.3675 11.7827C11.3675 11.6059 11.3454 11.4597 11.3012 11.3441C11.257 11.2251 11.189 11.1299 11.0972 11.0585C11.0054 10.9871 10.8881 10.9361 10.7453 10.9055C10.6059 10.8749 10.4393 10.8596 10.2455 10.8596H9.23569V12.6956ZM19.4994 9.56934V10.8953H16.4496V12.6293H18.7854V13.9043H16.4496V15.674H19.4994V17H14.7156L14.7156 9.56934H19.4994ZM26.3887 9.56934V10.9361H24.2978V17L22.574 17V10.9361L20.483 10.9361V9.56934L26.3887 9.56934ZM33.7078 17H32.3716C32.222 17 32.0979 16.966 31.9993 16.898C31.9041 16.8266 31.8378 16.7365 31.8004 16.6277L31.3618 15.3323H28.5364L28.0978 16.6277C28.0638 16.7229 27.9975 16.8096 27.8989 16.8878C27.8003 16.9626 27.6796 17 27.5368 17H26.1904L29.0668 9.56934H30.8314L33.7078 17ZM28.9342 14.1593H30.964L30.2806 12.1244C30.2364 11.9952 30.1837 11.8439 30.1225 11.6705C30.0647 11.4937 30.0069 11.3033 29.9491 11.0993C29.8947 11.3067 29.8386 11.4988 29.7808 11.6756C29.723 11.8524 29.6686 12.0054 29.6176 12.1346L28.9342 14.1593Z" fill="#333333"/>
</g>
<path d="M7.99988 21H2.8999L7.99988 25.25V21Z" fill="white"/>
<path d="M7.99988 21H2.8999L7.99988 25.25V21Z" fill="url(#paint2_linear_5842_137115)" fill-opacity="0.2"/>
<defs>
<filter id="filter0_d_5842_137115" x="1.8999" y="6" width="37" height="17" filterUnits="userSpaceOnUse" color-interpolation-filters="sRGB">
<feFlood flood-opacity="0" result="BackgroundImageFix"/>
<feColorMatrix in="SourceAlpha" type="matrix" values="0 0 0 0 0 0 0 0 0 0 0 0 0 0 0 0 0 0 127 0" result="hardAlpha"/>
<feOffset dy="1"/>
<feGaussianBlur stdDeviation="0.5"/>
<feComposite in2="hardAlpha" operator="out"/>
<feColorMatrix type="matrix" values="0 0 0 0 0 0 0 0 0 0 0 0 0 0 0 0 0 0 0.25 0"/>
<feBlend mode="normal" in2="BackgroundImageFix" result="effect1_dropShadow_5842_137115"/>
<feBlend mode="normal" in="SourceGraphic" in2="effect1_dropShadow_5842_137115" result="shape"/>
</filter>
<linearGradient id="paint0_linear_5842_137115" x1="8" y1="62.3419" x2="70.3369" y2="-0.79498" gradientUnits="userSpaceOnUse">
<stop stop-color="#C42126"/>
<stop offset="0.38" stop-color="#E63446"/>
<stop offset="0.63" stop-color="#E63446"/>
<stop offset="1" stop-color="#E63446"/>
</linearGradient>
<linearGradient id="paint1_linear_5842_137115" x1="17.2082" y1="53.2968" x2="63.3115" y2="6.60178" gradientUnits="userSpaceOnUse">
<stop stop-color="#08AE95"/>
<stop offset="0.12" stop-color="#08AE95"/>
<stop offset="0.47" stop-color="#08AE95"/>
<stop offset="0.99" stop-color="#039E84"/>
<stop offset="1" stop-color="#039E84"/>
</linearGradient>
<linearGradient id="paint2_linear_5842_137115" x1="4.31656" y1="21" x2="17.9851" y2="32.1626" gradientUnits="userSpaceOnUse">
<stop/>
<stop offset="0.267034" stop-opacity="0"/>
</linearGradient>
</defs>
</svg>
