<svg width="327" height="65" viewBox="0 0 327 65" fill="none" xmlns="http://www.w3.org/2000/svg">
<path d="M63.1421 0H0V62.3419H63.1421V0Z" fill="url(#paint0_linear_5838_133781)"/>
<path fill-rule="evenodd" clip-rule="evenodd" d="M59.394 58.6396L53.0624 46.9964C55.2268 43.5194 56.0233 39.3788 55.3006 35.3604C54.578 31.3419 52.3865 27.7252 49.1419 25.1964C45.8974 22.6676 41.8255 21.4026 37.6989 21.6416C33.5724 21.8805 29.6782 23.6067 26.7552 26.4926C23.8323 29.3785 22.0839 33.2233 21.8419 37.2976C21.6 41.3719 22.8811 45.3922 25.4424 48.5956C28.0037 51.7991 31.6668 53.9628 35.7368 54.6763C39.8068 55.3898 44.0005 54.6034 47.5222 52.4664L59.394 58.6396Z" fill="white"/>
<path d="M38.7484 48.7599C44.6232 48.7599 49.3856 44.0578 49.3856 38.2576C49.3856 32.4573 44.6232 27.7552 38.7484 27.7552C32.8737 27.7552 28.1113 32.4573 28.1113 38.2576C28.1113 44.0578 32.8737 48.7599 38.7484 48.7599Z" fill="url(#paint1_linear_5838_133781)"/>
<path fill-rule="evenodd" clip-rule="evenodd" d="M122.074 34.1788C122.115 34.1823 122.153 34.1999 122.182 34.2285C122.211 34.2571 122.229 34.2948 122.233 34.3351V45.0406C122.233 47.3379 122.597 50.0729 125.541 50.0729C128.485 50.0729 128.849 47.3379 128.849 45.0406V34.3819C128.849 34.3431 128.863 34.3055 128.89 34.2766C128.916 34.2477 128.952 34.2295 128.992 34.2257H134.548C134.587 34.2295 134.623 34.2477 134.649 34.2766C134.676 34.3055 134.69 34.3431 134.69 34.3819V46.0252C134.69 51.8702 131.635 54.9334 125.604 54.9334C119.573 54.9334 116.502 51.8077 116.502 46.0252V34.3819C116.502 34.3431 116.517 34.3055 116.543 34.2766C116.569 34.2477 116.606 34.2295 116.645 34.2257L122.074 34.1788Z" fill="#333333"/>
<path fill-rule="evenodd" clip-rule="evenodd" d="M145.295 27.2695C145.295 27.9402 145.093 28.5959 144.716 29.1536C144.338 29.7113 143.802 30.146 143.174 30.4027C142.547 30.6594 141.856 30.7265 141.19 30.5957C140.523 30.4648 139.911 30.1418 139.431 29.6675C138.95 29.1932 138.623 28.589 138.491 27.9311C138.358 27.2732 138.426 26.5913 138.686 25.9716C138.946 25.3519 139.387 24.8223 139.951 24.4496C140.516 24.077 141.18 23.8781 141.86 23.8781C142.311 23.876 142.759 23.9623 143.177 24.132C143.594 24.3017 143.974 24.5515 144.293 24.8668C144.613 25.1821 144.866 25.5568 145.037 25.9692C145.209 26.3816 145.297 26.8235 145.295 27.2695ZM144.614 54.2286H139.121C139.101 54.2287 139.081 54.2246 139.063 54.2166C139.044 54.2085 139.028 54.1968 139.015 54.182C139.001 54.1672 138.991 54.1498 138.985 54.1309C138.979 54.112 138.977 54.092 138.979 54.0723V34.3804C138.979 34.3415 138.993 34.304 139.019 34.2751C139.046 34.2462 139.082 34.228 139.121 34.2241H144.614C144.653 34.228 144.689 34.2462 144.716 34.2751C144.742 34.304 144.757 34.3415 144.756 34.3804V54.0723C144.759 54.092 144.757 54.112 144.75 54.1309C144.744 54.1498 144.734 54.1672 144.721 54.182C144.707 54.1968 144.691 54.2085 144.672 54.2166C144.654 54.2246 144.634 54.2287 144.614 54.2286Z" fill="#333333"/>
<path fill-rule="evenodd" clip-rule="evenodd" d="M163.039 39.9626C163.04 39.9921 163.032 40.0213 163.015 40.0459C162.999 40.0706 162.974 40.0894 162.946 40.0998C162.918 40.1102 162.888 40.1116 162.859 40.1038C162.83 40.096 162.804 40.0794 162.785 40.0564C162.267 39.5226 161.646 39.0968 160.958 38.8042C160.27 38.5116 159.53 38.3581 158.781 38.3529C155.504 38.3529 153.652 41.3691 153.652 44.3073C153.55 45.3809 153.788 46.4592 154.332 47.3941C154.876 48.3291 155.7 49.0747 156.69 49.5286C157.681 49.9825 158.79 50.1224 159.864 49.9291C160.938 49.7357 161.926 49.2186 162.691 48.4488C162.713 48.4274 162.741 48.4129 162.771 48.407C162.801 48.4012 162.833 48.4043 162.862 48.4159C162.89 48.4276 162.915 48.4473 162.932 48.4726C162.95 48.4979 162.959 48.5276 162.96 48.5582V53.6062C162.969 53.6257 162.974 53.647 162.974 53.6687C162.974 53.6904 162.969 53.7118 162.96 53.7313C161.447 54.5332 159.753 54.9419 158.037 54.919C156.652 54.9053 155.284 54.6179 154.014 54.0736C152.743 53.5294 151.596 52.7394 150.64 51.7503C149.684 50.7611 148.938 49.5929 148.447 48.3146C147.956 47.0362 147.729 45.6737 147.78 44.3073C147.724 42.9115 147.955 41.519 148.459 40.2135C148.962 38.908 149.728 37.7166 150.709 36.7107C151.691 35.7049 152.869 34.9054 154.172 34.3604C155.474 33.8154 156.875 33.5361 158.29 33.5393C159.919 33.5279 161.521 33.9489 162.928 34.7583C162.938 34.7777 162.943 34.7991 162.943 34.8208C162.943 34.8425 162.938 34.8639 162.928 34.8833L163.039 39.9626Z" fill="#333333"/>
<path fill-rule="evenodd" clip-rule="evenodd" d="M172.347 41.5414H172.426L178.457 34.2429C178.498 34.2286 178.542 34.2286 178.583 34.2429H185.675C185.706 34.2434 185.736 34.2528 185.762 34.27C185.787 34.2872 185.807 34.3114 185.819 34.3397C185.831 34.368 185.834 34.3991 185.828 34.4291C185.822 34.4591 185.807 34.4868 185.786 34.5086L177.475 43.073L186.498 54.0129C186.515 54.0362 186.526 54.0638 186.529 54.0927C186.532 54.1216 186.526 54.1506 186.513 54.1766C186.5 54.2026 186.479 54.2244 186.454 54.2397C186.429 54.2549 186.401 54.263 186.371 54.263H179.153C179.136 54.2713 179.117 54.2756 179.098 54.2756C179.079 54.2756 179.06 54.2713 179.042 54.263L172.426 45.7924H172.347V54.0754C172.347 54.1169 172.33 54.1567 172.3 54.186C172.271 54.2153 172.23 54.2317 172.188 54.2317H166.712C166.69 54.2342 166.668 54.2319 166.648 54.225C166.628 54.218 166.609 54.2066 166.594 54.1915C166.579 54.1765 166.567 54.1582 166.56 54.1381C166.553 54.118 166.551 54.0966 166.553 54.0754V25.5379C166.551 25.5168 166.553 25.4953 166.56 25.4752C166.567 25.4551 166.579 25.4369 166.594 25.4218C166.609 25.4068 166.628 25.3953 166.648 25.3884C166.668 25.3814 166.69 25.3791 166.712 25.3816H172.188C172.209 25.3816 172.23 25.3856 172.249 25.3935C172.268 25.4014 172.286 25.4129 172.3 25.4274C172.315 25.4419 172.327 25.4591 172.335 25.4781C172.343 25.497 172.347 25.5174 172.347 25.5379V41.5414Z" fill="#333333"/>
<path fill-rule="evenodd" clip-rule="evenodd" d="M206.507 49.0109H214.944C214.964 49.0086 214.985 49.0106 215.004 49.0167C215.023 49.0228 215.041 49.0328 215.055 49.0461C215.07 49.0594 215.082 49.0756 215.09 49.0938C215.099 49.112 215.103 49.1316 215.103 49.1515V54.0745C215.105 54.0956 215.103 54.117 215.096 54.1371C215.089 54.1572 215.077 54.1755 215.062 54.1905C215.047 54.2056 215.028 54.217 215.008 54.224C214.987 54.231 214.966 54.2333 214.944 54.2308H200.572C200.551 54.2309 200.532 54.2268 200.513 54.2188C200.495 54.2107 200.478 54.199 200.465 54.1842C200.451 54.1694 200.441 54.152 200.435 54.1331C200.429 54.1142 200.427 54.0942 200.429 54.0745V25.5369C200.427 25.5172 200.429 25.4972 200.435 25.4783C200.441 25.4594 200.451 25.4419 200.465 25.4272C200.478 25.4124 200.495 25.4006 200.513 25.3926C200.532 25.3846 200.551 25.3805 200.572 25.3806H206.349C206.37 25.3806 206.391 25.3847 206.41 25.3925C206.429 25.4004 206.446 25.4119 206.461 25.4264C206.476 25.4409 206.487 25.4581 206.495 25.4771C206.503 25.4961 206.507 25.5164 206.507 25.5369V49.0109Z" fill="#333333"/>
<path fill-rule="evenodd" clip-rule="evenodd" d="M236.806 44.2288C236.806 47.0225 235.682 49.7018 233.681 51.6772C231.68 53.6526 228.967 54.7624 226.137 54.7624C223.308 54.7624 220.594 53.6526 218.593 51.6772C216.592 49.7018 215.468 47.0225 215.468 44.2288C215.468 41.4352 216.592 38.7559 218.593 36.7805C220.594 34.805 223.308 33.6953 226.137 33.6953C228.967 33.6953 231.68 34.805 233.681 36.7805C235.682 38.7559 236.806 41.4352 236.806 44.2288ZM221.341 44.2288C221.341 46.9169 223.161 49.8238 226.09 49.8238C229.018 49.8238 230.838 46.9169 230.838 44.2288C230.838 41.5407 229.034 38.587 226.09 38.587C223.145 38.587 221.341 41.447 221.341 44.2288Z" fill="#333333"/>
<path fill-rule="evenodd" clip-rule="evenodd" d="M259.47 44.2288C259.47 45.6121 259.194 46.9819 258.658 48.2599C258.122 49.5379 257.336 50.6991 256.346 51.6772C255.355 52.6553 254.179 53.4312 252.884 53.9606C251.59 54.49 250.203 54.7624 248.802 54.7624C247.401 54.7624 246.013 54.49 244.719 53.9606C243.424 53.4312 242.248 52.6553 241.258 51.6772C240.267 50.6991 239.481 49.5379 238.945 48.2599C238.409 46.9819 238.133 45.6121 238.133 44.2288C238.133 42.8455 238.409 41.4758 238.945 40.1978C239.481 38.9198 240.267 37.7586 241.258 36.7805C242.248 35.8023 243.424 35.0264 244.719 34.4971C246.013 33.9677 247.401 33.6953 248.802 33.6953C250.203 33.6953 251.59 33.9677 252.884 34.4971C254.179 35.0264 255.355 35.8023 256.346 36.7805C257.336 37.7586 258.122 38.9198 258.658 40.1978C259.194 41.4758 259.47 42.8455 259.47 44.2288ZM244.005 44.2288C244.005 46.9169 245.826 49.8238 248.754 49.8238C251.682 49.8238 253.503 46.9169 253.503 44.2288C253.503 41.5407 251.682 38.587 248.754 38.587C245.826 38.587 244.005 41.447 244.005 44.2288Z" fill="#333333"/>
<path fill-rule="evenodd" clip-rule="evenodd" d="M267.987 41.5405L274.018 34.242C274.059 34.2277 274.103 34.2277 274.144 34.242H281.236C281.267 34.2424 281.297 34.2518 281.322 34.269C281.348 34.2862 281.368 34.3104 281.38 34.3387C281.392 34.367 281.395 34.3981 281.389 34.4281C281.383 34.4581 281.368 34.4858 281.346 34.5076L273.036 43.072L282.059 54.012C282.076 54.0352 282.087 54.0628 282.09 54.0917C282.092 54.1206 282.087 54.1497 282.074 54.1756C282.061 54.2016 282.04 54.2234 282.015 54.2387C281.99 54.2539 281.962 54.262 281.932 54.262H274.73C274.71 54.2717 274.689 54.2767 274.667 54.2767C274.645 54.2767 274.623 54.2717 274.603 54.262L267.987 45.7914V54.0745C267.989 54.0942 267.987 54.1142 267.981 54.1331C267.975 54.152 267.965 54.1694 267.951 54.1842C267.938 54.199 267.921 54.2108 267.903 54.2188C267.884 54.2268 267.864 54.2309 267.844 54.2308H262.352C262.31 54.2308 262.269 54.2143 262.24 54.185C262.21 54.1557 262.193 54.1159 262.193 54.0745V25.5369C262.193 25.5164 262.197 25.4961 262.205 25.4771C262.213 25.4581 262.225 25.4409 262.24 25.4264C262.254 25.4119 262.272 25.4004 262.291 25.3925C262.31 25.3847 262.331 25.3806 262.352 25.3806H267.844C267.864 25.3805 267.884 25.3846 267.903 25.3926C267.921 25.4006 267.938 25.4124 267.951 25.4272C267.965 25.4419 267.975 25.4594 267.981 25.4783C267.987 25.4972 267.989 25.5172 267.987 25.5369V41.5405Z" fill="#333333"/>
<path fill-rule="evenodd" clip-rule="evenodd" d="M289.466 34.1788C289.505 34.1827 289.541 34.2008 289.568 34.2297C289.594 34.2586 289.608 34.2962 289.608 34.3351V45.0406C289.608 47.3379 289.988 50.0729 292.916 50.0729C295.845 50.0729 296.225 47.3379 296.225 45.0406V34.3819C296.228 34.3417 296.246 34.3039 296.275 34.2754C296.304 34.2468 296.342 34.2292 296.383 34.2257H301.86C301.902 34.2257 301.942 34.2421 301.972 34.2714C302.001 34.3007 302.018 34.3405 302.018 34.3819V46.0252C302.018 51.8702 298.963 54.9334 292.916 54.9334C286.87 54.9334 283.831 51.8077 283.831 46.0252V34.3819C283.83 34.3431 283.845 34.3055 283.871 34.2766C283.898 34.2477 283.934 34.2295 283.973 34.2257L289.466 34.1788Z" fill="#333333"/>
<path fill-rule="evenodd" clip-rule="evenodd" d="M311.832 36.0241C312.536 35.2387 313.401 34.6107 314.37 34.1821C315.339 33.7536 316.39 33.5343 317.452 33.5391C323.198 33.5391 326.712 38.8372 326.712 44.104C326.712 49.3708 323.324 54.8876 317.325 54.8876C316.286 54.9071 315.256 54.6887 314.317 54.2494C313.378 53.8102 312.555 53.162 311.912 52.3558V64.8586C311.908 64.8973 311.889 64.9331 311.86 64.9591C311.831 64.9851 311.793 64.9994 311.753 64.9992H306.276C306.256 65.0014 306.236 64.9994 306.217 64.9934C306.198 64.9873 306.18 64.9773 306.165 64.964C306.15 64.9507 306.138 64.9344 306.13 64.9163C306.122 64.8981 306.118 64.8784 306.118 64.8586V34.3831C306.118 34.3416 306.135 34.3019 306.165 34.2726C306.194 34.2433 306.234 34.2268 306.276 34.2268H311.753C311.794 34.2303 311.832 34.2479 311.861 34.2765C311.89 34.3051 311.908 34.3428 311.912 34.3831V36.071L311.832 36.0241ZM320.839 44.1821C320.839 41.494 319.019 38.5871 316.09 38.5871C313.162 38.5871 311.342 41.494 311.342 44.1821C311.342 46.8702 313.162 49.824 316.09 49.824C319.019 49.824 320.871 46.8858 320.871 44.1821H320.839Z" fill="#333333"/>
<path fill-rule="evenodd" clip-rule="evenodd" d="M109.948 47.2759C112.045 43.8971 112.813 39.8756 112.106 35.9746C111.399 32.0736 109.267 28.5646 106.113 26.1134C102.959 23.6621 99.0036 22.4393 94.997 22.6769C90.9904 22.9145 87.2116 24.596 84.3776 27.4023C81.5437 30.2087 79.8517 33.9445 79.6229 37.901C79.394 41.8575 80.6442 45.7592 83.1362 48.8659C85.6281 51.9725 89.1885 54.0678 93.1416 54.7542C97.0947 55.4406 101.165 54.6703 104.581 52.5895L115.662 58.3721C115.788 58.3721 115.947 58.2939 115.868 58.1689L109.948 47.2759ZM88.6416 46.01C87.1972 44.5823 86.2139 42.7638 85.816 40.7845C85.4182 38.8051 85.6235 36.7538 86.4062 34.8896C87.1889 33.0255 88.5137 31.4323 90.2133 30.3115C91.9128 29.1906 93.9108 28.5923 95.9546 28.5923C97.9985 28.5923 99.9965 29.1906 101.696 30.3115C103.396 31.4323 104.72 33.0255 105.503 34.8896C106.286 36.7538 106.491 38.8051 106.093 40.7845C105.695 42.7638 104.712 44.5823 103.268 46.01C101.327 47.9225 98.6967 48.9966 95.9546 48.9966C93.2125 48.9966 90.5825 47.9225 88.6416 46.01Z" fill="#333333"/>
<defs>
<linearGradient id="paint0_linear_5838_133781" x1="0" y1="62.3419" x2="62.3369" y2="-0.79498" gradientUnits="userSpaceOnUse">
<stop stop-color="#C42126"/>
<stop offset="0.38" stop-color="#E63446"/>
<stop offset="0.63" stop-color="#E63446"/>
<stop offset="1" stop-color="#E63446"/>
</linearGradient>
<linearGradient id="paint1_linear_5838_133781" x1="9.20822" y1="53.2968" x2="55.3115" y2="6.60178" gradientUnits="userSpaceOnUse">
<stop stop-color="#08AE95"/>
<stop offset="0.12" stop-color="#08AE95"/>
<stop offset="0.47" stop-color="#08AE95"/>
<stop offset="0.99" stop-color="#039E84"/>
<stop offset="1" stop-color="#039E84"/>
</linearGradient>
</defs>
</svg>
