<svg width="25" height="26" viewBox="0 0 25 26" fill="none" xmlns="http://www.w3.org/2000/svg">
<path d="M13.2918 20.1478C12.3966 18.3857 11.3463 16.6059 9.29766 16.6059C8.90603 16.6059 8.51488 16.6708 8.15593 16.8346L7.45997 15.4418C8.3081 14.7141 9.67854 14.1372 11.4401 14.1372C14.1806 14.1372 15.587 15.4572 16.7035 17.1422C17.3663 15.7037 17.6814 13.7609 17.6814 11.3529C17.6814 5.33942 15.8007 2.25171 11.4079 2.25171C7.07908 2.25171 5.20872 5.33942 5.20872 11.3529C5.20872 17.3346 7.07908 20.3905 11.4079 20.3905C12.096 20.3905 12.7191 20.3149 13.2918 20.1478ZM14.3649 22.2464C13.416 22.5008 12.4078 22.6413 11.4079 22.6413C5.64375 22.6413 0 18.0417 0 11.3529C0 4.60052 5.64375 0 11.4079 0C17.2687 0 22.8583 4.56738 22.8583 11.3529C22.8583 15.1272 21.0972 18.1944 18.5374 20.1767C19.3646 21.416 20.2159 22.2389 21.4016 22.2389C22.6954 22.2389 23.2173 21.2391 23.3046 20.4549H24.9896C25.0881 21.4991 24.5658 25.8387 19.8565 25.8387C17.0041 25.8387 15.4959 24.1854 14.3649 22.2464Z" fill="#3F6587"/>
</svg>
