<svg width="47" height="37" viewBox="0 0 47 37" fill="none" xmlns="http://www.w3.org/2000/svg">
<g clip-path="url(#clip0_5838_133775)">
<path fill-rule="evenodd" clip-rule="evenodd" d="M23.4645 31.5457C10.5379 31.5457 0.0587769 24.5276 0.0587769 15.8703C0.0587769 7.21295 10.5379 0.194824 23.4645 0.194824C36.3911 0.194824 46.8701 7.21295 46.8701 15.8703C46.8701 24.5276 36.3911 31.5457 23.4645 31.5457ZM27.0471 6.32339C17.2218 6.32339 9.25675 11.1213 9.25675 17.0398C9.25675 22.9583 17.2218 27.7562 27.0471 27.7562C36.8724 27.7562 44.1233 24.476 44.1233 17.0398C44.1233 9.60593 36.8724 6.32339 27.0471 6.32339Z" fill="url(#paint0_linear_5838_133775)"/>
<path fill-rule="evenodd" clip-rule="evenodd" d="M35.7044 24.4737C35.7044 24.4737 37.121 24.9012 37.944 25.3176C38.2296 25.4621 38.7237 25.7505 39.0801 26.1291C39.4292 26.4999 39.5994 26.8756 39.5994 26.8756L45.1823 36.2886L36.1588 36.2926L31.9392 28.3687C31.9392 28.3687 31.0752 26.8841 30.5435 26.4537C30.1 26.0946 29.9109 25.9668 29.4723 25.9668C29.1671 25.9668 27.3284 25.9668 27.3284 25.9668L27.3301 36.2869L19.3453 36.2903V9.92822H35.3798C35.3798 9.92822 42.683 10.0599 42.683 17.0082C42.683 23.9565 35.7044 24.4737 35.7044 24.4737ZM32.2313 15.6465L27.3974 15.6434L27.395 20.1259L32.2313 20.1244C32.2313 20.1244 34.471 20.1174 34.471 17.8442C34.471 15.5252 32.2313 15.6465 32.2313 15.6465Z" fill="url(#paint1_linear_5838_133775)"/>
</g>
<defs>
<linearGradient id="paint0_linear_5838_133775" x1="0.0587769" y1="0.194824" x2="29.0488" y2="43.4811" gradientUnits="userSpaceOnUse">
<stop stop-color="#CBCED0"/>
<stop offset="1" stop-color="#84838B"/>
</linearGradient>
<linearGradient id="paint1_linear_5838_133775" x1="19.3453" y1="9.92822" x2="45.7043" y2="35.76" gradientUnits="userSpaceOnUse">
<stop stop-color="#276DC3"/>
<stop offset="1" stop-color="#165CAA"/>
</linearGradient>
<clipPath id="clip0_5838_133775">
<rect width="47" height="36.4185" fill="white"/>
</clipPath>
</defs>
</svg>
