<svg width="25" height="25" viewBox="0 0 25 25" fill="none" xmlns="http://www.w3.org/2000/svg">
<path d="M9.83887 14.917C9.16504 14.917 8.62305 14.375 8.62305 13.7158C8.62305 13.042 9.16504 12.5 9.83887 12.5C10.5029 12.5 11.04 13.042 11.04 13.7158C11.04 14.3799 10.498 14.917 9.83887 14.917ZM24.6094 12.5C24.6094 19.1895 19.1895 24.6094 12.5 24.6094C5.81055 24.6094 0.390625 19.1895 0.390625 12.5C0.390625 5.81055 5.81055 0.390625 12.5 0.390625C19.1895 0.390625 24.6094 5.81055 24.6094 12.5ZM18.1494 10.4883C17.6904 10.4883 17.2852 10.6787 16.9873 10.9766C15.8936 10.2197 14.4189 9.73145 12.7832 9.67773L13.6328 5.85449L16.3379 6.46484C16.3379 7.12891 16.8799 7.66602 17.5391 7.66602C18.2129 7.66602 18.7549 7.11426 18.7549 6.4502C18.7549 5.78613 18.2129 5.23437 17.5391 5.23437C17.0654 5.23437 16.6602 5.51758 16.46 5.9082L13.4717 5.24414C13.3252 5.20508 13.1738 5.3125 13.1348 5.45898L12.2021 9.67773C10.5811 9.74609 9.12109 10.2295 8.02734 10.9863C7.72949 10.6738 7.30957 10.4883 6.85059 10.4883C5.14648 10.4883 4.58984 12.7783 6.14746 13.5547C6.09375 13.7988 6.06445 14.0527 6.06445 14.3115C6.06445 16.8799 8.95508 18.96 12.5098 18.96C16.0791 18.96 18.9697 16.8799 18.9697 14.3115C18.9697 14.0527 18.9404 13.7842 18.877 13.54C20.4053 12.7588 19.8438 10.4883 18.1494 10.4883V10.4883ZM14.7852 16.1621C13.8965 17.0508 11.0693 17.0361 10.2148 16.1621C10.1074 16.0547 9.91699 16.0547 9.80957 16.1621C9.6875 16.2842 9.6875 16.4746 9.80957 16.582C10.9229 17.6953 14.0723 17.6953 15.1904 16.582C15.3125 16.4746 15.3125 16.2842 15.1904 16.1621C15.083 16.0547 14.8926 16.0547 14.7852 16.1621ZM15.1611 12.5C14.4971 12.5 13.96 13.042 13.96 13.7158C13.96 14.3799 14.502 14.917 15.1611 14.917C15.835 14.917 16.377 14.375 16.377 13.7158C16.377 13.042 15.8398 12.5 15.1611 12.5V12.5Z" fill="#3F6587"/>
</svg>
