<svg width="25" height="25" viewBox="0 0 25 25" fill="none" xmlns="http://www.w3.org/2000/svg">
<path d="M15.3229 24.2599C13.1724 23.8388 11.8941 22.5906 8.63069 17.7482C7.5479 16.124 7.5479 16.124 6.49519 16.0488C4.9462 15.9435 5.06651 15.6728 5.11162 19.0866C5.17178 22.9666 5.12666 22.8764 7.36744 23.2523C7.95395 23.3426 7.99906 23.3877 7.99906 23.7336C7.99906 24.1246 7.99906 24.1246 4.05891 24.1547C0.359373 24.1847 0.118753 24.1697 0.0435594 23.9441C-0.106828 23.508 0.118753 23.2975 0.930846 23.1471C1.84821 22.9816 2.32945 22.6057 2.44976 21.974C2.50992 21.7334 2.52496 18.4851 2.49488 14.7554C2.44976 6.92024 2.53999 7.38645 1.09627 7.07063C0.193947 6.87513 -0.0917897 6.66458 0.0285203 6.30365C0.118753 6.06303 0.314257 6.048 4.41984 5.9728C10.5256 5.85249 11.6685 6.04799 13.2927 7.49172C14.9921 9.01063 15.2327 11.3266 13.8792 13.2666C13.2777 14.1388 12.0746 15.0713 11.1422 15.4171C10.706 15.5826 10.3451 15.763 10.3451 15.8232C10.3451 16.0037 11.7287 17.9737 12.5859 19.0264C14.8718 21.8086 16.105 22.8914 17.3833 23.2223C18.1803 23.4328 18.4059 23.6584 18.1803 24.0494C17.9397 24.4554 16.7366 24.5457 15.3229 24.2599V24.2599ZM9.5631 14.2892C12.5708 13.0561 12.7964 8.9204 9.93906 7.70226C9.20217 7.38645 9.00666 7.37141 7.15689 7.37141C5.15674 7.37141 5.15674 7.37141 5.12666 10.8454C5.09658 12.7553 5.11162 14.4095 5.15674 14.4998C5.29209 14.8156 8.67581 14.6502 9.5631 14.2892ZM20.0451 10.0032C17.7141 9.56707 16.9471 8.13838 17.0674 4.46893C17.1276 2.43869 17.293 1.88226 18.075 1.04009C19.4586 -0.448749 22.8874 -0.3134 24.1507 1.28071C24.6921 1.95745 24.647 2.168 23.895 2.39358C23.3085 2.58908 23.3085 2.58908 22.7671 2.04768C21.4888 0.814507 19.2781 1.26567 18.8871 2.85978C18.6916 3.5666 18.7067 6.55931 18.9022 7.23606C19.4285 9.14598 22.6017 9.14598 23.1431 7.23606C23.474 6.01792 23.3988 5.92768 21.94 5.85249C21.2332 5.82241 21.2332 5.82241 21.2332 5.2359C21.2332 4.66443 21.2332 4.66443 22.9175 4.61931C25.0981 4.5742 25.0681 4.54412 24.9628 6.13823C24.8274 8.13838 24.286 9.10086 22.9777 9.67234C22.1205 10.0333 20.9474 10.1686 20.0451 10.0032V10.0032Z" fill="#3F6587"/>
</svg>
