<svg width="140" height="42" viewBox="0 0 140 42" fill="none" xmlns="http://www.w3.org/2000/svg">
<g clip-path="url(#clip0_5838_133768)">
<path d="M24.8128 13.1219C24.8128 13.1884 24.8128 13.2548 24.8128 13.3213C24.8128 13.3435 24.8128 13.3657 24.8128 13.3878C24.8128 13.41 24.8128 13.41 24.8128 13.4321C24.791 14.1413 24.7257 14.8504 24.5733 15.5374C22.1572 11.5485 17.8256 8.8892 12.9063 8.8892C9.51073 8.8892 6.85518 11.7479 6.96402 15.1163C7.00755 18.6842 10.0331 20.9446 12.9063 22.9612C11.9921 23.6039 11.0779 24.2465 10.1855 24.9114C9.88076 25.133 9.57603 25.3767 9.29306 25.6205C5.78861 23.338 0.999924 18.3075 0.999924 13.3435C0.912857 6.36288 6.39808 1 12.9063 1C19.4799 1 24.8128 6.42936 24.8128 13.1219Z" fill="url(#paint0_linear_5838_133768)"/>
<path d="M24.5731 15.5374C23.2018 19.9252 20.0239 23.3601 16.5194 25.6426C15.3875 24.6897 14.1251 23.8476 12.9061 22.9833C15.7793 20.9446 18.8049 18.6842 18.8485 15.1163C18.9573 11.77 16.367 8.9778 13.0585 8.88916C17.9343 8.93348 22.2005 11.5928 24.5731 15.5374Z" fill="url(#paint1_linear_5838_133768)"/>
<path d="M20.6556 32.9778C20.7209 37.4986 17.1729 41.0221 12.9066 41.0221C9.0539 41.0221 5.85418 38.1634 5.26648 34.4183C7.46492 35.9252 10.0987 36.7894 12.9066 36.7894C14.8874 36.7894 16.4764 35.1717 16.4764 33.1551C16.4764 30.8947 14.735 29.3435 12.9066 28.036C13.995 27.2604 15.2574 26.4847 16.5199 25.6648C18.936 27.6371 20.5685 29.831 20.6556 32.9778Z" fill="url(#paint2_linear_5838_133768)"/>
<path d="M12.9061 22.9612C14.1251 23.8254 15.3875 24.6897 16.5194 25.6205C15.2569 26.4404 13.9945 27.216 12.9061 27.9917C11.8178 27.216 10.5553 26.4404 9.29285 25.6205C9.57581 25.3767 9.88055 25.1329 10.1853 24.9113C11.0777 24.2465 11.9919 23.6038 12.9061 22.9612Z" fill="url(#paint3_linear_5838_133768)"/>
<path d="M12.82 36.7674C10.0338 36.7452 7.42182 35.8809 5.26691 34.3962C5.17985 33.9086 5.15808 33.4433 5.15808 32.9779C5.22338 29.8311 6.87766 27.6372 9.272 25.6427C10.5345 26.4626 11.7969 27.2383 12.8853 28.0139C10.861 29.4543 9.35907 30.9613 9.31553 33.0222C9.29377 35.1275 10.9045 36.723 12.82 36.7674Z" fill="url(#paint4_linear_5838_133768)"/>
<path d="M38.0902 32.1136C36.1747 32.1136 34.1722 31.8477 33.4539 31.6483V29.4765C34.6728 29.5873 36.0441 29.7203 37.8725 29.7203C39.6574 29.7203 40.5063 29.2106 40.5063 27.8588C40.5063 26.8837 40.1363 26.3519 38.6562 25.7092L36.4359 24.7785C34.2593 23.8699 33.0839 22.6067 33.0839 20.4128C33.0839 17.5098 34.8687 16.446 38.3732 16.446C40.2451 16.446 41.9865 16.7563 42.683 16.9336V19.0832C41.5511 18.9724 40.0492 18.8172 38.5038 18.8172C36.7842 18.8172 35.8482 19.1275 35.8482 20.3242C35.8482 21.2327 36.2618 21.6981 37.7419 22.2965L39.7445 23.1164C42.3347 24.1801 43.3578 25.266 43.3578 27.8145C43.336 30.5845 41.3988 32.1136 38.0902 32.1136Z" fill="#126DB0"/>
<path d="M58.3337 31.8034V24.3574C58.3337 23.0943 58.3119 22.3851 56.9189 22.3851C56.2876 22.3851 55.3734 22.6511 54.5898 23.0721C54.6551 23.5153 54.6551 23.9586 54.6551 24.3574V31.8034H52.0431V24.3574C52.0431 23.0943 52.0214 22.3851 50.7589 22.3851C49.9535 22.3851 49.0393 22.7619 48.3645 23.1164V31.8034H45.7743V20.4128H48.2775V21.3214C49.1917 20.5901 50.3888 20.1248 51.6078 20.1248C52.9356 20.1248 53.6974 20.5901 54.1545 21.3658C55.417 20.4793 56.5924 20.1248 57.6372 20.1248C60.7934 20.1248 60.9893 22.2522 60.9893 24.291V31.8034H58.3337Z" fill="#126DB0"/>
<path d="M70.0656 31.8034V31.05C69.3691 31.5375 68.1284 32.0915 66.5394 32.0915C64.4498 32.0915 63.2744 31.05 63.2744 28.8339V28.4128C63.2744 25.3768 65.4076 24.9779 68.5637 24.9779H69.8915V24.2688C69.8915 22.6511 69.5432 22.3187 67.5625 22.3187C66.4524 22.3187 65.277 22.4073 64.058 22.5403V20.7453C64.5369 20.5458 66.1912 20.1248 67.9978 20.1248C71.5676 20.1248 72.5035 21.3658 72.5035 24.2688V31.8034H70.0656ZM69.935 26.6178H68.542C66.6265 26.6178 65.7994 26.8394 65.7994 28.3464V28.8339C65.7994 29.8754 66.4306 30.1635 67.3666 30.1635C68.4331 30.1635 69.5215 29.7203 69.935 29.4766V26.6178Z" fill="#126DB0"/>
<path d="M77.8577 23.2716V31.8034H75.2675V20.4128H77.7489V21.3436C78.7937 20.3907 80.165 20.1248 81.5581 20.1248V22.5624C80.1867 22.5846 78.7066 22.8727 77.8577 23.2716Z" fill="#126DB0"/>
<path d="M87.479 32.0915C85.2806 32.0915 84.4099 31.205 84.4099 28.8117V22.5624L82.3203 22.3851V20.435H84.4099V17.5541H87.0219V20.435H89.7428V22.5845H87.0219V28.8117C87.0219 29.8532 87.109 30.0749 88.045 30.0749C88.6109 30.0749 89.4163 30.0305 89.7428 29.9862V31.8034C89.438 31.8477 88.4585 32.0915 87.479 32.0915Z" fill="#126DB0"/>
<path d="M100.387 31.9141C98.5803 31.9141 97.579 31.8698 95.7723 31.8033V16.7784C97.5572 16.6898 98.4279 16.6676 100.387 16.6676C105.176 16.6676 107.2 18.928 107.2 23.3158V25.2216C107.2 29.6316 105.306 31.9141 100.387 31.9141ZM104.436 23.3158C104.436 20.036 103.173 19.0831 100.322 19.0831H98.515V29.543H100.343C103.173 29.543 104.457 28.5014 104.457 25.2216V23.3158H104.436Z" fill="#126DB0"/>
<path d="M115.949 31.8034V31.05C115.253 31.5375 114.012 32.0915 112.423 32.0915C110.333 32.0915 109.158 31.05 109.158 28.8339V28.4128C109.158 25.3768 111.291 24.9779 114.447 24.9779H115.775V24.2688C115.775 22.6511 115.427 22.3187 113.446 22.3187C112.336 22.3187 111.161 22.4073 109.942 22.5403V20.7453C110.421 20.5458 112.075 20.1248 113.881 20.1248C117.451 20.1248 118.387 21.3658 118.387 24.2688V31.8034H115.949ZM115.819 26.6178H114.426C112.51 26.6178 111.683 26.8394 111.683 28.3464V28.8339C111.683 29.8754 112.314 30.1635 113.25 30.1635C114.317 30.1635 115.405 29.7203 115.819 29.4766V26.6178Z" fill="#126DB0"/>
<path d="M125.005 32.0915C122.807 32.0915 121.936 31.205 121.936 28.8117V22.5624L119.847 22.3851V20.435H121.936V17.5541H124.548V20.435H127.269V22.5845H124.548V28.8117C124.548 29.8532 124.635 30.0749 125.571 30.0749C126.137 30.0749 126.943 30.0305 127.269 29.9862V31.8034C126.964 31.8477 126.007 32.0915 125.005 32.0915Z" fill="#126DB0"/>
<path d="M135.583 31.8034V31.05C134.887 31.5375 133.646 32.0915 132.057 32.0915C129.967 32.0915 128.792 31.05 128.792 28.8339V28.4128C128.792 25.3768 130.925 24.9779 134.081 24.9779H135.409V24.2688C135.409 22.6511 135.061 22.3187 133.08 22.3187C131.97 22.3187 130.794 22.4073 129.575 22.5403V20.7453C130.054 20.5458 131.709 20.1248 133.515 20.1248C137.085 20.1248 138.021 21.3658 138.021 24.2688V31.8034H135.583ZM135.453 26.6178H134.059C132.144 26.6178 131.317 26.8394 131.317 28.3464V28.8339C131.317 29.8754 131.948 30.1635 132.884 30.1635C133.951 30.1635 135.039 29.7203 135.453 29.4766V26.6178Z" fill="#126DB0"/>
</g>
<defs>
<linearGradient id="paint0_linear_5838_133768" x1="10.0738" y1="11.7207" x2="21.2398" y2="18.2015" gradientUnits="userSpaceOnUse">
<stop stop-color="#0069B4"/>
<stop offset="1" stop-color="#4F8FCC"/>
</linearGradient>
<linearGradient id="paint1_linear_5838_133768" x1="18.745" y1="17.2597" x2="18.745" y2="29.1671" gradientUnits="userSpaceOnUse">
<stop stop-color="#EF7D00"/>
<stop offset="0.4825" stop-color="#F39200"/>
</linearGradient>
<linearGradient id="paint2_linear_5838_133768" x1="16.9394" y1="39.158" x2="9.38087" y2="28.1905" gradientUnits="userSpaceOnUse">
<stop stop-color="#0069B4"/>
<stop offset="1" stop-color="#4F8FCC"/>
</linearGradient>
<linearGradient id="paint3_linear_5838_133768" x1="9.29348" y1="25.4892" x2="16.5218" y2="25.4892" gradientUnits="userSpaceOnUse">
<stop stop-color="#0069B4"/>
<stop offset="1" stop-color="#2472AC"/>
</linearGradient>
<linearGradient id="paint4_linear_5838_133768" x1="9.03835" y1="31.2013" x2="9.03835" y2="39.0814" gradientUnits="userSpaceOnUse">
<stop stop-color="#F39200"/>
<stop offset="1" stop-color="#EC6608"/>
</linearGradient>
<clipPath id="clip0_5838_133768">
<rect width="137" height="40" fill="white" transform="translate(1 1)"/>
</clipPath>
</defs>
</svg>
