<svg width="100" height="73" viewBox="0 0 100 73" fill="none" xmlns="http://www.w3.org/2000/svg">
<path d="M13.3009 23.0071C12.7306 22.5305 12.0898 22.1453 11.4015 21.865C10.8173 21.6275 10.1936 21.5018 9.56302 21.4944C8.90722 21.4662 8.26041 21.6549 7.72274 22.0315C7.49817 22.1874 7.31539 22.3961 7.19051 22.6393C7.06564 22.8825 7.00251 23.1527 7.00668 23.426C6.99455 23.7865 7.12292 24.1376 7.36471 24.4052C7.63206 24.6839 7.94895 24.9103 8.29917 25.073C8.71942 25.2733 9.15602 25.4374 9.6042 25.5635C10.0887 25.7019 10.5661 25.8499 11.0363 26.0074C12.9351 26.6411 14.3248 27.4867 15.2056 28.5441C16.0864 29.6015 16.5267 30.9811 16.5267 32.6829C16.5417 33.7498 16.3452 34.8091 15.9485 35.7996C15.5728 36.7135 14.9943 37.5301 14.2568 38.1877C13.4607 38.8816 12.5319 39.4066 11.5268 39.7308C10.3436 40.1129 9.10568 40.2985 7.86237 40.2803C5.04224 40.2828 2.29237 39.4006 0 37.758L2.4919 33.0696C3.25824 33.7731 4.12906 34.3534 5.07331 34.7899C5.86518 35.1529 6.7246 35.345 7.59564 35.3538C8.54442 35.3538 9.25153 35.1366 9.71698 34.7022C9.93226 34.5188 10.1059 34.2915 10.2263 34.0356C10.3467 33.7797 10.4111 33.501 10.4151 33.2182C10.421 32.9167 10.3599 32.6177 10.2361 32.3428C10.0962 32.0706 9.89223 31.8366 9.64179 31.6607C9.31035 31.4222 8.94929 31.2279 8.56769 31.0825C8.12254 30.9035 7.5855 30.7054 6.95655 30.4882C6.20469 30.2495 5.46774 29.9875 4.74571 29.7023C4.04557 29.4282 3.39447 29.0425 2.81771 28.5602C2.24047 28.0672 1.77484 27.457 1.45182 26.77C1.10572 26.054 0.932673 25.1392 0.932673 24.0257C0.918693 22.9959 1.10536 21.9732 1.48225 21.0147C1.82309 20.141 2.34468 19.3491 3.01284 18.691C3.70949 18.0262 4.53845 17.5156 5.44566 17.1927C6.47906 16.8226 7.57039 16.6408 8.66794 16.6556C9.84017 16.6645 11.0068 16.819 12.1409 17.1157C13.3481 17.424 14.5136 17.8772 15.612 18.4655L13.3009 23.0071Z" fill="black"/>
<path d="M26.0003 17.2804V29.4534C26.0003 30.1051 26.0253 30.7722 26.0754 31.4548C26.1134 32.0943 26.2637 32.7221 26.5194 33.3094C26.7681 33.8654 27.1762 34.3352 27.692 34.6592C28.2254 35.0065 28.9773 35.1796 29.9476 35.1784C30.9178 35.1772 31.6643 35.0041 32.187 34.6592C32.6979 34.3294 33.1045 33.8613 33.3596 33.3094C33.624 32.7243 33.7793 32.0958 33.8179 31.4548C33.868 30.7734 33.8931 30.1056 33.8931 29.4516V17.2786H39.6789V30.2447C39.6789 33.7271 38.8828 36.2692 37.2908 37.8708C35.6987 39.4724 33.2522 40.2732 29.9511 40.2732C26.6465 40.2732 24.1934 39.4724 22.5918 37.8708C20.9902 36.2692 20.1888 33.7271 20.1876 30.2447V17.2804H26.0003Z" fill="black"/>
<path d="M50.1817 39.652H44.3655V17.275H53.6242C56.1304 17.275 58.0542 17.9278 59.3956 19.2335C60.7371 20.5391 61.4042 22.3776 61.397 24.7489C61.397 27.1227 60.7299 28.9624 59.3956 30.268C58.0614 31.5736 56.1375 32.2264 53.6242 32.2264H50.1817V39.652ZM50.1817 27.5452H52.1115C54.2465 27.5452 55.3147 26.6155 55.3159 24.7561C55.3171 22.8967 54.2483 21.967 52.1097 21.967H50.1817V27.5452Z" fill="black"/>
<path d="M77.2131 22.2034H70.2995V25.9412H76.8264V30.8659H70.2995V34.7237H77.2131V39.6485H64.4833V17.2715H77.2113L77.2131 22.2034Z" fill="black"/>
<path d="M100 39.6502H92.7607L87.2112 31.0467V39.6502H81.3967V17.2732H90.4478C91.5604 17.2499 92.6676 17.4363 93.7112 17.8228C94.5558 18.134 95.3217 18.6271 95.9546 19.2672C96.5876 19.9072 97.0721 20.6786 97.3739 21.5266C97.6847 22.3825 97.8405 23.2869 97.834 24.1975C97.834 25.8982 97.4234 27.2778 96.6023 28.3364C95.7812 29.3949 94.5699 30.111 92.9683 30.4846L100 39.6502ZM87.2112 27.2784H88.3085C89.4566 27.2784 90.3374 27.0397 90.9508 26.5623C91.5642 26.0849 91.8703 25.4023 91.8692 24.5144C91.8692 23.6253 91.563 22.9426 90.9508 22.4664C90.3386 21.9903 89.4578 21.7516 88.3085 21.7504H87.2112V27.2784Z" fill="black"/>
<path d="M1.11169 67.6304V44.3726H7.15885L18.3258 58.5919V44.3708H24.3408V67.6286H18.3258L7.15705 53.4094V67.6304H1.11169Z" fill="black"/>
<path d="M60.4894 44.3708L66.1033 58.5292L71.7549 44.3708H78.3247L68.5093 67.6286H63.6991L53.9177 44.3708H60.4894Z" fill="black"/>
<path d="M91.921 63.5953H83.2835L81.8961 67.6375H75.4515L84.3021 44.369H90.9095L99.7637 67.6268H93.3191L91.921 63.5953ZM90.3098 59L87.6031 51.2432L84.8875 58.9857L90.3098 59Z" fill="black"/>
<path d="M8.23832 2.59579C7.64757 1.65774 6.81514 1.05088 5.58351 1.05088C5.2561 1.05011 4.93183 1.11471 4.6297 1.2409C4.32758 1.36709 4.0537 1.55233 3.8241 1.78576C3.59451 2.01919 3.41383 2.2961 3.29266 2.60027C3.17149 2.90444 3.11227 3.22974 3.11847 3.5571C3.11847 4.92836 4.41991 5.50121 5.4779 6.00424L7.98412 7.30569C8.97407 7.93046 9.47711 8.72887 9.47711 9.90858C9.47711 12.0783 7.50793 13.7091 5.38123 13.7091C3.55885 13.7091 2.13746 12.5813 1.52881 10.8967L2.25919 10.5674C2.81414 11.9565 3.83811 12.9286 5.41703 12.9286C7.13379 12.9286 8.63931 11.5734 8.63931 9.83877C8.63931 8.36368 7.12842 7.73891 6.00062 7.18396L3.64119 5.93085C2.77297 5.3938 2.28783 4.6294 2.28783 3.58753C2.28783 1.64521 3.67521 0.273951 5.63722 0.273951C6.28415 0.271537 6.9202 0.44035 7.48079 0.763248C8.04139 1.08615 8.50656 1.55163 8.82907 2.11244L8.23832 2.59579Z" fill="black"/>
<path d="M20.4382 13.5282H19.6058V1.22444H16.2206V0.442139H23.8216V1.22444H20.4382V13.5282Z" fill="black"/>
<path d="M31.129 9.22289L29.3764 13.5193H28.5261L34.0094 0L39.4765 13.5175H38.6262L36.8736 9.2211L31.129 9.22289ZM34.0094 2.12492L31.4423 8.44238H36.5604L34.0094 2.12492Z" fill="black"/>
<path d="M53.3431 13.5264H52.389L48.1248 7.33066H47.7077V13.5264H46.8717V0.442139H48.5025C49.5623 0.442139 50.6024 0.460039 51.4885 1.10092C52.4248 1.76148 52.8061 2.80157 52.8061 3.91325C52.8061 6.18675 51.2272 7.36647 49.0593 7.33066L53.3431 13.5264ZM48.7621 6.54479C49.5766 6.54479 50.3929 6.51077 51.0517 5.93792C51.3495 5.68404 51.5867 5.36674 51.7459 5.00928C51.9051 4.65182 51.9823 4.26326 51.9719 3.87208C51.9719 2.90003 51.5207 1.92976 50.5845 1.51265C49.8899 1.18326 49.0038 1.21728 48.2412 1.21728H47.7041V6.54479H48.7621Z" fill="black"/>
<path d="M63.8083 13.5264H62.983V1.22265H59.5907V0.442139H67.1917V1.22265H63.8083V13.5264Z" fill="black"/>
<path d="M82.5335 0.44043H83.3677V8.59639C83.3677 9.93364 83.3677 11.0793 82.4726 12.1767C81.5883 13.1846 80.2349 13.7037 78.9156 13.7055C77.5962 13.7073 76.2429 13.1846 75.3585 12.1785C74.4724 11.0847 74.4724 9.93901 74.4724 8.59818V0.44043H75.3048V8.35472C75.3048 9.53443 75.3048 10.784 75.9815 11.6522C76.6224 12.4846 77.9077 12.9178 78.9138 12.9178C79.9199 12.9178 81.2052 12.4846 81.8461 11.6522C82.5228 10.784 82.5228 9.53443 82.5228 8.35472L82.5335 0.44043Z" fill="black"/>
<path d="M92.791 13.5247H91.9586V0.44043H94.2661C95.2901 0.44043 96.2782 0.510244 97.0945 1.20483C97.4756 1.53887 97.7788 1.95246 97.9826 2.41642C98.1865 2.88039 98.286 3.38343 98.2743 3.89006C98.2743 4.8281 97.9162 5.86819 97.1805 6.47684C96.3839 7.16963 95.2901 7.30926 94.2661 7.30926H92.791V13.5247ZM94.3001 6.53234C95.1505 6.53234 95.9113 6.42851 96.5915 5.81627C96.8659 5.56992 97.0839 5.26727 97.2306 4.92898C97.3774 4.59069 97.4494 4.22472 97.4418 3.85605C97.4534 3.45154 97.3706 3.04991 97.2 2.68295C97.0294 2.31599 96.7757 1.99379 96.459 1.74187C95.8003 1.23884 94.9679 1.22094 94.1695 1.22094H92.7982V6.53234H94.3001Z" fill="black"/>
<path d="M27.8925 44.1292L42.7132 45.7762L36.3474 42.3265L27.8925 44.1292Z" fill="#FFCC33"/>
<path d="M42.7132 45.7761L44.3029 38.1232L36.3474 42.3265L42.7132 45.7761Z" fill="#FF6633"/>
<path d="M44.3028 38.1232L50.9479 43.8535L42.7131 45.7761L44.3028 38.1232Z" fill="#FF9933"/>
<path d="M42.7131 45.7761L58.0029 48.1266L50.9479 43.8535L42.7131 45.7761Z" fill="#FF6633"/>
<path d="M42.7131 45.7761L48.8856 60.4125L58.0029 48.1266L42.7131 45.7761Z" fill="#FF3399"/>
<path d="M42.7132 45.7761L33.322 58.2266L27.8925 44.1292L42.7132 45.7761Z" fill="#FF9933"/>
<path d="M58.0029 48.1266L55.9299 57.1955L48.8856 60.4124L58.0029 48.1266Z" fill="#FF6699"/>
<path d="M41.5264 54.8146L48.8857 60.4125L42.7132 45.7761L41.5264 54.8146Z" fill="#993366"/>
<path d="M55.4358 65.441L55.9299 57.1956L48.8856 60.4125L55.4358 65.441Z" fill="#FF3333"/>
<path d="M42.7132 45.7761L41.6409 54.6786L33.322 58.2267L42.7132 45.7761Z" fill="#FFCC33"/>
<path d="M27.8925 44.1292L28.2666 53.6832L33.3811 58.2803L27.8925 44.1292Z" fill="#FF6633"/>
<path d="M28.2666 53.6832L33.322 58.2267L26.3816 61.4167L28.2666 53.6832Z" fill="#FF9933"/>
<path d="M26.3816 61.4167L33.4653 66.4005L33.322 58.2267L26.3816 61.4167Z" fill="#FFCC33"/>
<path d="M33.322 58.2266L48.9752 60.373L41.5997 54.6553L33.322 58.2266Z" fill="#FF3333"/>
<path d="M48.9751 60.373L47.5 68.4825L55.4358 65.441L48.9751 60.373Z" fill="#CC3333"/>
<path d="M48.9752 60.373L39.2367 72.752L47.5001 68.4825L48.9752 60.373Z" fill="#FF6699"/>
<path d="M33.322 58.2267L33.4241 66.3791L39.2403 72.761L33.322 58.2267Z" fill="#FF3333"/>
<path d="M33.322 58.2267L48.9752 60.3731L39.2367 72.752L33.322 58.2267Z" fill="#FFCC66"/>
</svg>
