<svg width="25" height="10" viewBox="0 0 25 10" fill="none" xmlns="http://www.w3.org/2000/svg">
<path d="M2.52145 2.31335H0L0 0H7.83642V2.31335H5.31443V9.0625H2.52145V2.31335V2.31335ZM8.27006 0H15.8897V2.31335H11.0633V3.42924H15.8897V5.6061H11.0633V6.74915H15.8897V9.0625H8.27006V0V0ZM16.3503 0H20.9329C23.9429 0 25 2.23171 25 4.51782C25 7.29367 23.5355 9.0625 20.3904 9.0625H16.3503V0V0ZM19.1435 6.74915H20.2276C21.963 6.74915 22.2076 5.33426 22.2076 4.49066C22.2076 3.9189 22.0177 2.34059 20.0108 2.34059H19.1157L19.1435 6.74915V6.74915Z" fill="#3F6587"/>
</svg>
