<svg width="159" height="37" viewBox="0 0 159 37" fill="none" xmlns="http://www.w3.org/2000/svg">
<g clip-path="url(#clip0_5842_137071)">
<path d="M135.797 10.7799C138.69 10.7799 140.994 11.7249 142.709 13.615C144.423 15.5052 145.294 18.0754 145.322 21.3256V35.7689H137.791V22.3457C137.791 20.6901 137.363 19.4003 136.507 18.4764C135.573 17.5932 134.337 17.1011 133.051 17.1011C131.766 17.1011 130.529 17.5932 129.595 18.4764C128.737 19.3909 128.309 20.6807 128.311 22.3457V35.7689H120.734V11.0472H128.311V14.3256C129.102 13.213 130.171 12.3265 131.41 11.7542C132.776 11.091 134.278 10.7573 135.797 10.7799V10.7799ZM115.243 11.0472V35.7689H107.666V11.0472H115.243ZM111.476 8.47583C110.275 8.51915 109.103 8.10415 108.198 7.31502C107.797 6.9413 107.48 6.48769 107.266 5.98354C107.052 5.47939 106.946 4.93595 106.956 4.38838C106.941 3.84059 107.044 3.29603 107.258 2.79166C107.473 2.28729 107.793 1.83492 108.198 1.46526C109.093 0.657025 110.27 0.231539 111.476 0.279826C112.061 0.256887 112.644 0.350853 113.192 0.556219C113.74 0.761585 114.241 1.07422 114.666 1.47581C115.082 1.83854 115.413 2.28861 115.635 2.7939C115.857 3.29919 115.965 3.84724 115.95 4.39893C115.957 4.94856 115.846 5.49331 115.625 5.99638C115.403 6.49945 115.077 6.94912 114.666 7.31502C113.795 8.10345 112.65 8.52003 111.476 8.47583V8.47583ZM92.8749 10.7799C95.771 10.7799 98.075 11.7249 99.7869 13.615C101.499 15.5052 102.37 18.0754 102.401 21.3256V35.7689H94.8693V22.3457C94.8693 20.6901 94.4414 19.4003 93.5854 18.4764C92.6514 17.5932 91.4148 17.1011 90.1294 17.1011C88.844 17.1011 87.6073 17.5932 86.6733 18.4764C85.815 19.3909 85.3859 20.6807 85.3859 22.3457V35.7689H77.8125V11.0472H85.3859V14.3256C86.1792 13.2136 87.2485 12.3274 88.4884 11.7542C89.8543 11.091 91.3566 10.7573 92.8749 10.7799V10.7799ZM63.021 10.7799C65.9172 10.7799 68.2212 11.7249 69.9331 13.615C71.645 15.5052 72.5162 18.0754 72.5467 21.3256V35.7689H65.0155V22.3457C65.0155 20.6901 64.5863 19.4003 63.728 18.4764C62.7941 17.5932 61.5574 17.1011 60.272 17.1011C58.9866 17.1011 57.7499 17.5932 56.816 18.4764C55.9624 19.3909 55.5344 20.6807 55.532 22.3457V35.7689H47.9727V11.0472H55.5496V14.3256C56.3413 13.212 57.411 12.3255 58.6521 11.7542C60.0126 11.0933 61.5087 10.7597 63.021 10.7799V10.7799ZM36.2064 21.0337C36.2317 20.4499 36.1253 19.8679 35.8952 19.3308C35.665 18.7938 35.3169 18.3154 34.8767 17.9311C33.9475 17.1907 32.7973 16.7822 31.6092 16.7707C30.4211 16.7593 29.2633 17.1454 28.3199 17.8678C27.4154 18.6901 26.8466 19.8175 26.7229 21.0337H36.2064ZM43.9451 23.0281C43.9426 23.7676 43.898 24.5063 43.8114 25.2407H26.6807C26.805 26.7673 27.2916 27.9446 28.1405 28.7724C29.0267 29.57 30.1848 29.998 31.3767 29.9684C33.2668 29.9684 34.5812 29.171 35.3199 27.5764H43.3998C42.9921 29.1919 42.2195 30.6924 41.1415 31.9628C40.0521 33.2795 38.6722 34.3259 37.1104 35.0196C35.3941 35.7777 33.5342 36.1556 31.6581 36.1277C29.4051 36.1683 27.1788 35.6344 25.1892 34.5764C23.3095 33.5603 21.765 32.0207 20.743 30.1442C19.6409 28.0733 19.0909 25.7533 19.146 23.408C19.0918 21.0683 19.6251 18.7522 20.6973 16.6718C21.715 14.797 23.2546 13.2574 25.1294 12.2397C27.133 11.1788 29.3739 10.6461 31.6405 10.6919C33.8601 10.651 36.0543 11.1688 38.0214 12.1974C39.8565 13.1764 41.3653 14.6705 42.3622 16.496C43.4607 18.4882 44.0118 20.7361 43.9591 23.0105L43.9451 23.0281ZM16.4199 29.3598V35.7829H12.5505C9.8021 35.7829 7.65988 35.1181 6.12386 33.7885C4.58785 32.4588 3.83039 30.2545 3.8515 27.1754V17.3261H0.836914V11.0472H3.8515V5.02155H11.4249V11.0472H16.3882V17.3367H11.4249V27.2633C11.4249 28.002 11.6031 28.5332 11.9596 28.8568C12.316 29.1804 12.9023 29.3434 13.7184 29.3457L16.4199 29.3598Z" fill="black"/>
<path d="M154.134 36.1242C152.935 36.1712 151.762 35.7599 150.855 34.974C150.458 34.5987 150.144 34.1444 149.933 33.6403C149.722 33.1363 149.62 32.5936 149.631 32.0473C149.619 31.4931 149.723 30.9425 149.937 30.4311C150.151 29.9197 150.47 29.4589 150.873 29.0785C151.768 28.2674 152.944 27.8382 154.151 27.8825C154.736 27.8608 155.319 27.9553 155.867 28.1606C156.414 28.3659 156.916 28.6779 157.342 29.0785C157.756 29.4526 158.085 29.9112 158.306 30.4234C158.528 30.9356 158.637 31.4894 158.626 32.0473C158.633 32.5985 158.521 33.1447 158.3 33.6494C158.079 34.1541 157.752 34.6057 157.342 34.974C156.464 35.7623 155.312 36.1752 154.134 36.1242V36.1242Z" fill="#47E285"/>
</g>
<defs>
<clipPath id="clip0_5842_137071">
<rect width="157.771" height="35.8443" fill="white" transform="translate(0.836914 0.279785)"/>
</clipPath>
</defs>
</svg>
