<svg width="25" height="29" viewBox="0 0 25 29" fill="none" xmlns="http://www.w3.org/2000/svg">
<path d="M18.5288 10.1976C20.3529 11.5008 22.5874 12.2676 25.0009 12.2676V7.62581C24.5441 7.6259 24.0885 7.5783 23.6417 7.48367V11.1374C21.2284 11.1374 18.9942 10.3706 17.1696 9.06749V18.5401C17.1696 23.2787 13.3262 27.1199 8.58544 27.1199C6.81653 27.1199 5.17241 26.5854 3.80664 25.6687C5.36544 27.2617 7.53932 28.25 9.94432 28.25C14.6854 28.25 18.529 24.4088 18.529 19.6699V10.1976H18.5288V10.1976ZM20.2055 5.51457C19.2733 4.49666 18.6612 3.18121 18.5288 1.72692V1.12988H17.2408C17.565 2.97828 18.6708 4.55745 20.2055 5.51457ZM6.80519 22.0324C6.28436 21.3498 6.00291 20.5149 6.00417 19.6564C6.00417 17.4891 7.76211 15.7318 9.93094 15.7318C10.3351 15.7317 10.7369 15.7936 11.1221 15.9157V11.1702C10.672 11.1085 10.2176 11.0824 9.76351 11.092V14.7857C9.37802 14.6635 8.97606 14.6014 8.57177 14.6018C6.40293 14.6018 4.64509 16.3589 4.64509 18.5265C4.64509 20.0591 5.52377 21.386 6.80519 22.0324Z" fill="#3F6587"/>
<path d="M23.6407 7.48368V6.49573C22.426 6.49757 21.2351 6.15756 20.2045 5.51457C21.1169 6.51289 22.3182 7.20125 23.6407 7.48368ZM17.2398 1.12998C17.2089 0.953335 17.1851 0.775524 17.1687 0.597034V0H12.4973V18.5401C12.4898 20.7011 10.735 22.4512 8.57061 22.4512C7.93518 22.4512 7.33524 22.3005 6.80394 22.0326C7.52149 22.9737 8.65448 23.5812 9.92979 23.5812C12.0938 23.5812 13.849 21.8313 13.8566 19.6699V1.12998H17.2398ZM9.76255 11.0922V10.0404C9.37222 9.98709 8.97868 9.96033 8.58467 9.96052C3.8434 9.96043 0 13.8018 0 18.5401C0 21.5107 1.51052 24.1287 3.80588 25.6687C2.29196 24.122 1.35918 22.0049 1.35918 19.6698C1.35918 14.992 5.10485 11.1883 9.76255 11.0922Z" fill="#3F6587"/>
</svg>
