<svg width="18" height="21" viewBox="0 0 18 21" fill="none" xmlns="http://www.w3.org/2000/svg">
<path d="M6.42857 16.4062C6.42857 16.7672 6.13929 17.0625 5.78571 17.0625C5.43214 17.0625 5.14286 16.7672 5.14286 16.4062V7.875C5.14286 7.51406 5.43214 7.21875 5.78571 7.21875C6.13929 7.21875 6.42857 7.51406 6.42857 7.875V16.4062ZM9.64286 16.4062C9.64286 16.7672 9.35357 17.0625 9 17.0625C8.64643 17.0625 8.35714 16.7672 8.35714 16.4062V7.875C8.35714 7.51406 8.64643 7.21875 9 7.21875C9.35357 7.21875 9.64286 7.51406 9.64286 7.875V16.4062ZM12.8571 16.4062C12.8571 16.7672 12.5679 17.0625 12.2143 17.0625C11.8607 17.0625 11.5714 16.7672 11.5714 16.4062V7.875C11.5714 7.51406 11.8607 7.21875 12.2143 7.21875C12.5679 7.21875 12.8571 7.51406 12.8571 7.875V16.4062ZM12.7567 1.02293L14.2313 3.28125H17.0357C17.5701 3.28125 18 3.72217 18 4.26562C18 4.81113 17.5701 5.25 17.0357 5.25H16.7143V17.7188C16.7143 19.5316 15.2759 21 13.5 21H4.5C2.72491 21 1.28571 19.5316 1.28571 17.7188V5.25H0.964286C0.43192 5.25 0 4.81113 0 4.26562C0 3.72217 0.43192 3.28125 0.964286 3.28125H3.76955L5.2433 1.02293C5.66116 0.383783 6.36429 0 7.11563 0H10.8844C11.6357 0 12.3388 0.383824 12.7567 1.02293ZM6.08705 3.28125H11.9129L11.1496 2.11477C11.0893 2.02371 10.9888 1.96875 10.8844 1.96875H7.11563C7.01116 1.96875 6.87455 2.02371 6.85045 2.11477L6.08705 3.28125ZM3.21429 17.7188C3.21429 18.4447 3.79004 19.0312 4.5 19.0312H13.5C14.2112 19.0312 14.7857 18.4447 14.7857 17.7188V5.25H3.21429V17.7188Z" fill="#3F6587"/>
</svg>
