<svg width="131" height="39" viewBox="0 0 131 39" fill="none" xmlns="http://www.w3.org/2000/svg">
<path d="M106.075 26.6443C106 26.639 105.924 26.639 105.849 26.6443C105.807 26.6484 105.767 26.6615 105.73 26.6825C105.697 26.7132 105.673 26.7532 105.662 26.7974L104.518 30.1533L103.314 26.8399C103.314 26.8016 103.285 26.7676 103.272 26.7463L103.204 26.691C103.164 26.6784 103.122 26.6698 103.08 26.6655H102.863C102.788 26.6605 102.713 26.6605 102.638 26.6655C102.594 26.668 102.553 26.6844 102.519 26.7123L102.485 26.7974C102.487 26.8501 102.498 26.902 102.519 26.9505L104.003 30.9274L104.054 31.0168L104.135 31.0763L103.561 32.5267C103.546 32.5617 103.537 32.5992 103.536 32.6373L103.578 32.7139C103.614 32.733 103.653 32.7459 103.693 32.7521C103.758 32.7572 103.823 32.7572 103.889 32.7521C104.005 32.7567 104.121 32.7438 104.233 32.7139C104.264 32.7065 104.292 32.6924 104.316 32.6725C104.341 32.6526 104.36 32.6275 104.373 32.599L104.926 31.0678L106.424 26.9292C106.439 26.8839 106.447 26.8367 106.449 26.7889L106.411 26.7038C106.375 26.676 106.332 26.6597 106.287 26.657C106.217 26.6521 106.146 26.6521 106.075 26.657V26.6443ZM98.5591 32.1864C98.2676 32.2 97.9768 32.1477 97.7084 32.0333C97.6188 31.9956 97.5424 31.9323 97.4887 31.8514C97.4349 31.7704 97.4063 31.6754 97.4064 31.5782C97.405 31.5151 97.4122 31.4522 97.4277 31.3911C97.4428 31.3249 97.4686 31.2617 97.5042 31.2039C97.5461 31.1318 97.596 31.0648 97.6531 31.004C97.7283 30.9257 97.8093 30.8531 97.8955 30.7871L98.9716 30.8254C99.1793 30.8187 99.3845 30.8719 99.5629 30.9785C99.635 31.0225 99.6937 31.0854 99.7327 31.1603C99.7717 31.2353 99.7894 31.3195 99.784 31.4038C99.7842 31.5078 99.7625 31.6107 99.7202 31.7058C99.6727 31.8042 99.6027 31.8901 99.5161 31.9568C99.4012 32.0379 99.2731 32.0983 99.1375 32.1354C98.9483 32.182 98.7538 32.2034 98.5591 32.1992V32.1864ZM98.5208 28.9666C98.4012 28.9733 98.2814 28.9557 98.1688 28.9147C98.0562 28.8738 97.9531 28.8104 97.8658 28.7284C97.7845 28.6434 97.7217 28.5424 97.6814 28.4318C97.6412 28.3213 97.6243 28.2036 97.6318 28.0862C97.6308 27.9649 97.6494 27.8442 97.6871 27.7289C97.7212 27.6201 97.7761 27.519 97.8487 27.4311C97.9223 27.3438 98.0156 27.2753 98.121 27.2312C98.2428 27.1777 98.3749 27.1516 98.508 27.1547C98.629 27.1475 98.7501 27.1649 98.8641 27.2059C98.9782 27.2468 99.0827 27.3104 99.1715 27.3929C99.2524 27.4825 99.3147 27.5873 99.3549 27.7012C99.395 27.8151 99.4122 27.9358 99.4055 28.0564C99.4044 28.1733 99.3857 28.2895 99.3502 28.4009C99.3169 28.5088 99.2619 28.6087 99.1886 28.6944C99.1137 28.7804 99.0208 28.8486 98.9163 28.8943C98.7904 28.9439 98.6561 28.9684 98.5208 28.9666V28.9666ZM98.5208 26.5677C98.3007 26.5649 98.0819 26.6009 97.8743 26.674C97.6846 26.738 97.5096 26.8392 97.3596 26.9718C97.2162 27.105 97.1031 27.2675 97.0278 27.4482C96.9448 27.6504 96.9043 27.8676 96.9087 28.0862C96.905 28.2629 96.9339 28.4388 96.9938 28.6051C97.046 28.7462 97.1223 28.8771 97.2192 28.9921C97.106 29.1089 97.0114 29.2423 96.9385 29.3877C96.8601 29.5448 96.8208 29.7184 96.8237 29.8939C96.8221 30.0276 96.859 30.159 96.93 30.2724C97.0127 30.3978 97.1272 30.4991 97.2618 30.5659C97.1696 30.6373 97.0828 30.7155 97.0023 30.7998C96.9289 30.8726 96.8647 30.954 96.8109 31.0423C96.7142 31.2167 96.663 31.4128 96.662 31.6122C96.6637 31.7599 96.6986 31.9053 96.7641 32.0376C96.8398 32.1835 96.9528 32.3067 97.0916 32.3949C97.2711 32.5015 97.4664 32.579 97.6701 32.6245C97.9493 32.6866 98.2348 32.7152 98.5208 32.7096C98.8265 32.7165 99.1316 32.6792 99.4268 32.599C99.6548 32.5374 99.8686 32.432 100.056 32.2885C100.21 32.1719 100.335 32.0207 100.42 31.847C100.505 31.6734 100.548 31.4823 100.545 31.289C100.55 31.1239 100.513 30.9603 100.439 30.8126C100.368 30.6763 100.268 30.5573 100.146 30.4638C100.009 30.3656 99.8566 30.2922 99.6947 30.2469C99.5104 30.1953 99.3204 30.1668 99.129 30.1618L98.0444 30.1193C97.9025 30.1187 97.7637 30.0774 97.6446 30.0002C97.5998 29.9711 97.5628 29.9314 97.5369 29.8847C97.5109 29.838 97.4968 29.7857 97.4957 29.7322C97.4941 29.6472 97.5115 29.5629 97.5467 29.4855C97.5792 29.4156 97.6223 29.351 97.6744 29.2941C97.7819 29.3724 97.903 29.4301 98.0316 29.4643C98.188 29.5086 98.3497 29.5315 98.5123 29.5323C98.7362 29.535 98.9589 29.5005 99.1715 29.4302C99.3603 29.367 99.534 29.2656 99.682 29.1325C99.8276 29.0047 99.9413 28.8444 100.014 28.6646C100.094 28.4617 100.133 28.2448 100.129 28.0266C100.13 27.8823 100.109 27.7387 100.065 27.6013C100.019 27.4628 99.9397 27.3373 99.8351 27.2355H100.435C100.459 27.2345 100.482 27.2274 100.502 27.2147C100.522 27.202 100.539 27.1842 100.55 27.1632C100.584 27.0903 100.599 27.0096 100.592 26.9292C100.596 26.8494 100.583 26.7696 100.554 26.6953C100.544 26.6722 100.527 26.6526 100.506 26.639C100.485 26.6254 100.46 26.6183 100.435 26.6187H99.1588C99.0584 26.5912 98.956 26.5713 98.8525 26.5592C98.7343 26.5416 98.6148 26.5331 98.4953 26.5337L98.5208 26.5677ZM77.7684 26.5337C77.6781 26.5342 77.5881 26.5457 77.5005 26.5677C77.4047 26.5951 77.3142 26.6383 77.2325 26.6953C77.1312 26.7683 77.0372 26.8509 76.9518 26.942C76.8328 27.0749 76.7247 27.2172 76.6285 27.3673V26.7846V26.7251L76.5732 26.6783C76.54 26.6616 76.5039 26.6515 76.4669 26.6485H76.1266C76.0898 26.6527 76.0539 26.6628 76.0203 26.6783L75.965 26.7251V26.7846V30.9487V31.0125L76.0288 31.055C76.0671 31.07 76.1071 31.08 76.1479 31.0848H76.3308H76.5222C76.5617 31.0803 76.6003 31.0703 76.637 31.055L76.6966 31.0125V30.9487V28.2138C76.8029 28.0394 76.9007 27.899 76.9901 27.7884C77.0658 27.6841 77.1528 27.5886 77.2495 27.5034C77.3172 27.4402 77.3948 27.3885 77.4792 27.3503C77.5521 27.3202 77.63 27.3043 77.7089 27.3035C77.7682 27.2968 77.8282 27.2968 77.8875 27.3035L78.0364 27.3418C78.0774 27.352 78.1173 27.3663 78.1555 27.3844H78.2491H78.3044L78.3384 27.3248C78.3438 27.2881 78.3438 27.2509 78.3384 27.2142C78.3384 27.1674 78.3384 27.1121 78.3384 27.0441C78.3384 26.976 78.3384 26.9165 78.3384 26.8739C78.3413 26.8428 78.3413 26.8115 78.3384 26.7804V26.7293L78.3001 26.6825C78.2719 26.6626 78.2401 26.6482 78.2065 26.64C78.1587 26.6202 78.1087 26.606 78.0577 26.5975L77.896 26.572H77.7642L77.7684 26.5337ZM81.8007 30.5531C81.5917 30.5661 81.3858 30.4975 81.2264 30.3617C81.1577 30.2946 81.104 30.2136 81.0688 30.1241C81.0336 30.0347 81.0177 29.9388 81.0223 29.8428C81.0197 29.7271 81.043 29.6124 81.0903 29.5068C81.1429 29.4065 81.2206 29.3215 81.3158 29.2601C81.4317 29.1828 81.5618 29.1293 81.6986 29.1027C81.8772 29.0625 82.06 29.044 82.243 29.0474H82.8938V29.9321C82.7401 30.1146 82.5593 30.2723 82.3579 30.4C82.1897 30.5013 81.9969 30.5543 81.8007 30.5531V30.5531ZM82.0133 26.5762C81.8536 26.5754 81.6941 26.5897 81.5369 26.6187C81.381 26.6528 81.2392 26.691 81.1116 26.7336C80.9921 26.7752 80.8755 26.8249 80.7628 26.8824C80.6844 26.9208 80.6115 26.9695 80.5459 27.0271C80.5077 27.0588 80.4809 27.1021 80.4693 27.1504C80.4616 27.2111 80.4616 27.2726 80.4693 27.3333C80.4669 27.3758 80.4669 27.4184 80.4693 27.4609L80.4991 27.5545L80.5502 27.6098H80.614C80.6741 27.6014 80.7311 27.578 80.7798 27.5417C80.8564 27.4949 80.95 27.4482 81.0648 27.3929C81.1912 27.3332 81.322 27.2834 81.4561 27.244C81.6205 27.196 81.7911 27.173 81.9623 27.1759C82.1066 27.174 82.2502 27.1956 82.3876 27.2397C82.4994 27.2748 82.6004 27.3377 82.6811 27.4226C82.7595 27.5104 82.8163 27.6153 82.847 27.7289C82.8788 27.8684 82.8945 28.0111 82.8938 28.1542V28.4775H82.3196C82.0339 28.4767 81.7488 28.5052 81.4689 28.5625C81.2361 28.6092 81.0131 28.6955 80.8096 28.8177C80.6332 28.92 80.4866 29.0667 80.3843 29.2431C80.2833 29.4296 80.2335 29.6394 80.2397 29.8513C80.2366 30.0351 80.2713 30.2175 80.3417 30.3873C80.4096 30.5401 80.5097 30.6765 80.6352 30.7871C80.7685 30.8995 80.9234 30.9835 81.0903 31.0338C81.2815 31.0942 81.4812 31.1229 81.6816 31.1188C81.9272 31.1209 82.1701 31.0671 82.3919 30.9615C82.6219 30.85 82.8283 30.6955 83.0001 30.5063V30.9317L83.0341 31.0168C83.0652 31.0373 83.0998 31.0517 83.1362 31.0593C83.1999 31.0644 83.2639 31.0644 83.3276 31.0593C83.3913 31.0651 83.4554 31.0651 83.519 31.0593C83.5549 31.0501 83.5893 31.0357 83.6211 31.0168L83.6551 30.9317V28.1244C83.6582 27.8948 83.6295 27.6658 83.5701 27.4439C83.5173 27.2606 83.421 27.0928 83.2893 26.9548C83.1449 26.8169 82.97 26.715 82.7789 26.657C82.532 26.5837 82.2751 26.5492 82.0176 26.5549L82.0133 26.5762ZM91.4644 28.4392C91.4723 28.2729 91.5024 28.1084 91.5537 27.9501C91.6005 27.7958 91.6755 27.6516 91.7749 27.5247C91.873 27.4061 91.9947 27.309 92.1322 27.2397C92.2873 27.1653 92.4578 27.1289 92.6298 27.1334C92.7887 27.1204 92.9483 27.1448 93.0961 27.2047C93.2438 27.2645 93.3754 27.3581 93.4805 27.4779C93.679 27.7507 93.7727 28.086 93.7442 28.4222H91.4814L91.4644 28.4392ZM92.6851 26.5379C92.3933 26.5314 92.1035 26.5865 91.8344 26.6996C91.5927 26.8014 91.3774 26.957 91.2049 27.1547C91.0224 27.3666 90.8863 27.6144 90.8051 27.882C90.7075 28.1944 90.6601 28.5203 90.6647 28.8475C90.6595 29.1815 90.7054 29.5142 90.8009 29.8343C90.8787 30.0974 91.0138 30.3399 91.1964 30.5446C91.375 30.7359 91.5966 30.8817 91.8429 30.97C92.131 31.0715 92.435 31.1205 92.7404 31.1146C92.9222 31.1226 93.1043 31.1154 93.2848 31.0933C93.4592 31.0635 93.6124 31.0295 93.7442 30.9955C93.8545 30.9647 93.9625 30.9263 94.0675 30.8806C94.12 30.8594 94.1699 30.8323 94.2163 30.7998L94.2589 30.7488L94.2844 30.685V30.6084C94.2867 30.573 94.2867 30.5375 94.2844 30.5021C94.2868 30.4553 94.2868 30.4085 94.2844 30.3617V30.2724L94.2461 30.2256H94.1866C94.1283 30.2311 94.0719 30.2484 94.0207 30.2767L93.7442 30.383C93.6136 30.4277 93.48 30.4632 93.3444 30.4893C93.1709 30.5253 92.9941 30.5424 92.817 30.5404C92.6005 30.5457 92.3851 30.5081 92.1832 30.4298C92.0171 30.3687 91.8703 30.2645 91.7579 30.1278C91.6455 29.9873 91.5669 29.8229 91.5282 29.6472C91.4781 29.4426 91.4538 29.2325 91.4559 29.0219H94.1908C94.2652 29.022 94.3373 28.9965 94.395 28.9496C94.428 28.9154 94.4535 28.8746 94.4696 28.8299C94.4857 28.7852 94.4922 28.7376 94.4886 28.6901V28.5413C94.489 28.2824 94.4532 28.0247 94.3822 27.7757C94.3192 27.547 94.2091 27.334 94.059 27.1504C93.9047 26.968 93.7114 26.8226 93.4933 26.7251C93.2247 26.6106 92.9343 26.5569 92.6426 26.5677L92.6851 26.5379ZM71.8902 25.5341H71.7031C71.6648 25.5376 71.6274 25.5477 71.5925 25.5639L71.5287 25.6107V25.6702V26.6698H70.9502H70.8822L70.8354 26.7251C70.8198 26.7575 70.8083 26.7918 70.8014 26.8272C70.7987 26.8753 70.7987 26.9236 70.8014 26.9718C70.7943 27.0549 70.8089 27.1385 70.8439 27.2142C70.8529 27.2363 70.8682 27.2553 70.8878 27.2689C70.9075 27.2825 70.9306 27.2901 70.9545 27.2908H71.5372V29.7152C71.5355 29.9256 71.5583 30.1354 71.6053 30.3405C71.6434 30.4972 71.7177 30.6429 71.8222 30.7658C71.9235 30.8839 72.054 30.9734 72.2007 31.0253C72.3787 31.0854 72.5658 31.1142 72.7537 31.1103C72.8231 31.1146 72.8927 31.1146 72.9621 31.1103C73.0344 31.1103 73.1025 31.1103 73.1663 31.072C73.2231 31.0607 73.2787 31.0436 73.3321 31.021C73.3737 31.007 73.4115 30.9837 73.4427 30.953C73.4727 30.9214 73.492 30.8812 73.498 30.8381C73.5132 30.7668 73.5203 30.6941 73.5193 30.6212C73.5245 30.576 73.5245 30.5303 73.5193 30.4851V30.3958L73.4853 30.3532H73.4427H73.3619L73.2513 30.3958L73.1025 30.4425C73.0403 30.4494 72.9775 30.4494 72.9153 30.4425C72.8268 30.4516 72.7376 30.4361 72.6573 30.3979C72.5771 30.3596 72.5089 30.3 72.4602 30.2256C72.3668 30.0235 72.3244 29.8015 72.3368 29.5791V27.3078H73.3959C73.4197 27.3066 73.4426 27.2988 73.4621 27.2853C73.4817 27.2717 73.4971 27.253 73.5065 27.2312C73.5393 27.1548 73.5539 27.0718 73.5491 26.9888C73.554 26.9407 73.554 26.8922 73.5491 26.8442C73.5476 26.8082 73.5374 26.7732 73.5193 26.7421L73.4725 26.6868H73.4087H72.3496V25.683L72.3283 25.6234L72.2688 25.5767C72.2331 25.5579 72.1941 25.5463 72.1539 25.5426H71.9625L71.8902 25.5341ZM87.0621 25.5426H86.875C86.8336 25.547 86.7933 25.5585 86.7559 25.5767L86.6963 25.6234V25.683V26.6698H86.1179H86.0498L85.9988 26.7251C85.9865 26.7584 85.9766 26.7925 85.969 26.8272C85.964 26.8752 85.964 26.9237 85.969 26.9718C85.9642 27.0548 85.9787 27.1378 86.0115 27.2142C86.0217 27.2363 86.0379 27.2552 86.0581 27.2687C86.0784 27.2822 86.102 27.2899 86.1264 27.2908H86.7091V29.7152C86.7052 29.9257 86.7281 30.1358 86.7771 30.3405C86.8139 30.4969 86.8867 30.6426 86.9898 30.7658C87.0919 30.8831 87.2222 30.9724 87.3684 31.0253C87.5464 31.085 87.7335 31.1138 87.9213 31.1103C87.9921 31.1146 88.0631 31.1146 88.134 31.1103C88.2063 31.1103 88.2701 31.1103 88.3339 31.072C88.3922 31.0608 88.4491 31.0437 88.504 31.021C88.5445 31.0049 88.5819 30.9818 88.6146 30.953C88.643 30.9203 88.662 30.8806 88.6699 30.8381C88.6776 30.766 88.6776 30.6933 88.6699 30.6212C88.6749 30.576 88.6749 30.5303 88.6699 30.4851L88.6486 30.3958L88.6189 30.3532H88.5721H88.4913L88.3807 30.3958L88.2361 30.4425C88.1739 30.4494 88.1111 30.4494 88.0489 30.4425C87.9604 30.4521 87.871 30.4368 87.7906 30.3985C87.7103 30.3602 87.6421 30.3004 87.5938 30.2256C87.4967 30.0246 87.4528 29.802 87.4662 29.5791V27.3078H88.5295C88.5531 27.3061 88.5759 27.2981 88.5953 27.2847C88.6148 27.2712 88.6303 27.2527 88.6401 27.2312C88.671 27.1543 88.6841 27.0715 88.6784 26.9888C88.6832 26.9407 88.6832 26.8923 88.6784 26.8442C88.6749 26.8086 88.6648 26.774 88.6486 26.7421L88.6018 26.6868H88.538H87.4747V25.683V25.6234L87.4151 25.5767C87.3777 25.5585 87.3374 25.547 87.2961 25.5426H87.1089H87.0621ZM67.2285 25.0024C66.9835 25.0019 66.7399 25.0378 66.5054 25.1088C66.2949 25.1712 66.0985 25.2737 65.927 25.4108C65.7666 25.5442 65.6374 25.7112 65.5484 25.8999C65.4552 26.1115 65.4088 26.3408 65.4123 26.572C65.4083 26.7864 65.4488 26.9993 65.5314 27.1972C65.6053 27.3661 65.709 27.5203 65.8376 27.6523C65.9651 27.7814 66.1079 27.8943 66.263 27.9883C66.4243 28.0846 66.5904 28.1726 66.7606 28.252L67.254 28.4817C67.4024 28.5521 67.5446 28.6346 67.6794 28.7284C67.7992 28.8161 67.9029 28.9241 67.9856 29.0474C68.0636 29.1754 68.1035 29.3229 68.1005 29.4728C68.1029 29.619 68.0739 29.7641 68.0154 29.8981C67.9612 30.0187 67.8796 30.125 67.7772 30.2086C67.6675 30.297 67.5419 30.3634 67.4072 30.4043C67.2539 30.4495 67.0948 30.4724 66.935 30.4723C66.7307 30.4765 66.527 30.4492 66.331 30.3915C66.1856 30.3444 66.0435 30.2875 65.9057 30.2214C65.8022 30.1699 65.7014 30.1131 65.6037 30.0512C65.5513 30.008 65.488 29.9801 65.4208 29.9704H65.3528L65.306 30.0257C65.2936 30.0616 65.285 30.0986 65.2805 30.1363C65.2755 30.1915 65.2755 30.247 65.2805 30.3022C65.2785 30.3795 65.2871 30.4568 65.306 30.5319C65.3211 30.5836 65.3472 30.6315 65.3825 30.6722C65.4407 30.7251 65.5049 30.7708 65.5739 30.8083C65.6821 30.8674 65.7944 30.9186 65.91 30.9615C66.0602 31.0128 66.2136 31.054 66.3693 31.0848C66.5529 31.12 66.7396 31.1371 66.9265 31.1358C67.1987 31.138 67.4697 31.0993 67.7304 31.021C67.9667 30.9504 68.1865 30.8333 68.3769 30.6765C68.5586 30.5249 68.7039 30.3345 68.8023 30.1193C68.8618 29.8813 68.8705 29.6335 68.8278 29.392C68.8315 29.1803 68.7909 28.9702 68.7087 28.7752C68.6328 28.6077 68.5277 28.455 68.3982 28.3244C68.2711 28.1962 68.1281 28.0847 67.9729 27.9926C67.8119 27.8969 67.6458 27.8103 67.4752 27.7331L66.9733 27.4992C66.8235 27.4283 66.681 27.3428 66.548 27.244C66.4271 27.1575 66.3232 27.0493 66.2417 26.925C66.1601 26.7984 66.1186 26.6502 66.1226 26.4996C66.1226 26.3888 66.1443 26.2789 66.1864 26.1764C66.2247 26.077 66.2859 25.9881 66.3651 25.9169C66.4543 25.8376 66.5584 25.7769 66.6713 25.7383C66.808 25.6907 66.952 25.6676 67.0967 25.6702C67.2595 25.6671 67.4217 25.6901 67.5773 25.7383C67.7059 25.7775 67.8311 25.8273 67.9516 25.8872L68.2196 26.0318C68.2664 26.0649 68.3202 26.0868 68.3769 26.0956H68.4365L68.4748 26.0275C68.4851 25.9928 68.4923 25.9572 68.496 25.9212C68.496 25.8744 68.496 25.8276 68.496 25.7723C68.4985 25.7241 68.4985 25.6759 68.496 25.6277V25.5299L68.4748 25.4661L68.4152 25.398C68.36 25.3512 68.2984 25.3126 68.2323 25.2832C68.131 25.2311 68.0257 25.187 67.9176 25.1513C67.7938 25.1121 67.6672 25.0822 67.539 25.062C67.4072 25.0368 67.2734 25.024 67.1392 25.0237" fill="#6A513F"/>
<path d="M62.0648 11.2128C62.0739 11.3545 62.0739 11.4965 62.0648 11.6382C62.0573 11.7371 62.0358 11.8345 62.001 11.9274C61.9809 11.9922 61.9425 12.0498 61.8904 12.0933C61.8495 12.1264 61.7984 12.1444 61.7458 12.1443H58.9131V21.3742C58.9135 21.4315 58.8939 21.4871 58.8578 21.5316C58.8053 21.5862 58.7392 21.6259 58.6664 21.6464C58.5509 21.6793 58.4327 21.702 58.3133 21.7145C58.1285 21.7369 57.9423 21.7469 57.7561 21.7442C57.5699 21.747 57.3838 21.737 57.1989 21.7145C57.0782 21.7015 56.9587 21.6788 56.8416 21.6464C56.7703 21.6252 56.7058 21.5856 56.6545 21.5316C56.6183 21.4871 56.5988 21.4315 56.5992 21.3742V12.1571H53.7282C53.6741 12.1578 53.6215 12.1397 53.5793 12.106C53.5329 12.0594 53.4979 12.0026 53.4772 11.9402C53.4427 11.8469 53.4198 11.7498 53.4092 11.6509C53.4021 11.5092 53.4021 11.3673 53.4092 11.2256C53.4015 11.0754 53.4015 10.9249 53.4092 10.7747C53.4199 10.6745 53.4428 10.576 53.4772 10.4812C53.4985 10.4203 53.5334 10.365 53.5793 10.3196C53.6189 10.2794 53.6719 10.2552 53.7282 10.2516H61.7246C61.7766 10.2506 61.8275 10.2671 61.8692 10.2983C61.9211 10.3402 61.9595 10.3964 61.9798 10.46C62.0145 10.5544 62.036 10.6531 62.0436 10.7535C62.0533 10.9036 62.0533 11.0542 62.0436 11.2043L62.0648 11.2128ZM67.3688 14.2327C67.3688 14.4454 67.3688 14.6198 67.3688 14.7559C67.3605 14.8621 67.3434 14.9673 67.3178 15.0707C67.3029 15.1325 67.2704 15.1886 67.2242 15.2323C67.1818 15.2611 67.1307 15.2746 67.0796 15.2706C67.0258 15.2699 66.9725 15.2598 66.9222 15.2408L66.7223 15.177C66.65 15.1515 66.5692 15.1302 66.4841 15.1089C66.3891 15.088 66.2921 15.078 66.1949 15.0792C66.0677 15.08 65.9419 15.106 65.8248 15.1557C65.6872 15.216 65.5584 15.2947 65.442 15.3897C65.2874 15.518 65.145 15.6604 65.0167 15.815C64.8763 15.9937 64.7232 16.2106 64.5573 16.47V21.3912C64.5573 21.4464 64.5394 21.5002 64.5063 21.5443C64.4582 21.5992 64.3943 21.6378 64.3234 21.6549C64.2155 21.6893 64.1043 21.7121 63.9916 21.723C63.8513 21.723 63.6684 21.7442 63.4557 21.7442C63.243 21.7442 63.0601 21.7442 62.9198 21.723C62.8057 21.7117 62.6932 21.6889 62.5837 21.6549C62.5145 21.6368 62.4522 21.5983 62.4051 21.5443C62.3707 21.5005 62.3513 21.4469 62.3498 21.3912V13.5054C62.3502 13.4509 62.3665 13.3977 62.3966 13.3523C62.4349 13.2986 62.4904 13.2595 62.554 13.2417C62.6475 13.2082 62.7445 13.1854 62.8432 13.1736C62.993 13.1587 63.1435 13.1516 63.2941 13.1524C63.4503 13.1515 63.6064 13.1586 63.7619 13.1736C63.8594 13.1843 63.9552 13.2071 64.0469 13.2417C64.1046 13.2642 64.1547 13.3025 64.1915 13.3523C64.2204 13.3981 64.2352 13.4513 64.2341 13.5054V14.505C64.4095 14.2492 64.6028 14.0061 64.8125 13.7776C64.9714 13.6121 65.1435 13.4599 65.3272 13.3225C65.4789 13.2184 65.6472 13.1407 65.8248 13.0928C65.9837 13.0465 66.1485 13.0236 66.314 13.0248H66.5564C66.6481 13.0342 66.7391 13.0498 66.8286 13.0716C66.9122 13.089 66.9946 13.1117 67.0753 13.1396C67.1326 13.1579 67.186 13.1867 67.2327 13.2247L67.3008 13.3183C67.3166 13.367 67.3294 13.4168 67.339 13.4671C67.3549 13.5585 67.3634 13.6509 67.3646 13.7436C67.3646 13.8669 67.3646 14.0328 67.3646 14.2455L67.3688 14.2327ZM75.731 17.2229C75.7486 17.4388 75.6832 17.6533 75.5481 17.8226C75.4846 17.8885 75.4077 17.94 75.3226 17.9738C75.2375 18.0075 75.1461 18.0227 75.0547 18.0183H70.3164C70.3123 18.3258 70.3524 18.6324 70.4355 18.9285C70.5043 19.1857 70.6325 19.4232 70.8098 19.6218C70.9917 19.8171 71.2199 19.9634 71.4733 20.0471C71.7871 20.1524 72.1166 20.2027 72.4474 20.196C72.7882 20.2015 73.1287 20.173 73.4639 20.1109C73.7198 20.0654 73.9726 20.0043 74.221 19.928C74.4337 19.8557 74.6124 19.7962 74.7527 19.7409C74.8594 19.6904 74.9751 19.6615 75.093 19.6558C75.1402 19.6512 75.1877 19.6625 75.2278 19.6879C75.2678 19.7133 75.2983 19.7515 75.3142 19.7962C75.3407 19.8686 75.3564 19.9446 75.361 20.0216C75.361 20.1152 75.361 20.2385 75.361 20.3832C75.361 20.5278 75.361 20.6256 75.361 20.7149C75.361 20.8042 75.361 20.8851 75.3354 20.9489C75.3254 21.0047 75.3083 21.059 75.2844 21.1105C75.2585 21.158 75.2271 21.2023 75.1908 21.2423C75.0961 21.3127 74.9915 21.3686 74.8803 21.4082C74.6682 21.493 74.4508 21.564 74.2295 21.6209C73.9336 21.6956 73.6341 21.7552 73.3321 21.7995C72.9716 21.8536 72.6077 21.8806 72.2432 21.8804C71.6244 21.8916 71.008 21.8011 70.4185 21.6124C69.9247 21.4532 69.4757 21.1792 69.1085 20.8128C68.7441 20.4269 68.476 19.9606 68.3258 19.4517C68.1435 18.826 68.0561 18.1765 68.0664 17.5249C68.0575 16.8836 68.1494 16.2449 68.3386 15.6321C68.5008 15.1075 68.7702 14.6223 69.1297 14.2072C69.4789 13.8122 69.916 13.5048 70.4057 13.3098C71.4852 12.9071 72.6737 12.9071 73.7532 13.3098C74.1942 13.4852 74.5876 13.762 74.9016 14.1179C75.2006 14.4805 75.4195 14.9024 75.5438 15.3556C75.6894 15.8543 75.761 16.3717 75.7565 16.8911V17.2441L75.731 17.2229ZM73.6298 16.6104C73.6738 16.0917 73.542 15.5733 73.2555 15.1387C73.1092 14.9556 72.9203 14.811 72.7053 14.7176C72.4903 14.6242 72.2557 14.5848 72.022 14.6028C71.7687 14.597 71.5177 14.6524 71.2904 14.7644C71.0865 14.8636 70.9088 15.0093 70.7715 15.1898C70.6275 15.3808 70.5207 15.5972 70.4568 15.8278C70.3789 16.0816 70.336 16.3449 70.3292 16.6104H73.6298V16.6104ZM84.778 17.2229C84.7968 17.4382 84.7329 17.6527 84.5993 17.8226C84.535 17.8886 84.4573 17.9402 84.3715 17.9739C84.2857 18.0076 84.1938 18.0228 84.1017 18.0183H79.3506C79.3465 18.3258 79.3866 18.6324 79.4697 18.9285C79.5432 19.18 79.671 19.4123 79.844 19.609C80.0283 19.8036 80.2576 19.9497 80.5118 20.0344C80.8255 20.1396 81.155 20.19 81.4858 20.1832C81.8267 20.1886 82.1672 20.1601 82.5024 20.0982C82.7581 20.0521 83.0109 19.991 83.2595 19.9153C83.4722 19.843 83.6466 19.7834 83.7869 19.7281C83.8938 19.6781 84.0094 19.6492 84.1272 19.6431C84.1731 19.6398 84.219 19.6502 84.2591 19.6728C84.3016 19.6984 84.3345 19.7373 84.3526 19.7834C84.3791 19.8559 84.3949 19.9318 84.3994 20.0089C84.3994 20.1024 84.3994 20.2258 84.3994 20.3704C84.3994 20.515 84.3994 20.6128 84.3994 20.7022C84.3994 20.7915 84.3994 20.8723 84.3697 20.9361C84.3617 20.9924 84.3444 21.047 84.3186 21.0977C84.2961 21.1473 84.2644 21.192 84.225 21.2296C84.1303 21.3 84.0257 21.3559 83.9145 21.3955C83.7039 21.4803 83.4879 21.5513 83.268 21.6081C82.9707 21.6832 82.6698 21.7428 82.3663 21.7868C82.0073 21.8409 81.6447 21.8679 81.2817 21.8676C80.6628 21.8795 80.0463 21.789 79.457 21.5996C78.9628 21.4414 78.5136 21.1672 78.1469 20.8C77.7798 20.4156 77.51 19.9489 77.3601 19.4389C77.1793 18.813 77.0933 18.1635 77.1049 17.5121C77.096 16.8708 77.1879 16.2321 77.3771 15.6193C77.5375 15.094 77.8071 14.6084 78.1682 14.1945C78.5106 13.8013 78.9403 13.494 79.423 13.297C80.5024 12.8944 81.6909 12.8944 82.7704 13.297C83.2106 13.4715 83.6029 13.7486 83.9145 14.1051C84.2242 14.4686 84.4507 14.8954 84.5781 15.3556C84.7221 15.8546 84.7923 16.3719 84.7865 16.8911V17.2441L84.778 17.2229ZM82.6598 16.6104C82.7058 16.0916 82.5738 15.5725 82.2855 15.1387C82.1403 14.9554 81.9522 14.8106 81.7379 14.7171C81.5235 14.6236 81.2894 14.5844 81.0563 14.6028C80.8029 14.597 80.552 14.6524 80.3247 14.7644C80.1195 14.8635 79.9404 15.0092 79.8015 15.1898C79.6591 15.3818 79.5525 15.5979 79.4868 15.8278C79.413 16.0826 79.3702 16.3453 79.3591 16.6104H82.6513H82.6598ZM95.5774 21.3955C95.5778 21.4528 95.5582 21.5084 95.5221 21.5528C95.4708 21.6068 95.4063 21.6464 95.3349 21.6677C95.2207 21.6999 95.1041 21.7226 94.9861 21.7357C94.8056 21.7585 94.6237 21.7684 94.4417 21.7655C94.2527 21.7685 94.0637 21.7585 93.876 21.7357C93.7566 21.7229 93.6386 21.7001 93.523 21.6677C93.4547 21.6451 93.3932 21.6056 93.3443 21.5528C93.307 21.5088 93.2859 21.4532 93.2848 21.3955V16.7508H89.0314V21.3742C89.0299 21.4312 89.0105 21.4862 88.9761 21.5316C88.9276 21.5868 88.864 21.6267 88.7932 21.6464C88.679 21.6788 88.5624 21.7016 88.4444 21.7145C88.2596 21.7373 88.0734 21.7472 87.8872 21.7442C87.7015 21.7539 87.5154 21.7511 87.33 21.7357C87.2107 21.7229 87.0926 21.7001 86.977 21.6677C86.9056 21.6464 86.8411 21.6068 86.7898 21.5528C86.7537 21.5084 86.7341 21.4528 86.7345 21.3955V10.5748C86.7341 10.5175 86.7537 10.4619 86.7898 10.4174C86.8411 10.3634 86.9056 10.3238 86.977 10.3026C87.0927 10.2739 87.2109 10.2568 87.33 10.2516C87.5149 10.2291 87.701 10.2192 87.8872 10.2218C88.0734 10.2188 88.2596 10.2287 88.4444 10.2516C88.5627 10.2623 88.6796 10.2851 88.7932 10.3196C88.864 10.3393 88.9276 10.3792 88.9761 10.4345C89.0105 10.4798 89.0299 10.5349 89.0314 10.5918V14.7984H93.2848V10.5748C93.2859 10.5171 93.307 10.4615 93.3443 10.4174C93.3932 10.3647 93.4547 10.3252 93.523 10.3026C93.6381 10.2681 93.7563 10.2453 93.876 10.2345C94.0637 10.2118 94.2527 10.2018 94.4417 10.2048C94.6241 10.2075 94.806 10.2231 94.9861 10.2516C95.1058 10.2623 95.2241 10.2851 95.3392 10.3196C95.4105 10.3409 95.4751 10.3805 95.5263 10.4345C95.5625 10.4789 95.582 10.5345 95.5816 10.5918V21.3742L95.5774 21.3955ZM100.137 21.3742C100.138 21.4302 100.118 21.4845 100.082 21.5273C100.035 21.5813 99.9724 21.6198 99.9031 21.6379C99.7937 21.6722 99.6811 21.695 99.5671 21.706C99.4267 21.706 99.248 21.7272 99.0311 21.7272C98.8142 21.7272 98.6398 21.7272 98.4995 21.706C98.3854 21.695 98.2728 21.6722 98.1634 21.6379C98.0932 21.622 98.0304 21.583 97.9848 21.5273C97.9486 21.4845 97.929 21.4302 97.9295 21.3742V13.5224C97.929 13.4664 97.9486 13.4121 97.9848 13.3693C98.031 13.3134 98.0934 13.2732 98.1634 13.2545C98.2726 13.2185 98.3852 13.1942 98.4995 13.1822C98.8542 13.1425 99.2123 13.1425 99.5671 13.1822C99.6813 13.1942 99.794 13.2185 99.9031 13.2545C99.9721 13.2755 100.034 13.3153 100.082 13.3693C100.118 13.4121 100.138 13.4664 100.137 13.5224V21.3912V21.3742ZM100.316 10.83C100.334 10.9949 100.32 11.1619 100.273 11.3211C100.226 11.4803 100.148 11.6286 100.043 11.7573C99.7329 11.9219 99.3868 12.0079 99.0354 12.0079C98.6839 12.0079 98.3378 11.9219 98.0273 11.7573C97.9274 11.6328 97.853 11.4898 97.8085 11.3365C97.764 11.1832 97.7502 11.0227 97.7679 10.864C97.7312 10.5304 97.8275 10.1957 98.0358 9.93255C98.3457 9.76577 98.692 9.67847 99.0439 9.67847C99.3957 9.67847 99.7421 9.76577 100.052 9.93255C100.154 10.057 100.229 10.2005 100.275 10.3546C100.32 10.5088 100.334 10.6704 100.316 10.83V10.83ZM109.52 13.4969V13.6032C109.523 13.6485 109.523 13.694 109.52 13.7393C109.512 13.798 109.5 13.8562 109.486 13.9137C109.486 13.9775 109.452 14.0498 109.431 14.1307L107.057 21.2679C107.034 21.3545 106.994 21.4356 106.938 21.5061C106.875 21.5799 106.79 21.6319 106.696 21.6549C106.544 21.6954 106.389 21.7196 106.232 21.7272C106.036 21.7272 105.781 21.7272 105.467 21.7272C105.152 21.7272 104.905 21.7272 104.709 21.706C104.554 21.696 104.4 21.6703 104.25 21.6294C104.157 21.6064 104.073 21.5543 104.012 21.4805C103.956 21.413 103.914 21.3349 103.889 21.2509L101.549 14.1136C101.515 13.9988 101.485 13.8925 101.464 13.7989C101.448 13.7316 101.437 13.6634 101.43 13.5947C101.428 13.5565 101.428 13.5181 101.43 13.4799C101.429 13.4252 101.445 13.3716 101.477 13.3268C101.521 13.2739 101.581 13.2354 101.647 13.2162C101.756 13.1811 101.869 13.1597 101.983 13.1524C102.128 13.1524 102.306 13.1524 102.523 13.1524C102.74 13.1524 102.949 13.1524 103.097 13.1736C103.214 13.1849 103.329 13.2062 103.442 13.2374C103.513 13.2535 103.576 13.2942 103.621 13.3523C103.657 13.4082 103.687 13.4682 103.71 13.5309L105.484 19.3241L105.539 19.541L105.59 19.3241L107.321 13.5309C107.336 13.4665 107.363 13.4058 107.402 13.3523C107.45 13.2971 107.514 13.2572 107.585 13.2374C107.692 13.2068 107.801 13.1854 107.912 13.1736C108.053 13.1736 108.231 13.1524 108.452 13.1524C108.674 13.1524 108.848 13.1524 108.984 13.1524C109.094 13.159 109.203 13.1805 109.307 13.2162C109.37 13.2352 109.426 13.274 109.465 13.3268C109.495 13.3721 109.509 13.4257 109.507 13.4799L109.52 13.4969ZM117.857 17.2059C117.875 17.4212 117.812 17.6356 117.678 17.8056C117.614 17.8716 117.536 17.9232 117.45 17.9569C117.364 17.9906 117.272 18.0057 117.18 18.0013H112.425C112.421 18.3088 112.461 18.6154 112.544 18.9115C112.614 19.1682 112.742 19.4054 112.918 19.6048C113.103 19.7993 113.332 19.9454 113.586 20.0301C113.9 20.1353 114.229 20.1857 114.56 20.179C114.901 20.1843 115.242 20.1558 115.577 20.0939C115.833 20.0478 116.085 19.9868 116.334 19.911C116.547 19.8387 116.721 19.7792 116.861 19.7239C116.968 19.6738 117.084 19.6449 117.202 19.6388C117.248 19.6355 117.293 19.6459 117.334 19.6686C117.376 19.6933 117.408 19.7326 117.423 19.7792C117.451 19.8513 117.468 19.9273 117.474 20.0046C117.474 20.0982 117.474 20.2215 117.474 20.3661C117.474 20.5108 117.474 20.6086 117.474 20.6979C117.471 20.7764 117.462 20.8546 117.448 20.9318C117.44 20.9882 117.423 21.0428 117.397 21.0935C117.371 21.141 117.34 21.1853 117.304 21.2253C117.209 21.2957 117.104 21.3516 116.993 21.3912C116.782 21.4754 116.566 21.5464 116.347 21.6039C116.049 21.6785 115.748 21.7381 115.445 21.7825C115.086 21.8367 114.723 21.8637 114.36 21.8633C113.74 21.8749 113.122 21.7844 112.531 21.5954C112.038 21.4362 111.589 21.1622 111.221 20.7957C110.857 20.4099 110.589 19.9436 110.439 19.4347C110.258 18.8087 110.172 18.1593 110.184 17.5079C110.175 16.8666 110.267 16.2279 110.456 15.6151C110.616 15.0907 110.884 14.6055 111.243 14.1902C111.593 13.7963 112.03 13.489 112.519 13.2927C113.598 12.8901 114.787 12.8901 115.866 13.2927C116.306 13.4673 116.699 13.7443 117.01 14.1009C117.314 14.4672 117.535 14.8954 117.657 15.3556C117.801 15.8546 117.871 16.3719 117.865 16.8911V17.2441L117.857 17.2059ZM115.738 16.6104C115.785 16.0916 115.653 15.5725 115.364 15.1387C115.22 14.9505 115.032 14.8011 114.816 14.7038C114.6 14.6065 114.363 14.5645 114.126 14.5815C113.872 14.5762 113.62 14.6316 113.391 14.7432C113.187 14.8423 113.009 14.988 112.872 15.1685C112.729 15.3605 112.623 15.5767 112.557 15.8065C112.483 16.0613 112.44 16.3241 112.429 16.5891H115.73" fill="url(#paint0_linear_5842_137073)"/>
<path fill-rule="evenodd" clip-rule="evenodd" d="M34.1625 1.20459C27.8249 2.76559 23.4864 5.49202 18.4249 8.12487L17.1063 13.0843C24.6433 9.14569 31.9549 5.99817 40.5426 4.61156L34.1625 1.20459Z" fill="url(#paint1_radial_5842_137073)"/>
<path fill-rule="evenodd" clip-rule="evenodd" d="M43.0267 7.98462C32.6527 9.89014 23.5844 12.9313 14.1716 16.6871L15.1882 21.7103C25.4516 17.6186 36.251 14.437 47.9096 13.2035L43.0267 7.98462Z" fill="url(#paint2_radial_5842_137073)"/>
<path fill-rule="evenodd" clip-rule="evenodd" d="M47.9265 16.6316C36.8166 18.8646 25.9237 21.9313 15.2349 25.2958L19.6244 30.2425C29.1579 26.4677 39.0372 23.6328 49.1217 21.7782L47.9265 16.6316Z" fill="url(#paint3_radial_5842_137073)"/>
<path fill-rule="evenodd" clip-rule="evenodd" d="M26.685 37.1118C32.331 33.9218 38.4422 31.6369 44.796 30.3403L46.4166 25.1682C37.9906 26.8398 30.1388 29.5237 22.6783 33.909L26.685 37.1118Z" fill="url(#paint4_radial_5842_137073)"/>
<path fill-rule="evenodd" clip-rule="evenodd" d="M40.7638 4.62002L40.5213 4.19468C39.2666 2.05522 33.9924 0.962097 31.687 0.894043C29.3562 0.962097 24.0692 2.05522 22.8272 4.20319L22.589 4.62853L23.0654 4.5945C25.9322 4.39459 28.8032 4.29676 31.6743 4.29676C34.5453 4.29676 37.4163 4.4031 40.2831 4.5945L40.7638 4.62853V4.62002ZM18.3356 8.0993L18.2888 8.12482C16.4258 9.11587 14.8861 10.6769 15.0732 12.9397L15.0988 13.1864H15.3455C20.7813 12.8631 26.2242 12.7001 31.6743 12.6972C37.1243 12.6944 42.5672 12.8574 48.0031 13.1864H48.254L48.2753 12.9397C48.4752 10.6769 46.9227 9.11587 45.0597 8.12482L45.0129 8.0993H44.9576C40.5398 7.7959 36.112 7.64135 31.6743 7.63568C27.2365 7.63001 22.8088 7.78313 18.3909 8.09505L18.3356 8.0993ZM13.8823 16.6869L13.81 16.7847C12.619 18.3968 12.5722 20.0343 13.7802 21.6549L13.8653 21.7655H14.0014C19.8852 21.4054 25.7762 21.2239 31.6743 21.221C37.5723 21.2182 43.4633 21.3969 49.3471 21.757H49.4875L49.5683 21.6464C50.7805 20.0301 50.7295 18.3883 49.5385 16.7762L49.4747 16.6869H49.3599C43.4817 16.2531 37.5865 16.0333 31.6743 16.0276C25.762 16.022 19.8697 16.2389 13.9971 16.6784H13.8823V16.6869ZM18.3058 30.3488H18.3781C22.7932 29.9235 27.2337 29.6981 31.6743 29.6981C36.1148 29.6981 40.5554 29.915 44.9746 30.3488H45.0469L45.1107 30.3191C47.0588 29.3706 48.7814 27.8436 48.3263 25.4702L48.288 25.283H48.0966C42.6353 24.801 37.1611 24.5585 31.6743 24.5557C26.1874 24.5529 20.7132 24.7896 15.2519 25.266H15.0605L15.0222 25.4702C14.5671 27.8436 16.2982 29.3918 18.2378 30.3191L18.3058 30.3488ZM22.5975 33.8834L22.6741 34.1727C23.4439 37.0352 29.22 37.7498 31.6657 37.788C34.1115 37.7498 39.8876 37.0352 40.6574 34.1727L40.734 33.8834L40.4363 33.8536C34.6021 33.1958 28.7124 33.1958 22.8782 33.8536L22.5805 33.8834H22.5975Z" fill="url(#paint5_radial_5842_137073)"/>
<path fill-rule="evenodd" clip-rule="evenodd" d="M34.7665 34.1769C34.7665 34.1344 34.6771 34.1003 34.5708 34.1003C34.4645 34.1003 34.3794 34.1386 34.3794 34.1812C34.3794 34.2237 34.4687 34.2577 34.5751 34.2577C34.6814 34.2577 34.7665 34.2194 34.7665 34.1769Z" fill="#6A513F"/>
<defs>
<linearGradient id="paint0_linear_5842_137073" x1="117.865" y1="15.7852" x2="53.4006" y2="15.7852" gradientUnits="userSpaceOnUse">
<stop stop-color="#E9B820"/>
<stop offset="1" stop-color="#58471B"/>
</linearGradient>
<radialGradient id="paint1_radial_5842_137073" cx="0" cy="0" r="1" gradientUnits="userSpaceOnUse" gradientTransform="translate(28.8655 7.19704) rotate(-23.1986) scale(9.30649 5.69004)">
<stop stop-color="#68513E"/>
<stop offset="0.19" stop-color="#644E3B"/>
<stop offset="0.39" stop-color="#574434"/>
<stop offset="0.59" stop-color="#423428"/>
<stop offset="0.8" stop-color="#251D16"/>
<stop offset="1"/>
</radialGradient>
<radialGradient id="paint2_radial_5842_137073" cx="0" cy="0" r="1" gradientUnits="userSpaceOnUse" gradientTransform="translate(31.0121 14.7342) rotate(-15.8657) scale(16.1015 6.40494)">
<stop stop-color="#68513E"/>
<stop offset="0.19" stop-color="#644E3B"/>
<stop offset="0.39" stop-color="#574434"/>
<stop offset="0.59" stop-color="#423428"/>
<stop offset="0.8" stop-color="#251D16"/>
<stop offset="1"/>
</radialGradient>
<radialGradient id="paint3_radial_5842_137073" cx="0" cy="0" r="1" gradientUnits="userSpaceOnUse" gradientTransform="translate(32.2374 23.3179) rotate(-15.8657) scale(15.715 5.9451)">
<stop stop-color="#68513E"/>
<stop offset="0.19" stop-color="#644E3B"/>
<stop offset="0.39" stop-color="#574434"/>
<stop offset="0.59" stop-color="#423428"/>
<stop offset="0.8" stop-color="#251D16"/>
<stop offset="1"/>
</radialGradient>
<radialGradient id="paint4_radial_5842_137073" cx="0" cy="0" r="1" gradientUnits="userSpaceOnUse" gradientTransform="translate(34.5145 31.0246) rotate(-20.082) scale(9.43005 4.03554)">
<stop stop-color="#68513E"/>
<stop offset="0.19" stop-color="#644E3B"/>
<stop offset="0.39" stop-color="#574434"/>
<stop offset="0.59" stop-color="#423428"/>
<stop offset="0.8" stop-color="#251D16"/>
<stop offset="1"/>
</radialGradient>
<radialGradient id="paint5_radial_5842_137073" cx="0" cy="0" r="1" gradientUnits="userSpaceOnUse" gradientTransform="translate(24.0096 18.7508) scale(35.0395 29.4332)">
<stop stop-color="#FFDF00"/>
<stop offset="0.12" stop-color="#FBDB00"/>
<stop offset="0.24" stop-color="#EED000"/>
<stop offset="0.37" stop-color="#D9BE00"/>
<stop offset="0.5" stop-color="#BCA400"/>
<stop offset="0.63" stop-color="#968300"/>
<stop offset="0.76" stop-color="#685B00"/>
<stop offset="0.89" stop-color="#322C00"/>
<stop offset="1"/>
</radialGradient>
</defs>
</svg>
