<svg width="25" height="17" viewBox="0 0 25 17" fill="none" xmlns="http://www.w3.org/2000/svg">
<path d="M22.9567 4.68027L25 2.45472H20.4688C18.2004 0.903457 15.4609 0 12.4981 0C9.53908 0 6.80718 0.905405 4.54252 2.45472H0L2.04329 4.68027C0.79085 5.82426 0.00569584 7.47214 0.00569584 9.30181C0.00569584 12.7547 2.80201 15.5541 6.251 15.5541C7.88942 15.5541 9.38212 14.9215 10.4965 13.8873L12.4981 16.0693L14.4998 13.8892C15.6142 14.9234 17.105 15.5541 18.7434 15.5541C22.1924 15.5541 24.9925 12.7547 24.9925 9.30181C24.9943 7.47024 24.2092 5.82241 22.9567 4.68027ZM6.25285 13.5331C3.91818 13.5331 2.0263 11.6391 2.0263 9.30181C2.0263 6.9645 3.91822 5.07044 6.25285 5.07044C8.58747 5.07044 10.4794 6.9645 10.4794 9.30181C10.4794 11.6391 8.58747 13.5331 6.25285 13.5331ZM12.5 9.17869C12.5 6.39438 10.4775 4.00409 7.80801 2.98317C9.25155 2.37893 10.8351 2.0437 12.4981 2.0437C14.1611 2.0437 15.7465 2.37893 17.1901 2.98317C14.5225 4.00599 12.5 6.39443 12.5 9.17869ZM18.7453 13.5331C16.4106 13.5331 14.5187 11.6391 14.5187 9.30181C14.5187 6.9645 16.4106 5.07044 18.7453 5.07044C21.08 5.07044 22.9719 6.9645 22.9719 9.30181C22.9719 11.6391 21.0799 13.5331 18.7453 13.5331ZM18.7453 7.08192C17.5212 7.08192 16.5298 8.07442 16.5298 9.29991C16.5298 10.5253 17.5212 11.5179 18.7453 11.5179C19.9694 11.5179 20.9607 10.5253 20.9607 9.29991C20.9607 8.07633 19.9694 7.08192 18.7453 7.08192ZM8.46829 9.30181C8.46829 10.5272 7.4769 11.5198 6.25285 11.5198C5.02879 11.5198 4.03741 10.5272 4.03741 9.30181C4.03741 8.07633 5.02879 7.08382 6.25285 7.08382C7.4769 7.08192 8.46829 8.07633 8.46829 9.30181Z" fill="#3F6587"/>
</svg>
