<svg width="60" height="33" viewBox="0 0 60 33" fill="none" xmlns="http://www.w3.org/2000/svg">
<g clip-path="url(#clip0_5838_133780)">
<path d="M40.7938 11.8659C40.7938 5.7873 35.8593 0.852783 29.7807 0.852783C23.7137 0.852783 18.7676 5.7873 18.7676 11.8659C18.7676 17.5284 23.0896 22.1972 28.5788 22.7981C30.763 22.983 31.4332 22.7981 31.4332 22.7981V9.5893H35.4895V6.96604H24.5341V9.5893H28.5673V20.3482C24.3492 19.7357 21.0442 16.2573 21.0442 11.8659C21.0442 7.13938 24.8346 3.32582 29.5264 3.18714C29.5264 3.18714 31.1559 3.07158 33.2244 3.85741C36.7838 5.31349 39.4301 8.89593 39.4301 13.0677C39.4301 16.5808 37.6043 19.6548 34.8654 21.446L34.9463 21.5847C38.5519 19.6779 40.7938 15.9452 40.7938 11.8659Z" fill="#F70C11"/>
<path d="M58.8906 29.1309C58.8906 28.946 58.9022 28.7611 58.9368 28.5993C58.9715 28.426 59.0293 28.2758 59.1102 28.1486C59.1911 28.0215 59.3066 27.9175 59.4569 27.8482C59.5955 27.7788 59.7804 27.7442 60 27.7442V27.3166C59.7227 27.3166 59.4915 27.3744 59.3182 27.4784C59.1448 27.5824 59.0062 27.7673 58.9022 28.0446H58.8906V27.409H58.4977V30.7835H58.8906V29.1309ZM57.1456 29.258C57.1456 29.4429 57.1225 29.6163 57.0763 29.7665C57.03 29.9168 56.9607 30.0554 56.8798 30.171C56.7874 30.2866 56.6834 30.3674 56.5562 30.4368C56.4291 30.4946 56.2789 30.5292 56.1287 30.5292C55.8166 30.5292 55.5971 30.4483 55.47 30.2981C55.3313 30.1479 55.2735 29.9168 55.2735 29.6278V27.4206H54.8806V29.6394C54.8806 29.8127 54.9037 29.9861 54.9384 30.1363C54.9846 30.2866 55.0424 30.4137 55.1348 30.5292C55.2273 30.6448 55.3544 30.7257 55.5046 30.795C55.6549 30.8528 55.8398 30.8875 56.0709 30.8875C56.2211 30.8875 56.3482 30.8644 56.4638 30.8297C56.5794 30.795 56.6718 30.7488 56.7643 30.691C56.8452 30.6332 56.926 30.5755 56.9838 30.5177C57.0532 30.4483 57.1109 30.3906 57.1572 30.3328V30.8066H57.5501V27.4322H57.1572V29.258H57.1456ZM52.916 26.6579C53.0431 26.7735 53.1472 26.9006 53.2512 27.0624C53.3436 27.2126 53.4361 27.409 53.517 27.6286C53.4361 27.5708 53.3667 27.5131 53.2974 27.4784C53.228 27.4437 53.1587 27.409 53.0894 27.3859C53.02 27.3628 52.9391 27.3513 52.8582 27.3397C52.7774 27.3282 52.6849 27.3282 52.5693 27.3282C52.3035 27.3282 52.0724 27.3744 51.876 27.4784C51.6795 27.5824 51.5177 27.7095 51.4022 27.8829C51.275 28.0446 51.1826 28.2411 51.1248 28.4491C51.067 28.6571 51.0324 28.8767 51.0324 29.0963C51.0324 29.3852 51.0786 29.651 51.1595 29.8705C51.2404 30.0901 51.3559 30.275 51.4946 30.4252C51.6333 30.5755 51.7951 30.6795 51.9915 30.7604C52.1764 30.8297 52.3844 30.8759 52.604 30.8759C52.8351 30.8759 53.0547 30.8297 53.2396 30.7488C53.4361 30.6679 53.5978 30.5408 53.7365 30.3906C53.8752 30.2403 53.9792 30.0439 54.0485 29.8359C54.1179 29.6163 54.1641 29.3736 54.1641 29.1078C54.1641 28.53 54.0717 28.01 53.8983 27.5593C53.725 27.1086 53.4823 26.7388 53.1818 26.4614L53.5632 26.1494L53.3205 25.9876L52.9623 26.2765C52.8814 26.2188 52.8005 26.161 52.708 26.1148C52.6271 26.0685 52.5347 26.0223 52.4422 25.9876L52.1764 26.2072C52.2804 26.2534 52.3729 26.2997 52.4538 26.3459C52.5462 26.3921 52.6156 26.4383 52.6965 26.4961L52.2689 26.8312L52.5116 26.9815L52.916 26.6579ZM53.6672 29.6278C53.621 29.8012 53.5516 29.9514 53.4707 30.0785C53.3783 30.2172 53.2627 30.3212 53.1125 30.4021C52.9623 30.483 52.7889 30.5177 52.5925 30.5177C52.4076 30.5177 52.2458 30.483 52.0955 30.4137C51.9569 30.3443 51.8297 30.2519 51.7373 30.1248C51.6448 29.9976 51.5639 29.8474 51.5177 29.6741C51.4715 29.5007 51.4484 29.3043 51.4484 29.0963C51.4484 28.9114 51.4715 28.738 51.5177 28.5647C51.5639 28.3913 51.6333 28.2411 51.7142 28.114C51.8066 27.9869 51.9222 27.8713 52.0724 27.7904C52.2227 27.7095 52.396 27.6748 52.5925 27.6748C52.8005 27.6748 52.9738 27.7095 53.124 27.7904C53.2627 27.8597 53.3898 27.9637 53.4707 28.0909C53.5632 28.218 53.6325 28.3682 53.6672 28.5416C53.7134 28.7149 53.7365 28.8998 53.7365 29.0963C53.725 29.2812 53.7019 29.4661 53.6672 29.6278ZM48.9291 27.0508L49.819 26.1494H49.322L48.6055 27.0508H48.9291ZM50.0501 29.6278C50.0039 29.8012 49.9345 29.9514 49.8536 30.0785C49.7612 30.2172 49.6456 30.3212 49.4954 30.4021C49.3451 30.483 49.1718 30.5177 48.9753 30.5177C48.7904 30.5177 48.6287 30.483 48.4784 30.4137C48.3398 30.3443 48.2126 30.2519 48.1202 30.1248C48.0277 29.9976 47.9468 29.8474 47.9006 29.6741C47.8544 29.5007 47.8313 29.3043 47.8313 29.0963C47.8313 28.9114 47.8544 28.738 47.9006 28.5647C47.9468 28.3913 48.0162 28.2411 48.0971 28.114C48.1895 27.9869 48.3051 27.8713 48.4553 27.7904C48.6055 27.7095 48.7789 27.6748 48.9753 27.6748C49.1834 27.6748 49.3567 27.7095 49.5069 27.7904C49.6456 27.8597 49.7727 27.9637 49.8536 28.0909C49.9461 28.218 50.0154 28.3682 50.0501 28.5416C50.0963 28.7149 50.1194 28.8998 50.1194 29.0963C50.1079 29.2812 50.0847 29.4661 50.0501 29.6278ZM49.6109 30.7488C49.8074 30.6679 49.9692 30.5408 50.1079 30.3906C50.2465 30.2403 50.3505 30.0439 50.4199 29.8359C50.4892 29.6163 50.5354 29.3736 50.5354 29.1078C50.5354 28.8651 50.5008 28.634 50.443 28.4144C50.3852 28.1949 50.2812 28.01 50.1541 27.8482C50.027 27.6864 49.8652 27.5593 49.6687 27.4668C49.4723 27.3744 49.2411 27.3282 48.9753 27.3282C48.7096 27.3282 48.49 27.3744 48.2935 27.4668C48.0971 27.5593 47.9353 27.6864 47.8082 27.8482C47.6811 28.01 47.577 28.1949 47.5193 28.4144C47.4499 28.634 47.4268 28.8651 47.4268 29.1078C47.4268 29.3967 47.473 29.6625 47.5539 29.8821C47.6348 30.1017 47.7504 30.2866 47.8891 30.4368C48.0277 30.587 48.1895 30.691 48.386 30.7719C48.5709 30.8413 48.7789 30.8875 48.9985 30.8875C49.1949 30.8759 49.4145 30.8413 49.6109 30.7488ZM46.6988 26.1032H46.2712V26.681H46.6988V26.1032ZM46.2827 27.4206V31.2919C46.2827 31.3844 46.2712 31.4537 46.2596 31.5231C46.2481 31.5924 46.2134 31.6386 46.1787 31.6733C46.1441 31.708 46.0863 31.7426 46.017 31.7426C45.9476 31.7542 45.8552 31.7542 45.7396 31.7426V32.0893C45.8089 32.1124 45.9014 32.1124 45.9938 32.1124C46.1441 32.1124 46.2712 32.0893 46.3636 32.0547C46.4561 32.02 46.5139 31.9622 46.5601 31.8813C46.6063 31.8004 46.6294 31.708 46.6525 31.604C46.6757 31.5 46.6757 31.3728 46.6757 31.2226V27.409H46.2827V27.4206ZM42.7581 29.7319C42.7696 29.8936 42.8043 30.0439 42.8621 30.1825C42.9199 30.3212 43.0123 30.4483 43.1163 30.5523C43.2203 30.6564 43.359 30.7372 43.5092 30.795C43.6595 30.8528 43.8444 30.8875 44.0408 30.8875C44.2373 30.8875 44.4222 30.8644 44.5955 30.8297C44.7689 30.795 44.9076 30.7257 45.0231 30.6448C45.1502 30.5639 45.2427 30.4599 45.312 30.3328C45.3814 30.2057 45.416 30.067 45.416 29.9052C45.416 29.6856 45.3582 29.5238 45.2542 29.3967C45.1502 29.2696 45.0116 29.1772 44.8498 29.1078C44.688 29.0385 44.5146 28.9807 44.3297 28.946C44.1448 28.9114 43.9715 28.8651 43.8097 28.8074C43.6479 28.7611 43.5208 28.6918 43.4052 28.6109C43.3012 28.53 43.2435 28.4144 43.2435 28.2642C43.2435 28.0909 43.3128 27.9522 43.4399 27.8482C43.567 27.7442 43.7635 27.6864 44.0062 27.6864C44.2488 27.6864 44.4569 27.7442 44.6186 27.8482C44.7804 27.9522 44.8844 28.1371 44.9191 28.4029H45.312C45.2658 28.0215 45.1271 27.7442 44.896 27.5824C44.6649 27.4206 44.376 27.3397 44.0062 27.3397C43.6248 27.3397 43.3359 27.4322 43.1279 27.6055C42.9199 27.7904 42.8159 28.0215 42.8159 28.2989C42.8159 28.5184 42.8737 28.6918 42.9777 28.8074C43.0817 28.9345 43.2203 29.0269 43.3821 29.0847C43.5439 29.154 43.7173 29.2003 43.9022 29.2349C44.0871 29.2696 44.2604 29.3043 44.4222 29.3505C44.584 29.3967 44.7111 29.4545 44.8267 29.5354C44.9307 29.6163 44.9884 29.7434 44.9884 29.9052C44.9884 29.9861 44.9653 30.067 44.9307 30.1363C44.896 30.2057 44.8498 30.275 44.7804 30.3328C44.7111 30.3906 44.6302 30.4368 44.5262 30.4715C44.4222 30.5061 44.2951 30.5292 44.1564 30.5292C43.8559 30.5292 43.6364 30.4715 43.4746 30.3443C43.3128 30.2288 43.2088 30.0208 43.151 29.7319H42.7581V29.7319ZM42.2265 27.2473C41.9607 27.2473 41.7296 27.3166 41.5678 27.4553C41.4638 27.5362 41.3367 27.698 41.198 27.9291V27.3282H40.3313V30.795H41.2442V29.1425C41.2442 28.8651 41.2789 28.6571 41.3482 28.53C41.4753 28.2873 41.718 28.1718 42.0763 28.1718C42.0994 28.1718 42.1341 28.1718 42.1803 28.1718C42.2265 28.1718 42.2727 28.1833 42.3305 28.1833V27.2588C42.2958 27.2588 42.2612 27.2588 42.2496 27.2588C42.2612 27.2473 42.2496 27.2473 42.2265 27.2473ZM37.7889 28.7265C37.4422 28.7727 37.1649 28.842 36.9915 28.946C36.6564 29.1309 36.4946 29.4429 36.4946 29.8705C36.4946 30.1941 36.5986 30.4483 36.8066 30.6332C37.0146 30.8066 37.2689 30.899 37.5925 30.899C37.8351 30.899 38.0663 30.8413 38.2627 30.7257C38.4245 30.6332 38.5747 30.5177 38.7019 30.379C38.7134 30.4599 38.7134 30.5292 38.725 30.587C38.7365 30.6448 38.7596 30.7141 38.7827 30.7835H39.765V30.6448C39.7072 30.6217 39.661 30.587 39.6263 30.5408C39.5917 30.4946 39.5801 30.4137 39.5686 30.2981C39.5686 30.1363 39.557 30.0092 39.557 29.8936V28.3104C39.557 27.8944 39.4068 27.6055 39.1179 27.4553C38.8174 27.305 38.4823 27.2357 38.1009 27.2357C37.5116 27.2357 37.1071 27.3859 36.8644 27.698C36.7142 27.8944 36.6333 28.1371 36.6102 28.4491H37.4884C37.5116 28.3104 37.5578 28.2064 37.6156 28.1371C37.708 28.0331 37.8582 27.9753 38.0778 27.9753C38.2743 27.9753 38.4129 27.9984 38.5169 28.0562C38.621 28.114 38.6672 28.2064 38.6672 28.3451C38.6672 28.4607 38.5978 28.5416 38.4707 28.5993C38.4014 28.634 38.2743 28.6571 38.1125 28.6802L37.7889 28.7265ZM38.6556 29.4429C38.6441 29.7434 38.5632 29.9514 38.4014 30.067C38.2396 30.1825 38.0547 30.2403 37.8582 30.2403C37.7311 30.2403 37.6271 30.2057 37.5462 30.1363C37.4538 30.067 37.4191 29.9514 37.4191 29.8012C37.4191 29.6278 37.4884 29.5007 37.6271 29.4198C37.708 29.3736 37.8467 29.3274 38.0431 29.2927L38.2512 29.258C38.3552 29.2349 38.4361 29.2234 38.4938 29.2003C38.5516 29.1772 38.6094 29.154 38.6672 29.1078V29.4429H38.6556ZM34.6803 27.2473C34.3914 27.2473 34.1602 27.3166 33.9753 27.4553C33.8713 27.5362 33.7673 27.6633 33.6518 27.8366V27.3282H32.7735V30.7835H33.6749V28.9114C33.6749 28.6918 33.7096 28.5184 33.7673 28.3798C33.8829 28.114 34.0909 27.9869 34.3914 27.9869C34.6341 27.9869 34.8074 28.0793 34.8998 28.2527C34.9461 28.3451 34.9692 28.4953 34.9692 28.6687V30.7835H35.8937V28.4491C35.8937 28.01 35.7781 27.7095 35.5586 27.5131C35.3274 27.3397 35.027 27.2473 34.6803 27.2473ZM28.7635 27.3282V29.4198C28.7635 29.8127 28.8097 30.1132 28.9137 30.3212C29.0871 30.691 29.4337 30.8759 29.9422 30.8759C30.1156 30.8759 30.2774 30.8528 30.4045 30.8066C30.5316 30.7604 30.6703 30.6679 30.8089 30.5408C30.8552 30.5061 30.9014 30.4483 30.9245 30.4021C30.9592 30.3443 30.9823 30.3212 30.9823 30.3097V30.795H31.8606V27.3282H30.9476V29.2118C30.9476 29.4314 30.9129 29.6163 30.8552 29.7434C30.7396 29.9976 30.5316 30.1132 30.2196 30.1132C29.9769 30.1132 29.8151 30.0208 29.7342 29.8474C29.688 29.7434 29.6649 29.6047 29.6649 29.4083V27.3166H28.7635V27.3282ZM26.5678 25.9067L25.9553 26.8543H26.614L27.5847 25.9067H26.5678ZM28.2666 29.0616C28.2666 28.5647 28.1163 28.1255 27.8274 27.7673C27.5385 27.3975 27.0878 27.2126 26.4985 27.2126C25.9091 27.2126 25.4584 27.3975 25.1695 27.7673C24.8806 28.1371 24.7304 28.5647 24.7304 29.0616C24.7304 29.5701 24.8806 30.0092 25.1695 30.3674C25.4584 30.7257 25.9091 30.9106 26.4985 30.9106C27.0878 30.9106 27.5385 30.7257 27.8274 30.3674C28.1163 30.0092 28.2666 29.5701 28.2666 29.0616ZM26.4985 30.1479C26.2327 30.1479 26.0247 30.0554 25.886 29.8705C25.7473 29.6856 25.6664 29.4198 25.6664 29.0731C25.6664 28.7265 25.7357 28.4607 25.886 28.2758C26.0247 28.0909 26.2327 27.9984 26.4985 27.9984C26.7643 27.9984 26.9723 28.0909 27.1109 28.2758C27.2496 28.4607 27.319 28.7265 27.319 29.0731C27.319 29.4198 27.2496 29.6856 27.1109 29.8705C26.9607 30.0554 26.7643 30.1479 26.4985 30.1479ZM24.5455 27.2473C24.2797 27.2473 24.0485 27.3166 23.8867 27.4553C23.7827 27.5362 23.6672 27.698 23.517 27.9291V27.3282H22.6502V30.795H23.5632V29.1425C23.5632 28.8651 23.5978 28.6571 23.6672 28.53C23.7943 28.2873 24.037 28.1718 24.4068 28.1718C24.4299 28.1718 24.4646 28.1718 24.5108 28.1718C24.557 28.1718 24.6032 28.1833 24.661 28.1833V27.2588C24.6263 27.2588 24.5917 27.2588 24.5801 27.2588C24.5801 27.2473 24.5686 27.2473 24.5455 27.2473ZM18.8136 26.1148V32.1471H19.7149V30.3328C19.8536 30.5639 20.027 30.7257 20.2465 30.8066C20.3737 30.8528 20.5239 30.8759 20.7088 30.8759C21.1826 30.8759 21.5408 30.7026 21.7951 30.3443C22.0493 29.9861 22.1649 29.547 22.1649 29.0269C22.1649 28.426 22.0262 27.9753 21.7604 27.6748C21.4946 27.3744 21.1364 27.2241 20.6857 27.2241C20.4661 27.2241 20.2812 27.2704 20.1079 27.3628C19.9461 27.4553 19.8074 27.5939 19.6918 27.7788V26.1032H18.8136V26.1148ZM20.4777 30.1248C20.2234 30.1248 20.027 30.0323 19.8883 29.8474C19.7612 29.6625 19.6918 29.3967 19.6918 29.0731C19.6918 28.7149 19.7612 28.4491 19.923 28.2873C20.0732 28.1255 20.2581 28.0446 20.4545 28.0446C20.7088 28.0446 20.8937 28.1371 21.0324 28.3104C21.171 28.4838 21.2404 28.738 21.2404 29.0385C21.2404 29.2812 21.2057 29.4892 21.1479 29.651C21.0324 29.9745 20.8012 30.1248 20.4777 30.1248ZM17.0339 30.7835H17.9468V27.3166H17.0339V30.7835ZM17.9468 26.0801H17.0339V26.9121H17.9468V26.0801ZM14.9653 27.2473C14.6764 27.2473 14.4453 27.3166 14.2604 27.4553C14.1564 27.5362 14.0524 27.6633 13.9368 27.8366V27.3282H13.0586V30.7835H13.9599V28.9114C13.9599 28.6918 13.9946 28.5184 14.0524 28.3798C14.168 28.114 14.376 27.9869 14.6764 27.9869C14.9191 27.9869 15.0924 28.0793 15.1849 28.2527C15.2311 28.3451 15.2542 28.4953 15.2542 28.6687V30.7835H16.1787V28.4491C16.1787 28.01 16.0632 27.7095 15.8436 27.5131C15.6125 27.3397 15.312 27.2473 14.9653 27.2473ZM9.41834 30.7835H10.3082V29.6972L10.678 29.3043L11.5216 30.7835H12.6194L11.3251 28.6225L12.5616 27.3282H11.4407L10.2966 28.634V26.1032H9.40678V30.7835H9.41834ZM4.57627 28.7727C4.24114 28.8189 3.99846 28.8998 3.83667 28.9923C3.54777 29.1772 3.39753 29.4545 3.39753 29.8474C3.39753 30.1363 3.48998 30.379 3.68644 30.587C3.8829 30.795 4.19492 30.899 4.6225 30.899C4.9114 30.899 5.16564 30.8528 5.38521 30.7604C5.60478 30.6679 5.80123 30.5177 5.95146 30.3212C6.06703 30.4946 6.22881 30.6332 6.42527 30.7372C6.63328 30.8413 6.87596 30.899 7.16487 30.899C7.73113 30.899 8.15871 30.7257 8.47072 30.379C8.65562 30.171 8.75963 29.9514 8.78274 29.7434H7.8698C7.81202 29.9168 7.71957 30.0323 7.59245 30.0901C7.46533 30.1479 7.3151 30.1825 7.14176 30.1825C6.84129 30.1825 6.63328 30.067 6.51772 29.8359C6.45994 29.7087 6.42527 29.5238 6.42527 29.2812H8.81741C8.82897 28.8074 8.75963 28.426 8.63251 28.114C8.37827 27.5362 7.90447 27.2473 7.19954 27.2473C6.97997 27.2473 6.78351 27.2819 6.61017 27.3513C6.43683 27.4206 6.29815 27.5131 6.15948 27.6171C6.03236 27.5131 5.90524 27.4322 5.78968 27.3859C5.58166 27.2935 5.33898 27.2473 5.06163 27.2473C4.68028 27.2473 4.3567 27.3166 4.10247 27.4437C3.72111 27.6402 3.52465 27.9753 3.50154 28.4491H4.37982C4.39137 28.322 4.41448 28.2295 4.46071 28.1602C4.55316 28.0331 4.71495 27.9637 4.95763 27.9637C5.10786 27.9637 5.23498 27.9753 5.32743 28.01C5.50077 28.0678 5.58166 28.1833 5.58166 28.3567C5.58166 28.4607 5.52388 28.5531 5.43143 28.5993C5.3621 28.634 5.25809 28.6687 5.10786 28.6802L4.57627 28.7727ZM5.60478 29.4776C5.60478 29.8012 5.48921 30.0208 5.26965 30.1479C5.14253 30.2172 4.9923 30.2519 4.79584 30.2519C4.61094 30.2519 4.48382 30.2057 4.41448 30.1248C4.33359 30.0323 4.29892 29.9399 4.29892 29.8474C4.29892 29.6741 4.3567 29.547 4.47227 29.4661C4.5416 29.4198 4.68028 29.3736 4.87673 29.3389L5.23498 29.2696C5.3621 29.2465 5.44299 29.2234 5.47766 29.2118C5.51233 29.2003 5.55855 29.1772 5.60478 29.1425V29.4776V29.4776ZM6.44838 28.7033C6.45994 28.4607 6.52928 28.2758 6.64484 28.1486C6.7604 28.0331 6.9453 27.9637 7.17643 27.9637C7.40755 27.9637 7.58089 28.0331 7.69646 28.1602C7.81202 28.2873 7.8698 28.4722 7.89291 28.6918H6.44838V28.7033ZM0 26.1032V26.9352H1.40986V30.7835H2.39214V26.9352H3.79045V26.1032H0Z" fill="#0A0A0A"/>
</g>
<defs>
<clipPath id="clip0_5838_133780">
<rect width="60" height="31.2943" fill="white" transform="translate(0 0.852783)"/>
</clipPath>
</defs>
</svg>
