<svg width="345" height="62" viewBox="0 0 345 62" fill="none" xmlns="http://www.w3.org/2000/svg">
<path d="M61.9855 31.0145C61.9855 13.9196 48.1094 0 31.0145 0C13.9196 0 0 13.9196 0 31.0145C0 46.9785 12.1796 60.0716 27.6216 61.768C33.7549 62.29 35.6688 61.768 35.6688 61.768V24.5767H47.109V17.1819H16.2685V24.5767H27.6216V54.8952C15.7465 53.1988 6.43779 43.3681 6.43779 31.0145C6.43779 17.7039 17.0949 6.95977 30.3185 6.56829C30.3185 6.56829 34.9294 6.2203 40.7147 8.48223C50.7629 12.5711 58.1576 22.6628 58.1576 34.4074C58.1576 44.3251 53.0248 52.9813 45.3255 57.9836L45.543 58.3751C55.6782 52.9813 61.9855 42.4981 61.9855 31.0145Z" fill="#F70C11"/>
<path d="M339.369 31.4874C339.369 30.6521 339.438 29.8167 339.577 29.051C339.717 28.2853 339.995 27.5892 340.343 27.0323C340.691 26.4754 341.248 25.9881 341.875 25.7097C342.501 25.3616 343.336 25.2224 344.311 25.2224V23.3429C343.058 23.3429 342.014 23.5517 341.248 24.039C340.482 24.5263 339.856 25.3616 339.369 26.545V23.691H337.628V38.9357H339.369V31.4874ZM331.503 31.9747C331.503 32.81 331.363 33.5757 331.154 34.2718C330.946 34.9679 330.667 35.5944 330.25 36.0817C329.832 36.569 329.345 36.9866 328.788 37.2651C328.231 37.5435 327.535 37.6827 326.839 37.6827C325.446 37.6827 324.472 37.3347 323.845 36.6386C323.219 35.9425 322.94 34.9679 322.94 33.6453V23.691H321.2V33.7149C321.2 34.5503 321.27 35.2464 321.479 35.9425C321.687 36.6386 321.966 37.1955 322.383 37.7524C322.801 38.2396 323.358 38.6573 324.054 38.9357C324.75 39.2142 325.586 39.3534 326.63 39.3534C327.326 39.3534 327.883 39.2838 328.37 39.075C328.857 38.9357 329.345 38.7269 329.693 38.4485C330.041 38.17 330.389 37.9612 330.737 37.6131C331.015 37.3347 331.294 37.0562 331.503 36.7778V38.8661H333.243V23.691H331.503V31.9747V31.9747ZM312.429 20.28C312.986 20.7673 313.473 21.3938 313.961 22.0899C314.378 22.786 314.796 23.6214 315.144 24.6655C314.796 24.3871 314.448 24.1782 314.169 23.9694C313.821 23.7606 313.543 23.691 313.195 23.5517C312.847 23.4821 312.499 23.4125 312.151 23.3429C311.803 23.2733 311.315 23.2733 310.828 23.2733C309.645 23.2733 308.601 23.4821 307.696 23.9694C306.791 24.4567 306.095 25.0136 305.538 25.7793C304.981 26.545 304.563 27.3803 304.285 28.3549C304.006 29.3294 303.867 30.304 303.867 31.2785C303.867 32.6012 304.076 33.7845 304.424 34.7591C304.772 35.7336 305.329 36.569 305.955 37.2651C306.582 37.9612 307.348 38.4485 308.183 38.7965C309.018 39.1446 309.923 39.2838 310.898 39.3534C311.942 39.3534 312.916 39.1446 313.821 38.7965C314.657 38.4485 315.422 37.8916 316.049 37.1955C316.675 36.4994 317.163 35.664 317.441 34.6895C317.789 33.7149 317.928 32.6012 317.928 31.4178C317.928 28.7726 317.511 26.4754 316.745 24.4567C315.979 22.438 314.866 20.7673 313.543 19.5143L315.283 18.1221L314.169 17.3564L312.568 18.679C312.22 18.4005 311.803 18.1917 311.455 17.9133C311.107 17.7044 310.689 17.4956 310.271 17.3564L309.088 18.3309C309.505 18.5398 309.923 18.7486 310.341 18.9574C310.758 19.1663 311.107 19.3751 311.455 19.5839L309.575 21.1154L310.689 21.8115L312.429 20.28ZM315.84 33.7149C315.631 34.4806 315.353 35.1768 314.935 35.8033C314.517 36.4297 313.961 36.917 313.334 37.2651C312.708 37.6131 311.872 37.822 310.967 37.822C310.132 37.822 309.366 37.6827 308.74 37.3347C308.113 37.0562 307.556 36.569 307.139 36.0121C306.721 35.4552 306.373 34.7591 306.164 33.9934C305.955 33.2277 305.816 32.3227 305.816 31.4178C305.816 30.5824 305.886 29.8167 306.095 29.051C306.303 28.2853 306.582 27.5892 307 26.9627C307.417 26.3362 307.974 25.9185 308.601 25.5009C309.227 25.1528 310.062 24.944 310.967 24.944C311.872 24.944 312.708 25.0832 313.334 25.4312C313.961 25.7793 314.517 26.197 314.935 26.8235C315.353 27.3803 315.631 28.0765 315.84 28.8422C316.049 29.6079 316.119 30.4432 316.119 31.3482C316.119 32.1835 315.979 32.9492 315.84 33.7149ZM294.47 22.0899L298.507 17.9829H296.21L292.938 22.0899H294.47ZM299.482 33.7149C299.273 34.4806 298.994 35.1768 298.577 35.8033C298.159 36.4297 297.602 36.917 296.976 37.2651C296.349 37.6131 295.514 37.822 294.609 37.822C293.773 37.822 293.008 37.6827 292.381 37.3347C291.755 37.0562 291.198 36.569 290.78 36.0121C290.363 35.4552 290.014 34.7591 289.806 33.9934C289.597 33.2277 289.458 32.3227 289.458 31.4178C289.458 30.5824 289.527 29.8167 289.736 29.051C289.945 28.2853 290.223 27.5892 290.641 26.9627C291.059 26.3362 291.616 25.9185 292.242 25.5009C292.869 25.1528 293.704 24.944 294.609 24.944C295.514 24.944 296.349 25.0832 296.976 25.4312C297.602 25.7793 298.159 26.197 298.577 26.8235C298.994 27.3803 299.273 28.0765 299.482 28.8422C299.69 29.6079 299.76 30.4432 299.76 31.3482C299.76 32.1835 299.69 32.9492 299.482 33.7149ZM297.532 38.7965C298.437 38.4485 299.133 37.8916 299.76 37.1955C300.386 36.4994 300.874 35.664 301.152 34.6895C301.5 33.7149 301.639 32.6012 301.639 31.4178C301.639 30.304 301.5 29.2598 301.222 28.2853C300.943 27.3107 300.526 26.4754 299.899 25.7793C299.342 25.0832 298.577 24.5263 297.672 24.1086C296.767 23.691 295.723 23.4821 294.539 23.4821C293.356 23.4821 292.312 23.691 291.476 24.1086C290.571 24.5263 289.875 25.0832 289.249 25.8489C288.692 26.545 288.205 27.45 287.926 28.3549C287.648 29.3294 287.508 30.3736 287.508 31.4874C287.508 32.81 287.717 33.9934 288.065 34.9679C288.413 35.9425 288.97 36.7778 289.597 37.4739C290.223 38.17 290.989 38.6573 291.824 39.0054C292.66 39.3534 293.565 39.4926 294.539 39.5622C295.653 39.3534 296.627 39.1446 297.532 38.7965ZM284.376 17.7741H282.427V20.4193H284.376V17.7741ZM282.496 23.691V41.1633C282.496 41.581 282.427 41.929 282.427 42.2074C282.357 42.4859 282.218 42.7643 282.079 42.9036C281.87 43.1124 281.661 43.182 281.313 43.2516C280.965 43.3212 280.617 43.3212 280.06 43.2516V44.783C280.408 44.8527 280.756 44.9223 281.174 44.9223C281.87 44.9223 282.427 44.8527 282.845 44.6438C283.262 44.5046 283.541 44.2262 283.749 43.8781C283.958 43.5301 284.098 43.1124 284.167 42.6251C284.237 42.1378 284.237 41.5809 284.237 40.9545V23.691H282.496ZM266.625 34.2022C266.695 34.8983 266.834 35.5944 267.113 36.2209C267.391 36.8474 267.739 37.4043 268.226 37.8916C268.714 38.3789 269.34 38.7269 270.036 39.0054C270.732 39.2838 271.498 39.423 272.403 39.423C273.308 39.423 274.143 39.3534 274.909 39.1446C275.675 38.9357 276.301 38.6573 276.858 38.3092C277.415 37.9612 277.833 37.4739 278.181 36.917C278.459 36.3601 278.668 35.7336 278.668 34.9679C278.668 33.9934 278.459 33.2277 277.972 32.6708C277.485 32.1139 276.858 31.6962 276.162 31.3482C275.466 31.0001 274.63 30.7913 273.795 30.5824C272.96 30.3736 272.194 30.2344 271.428 29.9559C270.732 29.7471 270.106 29.4687 269.618 29.051C269.131 28.7029 268.922 28.1461 268.922 27.45C268.922 26.6842 269.201 26.0577 269.827 25.5705C270.384 25.0832 271.289 24.8744 272.403 24.8744C273.517 24.8744 274.422 25.0832 275.187 25.5705C275.953 26.0577 276.371 26.8931 276.51 28.0765H278.32C278.111 26.3362 277.485 25.1528 276.44 24.3871C275.396 23.6214 274.074 23.2733 272.403 23.2733C270.732 23.2733 269.41 23.691 268.435 24.5263C267.53 25.3616 267.043 26.4058 267.043 27.6588C267.043 28.6333 267.252 29.3991 267.739 29.9559C268.226 30.5128 268.853 30.9305 269.549 31.2089C270.245 31.4874 271.08 31.6962 271.916 31.8354C272.751 31.9747 273.517 32.1835 274.282 32.3923C274.979 32.6012 275.605 32.8796 276.092 33.2277C276.58 33.5757 276.788 34.1326 276.788 34.8983C276.788 35.2464 276.719 35.5944 276.58 35.9425C276.44 36.2905 276.162 36.569 275.883 36.8474C275.605 37.1259 275.187 37.3347 274.7 37.4739C274.213 37.6131 273.656 37.6827 273.029 37.6827C271.707 37.6827 270.663 37.4043 269.967 36.8474C269.27 36.2905 268.783 35.3856 268.505 34.063H266.625V34.2022ZM264.189 22.9253C262.936 22.9253 261.961 23.2733 261.196 23.8998C260.708 24.2479 260.151 25.0136 259.525 26.0577V23.3429H255.627V39.0054H259.734V31.4874C259.734 30.2344 259.873 29.3294 260.221 28.7029C260.778 27.6588 261.892 27.1019 263.562 27.1019C263.702 27.1019 263.841 27.1019 264.05 27.1019C264.258 27.1019 264.467 27.1019 264.746 27.1715V22.9949C264.537 22.9949 264.467 22.9949 264.398 22.9949C264.328 22.9253 264.328 22.9253 264.189 22.9253ZM244.211 29.6079C242.609 29.8167 241.426 30.1648 240.591 30.5824C239.129 31.4178 238.363 32.81 238.363 34.7591C238.363 36.2209 238.851 37.4043 239.755 38.17C240.66 39.0053 241.844 39.3534 243.306 39.3534C244.419 39.3534 245.394 39.075 246.299 38.5877C247.065 38.17 247.691 37.6131 248.248 37.0562C248.248 37.4043 248.318 37.7524 248.387 38.0308C248.457 38.3092 248.526 38.5877 248.666 38.9357H253.121V38.3092C252.842 38.17 252.633 38.0308 252.494 37.822C252.355 37.6131 252.285 37.2651 252.216 36.7082C252.216 36.0121 252.216 35.3856 252.216 34.8983V27.798C252.216 25.9185 251.52 24.6655 250.197 23.9694C248.874 23.2733 247.343 22.9253 245.603 22.9253C242.958 22.9253 241.078 23.6214 240.034 25.0136C239.338 25.9185 238.99 27.0323 238.851 28.3549H242.818C242.888 27.7284 243.097 27.2411 243.375 26.8931C243.793 26.4058 244.489 26.197 245.464 26.197C246.368 26.197 246.995 26.3362 247.413 26.545C247.83 26.8235 248.109 27.2411 248.109 27.8676C248.109 28.4245 247.83 28.7726 247.204 29.051C246.856 29.1902 246.299 29.3294 245.603 29.3991L244.211 29.6079ZM248.109 32.8796C248.109 34.2718 247.691 35.1768 246.925 35.7336C246.16 36.2209 245.324 36.4994 244.489 36.4994C243.932 36.4994 243.445 36.3601 243.027 36.0121C242.61 35.7336 242.47 35.1768 242.47 34.4806C242.47 33.7149 242.818 33.0884 243.445 32.7404C243.793 32.5315 244.419 32.3227 245.324 32.1835L246.229 32.0443C246.717 31.9747 247.065 31.8354 247.343 31.7658C247.621 31.6962 247.9 31.557 248.109 31.3482V32.8796ZM230.149 22.9253C228.896 22.9253 227.782 23.2733 226.947 23.8998C226.46 24.2479 225.973 24.8047 225.485 25.6401V23.3429H221.517V38.9357H225.624V30.4432C225.624 29.4687 225.764 28.7029 226.042 28.0765C226.529 26.8931 227.504 26.3362 228.896 26.3362C230.01 26.3362 230.776 26.7538 231.193 27.5196C231.402 27.9372 231.541 28.5637 231.541 29.3991V38.9357H235.718V28.4245C235.718 26.4754 235.231 25.0832 234.187 24.2479C233.073 23.3429 231.75 22.9253 230.149 22.9253ZM203.419 23.2733V32.6708C203.419 34.4806 203.627 35.8033 204.115 36.7082C204.88 38.3789 206.481 39.2142 208.779 39.2142C209.544 39.2142 210.31 39.075 210.867 38.8661C211.493 38.6573 212.05 38.2396 212.746 37.6827C212.955 37.4739 213.164 37.2651 213.303 37.0562C213.443 36.8474 213.582 36.7082 213.582 36.6386V38.8661H217.55V23.2733H213.373V31.7658C213.373 32.7404 213.234 33.5757 212.955 34.2022C212.468 35.316 211.493 35.8729 210.101 35.8729C208.987 35.8729 208.291 35.4552 207.943 34.6895C207.734 34.2718 207.595 33.5757 207.595 32.6708V23.2733H203.419ZM193.534 16.9387L190.749 21.2546H193.673L198.059 16.9387H193.534ZM201.191 31.1393C201.191 28.9118 200.565 26.9627 199.242 25.292C197.919 23.6214 195.901 22.786 193.255 22.786C190.61 22.786 188.592 23.6214 187.269 25.292C185.946 26.9627 185.32 28.9118 185.32 31.1393C185.32 33.4365 185.946 35.3856 187.269 36.9866C188.592 38.5877 190.61 39.423 193.255 39.423C195.901 39.423 197.919 38.5877 199.242 36.9866C200.565 35.3856 201.191 33.4365 201.191 31.1393ZM193.186 36.0121C192.002 36.0121 191.097 35.5944 190.401 34.7591C189.775 33.9238 189.427 32.6708 189.427 31.1393C189.427 29.6079 189.775 28.3549 190.401 27.5196C191.028 26.6842 191.933 26.2666 193.186 26.2666C194.369 26.2666 195.274 26.6842 195.97 27.5196C196.597 28.3549 196.945 29.5383 196.945 31.1393C196.945 32.7404 196.597 33.9238 195.97 34.7591C195.344 35.5944 194.369 36.0121 193.186 36.0121ZM184.415 22.9253C183.162 22.9253 182.187 23.2733 181.422 23.8998C180.934 24.2479 180.377 25.0136 179.751 26.0577V23.3429H175.853V39.0054H179.96V31.4874C179.96 30.2344 180.099 29.3294 180.447 28.7029C181.004 27.6588 182.118 27.1019 183.788 27.1019C183.928 27.1019 184.067 27.1019 184.276 27.1019C184.484 27.1019 184.693 27.1019 184.972 27.1715V22.9949C184.763 22.9949 184.693 22.9949 184.624 22.9949C184.554 22.9253 184.484 22.9253 184.415 22.9253ZM158.52 17.8437V45.0615H162.627V36.8474C163.253 37.8916 164.019 38.5877 164.993 39.0054C165.55 39.2142 166.246 39.3534 167.082 39.3534C169.24 39.3534 170.841 38.5181 171.955 36.917C173.068 35.316 173.625 33.3669 173.625 31.0001C173.625 28.2853 172.999 26.2666 171.815 24.8744C170.632 23.5517 169.031 22.8556 167.012 22.8556C166.038 22.8556 165.202 23.0645 164.437 23.4821C163.671 23.8998 163.044 24.5263 162.557 25.3616V17.8437H158.52ZM166.038 35.9425C164.854 35.9425 164.019 35.5248 163.392 34.6895C162.836 33.8541 162.487 32.6708 162.487 31.1393C162.487 29.5383 162.836 28.3549 163.532 27.5892C164.228 26.8235 164.993 26.4754 165.968 26.4754C167.082 26.4754 167.987 26.8931 168.613 27.6588C169.24 28.4941 169.588 29.5383 169.588 30.9305C169.588 32.0443 169.449 32.9492 169.17 33.7149C168.544 35.2464 167.499 35.9425 166.038 35.9425ZM150.514 38.9357H154.691V23.2733H150.514V38.9357ZM154.621 17.7044H150.445V21.4634H154.621V17.7044ZM141.187 22.9253C139.934 22.9253 138.82 23.2733 137.984 23.8998C137.497 24.2479 137.01 24.8047 136.523 25.6401V23.3429H132.555V38.9357H136.662V30.4432C136.662 29.4687 136.801 28.7029 137.08 28.0765C137.567 26.8931 138.541 26.3362 139.934 26.3362C141.047 26.3362 141.813 26.7538 142.231 27.5196C142.44 27.9372 142.579 28.5637 142.579 29.3991V38.9357H146.755V28.4245C146.755 26.4754 146.268 25.0832 145.224 24.2479C144.11 23.3429 142.788 22.9253 141.187 22.9253ZM116.127 38.9357H120.164V33.9934L121.835 32.2531L125.594 38.9357H130.536L124.689 29.1902L130.258 23.3429H125.176L120.025 29.2598V17.8437H115.987V38.9357H116.127ZM94.2689 29.8167C92.7374 30.0256 91.6237 30.3736 90.9275 30.7913C89.6049 31.6266 88.9784 32.8796 88.9784 34.6895C88.9784 36.0121 89.3961 37.1259 90.301 38.0308C91.1364 38.9357 92.5982 39.423 94.5473 39.423C95.8699 39.423 96.9837 39.2142 97.9582 38.7965C98.9328 38.3789 99.8377 37.6827 100.534 36.7778C101.021 37.5435 101.787 38.17 102.692 38.6573C103.597 39.1446 104.71 39.423 106.033 39.423C108.539 39.423 110.558 38.6573 111.88 37.0562C112.716 36.0817 113.203 35.1768 113.342 34.2022H109.166C108.887 34.9679 108.469 35.5248 107.913 35.8033C107.356 36.0817 106.66 36.2209 105.894 36.2209C104.502 36.2209 103.597 35.664 103.109 34.6199C102.831 34.063 102.692 33.2277 102.692 32.1139H113.481C113.551 29.9559 113.273 28.2157 112.646 26.8235C111.532 24.1782 109.374 22.9253 106.172 22.9253C105.198 22.9253 104.293 23.0645 103.527 23.4125C102.761 23.691 102.065 24.1086 101.508 24.5959C100.952 24.1086 100.395 23.7606 99.8377 23.5517C98.8632 23.1341 97.7494 22.9253 96.566 22.9253C94.8257 22.9253 93.3639 23.2037 92.2501 23.8302C90.5795 24.7351 89.6746 26.2666 89.5353 28.4245H93.5031C93.5031 27.8676 93.6424 27.3803 93.8512 27.1019C94.2689 26.545 95.0346 26.197 96.0787 26.197C96.7748 26.197 97.3317 26.2666 97.7494 26.4058C98.5151 26.6842 98.9328 27.1715 98.9328 27.9372C98.9328 28.4245 98.724 28.7726 98.2367 29.051C97.9582 29.1902 97.471 29.3294 96.7748 29.4687L94.2689 29.8167ZM98.9328 33.0188C98.9328 34.4806 98.4455 35.4552 97.4013 36.0121C96.8445 36.2905 96.1483 36.4297 95.313 36.4297C94.4777 36.4297 93.9208 36.2209 93.5727 35.8729C93.2247 35.4552 93.0855 35.0375 93.0855 34.6199C93.0855 33.8542 93.3639 33.2277 93.8512 32.9492C94.1296 32.7404 94.7561 32.5315 95.6611 32.3923L97.2621 32.0443C97.819 31.905 98.2367 31.8354 98.3759 31.7658C98.5151 31.6962 98.724 31.6266 98.9328 31.4874V33.0188V33.0188ZM102.761 29.4687C102.831 28.3549 103.109 27.5196 103.666 26.9627C104.223 26.4058 104.989 26.1274 106.033 26.1274C107.077 26.1274 107.843 26.4058 108.33 27.0323C108.818 27.6588 109.166 28.4245 109.235 29.3991H102.761V29.4687ZM73.6641 17.7741V21.533H79.9986V38.9357H84.4537V21.533H90.7883V17.7741H73.6641V17.7741Z" fill="#0A0A0A"/>
</svg>
