<svg width="22" height="11" viewBox="0 0 22 11" fill="none" xmlns="http://www.w3.org/2000/svg">
<path d="M10.2507 2.39502C9.47939 2.7913 8.79395 3.27707 8.28716 3.6048V6.77307C8.28716 6.82538 8.32982 6.86791 8.38172 6.86791V6.86847H10.1874H10.4771C10.5092 6.86465 10.5348 6.83593 10.5348 6.80221C10.5348 6.78487 10.5286 6.77009 10.518 6.75844C10.2855 6.55274 10.2553 6.44028 10.2525 6.01819L10.2507 2.39502Z" fill="#3F6587"/>
<path d="M14.2227 0.222604C14.2209 0.204081 14.2028 0.189304 14.1248 0.20755C13.0009 0.468126 10.7594 1.29308 9.59707 1.81693H8.34372C8.31028 1.81693 8.28711 1.86564 8.28711 1.90365V2.98065C9.9332 1.99502 11.9069 1.05546 14.1941 0.255211C14.22 0.2464 14.224 0.23204 14.2227 0.222604V0.222604Z" fill="#3F6587"/>
<path d="M9.81969 10.1263C10.4421 10.0563 12.447 9.20355 13.6805 8.62718C19.1158 6.08628 22.6943 2.52577 21.8859 0.831399C21.6846 0.408552 21.2376 0.134101 20.5753 0.00110738C20.5261 -0.00562209 20.5155 0.0199083 20.5498 0.0348241C20.7608 0.131187 21.0284 0.357006 21.1489 0.591844C21.6419 1.54854 20.6797 3.12351 18.777 4.80567C18.3873 5.13257 17.2464 5.94073 17.2464 5.94073C16.7934 6.10765 16.2524 6.15809 15.8166 6.12798C13.9236 5.99561 13.595 4.96128 13.6605 4.27501C13.7305 3.52825 14.45 2.82089 15.8367 2.82089C16.2987 2.82089 16.6315 2.89221 16.8789 2.97741C16.8872 2.98094 16.9087 2.98407 16.9164 2.98393C16.9638 2.98393 17.0027 2.94855 17.0103 2.90408H17.0108L17.136 2.03597C17.1388 2.00163 17.1425 1.94232 17.072 1.9206C16.9002 1.88099 16.1833 1.74855 15.5368 1.74938C12.8563 1.75445 11.8278 3.09611 11.7782 4.41397C11.729 5.7258 12.6461 6.85122 15.0058 6.94828C15.4504 6.96618 15.6982 6.93322 15.9238 6.87745C15.9581 6.86794 16.0496 6.82909 16.0615 6.82146C16.075 6.81306 16.1034 6.81404 16.0714 6.84477C15.9049 7.00697 14.2068 7.9969 13.169 8.53213C11.9939 9.13744 10.8786 9.63132 9.77599 10.044C9.71709 10.0678 9.71764 10.1377 9.81969 10.1263V10.1263Z" fill="#3F6587"/>
<path d="M0.0585533 1.81835C0.0255304 1.82252 0 1.84999 0 1.88357C0 1.90036 0.0069376 1.91624 0.0166502 1.92748C0.2501 2.13346 0.28125 2.24432 0.283054 2.66703V4.80388C0.283054 6.93969 2.6059 6.96404 3.09632 6.8035C3.11408 6.79781 3.13899 6.823 3.11436 6.84062L3.10853 6.84416C3.06108 6.87871 3.00904 6.9229 2.96319 6.97562C1.62805 8.56433 1.43456 10.4745 2.96263 10.7982C2.96319 10.7982 2.96319 10.7982 2.96367 10.7982C3.05865 10.8186 3.06989 10.784 3.01099 10.7436C2.77046 10.6043 2.593 10.4253 2.48623 10.2045C2.05318 9.30818 2.92427 7.64711 4.55738 6.36678V6.77395C4.55738 6.82543 4.59949 6.86809 4.65062 6.86879H6.35158C6.40361 6.86809 6.44954 6.82543 6.44954 6.77395V1.9125C6.44954 1.86053 6.40361 1.81842 6.35158 1.81738H4.65048C4.59942 1.81842 4.55724 1.8606 4.55724 1.9125V5.91695C4.12093 6.04758 2.27949 6.4698 2.27949 4.67061V1.9125H2.27907C2.27907 1.86123 2.23814 1.81981 2.18722 1.81842H0.0585533V1.81835Z" fill="#3F6587"/>
</svg>
