<svg width="26" height="22" viewBox="0 0 26 22" fill="none" xmlns="http://www.w3.org/2000/svg">
<g clip-path="url(#clip0_5838_134242)">
<path d="M2.10153 13.4407L2.16845 13.4963C2.09595 12.9961 2.05691 12.4513 2.20191 11.9733C2.41942 11.2063 2.69269 10.4614 2.83212 9.6666C2.94366 9.04963 3.07193 8.35483 2.99943 7.76009C2.91577 8.08247 2.83212 8.3993 2.65365 8.67721C1.97883 9.71663 1.28729 10.9395 1.76133 12.2624C1.75018 12.279 1.73345 12.2957 1.71672 12.2846C1.5271 11.8455 1.48248 11.3508 1.35979 10.8839C1.03074 9.64437 0.0770758 8.60496 0.355926 7.1709C0.205347 7.48217 0.149577 7.83234 0.0714988 8.1714C-0.0958114 9.04962 0.0714988 9.97787 0.31131 10.7894C0.606891 11.7955 1.59402 12.518 2.10153 13.4407Z" fill="#3F6587"/>
<path d="M1.84513 7.004C2.06821 6.54822 2.43071 6.11467 2.86572 5.79228C3.82497 5.06969 4.87344 4.13589 4.89017 2.91305C4.56671 3.79127 3.60189 4.15812 2.96053 4.75843C2.62033 5.07525 2.35821 5.45878 2.20763 5.85898L2.18533 5.84231C2.2634 5.48657 2.41398 5.16974 2.51995 4.82513C2.7988 3.89132 2.7486 2.77409 3.66323 2.146C3.19476 2.26828 2.7988 2.56843 2.44745 2.95752C1.7057 3.7746 1.77263 4.98076 1.86744 6.04797C1.9009 6.38147 1.88417 6.66494 1.84513 7.004Z" fill="#3F6587"/>
<path d="M2.96094 4.34151C3.47402 3.86349 4.06518 3.50775 4.50019 2.9408C5.01885 2.25712 5.47059 1.49007 6.15098 0.900879C5.23078 1.25661 4.23807 1.62347 3.64133 2.56839C3.28998 3.11867 3.23421 3.76899 2.96094 4.34151Z" fill="#3F6587"/>
<path d="M3.34517 6.75943C3.56825 6.3092 3.70767 5.79783 3.76902 5.30314C3.68536 5.51436 3.55709 5.7089 3.37863 5.87565C2.63131 6.58156 1.75572 7.2708 1.58841 8.2713C1.5661 8.41582 1.54937 8.56034 1.51033 8.6993C1.47687 8.71597 1.47687 8.67707 1.46572 8.66595L1.56053 7.43199C1.64976 6.22583 1.01398 4.88626 1.7111 3.82462C1.6888 3.81906 1.67207 3.84129 1.65533 3.84685C1.01956 4.65281 0.595703 5.54215 0.595703 6.62603C0.595703 7.9656 1.37091 8.90496 1.46572 10.1611C1.66649 8.84937 2.77074 7.91557 3.34517 6.75943Z" fill="#3F6587"/>
<path d="M1.86786 14.9912C2.58729 15.5582 3.44615 15.9973 4.10424 16.4975C3.97597 16.1696 3.76404 15.8694 3.68039 15.5304C3.29557 13.9796 3.5075 12.1787 2.84384 10.7446C2.96653 11.5617 2.64306 12.2843 2.57056 13.0625C2.50922 13.7017 2.62076 14.3242 2.87172 14.8578C2.94422 15.019 3.07807 15.158 3.11711 15.3247C2.8773 15.1079 2.70441 14.8356 2.54268 14.5688C1.76747 13.3181 0.144565 12.5066 0.0330251 10.9836C-0.0227449 11.6618 0.0386022 12.3788 0.261682 12.9791C0.568418 13.8017 1.17073 14.4409 1.86786 14.9912Z" fill="#3F6587"/>
<path d="M11.6497 19.0986C10.3949 19.0986 9.26834 19.7045 8.16967 20.1603C7.17139 20.5716 5.84963 20.4938 4.96289 19.8824C5.3979 20.4271 5.98348 20.7661 6.59138 20.994C7.71236 21.4387 9.02295 21.0996 9.9822 20.4882C10.6682 20.0491 11.2593 19.4266 12.0792 19.4266C13.4009 19.4266 14.7896 20.7773 15.9775 22.0001C16.1615 21.85 16.3567 21.6944 16.5073 21.5221C15.2636 20.3437 13.5069 19.0986 11.6497 19.0986Z" fill="#3F6587"/>
<path d="M9.40814 19.2323C9.60334 19.1823 9.83757 19.199 10.016 19.1323C9.26872 18.9822 8.54929 18.7543 7.96928 18.2263C7.1383 17.4703 6.40214 16.6644 5.51539 16.0752C6.21252 17.009 6.40772 18.3652 7.67927 18.8377C7.90235 18.9211 8.16447 18.9378 8.35967 19.06C8.11428 19.0989 7.90235 19.0211 7.6737 18.9711C6.03406 18.6209 4.03749 19.0712 2.81055 17.6816C3.27344 18.5931 4.23268 19.3102 5.15847 19.6103C6.5806 20.0883 8.06966 19.5603 9.40814 19.2323Z" fill="#3F6587"/>
<path d="M6.66391 18.5488C5.5987 17.6928 5.43697 16.4089 4.96292 15.2861C4.66734 14.5857 4.18772 13.9576 3.67463 13.3462C4.23791 14.469 3.99252 15.9142 4.72311 16.9702C4.95177 17.3037 5.26966 17.6206 5.56524 17.8818L5.55408 17.8985C5.28639 17.7762 5.04658 17.5872 4.80119 17.3871C3.52405 16.3255 1.59999 16.1921 0.835938 14.4634C1.04229 15.7307 2.05172 16.8535 3.14482 17.565C4.18214 18.2431 5.51504 18.1709 6.66391 18.5488Z" fill="#3F6587"/>
<path d="M21.5026 2.9408C21.9376 3.51331 22.5288 3.86349 23.0419 4.34151C22.7686 3.76899 22.7129 3.11867 22.3671 2.56839C21.7703 1.62347 20.7776 1.25661 19.8574 0.900879C20.5267 1.49007 20.9784 2.25156 21.5026 2.9408Z" fill="#3F6587"/>
<path d="M23.4838 4.82513C23.5842 5.16419 23.7348 5.48657 23.8184 5.84231L23.7961 5.85898C23.6455 5.45878 23.3834 5.07525 23.0432 4.75843C22.4019 4.15257 21.437 3.79127 21.1191 2.90749C21.1359 4.13589 22.1843 5.06969 23.1436 5.78672C23.573 6.10911 23.9411 6.54266 24.1642 6.99845C24.1251 6.65939 24.1084 6.37591 24.1419 6.04797C24.2423 4.9752 24.3036 3.7746 23.5674 2.95752C23.2161 2.56843 22.8201 2.26272 22.3517 2.146C23.2551 2.77409 23.2049 3.89132 23.4838 4.82513Z" fill="#3F6587"/>
<path d="M24.4429 7.42665L24.5377 8.66061C24.5266 8.67173 24.5266 8.70508 24.4931 8.69396C24.4541 8.555 24.4374 8.41048 24.415 8.26597C24.2477 7.27102 23.3666 6.57622 22.6248 5.87031C22.4464 5.70356 22.3181 5.50902 22.2344 5.2978C22.2958 5.7925 22.4352 6.30386 22.6583 6.75409C23.2327 7.91023 24.337 8.84404 24.5377 10.1614C24.6326 8.89962 25.4078 7.96582 25.4078 6.62625C25.4078 5.54237 24.9839 4.65303 24.3481 3.84707C24.3314 3.83595 24.3147 3.81928 24.2924 3.82483C24.9895 4.88648 24.3481 6.22605 24.4429 7.42665Z" fill="#3F6587"/>
<path d="M24.6432 10.8777C24.5205 11.3446 24.4759 11.8449 24.2863 12.2784C24.2696 12.2896 24.2528 12.2673 24.2417 12.2562C24.7157 10.9333 24.0242 9.71603 23.3493 8.67105C23.1709 8.39869 23.0872 8.07631 23.0036 7.75392C22.9311 8.35423 23.0593 9.04347 23.1709 9.66044C23.3159 10.4553 23.5836 11.2001 23.8011 11.9672C23.9461 12.4452 23.907 12.9843 23.8345 13.4902L23.9015 13.4346C24.4034 12.5119 25.3961 11.7893 25.6973 10.7777C25.9371 9.97171 26.1044 9.03791 25.9371 8.15969C25.859 7.82063 25.7977 7.47045 25.6527 7.15918C25.9259 8.5988 24.9723 9.63821 24.6432 10.8777Z" fill="#3F6587"/>
<path d="M17.8284 20.1603C16.7242 19.7045 15.6032 19.0986 14.3484 19.0986C12.4968 19.0986 10.7345 20.3493 9.50195 21.5221C9.65253 21.6944 9.84773 21.8556 10.0318 22.0001C11.2141 20.7828 12.6083 19.4266 13.9301 19.4266C14.7499 19.4266 15.3411 20.0491 16.027 20.4882C16.9807 21.0941 18.2913 21.4387 19.4179 20.994C20.0202 20.7661 20.6058 20.4271 21.0464 19.8824C20.154 20.4882 18.8267 20.5716 17.8284 20.1603Z" fill="#3F6587"/>
<path d="M23.4678 14.5575C23.3005 14.8244 23.1332 15.1023 22.8934 15.3135C22.9324 15.1523 23.0663 15.0078 23.1388 14.8466C23.3897 14.3074 23.5013 13.6904 23.4399 13.0512C23.3618 12.2731 23.0384 11.5505 23.1667 10.7334C22.4974 12.1675 22.7149 13.9684 22.3301 15.5191C22.2464 15.8638 22.0345 16.1639 21.9062 16.4863C22.5643 15.986 23.4232 15.5469 24.1426 14.98C24.8398 14.4353 25.4421 13.7905 25.76 12.9567C25.9886 12.3564 26.0444 11.6394 25.9886 10.9613C25.8715 12.4954 24.243 13.3069 23.4678 14.5575Z" fill="#3F6587"/>
<path d="M21.1908 17.3871C20.9455 17.5872 20.7056 17.7762 20.4379 17.8985L20.4268 17.8818C20.7224 17.615 21.0403 17.2982 21.2689 16.9702C21.9995 15.9142 21.7541 14.4634 22.3174 13.3462C21.8043 13.9576 21.3247 14.5857 21.0291 15.2861C20.5551 16.4089 20.3933 17.6928 19.3281 18.5488C20.477 18.1709 21.8099 18.2431 22.8416 17.5705C23.9292 16.8591 24.9386 15.7363 25.1505 14.469C24.392 16.1921 22.4736 16.3255 21.1908 17.3871Z" fill="#3F6587"/>
<path d="M18.3306 18.977C18.102 19.027 17.89 19.0992 17.6447 19.0659C17.8398 18.9436 18.0964 18.9269 18.325 18.8436C19.5966 18.3655 19.7918 17.0093 20.4889 16.0811C19.6022 16.6702 18.866 17.4762 18.035 18.2321C17.455 18.7602 16.7356 18.9825 15.9883 19.1382C16.1667 19.2049 16.401 19.1882 16.5962 19.2382C17.9402 19.5717 19.4237 20.0942 20.8514 19.6217C21.7716 19.316 22.7309 18.599 23.1994 17.693C21.9668 19.077 19.9647 18.6323 18.3306 18.977Z" fill="#3F6587"/>
<path d="M12.9989 0.000488281C7.92386 0.000488281 3.79688 4.11368 3.79688 9.17179C3.79688 14.2299 7.92386 18.3431 12.9989 18.3431C18.074 18.3431 22.201 14.2299 22.201 9.17179C22.201 4.11368 18.074 0.000488281 12.9989 0.000488281ZM12.9989 10.9227C12.0285 10.9227 11.2422 10.1389 11.2422 9.17179C11.2422 8.20463 12.0285 7.4209 12.9989 7.4209C13.9693 7.4209 14.7557 8.20463 14.7557 9.17179C14.7557 10.1389 13.9693 10.9227 12.9989 10.9227ZM14.3207 7.69882C13.9972 7.40978 13.5789 7.22636 13.1161 7.19857V5.69781C13.9916 5.7256 14.7892 6.07578 15.3859 6.63717L14.3207 7.69882ZM12.8874 7.19857C12.4245 7.22636 12.0062 7.40978 11.6828 7.69882L10.6176 6.63717C11.2143 6.07578 12.0118 5.7256 12.8874 5.69781V7.19857ZM11.5266 7.86001C11.2366 8.1824 11.0526 8.59927 11.0247 9.06062H9.51888C9.54677 8.18796 9.89812 7.39311 10.4614 6.79837L11.5266 7.86001ZM11.0247 9.28295C11.0526 9.7443 11.2366 10.1612 11.5266 10.4836L10.4614 11.5452C9.89812 10.9505 9.54677 10.1556 9.51888 9.28295H11.0247ZM11.6828 10.6448C12.0062 10.9338 12.4245 11.1172 12.8874 11.145V12.6458C12.0118 12.618 11.2143 12.2678 10.6176 11.7064L11.6828 10.6448ZM13.1105 11.1394C13.5734 11.1117 13.9916 10.9282 14.3151 10.6392L15.3803 11.7008C14.7836 12.2622 13.9861 12.6124 13.1105 12.6402V11.1394ZM14.4768 10.4836C14.7668 10.1612 14.9509 9.7443 14.9788 9.28295H16.4846C16.4567 10.1556 16.1053 10.9505 15.542 11.5452L14.4768 10.4836ZM14.9788 9.06062C14.9509 8.59927 14.7668 8.1824 14.4768 7.86001L15.542 6.79837C16.1053 7.39311 16.4567 8.18796 16.4846 9.06062H14.9788ZM15.542 6.48154C14.9007 5.88124 14.053 5.50327 13.1105 5.47547V3.80797C14.5103 3.83576 15.7819 4.40271 16.7244 5.30317L15.542 6.48154ZM12.8874 5.47547C11.9505 5.50327 11.0972 5.88124 10.4558 6.48154L9.27349 5.30317C10.216 4.40271 11.4876 3.83576 12.8874 3.80797V5.47547ZM10.2997 6.63717C9.69735 7.27638 9.31811 8.12125 9.29022 9.06062H7.61712C7.64501 7.66547 8.21386 6.39816 9.11734 5.4588L10.2997 6.63717ZM9.2958 9.28295C9.32369 10.2168 9.70292 11.0672 10.3052 11.7064L9.11734 12.8848C8.21386 11.9454 7.64501 10.6781 7.61712 9.28295H9.2958ZM10.4614 11.862C11.1028 12.4623 11.9505 12.8403 12.893 12.8681V14.5356C11.4931 14.5078 10.2216 13.9409 9.27907 13.0404L10.4614 11.862ZM13.1105 12.8625C14.0474 12.8347 14.9007 12.4568 15.542 11.8565L16.7244 13.0348C15.7819 13.9353 14.5103 14.5023 13.1105 14.53V12.8625ZM15.6982 11.7008C16.3005 11.0616 16.6798 10.2168 16.7076 9.27739H18.3807C18.3529 10.6725 17.784 11.9398 16.8805 12.8792L15.6982 11.7008ZM16.7076 9.06062C16.6798 8.12681 16.3005 7.27638 15.6982 6.63717L16.8805 5.4588C17.784 6.39816 18.3529 7.66547 18.3807 9.06062H16.7076ZM16.8805 5.14753C15.899 4.20817 14.5716 3.61898 13.1105 3.59119V2.11267C14.9788 2.14046 16.6742 2.89639 17.9234 4.10256L16.8805 5.14753ZM12.8874 3.58563C11.4262 3.61342 10.0989 4.20261 9.11734 5.14197L8.07444 4.10256C9.32369 2.89639 11.0191 2.14046 12.8874 2.11267V3.58563ZM8.96118 5.30317C8.01867 6.28144 7.42751 7.60433 7.39962 9.06062H5.92171C5.9496 7.19857 6.70807 5.50883 7.91828 4.26375L8.96118 5.30317ZM7.39962 9.28295C7.42751 10.7392 8.01867 12.0621 8.96118 13.0404L7.91828 14.0798C6.70807 12.8347 5.9496 11.145 5.92171 9.28295H7.39962ZM9.11734 13.196C10.0989 14.1354 11.4262 14.7246 12.8874 14.7524V16.2253C11.0191 16.1976 9.32369 15.4416 8.07444 14.2355L9.11734 13.196ZM13.1105 14.7579C14.5716 14.7301 15.899 14.141 16.8805 13.2016L17.9234 14.241C16.6742 15.4472 14.9788 16.2031 13.1105 16.2309V14.7579V14.7579ZM17.0423 13.0404C17.9848 12.0621 18.5759 10.7392 18.6038 9.28295H20.0817C20.0538 11.145 19.2954 12.8347 18.0852 14.0798L17.0423 13.0404ZM18.6038 9.06062C18.5759 7.60433 17.9848 6.28144 17.0423 5.30317L18.0852 4.26375C19.2954 5.50883 20.0538 7.19857 20.0817 9.06062H18.6038ZM18.0852 3.94693C16.7913 2.69629 15.0457 1.91812 13.1105 1.89033V0.222823C15.503 0.250615 17.6725 1.21777 19.2675 2.76855L18.0852 3.94693ZM12.8874 1.89033C10.9577 1.91812 9.20657 2.69629 7.9127 3.94693L6.73596 2.76855C8.33098 1.21777 10.5004 0.250615 12.893 0.222823V1.89033H12.8874ZM7.75655 4.10256C6.50172 5.3921 5.72094 7.13187 5.69306 9.06062H4.01996C4.04784 6.67608 5.01824 4.51388 6.57422 2.92419L7.75655 4.10256ZM5.69863 9.28295C5.72652 11.2061 6.5073 12.9515 7.76213 14.241L6.57422 15.4138C5.01824 13.8297 4.05342 11.6675 4.02553 9.28295H5.69863ZM7.91828 14.3966C9.21215 15.6473 10.9577 16.4254 12.893 16.4532V18.1207C10.5004 18.093 8.33098 17.1258 6.73596 15.575L7.91828 14.3966ZM13.1105 16.4532C15.0401 16.4254 16.7913 15.6473 18.0852 14.3966L19.2675 15.575C17.6725 17.1258 15.503 18.093 13.1105 18.1207V16.4532ZM18.2413 14.2355C19.4961 12.9459 20.2769 11.2061 20.3048 9.27739H21.9779C21.95 11.6619 20.9796 13.8241 19.4236 15.4138L18.2413 14.2355ZM20.3048 9.06062C20.2769 7.13742 19.4961 5.3921 18.2413 4.10256L19.4236 2.92419C20.9796 4.51388 21.95 6.67608 21.9779 9.06062H20.3048Z" fill="#3F6587"/>
<path d="M13.5284 7.04883L13.4727 7.05439V7.12109L13.5284 7.11553V7.04883Z" fill="#3F6587"/>
<path d="M13.4612 6.95996H13.3887V7.01554H13.4612V6.95996Z" fill="#3F6587"/>
<path d="M13.2539 6.94279L13.3208 6.95391L13.3264 6.89832L13.2595 6.88721L13.2539 6.94279Z" fill="#3F6587"/>
<path d="M13.1981 6.92101L13.1367 6.91545L13.1423 6.85986L13.2092 6.86542L13.1981 6.92101Z" fill="#3F6587"/>
<path d="M12.7366 6.84863H12.6641V6.90422H12.7366V6.84863Z" fill="#3F6587"/>
<path d="M12.502 6.95988L12.5689 6.971L12.5745 6.91541L12.5131 6.9043L12.502 6.95988Z" fill="#3F6587"/>
<path d="M12.5136 7.04852L12.4355 7.02629L12.4523 6.9707L12.5248 6.99294L12.5136 7.04852Z" fill="#3F6587"/>
<path d="M12.3803 7.11553L12.3691 7.05994L12.4249 7.04883L12.4361 7.10441L12.3803 7.11553Z" fill="#3F6587"/>
<path d="M5.1018 12.8684V12.9907H5.15757L5.14641 12.8517L5.07391 12.824V12.7739H5.0293V12.8684H5.1018Z" fill="#3F6587"/>
<path d="M5.49219 13.2075L5.63161 13.2742L5.67623 13.4021L5.74315 13.4521L5.8045 13.591L5.77104 13.6577L5.66508 13.5633L5.59257 13.4576L5.55353 13.3743L5.49219 13.2075Z" fill="#3F6587"/>
<path d="M7.83413 16.0923L7.88432 16.2146L7.8174 16.2535L7.77836 16.1979L7.68912 16.1701L7.67797 16.0868L7.60547 15.9756L7.71701 15.9923L7.83413 16.0923Z" fill="#3F6587"/>
<path d="M12.7139 7.65444H12.6135L12.5968 7.44878L12.6526 7.40987V7.30426H12.3291L12.3179 7.19865L12.3625 7.17086L12.29 7.14307L12.2343 7.21533L12.2175 7.2987L12.1227 7.31538V7.35984H12.0558V7.48213L11.7937 7.6989L11.275 7.68223C11.236 7.7656 11.1468 7.67111 11.1468 7.67111C11.13 7.61553 10.9962 7.67111 10.9962 7.67111C10.9962 7.77672 10.8177 7.62664 10.8177 7.62664L10.4942 7.39319C10.3102 7.22644 10.0314 7.43766 10.0202 7.48768C10.0314 7.62109 9.80828 7.51548 9.80828 7.51548C9.80828 7.51548 9.62424 7.45989 9.59635 7.53215C9.56847 7.60441 9.44577 7.58774 9.44577 7.58774L9.42904 7.62664L9.33423 7.64332L9.3175 7.6989L9.20596 7.71558L9.48481 7.70446C9.55731 7.69334 9.45693 7.86565 9.41231 7.85454L9.28404 7.86565L9.23942 7.91012H9.11673L9.06096 7.98794L8.88249 7.97682C8.88249 7.97682 8.78211 8.0602 8.78769 8.08799C8.79884 8.11578 8.77095 8.19916 8.74307 8.19916C8.71518 8.19916 8.65941 8.28253 8.67615 8.31032C8.69288 8.33811 8.62038 8.43261 8.62038 8.43261L8.60364 8.5271L8.54787 8.54377V8.79946L8.43633 8.87728V8.98844L8.26902 9.16631L8.28576 9.31639L8.14633 9.46646L8.16306 9.61654L8.07941 9.64433L8.06267 9.71103L8.02364 9.90557L8.11844 9.91669C8.16306 9.90002 8.15748 10.039 8.11844 10.0556C8.07941 10.0723 7.97902 10.1112 8.03479 10.1501C8.09056 10.1891 7.88421 10.1779 7.88421 10.1224C7.88421 10.0668 7.77267 10.0167 7.74479 10.039C7.7169 10.0556 7.67228 9.9556 7.67228 9.9556C7.5719 9.84999 7.25401 9.96672 7.25401 9.96672L7.20939 10.1168C7.10901 10.1335 7.04208 10.3058 7.04208 10.3058C6.95843 10.3336 6.8915 10.4392 6.91939 10.467C6.94727 10.4948 6.87477 10.5059 6.87477 10.5059V10.7115L6.83016 10.7782L6.84131 11.0006C6.89708 11.0006 6.88593 11.1062 6.88593 11.1062C6.79112 11.1173 6.81343 11.2396 6.81343 11.2396L6.61823 11.3063L6.57919 11.3619L6.33938 11.3507L6.27246 11.4174L6.20553 11.3507H5.74264L5.72591 11.3063L5.6311 11.2896L5.61995 11.184L5.48052 11.1951L5.45264 11.2507L5.30206 11.2618C5.31321 11.3563 5.15148 11.4953 5.13475 11.4564C5.11802 11.4174 5.01205 11.3174 5.06225 11.2952C5.10686 11.2785 5.22956 11.2563 5.22956 11.2563V11.1896L4.88378 11.1784L4.84474 11.234L4.70532 11.2451V11.3952L4.63839 11.4119C4.59378 11.4397 4.64955 11.5453 4.64955 11.5453C4.71647 11.612 4.63839 11.712 4.63839 11.712C4.58262 11.7676 4.68301 11.8732 4.68301 11.8732C4.75551 11.8899 4.63839 11.9455 4.63839 11.9455C4.65512 12.04 4.71089 12.0678 4.71089 12.0678C4.65512 12.1623 4.74993 12.2067 4.74993 12.2067L4.76109 12.3679L4.82801 12.4068V12.5124L4.86705 12.5791H5.01763L5.00648 12.3457C4.87821 12.1956 5.11802 12.1567 5.12917 12.2123C5.14032 12.2679 5.24071 12.2957 5.24071 12.2957C5.25744 12.4346 5.41917 12.518 5.46379 12.379C5.50841 12.2401 5.54745 12.3235 5.57533 12.3902C5.60322 12.4569 5.78168 12.6181 5.78168 12.6181H5.92111L5.93784 12.7515C6.09399 12.7403 6.14419 12.7626 6.20553 12.9738C6.27246 13.1906 6.44534 13.2462 6.44534 13.2462L6.57361 13.235C6.57361 13.1239 6.70189 13.2517 6.70189 13.3129C6.70189 13.3684 6.95285 13.5852 6.95285 13.5852L7.20382 13.6408L7.43805 13.8298L7.61651 13.8131H7.68902C7.73363 13.6519 7.95671 13.8242 7.97902 13.8798C7.99575 13.9354 8.14633 14.0299 8.16306 13.9854C8.17979 13.9409 8.28576 13.9687 8.30249 14.1077C8.31922 14.2467 8.38614 14.2189 8.38614 14.2189L8.91596 14.2077L9.1 14.0466L9.57404 14.0354C9.81385 14.0243 9.66885 13.6964 9.61866 13.6964C9.535 13.6297 9.64654 13.3573 9.64654 13.3573L8.97173 12.7292C8.81557 12.7292 8.955 12.5013 8.955 12.5013C9.07769 12.4235 8.92711 12.3068 8.92711 12.3068C8.94384 12.1956 8.86019 12.0622 8.86019 12.0622C8.69288 11.9511 8.73749 11.7343 8.73749 11.7343V11.5842C8.59807 11.4508 8.79326 11.4341 8.79326 11.4341C8.86019 11.323 8.74865 11.2396 8.74865 11.2396L8.73749 11.1173L8.58691 11.1006L8.57018 10.6615L8.23556 10.1835C8.16864 10.1668 8.21883 10.0501 8.21883 10.0501C8.30249 10.0056 8.2021 9.8889 8.2021 9.8889L8.19095 9.68324L8.38614 9.66656L8.43076 9.59431H8.52557L8.51441 9.34974C8.55903 9.22745 8.67057 9.29415 8.67057 9.29415L8.79884 9.30527L8.87134 9.16631L8.88807 9.05514L8.78769 9.04403C8.67615 8.97733 8.73192 8.73276 8.73192 8.73276C8.91038 8.47152 9.11115 8.62159 9.11115 8.62159L9.23942 8.61048C9.43462 8.74388 9.25615 8.98289 9.25615 8.98289C9.21712 9.03847 9.23942 9.21634 9.23942 9.21634L9.28404 9.51649L9.16134 9.6221C9.06096 9.67768 9.06096 9.81108 9.1725 9.83887C9.245 9.84999 9.21711 10.0279 9.10557 9.90557C8.93826 9.90557 9.20038 10.0556 9.12231 10.0167C9.28962 10.1001 9.25058 9.94448 9.25058 9.94448L9.47366 9.76661C9.55731 9.69991 9.70789 9.90557 9.70789 9.93337C9.70789 9.96116 10.076 9.94448 10.076 9.94448C10.1764 10.0112 10.2154 10.1779 10.2154 10.1779C10.3158 10.0445 10.5333 10.1668 10.3716 10.2446C10.5221 10.3391 10.5221 10.4225 10.5221 10.4225C10.6448 10.3836 10.6448 10.4781 10.6448 10.5059C10.6448 10.5337 10.6839 10.3669 10.6839 10.3669C10.5444 10.2613 10.8679 10.228 10.7787 10.4114L10.7229 10.4948L10.8177 10.567L10.8289 10.7838C11.0352 10.7671 10.9794 10.5114 10.9794 10.5114L11.0743 10.4948C11.0743 10.4114 11.1412 10.4559 11.1412 10.4559C11.0743 10.139 11.2918 10.0834 11.2918 10.0834C11.4145 10.0556 11.42 9.79996 11.42 9.79996C11.3364 9.76106 11.381 9.63321 11.4758 9.74438C11.5706 9.85555 11.42 9.51649 11.42 9.51649L11.3475 9.44979L11.2471 9.43867L11.236 9.33306H11.0687L11.0408 9.46646L10.9794 9.49425L10.9627 9.45535L10.9348 9.56095H10.7675L10.7564 9.44979L10.8568 9.422L10.8958 9.36641L10.9237 9.21634H11.0464L11.2025 9.17187C11.2137 9.01068 11.2973 9.04959 11.2973 9.04959L11.3531 9.09405L11.4368 9.16075L11.4479 9.21634L11.3921 9.24413L11.381 9.32195L11.4089 9.42755H11.4814C11.5093 9.27748 11.7045 9.27748 11.7602 9.37197L11.816 9.23857C11.6877 9.17187 11.816 9.07182 11.8495 9.11629C11.8885 9.16075 11.9722 8.994 11.9722 8.994C11.9722 8.994 12.0391 9.07738 11.9722 8.96621C11.9052 8.85504 12.0168 8.79946 12.0168 8.79946C12 8.68829 12.1395 8.70497 12.1395 8.70497L12.1506 8.55489L12.0223 8.54377C11.9945 8.67717 11.8829 8.56045 11.9387 8.53266C11.9945 8.50487 12.0502 8.44928 12.0502 8.44928V8.35479L12.106 8.33811L12.1172 8.24362H12.2566L12.3793 8.18804L12.4072 8.14357L12.5354 8.13246L12.7195 7.9657L12.7027 7.89345C12.5912 7.89345 12.7027 7.81007 12.7027 7.81007L12.7139 7.65444Z" fill="#3F6587"/>
<path d="M8.97809 9.51179L8.81078 9.49512L8.82194 9.56182H8.86655C8.93905 9.69522 8.87771 10.012 8.87771 10.012C8.87771 10.012 8.76617 10.0232 8.74944 9.96758C8.73271 9.912 8.68251 10.0899 8.72155 10.1177C8.76059 10.1454 8.88886 10.1177 8.90002 10.2233C8.91117 10.3289 8.98367 10.1566 8.98367 10.1566L8.97809 9.51179Z" fill="#3F6587"/>
<path d="M8.81055 10.2728V10.4951L8.95555 10.6952L9.01132 10.5618L9.03363 10.4785L8.9667 10.4507L8.97786 10.3117L9.03363 10.3006L9.03921 10.2339L8.89978 10.3284L8.81055 10.2728Z" fill="#3F6587"/>
<path d="M9.04906 10.9011V10.8066L8.98214 10.8178L8.97656 10.89L9.04906 10.9011Z" fill="#3F6587"/>
<path d="M8.96675 11.3509V11.2842L8.88867 11.2953V11.362L8.96675 11.3509Z" fill="#3F6587"/>
<path d="M9.0781 11.0617C9.10041 11.0617 9.11714 11.045 9.11714 11.0228C9.11714 11.0006 9.10041 10.9839 9.0781 10.9839C9.05579 10.9839 9.03906 11.0006 9.03906 11.0228C9.03906 11.045 9.05579 11.0617 9.0781 11.0617Z" fill="#3F6587"/>
<path d="M9.13865 11.2565C9.16021 11.2565 9.17769 11.2391 9.17769 11.2176C9.17769 11.1961 9.16021 11.1787 9.13865 11.1787C9.11709 11.1787 9.09961 11.1961 9.09961 11.2176C9.09961 11.2391 9.11709 11.2565 9.13865 11.2565Z" fill="#3F6587"/>
<path d="M9.14451 10.1838C9.16607 10.1838 9.18355 10.1664 9.18355 10.1449C9.18355 10.1234 9.16607 10.106 9.14451 10.106C9.12295 10.106 9.10547 10.1234 9.10547 10.1449C9.10547 10.1664 9.12295 10.1838 9.14451 10.1838Z" fill="#3F6587"/>
<path d="M12.1174 8.87228H12.1732L12.1843 8.93343L12.1453 8.96678L12.1286 9.0168L12.0561 9.03348L11.8887 9.19467L11.8776 9.26693L11.833 9.33363L11.7772 9.47259L11.582 9.4837L11.543 9.65045L11.5709 9.79497L11.7382 9.86167L11.7549 9.76718L11.8107 9.73939L11.8218 9.6449L11.8609 9.57819L11.9166 9.51149L11.9334 9.43924L12.0282 9.38365L12.1397 9.36142L12.1843 9.30584L12.2011 9.19467L12.2122 9.11129L12.2512 9.05015L12.3628 9.00568V8.82782H12.307L12.2959 8.76112L12.1955 8.75L12.1732 8.80002H12.1286L12.1174 8.87228Z" fill="#3F6587"/>
<path d="M12.5522 9.40051V9.26711L12.5355 9.14483L12.3961 9.07812L12.2957 9.17262L12.279 9.30602V9.38939L12.1842 9.40607L12.1674 9.66175L12.0949 9.68954L12.1061 9.78404L12.0057 9.81183L11.9053 9.83962L11.8886 9.9619L11.8161 10.0064L11.777 10.1175L11.7324 10.3899C11.7324 10.3899 11.8161 10.5511 11.8607 10.4733C11.9053 10.401 11.9834 10.3899 11.9834 10.3899L12.0113 10.3232L12.2622 10.3343C12.279 10.2287 12.4017 10.2676 12.4017 10.3176C12.4017 10.3621 12.4965 10.3288 12.4965 10.3288L12.5634 10.2231H12.6638L12.6749 10.112L12.7196 10.0842V9.91744C12.8701 9.87297 12.8478 9.72845 12.8478 9.72845L12.8869 9.68399L12.8701 9.61729C12.7976 9.58949 12.8311 9.52279 12.8813 9.53947C12.9259 9.55614 12.8144 9.45609 12.8144 9.45609C12.7586 9.50056 12.714 9.40051 12.714 9.40051H12.5522Z" fill="#3F6587"/>
<path d="M12.7027 10.534C12.6916 10.6452 12.5521 10.6841 12.5521 10.6841L12.4517 10.6563L12.396 10.6118L12.3848 10.4784L12.4685 10.4673L12.4852 10.5229L12.7027 10.534Z" fill="#3F6587"/>
<path d="M13.2059 9.93342C13.2282 10.0168 13.2226 9.80002 13.2616 9.81113C13.3007 9.82225 13.2728 9.67773 13.2728 9.67773L13.1055 9.80002C13.1835 9.81114 13.1947 9.89451 13.2059 9.93342Z" fill="#3F6587"/>
<path d="M13.695 9.44444C13.734 9.52782 13.7229 9.6501 13.8623 9.74459C13.9069 9.77794 13.8344 9.83909 13.7898 9.81129C13.7452 9.7835 13.6113 9.57784 13.6113 9.57784V9.45556C13.6392 9.3833 13.6783 9.41109 13.695 9.44444Z" fill="#3F6587"/>
<path d="M13.6953 12.2959L13.7232 12.3237L13.7511 12.3737L13.8124 12.2681L13.7622 12.2515L13.6953 12.2959Z" fill="#3F6587"/>
<path d="M14.8049 12.0125L14.8774 11.9624L14.8496 11.918L14.7715 11.9624L14.8049 12.0125Z" fill="#3F6587"/>
<path d="M17.4878 13.9688L17.5714 14.0077L17.5826 14.1689C17.6941 14.2801 18.0566 14.1856 18.0566 14.1578C18.0566 14.13 18.0399 13.8132 18.0399 13.8132L17.9953 13.7687L17.9841 13.5353C18.0232 13.413 17.8057 13.2351 17.7889 13.274C17.7722 13.3129 17.6495 13.2851 17.6495 13.3185C17.6495 13.3574 17.577 13.5408 17.6105 13.6075C17.6495 13.6742 17.5826 13.6742 17.5714 13.7409C17.5603 13.7965 17.4655 13.9077 17.4878 13.9688Z" fill="#3F6587"/>
<path d="M17.2814 13.5911C17.2646 13.6633 17.1977 13.7022 17.1587 13.6745C17.1196 13.6467 17.2033 13.7189 17.2256 13.7578C17.2423 13.7967 17.2981 13.7967 17.3204 13.7578C17.3371 13.7189 17.3316 13.6355 17.3483 13.5966C17.365 13.5633 17.2925 13.5522 17.2814 13.5911Z" fill="#3F6587"/>
<path d="M16.9185 11.8735H16.8516V12.0514H16.9185V11.8735Z" fill="#3F6587"/>
<path d="M17.8112 10.0667C17.7722 10.0111 17.9952 9.91659 18.0343 10.0278C18.0733 10.1389 18.0343 10.1222 17.9952 10.1111C17.9618 10.1 17.867 10.1389 17.8112 10.0667Z" fill="#3F6587"/>
<path d="M18.0131 8.81104L18.002 8.86662L18.1023 8.88329L18.1135 8.82771L18.0131 8.81104Z" fill="#3F6587"/>
<path d="M17.7498 8.97205L17.7554 8.98872L17.8112 8.96649L17.7889 8.92202L17.7777 8.88867L17.7498 8.90535L17.6829 8.94425L17.6215 8.90535L17.5937 8.95537L17.6662 8.99984L17.6829 9.01095L17.694 8.99984L17.7498 8.97205Z" fill="#3F6587"/>
<path d="M18.1014 6.68776H17.962C17.962 6.68776 18.0066 6.70444 17.8784 6.58215C17.7501 6.45987 17.6664 6.60995 17.6664 6.60995L17.5159 6.62662V6.7767L17.4434 6.80449L17.4545 6.89898L17.5549 6.88786C17.5549 6.88786 17.5549 6.99903 17.5828 6.95456C17.6107 6.9101 17.8449 6.96568 17.8226 7.07685C17.817 7.12131 18.0568 7.2436 18.0289 7.39367C18.1516 7.41035 18.1238 7.53263 18.1238 7.53263L18.2799 7.54931L18.3245 7.45482L18.3691 7.46593V7.41035L18.2688 7.38256L18.252 7.08241L18.1851 7.03794L18.2018 6.96012L18.1293 6.93233L18.1684 6.81005L18.1014 6.68776Z" fill="#3F6587"/>
<path d="M18.5079 7.64393L18.4354 7.63281L18.2681 7.6606L18.1732 7.83847C18.1732 7.83847 18.2179 7.86626 18.2569 7.93296C18.2959 7.99966 18.3127 8.38319 18.2011 8.44989C18.0896 8.51659 18.2123 8.47768 18.2123 8.47768L18.1956 8.68334C18.2234 8.77783 18.2681 8.72781 18.2959 8.68334C18.3238 8.63887 18.3517 8.62776 18.3908 8.57773C18.4298 8.53327 18.4856 8.44433 18.4911 8.38319C18.5023 8.31649 18.5469 8.21644 18.519 8.18865C18.4911 8.16086 18.5469 8.02746 18.5469 8.02746C18.5469 8.02746 18.5859 7.94964 18.5469 7.87738C18.5079 7.79956 18.5581 7.71619 18.5859 7.68284L18.5079 7.64393Z" fill="#3F6587"/>
<path d="M18.6191 8.02734L18.6247 7.95508L18.6805 7.96064L18.6749 8.03845L18.6191 8.02734Z" fill="#3F6587"/>
<path d="M18.6146 8.28845L18.5645 8.26066L18.5923 8.20508L18.6425 8.23287L18.6146 8.28845Z" fill="#3F6587"/>
<path d="M18.5354 7.54356L18.4963 7.46018C18.4963 7.46018 18.4963 7.38792 18.5131 7.34901C18.5298 7.31011 18.474 7.27676 18.4462 7.26564C18.4183 7.25452 18.4294 7.18226 18.4183 7.14336C18.4071 7.10445 18.3458 7.07666 18.3458 7.07666C18.3458 7.07666 18.329 6.9377 18.329 6.9099C18.329 6.88211 18.2454 6.8432 18.2733 6.81541C18.3012 6.78762 18.3179 6.74871 18.3458 6.73204C18.3737 6.71536 18.3179 6.58196 18.3625 6.60975C18.4071 6.63754 18.4071 6.68757 18.4294 6.72092C18.4462 6.75983 18.4183 6.88767 18.4685 6.91546C18.5131 6.94325 18.4573 7.03775 18.5354 7.03775C18.6079 7.03775 18.5633 7.21561 18.5633 7.21561C18.5633 7.21561 18.5465 7.34902 18.5912 7.35457C18.6358 7.36569 18.6079 7.58802 18.6079 7.58802L18.5354 7.54356Z" fill="#3F6587"/>
<path d="M17.9336 6.02607C17.9615 6.06497 18.0172 6.09277 18.0172 6.13168C18.0172 6.17058 18.0005 6.19838 18.0563 6.20393C18.1121 6.21505 18.1511 6.19282 18.1678 6.24284C18.1846 6.28731 18.1846 6.36513 18.179 6.40404C18.1678 6.44294 18.1901 6.49853 18.2348 6.49853C18.2794 6.49853 18.2905 6.50964 18.2905 6.53744C18.2905 6.56523 18.3463 6.43183 18.3463 6.43183C18.3017 6.39292 18.2626 6.30954 18.2626 6.30954C18.2626 6.30954 18.218 6.17614 18.218 6.15947C18.218 6.14279 18.1511 6.12056 18.1232 6.115C18.0953 6.10388 18.0507 6.02051 18.0507 6.02051L17.9336 6.02607Z" fill="#3F6587"/>
<path d="M18.023 5.93723C17.9951 5.89832 17.9673 5.87053 17.9282 5.85385C17.8892 5.83718 17.8613 5.81494 17.8278 5.81494C17.7888 5.81494 17.7553 5.77604 17.7721 5.73157C17.7888 5.6871 17.7442 5.66487 17.7442 5.62596C17.7442 5.58705 17.7721 5.58705 17.8167 5.61484C17.8613 5.64264 17.8557 5.65375 17.8892 5.69822C17.9282 5.74269 17.9449 5.79271 17.984 5.78159C18.023 5.77048 18.0509 5.86497 18.0844 5.83718C18.1234 5.80939 18.1123 5.90388 18.1123 5.90388L18.023 5.93723Z" fill="#3F6587"/>
<path d="M16.941 6.99876C16.9912 7.04879 16.6621 7.03767 16.6621 6.99876C16.6621 6.95985 16.69 6.83201 16.7736 6.8598C16.8573 6.88759 16.8685 6.69305 16.8685 6.69305C16.8685 6.69305 16.796 6.70417 16.8573 6.66526C16.9242 6.62635 16.8573 6.57077 16.8294 6.54297C16.8015 6.51518 16.7736 6.46516 16.7736 6.46516H16.9019C16.9577 6.42625 16.9744 6.24838 16.9744 6.24838C17.086 6.28729 17.1417 6.20947 17.1417 6.20947C17.1417 6.20947 17.1585 6.26506 17.1975 6.31508C17.2365 6.35955 17.1027 6.38178 17.1529 6.40957C17.1975 6.43737 17.2198 6.52074 17.1975 6.54853C17.1808 6.57632 17.0748 6.55965 17.0748 6.52074C17.0748 6.48183 17.0358 6.56521 17.0748 6.61523C17.1138 6.6597 17.0302 6.7264 17.0079 6.7264C16.9912 6.7264 16.8685 6.74308 16.9688 6.80422C17.0692 6.8598 17.1808 6.83201 17.1808 6.83201C17.1808 6.83201 17.2644 6.82089 17.2923 6.87092C17.3202 6.91538 17.2812 6.9265 17.2365 6.9265C17.1919 6.9265 16.9688 6.90983 16.9688 6.90983C16.9688 6.90983 16.9131 6.97097 16.941 6.99876Z" fill="#3F6587"/>
<path d="M16.3439 7.08186C16.3885 7.07075 16.5 7.06519 16.5223 7.09298C16.5391 7.12077 16.4554 7.15968 16.4554 7.15968L16.3439 7.17636C16.3104 7.13189 16.2993 7.09298 16.3439 7.08186Z" fill="#3F6587"/>
<path d="M17.543 6.29859C17.6155 6.25968 17.7772 6.25968 17.766 6.2041C17.7549 6.14851 17.8609 6.13184 17.8609 6.13184L17.8887 6.243L17.9724 6.29859L17.9836 6.4042C17.9836 6.4042 18.0114 6.38752 17.9111 6.41531C17.8107 6.4431 17.872 6.48757 17.872 6.48757L17.6489 6.49869L17.621 6.4042L17.543 6.29859Z" fill="#3F6587"/>
<path d="M17.1813 5.78716C17.2371 5.78716 17.1646 6.00393 17.3096 5.9817C17.4601 5.96502 17.3207 6.0484 17.4323 6.05396C17.5438 6.06507 17.5159 5.97058 17.5549 5.90388C17.594 5.83718 17.5717 5.79827 17.5103 5.7816C17.4434 5.76492 17.4434 5.76492 17.4267 5.68711C17.4099 5.61485 17.3319 5.59261 17.3319 5.59261L17.304 5.48145L17.1813 5.5537L17.0586 5.7149C17.0586 5.8483 17.1255 5.78716 17.1813 5.78716Z" fill="#3F6587"/>
<path d="M17.4258 6.58195L17.4537 6.52637L17.5039 6.5486L17.476 6.60974L17.4258 6.58195Z" fill="#3F6587"/>
<path d="M17.3878 6.49316H17.332V6.55986H17.3878V6.49316Z" fill="#3F6587"/>
<path d="M17.3761 5.24268L17.3872 5.32605L17.3315 5.33161L17.3203 5.24823L17.3761 5.24268Z" fill="#3F6587"/>
<path d="M17.2765 6.11523H17.2207V6.1597H17.2765V6.11523Z" fill="#3F6587"/>
<path d="M17.07 6.11485L17.0645 6.05927L17.1593 6.05371L17.1648 6.10929L17.07 6.11485Z" fill="#3F6587"/>
<path d="M16.3061 7.02106L16.2559 6.99883L16.2837 6.93213L16.3339 6.95436L16.3061 7.02106Z" fill="#3F6587"/>
<path d="M16.0154 6.84844L16.0099 6.79286L16.1047 6.78174L16.1102 6.83732L16.0154 6.84844Z" fill="#3F6587"/>
<path d="M14.4095 6.83203L14.2031 6.83759L14.2087 6.89317L14.4095 6.88761V6.83203Z" fill="#3F6587"/>
<path d="M14.0692 6.90992L14.0469 6.82655L14.1026 6.81543L14.1194 6.8988L14.0692 6.90992Z" fill="#3F6587"/>
<path d="M14.0304 6.9713L14.0137 6.91571L14.0416 6.91016L14.0583 6.96018L14.0304 6.9713Z" fill="#3F6587"/>
<path d="M14.4936 6.80976L14.4824 6.87646L14.5828 6.88757C14.5828 6.88757 14.6274 6.92648 14.6274 6.95427C14.6274 6.98206 14.6944 7.00986 14.7278 7.00986C14.7669 7.00986 14.8672 6.93204 14.8672 6.93204C14.8672 6.93204 14.9119 6.79864 14.8784 6.80976C14.8394 6.82087 14.7669 6.87646 14.7557 6.82087C14.7445 6.76529 14.633 6.79308 14.633 6.79308L14.4936 6.80976Z" fill="#3F6587"/>
<path d="M14.9555 6.70947C14.9555 6.73726 14.9387 6.77617 14.9945 6.78729C15.0503 6.7984 15.1507 6.74838 15.1618 6.80396C15.173 6.85954 15.173 6.89845 15.2455 6.92625C15.318 6.95404 15.3682 6.96515 15.4239 6.96515C15.4797 6.96515 15.6024 6.94848 15.6024 6.94848C15.6024 6.94848 15.7363 6.97071 15.7586 6.99295C15.859 7.09855 15.9259 7.12635 15.9538 7.07632C15.9816 7.03185 15.9426 6.92624 15.937 6.88734C15.9259 6.84843 15.7976 6.67056 15.753 6.70947C15.7084 6.74838 15.6972 6.70947 15.6136 6.73726C15.5299 6.76505 15.3514 6.74838 15.3459 6.70947C15.3347 6.67056 15.2064 6.65388 15.2064 6.61498C15.2064 6.57607 15.1116 6.5316 15.1228 6.58718C15.1339 6.64277 15.0559 6.67056 15.0391 6.65389C15.0112 6.63165 14.9555 6.70947 14.9555 6.70947Z" fill="#3F6587"/>
<path d="M17.0863 5.50888L17.1532 5.30322C17.0584 5.28654 17.0807 5.18093 17.0807 5.18093C17.0695 5.09756 16.9413 5.00307 16.8966 5.03086C16.852 5.05865 16.8688 4.83631 16.8688 4.83631C16.8688 4.83631 16.9524 4.78073 16.9915 4.80852C17.0305 4.83631 16.6736 4.34162 16.6011 4.38609C16.5286 4.43055 16.3613 4.34162 16.3668 4.25269C16.378 4.16931 16.0322 3.88583 16.0322 3.88583C16.0322 3.88583 15.9207 3.81358 15.9039 3.86916C15.8872 3.92474 15.8482 3.96365 15.9039 3.99144C15.9597 4.01924 15.9486 3.94698 16.0155 4.00812C16.0824 4.07482 16.1995 4.15819 16.1549 4.21378C16.1103 4.26936 16.0545 4.2916 16.0545 4.2916L16.1214 4.36941H16.2218L16.2386 4.5306C16.2386 4.5306 16.3501 4.58619 16.378 4.65289C16.4059 4.71959 16.4059 4.7585 16.378 4.79185C16.3501 4.83076 16.2943 4.89746 16.3055 4.9586C16.3166 5.0253 16.3891 5.05309 16.3891 5.05309L16.4616 5.06421L16.5174 5.092V5.21428C16.5899 5.19761 16.7126 5.29766 16.7015 5.36436C16.6903 5.43106 16.7182 5.39215 16.813 5.45885C16.9078 5.52555 16.8799 5.53667 16.9413 5.58114C17.0026 5.62004 17.0584 5.59225 17.0863 5.50888Z" fill="#3F6587"/>
<path d="M15.5579 4.2306C15.5467 4.19169 15.53 4.06385 15.5857 4.06941C15.6415 4.08053 15.6025 4.06941 15.6694 4.0972C15.7363 4.12499 15.7419 4.05273 15.7419 4.05273H15.8423L15.9706 4.15834L15.9538 4.24172L15.859 4.25283C15.8144 4.18058 15.7196 4.20837 15.7363 4.26951C15.753 4.33621 15.6917 4.45849 15.6527 4.46405C15.6136 4.47517 15.4965 4.47517 15.5021 4.41959C15.5188 4.364 15.5579 4.2306 15.5579 4.2306Z" fill="#3F6587"/>
<path d="M15.4859 3.98033V3.90807C15.4859 3.90807 15.4748 3.83581 15.4302 3.83581C15.3855 3.83581 15.3019 3.78023 15.3186 3.74132C15.3354 3.70241 15.1625 3.6635 15.1625 3.6635C15.1625 3.6635 15.0063 3.51343 15.0621 3.5301C15.1178 3.54678 15.09 3.4634 15.09 3.4634C15.09 3.4634 14.9784 3.48008 14.9505 3.47452C14.9227 3.4634 14.9338 3.38003 14.9338 3.38003C14.9338 3.38003 14.8223 3.35224 14.8223 3.38003C14.8223 3.40782 14.8613 3.40782 14.878 3.4634C14.8948 3.51899 14.8892 3.61348 14.9728 3.63015C15.0565 3.64683 15.0732 3.66906 15.0844 3.70797C15.0955 3.74688 15.1959 3.75244 15.1959 3.75244L15.2684 3.79135L15.4859 3.98033Z" fill="#3F6587"/>
<path d="M14.4812 3.02467L14.4534 2.94685L14.3809 2.93018V3.01355L14.4812 3.02467Z" fill="#3F6587"/>
<path d="M14.4532 2.62993C14.3583 2.55767 14.5814 2.68551 14.5814 2.68551C14.6539 2.68551 14.7041 2.7411 14.7041 2.76889C14.7041 2.79668 14.8045 2.78556 14.8045 2.78556L14.8157 2.71886L14.7432 2.62437L14.6762 2.5799C14.6762 2.5799 14.5759 2.56879 14.5759 2.541C14.5759 2.51876 14.4922 2.65772 14.4532 2.62993Z" fill="#3F6587"/>
<path d="M16.1615 2.68535C16.1336 2.76872 16.1224 2.87989 16.0778 2.87989C16.0332 2.87989 16.0499 3.00217 16.0499 3.00217C16.0499 3.00217 16.1726 3.00217 16.2061 3.01329C16.2451 3.02441 16.2451 3.1189 16.2451 3.1189C16.3846 3.10778 16.4403 3.29677 16.4236 3.34679C16.4069 3.39126 16.4794 3.39126 16.4794 3.39126C16.4794 3.39126 16.4794 3.54133 16.4626 3.58024C16.4459 3.61915 16.5853 3.64694 16.6188 3.70253C16.6578 3.75811 16.6021 3.94709 16.5742 3.95821C16.5463 3.96933 16.6467 3.99712 16.6411 4.04159C16.63 4.08605 16.669 4.04159 16.6802 4.1194C16.6913 4.19166 16.708 4.35285 16.708 4.35285L16.8363 4.36397C16.853 4.24169 17.0928 4.23613 17.1319 4.2528C17.288 4.30839 17.4107 4.55295 17.4107 4.60854C17.4107 4.66412 17.3104 4.67524 17.3104 4.67524L17.3271 4.9476C17.4832 4.99207 17.6171 5.21996 17.5948 5.25887C17.578 5.29778 17.7063 5.28666 17.7063 5.28666C17.723 5.11991 17.8848 5.17549 17.8904 5.23108C17.9015 5.28666 17.9294 5.40894 17.9294 5.40894L17.974 5.49232L18.0409 5.55902L18.1413 5.5479L18.1692 5.60349L18.2919 5.62016C18.2919 5.62016 18.3923 5.73133 18.4034 5.75912C18.4146 5.78691 18.554 5.77579 18.5875 5.78691C18.6265 5.79803 18.6823 5.82582 18.6879 5.87029C18.699 5.91475 18.7548 5.99257 18.7548 5.99257C18.7548 5.99257 18.8663 6.02036 18.8775 6.05927C18.8886 6.09818 18.9333 6.18155 18.9333 6.18155L19.0281 6.25937L19.0392 6.34275L19.1396 6.35386L19.1675 6.46503L19.3348 6.45391L19.4296 6.38721C19.5523 6.32051 19.636 6.23714 19.6415 6.19823C19.6527 6.15932 19.6694 6.02036 19.7642 6.04815C19.859 6.07595 19.7921 5.84249 19.7921 5.84249C19.7921 5.84249 19.6638 5.748 19.6694 5.70354C19.6806 5.65907 19.5412 5.56458 19.5467 5.52567C19.5579 5.48676 19.424 5.4145 19.4352 5.37559C19.4463 5.33668 19.3683 5.23663 19.3683 5.23663L19.2288 5.10323L19.2121 5.01986L19.1006 5.00874L18.8775 4.73638L18.8886 4.65856L18.8217 4.64745V4.54184L18.7548 4.50293L18.6544 4.49181L18.4481 4.26948L18.4313 4.16387H18.3309L18.3477 3.96933C18.4146 3.88595 18.3756 3.72476 18.3756 3.72476C18.3756 3.72476 18.2473 3.79146 18.1804 3.76367C18.1134 3.73588 18.2082 3.66918 18.2082 3.66918V3.59692L18.1525 3.54133C18.1525 3.54133 17.9963 3.55801 17.9852 3.53022C17.974 3.50242 17.9461 3.38014 17.9461 3.38014L17.935 3.21895L17.8681 3.19116L17.8569 3.13557L17.7565 3.14669V3.03552L17.7007 3.01885L17.645 2.99106L17.6338 2.87989L17.4275 2.86877L17.3605 2.77428L17.288 2.66311L17.0538 2.64644L16.998 2.59085L16.9032 2.57418L16.8363 2.54639L16.8084 2.59085L16.63 2.60197L16.6188 2.65755C16.5407 2.69646 16.1726 2.65755 16.1615 2.68535Z" fill="#3F6587"/>
<path d="M17.1358 2.4409C17.119 2.36864 17.3198 2.30194 17.37 2.35752C17.4146 2.41311 17.5485 2.42422 17.5652 2.70214C17.5708 2.80219 17.3979 2.59653 17.3979 2.59653L17.2584 2.55206C17.1804 2.53539 17.1413 2.49092 17.1358 2.4409Z" fill="#3F6587"/>
<path d="M14.4154 2.55746L14.3652 2.53522L14.4043 2.44629L14.4545 2.47408L14.4154 2.55746Z" fill="#3F6587"/>
<path d="M13.9348 1.63491L13.8121 1.51263V1.40702L13.7731 1.36811L13.734 1.23471L13.6113 1.1958L13.4886 1.24027L13.3604 1.32364L13.2209 1.34032L13.1484 1.42369L13.444 1.45149L13.4998 1.54598L13.7117 1.56265L13.8511 1.70161C13.9794 1.7572 14.0073 1.70161 13.9348 1.63491Z" fill="#3F6587"/>
<path d="M13.9195 1.17359C13.8972 1.09022 13.7801 1.2792 13.9028 1.31255C14.0255 1.35146 14.1426 1.31255 14.1426 1.31255L14.1705 1.25697L14.6334 1.26809C14.6724 1.22918 14.6892 1.17359 14.6892 1.17359C14.6892 1.17359 14.8007 1.13469 14.8453 1.15692C14.8899 1.17359 14.8565 1.02352 14.8063 1.04575C14.7617 1.06243 14.6669 1.05687 14.6669 1.05687H14.4995C14.4884 0.990168 14.3434 1.01796 14.3322 1.05687C14.3267 1.09022 14.2709 1.10134 14.2709 1.10134L14.059 1.11801C14.0367 1.17359 13.9307 1.2125 13.9195 1.17359Z" fill="#3F6587"/>
<path d="M12.9975 2.7576C13.1425 2.80206 13.1927 2.76871 13.2039 2.72981C13.215 2.6909 13.2206 2.68534 13.2764 2.67422C13.3321 2.6631 13.2652 2.55194 13.2094 2.56305C13.1537 2.57417 13.0979 2.54638 13.0867 2.49635C13.0756 2.45189 12.9864 2.3296 12.9752 2.42409C12.9641 2.51859 12.9083 2.51859 12.9194 2.58529C12.9362 2.64643 12.9641 2.74648 12.9975 2.7576Z" fill="#3F6587"/>
<path d="M11.9337 2.86338C11.9281 2.83003 12.1178 2.82448 12.1456 2.85227C12.1735 2.88006 12.1568 2.93008 12.2404 2.93008C12.3241 2.93008 12.2851 2.98567 12.2795 3.01346C12.2683 3.04125 12.1791 3.03014 12.1679 3.00234C12.1568 2.97455 12.0174 2.96343 12.0174 2.96343C12.0174 2.96343 11.9449 2.90785 11.9337 2.86338Z" fill="#3F6587"/>
<path d="M14.9891 0.9678L15.0114 0.990033L15.0281 0.973358L15.1229 0.895541L15.0839 0.851074L15.0114 0.912216L14.9668 0.862191L14.9277 0.906658L14.9891 0.9678Z" fill="#3F6587"/>
<path d="M14.5756 0.75119L14.5867 0.740073L14.6927 0.673373L14.6592 0.628906L14.5756 0.68449L14.5142 0.645581L14.4863 0.695607L14.5588 0.740073L14.5756 0.75119Z" fill="#3F6587"/>
<path d="M14.2421 2.66319L14.3035 2.75768L14.3481 2.72433L14.2868 2.62428L14.2756 2.61317H14.2644L14.1696 2.60205L14.1641 2.65763L14.2421 2.66319Z" fill="#3F6587"/>
<path d="M11.2072 5.22607L11.2184 5.33168H11.3578C11.4136 5.33168 11.3132 5.26498 11.3132 5.26498C11.3132 5.26498 11.2017 5.2761 11.2072 5.22607Z" fill="#3F6587"/>
<path d="M11.3867 5.23099L11.4202 5.18652L11.476 5.23099L11.4425 5.27546L11.3867 5.23099Z" fill="#3F6587"/>
<path d="M9.69727 3.47494L9.7363 3.43604L9.79207 3.49162L9.75304 3.53053L9.69727 3.47494Z" fill="#3F6587"/>
<path d="M12.3124 15.5976L12.3515 15.6365L12.3961 15.5921L12.424 15.5643L12.3905 15.542L12.2957 15.4976L12.2734 15.5476L12.3291 15.5754L12.3124 15.5976Z" fill="#3F6587"/>
<path d="M11.5826 14.9197L11.6495 14.9642L11.683 14.9197L11.6439 14.8919L11.6718 14.8697L11.6383 14.8252L11.5826 14.8752L11.5547 14.8975L11.5826 14.9197Z" fill="#3F6587"/>
<path d="M18.5697 13.0911C18.5585 13.0411 18.5028 13.0244 18.4972 13.0244L18.4805 13.08C18.486 13.08 18.4916 13.0856 18.4972 13.0911L18.5084 13.1411C18.5028 13.1467 18.4972 13.1523 18.4972 13.1578L18.5362 13.1967C18.5641 13.1523 18.5753 13.1245 18.5697 13.0911Z" fill="#3F6587"/>
<path d="M18.6537 12.9127L18.5645 12.9071L18.57 12.8237L18.6593 12.8348L18.6537 12.9127Z" fill="#3F6587"/>
<path d="M20.7996 12.1848C20.8386 12.1626 20.8888 12.1125 20.8832 12.2181C20.8777 12.3237 20.8331 12.2904 20.7996 12.3237C20.7661 12.3571 20.7438 12.2181 20.7996 12.1848Z" fill="#3F6587"/>
<path d="M21.274 11.7847V11.7735C21.274 11.7569 21.2684 11.7346 21.2572 11.7124L21.207 11.7402C21.2126 11.7513 21.2126 11.768 21.2182 11.7791C21.2182 11.7958 21.2238 11.8125 21.2349 11.8236C21.2461 11.8291 21.2572 11.8347 21.274 11.8291L21.2628 11.7735C21.2628 11.7791 21.2684 11.7791 21.274 11.7847Z" fill="#3F6587"/>
<path d="M21.1523 11.8287C21.1691 11.8843 21.1858 11.9399 21.1858 11.9454L21.236 11.9232C21.236 11.9232 21.2137 11.8676 21.2025 11.812L21.1523 11.8287Z" fill="#3F6587"/>
<path d="M20.9458 12.0515L20.89 12.0459C20.8844 12.0904 20.8956 12.1459 20.9402 12.1515L20.9513 12.0959C20.9513 12.0959 20.9458 12.0737 20.9458 12.0515Z" fill="#3F6587"/>
<path d="M20.7061 10.9341C20.7005 10.9175 20.6949 10.9008 20.6782 10.8952C20.6392 10.8785 20.5667 10.9063 20.5332 10.9286L20.5667 10.973C20.6001 10.9508 20.6503 10.9397 20.6559 10.9452C20.6559 10.9452 20.6559 10.9452 20.6559 10.9397L20.7061 10.9341Z" fill="#3F6587"/>
<path d="M18.1345 7.93797C18.0955 7.97688 18.0118 7.99356 18.0118 7.99356L17.9839 8.09917L17.9393 8.13808C17.9393 8.13808 17.9505 8.16587 17.9393 8.23257C17.9282 8.29927 17.8445 8.33818 17.8445 8.33818L17.8055 8.38264C17.8055 8.38264 17.5824 8.39376 17.5545 8.38264C17.4708 8.34373 17.5266 8.23257 17.5824 8.24368C17.6382 8.2548 17.5712 8.08249 17.5712 8.08249L17.6437 8.07137C17.6437 8.07137 17.6549 7.90462 17.6828 7.90462C17.7107 7.90462 17.6716 7.84904 17.6382 7.82125C17.5991 7.79346 17.5545 7.69896 17.5155 7.71008C17.4764 7.7212 17.3314 7.71008 17.3314 7.71008L17.3035 7.76566L17.2032 7.78234C17.2032 7.78234 17.2143 7.8546 17.192 7.87683C17.1362 7.94353 16.9243 8.08249 17.0135 7.84904L17.0414 7.79346V7.71008L16.8741 7.69896C16.8741 7.69896 16.7905 7.67117 16.7905 7.63226C16.7905 7.59336 16.7793 7.54889 16.7793 7.54889L16.5841 7.33211L16.3499 7.30432L16.3331 7.25985L16.1937 7.24318C16.0264 7.1598 15.8758 7.23206 15.9037 7.37658C15.9316 7.51554 15.9762 7.57112 15.887 7.57112C15.7922 7.57112 15.7754 7.49886 15.7754 7.49886C15.7754 7.49886 15.7029 7.47107 15.7029 7.50998C15.7029 7.54889 15.6751 7.62115 15.7029 7.66006C15.7308 7.69896 15.6639 7.75455 15.636 7.72676C15.6081 7.69896 15.5356 7.61559 15.5524 7.5878C15.5691 7.56001 15.4241 7.38214 15.5691 7.35435C15.7197 7.32655 15.5579 7.24318 15.6137 7.22095L15.6862 7.18204H15.7587L15.8033 7.14313L15.6806 7.12645L15.6081 7.11534L15.4687 7.10422C15.3293 7.19871 15.3014 7.30988 15.3014 7.30988C15.2289 7.44884 15.0504 7.2543 15.1174 7.17648C15.1843 7.09866 14.911 7.16536 14.8664 7.20427C14.8218 7.24318 14.6823 7.22095 14.6823 7.22095C14.6545 7.30432 14.5262 7.20983 14.5597 7.15424C14.5987 7.09866 14.5987 7.05975 14.5987 7.05975L14.5541 7.04864L14.4983 7.15424C14.37 7.15424 14.331 7.2265 14.3589 7.27653C14.3868 7.321 14.3198 7.26541 14.3031 7.33211C14.2864 7.39881 14.3143 7.39881 14.37 7.4266C14.4258 7.4544 14.3422 7.4544 14.3812 7.49886C14.4202 7.54333 14.5318 7.49886 14.4648 7.56556C14.3979 7.63226 14.2696 7.60447 14.2696 7.60447C14.2585 7.68785 14.0856 7.67117 14.0633 7.64338C14.0466 7.61559 13.9071 7.44884 13.9071 7.44884L13.7287 7.43772C13.7119 7.30432 13.8123 7.37102 13.8514 7.27097C13.8904 7.16536 13.9071 6.99861 13.9071 6.99861C13.9071 6.99861 13.7566 6.98749 13.751 7.03752C13.7398 7.08199 13.6506 7.11534 13.6506 7.11534C13.6506 7.11534 13.5781 7.14313 13.606 7.18204C13.6339 7.22094 13.5502 7.23762 13.5502 7.23762C13.5502 7.23762 13.5669 7.29876 13.5391 7.321C13.4666 7.39881 13.2769 7.33211 13.2491 7.30432L13.1375 7.25985L13.026 7.1876L12.8977 7.24318L12.8587 7.28209H12.7192L12.7081 7.39325L12.9591 7.42105L12.9758 7.6545L12.8754 7.62115H12.8085L12.7806 7.56556L12.7248 7.55445V7.76011L12.7806 7.80457L12.8252 7.84904L12.92 7.86016L12.9367 7.97132L13.171 7.98244L13.1989 8.02691L13.3383 8.03802L13.606 8.31038L13.5893 8.39376L13.5446 8.42155C13.5614 8.48825 13.4219 8.44934 13.4219 8.44934V8.50493L13.4889 8.51604L13.5558 8.55495L13.6506 8.39376C13.751 8.32706 13.8012 8.42155 13.8068 8.47714C13.8179 8.53272 13.7621 8.5216 13.7621 8.5216V8.655L13.8179 8.67168C13.9127 8.78285 13.7789 8.84955 13.7789 8.84955L13.751 8.94404C13.7231 9.02741 13.6227 9.01074 13.6227 9.01074L13.5837 9.06632L13.4721 9.09411L13.6896 9.12191C13.712 9.04409 13.7677 9.02741 13.7956 9.06632C13.8235 9.10523 13.8235 9.17193 13.8235 9.17193L13.8793 9.18305L13.8681 9.28866L13.9239 9.30533V9.60548L13.9908 9.67774C14.1023 9.63328 14.1023 9.70553 14.0466 9.74444C13.9908 9.78335 14.0298 9.9501 14.0298 9.9501L13.9852 9.99457V10.0724L13.9295 10.1113V10.2169C13.8346 10.1724 13.7231 10.1891 13.6952 10.2169C13.6116 10.1613 13.4331 10.178 13.4331 10.228C13.4889 10.3003 13.3662 10.3225 13.3662 10.3225L13.2993 10.3948C13.3439 10.4893 13.2546 10.5004 13.2546 10.5004V10.6782L13.1431 10.7839L13.1542 11.0284C13.1542 11.0951 13.2937 11.1007 13.3216 11.0673C13.3494 11.0284 13.461 11.1451 13.461 11.1451H13.5446L13.5614 10.9784L13.5056 10.9506V10.6782L13.6004 10.5726C13.7119 10.5337 13.6729 10.8172 13.6729 10.845C13.6841 10.9506 13.7287 10.9395 13.7733 10.9173C13.8681 10.8783 13.79 11.0229 13.7175 11.0117C13.645 11.0006 13.6896 11.1062 13.6896 11.1062L13.7343 11.1229L13.6506 11.1896L13.5781 11.273L13.4833 11.2452L13.3718 11.2341L13.3327 11.1674L13.2658 11.1563L13.2546 11.2897L13.21 11.3453L13.0985 11.4564C13.2491 11.4564 13.0817 11.562 13.0427 11.562C13.1264 11.5898 13.0316 11.6732 12.8196 11.6065V11.6732L12.7471 11.6843L12.8141 11.7566L12.8866 11.7677L12.8587 11.9289C12.8587 12.0512 12.5519 11.9678 12.524 11.94L12.5129 12.1067L12.4571 12.1179L12.4683 12.229L12.4571 12.3902L12.5575 12.3735V12.4402L12.8085 12.4514L13.171 12.0678L13.3829 12.0234C13.3996 11.9289 13.4944 12.04 13.4944 12.04C13.5893 12.0289 13.606 12.0956 13.606 12.0956L13.7287 12.1123C13.8291 12.1401 13.7677 12.1512 13.7733 12.1901C13.7845 12.2457 13.8291 12.229 13.8291 12.229L13.8458 12.1067L13.9016 12.1179L13.8458 12.0512L13.7454 12.0067L13.6339 11.9622C13.5614 11.8566 13.6506 11.8789 13.7287 11.89H13.8514C13.8514 11.89 13.9908 12.079 13.9908 12.1234C13.9908 12.1679 14.0577 12.179 14.0577 12.179L14.1414 12.1679L14.1693 12.2346H14.2529L14.2808 12.2902H14.4481L14.4593 12.2068L14.3031 12.179L14.292 12.0845L14.1804 12.0567C14.1414 11.8955 14.2083 11.8511 14.2529 11.9233L14.3087 11.9344L14.292 11.7955L14.3589 11.7788L14.3422 11.5843L14.2864 11.5676V11.5009L14.5206 11.512C14.5039 11.3897 14.5318 11.3341 14.5318 11.3341H14.5987L14.6098 11.3786L14.8943 11.4064L15.095 11.1785C15.0839 11.1618 15.1174 11.1507 15.095 11.1285C15.0672 11.1007 15.0281 11.1285 14.9835 11.1007C14.9389 11.0729 14.9835 10.9117 14.9724 10.8783C14.9612 10.8394 15.1285 10.7839 15.1006 10.8672C15.0727 10.9506 15.1006 10.9895 15.1006 10.9895C15.2233 10.8783 15.3237 11.0006 15.3125 11.0284C15.3014 11.0562 15.3795 11.084 15.4241 11.0562C15.4687 11.0284 15.5245 11.1396 15.5077 11.1952C15.491 11.2508 15.3237 11.2396 15.3125 11.1841C15.3014 11.1285 15.2735 11.1451 15.2568 11.1729C15.24 11.2007 15.1564 11.2174 15.1062 11.1896C15.095 11.1841 15.095 11.1785 15.0895 11.1729L14.8887 11.4008H14.8999C15.0114 11.4675 14.9556 11.5509 14.9166 11.5676C14.8775 11.5843 14.8162 11.5843 14.8162 11.5843L14.7995 11.6232L14.5597 11.6398L14.5429 11.7343C14.4202 11.7177 14.3756 11.8455 14.4035 11.9122C14.4314 11.9789 14.4035 12.0345 14.4035 12.0345L14.5039 12.079L14.6322 12.04C14.6489 11.9456 14.7325 11.9289 14.8106 11.8733C14.8831 11.8177 15.0058 11.9789 14.9668 12.0512C14.9277 12.1234 14.9277 12.1568 14.9277 12.1568L14.9389 12.2401L14.8441 12.2791L14.7716 12.318L14.7604 12.3624H14.5095L14.4648 12.4069L14.3422 12.418L14.3031 12.4736L14.2195 12.4847C14.2195 12.4847 14.08 12.5514 14.1358 12.6237C14.1916 12.7015 13.9016 12.6904 13.8402 12.5848C13.8235 12.6793 13.7175 12.5959 13.7175 12.5959L13.6171 12.5681L13.606 12.4291C13.5893 12.3346 13.4108 12.3346 13.4219 12.4013C13.4331 12.468 13.0873 12.4291 13.0873 12.4291L12.9758 12.4847L12.8754 12.5459L12.8642 12.5903L12.6969 12.607L12.6244 12.6459L12.5965 12.5903H12.524L12.4515 12.6959C12.2564 12.707 12.0723 12.8182 12.089 12.8627C12.1058 12.9072 12.0165 12.9572 12.0165 12.9572L11.9329 12.985L11.8771 13.0683L11.7656 13.1073L11.7488 13.3018L11.6931 13.3407V13.4241L11.6262 13.4408V13.4852L11.5313 13.4963L11.5871 13.6353L11.6596 13.6742C11.7879 13.6909 11.7321 13.8521 11.7321 13.8521L11.8046 13.8632L11.8437 13.9688L11.9162 14.1189C11.944 14.23 12.0277 14.2022 12.0667 14.1967C12.1058 14.1856 12.1392 14.3079 12.1392 14.3079L12.5073 14.319C12.5073 14.319 12.4906 14.3579 12.5519 14.3746C12.6189 14.3912 13.0427 14.4135 13.0594 14.3857C13.0427 14.3023 13.2937 14.2801 13.3941 14.3579C13.4944 14.4301 13.6339 14.3857 13.6339 14.3857L13.7733 14.5524L13.8681 14.7581L14.0243 14.8026L14.1358 14.8303L14.1748 14.9915L14.2585 15.0027L14.2864 15.1083C14.3868 15.1805 14.2585 15.3417 14.2585 15.3417V15.5474L14.331 15.5863L14.3198 15.6641L14.4425 15.7864L14.582 15.7975L14.9333 16.1699L15.2122 16.2533L15.2568 16.4034L15.3293 16.3922L15.3851 16.3478L15.6081 16.3367L15.7197 16.2311L15.8424 16.2144L16.8741 15.3417L16.7793 15.2861V15.0805C16.9466 14.9582 16.9578 14.7414 16.796 14.7247C16.6789 14.7081 16.7291 14.5858 16.8406 14.5635L16.9076 14.5358V14.4524L17.1195 14.2578V14.1078L16.6566 13.7242C16.4503 13.652 16.6566 13.2017 16.796 13.2073C16.9355 13.2184 16.7849 12.5125 16.7849 12.5125L16.7124 12.4736L16.7291 12.2457H16.6287L16.4614 12.4625L16.4168 12.6126C16.4001 12.8071 15.8256 12.7737 15.7977 12.746C15.7699 12.7182 15.5747 12.6348 15.5747 12.6348C15.5747 12.6348 15.4241 12.5125 15.3962 12.5514C15.3683 12.5903 15.24 12.5069 15.24 12.5347C15.24 12.5625 15.1174 12.468 15.1174 12.468L14.9333 12.4013L15.0727 12.3735L15.0449 12.2624L15.2847 12.3847C15.3125 12.4236 15.4352 12.4125 15.4352 12.4125L15.4743 12.4569C15.4743 12.4569 15.5468 12.4458 15.597 12.5014C15.6416 12.557 15.887 12.5125 15.887 12.5125L15.9539 12.5681L16.0543 12.607L16.3443 12.6181L16.3554 12.4402L16.4112 12.3847L16.4001 12.2735L16.467 12.2179V12.1234L16.5228 12.1067L16.5339 11.9011L16.5785 11.89V11.4397L16.4391 11.3063C16.4279 11.3508 16.2829 11.3508 16.2829 11.3508C16.2829 11.3508 16.2439 11.4175 16.216 11.4175C16.1881 11.4175 16.2551 11.5009 16.2328 11.5565C16.216 11.6121 16.1379 11.6121 16.1379 11.6121L15.9985 11.651L15.9595 11.6954H15.8089L15.7922 11.5731L15.9595 11.5287L16.0543 11.4842L16.0989 11.3897C16.1101 11.2952 16.2216 11.3063 16.2216 11.3063C16.2216 11.3063 16.4335 11.1285 16.4447 11.0451C16.4558 10.9617 16.5283 10.7283 16.6566 10.7283H16.8964C16.9912 10.6894 16.9633 10.5671 16.9633 10.5671L17.086 10.5504L17.1028 10.6171C17.1028 10.6171 17.2701 10.6338 17.2868 10.606C17.3035 10.5782 17.3426 10.5115 17.3872 10.5393C17.4318 10.5671 17.5824 10.4726 17.5824 10.4726C17.5935 10.4059 17.8222 10.4337 17.8222 10.4337L17.8501 10.3503C17.8501 10.3503 17.6939 10.1335 17.666 10.1335C17.6382 10.1335 17.4876 10.0001 17.4708 10.0502C17.3203 10.0112 17.3314 9.80558 17.3314 9.80558L17.2757 9.67218C17.2757 9.59437 17.1362 9.43873 17.1083 9.45541C16.9689 9.3498 17.0693 9.23307 17.1083 9.22196C17.1474 9.21084 17.2366 9.083 17.2366 9.083L17.2812 8.9496L17.4374 8.90513L17.4541 8.78285L17.3705 8.77173C17.3705 8.77173 17.4653 8.60498 17.5099 8.60498C17.5545 8.60498 17.8612 8.60498 17.8891 8.5883C17.917 8.57163 17.9728 8.42155 17.9728 8.39376C17.9728 8.36597 18.0453 8.35485 18.0732 8.34929C18.1011 8.33818 18.168 8.26592 18.1847 8.22701C18.2349 8.13252 18.1736 7.89907 18.1345 7.93797Z" fill="#3F6587"/>
<path d="M12.9987 11.3174C13.0098 11.3062 13.0265 11.3618 13.0544 11.3507C13.0823 11.3452 13.0935 11.4007 13.0656 11.4007C13.0377 11.4007 13.0377 11.4341 13.0377 11.4508C13.0377 11.4674 13.0377 11.5008 13.0154 11.523C12.9931 11.5453 12.9764 11.5286 12.9485 11.5175C12.9206 11.5008 12.9094 11.5008 12.8704 11.5008C12.8369 11.5008 12.8648 11.5564 12.8648 11.5564C12.8648 11.5564 12.7198 11.5508 12.7477 11.5286C12.7756 11.5063 12.8035 11.5008 12.7812 11.4841C12.7589 11.4674 12.7812 11.4563 12.7812 11.4285C12.7812 11.4007 12.8481 11.4119 12.8314 11.3952C12.809 11.3729 12.8314 11.2951 12.8648 11.3396L12.8871 11.2896C12.8648 11.2673 12.8815 11.2618 12.8369 11.2451C12.7979 11.2284 12.8314 11.1451 12.8314 11.1451L12.8369 11.0895C12.8481 11.0172 12.9875 11.0117 12.9987 11.0728C13.0042 11.1339 12.9987 11.1784 12.9987 11.1784L13.0377 11.1951C13.0377 11.1951 13.0321 11.2395 12.9987 11.2395C12.9652 11.2395 12.9987 11.2618 12.9764 11.284L12.9987 11.3174Z" fill="#3F6587"/>
<path d="M12.541 11.3898C12.5634 11.3453 12.608 11.1675 12.6637 11.2231C12.7195 11.2786 12.753 11.2231 12.753 11.2231C12.753 11.2231 12.7809 11.2508 12.7641 11.3064C12.753 11.362 12.7362 11.4176 12.7028 11.4287C12.6693 11.4343 12.6414 11.4565 12.5968 11.4621C12.5634 11.4676 12.541 11.3898 12.541 11.3898Z" fill="#3F6587"/>
</g>
<defs>
<clipPath id="clip0_5838_134242">
<rect width="26" height="22" fill="white"/>
</clipPath>
</defs>
</svg>
