<svg width="25" height="18" viewBox="0 0 25 18" fill="none" xmlns="http://www.w3.org/2000/svg">
<g clip-path="url(#clip0_5838_134585)">
<path d="M5.67061 0.695584L5.6383 5.00763C5.6383 6.80148 4.5739 7.49522 3.14392 7.49522C1.91117 7.49522 0.340067 6.94771 0.340067 5.08074V0.695584C0.335335 0.592093 0.300691 0.492195 0.240332 0.407994C0.179974 0.323794 0.0964911 0.258905 0 0.221191H2.0217C1.92701 0.259899 1.84567 0.325407 1.78768 0.409677C1.72969 0.493947 1.69756 0.593314 1.69523 0.695584V5.11645C1.69523 5.8544 1.94858 6.8984 3.31905 6.8984C4.5739 6.8984 5.01938 6.07544 5.01938 5.02803L5.00578 0.695584C5.00905 0.597583 4.98401 0.500716 4.93365 0.416581C4.88329 0.332445 4.80974 0.264608 4.72182 0.221191H5.94436C5.85835 0.266049 5.7869 0.334505 5.73842 0.41853C5.68993 0.502555 5.66641 0.598664 5.67061 0.695584V0.695584Z" fill="#3F6587"/>
<path d="M8.52533 7.49514C7.82009 7.48692 7.12678 7.31214 6.50193 6.98504L6.44922 5.20309C6.64986 5.95124 7.28238 6.94253 8.3791 6.94253C9.42311 6.94253 9.73937 6.19439 9.73937 5.67748C9.73937 4.65728 8.82289 4.52806 7.869 4.01116C6.91511 3.49425 6.47812 2.90424 6.47812 2.10338C6.46962 0.680201 7.80949 0.105488 8.76848 0.105488C9.32279 0.103631 9.86915 0.237303 10.36 0.494864L10.4127 2.05577C10.2648 1.49636 9.66456 0.652995 8.65286 0.652995C7.852 0.652995 7.53573 1.21241 7.53573 1.6732C7.53573 2.31592 7.98973 2.55907 8.97932 3.01136C9.96892 3.46365 10.9823 3.81562 10.9823 5.28131C10.9823 6.59906 9.82269 7.49514 8.52533 7.49514Z" fill="#3F6587"/>
<path d="M14.3864 7.3898H11.6777C11.7627 7.34369 11.8333 7.27497 11.8816 7.19124C11.9299 7.10751 11.9541 7.01204 11.9515 6.9154V0.695584C11.9557 0.598664 11.9322 0.502555 11.8837 0.41853C11.8352 0.334505 11.7638 0.266049 11.6777 0.221191H14.4816C17.9503 0.221191 18.6457 2.67817 18.6457 3.70007C18.6457 5.53473 17.2327 7.3898 14.3864 7.3898ZM14.2605 0.748295C14.0072 0.748295 13.4495 0.748295 13.2914 0.768699V6.84229H14.1415C16.522 6.84229 17.1885 5.24058 17.1885 3.70007C17.18 2.43503 16.4421 0.748295 14.2605 0.748295Z" fill="#3F6587"/>
<path d="M22.7427 7.38965C23.0165 7.24172 23.0692 7.09379 22.9961 6.87955C22.9638 6.77413 22.69 6.1314 22.3959 5.41386H19.8063C19.5851 5.88875 19.3882 6.37454 19.2162 6.86935C19.121 7.1227 19.1737 7.27062 19.4594 7.39645H18.0039C18.2147 7.2778 18.3865 7.10062 18.4987 6.88635C18.7061 6.47317 21.4777 0 21.4777 0C21.4777 0 24.2815 6.47317 24.472 6.87275C24.5206 6.98911 24.5924 7.09436 24.683 7.18206C24.7736 7.26976 24.8812 7.33808 24.9991 7.38285L22.7427 7.38965ZM21.0764 2.27675C21.0764 2.27675 20.3589 4.0689 20.0222 4.85955H22.1527C21.6579 3.68972 21.0781 2.27675 21.0781 2.27675H21.0764Z" fill="#3F6587"/>
<path d="M24.6843 8.40303C24.6843 8.40303 9.34219 8.02216 0.253906 12.8647C0.253906 12.8647 9.8829 9.05596 24.6809 9.43683L24.6843 8.40303Z" fill="#3F6587"/>
<path d="M0.253906 8.40283C0.253906 8.40283 5.42122 8.45724 8.63145 9.65427C8.63145 9.65427 2.04946 9.11017 0.253906 9.38222V8.40283Z" fill="#3F6587"/>
<path d="M0.253906 10.0895C0.253906 10.0895 3.95383 9.9195 6.18297 10.1439C6.18297 10.1439 0.798013 10.7969 0.253906 11.0689V10.0895Z" fill="#3F6587"/>
<path d="M22.1423 10.2565H22.0641C17.5973 10.3432 8.24547 10.8822 0.253906 13.7031V17.1038H24.6809V10.2565C24.6809 10.2565 23.7389 10.2276 22.1423 10.2565Z" fill="#3F6587"/>
</g>
<defs>
<clipPath id="clip0_5838_134585">
<rect width="25" height="17.1036" fill="white"/>
</clipPath>
</defs>
</svg>
