<svg width="22" height="19" viewBox="0 0 22 19" fill="none" xmlns="http://www.w3.org/2000/svg">
<path d="M10.7878 0C9.83774 0 10.2388 1.41344 10.3127 1.87762C10.3127 1.89872 10.3868 5.07474 10.4079 5.80266C10.5557 5.76046 10.693 5.72832 10.8408 5.69666L11.1254 5.62312C11.136 4.91631 11.2098 1.88898 11.2098 1.86788C11.2732 1.38261 11.7695 5.74714e-06 10.7878 0ZM11.5269 1.52935L11.5161 1.5726C11.5056 1.64644 11.4845 1.70939 11.4739 1.77269C13.1101 1.93093 14.6409 2.64859 15.8126 3.79848L14.989 4.62048L15.0204 4.47339L14.9154 4.42039L14.778 4.43119L14.8093 4.33601L14.7141 3.99856L14.5139 3.77684L13.87 3.43938L13.8169 3.50211L13.7011 3.53457C13.9228 3.85105 14.0388 4.23095 14.0388 4.61074V4.75783L14.3559 5.15909L14.2076 5.19044L14.3029 5.33862L14.0182 5.62307L13.9013 5.41216C13.8485 5.55985 13.7748 5.70738 13.6903 5.83397L13.7542 5.88697L12.8775 6.75223C12.8247 6.69951 12.7723 6.6568 12.7195 6.60406C12.6351 6.64626 12.5507 6.6784 12.4663 6.71005L12.5399 6.76193L12.4977 6.80413L12.3927 6.85713L12.3505 6.96312L12.2866 6.89931L12.107 6.96312L12.16 7.04749L12.2866 7.01503L12.371 7.02582L12.3818 6.98363L12.4446 6.95227L12.4663 6.92091L12.5821 6.88845H12.6665L12.7195 6.93064L12.3818 7.27891L12.3602 7.24755L12.002 7.31136L11.9175 7.39572L11.8429 7.4055L12.0647 7.19459L11.9803 7.15239L11.7693 7.42711L11.8331 7.41631V7.52231L11.9067 7.55367L11.9175 7.65858L11.7909 7.63804L11.6643 7.65858L11.3472 7.50067C11.3472 7.50067 11.3255 8.34522 11.3255 8.7672C12.0645 9.02039 12.8569 9.37846 12.8569 10.3279C12.8674 10.7288 12.6557 11.109 12.3179 11.3305L12.2974 11.3413L12.2757 11.3619C11.9802 11.5623 11.5897 11.6674 11.2519 11.7729L11.2411 12.438C11.7795 12.7018 12.4235 13.092 12.3602 14.1891C12.3496 14.4634 12.2444 14.5368 12.1599 14.5579C11.8433 14.6318 11.5156 14.685 11.1989 14.7061V14.9484C12.5923 14.8534 13.9019 14.273 14.9153 13.313L15.7811 14.1783C13.0049 16.8579 8.60262 16.8584 5.81584 14.1999L6.68164 13.3346C7.68445 14.2736 8.98249 14.8429 10.3548 14.9484V14.7061C9.04582 14.6006 7.82107 14.0624 6.87103 13.1551L7.09289 12.9236L7.40999 12.955L7.57882 12.7755L8.02145 12.7971L8.08531 12.6381L8.06475 12.5754C8.71922 13.0712 9.50002 13.3876 10.3234 13.472V13.2286C9.41557 13.1231 8.57042 12.7435 7.89484 12.1211L8.76063 11.2558C8.97175 11.4457 9.20451 11.6041 9.46841 11.7306C9.48953 11.6463 9.51058 11.573 9.55283 11.4992C9.33115 11.3831 9.11973 11.2454 8.94028 11.0871L9.80607 10.2229C9.9433 10.3284 10.1012 10.4233 10.2595 10.476V10.2121C10.154 10.1699 10.0594 10.1067 9.9749 10.0434L10.2173 9.80003C10.1329 9.77892 10.0485 9.74731 9.96408 9.71567L9.79525 9.88548C9.7108 9.79053 9.63699 9.68489 9.58422 9.57939C9.43643 9.51609 9.28854 9.44179 9.15132 9.34685C8.64463 9.04092 8.33882 8.48155 8.34938 7.88023C8.33885 7.47936 8.45507 7.07837 8.69786 6.76188L7.83207 5.8977C8.46542 5.28583 9.27814 4.89486 10.1437 4.75772V4.51552C9.21481 4.65267 8.33882 5.07498 7.66324 5.72905L7.51497 5.58088C7.48327 5.63365 7.44139 5.70765 7.39917 5.8026L7.49441 5.89778C6.72382 6.71009 6.29042 7.78523 6.26931 8.90348H5.03448C5.05559 7.4582 5.61497 6.07665 6.61779 5.0217L7.00848 5.41215H7.06151C7.1354 5.40163 7.22003 5.37997 7.28337 5.34834L6.78662 4.853C7.05052 4.59981 7.33547 4.36772 7.64159 4.16728C7.6627 4.10398 7.67379 4.04048 7.70544 3.98774C7.75819 3.90334 7.82095 3.81904 7.89484 3.73465C7.43037 3.98784 7.00863 4.30422 6.62861 4.67346L5.76282 3.80819C6.92397 2.6794 8.4337 1.97282 10.0593 1.80403C10.0593 1.77241 10.0485 1.75104 10.0485 1.75104C10.038 1.68774 10.0277 1.63561 10.0171 1.56177C5.91088 1.98374 2.94481 5.6442 3.3776 9.7374C3.77873 13.5247 6.96618 16.4051 10.7769 16.3945C14.8937 16.3945 18.23 13.0503 18.2194 8.93595C18.2194 5.11704 15.3271 1.91968 11.5269 1.52935ZM5.22506 1.8257C3.88445 2.11054 2.76497 3.29122 2.45885 4.74704C2.88109 4.25122 3.60992 3.96687 4.0216 3.4816C4.43329 2.98577 4.57058 2.31098 5.22506 1.8257ZM16.3083 1.8257C16.9628 2.31098 17.1 2.98577 17.5117 3.4816C17.9234 3.97742 18.6414 4.26203 19.0637 4.75786C18.7575 3.30203 17.6383 2.11054 16.3083 1.8257ZM11.7802 2.2897L11.6849 2.35243L11.4739 2.33188V2.38488C11.6111 2.3954 11.7482 2.40598 11.8538 2.42708L12.0334 2.41628L12.2131 2.42708L12.2867 2.36326L12.1492 2.30053L11.7802 2.2897ZM11.4425 2.64771C11.4425 2.76373 11.4317 3.02842 11.4317 3.02842C11.4317 3.1128 11.4209 3.4183 11.4209 3.4816C11.5054 3.49212 11.6005 3.50241 11.685 3.51294C12.4767 3.70281 12.7618 4.15685 12.7618 4.59993C12.7618 5.32784 12.1387 5.60246 11.3787 5.81345L11.1255 5.87618C10.8932 5.92896 10.651 5.99243 10.4188 6.05572C10.3343 6.07681 10.25 6.09764 10.1655 6.12927C9.32103 6.38246 8.59193 6.79376 8.59193 7.83816C8.59193 8.88256 9.4263 9.2625 10.2391 9.51569C10.2391 9.2203 10.228 8.91444 10.2174 8.61906C9.84798 8.45026 9.60598 8.22902 9.60598 7.85979C9.60598 7.49056 9.83771 7.27932 10.1861 7.12108C10.26 7.08946 10.3443 7.05755 10.4393 7.02589C10.6398 6.95206 10.8727 6.89992 11.1049 6.83662L11.3581 6.77281C12.4982 6.49852 13.7853 6.14041 13.7748 4.61074C13.7748 3.84063 13.2155 2.99606 11.8538 2.70068C11.7166 2.67958 11.5798 2.65823 11.4425 2.64771ZM10.0908 2.76451C9.83747 2.84891 9.58469 2.944 9.3419 3.0706C9.078 3.15499 8.69785 3.17535 8.30728 3.59733C8.1806 3.74502 8.06409 3.90308 7.94797 4.06132C7.83186 4.23012 7.82139 4.50498 7.73693 4.64213C7.61027 4.85312 7.6417 4.97958 7.6417 4.97958C7.62059 5.07453 7.56868 5.16964 7.50534 5.24349C7.37867 5.39116 7.18777 5.46441 6.99777 5.43276C7.17721 5.51716 7.42092 5.40141 7.42092 5.40141C7.3787 5.51746 7.3468 5.63364 7.32568 5.74968C7.52625 5.29605 7.70499 5.13834 7.76832 5.08559C7.85277 5.10669 8.03307 5.09595 8.36031 4.90605C8.72977 4.69506 9.28854 4.34669 9.44688 4.12515C9.61577 3.90362 9.83773 3.72365 10.1016 3.62871C10.1016 3.31223 10.0908 3.0177 10.0908 2.76451ZM2.66989 3.03815C0.885928 4.36738 1.64585 6.49894 1.55085 7.1741C2.46922 5.18025 3.83172 5.6025 4.41229 3.71414C4.0745 4.28381 2.58547 4.52609 1.89933 6.01357C2.25824 5.12741 2.07875 3.77661 2.66989 3.03815ZM18.8732 3.03815C19.4749 3.76607 19.2954 5.12741 19.6437 6.01357C18.9471 4.52609 17.4591 4.28328 17.1319 3.6925C17.7124 5.59141 19.0739 5.16917 19.9922 7.15247C19.8972 6.48785 20.6571 4.34629 18.8732 3.03815ZM14.2077 3.31287L14.081 3.40805L14.239 3.49242L14.4187 3.61896L14.4404 3.51297L14.3668 3.39723L14.2077 3.31287ZM8.57134 3.82986L8.83541 3.84067L8.52914 4.1673L8.33866 4.2095L8.57134 3.82986ZM5.58328 3.96723L6.44907 4.8314C5.40403 5.918 4.81327 7.37441 4.79216 8.88299H3.56706C3.58818 7.03683 4.30601 5.28591 5.58328 3.96723ZM15.9923 3.98777C17.259 5.30646 17.9657 7.05792 17.9868 8.88298H16.7628C16.7523 7.97573 16.5403 7.07896 16.1286 6.26665L16.1394 6.24501L16.2239 6.2872L16.2455 6.22447L16.0237 5.84484L15.7596 5.48576L15.4533 5.23267C15.3478 5.10608 15.2426 4.97963 15.1265 4.85304L15.9923 3.98777ZM11.4003 4.48421V4.72649C11.7487 4.77921 12.0858 4.87353 12.4025 5.00013C12.4447 4.92628 12.4763 4.85333 12.4869 4.77948C12.1385 4.63179 11.7698 4.53696 11.4003 4.48421ZM1.22402 4.81085C-0.412161 7.12118 1.31869 8.50302 1.38202 9.34698C1.79371 7.73291 2.7757 7.72274 3.40906 5.59175C3.24016 5.82384 3.12406 5.92852 2.68071 6.2872C2.01569 6.81468 1.55118 7.56395 1.39284 8.39736C1.43507 7.36351 0.801776 5.88689 1.22402 4.81085ZM20.3201 4.81085C20.7424 5.88689 20.1088 7.36351 20.1405 8.39736C19.9716 7.56395 19.5176 6.81468 18.8526 6.2872C18.4093 5.91797 18.2932 5.82384 18.1243 5.59175C18.7576 7.72274 19.7388 7.73291 20.1611 9.34698C20.2244 8.51357 21.9563 7.13173 20.3201 4.81085ZM7.31486 5.52794C7.26205 5.53846 7.21938 5.54931 7.16659 5.53874L7.28348 5.66528C7.29401 5.62308 7.30433 5.57013 7.31486 5.52794ZM14.4295 5.55928L14.725 5.57008L14.7986 5.65444L14.7672 5.78099L15.1795 6.03408L15.2639 6.02434L15.7812 6.62569L15.9923 6.55106C16.3301 7.27898 16.5088 8.08118 16.5193 8.88294H15.2953C15.2953 8.56646 15.2534 8.26088 15.1795 7.95495L15.2314 7.88032L15.3061 7.48987L15.2531 7.07887L15.1048 6.60407L14.7672 6.1087L14.8516 6.1509L14.8938 6.1087L14.62 5.91834L14.5983 5.98215L14.8732 6.37152L15.0312 6.68842L15.1373 7.00533L15.1687 7.21624L15.2217 7.57424L15.1156 7.58503C15.1156 7.58503 14.9998 7.36416 14.9576 7.26921L15.0106 7.18485L14.9046 7.03668V6.89932L14.831 6.80414L14.7357 6.81493C14.7041 6.75163 14.6719 6.68814 14.6297 6.63539L14.6935 6.66785L14.7141 6.64621L14.6827 6.57266L14.7671 6.53047L14.7358 6.48827L14.62 6.53047L14.6622 6.34011L14.5875 6.29791L14.5248 6.44609C14.3875 6.24564 14.2394 6.05544 14.081 5.87609L14.4295 5.55928ZM7.65252 6.0341L8.51832 6.89935C8.33886 7.0998 8.18097 7.32188 8.06486 7.56452H8.001L7.87438 7.59588H7.83216L7.70553 7.71161L7.87436 7.69108L8.02155 7.65862L7.99018 7.70082L7.86356 7.78518H7.80079L7.61032 7.93335L7.43067 7.91282L7.1666 8.40818L7.21962 8.50336L7.07244 8.67209L7.05077 8.88299H6.50208C6.51261 7.81749 6.92416 6.80421 7.65252 6.0341ZM13.9122 6.06656C14.1128 6.2881 14.2928 6.53047 14.4512 6.78365L14.3451 6.815L14.3559 7.00536L14.6719 7.20545C14.7564 7.38479 14.8204 7.56391 14.8732 7.75381L14.8202 7.83816L14.7044 7.92253L14.6719 8.10207L14.5875 8.14427L14.5247 8.22863L14.4609 8.19727H14.3451L14.4089 8.10209L14.4609 7.85981L14.5453 7.80682L14.3137 7.58509L14.1448 7.6489L14.1026 7.81764L13.9966 7.93336L13.8808 7.83819L13.8385 7.73327L13.9013 7.69107L13.9338 7.75381L13.9857 7.73328L13.9651 7.62728H13.8915V7.66948L13.8385 7.68027L13.5744 7.36337L13.4792 7.28982L13.5106 7.25846L13.595 7.2271L13.5106 7.19464C13.5106 7.19464 13.4162 7.21626 13.4056 7.21626L13.4586 7.2898H13.3212C13.2367 7.15264 13.1519 7.0362 13.0463 6.9307L13.9122 6.06656ZM14.0605 6.41483L13.87 6.50893L13.8072 6.62574L13.765 6.73065L13.8494 6.86801L13.8169 6.93074L13.7011 6.97294L13.7119 7.06812L13.923 7.00539L13.9858 6.87884L13.8386 6.68849L13.9122 6.57276L14.1124 6.71012L14.1448 6.67765L14.1026 6.64629L14.0604 6.56193L14.1448 6.51973L14.0605 6.41483ZM11.094 7.09947C10.8724 7.15224 10.6504 7.21597 10.4393 7.28982C10.4498 7.6696 10.5031 10.486 10.5031 10.792C10.6087 10.7603 10.7133 10.719 10.8083 10.6979C10.8822 10.6768 10.9466 10.6552 11.0205 10.6341C11.0205 10.4336 11.0835 7.60584 11.094 7.09947ZM12.8776 7.09947C12.962 7.19441 13.0364 7.29032 13.1103 7.39581L13.068 7.53209L12.9522 7.44773L12.857 7.46935L12.8992 7.55371H12.9414L12.8884 7.68026L12.8571 7.62726L12.7196 7.58506L12.8246 7.56453V7.54291L12.7196 7.46937L12.751 7.23682L12.8776 7.09947ZM10.1752 7.385C9.9641 7.5116 9.85894 7.65937 9.84839 7.85981C9.84839 8.0708 9.97519 8.20803 10.1969 8.33463V8.23944L10.0594 8.09126L10.133 7.95499L10.1969 7.93337C10.1863 7.69073 10.1861 7.42721 10.1861 7.38501L10.1752 7.385ZM0.253243 7.3958C-0.411779 10.202 1.36128 10.5287 1.82574 11.7102C1.75185 10.0223 2.82901 9.68435 2.74456 7.7538C2.26954 8.6716 1.51943 8.88304 1.60388 10.7714C1.20276 9.09403 0.242687 8.46129 0.253243 7.3958ZM21.2801 7.3958C21.2906 8.47184 20.3306 9.0943 19.9295 10.7822C20.0139 8.87276 19.2743 8.6716 18.7888 7.7538C18.6938 9.68435 19.7815 10.0223 19.7076 11.7102C20.1615 10.5392 21.9451 10.202 21.2801 7.3958ZM14.9046 7.8176C14.9257 7.8809 14.9365 7.94359 14.9576 8.00688L14.8408 8.35515V8.47088L14.989 8.2286C15.0207 8.4396 15.0423 8.66116 15.0529 8.87214H13.9761L13.9544 8.77696L14.081 8.68286L14.1027 8.61905L14.1546 8.57686L14.3029 8.55633L14.3137 8.49251L14.1871 8.4287L14.4089 8.31297L14.6297 8.28161L14.6827 8.17562L14.8093 8.10207L14.8624 7.99715L14.9046 7.8176ZM7.46313 8.36597L7.72611 8.40816L7.76834 8.45036C7.74723 8.58751 7.7367 8.73503 7.72611 8.87218H7.43066L7.29322 8.69263L7.31488 8.45036L7.46313 8.36597ZM11.3051 9.00951C11.2945 9.25214 11.294 9.59968 11.2834 9.84232C11.5684 9.94781 11.7585 10.0859 11.7585 10.3074C11.7585 10.5817 11.474 10.7292 11.2629 10.8136C11.1784 10.8452 11.0518 10.8874 11.0096 10.8979C10.8407 10.9507 10.672 11.0034 10.5031 11.0667C10.4187 11.0983 10.3343 11.1294 10.2499 11.1716C9.97543 11.3193 9.66872 11.5413 9.66872 11.9211C9.66872 12.3431 9.97514 12.5648 10.2813 12.7442C10.2813 12.6703 10.2705 12.0268 10.2705 12.0163C10.281 11.8897 10.3976 11.8054 10.5031 11.7632C10.6615 11.6894 10.8299 11.6256 10.9988 11.5728C11.0938 11.5412 11.1676 11.5096 11.252 11.4885C11.8749 11.2986 12.5929 11.067 12.5929 10.3074C12.5929 9.54783 11.9806 9.24159 11.3051 9.00951ZM5.03458 9.11442H6.25968C6.25968 9.23046 6.26994 9.34691 6.29105 9.4735L6.14278 9.50486L6.11141 9.65304L5.79431 10.0543L5.80512 10.6027L5.48911 10.7076H5.30946C5.14056 10.1906 5.05569 9.66299 5.03458 9.11442ZM15.2953 9.11442H16.5193C16.4771 10.5491 15.9074 11.9102 14.9046 12.9335L14.7358 12.7647L14.831 12.6598L14.7358 12.185L14.6719 12.1634L14.7142 12.079L14.5139 12.0163L14.4717 12.185L14.4512 12.3959L14.4089 12.4381L14.0388 12.0693C14.8094 11.2676 15.2531 10.2221 15.2953 9.11442ZM16.752 9.11442H17.976C17.9338 10.9289 17.2057 12.6699 15.9284 13.9675L15.0734 13.1022C16.1185 12.0261 16.7203 10.6019 16.752 9.11442ZM3.56706 9.12521H4.79216C4.80269 9.65269 4.89789 10.1915 5.05623 10.6978L4.98155 10.687L4.90796 10.6135L4.55948 10.581L4.66554 10.7292L4.34844 10.6654L4.43286 10.5918L4.35927 10.5183L4.12658 10.6135L4.04217 10.7606L4.07464 11.1088L4.33762 11.7416L4.46424 11.9416L4.53892 11.9633L4.33762 11.5836L4.2954 11.3933L4.33762 11.3511L4.30626 11.2462L4.42205 11.2667L4.61253 11.5414L4.65475 11.5619V11.3619L4.72834 11.4041L4.75001 11.51L4.9394 11.5619L5.02382 11.4992L5.05629 11.5197V11.6679L5.14071 11.7728L5.24568 11.7944L5.47836 12.1741L5.61581 12.2163L5.65803 12.0367C5.90082 12.4271 6.17494 12.7967 6.50218 13.1237L5.63639 13.989C4.34856 12.6914 3.60929 10.9503 3.56706 9.12521ZM6.5021 9.12521H6.87114L6.78673 9.42048L6.89278 9.53729L6.77699 9.71576H6.57569L6.56489 9.70598C6.53325 9.51609 6.51267 9.3151 6.5021 9.12521ZM7.18824 9.12521H7.47287L7.51509 9.20957L7.45232 9.49511L7.42096 9.547L7.52593 9.77954L7.45234 9.82174L7.39932 9.75793L7.37876 9.77955L7.43068 9.91691L7.51509 10.0748H7.55731L7.57898 9.92772L7.53675 9.87472V9.77959L7.52595 9.5795L7.5898 9.22042L7.52595 9.12523H7.72616C7.76838 9.85315 8.06471 10.5392 8.57139 11.0667L7.7056 11.9211C7.62115 11.8262 7.52625 11.7316 7.45236 11.6367L7.49458 11.3306L7.36796 11.0353L7.33549 10.5713L7.18831 10.2858L7.21967 10.1062L7.04002 9.76877L6.89283 9.69523L6.95561 9.51569L6.89283 9.37832L6.95561 9.22042H7.12443L7.18824 9.12521ZM14.0918 9.13601H15.0312C14.989 10.1804 14.5672 11.1721 13.8494 11.9211L13.7228 11.7945L13.7747 11.6258L13.6806 11.2462L13.4901 11.5306L13.3743 11.4149L13.4587 11.2992L13.5745 11.0666L13.5323 11.0028L13.6059 10.8341L13.5951 10.6762L13.5529 10.5183L13.4479 10.4858L13.4056 10.5712L13.3418 10.5496C13.4368 10.4125 13.5211 10.2539 13.595 10.1062L13.7011 10.064L13.765 9.97961L13.7963 10.0121L13.8699 9.92771L13.8071 9.85308L13.8591 9.84229L13.9543 9.88553H14.1448L14.2606 9.82172L14.556 9.73736L14.503 9.64218L14.4824 9.52645L14.6404 9.6L14.7043 9.56864L14.6718 9.4421L14.4716 9.51564L14.2606 9.47345L14.0918 9.13601ZM7.96962 9.27336L8.14927 9.46265H8.3181L8.53888 9.61082L8.60273 9.57946L8.76074 9.69519L8.68714 9.74819L8.86679 9.86391L8.85598 9.73737L8.95122 9.57946L9.0562 9.68438L9.16226 9.83255L8.97179 9.88555L9.0562 10.0543L9.18283 9.97964L9.16227 9.92775L9.2575 9.86394L9.30942 9.60003C9.38332 9.75828 9.47902 9.90607 9.59514 10.0327L8.72934 10.8979C8.3071 10.4549 8.04351 9.88523 7.96962 9.27336ZM2.66015 9.75791C2.59681 10.7601 1.92053 11.2457 2.37444 13.0708C1.58274 11.52 0.358901 10.9405 0 9.88554C0.0211131 12.7867 2.35364 13.2186 2.94477 14.0204C2.44865 12.1742 3.32517 11.5302 2.66015 9.75791ZM18.8732 9.75791C18.2082 11.5302 19.0847 12.1742 18.5886 14.0204C19.1797 13.2186 21.5122 12.7867 21.5333 9.88554C21.1744 10.951 19.9506 11.52 19.1589 13.0708C19.6128 11.2457 18.9365 10.7601 18.8732 9.75791ZM11.2943 10.117C11.2943 10.1697 11.2835 10.4122 11.2835 10.5388C11.4207 10.465 11.5161 10.402 11.5161 10.2965C11.5161 10.2332 11.432 10.1697 11.3159 10.117H11.2943ZM12.751 11.2775L12.9728 11.4354L13.1416 11.5198L13.2261 11.6042L13.1838 11.6464L12.9198 11.5728L12.8354 11.6042L12.6882 11.4884L12.5507 11.4354C12.6246 11.3827 12.6876 11.3303 12.751 11.2775ZM11.0096 11.8151C11.0096 11.8151 10.9141 11.847 10.8614 11.8681C10.8297 11.8786 10.7353 11.9205 10.672 11.9416C10.6086 11.9627 10.5345 11.9952 10.5345 12.0162C10.5345 12.0162 10.5973 15.2647 10.5973 15.328C10.5973 15.9926 10.936 16.0032 10.936 15.328C10.936 15.2858 11.0096 11.8151 11.0096 11.8151ZM3.19802 11.9416C3.36691 12.7117 2.8809 13.8407 3.65148 14.9062C2.85979 14.0201 1.17098 13.7884 0.484843 12.4381C1.33987 15.74 3.57831 15.0649 4.58112 15.7823C3.75776 14.5902 4.43307 13.7983 3.19802 11.9416ZM18.3245 11.9416C17.0894 13.7983 17.7648 14.5902 16.9414 15.7823C17.9548 15.0649 20.1826 15.74 21.0377 12.4381C20.3515 13.7884 18.6736 14.0201 17.8819 14.9062C18.6524 13.8407 18.1662 12.7223 18.3245 11.9416ZM4.63415 12.1114L4.85493 12.4586L4.86574 12.4067L4.76076 12.1634L4.63415 12.1114ZM13.8592 12.2477L14.725 13.113C14.4083 13.4189 14.0495 13.6929 13.659 13.9144L13.7748 13.6721L13.7325 13.5672L13.9014 13.419V13.3347L13.7542 13.2395L13.87 12.9972L14.0496 12.7647L13.87 12.5754H13.7325L13.6481 12.438C13.722 12.3747 13.7958 12.311 13.8592 12.2477ZM6.53349 12.5646L6.80837 12.7225L6.8614 12.7647L6.66011 12.9659C6.5651 12.8709 6.48049 12.7761 6.39604 12.6706L6.53349 12.5646ZM11.2315 12.6803L11.2207 13.166C11.6007 13.3558 11.9593 13.6298 12.107 14.1361C12.1704 13.2922 11.696 12.9335 11.2315 12.6803ZM4.37983 13.9047C4.79151 14.5377 4.3693 15.3287 5.66769 16.5524C4.40098 15.8034 2.63883 16.1193 1.79435 15.1171C3.25108 17.9022 5.80486 16.7634 6.52267 17.1116C5.83653 16.1621 6.30101 15.6243 4.37983 13.9047ZM17.1535 13.9047C15.2218 15.6243 15.6965 16.1621 14.9998 17.1116C15.7282 16.7634 18.282 17.9022 19.7282 15.1171C18.8942 16.1299 17.1324 15.8034 15.8656 16.5524C17.164 15.3181 16.7418 14.5271 17.1535 13.9047ZM8.84515 16.932C8.12735 16.9531 7.42092 17.0696 6.73478 17.2489C5.57363 17.5549 4.56983 17.7969 3.69369 17.3538C4.52761 18.0923 5.50968 18.3665 6.92417 18.2083C8.09589 18.0817 9.04628 17.4915 10.1547 17.502H10.1969C9.50019 17.8502 8.87674 18.3357 8.37006 18.9265L8.90902 19C8.90902 19 9.46776 17.871 10.7661 17.5756C12.0645 17.871 12.6243 19 12.6243 19L13.1633 18.9265C12.6566 18.3357 12.0332 17.8502 11.3365 17.502H11.3787C12.4871 17.4915 13.4375 18.0817 14.6092 18.2083C16.0237 18.356 16.9952 18.0923 17.8397 17.3538C16.9635 17.7969 15.9597 17.5549 14.7986 17.2489C14.1124 17.0696 13.406 16.9531 12.6882 16.932C12.0337 16.9215 11.3784 17.0266 10.7662 17.2587C10.1539 17.0266 9.49962 16.9215 8.84515 16.932Z" fill="#3F6587"/>
</svg>
