<svg width="25" height="15" viewBox="0 0 25 15" fill="none" xmlns="http://www.w3.org/2000/svg">
<path d="M24.8366 0.000108518H20.0186H19.8551V0.162975V0.684852V0.847718H20.0186H20.3534C20.7428 0.847718 21.0939 1.0468 21.2928 1.38029C21.4916 1.71379 21.4991 2.11617 21.3129 2.45678L15.9556 12.2522L13.5157 6.45813L15.8139 2.25716C16.2895 1.38778 17.2024 0.847718 18.1963 0.847718H18.3048H18.4683V0.684852V0.162975V0.000108518H18.3048H13.4869H13.3234V0.162975V0.684852V0.847718H13.4869H13.8217C14.2111 0.847718 14.5622 1.0468 14.7611 1.38029C14.9599 1.71379 14.9674 2.11617 14.7811 2.45678L13.1142 5.50471L11.6286 1.97682C11.5209 1.72112 11.5475 1.44196 11.7017 1.21107C11.8558 0.980183 12.1039 0.847718 12.3823 0.847718H12.7631H12.9266V0.684852V0.162975V0.000108518H12.7631H7.00096H6.83746V0.162975V0.684852V0.847718H7.00096H7.0802C8.21689 0.847718 9.23542 1.52242 9.67517 2.56655L11.8702 7.77925L9.42393 12.2522L5.09692 1.97682C4.98923 1.72112 5.01588 1.44196 5.17 1.21107C5.32413 0.980183 5.57221 0.847718 5.85059 0.847718H6.43575H6.59924V0.684852V0.162975V0.000108518H6.43575H0.163497H0V0.162975V0.684852V0.847718H0.163497H0.548479C1.68517 0.847718 2.70376 1.52242 3.14345 2.56655L8.13154 14.4119C8.21879 14.619 8.42109 14.7529 8.64699 14.7529C8.85431 14.7529 9.03737 14.6444 9.13672 14.4628L9.78739 13.2733L12.2716 8.73229L14.6632 14.4118C14.7505 14.619 14.9528 14.7529 15.1787 14.7529C15.386 14.7529 15.569 14.6444 15.6684 14.4627L16.3191 13.2733L22.3456 2.25705C22.8212 1.38767 23.734 0.84761 24.7279 0.84761H24.8365H25V0.684744V0.162866V0L24.8366 0.000108518Z" fill="#3F6587"/>
</svg>
