<svg width="43" height="32" viewBox="0 0 43 32" fill="none" xmlns="http://www.w3.org/2000/svg">
<path d="M2.90366 1.88649H4.29972L4.29972 23.8175H2.90366L2.90366 1.88649ZM5.69579 1.88649H9.88398L9.88398 23.8175H5.69579L5.69579 1.88649ZM11.28 23.8175L11.28 1.88649L15.4682 1.88649L15.4682 23.8175L11.28 23.8175Z" fill="#990000"/>
<path d="M36.4085 1.88649H37.8045V23.8175H36.4085V1.88649ZM39.2006 23.8175V1.88649H40.5966V23.8175H39.2006ZM16.8636 1.88649H18.2596L18.2596 23.8175H16.8636L16.8636 1.88649ZM19.6557 23.8175L19.6557 1.88649H21.0518L21.0518 23.8175H19.6557Z" fill="#339966"/>
<path d="M22.4507 1.88649H26.6389L26.6389 23.8175H22.4507L22.4507 1.88649ZM28.0349 1.88649H29.431L29.431 23.8175H28.0349L28.0349 1.88649ZM30.8271 23.8175L30.8271 1.88649L35.0153 1.88649V23.8175L30.8271 23.8175Z" fill="#006699"/>
<path d="M38.3642 25.5308L40.494 29.9344H39.2093L38.8142 29.0644H36.6673L36.31 29.9344H35.0425L36.9764 25.5308H38.3642V25.5308ZM38.4604 28.2952L37.6875 26.5836L36.9833 28.2952H38.4604ZM35.6711 25.5308V26.3377H33.9329V29.9344L32.7375 29.9344V26.3377H30.9994V25.5308H35.6711ZM29.4879 25.5308L31.6177 29.9344H30.333L29.9379 29.0644H27.791L27.4337 29.9344H26.1662L28.1001 25.5308H29.4879V25.5308ZM29.5841 28.2952L28.8112 26.5836L28.107 28.2952H29.5841ZM21.412 25.5308H23.528C24.3456 25.5308 24.9914 25.7367 25.4654 26.1486C25.9417 26.5584 26.1799 27.089 26.1799 27.7405C26.1799 28.4234 25.9383 28.9604 25.4551 29.3512C24.9742 29.74 24.2872 29.9344 23.394 29.9344H21.412V25.5308ZM22.6074 26.3377V29.1274H23.3872C23.8933 29.1274 24.2803 29.0003 24.5482 28.746C24.8162 28.4896 24.9501 28.1523 24.9501 27.7342C24.9501 27.3013 24.8139 26.9608 24.5414 26.7128C24.2711 26.4628 23.8818 26.3377 23.3734 26.3377H22.6074V26.3377ZM20.3059 25.5308V29.9344H19.1105V25.5308H20.3059ZM18.0422 25.5308L16.4792 27.5986L18.5986 29.9344H17.1009L15.2013 27.8697V29.9344H14.0059V25.5308H15.2013V27.5135L16.7265 25.5308H18.0422ZM12.8998 25.5308V29.9344H11.7044V25.5308H12.8998ZM7.01204 27.1195L5.52808 29.9911H5.01281L2.90366 25.5308H4.17121L5.30136 27.9643L6.53456 25.5308H7.49639L8.72959 27.9643L9.85287 25.5308H11.1204L9.01814 29.9911H8.50287L7.01204 27.1195Z" fill="#484848"/>
</svg>
