<svg width="25" height="25" viewBox="0 0 25 25" fill="none" xmlns="http://www.w3.org/2000/svg">
<path d="M14.1193 0.117071C15.4938 -0.071635 16.8837 0.0283508 18.2666 0.01286C18.9947 -0.00403896 19.7002 0.532504 19.8115 1.26479C20.0213 2.18438 19.1989 3.14058 18.2582 3.06735C16.3556 2.96596 14.3615 2.87161 12.5632 3.60953C11.2197 4.17424 10.3931 5.53742 10.1537 6.933C9.93119 7.73711 10.0931 8.81865 9.23692 9.28618C8.30184 9.91004 6.88514 9.16226 6.91049 8.03143C7.09216 5.94722 7.72728 3.78415 9.24396 2.27028C10.5297 0.967653 12.3337 0.332533 14.1193 0.117071Z" fill="#3F6587"/>
<path d="M4.22851 1.06607C5.02417 0.787235 5.96488 1.30829 6.16908 2.12226C6.36624 2.82216 5.93109 3.46432 5.75083 4.11634C5.2002 5.77666 4.64958 7.59612 5.13542 9.33813C5.58606 10.8675 7.02248 11.7871 8.41101 12.3771C9.13626 12.6109 9.63197 13.4094 9.44749 14.1642C9.28413 15.012 8.31244 15.5823 7.49424 15.2838C5.69027 14.5261 3.92855 13.415 2.89912 11.6998C1.94715 10.1451 1.75703 8.23265 2.04009 6.45826C2.24992 4.93735 2.7583 3.48122 3.24415 2.03072C3.38779 1.56741 3.76801 1.20689 4.22851 1.06607Z" fill="#3F6587"/>
<path d="M14.6759 4.90072C16.8263 4.49233 19.2175 4.76694 20.9835 6.14702C22.8776 7.61301 23.8563 9.90705 24.552 12.1321C24.7393 12.8235 25.1899 13.5389 24.9097 14.2698C24.6294 15.1204 23.538 15.5499 22.7593 15.0979C22.3565 14.9007 22.0833 14.5106 21.9763 14.0825C21.5257 12.4785 21.0173 10.8492 20.0385 9.47753C19.5104 8.72553 18.7345 8.13829 17.8417 7.90029C16.7658 7.60879 15.6335 7.77073 14.5633 8.0045C13.8366 8.21997 12.9635 7.81017 12.7213 7.07928C12.4819 6.48078 12.6973 5.76398 13.1804 5.35418C13.6014 5.01197 14.1661 4.99648 14.6759 4.90072Z" fill="#3F6587"/>
<path d="M16.7671 10.0592C17.3783 9.87896 18.1106 10.0789 18.474 10.6225C19.5597 12.4448 20.3709 14.5825 19.9977 16.7343C19.6442 18.9819 18.0698 20.7971 16.3489 22.1758C15.6363 22.7349 14.9083 23.2742 14.1689 23.7953C13.5394 24.2854 12.5255 24.1826 12.0284 23.5502C11.489 22.9179 11.6158 21.8378 12.3016 21.3618C13.9788 20.1972 15.8349 19.0255 16.7503 17.123C17.491 15.5134 16.8009 13.7277 15.9461 12.3152C15.404 11.5252 15.849 10.3212 16.7671 10.0592Z" fill="#3F6587"/>
<path d="M0.961835 14.4333C1.4688 14.2136 2.09125 14.2798 2.52922 14.622C4.0121 15.7374 5.56118 16.8893 7.39754 17.3245C8.75931 17.6498 10.1831 17.102 11.1688 16.157C11.5772 15.8162 11.918 15.4078 12.2729 15.0149C12.8277 14.3629 13.9459 14.3826 14.5106 15.0107C15.0162 15.5473 15.0612 16.4711 14.5655 17.0273C13.4206 18.2962 12.1025 19.4988 10.4534 20.0523C8.65651 20.7184 6.63708 20.4536 4.91902 19.6805C3.40515 19.0256 2.06309 18.0554 0.73229 17.0963C0.297141 16.802 0.05633 16.2838 0 15.7754C0.133784 15.2304 0.398535 14.6474 0.961835 14.4333Z" fill="#3F6587"/>
</svg>
