<svg width="22" height="22" viewBox="0 0 22 22" fill="none" xmlns="http://www.w3.org/2000/svg">
<path d="M20.4659 6.38802C20.2061 6.4973 20.0851 6.79344 20.1954 7.05079C20.7151 8.26705 20.9785 9.5644 20.9785 10.897C20.9785 11.7149 20.8753 12.5081 20.6831 13.2696C20.5336 13.749 20.2666 14.1932 19.9 14.5951C19.9071 14.4224 19.9143 14.2497 19.9143 14.0734C19.9178 12.1274 19.3768 10.0756 18.3695 8.14367C19.1063 7.51615 19.5761 6.74056 19.7398 5.87331C19.7897 5.59833 19.6082 5.33392 19.3305 5.28104C19.0529 5.22816 18.786 5.41148 18.7361 5.68646C18.6293 6.2611 18.3268 6.78639 17.857 7.23411C17.711 6.99439 17.558 6.75818 17.3978 6.52198C16.5009 5.21759 15.4331 4.08946 14.2657 3.19048C15.8068 3.28919 17.2305 3.66289 18.3802 4.29746C18.5617 4.39969 18.8002 4.39617 18.9675 4.25515C19.1846 4.07536 19.2131 3.75455 19.0315 3.5395C17.3836 1.25857 14.5326 0 11.0018 0C4.93674 0 0 4.88972 0 10.897C0 11.9335 0.14949 12.9347 0.423556 13.883C0.441353 13.9465 0.45559 14.0099 0.473386 14.0734C0.476945 14.0875 0.484064 14.0981 0.487623 14.1086C1.87575 18.5506 6.06148 21.7905 10.9982 21.7905C13.2833 21.7905 15.4046 21.096 17.1665 19.9114C17.1843 19.9009 17.2021 19.8938 17.2163 19.8832C17.3231 19.8127 17.4227 19.7387 17.5224 19.6611C19.5441 18.1805 21.0426 16.03 21.669 13.541C21.7046 13.4282 21.7366 13.3084 21.7615 13.192C21.7686 13.1638 21.7686 13.1356 21.7722 13.1074C21.9217 12.3918 22 11.6514 22 10.8935C22 9.42338 21.7081 7.9956 21.1351 6.65242C21.0283 6.39859 20.7258 6.27873 20.4659 6.38802ZM16.5543 7.09662C16.7216 7.3434 16.8817 7.59018 17.0348 7.84401C16.2161 8.31288 15.184 8.59139 14.0663 8.67248C13.9702 6.92388 13.7638 5.23874 13.4292 3.83916C14.5931 4.69583 15.6609 5.8028 16.5543 7.09662ZM15.0345 1.73097C15.547 1.93544 16.056 2.19632 16.54 2.52418C15.7677 2.33381 14.9455 2.21747 14.0912 2.17517C14.4401 1.94954 14.764 1.79443 15.0345 1.73097ZM13.6819 1.31145C13.3972 1.46304 13.1018 1.65341 12.8028 1.87904C12.6675 1.57938 12.5252 1.31497 12.3721 1.08935C12.7814 1.13518 13.2228 1.20569 13.6819 1.31145ZM8.81637 8.71125C9.54959 9.03912 10.3504 9.29647 11.1904 9.47626C11.8275 9.61023 12.4611 9.68426 13.0875 9.70542C13.0982 10.0862 13.1053 10.4775 13.1053 10.8794C13.1053 13.2661 12.9131 15.2473 12.6355 16.795C11.7208 16.7562 10.7775 16.6363 9.83077 16.4389C8.56366 16.1675 7.36774 15.7726 6.28215 15.265C6.63808 13.6785 7.30011 11.7537 8.35366 9.62081C8.4996 9.31057 8.6562 9.00739 8.81637 8.71125ZM7.02961 6.37039C6.60605 5.97555 6.28571 5.57013 6.0686 5.15765C7.02605 4.58654 8.08672 4.12119 9.21857 3.78275C9.89128 3.5818 10.5711 3.43374 11.2509 3.3315C10.2686 4.41732 9.29332 5.79928 8.39638 7.36103C7.88384 7.06842 7.42469 6.73703 7.02961 6.37039ZM13.0448 8.68658C12.5038 8.66542 11.9486 8.59844 11.404 8.4821C10.6636 8.32699 9.95891 8.10136 9.31111 7.81933C10.265 6.16592 11.3114 4.72756 12.3401 3.65584C12.6604 4.91088 12.9309 6.59602 13.0448 8.68658ZM10.9875 1.01531C11.1619 1.01884 11.3755 1.22331 11.5997 1.62521C11.4858 1.57585 11.3719 1.53002 11.258 1.48772C10.7953 1.31145 10.3362 1.17748 9.88416 1.07877C10.2472 1.03647 10.6138 1.01531 10.9875 1.01531ZM5.78741 3.50777C5.90131 2.98249 6.22165 2.51361 6.71283 2.12229C7.90519 1.76975 9.29688 1.85436 10.7562 2.38317C10.144 2.48893 9.52823 2.62995 8.91959 2.80974C7.7913 3.14465 6.72707 3.60295 5.75182 4.16349C5.73402 3.94139 5.7447 3.72282 5.78741 3.50777ZM4.82996 3.14113C4.81573 3.19401 4.80149 3.24336 4.79081 3.29977C4.68759 3.77922 4.69827 4.26573 4.81928 4.75223C3.71946 5.50314 2.76201 6.39507 1.99676 7.39276C1.76541 7.69594 1.55897 8.00618 1.37033 8.31994C1.93626 6.24348 3.17133 4.43847 4.82996 3.14113ZM4.99369 18.7798C3.28523 17.5001 2.011 15.6915 1.40592 13.601C1.3205 13.2696 1.26355 12.9347 1.24219 12.5962C1.58389 13.0757 2.00032 13.5481 2.49507 14.0029C3.24252 14.6868 4.13234 15.3002 5.12183 15.8255C4.9225 16.9466 4.86556 17.9619 4.99369 18.7798ZM3.19269 13.2555C2.32422 12.4587 1.72626 11.6197 1.42016 10.7807C1.66219 9.84291 2.12846 8.90163 2.8154 8.00265C3.46675 7.14598 4.27827 6.37744 5.21081 5.71467C5.47775 6.19412 5.85504 6.663 6.33199 7.1072C6.78758 7.53025 7.31435 7.91099 7.90519 8.2459C7.74147 8.54909 7.58486 8.85932 7.43181 9.17308C6.52419 11.0169 5.78385 12.9911 5.34606 14.7855C4.5381 14.3378 3.80845 13.8231 3.19269 13.2555ZM11.0089 20.7716C10.984 20.7716 10.9591 20.7752 10.9377 20.7787C9.41433 20.7681 7.97282 20.4226 6.6808 19.8057C6.65232 19.781 6.61673 19.7598 6.58114 19.7422C6.01165 19.4672 5.78385 18.2122 6.07928 16.2944C7.17198 16.7809 8.36078 17.1652 9.6101 17.4296C10.5569 17.6305 11.5001 17.7539 12.4255 17.7997C11.9735 19.7493 11.3933 20.7716 11.0089 20.7716ZM16.9031 18.8573C15.6289 19.788 14.1233 20.4261 12.4896 20.6694C12.8989 19.9678 13.2299 18.9807 13.479 17.8209C14.9241 17.8033 16.2945 17.5953 17.5082 17.1898C17.8143 17.0876 18.1026 16.9748 18.3802 16.8514C18.0456 17.6693 17.5509 18.3497 16.9031 18.8573ZM18.7682 15.5082C18.309 15.7867 17.7822 16.03 17.1843 16.2274C16.1272 16.5799 14.9384 16.7703 13.6748 16.802C13.9773 15.0006 14.1233 12.91 14.1233 10.8758C14.1233 10.481 14.1197 10.0826 14.1055 9.68779C15.3797 9.60318 16.5578 9.27532 17.5224 8.72536C18.4158 10.4775 18.8963 12.3248 18.8927 14.0663C18.8927 14.574 18.85 15.057 18.7682 15.5082Z" fill="#3F6587"/>
</svg>
