<svg width="47" height="47" viewBox="0 0 47 47" fill="none" xmlns="http://www.w3.org/2000/svg">
<path d="M37.5187 4H35.8419C35.1049 4 35.1049 5.14274 35.8419 5.14274H37.5187C39.2504 5.14274 40.6592 6.54649 40.6592 8.27188V21.4951C40.6592 23.2206 39.2504 24.6243 37.5187 24.6243H35.617C35.4915 24.6243 35.3695 24.6656 35.2698 24.7419L31.7802 27.4112V25.1957C31.7802 24.8801 31.5244 24.6243 31.2088 24.6243H24.2548C23.6853 24.6243 23.138 24.474 22.6554 24.1882V17.7742C22.6554 16.5728 22.0435 15.5114 21.1143 14.8834V8.27188C21.1143 6.54649 22.5231 5.14274 24.2548 5.14274H32.2613C32.9983 5.14274 32.9983 4 32.2613 4H24.2548C21.893 4 19.9715 5.91638 19.9715 8.27188V14.3812C19.7099 14.3187 19.4373 14.2847 19.1568 14.2847H8.6972C6.76817 14.2847 5.19873 15.8501 5.19873 17.7742V19.008C5.19873 19.745 6.34147 19.745 6.34147 19.008V17.7742C6.34147 16.4802 7.39821 15.4274 8.6972 15.4274H19.1569C20.4559 15.4274 21.5127 16.4802 21.5127 17.7742V24.4157C21.5058 24.4662 21.5061 24.517 21.5127 24.567V28.2019C21.5127 28.2737 21.5083 28.3452 21.5019 28.4164H20.3235C19.0252 28.4164 17.9428 29.3535 17.7183 30.5852C17.6664 30.6047 17.6165 30.6321 17.5702 30.6677L15.0147 32.641V31.12C15.0147 30.8045 14.7589 30.5487 14.4433 30.5487H8.6972C7.39821 30.5487 6.34147 29.4959 6.34147 28.2019V22.4363C6.34147 21.6993 5.19873 21.6993 5.19873 22.4363V28.2019C5.19873 30.1261 6.76817 31.6915 8.6972 31.6915H13.872V33.804C13.872 34.2624 14.4285 34.5373 14.7926 34.2563L17.675 32.0308V38.4587C17.675 39.9157 18.8632 41.101 20.3236 41.101H23.8299V42.4343C23.8299 42.8924 24.3865 43.1677 24.7505 42.8866L27.0631 41.101H27.7463C29.2067 41.101 30.3949 39.9157 30.3949 38.4587V37.4443C30.3949 36.7073 29.2522 36.7073 29.2522 37.4443V38.4587C29.2522 39.2856 28.5767 39.9582 27.7463 39.9582H26.8681C26.7417 39.9582 26.6189 40.0001 26.519 40.0773L24.9726 41.2712V40.5295C24.9726 40.214 24.7169 39.9582 24.4012 39.9582H20.3235C19.4932 39.9582 18.8176 39.2855 18.8176 38.4587V31.0587C18.8176 30.2318 19.4932 29.5592 20.3235 29.5592H27.7463C28.5766 29.5592 29.2522 30.2319 29.2522 31.0587V33.8637C29.2522 34.6007 30.3949 34.6007 30.3949 33.8637V31.0588C30.3949 29.6018 29.2067 28.4165 27.7463 28.4165H22.6489C22.6532 28.3452 22.6554 25.4593 22.6554 25.4593C23.1592 25.6618 23.6994 25.7671 24.2549 25.7671H30.6375V28.5676C30.6375 29.0248 31.1916 29.3 31.556 29.0214L35.8105 25.7671H37.5188C39.8805 25.7671 41.802 23.8507 41.802 21.4952V8.27188C41.8019 5.91638 39.8805 4 37.5187 4V4Z" fill="#3F6587"/>
<path d="M32.3143 8.22155C31.5888 8.03635 30.8496 8.60955 30.8496 9.35919C30.8496 10.1782 30.5511 10.9676 30.0095 11.5814L28.4353 13.3628C28.3333 13.2064 28.1572 13.1028 27.9566 13.1028H24.8834C24.5678 13.1028 24.312 13.3586 24.312 13.6742V20.5889C24.312 20.9045 24.5678 21.1603 24.8834 21.1603H27.9566C28.1875 21.1603 28.3859 21.0231 28.476 20.8261C29.0982 21.2062 29.8192 21.4118 30.5528 21.4118H35.984C36.8139 21.4118 37.4986 20.6916 37.4597 19.8638C37.4424 19.4972 37.4613 14.5748 37.4613 14.4655C37.4613 13.651 36.7985 12.9882 35.9857 12.9882L33.1613 12.9797L33.2783 12.7028C33.8127 11.4372 33.7247 9.96957 33.0432 8.77677C32.8841 8.4981 32.6252 8.30101 32.3143 8.22155C32.0034 8.14217 32.6252 8.30101 32.3143 8.22155C31.5889 8.03635 32.6252 8.30101 32.3143 8.22155V8.22155ZM27.3852 20.0176H25.4548V14.2456H27.3852V20.0176ZM35.984 14.1308C36.1685 14.1308 36.3186 14.2809 36.3186 14.4654C36.3186 14.5741 36.3174 14.8692 36.3159 15.2692C36.3075 17.4779 36.3018 19.5698 36.3181 19.9175C36.3241 20.0429 36.263 20.1266 36.2262 20.1653C36.1623 20.2322 36.0763 20.269 35.984 20.269H30.5528C29.9054 20.269 29.2717 20.0446 28.7685 19.6373L28.528 19.4425V14.9835L30.8661 12.3377C31.5924 11.5146 31.9923 10.4568 31.9923 9.35912C31.9923 9.32681 32.0364 9.31843 32.0511 9.34357C32.5571 10.229 32.6223 11.3185 32.2256 12.2581L31.7747 13.3261C31.7002 13.5023 31.719 13.704 31.8243 13.8635C31.9298 14.023 32.1081 14.1192 32.2993 14.1198L35.984 14.1308Z" fill="#F37A20"/>
<path d="M10.0909 23.8454C9.77528 23.8454 9.51953 24.1012 9.51953 24.4168C9.51953 24.7323 9.77528 24.9881 10.0909 24.9881H11.7752L11.4605 26.8911C11.409 27.2024 11.6197 27.4965 11.931 27.548C11.9626 27.5533 11.994 27.5558 12.0249 27.5558C12.2994 27.5558 12.5416 27.3573 12.5879 27.0775L12.9334 24.9882H14.3117L13.9971 26.8912C13.9456 27.2025 14.1563 27.4966 14.4676 27.5481C14.4992 27.5534 14.5305 27.5559 14.5615 27.5559C14.836 27.5559 15.0782 27.3574 15.1245 27.0776L15.4699 24.9883H17.7625C18.0781 24.9883 18.3339 24.7325 18.3339 24.4169C18.3339 24.1014 18.0781 23.8455 17.7625 23.8455H15.6589L15.8893 22.4517H17.7625C18.0781 22.4517 18.3339 22.1959 18.3339 21.8803C18.3339 21.5648 18.0781 21.309 17.7625 21.309H16.0783L16.3929 19.406C16.4444 19.0947 16.2337 18.8006 15.9224 18.7491C15.6107 18.6974 15.317 18.9083 15.2655 19.2196L14.9201 21.3089H13.5417L13.8563 19.4059C13.9078 19.0946 13.6971 18.8005 13.3858 18.749C13.0738 18.6973 12.7805 18.9082 12.7289 19.2195L12.3835 21.3088H10.0909C9.77528 21.3088 9.51953 21.5646 9.51953 21.8802C9.51953 22.1957 9.77528 22.4516 10.0909 22.4516H12.1945L11.9641 23.8454H10.0909ZM13.3528 22.4516H14.7312L14.5007 23.8454H13.1224L13.3528 22.4516Z" fill="#F37A20"/>
<path d="M24.0281 32.5073C23.5667 32.1275 22.9529 31.9776 22.3372 32.1273C21.5481 32.3189 20.752 33.0565 20.752 34.2723C20.752 35.0291 21.0281 35.6859 21.5962 36.2804C22.0602 36.7661 22.7299 37.2279 23.7674 37.778C23.8511 37.8224 23.943 37.8445 24.035 37.8445C24.1269 37.8445 24.2189 37.8224 24.3026 37.778C26.1126 36.8184 27.318 35.8551 27.318 34.2723C27.318 33.0499 26.4935 32.3198 25.6764 32.1386C25.0625 32.0024 24.4673 32.147 24.0281 32.5073V32.5073ZM26.1751 34.2723C26.1751 35.126 25.6089 35.7574 24.0349 36.6238C22.461 35.7573 21.8946 35.126 21.8946 34.2723C21.8946 33.6371 22.2624 33.3214 22.6067 33.2378C22.6702 33.2224 22.7381 33.2137 22.808 33.2137C23.0669 33.2137 23.3516 33.3333 23.5272 33.6736C23.6272 33.8673 23.8294 33.9873 24.0463 33.9828C24.2641 33.9785 24.4606 33.8506 24.5527 33.6532C24.7376 33.2569 25.1264 33.1872 25.4287 33.2543C25.7896 33.3342 26.1751 33.6437 26.1751 34.2723V34.2723Z" fill="#F37A20"/>
</svg>
