<svg width="23" height="14" viewBox="0 0 23 14" fill="none" xmlns="http://www.w3.org/2000/svg">
<path d="M4.75977 9.88623H6.26833L6.53708 9.13724H7.34002L7.28839 9.88623H8.7857L8.80953 5.10733H6.80186L4.75977 9.88623ZM7.63061 5.97746H7.6412L7.43435 8.21383H6.85382L7.63061 5.97746Z" fill="white"/>
<path d="M9.97516 5.10733H11.869L12.0752 7.99936H12.0858L12.704 5.10733H13.9524L12.9301 9.88623H11.0475L10.8145 7.06867H10.8039L10.2012 9.88623H8.95312L9.97516 5.10733Z" fill="white"/>
<path d="M16.1182 6.41914C16.151 6.26523 16.1662 6.14476 16.141 6.05805C16.1159 5.971 16.0398 5.924 15.8875 5.924C15.7306 5.924 15.59 6.09809 15.5509 6.27847C15.3609 7.16912 17.5146 6.64023 17.1435 8.37418C16.8728 9.63916 16.0288 10.0347 15.1011 10.0347C14.1625 10.0347 13.2298 9.88044 13.5883 8.50823H15.0253C14.9912 8.69523 14.9694 8.84946 14.9886 8.96331C15.0084 9.07055 15.0654 9.13707 15.1898 9.13707C15.3851 9.13707 15.5648 8.95636 15.6151 8.72204C15.8412 7.66425 13.664 8.354 14.0384 6.60647C14.2846 5.45535 14.976 4.95988 16.0834 4.95988C17.4719 4.95988 17.6367 5.63606 17.4692 6.41914H16.1182Z" fill="white"/>
<path d="M18.2639 5.10733H19.7288L18.7071 9.88623H17.2422L18.2639 5.10733Z" fill="white"/>
<path d="M1.99483 8.68955C1.99483 4.64971 7.34134 1.37508 13.9363 1.37508C17.4571 1.37508 20.6212 2.30875 22.8066 3.79382C20.6341 1.85466 16.9908 0.582075 12.8613 0.582075C6.20412 0.582075 0.806641 3.88815 0.806641 7.96571C0.806641 10.2445 2.49261 12.2813 5.14104 13.6353C3.18798 12.3335 1.99483 10.5969 1.99483 8.68955Z" fill="white"/>
</svg>
