<svg width="25" height="26" viewBox="0 0 25 26" fill="none" xmlns="http://www.w3.org/2000/svg">
<path d="M20.5547 11.489C22.576 10.4931 23.9513 8.64421 23.9513 6.36731C23.9513 1.07013 19.0709 -0.0683166 14.6256 0.00308878H0V25.3917H14.9496C20.4821 25.3917 25 23.5426 25 17.4964C24.9995 14.616 23.3014 12.2711 20.5547 11.489ZM16.9782 9.01422C16.9711 9.01422 16.9641 9.01422 16.957 9.01422L15.1314 15.1074C16.1381 15.6914 16.473 16.9676 15.8793 17.958C15.2856 18.9483 13.9882 19.2777 12.9815 18.6936C11.9748 18.1096 11.64 16.8334 12.2337 15.8431C12.2951 15.7407 12.3652 15.6436 12.4435 15.553L9.71885 11.8095C9.38307 11.9549 9.02035 12.0304 8.65349 12.0311C8.54354 12.0301 8.43377 12.022 8.32492 12.0067L6.84884 17.6623C7.87681 18.2416 8.23279 19.5309 7.64394 20.5421C7.05509 21.5534 5.74439 21.9036 4.71642 21.3243C3.68845 20.745 3.33247 19.4557 3.92132 18.4444C4.30401 17.7872 5.01539 17.3822 5.7853 17.3832C5.83604 17.3832 5.88519 17.3872 5.93525 17.3903L7.41429 11.7287C6.0948 11.0579 5.57797 9.46184 6.2599 8.16384C6.94183 6.86583 8.56429 6.35741 9.88378 7.02824C11.2033 7.69907 11.7201 9.29513 11.0382 10.5931C10.9027 10.851 10.725 11.0851 10.5123 11.2862L13.2101 14.9934C13.4778 14.8758 13.7676 14.8144 14.0608 14.8132C14.1154 14.8132 14.1691 14.8164 14.2226 14.8204L16.043 8.74718C15.2225 8.23744 14.9774 7.16991 15.4956 6.36277C16.0137 5.55563 17.0989 5.31454 17.9194 5.82428C18.7399 6.33401 18.985 7.40155 18.4668 8.20868C18.1445 8.71077 17.5827 9.01493 16.9791 9.01422L16.9782 9.01422Z" fill="white"/>
</svg>
