<svg width="23" height="23" viewBox="0 0 23 23" fill="none" xmlns="http://www.w3.org/2000/svg">
<g clip-path="url(#clip0_6194_139157)">
<path d="M11.8066 22.1084C17.8818 22.1084 22.8066 17.1835 22.8066 11.1084C22.8066 5.03327 17.8818 0.108398 11.8066 0.108398C5.73151 0.108398 0.806641 5.03327 0.806641 11.1084C0.806641 17.1835 5.73151 22.1084 11.8066 22.1084Z" fill="white"/>
<path d="M11.8062 21.5807C17.5899 21.5807 22.2785 16.8921 22.2785 11.1085C22.2785 5.32482 17.5899 0.63623 11.8062 0.63623C6.02257 0.63623 1.33398 5.32482 1.33398 11.1085C1.33398 16.8921 6.02257 21.5807 11.8062 21.5807Z" fill="#F3F6F9"/>
<path d="M11.8057 21.1719C17.3636 21.1719 21.8692 16.6663 21.8692 11.1084C21.8692 5.5505 17.3636 1.04492 11.8057 1.04492C6.24777 1.04492 1.74219 5.5505 1.74219 11.1084C1.74219 16.6663 6.24777 21.1719 11.8057 21.1719Z" fill="white"/>
<path d="M14.0571 17.3726C12.36 17.5886 11.5212 17.0512 10.1953 15.9536C10.304 16.6049 10.7722 17.11 11.1609 17.3939C11.516 17.6546 12.2643 17.8408 12.7584 17.8408C13.2525 17.8408 13.7117 17.5627 14.0571 17.3726" fill="#F3F6F9"/>
<path d="M10.5137 18.5095C10.5997 18.5218 10.654 18.3705 10.5816 18.3226C10.4529 18.236 10.3391 18.0918 10.4535 17.7451C10.3067 17.7542 9.94324 17.5659 9.79513 16.9308C9.71105 17.5459 10.0842 18.4468 10.5137 18.5095" fill="#F3F6F9"/>
<path d="M11.6238 18.1141C11.5029 17.7526 10.8031 17.7021 10.7319 17.5197C10.6724 17.7273 10.578 17.737 10.5605 18.0798C10.869 17.8282 11.1724 18.235 11.2978 18.4142C11.4233 18.5933 11.7383 18.4569 11.6238 18.1141Z" fill="#F3F6F9"/>
<path d="M12.2839 18.509C12.2154 18.3952 12.0666 18.3977 11.8978 17.9773C11.7122 18.2031 11.8182 18.4404 11.9321 18.5432C12.0466 18.6461 12.2542 18.5795 12.2839 18.509" fill="#F3F6F9"/>
<path d="M11.1279 11.9767C9.31826 11.9767 9.04016 14.6355 9.04016 15.6742C9.04016 15.8637 9.03369 16.2136 9.02916 16.3611L8.58743 14.6064C8.47878 14.6064 8.41087 14.8574 8.43738 14.9634L9.66492 19.8723C9.7102 20.0411 9.73801 20.162 9.85378 20.1381C9.98636 20.1103 9.90034 19.8399 9.868 19.6964L9.36936 17.7102C9.48383 17.478 9.58214 17.1766 9.63323 16.8798C9.5194 16.8798 9.27946 16.8455 9.24518 16.7084C9.61059 16.6967 9.66557 16.5971 9.67204 16.5402C9.80721 15.2758 9.65328 13.7236 10.1843 12.8951C10.7178 12.0621 11.8516 12.1927 12.2746 12.1468C12.0573 12.0097 11.4855 11.9767 11.1279 11.9767" fill="#F3F6F9"/>
<path d="M7.14844 18.8172C7.74863 18.9718 8.71617 18.6303 9.00074 18.1789C8.96194 17.9985 8.92766 17.8781 8.87721 17.6621C8.82094 17.9189 8.70323 18.1543 8.48593 18.3542C8.05713 18.0709 7.93748 18.6969 7.14844 18.8172" fill="#F3F6F9"/>
<path d="M10.406 11.1619C9.33178 11.3333 9.02004 11.0714 8.67468 11.118C8.16891 11.1865 7.91733 11.5241 8.01175 11.8494C8.02857 11.7214 8.29762 11.4439 8.53756 11.4782C8.41727 11.6037 8.34095 11.7104 8.38299 11.8384C8.37846 11.8242 8.47806 11.9115 8.62294 11.7867C8.89522 11.5513 9.30073 11.5041 9.61764 11.5041C9.99858 11.5041 10.3737 11.4426 10.5263 11.312C10.582 11.2654 10.4558 11.1542 10.406 11.1619" fill="#F3F6F9"/>
<path d="M20.3907 6.37649C19.7575 6.93593 19.5499 6.6617 19.0636 6.81628C19.0396 6.82404 19.0532 6.75611 19.0273 6.76646C19.6605 5.92762 20.1423 6.47091 20.3907 6.37649Z" fill="#F3F6F9"/>
<path d="M19.8255 7.30859C19.8313 7.01432 19.4795 6.62111 18.9395 6.8313C19.3553 7.25428 19.614 7.20835 19.8255 7.30859Z" fill="#F3F6F9"/>
<path d="M15.3752 16.7816C15.4017 16.7143 15.4909 16.6665 15.4017 16.5999C15.0874 16.3657 15.3448 16.2623 15.2419 16.1769C14.9328 15.9479 14.5557 16.2972 14.0927 15.6453C14.3158 15.7397 14.5997 15.9473 14.8843 15.8574C14.6075 14.9701 14.0927 13.6222 13.9879 13.0673C13.9523 12.8862 13.909 12.6178 13.4679 12.6178C13.1904 12.6178 13.0352 12.6695 12.8949 12.7387C12.9311 12.6437 13.259 12.4568 13.4757 12.4303C12.4124 12.2272 10.6015 12.1146 10.3091 13.4728C10.2432 13.7781 10.6248 14.214 11.6395 13.8564C11.787 13.8033 11.9603 13.9165 11.7352 14.1332C11.5095 14.3498 10.7561 14.8698 10.0977 14.4106C10.2445 14.6357 10.7037 14.7909 11.0684 14.7909C11.4319 14.7909 12.0353 14.7275 12.318 13.9475C12.3956 13.9475 12.8412 13.9301 13.1497 13.4676C13.0533 14.1196 12.8295 14.3434 12.6012 14.5135C12.446 14.8491 12.0897 15.589 11.051 15.589C10.789 15.589 10.6448 15.5806 10.4062 15.4221C10.9229 16.087 13.2525 17.9089 15.1676 16.9142C15.1449 17.017 14.9166 17.2453 14.6676 17.343C14.1819 17.5338 13.8404 18.0913 12.3438 18.1721C12.3768 18.652 13.1471 18.5434 13.3211 18.4839C13.0294 18.4405 12.8774 18.3849 12.858 18.3092C13.4065 18.3396 14.0015 18.2749 14.687 17.9658C14.6185 18.1204 14.579 18.229 14.4244 18.2976C15.3331 18.3713 15.6365 17.6217 15.8512 17.5454C15.8053 17.3611 15.4289 16.832 15.3752 16.7816" fill="#F3F6F9"/>
<path d="M11.2453 10.3977C11.1612 10.6131 10.748 10.8608 10.834 11.2036C10.834 11.1008 11.321 10.6681 11.4342 10.4495C11.6689 9.99352 11.537 9.8493 11.451 9.43731C11.4419 9.79173 11.3863 10.0362 11.2453 10.3977" fill="#F3F6F9"/>
<path d="M8.22731 14.753C8.31009 14.852 8.36183 15.059 8.47307 15.0674C8.45044 15.0422 8.49894 14.8443 8.42715 14.7472C8.37024 14.4497 8.39611 14.3133 8.43297 14.29C8.57009 14.2007 8.52416 14.5254 8.62377 14.6069C8.64899 14.6282 8.68391 14.6535 8.7266 14.6263C8.72078 14.5493 8.7072 14.4432 8.72466 14.2919C8.66451 14.1548 8.62183 13.8741 8.62183 13.8612C8.50606 13.6788 8.39287 13.5242 8.21566 13.3923C8.14646 13.3063 8.07467 13.1691 7.98413 13.0366C7.79786 12.7656 7.46025 11.9532 7.16404 11.3007C6.96419 10.8589 6.74106 10.6371 6.80962 10.5116C6.90469 10.3487 6.95773 10.2452 7.003 10.1262C6.92409 9.82284 6.67962 8.87533 6.54575 8.34306C6.13829 9.07777 6.15899 10.0447 6.06133 10.3868C5.9572 10.7509 6.0872 10.7762 6.11242 10.9456C6.1965 11.4889 6.67121 12.2572 6.9836 12.5825C7.1621 12.7681 7.69761 13.3366 7.69761 13.5695C7.72154 13.6639 7.75582 13.8353 7.74741 14.0326C7.77587 14.1205 7.82373 14.107 7.87612 14.1613C7.90134 14.1878 7.90781 14.2796 7.96472 14.3075C7.99447 14.3217 8.00935 14.3268 8.09019 14.387C8.13158 14.418 8.17492 14.6903 8.22731 14.753" fill="#F3F6F9"/>
<path d="M12.3003 11.4262C12.1515 11.5406 11.6678 11.2573 11.3399 11.2974C11.1174 11.3317 11.0068 11.4721 10.8917 11.4889C10.2255 11.3576 9.47785 11.8006 9.11179 12.353C9.05358 12.4403 8.97079 12.5069 8.95915 12.6266C8.94816 12.7469 9.04194 12.7811 8.97338 12.9525C8.83174 13.4337 8.83627 13.8256 8.8906 14.1587C9.01671 13.7124 9.39377 12.1809 10.8341 11.8892C10.4739 11.8207 9.95386 11.9753 9.59944 12.124C9.99978 11.6661 10.6621 11.6778 11.0999 11.7004C11.1232 11.6991 11.0113 11.6092 10.9712 11.5232C11.063 11.5232 11.1633 11.6292 11.4686 11.615C11.8036 11.5988 11.9252 11.5827 12.1114 11.5549C11.8327 11.6946 11.6167 11.7916 11.2228 11.8032C12.332 12.1467 12.5376 11.7347 13.1204 11.6435C13.0408 11.4947 12.6864 11.3919 12.3003 11.4262" fill="#F3F6F9"/>
<path d="M7.55561 14.4648C7.31696 13.3673 6.51045 12.652 5.89086 12.4877C5.86952 12.4819 5.57395 13.4973 5.60823 14.4622C6.25951 14.415 7.0699 14.4319 7.55561 14.4648" fill="#F3F6F9"/>
<path d="M5.74219 15.7078C5.94203 16.731 6.21691 17.357 6.4271 17.7412C6.93416 17.4883 7.55698 16.8907 7.65852 15.649C6.94839 15.616 6.25377 15.6703 5.74219 15.7078" fill="#F3F6F9"/>
<path d="M4.6691 12.6405C4.14846 12.9386 3.62006 13.628 3.5625 14.7734C3.78563 14.7159 4.10319 14.6389 4.40328 14.5936C4.39164 14.1707 4.40328 13.4799 4.6691 12.6405Z" fill="#F3F6F9"/>
<path d="M3.71289 15.9589C4.02915 17.0869 4.76193 17.5952 5.19331 17.7666C4.83954 17.1063 4.65392 16.4815 4.53362 15.8341C4.17144 15.8833 3.90756 15.924 3.71289 15.9589" fill="#F3F6F9"/>
<path d="M9.18749 11.8496C8.36417 11.9583 8.40621 12.6167 8.48447 12.7642C8.65198 12.3903 8.74188 12.2383 9.18749 11.8496Z" fill="#F3F6F9"/>
<path d="M7.61126 9.44727C7.78459 9.32632 7.78459 9.03076 7.75807 8.893C7.62872 9.0922 7.56858 9.28299 7.61126 9.44727Z" fill="#F3F6F9"/>
<path d="M19.1601 6.2217C18.6026 6.24757 18.3542 6.42154 18.2656 7.00879C19.1743 6.66601 18.9428 6.31289 19.1601 6.2217Z" fill="#F3F6F9"/>
<path d="M10.6626 8.38607C10.6083 8.71462 10.3308 8.71786 10.217 8.86596C10.1736 8.80646 10.2338 8.62343 10.2681 8.54582C9.95116 8.76054 9.7539 9.09618 9.7539 9.36911C9.66788 9.22617 9.51913 8.74048 9.09615 8.59173C8.96809 8.54646 9.03536 8.67581 9.09615 8.80904C9.15695 8.94227 9.27207 9.26629 9.26819 9.57544C9.26431 9.78499 9.14466 9.98352 9.07675 10.0126C9.16471 9.33483 8.76501 8.54582 8.67317 8.54582C8.50114 8.54582 8.2502 9.58644 8.60979 10.3587C7.87314 9.46097 8.30776 8.67969 8.30776 8.47725C8.30776 8.24313 8.28189 8.12802 8.09045 7.9631C8.18164 8.63766 7.8906 8.8944 7.78518 9.45125C7.73279 9.72807 7.73344 9.94603 7.82463 10.0741C7.91388 10.2034 8.08075 10.3554 8.14154 10.4324C8.20234 10.51 8.44552 10.8437 8.63889 10.8437C8.79929 10.8437 8.79864 10.6109 8.72233 10.5281C8.8077 10.5164 8.91053 10.5352 8.97068 10.5986C9.09615 10.7299 9.00949 10.847 9.0567 10.8437C9.29923 10.8269 9.6252 9.9609 9.70087 9.69185C9.95957 10.3813 9.46286 10.9653 9.53724 10.9634C9.7539 10.9582 10.1542 10.4608 10.2817 10.2662C10.2875 10.3024 10.2888 10.3379 10.2771 10.3813C10.237 10.53 10.2034 10.7241 10.2681 10.7241C10.4757 10.7241 10.5856 10.0689 10.6057 9.81537C10.6257 9.56184 10.9711 9.42667 10.9465 9.01016C10.9375 8.86076 10.7997 8.5374 10.8508 8.39317C11.0015 8.47854 11.1186 8.53932 11.2188 8.5943C11.3501 8.66544 11.6806 8.77605 11.8041 8.80904C12.1741 8.90605 12.6902 9.04443 12.824 9.0813C12.9773 9.12334 13.0381 9.16605 13.1487 9.16605C13.7211 9.16605 14.5658 8.71072 14.6492 8.64605C14.7397 8.5762 14.9758 8.45331 15.1317 8.35824C15.2811 8.25152 15.5527 8.08856 15.715 8.03747C15.7991 8.00707 15.8631 8.02322 15.9194 8.05168C16.1044 8.14352 16.2059 8.1901 16.4168 8.21273C16.2551 8.42487 15.9925 8.72754 15.8457 9.03022C15.8703 9.06126 15.942 9.09362 15.9686 9.11173C16.2008 8.71786 16.4446 8.38284 16.6858 8.12155C16.702 8.10408 16.5875 8.08338 16.6043 8.00577C16.6166 7.99348 16.8404 8.12155 16.9904 8.07434C17.0001 8.06528 17.0629 8.07431 17.0545 7.99282C17.1276 7.9676 17.1476 7.90422 17.1405 7.88999C16.96 7.86024 16.8216 7.83309 16.7615 7.83697C16.7434 7.84085 16.6832 7.87058 16.6942 7.91391C16.6599 7.9165 16.6095 7.93075 16.6063 7.96503C16.2719 8.10214 15.9233 7.71732 15.6471 7.8001C15.7403 7.62031 16.191 7.81302 16.3993 7.81625C16.6858 7.82142 16.733 7.70566 17.1191 7.82596C17.3546 7.87705 17.405 7.77227 17.2304 7.70177C17.0952 7.6468 16.8643 7.60346 16.7686 7.55366C16.9387 7.55172 17.1062 7.52586 17.3287 7.61576C17.374 7.61446 17.363 7.59378 17.372 7.58149C17.4179 7.51876 18.1223 7.04987 19.0633 6.81639L19.0782 6.7239C18.641 6.80151 18.2251 6.93861 17.3009 7.46248C17.2769 7.45083 17.2019 7.42562 16.9562 7.3797C16.5616 7.42562 15.7694 7.42435 15.5669 7.50843C14.5554 7.92882 13.7838 7.98893 13.3376 8.24569C13.0834 8.39251 12.7581 8.10535 12.652 8.03162C12.392 7.85183 12.306 7.82661 12.0913 7.72313C12.0085 7.6882 11.6159 7.46118 11.5364 7.44566C11.1257 7.49869 10.7396 8.0601 10.6626 8.38607" fill="#F3F6F9"/>
<path d="M8.32362 7.93983C8.54804 8.19918 8.9749 8.45983 9.43797 8.30525C8.76923 8.15973 8.25183 6.78536 7.49771 6.73945C7.33731 6.7278 7.09737 6.78472 6.85742 7.10486C7.71437 6.77372 8.11342 7.6973 8.32362 7.93983" fill="#F3F6F9"/>
<path d="M18.2885 6.24754C18.1624 6.25336 17.568 6.41895 17.7284 7.25391C18.3513 6.84192 18.2083 6.37301 18.2885 6.24754Z" fill="#F3F6F9"/>
<path d="M17.5135 6.65959C16.9818 6.94222 17.126 7.23196 17.1163 7.43116L17.2476 7.48291C17.6422 7.08839 17.4624 6.7566 17.5135 6.65959Z" fill="#F3F6F9"/>
<path d="M16.5612 19.1893C16.2456 19.1156 16.0367 19.2042 15.7495 19.0063C15.5995 18.9028 15.108 18.6376 14.7891 18.5607C14.176 18.7877 13.9328 18.7094 13.6457 18.701C13.2919 18.8925 12.889 18.8291 12.5384 18.701C12.2079 18.9442 11.9259 18.8336 11.7824 18.7204C11.2223 19.0522 11.3038 18.5749 10.9254 18.5665C10.3705 18.9209 9.91 18.6855 9.68945 18.5477C9.74055 18.7638 9.8104 19.0102 9.86925 19.2618L16.6278 19.2656C16.6278 19.2656 16.7326 19.2294 16.5612 19.1893" fill="#F3F6F9"/>
<path d="M16.3926 19.5378H9.93928L10.0499 19.9893C10.1023 20.2486 10.0027 20.3928 9.8054 20.3864C9.62367 20.3812 9.53894 20.2984 9.47556 20.0565L9.34686 19.5378L7.26172 19.5385C7.48679 19.6723 9.26666 20.68 11.8116 20.6923C14.1348 20.7039 15.9011 19.8172 16.3926 19.5378Z" fill="#F3F6F9"/>
<path d="M6.05186 7.98511C4.62706 9.96224 5.28999 11.1568 5.4161 11.4097C5.34755 11.1128 5.22208 10.5353 5.4161 10.0321C5.4161 10.1194 5.45038 10.3981 5.65669 10.5921C5.61077 10.0896 5.39347 9.66084 6.24524 7.90297C6.30539 7.77297 6.17022 7.82084 6.05186 7.98511" fill="#F3F6F9"/>
<path d="M8.51612 16.1775C8.46826 15.9667 8.30851 15.3212 8.22831 15.0153C8.11448 14.8381 7.98578 14.7229 7.86354 14.655C7.87777 14.7178 7.8907 14.7818 7.90235 14.8477C7.95473 15.1569 7.97026 15.4984 7.93663 15.8444C7.82991 16.9426 7.264 18.0725 6.06427 18.2523C4.76429 18.4463 3.36084 16.9135 3.39253 15.0107C3.42357 13.108 4.55863 12.2323 5.42463 12.2239C5.82303 12.22 6.21561 12.3125 6.65088 12.6216C6.37601 12.1469 6.28158 11.8908 6.20268 11.6237C5.98149 11.5403 5.65811 11.4969 5.43757 11.5079C3.4378 11.6094 2.55757 14.102 3.03229 16.0623C3.21273 16.8081 3.57233 17.5848 4.1557 18.1579C4.44932 18.4314 4.91887 18.8376 5.49319 18.9294C7.02405 19.2793 8.30592 17.9102 8.51612 16.1775" fill="#F3F6F9"/>
<path d="M6.01631 5.25862C6.04476 5.33882 7.76837 12.2772 7.80846 12.4383C7.83886 12.5605 7.90289 12.675 7.96951 12.6627C8.01672 12.653 8.08786 12.5741 8.04259 12.4098C8.04259 12.4098 7.3221 9.58022 7.29688 9.45992C7.51096 9.11714 7.55946 8.614 7.75931 8.3553C7.88025 8.52087 7.89513 8.34686 7.89836 8.21686C7.91971 7.35086 7.44563 7.21375 7.34539 7.20793C6.925 7.18206 6.85191 7.66327 6.85191 7.66327L6.24332 5.21011C6.35909 5.19265 6.44511 5.24438 6.5253 5.32135C6.50137 5.06653 6.23491 4.19406 5.75049 3.93665C5.49761 4.74251 5.71363 5.29289 5.78218 5.52184C5.80611 5.4203 5.86755 5.2929 6.01631 5.25862" fill="#F3F6F9"/>
<path d="M9.10267 18.5625C8.57686 18.9279 7.68822 19.1349 7.19087 19.1517C6.93346 19.1582 6.92634 19.2332 6.93928 19.2662C7.14171 19.2694 9.28247 19.2629 9.28247 19.2629C9.28247 19.2629 9.14859 18.7339 9.10267 18.5625" fill="#F3F6F9"/>
<path d="M18.3633 7.00245C19.1653 6.98111 19.2681 7.38403 19.2552 7.56836C19.1821 7.4998 18.5689 7.55154 18.3633 7.00245Z" fill="#F3F6F9"/>
<path d="M17.8027 7.2766C18.1287 7.75132 18.518 7.7067 18.7231 7.77979C18.4831 7.17378 17.9392 7.24556 17.8027 7.2766Z" fill="#F3F6F9"/>
<path d="M17.8071 7.60844C17.6862 7.54894 17.4275 7.48104 17.293 7.55736C17.293 7.55736 17.3499 8.09414 18.1842 7.9913C18.1965 8.02041 17.932 7.67117 17.8071 7.60844" fill="#F3F6F9"/>
<path d="M16.4358 18.9376C16.5632 18.9383 16.8019 18.9719 17.0302 18.7888C17.1932 18.8406 17.2747 18.706 17.3044 18.6291C17.1563 18.5605 16.6997 18.3038 16.4675 18.0975C16.269 17.9209 16.1687 17.7902 15.9902 17.7262C15.7503 17.8413 15.3823 18.3672 15.2012 18.4002C15.6241 18.5722 15.9249 18.9363 16.4358 18.9376" fill="#F3F6F9"/>
<path d="M16.6145 14.6126C16.586 14.729 16.4069 14.786 16.2141 14.7388C16.022 14.6915 15.8894 14.559 15.9179 14.4425C16.0376 14.4548 16.1443 14.4089 16.3176 14.3164C16.3732 14.4399 16.5103 14.5234 16.6145 14.6126Z" fill="#F3F6F9"/>
<path d="M16.7459 15.3792C16.8914 15.4309 17.0466 15.4193 17.141 15.3675C17.1675 15.4574 17.1197 15.6243 16.9729 15.742C16.8054 15.8772 16.5816 15.903 16.5156 15.8209C16.678 15.7446 16.7588 15.559 16.7459 15.3792" fill="#F3F6F9"/>
<path d="M16.1511 16.0194C16.3192 16.0989 16.4214 16.2386 16.3917 16.3686C16.3548 16.5316 16.1246 16.6177 15.8775 16.5614C15.6304 16.5051 15.4603 16.3279 15.4972 16.1649C15.5153 16.0841 15.5813 16.0226 15.6725 15.9871C15.73 16.0317 15.9693 16.0724 16.1511 16.0194" fill="#F3F6F9"/>
<path d="M15.9854 15.4101C15.9776 15.4101 15.9699 15.4108 15.9615 15.4114C15.7332 15.3261 15.6795 15.2077 15.6911 15.0583C15.5721 15.0583 15.3231 15.0783 15.3451 15.2685C15.3593 15.3875 15.4965 15.4942 15.6556 15.5246C15.6135 15.5647 15.5896 15.6119 15.5902 15.6637C15.5922 15.8008 15.772 15.9088 15.9919 15.9062C16.2124 15.903 16.3896 15.7891 16.3877 15.6527C16.3857 15.5155 16.206 15.4069 15.9854 15.4101" fill="#F3F6F9"/>
<path d="M17.4179 16.7013C17.3248 16.8527 17.0771 16.8701 16.8656 16.7394C16.6534 16.6094 16.5577 16.3812 16.6509 16.2298C16.744 16.0778 16.991 16.0604 17.2032 16.191C17.4153 16.321 17.511 16.55 17.4179 16.7013Z" fill="#F3F6F9"/>
<path d="M18.7217 17.9987C18.7217 18.3227 18.4241 18.5859 18.0574 18.5859C17.6901 18.5859 17.3926 18.3227 17.3926 17.9987C17.3926 17.6746 17.6901 17.4114 18.0574 17.4114C18.4241 17.4114 18.7217 17.6746 18.7217 17.9987Z" fill="#F3F6F9"/>
<path d="M19.04 15.6325C19.1435 15.6772 19.2179 15.7541 19.2366 15.8511C19.2729 16.04 19.0892 16.234 18.8259 16.2845C18.5627 16.3356 18.3202 16.2243 18.284 16.0361C18.2659 15.9423 18.3014 15.8486 18.3732 15.771C18.4566 15.8292 18.8809 15.855 19.04 15.6325" fill="#F3F6F9"/>
<path d="M19.3055 16.907C19.03 16.8979 18.8134 16.6948 18.8205 16.4529C18.9744 16.4743 19.3062 16.3139 19.3327 16.0299C19.6076 16.0384 19.8249 16.2415 19.8171 16.484C19.81 16.7259 19.5811 16.9154 19.3055 16.907Z" fill="#F3F6F9"/>
<path d="M17.6211 16.9346C18.2601 16.9908 18.4237 16.7134 18.4806 16.4547C18.5143 16.4695 18.5453 16.487 18.5744 16.5064C18.7219 16.6041 18.8105 16.7522 18.7956 16.9093C18.7717 17.1635 18.4871 17.344 18.1585 17.3129C17.8908 17.2877 17.678 17.1299 17.6211 16.9346" fill="#F3F6F9"/>
<path d="M16.3474 17.4321C16.3894 17.3338 16.478 17.2653 16.5906 17.2316C16.5964 17.3571 16.749 17.7956 17.4068 17.685C17.3854 17.7335 17.3816 17.8493 17.4469 17.901C17.3537 18.1177 17.0336 18.1895 16.7296 18.0601C16.4256 17.9308 16.2549 17.6494 16.3474 17.4321" fill="#F3F6F9"/>
<path d="M16.6197 17.0789C16.5731 17.227 16.3429 17.2865 16.1055 17.2121C15.8675 17.1377 15.7117 16.9573 15.7582 16.8098C15.8333 16.8454 16.0389 16.8887 16.2724 16.6766C16.5104 16.751 16.6663 16.9308 16.6197 17.0789Z" fill="#F3F6F9"/>
<path d="M17.6613 17.4575C17.5765 17.4827 17.4815 17.4976 17.3806 17.4976C17.03 17.4976 16.7461 17.3249 16.7461 17.1115C16.8114 17.0946 17.1005 17.1768 17.4317 16.8683C17.4032 17.0856 17.4892 17.3346 17.6613 17.4575" fill="#F3F6F9"/>
<path d="M18.1177 14.4318C17.8143 14.6219 17.586 14.6562 17.4961 14.587C17.7762 14.5132 17.9728 14.338 17.9353 14.1957C17.9036 14.076 17.7154 14.0179 17.489 14.047C17.4696 14.1821 17.4198 14.3587 16.9289 14.3626C16.9147 14.3975 16.9108 14.4311 16.9192 14.4641C16.9464 14.5663 17.0874 14.6232 17.2685 14.62C17.1799 14.8334 16.9399 14.9194 16.6838 14.8858C16.676 15.054 16.8888 15.2001 17.1592 15.213C17.4295 15.2253 17.6546 15.0992 17.6623 14.9304C17.663 14.9246 17.6623 14.9188 17.6623 14.9123C17.7134 14.9259 17.7684 14.9356 17.8266 14.9388C18.1008 14.9537 18.3298 14.8405 18.3388 14.6846C18.344 14.5831 18.2554 14.4893 18.1177 14.4318" fill="#F3F6F9"/>
<path d="M15.7734 14.6766C15.7734 14.5382 15.5432 14.4257 15.2599 14.4257C15.2489 14.4257 15.2315 14.4244 15.214 14.4231C15.1707 13.8184 15.1267 13.1581 15.1332 12.7752C15.137 12.5695 15.0989 12.3522 14.8234 12.25C14.5724 12.1569 13.6657 11.8096 13.3798 11.7443C13.0241 11.7475 12.7124 11.9506 12.4355 12.1465C12.517 12.144 12.539 12.1323 12.6108 12.1342C12.9976 12.1452 13.1153 12.1291 13.4755 12.2319C13.7097 12.2992 13.9289 12.4201 13.9878 12.5236C14.0654 12.662 14.3383 12.8877 14.4489 12.8877C14.5595 12.8877 14.7186 12.7829 14.9249 12.6355C14.8732 12.9524 14.7173 13.0895 14.6073 13.2324C14.4968 13.3753 14.436 13.6897 14.5162 14.0674C14.5847 13.8953 14.5892 13.5312 14.8816 13.3696C14.749 13.6121 14.7445 14.2976 14.7445 14.5699C14.7445 14.8422 14.9501 15.2445 15.2819 15.8848C15.3136 15.747 15.2813 15.4592 15.2483 14.9269C15.2522 14.9269 15.256 14.9276 15.2599 14.9276C15.5432 14.9276 15.7734 14.815 15.7734 14.6766" fill="#F3F6F9"/>
<path d="M18.0835 16.0395C17.982 16.1759 17.8876 16.423 17.5273 16.4915C17.6205 16.6416 17.8695 16.683 18.1081 16.5815C18.1618 16.5582 18.2103 16.5297 18.2536 16.4974C18.1159 16.3085 18.09 16.1966 18.0835 16.0395" fill="#F3F6F9"/>
<path d="M18.8165 14.95C18.5649 14.8426 18.3159 14.8627 18.2596 14.994C18.2357 15.0509 18.2732 15.1822 18.3547 15.2514C18.2434 15.2469 18.1749 15.2294 18.0675 15.0794C17.9569 15.1317 17.8431 15.1039 17.7823 15.0974C17.7577 15.1718 17.7713 15.2527 17.8146 15.3271C17.6872 15.2786 17.5197 15.3005 17.3749 15.3976C17.1621 15.5392 17.0793 15.7875 17.1892 15.9525C17.2992 16.1167 17.5605 16.1355 17.7726 15.9932C17.9615 15.8677 18.0475 15.6582 17.988 15.4978C18.0268 15.5211 18.0701 15.5418 18.1167 15.5573C18.3359 15.6304 18.5558 15.5754 18.638 15.4351C18.8811 15.5308 19.1166 15.5088 19.1709 15.382C19.2265 15.2507 19.0681 15.0574 18.8165 14.95" fill="#F3F6F9"/>
<path d="M8.3384 5.2956C7.69811 5.7645 8.15472 6.32782 7.62891 6.60786C8.24074 6.58846 8.07581 5.70694 8.3384 5.2956ZM10.4733 4.63981C10.4902 4.63399 10.4559 4.51239 10.2502 4.52403C10.5121 4.38239 10.7016 4.52853 10.6965 4.55375C10.6835 4.61843 10.6124 4.64819 10.6046 4.69799C10.602 4.71869 10.6505 4.73226 10.6622 4.75231C10.6376 4.75166 10.5949 4.77172 10.5736 4.77236C10.5645 4.79241 10.5419 4.86485 10.5205 4.86679C10.3918 4.86291 10.3162 4.72515 10.2334 4.69993C10.2521 4.70769 10.3336 4.65468 10.4733 4.63981V4.63981ZM10.2011 4.00146C10.4585 3.91609 10.441 3.76991 10.344 3.58429C10.7928 3.80419 10.7327 4.0532 10.2011 4.00146ZM11.144 7.13434C10.8058 6.88792 10.7987 6.63504 10.6357 6.71653C10.8413 7.1628 10.8012 7.48291 10.1487 7.81081C10.104 7.69117 10.2696 7.62262 10.4009 7.49391C10.549 7.34969 10.6001 7.13561 10.5154 6.79671C10.4979 6.72751 10.3556 6.37372 10.0355 6.37954C10.2179 6.64212 10.4061 6.92479 10.236 7.3717C10.2353 6.99399 10.1551 6.87369 9.89772 6.56843C9.82334 6.66091 9.64355 6.77407 9.62673 6.98556C9.40942 6.87108 9.92359 6.29742 9.81623 6.04195C9.67071 5.96499 9.60216 5.79102 9.58211 5.61898C9.72763 5.76967 9.96369 5.90159 10.2496 5.94492C10.3808 5.96497 10.5154 5.95077 10.5412 5.85958C10.5671 5.76774 10.5212 5.74962 10.527 5.71017C10.5302 5.68818 10.5225 5.63644 10.6079 5.63903C10.6363 5.56013 10.604 5.53618 10.5613 5.50513C10.648 5.50513 10.6764 5.45017 10.6822 5.43076C10.6654 5.40037 10.6454 5.37966 10.6641 5.33504C10.6984 5.25031 10.8776 5.30208 10.8911 5.21089C10.8989 5.15915 10.864 5.11515 10.84 5.06017C10.8012 4.97222 10.7999 4.97351 10.7282 4.79889C10.6926 4.71093 10.7392 4.6275 10.754 4.49426C10.7708 4.34034 10.6984 4.13856 10.6984 4.13856C10.9274 3.98916 10.9028 3.76407 10.8051 3.7298C10.5652 3.66124 10.2011 3.20401 9.72957 3.16973C9.36932 3.14386 8.89784 3.14386 8.68312 3.41873C8.52596 3.61988 8.1877 3.92899 8.12626 4.25884C8.05835 4.61908 8.14372 4.99872 8.38432 5.17011C8.30412 4.8726 8.29959 4.7051 8.30606 4.53307C8.31317 4.34939 8.40049 3.63279 9.07376 3.3204C9.44629 3.22145 9.92683 3.22985 10.0808 3.48726C9.79812 3.40124 9.48962 3.43555 9.24062 3.53838C8.99227 3.64122 8.70899 3.89861 8.78919 4.3274C8.59451 4.33322 8.56217 4.12948 8.56023 4.12754C8.50461 4.27112 8.42636 4.72841 8.77625 4.96512C8.85709 5.02009 8.9664 4.96445 8.93018 4.90559C8.7866 4.67211 8.89849 4.48199 8.94893 4.46324C9.07505 4.41538 9.19599 4.29054 9.21475 4.13015C9.31823 4.32741 9.26649 4.46452 9.14619 4.58482C9.51484 4.4988 9.32664 4.33904 9.80653 4.27048C9.50967 4.44187 9.61121 4.66759 9.29624 4.76913C9.84081 4.96639 9.75091 4.10039 10.3382 4.16765C9.82787 4.22004 9.88349 5.54459 8.73227 5.77936C8.57188 6.49662 8.29183 6.54513 7.88049 6.72234C8.71739 6.9681 9.06341 8.05466 9.95528 7.89426C9.86409 8.05466 9.73797 8.05402 9.6235 8.05402C9.6125 8.28297 9.64355 8.46858 9.81494 8.46017C10.5956 8.28878 10.7838 7.43957 11.5159 7.31087C11.4874 7.21967 11.2701 7.23717 11.144 7.13434" fill="#F3F6F9"/>
<path d="M4.92261 12.5214C5.18584 12.4263 5.48722 12.4101 5.6722 12.447C4.96077 14.9079 5.70065 16.9283 6.21676 17.8118C5.86945 17.9205 5.50986 17.8687 5.43936 17.8364C4.75768 16.4802 4.28361 14.4661 4.92261 12.5214Z" fill="#F3F6F9"/>
<path d="M3.56445 14.9991C3.57609 15.2507 3.62202 15.5883 3.65565 15.7422C4.55916 15.5766 5.69939 15.4564 7.67199 15.4175C7.69139 15.2164 7.63513 14.7676 7.60279 14.6563C6.39401 14.5477 4.28882 14.7236 3.56445 14.9991Z" fill="#F3F6F9"/>
<path d="M20.1667 17.0884C19.9998 17.3174 19.6849 17.6873 19.4682 17.9033C19.1882 17.8341 18.9922 17.6705 18.9922 17.4797C18.9922 17.2268 19.3389 17.0218 19.767 17.0224C19.9132 17.0224 20.0503 17.0464 20.1667 17.0884" fill="#F3F6F9"/>
<path d="M17.3526 13.9943C17.348 14.101 17.1333 14.178 16.8727 14.1663C16.6127 14.1547 16.4057 14.0589 16.4102 13.9529C16.4148 13.8462 16.6295 13.7692 16.8901 13.7808C17.1501 13.7918 17.3571 13.8876 17.3526 13.9943Z" fill="#F3F6F9"/>
<path d="M16.5883 13.7175C16.556 13.6386 16.2986 13.6703 16.014 13.7874C15.7301 13.9051 15.5257 14.0642 15.5581 14.1424C15.5904 14.2213 15.8478 14.1903 16.1324 14.0726C16.4163 13.9555 16.6207 13.7964 16.5883 13.7175Z" fill="#F3F6F9"/>
<path d="M16.4538 14.896C16.3911 14.993 16.3853 15.1017 16.4965 15.2336C16.4202 15.2724 16.3174 15.2964 16.2048 15.2964C15.9668 15.2964 15.7734 15.1897 15.7734 15.059C15.7734 14.9277 15.9668 14.8217 16.2048 14.8217C16.2482 14.8559 16.3051 14.9019 16.4538 14.896" fill="#F3F6F9"/>
</g>
<defs>
<clipPath id="clip0_6194_139157">
<rect width="22" height="22" fill="white" transform="translate(0.806641 0.108398)"/>
</clipPath>
</defs>
</svg>
