<svg width="25" height="8" viewBox="0 0 25 8" fill="none" xmlns="http://www.w3.org/2000/svg">
<g clip-path="url(#clip0_6194_138679)">
<path d="M13.5454 4.60503C13.5454 5.3793 12.5819 5.33335 12.5819 5.33335H11.6184V3.93428H12.5819C13.5735 3.92763 13.5454 4.60503 13.5454 4.60503ZM11.6184 1.80058H12.3526C13.115 1.84085 13.0862 2.40847 13.0862 2.40847C13.0862 3.11387 12.2432 3.12538 12.2432 3.12538H11.6184V1.80058ZM13.3672 3.4005C13.3672 3.4005 14.0267 3.11947 14.0208 2.37407C14.0208 2.37407 14.1211 1.15248 12.5026 1.00348H10.7066V6.1247H12.7652C12.7652 6.1247 14.4853 6.12983 14.4853 4.67972C14.4853 4.67972 14.5259 3.6929 13.3672 3.4005ZM8.71933 0H16.2807V7.12533H8.71933V0ZM4.82603 4.60503C4.82603 5.3793 3.8625 5.33335 3.8625 5.33335H2.89893V3.93428H3.8625C4.85415 3.92763 4.82603 4.60503 4.82603 4.60503ZM2.89893 1.80058H3.63327C4.3957 1.84085 4.36685 2.40847 4.36685 2.40847C4.36685 3.11387 3.52388 3.12538 3.52388 3.12538H2.89893V1.80058V1.80058ZM4.64787 3.4005C4.64787 3.4005 5.30747 3.11947 5.30155 2.37407C5.30155 2.37407 5.40178 1.15248 3.78325 1.00348H1.98722V6.1247H4.04595C4.04595 6.1247 5.76598 6.12983 5.76598 4.67972C5.76598 4.67972 5.8065 3.6929 4.64787 3.4005ZM0 0H7.56133V7.12533H0V0ZM23.4575 1.37063V2.31677C23.4575 2.31677 22.534 1.74923 21.5134 1.7378C21.5134 1.7378 19.6094 1.70042 19.5236 3.56293C19.5236 3.56293 19.4548 5.27575 21.4905 5.37335C21.4905 5.37335 22.3446 5.47622 23.5033 4.73732V5.7172C23.5033 5.7172 21.949 6.64067 20.1484 5.9294C20.1484 5.9294 18.6348 5.37668 18.5771 3.56293C18.5771 3.56293 18.5142 1.69745 20.5329 1.0782C20.5329 1.0782 21.072 0.871825 22.0407 0.96355C22.0407 0.963525 22.6197 1.0208 23.4575 1.37063ZM17.4387 7.12533H25V0H17.4387V7.12533Z" fill="white"/>
</g>
<defs>
<clipPath id="clip0_6194_138679">
<rect width="25" height="7.125" fill="white"/>
</clipPath>
</defs>
</svg>
