<svg width="22" height="17" viewBox="0 0 22 17" fill="none" xmlns="http://www.w3.org/2000/svg">
<path fill-rule="evenodd" clip-rule="evenodd" d="M7.01294 8.30837V10.1898C7.01294 10.477 7.05216 10.6784 7.13097 10.794C7.20972 10.9091 7.34996 10.9668 7.55164 10.9668C7.83661 10.9668 8.06163 10.8505 8.22641 10.6187C8.39113 10.3864 8.4737 10.0727 8.4737 9.67795C8.4737 9.2419 8.37035 8.90453 8.1642 8.6662C7.95762 8.42795 7.67487 8.30837 7.31563 8.30837H7.01294ZM7.16942 5.39399H7.01294V7.86311H7.16942C7.47624 7.86311 7.72353 7.74436 7.91123 7.50769C8.099 7.27058 8.1928 6.94528 8.1928 6.53128C8.1928 6.16823 8.10575 5.88785 7.93159 5.69045C7.75708 5.49266 7.50298 5.39399 7.16942 5.39399ZM4.4082 11.4314V10.9857C4.69126 10.9793 4.87711 10.9344 4.96529 10.8505C5.05389 10.7671 5.09837 10.6178 5.09837 10.4028V6.00533C5.09837 5.84128 5.08291 5.7165 5.05163 5.6311C5.0207 5.54565 4.96834 5.48669 4.89484 5.45339C4.82093 5.4201 4.65884 5.40041 4.4082 5.39399V4.94873L6.20551 4.99606L6.93526 4.97719L8.11894 4.94873C9.47451 4.94873 10.1523 5.44456 10.1523 6.43661C10.1523 6.70816 10.0871 6.96008 9.95703 7.19237C9.82658 7.42465 9.64072 7.60719 9.39946 7.73998C9.15784 7.87233 8.80499 7.96102 8.33984 8.00512V8.14273C9.12202 8.19007 9.6803 8.33931 10.0151 8.59041C10.3502 8.8415 10.5175 9.20098 10.5175 9.66829C10.5175 10.2371 10.3132 10.6692 9.90538 10.9644C9.49785 11.2597 8.91246 11.4077 8.15023 11.4077L6.98882 11.3933L6.0498 11.3836L4.4082 11.4314Z" fill="white"/>
<path fill-rule="evenodd" clip-rule="evenodd" d="M10.6663 5.39222V4.94873L11.2952 4.96746L12.5577 4.99588C13.1056 4.99588 13.6703 4.98025 14.2506 4.94873V5.39222C13.9508 5.39861 13.7506 5.44494 13.6507 5.5317C13.5507 5.61795 13.5008 5.75585 13.5008 5.94443V9.78182L13.5155 10.4711L13.5299 11.0796C13.5299 11.8851 13.3202 12.4294 12.9013 12.7126C12.6945 12.8513 12.3538 12.9568 11.878 13.0291C11.4022 13.1014 10.8727 13.1374 10.2891 13.1374H10.1777V12.6939C10.4422 12.6939 10.683 12.6315 10.9009 12.5073C11.1187 12.383 11.2588 12.1856 11.3219 11.9151C11.3845 11.6442 11.416 11.1851 11.416 10.537V5.84052C11.416 5.68352 11.3636 5.56923 11.2588 5.49854C11.154 5.42779 10.9566 5.39222 10.6663 5.39222Z" fill="white"/>
<mask id="mask0_6194_139346" style="mask-type:alpha" maskUnits="userSpaceOnUse" x="0" y="0" width="22" height="17">
<path d="M0 0.859375H22V16.8594H0V0.859375Z" fill="#3F6587"/>
</mask>
<g mask="url(#mask0_6194_139346)">
<path fill-rule="evenodd" clip-rule="evenodd" d="M14.7809 9.21874H15.29V9.26035C15.29 9.73607 15.4231 10.1107 15.6898 10.3836C15.9565 10.6568 16.3082 10.7936 16.7445 10.7936C17.0477 10.7936 17.2878 10.7307 17.4648 10.6051C17.6422 10.4796 17.7307 10.3113 17.7307 10.0999C17.7307 9.96809 17.6934 9.84097 17.6195 9.71859C17.5452 9.59572 17.4413 9.4904 17.3082 9.40144C17.1746 9.3128 16.8095 9.09205 16.2127 8.73951C15.746 8.46435 15.4355 8.25874 15.2808 8.12424C15.1265 7.98937 14.9976 7.8452 14.8945 7.69204C14.7005 7.39823 14.6035 7.06704 14.6035 6.69979C14.6035 6.08723 14.831 5.61618 15.2854 5.28697C15.7398 4.95776 16.3778 4.79297 17.199 4.79297C17.8746 4.79297 18.5414 4.87693 19.1991 5.04523L19.0036 6.86809H18.5219C18.5095 6.35075 18.3779 5.95395 18.1263 5.67682C17.8746 5.39968 17.5445 5.2613 17.1354 5.2613C16.8719 5.2613 16.661 5.32237 16.5036 5.44474C16.3458 5.56718 16.2674 5.73277 16.2674 5.94072C16.2674 6.13973 16.3436 6.32047 16.4967 6.48249C16.6499 6.64457 16.9673 6.85448 17.449 7.11136C18.2036 7.51562 18.715 7.87665 18.9832 8.19497C19.2514 8.51329 19.3853 8.88682 19.3853 9.31514C19.3853 9.92727 19.1336 10.3987 18.6307 10.7291C18.1278 11.0599 17.4552 11.225 16.6125 11.225C15.9368 11.225 15.2854 11.1271 14.6582 10.9312L14.7809 9.21874Z" fill="white"/>
<path fill-rule="evenodd" clip-rule="evenodd" d="M21.8928 5.50575C21.8928 5.50575 21.7581 5.39654 21.5057 5.19174C21.2513 4.99075 20.8746 4.71091 20.3698 4.38287C19.8645 4.05877 19.2312 3.69767 18.4774 3.34359C17.7228 2.99338 16.8474 2.64903 15.8628 2.38008C14.8804 2.10799 13.7942 1.8958 12.636 1.80254C11.4793 1.70651 10.2518 1.71704 9.00898 1.89193C7.76842 2.07112 6.50976 2.40495 5.33618 2.95571C5.18687 3.01905 5.04566 3.09834 4.90092 3.17104C4.75515 3.24214 4.61546 3.32456 4.47578 3.40619L4.27875 3.52044L4.06253 3.66116C3.90858 3.75633 3.79742 3.84651 3.67273 3.93633C3.1694 4.31257 2.72574 4.77352 2.36636 5.27491C2.01929 5.78596 1.75187 6.34528 1.62029 6.93488C1.55252 7.22876 1.50791 7.52645 1.50023 7.82611C1.48908 7.97496 1.5006 8.12541 1.50176 8.27389C1.51717 8.42273 1.52065 8.57158 1.54795 8.71889C1.58488 9.01424 1.66222 9.30424 1.74687 9.58833C1.79648 9.72905 1.83999 9.87052 1.89886 10.0077C1.92696 10.0765 1.95237 10.146 1.98199 10.2141L2.07627 10.4162C2.33174 10.9522 2.65535 11.4543 3.02473 11.9134C3.1148 12.03 3.20634 12.145 3.30525 12.2542L3.44956 12.4202L3.60155 12.5791L3.75318 12.7373L3.91053 12.8893L3.98824 12.9658L4.02675 13.0044L4.04595 13.0234L4.05601 13.0331C4.06484 13.0412 4.01018 12.9938 4.03864 13.0183L4.21684 13.1722C4.33531 13.2745 4.45305 13.3763 4.57006 13.4774C4.63046 13.5333 4.68201 13.5629 4.73705 13.6044L4.89867 13.7207C5.00873 13.7972 5.10569 13.8819 5.22148 13.9562C5.33886 14.03 5.45581 14.1035 5.57166 14.1762C6.50671 14.7522 7.4929 15.1529 8.43526 15.4129C9.37909 15.6722 10.2807 15.7903 11.0841 15.8198C11.4878 15.8482 11.8629 15.816 12.2146 15.8035C12.5598 15.7596 12.8884 15.7472 13.1719 15.6784C13.3159 15.6508 13.4521 15.6232 13.5825 15.6006C13.7099 15.5711 13.8268 15.5346 13.9381 15.5054C14.0493 15.4747 14.152 15.4464 14.2463 15.4203C14.3413 15.3943 14.4218 15.3577 14.4972 15.3317C14.8 15.2209 14.9612 15.1619 14.9612 15.1619L15.0436 15.3053C15.0436 15.3053 14.8977 15.4056 14.6245 15.5941C14.5545 15.6384 14.4802 15.6986 14.3898 15.7464C14.2994 15.7942 14.2001 15.8467 14.0932 15.903C13.9854 15.9586 13.8707 16.0235 13.7445 16.0837C13.6164 16.1378 13.4787 16.1918 13.3324 16.2501C13.2593 16.2793 13.1839 16.3092 13.1066 16.3399C13.0296 16.3718 12.9473 16.3908 12.8646 16.4176C12.6975 16.4674 12.5224 16.5198 12.3401 16.5742C11.9695 16.6489 11.5651 16.748 11.1265 16.7884C10.2506 16.8926 9.24136 16.8934 8.15894 16.7146C7.07769 16.5377 5.91989 16.1833 4.78824 15.5781C4.6474 15.5008 4.50577 15.423 4.3634 15.3445C4.22104 15.2629 4.07673 15.1619 3.93363 15.067L3.71893 14.9205C3.64927 14.8719 3.56846 14.8214 3.51343 14.7735C3.39258 14.6771 3.271 14.58 3.14905 14.4824L2.96549 14.3356L2.92624 14.3017L2.9143 14.2908L2.89083 14.2694L2.84391 14.2263L2.74963 14.1401C2.62262 14.0257 2.50031 13.9049 2.38098 13.779L2.20016 13.5916L2.02587 13.3942C1.90733 13.2648 1.79575 13.1272 1.68532 12.9868C1.25165 12.4221 0.856063 11.7983 0.569813 11.1033C0.275092 10.4139 0.0792202 9.6622 0.0191912 8.88602C-0.00238267 8.69359 0.00188335 8.49697 -0.00390625 8.3022C0.00456485 8.10676 0.00493051 7.91082 0.0303438 7.71574C0.0653252 7.32509 0.144978 6.93759 0.256199 6.56097C0.363155 6.18282 0.518621 5.82019 0.691394 5.47078C0.866119 5.12058 1.08234 4.79642 1.31131 4.48592C1.78532 3.87606 2.34021 3.3498 2.96013 2.92382C3.119 2.81696 3.28489 2.70154 3.42726 2.62145L3.64885 2.48972L3.90243 2.35441C4.0621 2.26891 4.22141 2.1842 4.38614 2.11193C4.54965 2.03726 4.71011 1.95644 4.87709 1.8931C6.19462 1.33415 7.57139 1.05006 8.89928 0.923743C9.56417 0.85923 10.2203 0.850304 10.859 0.866247C11.4985 0.880221 12.1211 0.940055 12.7218 1.02439C13.9242 1.19152 15.0366 1.47641 16.0344 1.81535C17.0341 2.15158 17.9137 2.55731 18.666 2.96076C19.4186 3.36612 20.0427 3.77461 20.5337 4.14076C21.0232 4.50691 21.3921 4.82208 21.6342 5.04049C21.8728 5.26204 21.9997 5.38023 21.9997 5.38023L21.8928 5.50575Z" fill="white"/>
</g>
</svg>
