<svg width="23" height="23" viewBox="0 0 23 23" fill="none" xmlns="http://www.w3.org/2000/svg">
<path d="M22.8066 13.0018C22.0963 12.2506 21.3128 11.6126 20.4876 11.0981C21.3024 10.5836 22.0858 9.93534 22.7962 9.18417C21.8665 8.72112 20.9054 8.38155 19.9548 8.17575C20.5398 7.41429 21.0517 6.53964 21.4695 5.60325C20.4353 5.47977 19.422 5.49006 18.4505 5.61354C18.743 4.69773 18.9206 3.70989 18.9728 2.6809C17.9595 2.91757 16.9985 3.25714 16.1419 3.6996C16.0896 2.74264 15.9225 1.7548 15.6196 0.766958C14.7525 1.33291 13.969 1.98118 13.3109 2.6809C12.9348 1.79596 12.423 0.931598 11.7962 0.108398C11.1694 0.931598 10.668 1.80625 10.2919 2.69119C9.6338 1.98118 8.85032 1.33291 7.98328 0.777248C7.68033 1.7548 7.51319 2.74264 7.46096 3.6996C6.59391 3.25714 5.6433 2.91757 4.63 2.6809C4.69268 3.70989 4.87027 4.69773 5.16277 5.61354C4.19126 5.49006 3.17796 5.49006 2.13333 5.61354C2.54073 6.56022 3.0526 7.42458 3.64805 8.18604C2.69743 8.40213 1.73637 8.7417 0.806641 9.20475C1.51699 9.95592 2.30047 10.5939 3.12573 11.1084C2.31091 11.6229 1.52744 12.2712 0.817087 13.0223C1.74681 13.4854 2.70788 13.825 3.65849 14.0308C3.0735 14.7922 2.56163 15.6669 2.14377 16.6033C3.17796 16.7267 4.19126 16.7164 5.15232 16.6033C4.85982 17.5191 4.68223 18.5069 4.63 19.5256C5.6433 19.2889 6.60436 18.9494 7.46096 18.5069C7.50275 19.4639 7.68033 20.4517 7.98328 21.4395C8.85032 20.8736 9.6338 20.2356 10.2919 19.5256C10.668 20.4105 11.1799 21.2852 11.8066 22.1084C12.4334 21.2852 12.9348 20.4105 13.3109 19.5256C13.969 20.2356 14.7525 20.8839 15.63 21.4395C15.9329 20.462 16.1001 19.4742 16.1523 18.5069C17.0194 18.9494 17.9804 19.2889 18.9937 19.5256C18.931 18.4966 18.7535 17.5191 18.461 16.6033C19.422 16.7267 20.4458 16.7267 21.48 16.6033C21.0725 15.6566 20.5607 14.7922 19.9652 14.0308C20.9159 13.8044 21.8769 13.4648 22.8066 13.0018Z" fill="white"/>
<path d="M19.9659 14.0202C19.4227 13.3205 18.8063 12.7031 18.1378 12.1989C18.9421 11.9519 19.7256 11.5712 20.4882 11.0979C19.7256 10.6245 18.9421 10.2541 18.1378 10.0071C18.8063 9.50292 19.4122 8.88552 19.9659 8.17552C19.0884 7.98001 18.2213 7.89769 17.3752 7.93885C17.8244 7.23913 18.19 6.45709 18.4512 5.60302C17.5632 5.71621 16.7171 5.9323 15.9336 6.25129C16.1112 5.43838 16.1843 4.58431 16.1321 3.68908C15.3381 4.10068 14.6173 4.58431 14.001 5.15026C13.8861 4.32706 13.6563 3.49357 13.3011 2.68066C12.6848 3.33922 12.1833 4.03894 11.7968 4.77982C11.4103 4.04923 10.8984 3.33922 10.2821 2.69095C9.93738 3.50386 9.70756 4.33735 9.6031 5.15026C8.98676 4.5946 8.25552 4.10068 7.45115 3.69937C7.40936 4.58431 7.48249 5.44867 7.66008 6.26158C6.88705 5.94259 6.04089 5.73679 5.14251 5.6236C5.41411 6.46738 5.77973 7.24942 6.22893 7.94914C5.39322 7.91827 4.51573 8.00059 3.62779 8.1961C4.171 8.89581 4.78733 9.51321 5.4559 10.0174C4.65153 10.2644 3.86805 10.6451 3.10547 11.1185C3.86805 11.5918 4.65153 11.9622 5.4559 12.2092C4.78733 12.7134 4.18144 13.3308 3.62779 14.0408C4.50528 14.2363 5.37233 14.3186 6.20803 14.2775C5.75884 14.9772 5.39322 15.7592 5.13206 16.6133C6.02 16.5001 6.8766 16.284 7.64963 15.965C7.47204 16.7677 7.39892 17.632 7.4407 18.5169C8.24507 18.1053 8.96587 17.6217 9.58221 17.0661C9.69712 17.8893 9.92693 18.7228 10.2717 19.5357C10.8776 18.8771 11.3894 18.1774 11.7759 17.4468C12.1625 18.1774 12.6743 18.8874 13.2907 19.5357C13.6354 18.7228 13.8652 17.8893 13.9801 17.0661C14.5965 17.6217 15.3277 18.1156 16.1321 18.5169C16.1739 17.632 16.1007 16.7677 15.9231 15.965C16.6962 16.284 17.5528 16.4898 18.4407 16.603C18.1691 15.7592 17.8035 14.9772 17.3543 14.2775C18.2109 14.2981 19.0884 14.2157 19.9659 14.0202Z" fill="#F3F6F9"/>
<path d="M16.1423 11.1086C16.8422 10.8514 17.5212 10.4809 18.148 10.0076C17.3958 9.77092 16.6333 9.65773 15.8916 9.64744C16.4661 9.1741 16.9675 8.59786 17.3854 7.9393C16.6019 7.97017 15.8393 8.11423 15.1394 8.37148C15.5155 7.7335 15.7871 7.02349 15.9542 6.26203C15.223 6.56044 14.5649 6.95146 13.9903 7.4248C14.1157 6.69421 14.1261 5.93275 14.0217 5.161C13.4367 5.68579 12.9457 6.28261 12.5696 6.92059C12.4338 6.19 12.1831 5.4697 11.8175 4.78027C11.4623 5.4697 11.2012 6.17971 11.0758 6.90001C10.6997 6.26203 10.2088 5.6755 9.62376 5.15071C9.5193 5.92246 9.52974 6.68392 9.6551 7.41451C9.08055 6.94117 8.41199 6.55015 7.68074 6.26203C7.84788 7.02349 8.11949 7.7335 8.49556 8.37148C7.79565 8.12452 7.03307 7.98046 6.24959 7.94959C6.67789 8.60815 7.17932 9.1741 7.74342 9.65773C6.99128 9.65773 6.2287 9.78121 5.47656 10.0179C6.10334 10.4912 6.77191 10.8617 7.48226 11.1086C6.78236 11.3659 6.10334 11.7363 5.47656 12.2096C6.2287 12.436 6.99128 12.5595 7.73297 12.5698C7.15842 13.0431 6.657 13.6194 6.2287 14.2779C7.01218 14.2471 7.77476 14.103 8.47466 13.856C8.0986 14.494 7.82699 15.2143 7.65985 15.9655C8.39109 15.6671 9.04921 15.2761 9.62376 14.8027C9.49841 15.5333 9.48796 16.2845 9.59242 17.0562C10.1774 16.5314 10.6684 15.9449 11.0445 15.3069C11.1803 16.0375 11.431 16.7475 11.7966 17.437C12.1622 16.7475 12.4129 16.0375 12.5487 15.3069C12.9248 15.9449 13.4158 16.5314 14.0008 17.0562C14.1052 16.2845 14.0948 15.523 13.9694 14.8027C14.544 15.2761 15.2126 15.6671 15.9438 15.9655C15.7767 15.204 15.5051 14.494 15.129 13.856C15.8393 14.103 16.5915 14.2471 17.3854 14.2779C16.9571 13.6194 16.4557 13.0534 15.8811 12.5698C16.6333 12.5698 17.3958 12.4463 18.148 12.2096C17.5108 11.726 16.8422 11.3556 16.1423 11.1086Z" fill="white"/>
<path d="M14.0009 11.479C14.7322 11.479 15.453 11.3453 16.132 11.0983C15.4425 10.8513 14.7322 10.7176 14.0009 10.7176C14.6904 10.4706 15.3172 10.1002 15.8708 9.63711C15.1396 9.63711 14.4188 9.7503 13.7293 9.99726C14.2934 9.53421 14.7531 8.97855 15.1187 8.35086C14.4292 8.59782 13.8025 8.94768 13.2384 9.41073C13.604 8.78304 13.8443 8.1039 13.9696 7.40418C13.4055 7.86723 12.9354 8.4126 12.5594 9.04029C12.6847 8.33028 12.6743 7.60998 12.5489 6.89997C12.1833 7.51737 11.9326 8.18622 11.8072 8.88594C11.6819 8.17593 11.4207 7.49679 11.0551 6.87939C10.9297 7.5894 10.9193 8.3097 11.0446 9.01971C10.679 8.39202 10.1985 7.84665 9.64482 7.38361C9.77017 8.09361 10.0104 8.77275 10.3761 9.39015C9.81196 8.9271 9.17473 8.57724 8.49572 8.33028C8.86134 8.95797 9.32098 9.50334 9.88508 9.97668C9.19562 9.72972 8.47483 9.61653 7.75403 9.61653C8.30768 10.0796 8.93447 10.4397 9.62392 10.697C8.89268 10.697 8.17188 10.8308 7.48242 11.0777C8.17188 11.3247 8.88223 11.4584 9.61348 11.4584C8.92402 11.7054 8.29724 12.0758 7.73313 12.5389C8.46438 12.5389 9.18518 12.4257 9.87464 12.1787C9.31053 12.6418 8.85089 13.1974 8.48527 13.8251C9.17473 13.5782 9.81196 13.2283 10.3656 12.7653C9.99999 13.393 9.75973 14.0721 9.63437 14.7821C10.1985 14.3191 10.6686 13.7737 11.0342 13.1563C10.9088 13.8663 10.9193 14.5866 11.0446 15.2863C11.4103 14.6689 11.6714 13.9898 11.7968 13.2901C11.9221 14.0001 12.1833 14.6689 12.5489 15.2966C12.6743 14.5866 12.6847 13.8766 12.5594 13.1666C12.925 13.7943 13.4055 14.3396 13.9592 14.7924C13.8338 14.0824 13.5935 13.4135 13.2279 12.7859C13.792 13.2489 14.4292 13.5988 15.1187 13.8457C14.7531 13.218 14.2934 12.6727 13.7293 12.1993C14.4188 12.4463 15.1396 12.5595 15.8708 12.5595C15.3172 12.0964 14.6904 11.7363 14.0009 11.479Z" fill="#F3F6F9"/>
</svg>
