<svg width="25" height="20" viewBox="0 0 25 20" fill="none" xmlns="http://www.w3.org/2000/svg">
<g clip-path="url(#clip0_6194_138681)">
<path fill-rule="evenodd" clip-rule="evenodd" d="M17.5273 19.1383L7.76319 19.1401H7.76282C7.98385 19.0498 8.27196 18.946 8.58646 18.8327C9.98589 18.3284 11.908 17.6359 10.7691 17.1031C11.423 16.51 11.712 15.9789 10.733 15.4674C11.8534 14.678 11.2837 14.5136 10.714 14.3492C10.6783 14.3389 10.6426 14.3286 10.6073 14.3182C11.2192 13.432 9.83204 13.7855 8.74337 14.0629C8.40112 14.1501 8.08837 14.2298 7.87651 14.261C9.22016 12.8584 8.62609 12.5887 7.58906 12.8043C7.3854 12.8466 7.20612 12.939 7.00583 13.0422C6.60975 13.2463 6.13153 13.4928 5.22017 13.4781C7.30621 12.1477 6.27655 11.8581 5.95612 11.8605C5.72759 11.8621 5.23976 11.9872 4.74686 12.1136C3.85194 12.343 2.94034 12.5767 3.53397 12.0836C5.81589 11.1188 3.94027 9.89789 1.71714 10.1286C1.59699 9.92711 1.94315 9.76725 2.3529 9.57802C3.04979 9.25617 3.93063 8.84938 3.01417 8.00846C2.42072 7.46382 2.16596 7.31353 1.96295 7.19377C1.69383 7.03502 1.51567 6.92992 0.760071 6.03095C3.17742 6.82051 3.55019 5.63294 0.449219 1.88135C1.72665 1.95943 2.49034 3.05453 3.13515 3.97913C3.92213 5.10763 4.53201 5.98216 5.68267 4.44371C5.61845 4.8385 5.45977 5.34272 5.30466 5.8356C4.8607 7.24631 4.44598 8.56411 6.3591 6.95742C6.00863 9.21777 6.07073 11.067 7.50632 9.78365C7.62637 9.96889 7.7157 10.13 7.79599 10.2749C8.00705 10.6556 8.15567 10.9238 8.63568 11.2209C9.36497 11.3564 9.49985 10.9018 9.58234 10.6238C9.6163 10.5094 9.64138 10.4249 9.69537 10.4238C9.7888 10.4219 10.0919 10.6069 10.4306 11.4424C10.4527 11.497 10.4634 11.5627 10.475 11.6342C10.5071 11.8311 10.5463 12.0722 10.8518 12.2489C11.4081 12.4057 12.0573 11.6801 11.0199 10.995C11.5295 10.4411 11.1275 10.2823 10.5179 10.2808C10.9604 9.69179 10.3051 9.65858 9.43945 9.61471C9.42117 9.61378 9.4028 9.61285 9.38434 9.61191C9.88712 9.12702 9.3031 9.00509 8.71633 8.88258C8.53583 8.84489 8.35507 8.80715 8.2056 8.75878C9.03027 8.41694 8.3763 8.25395 7.72215 8.09092C7.59915 8.06027 7.47615 8.02962 7.36297 7.99777C8.26095 7.41438 7.91794 7.26338 7.45126 7.05794C7.29635 6.98975 7.12782 6.91556 6.98652 6.81757C8.08609 6.96428 7.80055 6.6673 7.43817 6.29039C7.34953 6.19819 7.25629 6.10122 7.1776 6.00478C7.86178 6.18314 8.15448 6.27525 8.23636 6.18209C8.31891 6.08815 8.1871 5.80584 8.02613 5.23364C8.81109 5.49401 9.01342 5.25023 8.76134 4.61231C10.0685 5.05638 9.59053 4.30182 8.55939 3.32431C9.93511 3.84751 10.3035 4.26572 10.33 4.24506C10.3523 4.22769 10.1329 3.90003 10.0674 3.06358C10.8597 3.66179 11.11 3.8767 11.1568 3.839C11.2197 3.78832 10.9148 3.28112 11.0643 2.63498C12.1658 3.87469 12.1769 3.76529 12.214 3.39774C12.2421 3.11874 12.2853 2.69099 12.8319 2.59168C13.1031 3.71172 13.1519 3.65129 13.4043 3.33908C13.568 3.13658 13.8173 2.82817 14.2684 2.66723C14.2689 2.7635 14.2688 2.85446 14.2687 2.93963C14.2675 3.87255 14.2672 4.11262 15.0976 3.06155C15.0795 4.1197 15.3082 3.98417 15.7621 3.71532C16.093 3.51927 16.5436 3.25233 17.1053 3.3256C15.726 4.22849 15.8021 4.63847 16.1181 4.72416C16.1986 4.74594 16.3043 4.70192 16.392 4.66536C16.4839 4.6271 16.5561 4.59701 16.5594 4.65911C16.0814 5.22351 16.4175 5.77924 17.2319 5.19458C16.9582 6.2721 17.034 6.24946 17.3842 6.14494C17.5544 6.09413 17.7894 6.02398 18.0807 6.0514C17.5616 6.5342 17.3794 6.70116 17.409 6.75848C17.4507 6.83904 17.911 6.70301 18.4431 6.92296C17.2389 7.15771 17.3187 7.53693 17.6707 7.84244C16.7954 8.0665 16.7414 8.41752 17.0254 8.82087C15.9795 8.86473 15.4061 9.23067 16.1345 9.58446C15.8699 9.64103 15.652 9.62684 15.4675 9.61483C15.0999 9.59089 14.8654 9.57562 14.66 10.1468C14.1794 10.3182 13.9813 10.5412 14.2666 10.7954C14.4051 10.9189 14.2863 11.0189 14.1548 11.1295C14.0667 11.2037 13.973 11.2826 13.9474 11.3764C13.8396 11.7718 14.0169 12.2426 14.4783 12.1864C14.5526 12.0663 14.6318 11.8841 14.7206 11.6795C14.9144 11.2332 15.1544 10.6808 15.4905 10.4363C16.0165 12.1159 17.6156 10.4831 17.8247 9.80097C17.9358 10.2157 19.1477 10.2683 19.2973 9.15015C19.3356 8.86401 19.2257 8.54329 19.086 8.13554C18.9814 7.83014 18.86 7.47592 18.7716 7.05084C20.5808 8.12439 20.3 7.36814 19.9166 6.33573C19.6696 5.67056 19.38 4.89074 19.5795 4.41183C19.6266 4.45391 19.6845 4.50803 19.7501 4.56925C20.1815 4.97207 20.9421 5.68232 21.1085 5.29316C21.4024 4.60531 22.4624 2.5716 24.3729 1.89572C24.2949 2.24598 23.9584 2.63053 23.6101 3.0284C23.2743 3.4121 22.9276 3.8082 22.7915 4.1979C22.2677 5.69762 22.9594 6.8207 24.5512 5.85148C24.3266 6.27148 23.8174 6.66737 23.307 7.06423C22.7467 7.49996 22.1848 7.93686 21.9963 8.40812C21.8405 8.7971 21.9566 9.02338 22.9314 9.45824C23.2393 9.5957 23.5306 9.86343 23.7175 10.1767C21.1536 9.56271 19.6845 11.3895 21.9454 11.9782C21.2604 12.2274 20.6353 12.085 20.1104 11.9655C19.7379 11.8806 19.4158 11.8073 19.1584 11.8935C18.2966 12.182 19.3161 13.1114 20.1195 13.3141C19.5078 13.5275 18.8365 13.2583 18.2289 13.0146C17.4646 12.7081 16.8012 12.4421 16.4846 13.2284C16.3862 13.473 16.8837 13.8741 17.7202 13.9839C17.3876 14.5134 16.717 14.2531 16.0857 14.008C15.3767 13.7328 14.7172 13.4767 14.6412 14.3801C13.8095 14.6897 14.0669 15.0077 14.3262 15.328C14.4056 15.426 14.485 15.5242 14.5336 15.6224C13.8949 16.1676 14.0733 16.5916 14.5336 16.9736C14.2553 17.9714 15.4077 18.6596 17.5273 19.1383ZM3.05074 4.46091C2.93263 4.41761 2.90683 4.48136 2.91973 4.54456L2.91991 4.54438C3.24753 5.22173 3.46367 5.98844 3.36399 6.77653C3.32227 6.85643 3.07103 6.74208 2.82623 6.63066C2.61148 6.53291 2.40169 6.43742 2.34262 6.47729C2.16058 6.59993 2.60893 6.84783 2.98775 7.05728C3.17183 7.15906 3.3395 7.25177 3.41042 7.31661L4.44524 9.752L3.32161 9.93461L4.69105 10.117C4.93511 10.5186 5.26671 10.7306 5.59834 10.9427C5.61198 10.9514 5.62563 10.9601 5.63927 10.9689C5.5635 11.0333 5.44847 11.0932 5.32954 11.1551C5.06583 11.2923 4.78296 11.4395 4.86665 11.6685C5.13787 11.6649 5.37602 11.5689 5.60776 11.4754C5.76474 11.4121 5.91879 11.35 6.07818 11.3186L7.67593 12.0335C7.61947 12.0722 7.56175 12.1103 7.50579 12.1473C7.23539 12.3257 7.006 12.4772 7.1576 12.5355C7.25717 12.5737 7.47244 12.4932 7.69034 12.4117C7.85148 12.3515 8.01406 12.2907 8.13235 12.277C8.18008 12.2837 8.22748 12.29 8.2748 12.2963C8.79246 12.3653 9.30065 12.4331 10.134 12.9766C9.5755 13.1012 9.1598 13.4783 9.53699 13.5242C9.70894 13.5451 9.832 13.4964 9.97213 13.4409C10.2305 13.3385 10.5469 13.2132 11.3348 13.459C11.3545 13.4634 11.3799 13.472 11.4083 13.4816C11.5015 13.5131 11.6259 13.5552 11.679 13.4938C11.6992 13.4705 11.712 13.4571 11.714 13.4422C11.7173 13.4171 11.6902 13.388 11.6162 13.3011C11.2451 12.8648 10.5051 12.4612 9.78279 12.1857C9.51368 12.0857 9.24079 11.9907 8.9679 11.8956C7.43805 11.3629 5.90805 10.8301 5.04207 9.41757C4.58289 8.74669 4.29472 7.84025 3.99549 6.89901C3.73108 6.0673 3.45804 5.20843 3.05074 4.46091ZM22.2342 4.36878C22.3516 4.324 22.3783 4.3872 22.3669 4.45059L22.367 4.4504C22.0529 5.13291 21.8522 5.90258 21.9676 6.68919C22.0119 6.77036 22.3254 6.68105 22.6221 6.59651C22.8698 6.52598 23.1057 6.45876 23.164 6.49664C23.3328 6.60654 22.9067 6.78289 22.5049 6.94919C22.2545 7.0528 22.0136 7.15251 21.9318 7.22982L20.946 9.68033L22.0932 9.724L20.7074 10.049C20.472 10.4536 20.1452 10.6704 19.8185 10.887C19.8045 10.8963 19.7905 10.9056 19.7765 10.9149C19.8536 10.9783 19.9699 11.0365 20.0901 11.0967C20.3565 11.23 20.642 11.3729 20.5629 11.6029C20.2917 11.6034 20.0516 11.5109 19.818 11.421C19.6598 11.36 19.5045 11.3003 19.3446 11.2712L17.7614 12.01C17.8188 12.048 17.8775 12.0854 17.9344 12.1216C18.208 12.2959 18.4399 12.4436 18.2895 12.5041C18.1908 12.544 17.9739 12.4667 17.7544 12.3884C17.5921 12.3305 17.4283 12.2721 17.3098 12.2602C17.262 12.2676 17.2145 12.2747 17.1671 12.2818C16.6513 12.3586 16.1445 12.4341 15.3225 12.9899C15.8836 13.106 16.3066 13.4769 15.9304 13.5283C15.7589 13.5517 15.6349 13.5049 15.4937 13.4515C15.2333 13.3532 14.9145 13.2327 14.1316 13.4903C14.1119 13.495 14.0866 13.504 14.0583 13.514C13.9658 13.5469 13.8423 13.5907 13.7879 13.5299C13.7673 13.5069 13.7542 13.4937 13.752 13.4789C13.7482 13.4539 13.7748 13.4244 13.8469 13.3365C14.2093 12.8948 14.9414 12.48 15.6578 12.1937C15.9249 12.0896 16.1959 11.9905 16.4669 11.8914C17.9858 11.3358 19.5049 10.7802 20.3424 9.35492C20.7882 8.67694 21.0582 7.7662 21.3385 6.82053C21.5862 5.98508 21.842 5.12236 22.2342 4.36878ZM12.6053 18.4365C12.5165 16.5045 12.5254 12.5185 12.5677 10.4649V10.4647C12.5714 10.2965 13.1382 10.2971 13.15 10.4647C13.1539 10.6129 13.105 10.7758 13.0547 10.9434C12.9413 11.3211 12.8206 11.7228 13.2814 12.0346C13.3691 12.1025 13.335 12.1703 13.3002 12.2381C12.8823 12.6105 12.9142 12.9991 13.0936 13.393L13.3754 13.7999C12.9374 14.1596 12.6621 14.5496 13.1124 15.1013L13.4692 15.3617C13.0321 15.7433 12.6619 16.1444 13.0372 16.7608L13.3564 17.086L12.9621 17.314C12.9537 17.3522 12.9429 17.3883 12.9321 17.4244C12.8888 17.569 12.8454 17.7138 12.9621 17.9972C12.9679 18.0036 12.9738 18.01 12.9797 18.0163C13.0726 18.1167 13.1655 18.217 13.0748 18.4365C12.8438 18.6462 12.6116 18.5719 12.6053 18.4365ZM11.4198 9.49385C11.1264 9.53384 11.2481 9.72547 11.5561 9.75551C11.6341 9.77973 11.7055 9.80073 11.7732 9.82066C12.0413 9.89958 12.2519 9.96157 12.5875 10.1391C12.6192 10.1443 12.6473 10.1511 12.6742 10.1576C12.7672 10.1799 12.8469 10.1991 13.0197 10.1391C13.0294 10.1337 13.0389 10.1284 13.0483 10.123C13.2545 10.0068 13.4172 9.91504 14.1437 9.7286C14.3252 9.73634 14.3055 9.55945 14.1299 9.50859C13.8513 9.48087 13.5853 9.59712 13.3195 9.71333C13.1967 9.76702 13.0739 9.82069 12.9499 9.86017C12.8559 9.90697 12.762 9.89518 12.668 9.86017C12.3122 9.68567 11.9532 9.51412 11.4198 9.49385ZM11.8453 8.87694L11.4327 9.32065V9.32046C11.323 8.85078 11.3417 8.44448 11.7599 8.23608C11.7912 8.27674 11.8242 8.31526 11.8576 8.35427C11.9712 8.48672 12.0895 8.62471 12.1581 8.87068L11.8453 8.87694ZM13.2304 8.90698L12.7354 9.4312V9.43102C12.6039 8.87602 12.6265 8.3962 13.1279 8.14984C13.1654 8.19785 13.205 8.24334 13.245 8.28937C13.3814 8.44598 13.5232 8.60896 13.6057 8.89961L13.2304 8.90698ZM14.6658 8.84617L14.1708 9.3704V9.37021C14.0393 8.81521 14.0619 8.33539 14.5633 8.08904C14.6008 8.13705 14.6404 8.18253 14.6804 8.22856C14.8168 8.38517 14.9587 8.54815 15.0411 8.8388L14.6658 8.84617ZM15.7011 7.94347L15.1474 8.42144C15.0816 7.8576 15.1601 7.3822 15.6879 7.18136C15.7195 7.23235 15.7535 7.28103 15.788 7.3303C15.9054 7.49806 16.0275 7.67273 16.0754 7.96926L15.7011 7.94347ZM16.4563 7.03634L16.2641 7.59779C15.9836 7.17362 15.8419 6.77137 16.1307 6.43786C16.1741 6.46772 16.2183 6.49496 16.2631 6.52252C16.4155 6.6164 16.5741 6.71415 16.7308 6.93279L16.4563 7.03634ZM15.7341 6.20532L15.5031 6.75571C15.2528 6.31754 15.1393 5.90884 15.4509 5.5908C15.4923 5.62299 15.5346 5.65258 15.5774 5.68253C15.7228 5.78425 15.8743 5.89017 16.0155 6.11651L15.7341 6.20532ZM15.1115 7.09862L14.7347 7.58489C14.6131 7.10747 14.6162 6.68698 15.0068 6.4432C15.0381 6.48301 15.0709 6.52048 15.1041 6.55841C15.2172 6.68746 15.3349 6.82177 15.4093 7.07099L15.1115 7.09862ZM14.2604 7.92965L13.817 8.37169V8.37188C13.7647 7.88506 13.8279 7.46826 14.2504 7.26815C14.2758 7.3111 14.303 7.3519 14.3307 7.39323C14.4243 7.53325 14.5219 7.67915 14.56 7.93425L14.2604 7.92965ZM12.7857 7.99451L12.3522 8.54674C12.213 8.00575 12.2171 7.52888 12.6663 7.25138C12.7021 7.2964 12.7398 7.33878 12.778 7.38168C12.9078 7.52769 13.0429 7.6797 13.1281 7.96226L12.7857 7.99451ZM12.1058 7.2897L11.8989 7.93315V7.93296C11.5672 7.45923 11.3951 7.00631 11.7181 6.61899C11.7686 6.65162 11.8198 6.68125 11.8717 6.71122C12.0488 6.81362 12.233 6.9201 12.4183 7.16441L12.1058 7.2897ZM11.3848 6.63226L11.2834 7.13898V7.13879C10.9636 6.8062 10.7758 6.47619 10.9987 6.15428C11.0435 6.17499 11.0886 6.19333 11.1342 6.21189C11.2891 6.2749 11.4503 6.34051 11.6265 6.51046L11.3848 6.63226ZM10.7133 6.21324L10.6201 6.62304V6.62286C10.3781 6.34647 10.2398 6.07486 10.4233 5.81763C10.4578 5.8353 10.4926 5.85104 10.5278 5.86698C10.6477 5.92118 10.7723 5.97758 10.9061 6.11927L10.7133 6.21324ZM10.0863 5.90718L10.0673 6.32435C9.77911 6.08371 9.59392 5.83366 9.72936 5.55506C9.76642 5.56781 9.80345 5.57867 9.84093 5.58965C9.9691 5.62721 10.1025 5.66629 10.26 5.78833L10.0863 5.90718ZM11.3313 8.16808L10.9739 8.64625V8.64606C10.8088 8.18872 10.7791 7.78298 11.1701 7.53827C11.2061 7.576 11.2436 7.61143 11.2815 7.64729C11.4102 7.76888 11.5442 7.89547 11.6418 8.13381L11.3313 8.16808ZM10.7367 7.51911L10.4893 7.99027C10.2527 7.60479 10.1519 7.24806 10.4727 6.98014C10.5129 7.00893 10.5542 7.0355 10.5959 7.0624C10.7381 7.15397 10.8862 7.24933 11.0205 7.44872L10.7367 7.51911ZM9.99543 6.97369L9.85724 7.39142C9.58692 7.10784 9.44006 6.82979 9.67592 6.56813C9.71582 6.58633 9.75623 6.60258 9.79713 6.61902C9.9364 6.67503 10.0814 6.73333 10.2317 6.87861L9.99543 6.97369ZM9.34683 6.61954L9.24364 6.97498C9.04169 6.7336 8.93187 6.49719 9.10802 6.27479C9.13787 6.29025 9.16808 6.30406 9.19864 6.31803C9.3028 6.36564 9.41109 6.41514 9.52335 6.53865L9.34683 6.61954ZM8.94624 7.29376L8.91012 7.62543C8.66616 7.43472 8.51396 7.23627 8.64663 7.0146C8.67884 7.02466 8.71112 7.03319 8.74381 7.04183C8.85546 7.07134 8.97174 7.10208 9.10544 7.19886L8.94624 7.29376ZM9.46697 7.73322L9.42975 8.09161C9.17896 7.88543 9.02234 7.67113 9.15869 7.43159C9.1919 7.44249 9.22516 7.45173 9.25882 7.46109C9.37364 7.493 9.49304 7.52618 9.63041 7.63077L9.46697 7.73322ZM10.005 8.18983L9.88856 8.60018V8.6C9.65768 8.31807 9.53183 8.04279 9.73175 7.7874C9.76598 7.80584 9.80066 7.82232 9.83577 7.83902C9.95435 7.89539 10.0779 7.95414 10.2059 8.09843L10.005 8.18983ZM10.563 8.78628L10.4321 9.25247V9.25229C10.1727 8.93222 10.0312 8.61916 10.256 8.32913C10.2943 8.34998 10.3331 8.36863 10.3725 8.38751C10.5058 8.45157 10.6447 8.51827 10.7887 8.68236L10.563 8.78628ZM14.4675 6.34167L14.1506 6.8589C13.9728 6.39493 13.926 5.97647 14.2854 5.69897C14.3213 5.73589 14.3586 5.77034 14.3963 5.80521C14.5239 5.92331 14.6569 6.04634 14.7605 6.28732L14.4675 6.34167ZM13.6969 7.19426L13.3748 7.65491V7.65473C13.2468 7.21711 13.2337 6.82831 13.5773 6.59153C13.607 6.62736 13.6381 6.66099 13.6696 6.69502C13.7768 6.81098 13.8883 6.93163 13.9652 7.15998L13.6969 7.19426ZM13.1353 6.59577L12.9787 7.11687C12.7115 6.72918 12.5703 6.35992 12.8217 6.04778C12.8619 6.07468 12.9027 6.09916 12.944 6.12394C13.085 6.20846 13.2319 6.2965 13.3809 6.49627L13.1353 6.59577ZM12.3271 6.13438L12.225 6.66542C11.9188 6.30003 11.74 5.94311 11.9578 5.61273C12.0009 5.63652 12.0442 5.65782 12.0881 5.67937C12.2372 5.75264 12.3924 5.8289 12.5613 6.01627L12.3271 6.13438ZM11.5652 5.63097L11.4714 6.06289C11.19 5.76567 11.0258 5.47564 11.2259 5.20699C11.2656 5.22641 11.3055 5.24378 11.346 5.26136C11.4829 5.32085 11.6254 5.3828 11.7804 5.53497L11.5652 5.63097ZM10.8381 5.23094L10.8191 5.64811C10.5309 5.40746 10.3457 5.15742 10.4812 4.87881C10.5182 4.89157 10.5552 4.90242 10.5927 4.9134C10.7209 4.95096 10.8543 4.99005 11.0118 5.11209L10.8381 5.23094ZM11.2889 4.74336L11.289 4.74357V4.74338C11.2889 4.74338 11.2889 4.74337 11.2889 4.74336ZM11.2889 4.74336L11.2326 4.38241L11.3658 4.25693C11.2045 4.17359 11.0794 4.15821 10.9591 4.14342C10.9238 4.13909 10.889 4.1348 10.8537 4.12887C10.7824 4.38664 10.9908 4.57606 11.2889 4.74336ZM12.1172 4.72182L12.0776 5.16C11.7609 4.89079 11.5617 4.61753 11.7275 4.33192C11.7689 4.34731 11.8103 4.3607 11.8522 4.37426C11.9961 4.42078 12.1459 4.46921 12.3195 4.60647L12.1172 4.72182ZM12.9132 5.16166L12.8736 5.67778C12.5569 5.36066 12.3577 5.03875 12.5235 4.70211C12.5652 4.72039 12.6068 4.73628 12.649 4.75236C12.7927 4.80711 12.9422 4.86412 13.1156 5.02549L12.9132 5.16166ZM13.7806 5.6658L13.666 6.17344V6.17326C13.3982 5.82408 13.2475 5.48301 13.4612 5.16719C13.5 5.18999 13.5391 5.21041 13.5788 5.23108C13.713 5.30108 13.8529 5.37403 14.0011 5.55285L13.7806 5.6658ZM15.0216 5.4703L14.9171 5.92837C14.673 5.61328 14.5357 5.30538 14.7304 5.02051C14.7658 5.04112 14.8015 5.05955 14.8376 5.07822C14.96 5.14136 15.0875 5.20717 15.2224 5.36858L15.0216 5.4703ZM14.2766 4.90387L14.2464 5.2982C13.9691 5.05847 13.7935 4.81414 13.9344 4.55599C13.9708 4.5697 14.0072 4.58158 14.044 4.5936C14.169 4.63438 14.2992 4.67684 14.4509 4.79866L14.2766 4.90387ZM13.4771 4.47067L13.4485 4.81911C13.185 4.60721 13.0183 4.39126 13.1522 4.16314C13.1866 4.17516 13.221 4.18557 13.2558 4.19611C13.3748 4.23209 13.4985 4.26954 13.6427 4.37744L13.4771 4.47067ZM12.7251 4.13329L12.7041 4.35109C12.5101 4.2186 12.3874 4.08354 12.4859 3.94092C12.5114 3.94851 12.5369 3.95509 12.5627 3.96174C12.6501 3.98429 12.7411 4.00776 12.8471 4.07506L12.7251 4.13329ZM14.6644 9.58144C14.6596 9.58727 14.6548 9.59309 14.6499 9.59888C14.4861 9.57788 14.7446 9.27348 14.9645 9.28343C15.0113 9.29909 15.0542 9.31659 15.0142 9.38108C14.8266 9.38543 14.7448 9.48425 14.6644 9.58144ZM15.9998 8.58679C16.0062 8.58203 16.0126 8.57727 16.019 8.57254C16.1725 8.62634 15.8382 8.8692 15.6274 8.81448C15.5862 8.78979 15.5493 8.7638 15.6057 8.70945C15.7889 8.74365 15.8953 8.66449 15.9998 8.58679ZM16.521 8.15462C16.517 8.16004 16.5131 8.16546 16.5091 8.17085C16.377 8.15168 16.5856 7.87253 16.7629 7.88174C16.8005 7.89611 16.8351 7.91233 16.803 7.97129C16.6518 7.97529 16.5859 8.06556 16.521 8.15462ZM17.1217 7.31254C17.1177 7.31796 17.1138 7.32338 17.1098 7.32877C16.9777 7.30942 17.1863 7.03045 17.3636 7.03966C17.4012 7.05403 17.4358 7.07025 17.4037 7.12921C17.2524 7.13321 17.1866 7.22348 17.1217 7.31254ZM17.2063 6.67808C17.2042 6.68432 17.2022 6.69054 17.2001 6.69675V6.69656C17.0671 6.71038 17.1765 6.39198 17.3497 6.35752C17.3905 6.36194 17.429 6.36913 17.4174 6.43362C17.2735 6.47424 17.2396 6.57697 17.2063 6.67808ZM16.8628 5.75156C16.8541 5.78663 16.8453 5.82173 16.8224 5.85651H16.8226C16.7076 5.89392 16.6571 5.68754 16.7986 5.6295C16.838 5.62305 16.8766 5.61863 16.8963 5.65806C16.8785 5.68906 16.8707 5.7203 16.8628 5.75156ZM16.1094 5.15248C16.1093 5.15253 16.1093 5.15258 16.1093 5.15263L16.1095 5.15244C16.1094 5.15246 16.1094 5.15247 16.1094 5.15248ZM16.1497 5.02974C16.141 5.07076 16.1322 5.1118 16.1094 5.15248C15.9945 5.19615 15.944 4.95489 16.0855 4.88711C16.1249 4.87937 16.1635 4.87421 16.1832 4.92027C16.1654 4.95657 16.1576 4.99315 16.1497 5.02974ZM15.5491 4.19461C15.5403 4.24567 15.5315 4.29671 15.5086 4.3474H15.5088C15.3938 4.40176 15.3433 4.1016 15.4848 4.0172C15.5242 4.00781 15.5628 4.00136 15.5825 4.05848C15.5647 4.10369 15.5569 4.14916 15.5491 4.19461ZM13.9653 4.11801C13.9211 4.08351 13.877 4.04902 13.841 4.00467C13.8522 3.89154 14.1688 4.02107 14.1718 4.17014C14.159 4.20386 14.1439 4.235 14.078 4.21768C14.0443 4.17974 14.0048 4.14887 13.9653 4.11801ZM14.5807 4.42167C14.5575 4.39155 14.534 4.36092 14.508 4.32897V4.32879C14.5395 4.16332 15.265 4.54106 14.6993 4.56833C14.6551 4.51853 14.6184 4.47079 14.5807 4.42167ZM15.2307 4.8854C15.2102 4.846 15.1893 4.8059 15.1659 4.76383C15.2584 4.57699 16.0875 5.16958 15.3409 5.08316C15.2984 5.01524 15.265 4.9513 15.2307 4.8854ZM15.9995 5.72679C16.085 5.62987 15.9925 5.25803 15.8808 5.24107C15.6972 5.2416 15.7455 5.31936 15.802 5.41027C15.8249 5.44699 15.849 5.48584 15.8598 5.52263C15.8568 5.72992 15.8898 5.82261 15.9995 5.72679ZM16.3012 6.01394C16.3074 5.9459 16.3128 5.88655 16.3802 5.8344C16.5025 5.89465 16.7326 6.02935 16.834 6.23554C16.7275 6.31939 16.6975 6.40323 16.6676 6.48708C16.658 6.51379 16.6485 6.5405 16.6365 6.56721C16.5972 6.58693 16.5581 6.57993 16.5191 6.56445C16.4551 6.27912 16.3975 6.20866 16.34 6.13818C16.3246 6.11936 16.3092 6.10054 16.2937 6.07763C16.2974 6.05559 16.2994 6.03437 16.3012 6.01394ZM10.0588 4.79647C10.0147 4.73324 9.97059 4.67004 9.93463 4.58879C9.94587 4.38167 10.2624 4.61882 10.2652 4.89208C10.2527 4.95362 10.2376 5.0113 10.1716 4.97942C10.1379 4.90976 10.0984 4.85311 10.0588 4.79647ZM9.48761 5.37136C9.44348 5.30814 9.39937 5.24493 9.36341 5.16368C9.37465 4.95657 9.69122 5.1939 9.69416 5.46698C9.68145 5.52852 9.66634 5.5862 9.60037 5.55432C9.56668 5.48466 9.52714 5.42801 9.48761 5.37136ZM8.87398 5.81016C8.84105 5.74182 8.80814 5.67352 8.7535 5.60039V5.6002C8.55394 5.48577 8.58822 5.8473 8.84102 6.01055C8.90589 6.03819 8.96835 6.06159 8.97756 5.99655C8.93274 5.93209 8.90335 5.87111 8.87398 5.81016ZM8.39044 6.50577C8.34655 6.45278 8.30267 6.39979 8.23941 6.34665C8.04464 6.28437 8.1598 6.5908 8.41077 6.68532C8.47158 6.69712 8.52962 6.70596 8.52188 6.64792C8.46885 6.60045 8.42964 6.55311 8.39044 6.50577ZM8.08233 7.15179C8.14262 7.19089 8.20292 7.23 8.28179 7.26428V7.26409C8.48908 7.27257 8.27276 7.01055 8.0006 6.98586C7.93832 6.99046 7.88009 6.99728 7.90773 7.05053C7.97473 7.08199 8.02853 7.11689 8.08233 7.15179ZM8.57006 7.86739C8.50375 7.83654 8.43743 7.8057 8.35365 7.78205C8.14709 7.8003 8.40616 8.03173 8.67961 8.02104C8.74023 8.00833 8.7968 7.99414 8.76032 7.94494C8.68858 7.92251 8.62932 7.89495 8.57006 7.86739ZM8.96213 8.68913C8.954 8.69081 8.94588 8.6925 8.93776 8.69415C8.8296 8.58544 9.25525 8.50178 9.41372 8.6339C9.43748 8.67204 9.45646 8.70982 9.37778 8.73598C9.23272 8.63296 9.09618 8.6613 8.96213 8.68913ZM9.93068 9.42896C9.92155 9.43095 9.91242 9.43294 9.9033 9.43489C9.78464 9.30941 10.2516 9.21285 10.4259 9.36524C10.4517 9.40946 10.4727 9.45295 10.3861 9.48317C10.2272 9.36433 10.0777 9.3969 9.93068 9.42896Z" fill="white"/>
<path d="M7.46484 2.1693C8.47277 3.1411 8.87539 3.12967 9.43279 3.3694C8.89179 2.2537 7.94062 2.18202 7.46484 2.1693ZM9.49728 2.6318C9.40534 2.35283 8.93159 0.896057 8.80869 1.61652C7.90468 1.21336 9.1938 2.70458 9.49728 2.6318ZM10.555 2.87871C10.1669 1.72192 9.85973 1.60583 9.53193 1.22386C9.51387 2.35891 10.2019 2.71859 10.555 2.87853V2.87871ZM11.0027 2.37936C11.3324 1.92663 10.437 0.322082 10.2889 1.11183C9.95776 1.09653 9.83762 1.38085 10.0578 1.40536C10.6742 1.47445 10.8072 2.42672 11.0027 2.37936ZM12.6888 2.40332C12.7888 2.0499 13.3178 0.206919 12.6659 0.925907C11.9675 -6.85968e-06 12.3046 2.31929 12.6888 2.40332ZM11.2865 0.757861C11.41 2.13024 11.7433 2.34343 12.0228 2.85273C12.3785 1.61818 11.6617 1.03167 11.2865 0.757676V0.757861ZM13.3208 2.78842C13.8686 1.57101 13.7162 1.28669 13.7427 0.763941C12.897 1.71731 13.1653 2.43888 13.3208 2.78824V2.78842ZM14.1518 2.48808C14.395 2.21261 15.6713 0.779051 14.7595 1.20156C14.5049 0.18536 13.8306 2.29718 14.1518 2.48808ZM14.7396 2.9819C15.78 1.96422 15.7426 1.64434 15.9805 1.14628C14.7486 1.82068 14.7252 2.5979 14.7396 2.9819ZM15.7715 2.68155C16.3713 2.68929 17.4542 1.276 16.6237 1.5605C16.4712 1.3217 16.1384 1.37753 16.2259 1.54337C16.4713 2.00771 15.6272 2.56841 15.7715 2.68155ZM17.8039 1.96293C16.4032 2.44717 16.2768 2.77847 15.8246 3.14884C17.2202 3.09411 17.6258 2.34546 17.8039 1.96293Z" fill="white"/>
</g>
<defs>
<clipPath id="clip0_6194_138681">
<rect width="25" height="19.14" fill="white"/>
</clipPath>
</defs>
</svg>
