<svg width="25" height="28" viewBox="0 0 25 28" fill="none" xmlns="http://www.w3.org/2000/svg">
<path d="M9.25478 9.01C9.79054 8.73534 10.2285 8.43788 10.5772 8.15765C10.6521 8.09743 10.724 8.03716 10.7931 7.97716L7.44909 5.33643L6.9043 7.59412L9.25478 9.01Z" fill="white"/>
<path d="M10.2905 3.29368L9.88488 4.50906L7.76806 5.04328L9.45628 6.3359L11.4801 6.04103L12.519 3.93997L13.5576 6.04169L15.5817 6.3359L17.2688 5.04328L15.1517 4.50906C15.1517 4.50906 13.7115 0 12.9684 0C12.074 0 11.4827 0 10.9423 0C10.127 0 10.3515 0.970419 9.13611 0.970419C7.92101 0.970419 7.70117 2.43103 7.70117 2.43103C7.70117 2.43103 8.15737 2.43103 9.32157 2.43103C10.4872 2.43098 10.2905 3.29368 10.2905 3.29368ZM10.8826 0.726065C11.0279 0.726065 11.1448 0.842925 11.1448 0.987444C11.1448 1.13169 11.0279 1.24932 10.8826 1.24932C10.7384 1.24932 10.6211 1.13169 10.6211 0.987444C10.6211 0.842925 10.739 0.726065 10.8826 0.726065Z" fill="white"/>
<path d="M14.4382 8.15789C14.7801 8.4326 15.2075 8.72395 15.7291 8.99415L18.1319 7.51138L17.5887 5.33594L14.2324 7.98609C14.2984 8.04323 14.3669 8.10058 14.4382 8.15789Z" fill="white"/>
<path d="M17.9551 5.10156L18.4719 7.30627H22.5025C24.156 7.30627 25 5.10156 25 5.10156H17.9551Z" fill="white"/>
<path d="M16.2539 9.2425C17.2291 9.6663 18.4771 9.99655 20.0409 10.0556C21.6155 9.92388 22.7779 7.85742 22.7779 7.85742H18.3857L16.2539 9.2425Z" fill="white"/>
<path d="M6.52808 7.30626L7.04483 5.10156H0C0 5.10156 0.843972 7.30626 2.49764 7.30626H6.52808Z" fill="white"/>
<path d="M8.75338 9.24691L6.61497 7.85742H2.22266C2.22266 7.85742 3.38724 9.9278 4.96399 10.056C6.52841 9.99849 7.77723 9.66972 8.75338 9.24691Z" fill="white"/>
<path d="M12.5003 6.55664C12.5003 6.55664 10.659 10.5659 4.46484 10.5659C4.46484 25.0126 8.95639 22.2752 12.5003 27.0172C16.0444 22.2754 20.5359 25.0125 20.5359 10.5659C14.3418 10.5659 12.5003 6.55664 12.5003 6.55664ZM17.9294 20.0499C17.1791 21.6397 16.1919 22.3123 14.9419 23.164C14.1734 23.6879 13.332 24.2611 12.5003 25.096C11.6686 24.2611 10.8273 23.6877 10.0587 23.164C8.80884 22.3123 7.82167 21.6396 7.07136 20.0499C6.24833 18.3062 5.80915 15.5907 5.73471 11.7709C9.25738 11.4674 11.3584 9.92917 12.5003 8.69489C13.6422 9.92917 15.743 11.4674 19.266 11.7709C19.1917 15.5908 18.7524 18.3061 17.9294 20.0499Z" fill="white"/>
<path d="M10.7398 17.7006C10.7623 17.7006 10.7848 17.7053 10.8073 17.7146C10.8297 17.7221 10.8513 17.7362 10.8719 17.7568L11.2483 18.1535C11.0835 18.3692 10.8765 18.5324 10.6275 18.643C10.3803 18.7518 10.0872 18.8062 9.74828 18.8062C9.43742 18.8062 9.15839 18.7537 8.9112 18.6486C8.66589 18.5417 8.45709 18.3955 8.2848 18.2098C8.11439 18.0222 7.98331 17.8009 7.89155 17.5458C7.79979 17.2889 7.75391 17.0104 7.75391 16.7103C7.75391 16.4046 7.80634 16.1242 7.91121 15.8691C8.01608 15.6122 8.16214 15.3908 8.34941 15.2052C8.53855 15.0195 8.7642 14.8751 9.02637 14.7719C9.28854 14.6688 9.57786 14.6172 9.89434 14.6172C10.0479 14.6172 10.1921 14.6313 10.3269 14.6594C10.4636 14.6856 10.591 14.7232 10.7089 14.7719C10.8269 14.8188 10.9355 14.876 11.0348 14.9435C11.134 15.0092 11.222 15.0823 11.2988 15.163L10.9786 15.5934C10.958 15.6197 10.9337 15.644 10.9056 15.6665C10.8775 15.6872 10.8382 15.6975 10.7876 15.6975C10.7539 15.6975 10.7221 15.69 10.6921 15.675C10.6621 15.66 10.6303 15.6422 10.5966 15.6215C10.5629 15.599 10.5254 15.5756 10.4842 15.5512C10.4449 15.5249 10.3971 15.5015 10.341 15.4809C10.2867 15.4584 10.2221 15.4396 10.1471 15.4246C10.0741 15.4096 9.98797 15.4021 9.88872 15.4021C9.71644 15.4021 9.55914 15.433 9.41682 15.4949C9.2745 15.555 9.15184 15.6422 9.04884 15.7566C8.94772 15.8691 8.86813 16.006 8.81008 16.1673C8.7539 16.3286 8.72581 16.5096 8.72581 16.7103C8.72581 16.9203 8.7539 17.107 8.81008 17.2701C8.86813 17.4333 8.94585 17.5712 9.04322 17.6837C9.14247 17.7943 9.25764 17.8787 9.38873 17.9369C9.51981 17.995 9.66026 18.0241 9.81007 18.0241C9.89621 18.0241 9.97487 18.0203 10.046 18.0128C10.1172 18.0035 10.1827 17.9885 10.2427 17.9678C10.3045 17.9472 10.3625 17.9209 10.4168 17.8891C10.473 17.8553 10.5292 17.814 10.5853 17.7653C10.6078 17.7465 10.6322 17.7315 10.6584 17.7203C10.6846 17.7071 10.7118 17.7006 10.7398 17.7006Z" fill="white"/>
<path d="M12.7214 18.7612H11.7664V14.6622H12.7214V18.7612Z" fill="white"/>
<path d="M17.2906 18.7612H16.5546C16.4722 18.7612 16.4039 18.7424 16.3496 18.7049C16.2971 18.6655 16.2606 18.6158 16.24 18.5558L15.9985 17.8412H14.4423L14.2007 18.5558C14.182 18.6083 14.1455 18.6562 14.0912 18.6993C14.0369 18.7406 13.9704 18.7612 13.8917 18.7612H13.1502L14.7344 14.6622H15.7063L17.2906 18.7612ZM14.6614 17.1942H15.7794L15.403 16.0717C15.3786 16.0004 15.3496 15.9169 15.3159 15.8213C15.284 15.7238 15.2522 15.6187 15.2204 15.5062C15.1904 15.6206 15.1595 15.7266 15.1277 15.8241C15.0958 15.9216 15.0659 16.006 15.0378 16.0773L14.6614 17.1942Z" fill="white"/>
</svg>
