<svg width="23" height="13" viewBox="0 0 23 13" fill="none" xmlns="http://www.w3.org/2000/svg">
<g clip-path="url(#clip0_6194_139541)">
<path d="M14.807 2.86346C14.807 3.37679 14.587 3.49901 14.3181 3.49901H14.147V2.2279H14.3181C14.587 2.2279 14.807 2.35012 14.807 2.86346ZM14.147 4.62346H14.4403C15.2714 4.62346 16.0048 4.35457 16.0048 2.8879C16.0048 1.42123 15.2714 1.15234 14.4403 1.15234H12.9492V6.48123H14.1714V4.62346H14.147Z" fill="white"/>
<path d="M3.46562 6.92139V8.97472H2.48785V6.92139H1.26562V12.2503H2.48785V10.0747H3.46562V12.2503H4.68785V6.92139H3.46562Z" fill="white"/>
<path d="M5.12695 6.92139V12.2503H8.18251V11.1503H6.34918V10.0747H7.81584V8.97472H6.34918V7.99694H8.18251V6.92139H5.12695Z" fill="white"/>
<path d="M15.8101 6.92139H14.5879V12.2503H15.8101V6.92139Z" fill="white"/>
<path d="M18.3767 7.99694H19.3056V6.92139H16.25V7.99694H17.1789V12.2503H18.3767V7.99694Z" fill="white"/>
<path d="M21.8708 7.99694H22.7997V6.92139H19.7441V7.99694H20.6486V12.2503H21.8708V7.99694Z" fill="white"/>
<path d="M16.25 1.12793V6.48126H19.3056V5.38126H17.4722V4.30571H18.9389V3.20571H17.4722V2.22793H19.3056V1.12793H16.25Z" fill="white"/>
<path d="M7.35057 3.98802C7.35057 5.21024 7.22835 5.47913 6.8128 5.47913H6.76391C6.34835 5.47913 6.22613 5.21024 6.22613 3.98802V3.62135C6.22613 2.39913 6.34835 2.13024 6.76391 2.13024H6.8128C7.22835 2.13024 7.35057 2.39913 7.35057 3.62135V3.98802ZM5.00391 3.89024C5.00391 5.87024 5.44391 6.53024 6.78835 6.53024C8.1328 6.53024 8.5728 5.87024 8.5728 3.89024V3.69469C8.5728 1.71469 8.1328 1.05469 6.78835 1.05469C5.44391 1.05469 5.00391 1.71469 5.00391 3.69469V3.89024Z" fill="white"/>
<path d="M1.14264 3.89021C1.14264 5.87021 1.72931 6.53021 3.00042 6.53021C4.17375 6.53021 4.71153 6.09021 4.71153 4.74577V4.5991H3.51375C3.48931 5.2591 3.31819 5.4791 3.02486 5.4791H2.92708C2.60931 5.4791 2.34042 5.21021 2.34042 3.98799V3.62132C2.34042 2.3991 2.60931 2.13021 2.92708 2.13021H2.97597C3.29375 2.13021 3.46486 2.32577 3.46486 3.20577H4.66264V2.86355C4.66264 1.49466 4.12486 1.0791 2.95153 1.0791C1.68042 1.0791 1.09375 1.7391 1.09375 3.7191V3.89021H1.14264Z" fill="white"/>
<path d="M11.1885 3.98802C11.1885 5.21024 11.0662 5.47913 10.6507 5.47913H10.6018C10.1862 5.47913 10.064 5.21024 10.064 3.98802V3.62135C10.064 2.39913 10.1862 2.13024 10.6018 2.13024H10.6507C11.0662 2.13024 11.1885 2.39913 11.1885 3.62135V3.98802ZM8.8418 3.89024C8.8418 5.87024 9.2818 6.53024 10.6262 6.53024C11.9707 6.53024 12.4107 5.87024 12.4107 3.89024V3.69469C12.4107 1.71469 11.9707 1.05469 10.6262 1.05469C9.2818 1.05469 8.8418 1.71469 8.8418 3.69469V3.89024Z" fill="white"/>
<path d="M20.9664 4.62348H21.1864L21.5041 6.48126H22.7997L22.2375 4.33015C22.5064 4.1346 22.7997 3.74349 22.7997 2.86349C22.7997 1.42126 22.0664 1.12793 21.2352 1.12793H19.7441V6.48126H20.9664V4.62348ZM21.6264 2.86349C21.6264 3.37682 21.4064 3.49904 21.1375 3.49904H20.9664V2.22793H21.1375C21.4064 2.22793 21.6264 2.35015 21.6264 2.86349Z" fill="white"/>
<path d="M11.3366 6.92139H10.6277L10.0899 10.7592H10.0654L9.74767 6.92139H8.47656L9.20989 12.2503H10.7988L11.3366 8.60805H11.361L11.8743 12.2503H13.4877L14.1966 6.92139H12.9254L12.6321 10.7592H12.5832L12.0454 6.92139H11.3366Z" fill="white"/>
</g>
<defs>
<clipPath id="clip0_6194_139541">
<rect width="22" height="11.5867" fill="white" transform="translate(0.996094 0.859375)"/>
</clipPath>
</defs>
</svg>
