<svg width="25" height="7" viewBox="0 0 25 7" fill="none" xmlns="http://www.w3.org/2000/svg">
<g clip-path="url(#clip0_6194_138706)">
<path d="M16.6424 1.69732L16.0061 3.3659L17.2787 3.35176L16.6424 1.69732ZM15.9991 0.134791H17.2787L19.6543 6.30713H18.4099L17.7807 4.56077H15.589L14.8537 6.30713H13.6094L15.9991 0.134791" fill="white"/>
<path d="M19.8535 0.134575H21.0696L23.7067 4.15753V0.134575H24.8945V6.2998H23.7492L21.0696 2.19201V6.2998H19.8747L19.8535 0.134575Z" fill="white"/>
<path d="M12.3581 3.29492H11.6016V1.40716H12.3581C12.8813 1.40716 13.2985 1.83138 13.2985 2.35458C13.2985 2.87071 12.8813 3.29492 12.3581 3.29492ZM12.3793 0.134516L10.4492 0.113305V6.28564H11.6158V4.48273H12.3793C13.5813 4.48273 14.5499 3.50703 14.5499 2.30509C14.5499 1.11021 13.5813 0.134516 12.3793 0.134516" fill="white"/>
<path d="M9.41106 0.134787V1.42157H7.24759C7.24759 1.42157 6.99307 1.44278 6.95065 1.5559C6.90823 1.66195 6.88702 1.78922 7.06377 1.95183C7.24052 2.12152 9.03634 3.31638 9.29086 3.62747C9.54539 3.93856 9.80698 4.49004 9.70093 4.92132C9.58074 5.42331 9.22016 6.31416 7.83442 6.30709C6.45574 6.30002 5.72751 6.30709 5.72751 6.30709V5.04859L8.13843 5.05566C8.13843 5.05566 8.8313 4.80113 8.32226 4.32743C7.90512 3.93149 6.32141 3.06893 5.97497 2.51745C5.62853 1.96597 5.57904 0.976142 6.13051 0.56607C6.34969 0.403455 6.6537 0.134787 7.26173 0.134787C7.64352 0.134787 9.41106 0.134787 9.41106 0.134787Z" fill="white"/>
<path d="M3.98047 4.48308H5.7518V3.39941H3.98047V4.48308Z" fill="white"/>
<path d="M3.18172 6.31396C1.46368 6.31396 0.113281 4.96354 0.113281 3.24547C0.113281 1.5274 1.5061 0.134556 3.22414 0.134556H4.0372V1.41427H3.11102C2.10706 1.41427 1.29399 2.22735 1.29399 3.23133C1.29399 4.23531 2.10706 5.04839 3.11102 5.04839H4.03013V6.31396H3.18172Z" fill="white"/>
</g>
<defs>
<clipPath id="clip0_6194_138706">
<rect width="25" height="6.44806" fill="white"/>
</clipPath>
</defs>
</svg>
