<svg width="25" height="18" viewBox="0 0 25 18" fill="none" xmlns="http://www.w3.org/2000/svg">
<path d="M22.497 12.1812C22.1274 12.1866 21.7197 12.1793 21.2883 12.1721C18.6111 12.1257 14.7629 12.0634 12.5003 14.9375C10.2375 12.0634 6.38951 12.1259 3.71186 12.1721C3.28054 12.1793 2.87299 12.1866 2.50358 12.1812C2.41502 12.1802 1.57289 12.2065 0 12.2589C0 12.2589 0.106585 14.1753 1.49621 14.1753C1.9952 14.1753 2.35598 14.164 2.48921 14.1631C2.87701 14.1681 3.30009 14.1608 3.74809 14.1534C7.40187 14.0902 10.3002 14.2881 11.5999 17.3829L11.8591 18H12.4541H12.5453H13.1408L13.4001 17.3829C14.6996 14.2881 17.5977 14.09 21.2517 14.1534C21.6999 14.161 22.123 14.1683 22.5108 14.1631C22.6436 14.164 23.0048 14.1753 23.5036 14.1753C24.8936 14.1753 25 12.2589 25 12.2589C23.4275 12.2065 22.5852 12.1804 22.497 12.1812Z" fill="white"/>
<path fill-rule="evenodd" clip-rule="evenodd" d="M12.3516 1.47999C12.5627 0.916075 12.9881 0.465424 13.5484 0.211177C14.7064 -0.313497 16.0888 0.173422 16.6301 1.29605C16.7762 1.59865 16.8496 1.92209 16.8496 2.24701C16.8496 2.50516 16.8032 2.76425 16.7095 3.0144C16.513 3.54094 16.1244 3.96164 15.6186 4.22314C15.6496 4.51589 15.6791 4.80901 15.6791 5.10268C15.6791 5.2934 15.6658 5.48339 15.6526 5.67302L15.6526 5.67306L15.6521 5.67999C15.8426 5.8273 16.0077 6.00101 16.1116 6.21657C16.2117 6.42432 16.2621 6.64584 16.2621 6.86865C16.2621 7.0459 16.2303 7.22333 16.166 7.39481C16.0213 7.78204 15.7299 8.09153 15.3452 8.2658C15.2642 8.30244 15.1761 8.31775 15.088 8.33305C15.058 8.33825 15.0281 8.34345 14.9984 8.34949C14.7279 8.98167 14.3677 9.59878 13.932 10.1936C14.7511 10.0768 15.5133 9.8653 16.2042 9.55842C16.2301 9.07485 16.5188 8.63034 16.9827 8.42054C17.3228 8.2658 17.7012 8.26505 18.0449 8.39227C18.3593 8.11626 18.6447 7.81515 18.901 7.4932C18.6357 7.14522 18.489 6.72841 18.489 6.30138C18.489 6.07318 18.5293 5.84348 18.6121 5.62159C19.0015 4.58415 20.1883 4.04645 21.2579 4.42197C22.3282 4.80008 22.8824 5.95061 22.4942 6.98824C22.3067 7.49041 21.9285 7.89233 21.4289 8.11924C20.997 8.31564 20.5216 8.3348 20.0658 8.226C19.7176 8.67088 19.3298 9.08006 18.9048 9.44664C18.9081 9.4696 18.9132 9.49255 18.9183 9.51547C18.9268 9.55383 18.9353 9.59207 18.9353 9.63003C18.9353 10.1352 18.6395 10.6124 18.1465 10.8365C17.728 11.0264 17.2549 10.9766 16.8673 10.7501C16.019 11.1425 15.0852 11.409 14.084 11.5491C13.946 12.03 13.6149 12.4338 13.1397 12.6494C12.7099 12.8443 12.2276 12.8651 11.7813 12.7078C11.3354 12.5508 10.9796 12.2346 10.7803 11.8191C10.6729 11.5989 10.6189 11.3584 10.6156 11.1146C10.0518 10.7114 9.46541 10.3898 8.86673 10.1465C8.75344 10.2583 8.62653 10.3558 8.47739 10.4238C7.79111 10.7348 6.97179 10.4458 6.6507 9.77938C6.6356 9.74789 6.62918 9.71334 6.62275 9.67877C6.61831 9.65495 6.61388 9.63111 6.60661 9.60827C6.03937 9.56679 5.47597 9.60138 4.92062 9.69103C4.81096 10.2464 4.45421 10.7233 3.9119 10.9693C2.99424 11.3852 1.89791 10.9998 1.46793 10.1091C1.03853 9.21862 1.43611 8.15495 2.35454 7.73796C3.18383 7.36115 4.14807 7.65482 4.64438 8.37237C5.40044 8.25111 6.16493 8.21595 6.92713 8.2883C7.04138 8.17411 7.16637 8.07423 7.31378 8.00783C7.646 7.85681 8.01904 7.84026 8.3641 7.96133C8.70992 8.08279 8.98597 8.32773 9.14201 8.65117L9.1907 8.81223C9.87756 9.06722 10.5412 9.41335 11.1763 9.83536C11.206 9.80823 11.2387 9.78425 11.2713 9.76026L11.2713 9.76025L11.3015 9.7379C11.2264 9.30269 11.1192 8.88589 10.9842 8.4901C10.4789 8.47187 10.0156 8.19084 9.79283 7.72959C9.70637 7.54918 9.66401 7.35799 9.66401 7.16846C9.66401 6.91887 9.76196 6.68471 9.90152 6.47045C9.45506 5.88588 8.92482 5.37944 8.31694 4.96096C7.83712 5.27045 7.2394 5.37888 6.68904 5.18526C6.22781 5.0229 5.85936 4.6963 5.65175 4.26518C5.44415 3.83405 5.4221 3.3503 5.58945 2.90281C5.93508 1.97975 6.99058 1.50082 7.94236 1.83598C8.68596 2.09915 9.15083 2.78638 9.15083 3.5149C9.15083 3.59265 9.13225 3.67032 9.11361 3.74821L9.11361 3.74822L9.11361 3.74823L9.11361 3.74823L9.1136 3.74824L9.1136 3.74824L9.1136 3.74825C9.10567 3.78139 9.09773 3.81457 9.09121 3.84782C9.88964 4.40132 10.5807 5.07032 11.147 5.84794C11.6368 5.88458 12.0712 6.15873 12.284 6.60027C12.3704 6.77993 12.4126 6.97094 12.4126 7.16102C12.4126 7.38644 12.3344 7.60349 12.2172 7.80492C12.4145 8.31899 12.564 8.86096 12.6687 9.42172C12.7019 9.42693 12.7339 9.43381 12.7665 9.44106C13.1134 8.97535 13.4004 8.49475 13.6281 8.00579C13.4673 7.86797 13.3264 7.71155 13.2344 7.52128C13.1345 7.31354 13.0839 7.09165 13.0839 6.86884C13.0839 6.69159 13.1157 6.51378 13.18 6.3423C13.3247 5.95544 13.6157 5.64652 14.0004 5.47243C14.0575 5.44654 14.1189 5.43665 14.1805 5.42673C14.2154 5.42112 14.2503 5.4155 14.2845 5.40696C14.2859 5.37565 14.2875 5.34433 14.2892 5.31303L14.2892 5.31291L14.2892 5.3128L14.2892 5.31268L14.2892 5.31257L14.2892 5.31245L14.2892 5.31233C14.293 5.24068 14.2968 5.16908 14.2968 5.09766C14.2968 4.90599 14.2784 4.71654 14.26 4.52732V4.52731V4.5273V4.52729V4.52727V4.52726V4.52725V4.52724V4.52723L14.2533 4.45768C13.4683 4.36449 12.7728 3.90938 12.4314 3.2002C12.2849 2.89704 12.2117 2.57324 12.2117 2.2485C12.2117 1.98979 12.2583 1.73052 12.3516 1.47999ZM11.0977 6.36101C11.5547 6.39281 11.8986 6.77799 11.8657 7.22139C11.8331 7.66479 11.4361 7.99845 10.98 7.96628C10.5222 7.93484 10.1781 7.54966 10.2111 7.10626C10.2439 6.66287 10.6405 6.3292 11.0977 6.36101ZM12.4035 12.3313C13.1118 12.3313 13.686 11.7743 13.686 11.0871C13.686 10.3999 13.1118 9.8428 12.4035 9.8428C11.6952 9.8428 11.121 10.3999 11.121 11.0871C11.121 11.7743 11.6952 12.3313 12.4035 12.3313ZM4.37605 9.34495C4.37605 10.0119 3.81878 10.5526 3.13135 10.5526C2.44393 10.5526 1.88665 10.0119 1.88665 9.34495C1.88665 8.678 2.44393 8.13733 3.13135 8.13733C3.81878 8.13733 4.37605 8.678 4.37605 9.34495ZM8.5894 3.62363C8.63866 2.95835 8.12223 2.38048 7.43652 2.33268C6.7512 2.28562 6.15559 2.78556 6.10671 3.45084C6.05744 4.11613 6.57311 4.69418 7.25958 4.74179C7.94471 4.78941 8.54013 4.28872 8.5894 3.62363ZM7.0743 9.15706C7.10728 8.71552 7.50237 8.3839 7.95708 8.41571C8.41198 8.44695 8.75378 8.83046 8.72176 9.27163C8.68898 9.71279 8.2937 10.0448 7.83899 10.0133C7.3837 9.98155 7.0421 9.59822 7.0743 9.15706ZM20.651 4.99123C19.9045 4.93934 19.256 5.48429 19.2027 6.20872C19.1492 6.93314 19.7109 7.56216 20.4572 7.61423C21.2042 7.6665 21.8521 7.12118 21.9062 6.39675C21.9593 5.6727 21.3976 5.04313 20.651 4.99123ZM18.3952 9.62657C18.3952 10.071 18.0239 10.4313 17.5657 10.4313C17.1076 10.4313 16.7363 10.071 16.7363 9.62657C16.7363 9.18211 17.1076 8.8218 17.5657 8.8218C18.0239 8.8218 18.3952 9.18211 18.3952 9.62657ZM14.6736 7.83705C15.2269 7.83705 15.6754 7.40188 15.6754 6.86507C15.6754 6.32826 15.2269 5.89309 14.6736 5.89309C14.1203 5.89309 13.6718 6.32826 13.6718 6.86507C13.6718 7.40188 14.1203 7.83705 14.6736 7.83705ZM12.9259 2.13443C12.9898 1.27479 13.7592 0.627735 14.6456 0.689669C15.5319 0.751046 16.1978 1.49779 16.135 2.35762C16.0713 3.21726 15.3022 3.86431 14.4154 3.80294C13.5292 3.74137 12.863 2.99463 12.9259 2.13443Z" fill="white"/>
</svg>
