<svg width="17" height="18" viewBox="0 0 17 18" fill="none" xmlns="http://www.w3.org/2000/svg">
<g clip-path="url(#clip0_6194_139606)">
<path d="M16.9461 15.316L13.5805 2.03809C13.3992 1.32687 12.793 0.859375 12.1336 0.859375C12.0051 0.859375 11.8744 0.877016 11.7442 0.913861L9.81234 1.46105C9.62844 1.51318 9.46422 1.60243 9.31922 1.71449C9.06797 1.20834 8.57109 0.859375 7.99609 0.859375H5.99609C5.72109 0.859375 5.46797 0.943412 5.24609 1.08038C5.02422 0.943412 4.77109 0.859375 4.49609 0.859375H2.49609C1.66766 0.859375 0.996094 1.57291 0.996094 2.45312V16.2656C0.996094 17.1455 1.66766 17.8594 2.49609 17.8594H4.49609C4.77069 17.8594 5.02484 17.7753 5.24609 17.6384C5.46797 17.7764 5.72109 17.8594 5.99609 17.8594H7.99609C8.82453 17.8594 9.49609 17.1458 9.49609 16.2656V6.34785L12.1148 16.684C12.2961 17.3912 12.8992 17.8594 13.5617 17.8594C13.6902 17.8594 13.8209 17.8417 13.9511 17.8049L15.883 17.2577C16.6836 17.0293 17.1586 16.1594 16.9461 15.316ZM7.99609 2.45312V4.04688H5.99609V2.45312H7.99609ZM5.99609 5.64062H7.99609V13.0781H5.99609V5.64062ZM4.49609 13.0781H2.49609V5.64062H4.49609V13.0781ZM4.49609 2.45312V4.04688H2.49609V2.45312H4.49609ZM2.49609 16.2656V14.6719H4.49609V16.2656H2.49609ZM5.99609 16.2656L5.99613 14.7018L7.99609 14.6719V16.2656H5.99609ZM10.1961 3.00098L12.1283 2.45379L12.518 3.97814L10.5836 4.525L10.1961 3.00098ZM10.9742 6.05898L12.9089 5.5108L14.7227 12.6594L12.788 13.2076L10.9742 6.05898ZM13.5648 16.2689L13.177 14.7403L15.1117 14.1921L15.4986 15.7174L13.5648 16.2689Z" fill="white"/>
</g>
<defs>
<clipPath id="clip0_6194_139606">
<rect width="16" height="17" fill="white" transform="translate(0.996094 0.859375)"/>
</clipPath>
</defs>
</svg>
