<svg width="25" height="25" viewBox="0 0 25 25" fill="none" xmlns="http://www.w3.org/2000/svg">
<g clip-path="url(#clip0_6194_139221)">
<path d="M18.3158 11.7973V11.6681L18.3117 11.539L18.3033 11.4098L18.2908 11.2848L18.2783 11.1598L18.2617 11.0306L18.2408 10.9056L18.2158 10.7848L18.1908 10.6598L18.1617 10.539L18.1283 10.414L18.095 10.2973L18.0575 10.1765L18.0158 10.0556L17.9742 9.93898L17.9283 9.8223L17.8783 9.70982L17.8242 9.59314L17.77 9.48063L17.7117 9.37232L17.6533 9.25981L17.5867 9.15147L17.5242 9.04731L17.4533 8.93897L17.3825 8.83481L17.3075 8.73481L17.2325 8.63064L17.1533 8.53482L17.07 8.43482L16.9867 8.33897L16.8992 8.24732L16.8075 8.1515C16.6159 7.964 16.4117 7.789 16.1992 7.63067L15.3909 8.98482C16.2367 9.65982 16.8367 10.6306 16.8367 11.7973C16.8367 13.8223 15.195 15.4681 13.1659 15.4681C12.6909 15.4681 12.2367 15.3764 11.8201 15.2139L11.0742 16.5056C11.7242 16.7931 12.4325 16.9473 13.1659 16.9473C16.0075 16.9473 18.3158 14.6348 18.3158 11.7973Z" fill="white"/>
<path d="M17.0061 2.47273L17.002 2.38105V2.29354L16.9978 2.21023L16.9936 2.12272L16.9895 2.03521L16.9811 1.9519L16.9728 1.86439L16.9686 1.78105L16.9561 1.69771L16.9478 1.6144L16.9395 1.53523L16.927 1.4519L16.9145 1.37273L16.902 1.29356L16.8853 1.21439L16.8728 1.13523L16.8436 0.99355L16.7395 1.0894C16.4186 1.38107 16.1103 1.71439 15.8186 2.09355C14.2936 4.05187 13.5186 6.6727 13.9728 8.32685L13.9853 8.37685L14.0353 8.38519C14.1353 8.40603 14.2228 8.42685 14.3061 8.45185C14.4061 8.48518 14.5061 8.52269 14.602 8.56853L14.6478 8.58936L14.6853 8.55602C16.0603 7.48519 17.0353 4.92688 17.0061 2.47273Z" fill="white"/>
<path d="M11.762 0.609842L11.6787 0.497335L11.6245 0.63067C11.4662 1.0265 11.337 1.46817 11.2412 1.93483C10.7412 4.36398 11.2037 7.0598 12.3412 8.33895L12.3787 8.37646L12.4245 8.36395C12.5203 8.33895 12.612 8.31814 12.6995 8.30564C12.8037 8.28897 12.9078 8.28064 13.012 8.28064L13.062 8.27647L13.0828 8.23479C13.8453 6.66396 13.587 3.93481 12.4745 1.74733C12.2578 1.33066 12.0203 0.943173 11.762 0.609842Z" fill="white"/>
<path d="M8.08697 3.10581L8.01614 3.05164L7.9453 3.00164L7.87447 2.95164L7.80364 2.90164L7.73281 2.85582L7.66197 2.80582L7.58697 2.75999L7.51614 2.71414L7.44531 2.67248L7.37448 2.63083L7.30364 2.58915L7.23281 2.54749L7.16197 2.50998L7.09114 2.46832L7.01615 2.43498L6.94531 2.39747L6.82031 2.33499L6.82864 2.47664C6.86197 2.9058 6.94115 3.35581 7.06198 3.81831C7.69114 6.21829 9.29946 8.43078 10.887 9.0766L10.9328 9.09326L10.9703 9.05995C11.0453 8.99328 11.1161 8.9391 11.1911 8.8891C11.2744 8.8266 11.3661 8.77245 11.4578 8.72245L11.5036 8.7016V8.6516C11.4911 6.90578 10.0536 4.57663 8.08697 3.10581Z" fill="white"/>
<path d="M4.14843 7.35144L4.3026 7.52646L4.46093 7.69728L4.62343 7.86395L4.79009 8.02643L4.96093 8.18477L5.13593 8.33893L5.31092 8.48895L5.49009 8.63477L5.67343 8.77228L5.85676 8.90976L6.04426 9.03892L6.23175 9.16394L6.41925 9.28477L6.61092 9.40144L6.80258 9.50976L6.99009 9.61392L7.18175 9.71394L7.37342 9.8056L7.56508 9.88893L7.75675 9.9681L7.94841 10.0431L8.13591 10.1098L8.32341 10.1681L8.51091 10.2223L8.69424 10.2681L8.8734 10.3056L9.05257 10.3348L9.22757 10.3598L9.40257 10.3764L9.5734 10.3848H9.74006L9.90256 10.3764L9.95256 10.3723L9.96923 10.3264C10.0067 10.2348 10.0484 10.1556 10.0901 10.0764C10.1401 9.98477 10.1984 9.8931 10.2609 9.80977L10.2901 9.76809L10.2651 9.72643C9.4859 8.16811 7.16508 6.70978 4.7526 6.25978C4.2901 6.17645 3.84011 6.13062 3.41511 6.13062H3.27344L3.34428 6.25144C3.56511 6.62227 3.83594 6.99311 4.14843 7.35144Z" fill="white"/>
<path d="M9.59449 11.9809L9.64031 11.9559L9.63615 11.9059C9.62782 11.8059 9.62782 11.7142 9.63199 11.6267C9.63615 11.5226 9.64865 11.4142 9.66532 11.3142L9.67365 11.2642L9.63199 11.2351C8.24449 10.1809 5.51951 9.90174 3.15702 10.5642C2.70286 10.6934 2.27787 10.8517 1.8987 11.0392L1.76953 11.1017L1.89037 11.1809C2.25287 11.4142 2.65703 11.6267 3.09453 11.81C5.38201 12.7767 8.11533 12.8475 9.59449 11.9809Z" fill="white"/>
<path d="M9.99396 13.589L10.0231 13.5473L9.99813 13.5015C9.94813 13.414 9.90646 13.3348 9.86896 13.2515C9.8273 13.1556 9.79397 13.0556 9.76063 12.9556L9.74813 12.9098L9.69814 12.8973C7.98565 12.5723 5.41899 13.5223 3.59401 15.1639C3.24401 15.4806 2.93568 15.8098 2.67735 16.1431L2.58984 16.2556L2.73151 16.2723C3.15651 16.3265 3.61484 16.3348 4.08984 16.3098C6.56899 16.1639 9.0523 15.0181 9.99396 13.589Z" fill="white"/>
<path d="M10.8191 14.5765L10.7899 14.5515L10.7608 14.5265L10.7316 14.5016L10.7024 14.4724L10.6733 14.4432L10.6441 14.4182L10.6191 14.389L10.5899 14.3599L10.5566 14.3224L10.5108 14.3349C8.82746 14.7974 6.9483 16.789 6.0358 19.0682C5.86081 19.5057 5.72747 19.939 5.64414 20.3515L5.61914 20.4932L5.75248 20.4432C6.15664 20.3015 6.5733 20.1098 6.9858 19.8723C9.14412 18.6473 10.8649 16.5224 11.0774 14.8224L11.0858 14.7724L11.0441 14.7432C10.9608 14.689 10.8899 14.6349 10.8191 14.5765Z" fill="white"/>
<path d="M22.9232 13.3433L23.0691 13.3058L23.2149 13.2641L23.3566 13.2225L23.4274 13.2016L23.4982 13.1766L23.569 13.1558L23.6399 13.1308L23.7065 13.1058L23.7732 13.0849L23.8399 13.06L23.9024 13.035L23.9649 13.01L24.0274 12.985C24.069 12.5933 24.0649 11.5933 24.0607 11.4808C23.7524 11.3308 23.394 11.1725 23.019 11.0516C22.3316 10.835 21.3441 10.7391 20.6607 10.685C20.5774 10.1475 20.6357 10.435 20.4857 9.88914C21.0899 9.55581 21.9566 9.05582 22.4941 8.56416C22.7899 8.29332 23.0482 8.01832 23.269 7.74748C23.0774 7.27249 22.8565 6.81416 22.6024 6.3725C22.2566 6.385 21.8899 6.42666 21.5024 6.49749C20.7941 6.62666 19.8774 7.00582 19.2524 7.28082C18.9232 6.84749 19.1066 7.06833 18.7191 6.66C19.0982 6.08083 19.6274 5.23084 19.8732 4.54751C20.0066 4.16834 20.0857 3.83917 20.1524 3.49751C19.8357 3.23084 19.4982 2.98085 19.1524 2.75169L16.7983 6.82665C17.0483 7.00998 17.2941 7.21416 17.5191 7.44333C18.6816 8.60582 19.3232 10.1516 19.3232 11.7975C19.3232 13.4391 18.6816 14.9849 17.5191 16.1516C16.3566 17.3141 14.8108 17.9516 13.1649 17.9516C12.2941 17.9516 11.4483 17.7724 10.6733 17.4308L8.30664 21.5349C8.66914 21.7141 9.03997 21.8766 9.4233 22.0182C9.6608 21.8016 9.89414 21.5516 10.1275 21.2724C10.5858 20.7141 11.0441 19.8349 11.3525 19.2224C11.8816 19.3432 11.5941 19.2933 12.1566 19.3558C12.2358 20.0432 12.3775 21.0349 12.6275 21.7141C12.7608 22.0682 12.9066 22.4391 13.0649 22.7266C13.0983 22.7266 14.1566 22.6932 14.6399 22.6266C14.7524 22.3182 14.8441 21.9349 14.9191 21.5724C15.0608 20.8682 15.0566 19.8724 15.0358 19.1891C15.5608 19.0474 15.2858 19.1349 15.8108 18.9307C16.2066 19.4974 16.7941 20.3057 17.3358 20.7891C17.6232 21.0474 17.9441 21.2807 18.2274 21.4641C18.6899 21.2224 19.1316 20.9516 19.5524 20.6474C19.5066 20.3182 19.3982 19.9516 19.2899 19.5891C19.0857 18.8974 18.6149 18.0266 18.2774 17.4308C18.6732 17.0599 18.4691 17.2641 18.8357 16.8349C19.4524 17.1516 20.3524 17.5933 21.0566 17.7641C21.4399 17.8558 21.8357 17.9308 22.1774 17.9599C22.4691 17.5349 22.7316 17.0933 22.9607 16.6308C22.7566 16.3558 22.4899 16.0641 22.2191 15.7849C21.7149 15.2724 20.8899 14.7224 20.3107 14.3558C20.4857 13.8391 20.4024 14.1183 20.5274 13.5683C21.2191 13.56 22.2191 13.5224 22.9232 13.3433Z" fill="white"/>
</g>
<defs>
<clipPath id="clip0_6194_139221">
<rect width="24" height="24" fill="white" transform="translate(0.806641 0.108398)"/>
</clipPath>
</defs>
</svg>
