<svg width="25" height="26" viewBox="0 0 25 26" fill="none" xmlns="http://www.w3.org/2000/svg">
<path d="M10.0066 0.902566C5.12999 1.85857 1.20316 5.79011 0.248191 10.6662C-1.19417 18.0189 3.83061 24.5575 10.638 25.5438C11.63 25.6945 12.5255 24.904 12.5255 23.9005L12.5255 23.8659C12.5255 23.0445 11.9285 22.3588 11.1249 22.2357C6.72317 21.5583 3.33905 17.7411 3.33905 13.1453C3.33905 7.77554 7.96306 3.46515 13.4314 3.99221C18.2083 4.45503 21.7078 8.75399 21.7078 13.5523V14.3956C21.7078 15.5483 20.7716 16.4855 19.6204 16.4855C18.4692 16.4855 17.5325 15.5483 17.5325 14.3956V8.1283C17.5325 7.66663 17.1588 7.29232 16.6971 7.29232L15.0282 7.29251C14.6473 7.29251 14.3394 7.55301 14.2392 7.90201C12.9424 7.26798 11.4088 7.04724 9.74827 7.63556C7.72614 8.35205 6.1935 10.1879 5.90127 12.3133C5.40642 15.9145 8.18745 18.9929 11.6885 18.9929C13.0682 18.9929 14.3201 18.4948 15.3199 17.6945C16.5724 19.3279 18.7239 20.2354 21.0289 19.6509C23.4387 19.0923 25.046 16.7336 24.999 14.2862V13.1955C24.999 5.40969 18.0116 -0.666185 10.0066 0.902566ZM11.6399 15.7003C10.2586 15.7003 9.1351 14.5753 9.1351 13.1929C9.1351 11.8106 10.2586 10.6855 11.6399 10.6855C13.0212 10.6855 14.1448 11.8106 14.1448 13.1929C14.1448 14.5753 13.0698 15.7003 11.6399 15.7003Z" fill="white"/>
</svg>
