<svg width="23" height="18" viewBox="0 0 23 18" fill="none" xmlns="http://www.w3.org/2000/svg">
<g clip-path="url(#clip0_6194_139604)">
<path d="M22.1711 12.5469H1.82109C1.36563 12.5469 0.996094 12.9055 0.996094 13.3438V13.875C0.996094 15.4854 2.35288 16.7969 4.02109 16.7969H19.9711C21.6393 16.7969 22.9961 15.4863 22.9961 13.875V13.3438C22.9961 12.9055 22.6283 12.5469 22.1711 12.5469ZM19.9711 15.2031H4.02109C3.35731 15.2031 2.80147 14.7459 2.67359 14.1406H21.3186C21.1914 14.7449 20.6345 15.2031 19.9711 15.2031ZM4.84609 3.78125C4.84609 3.63496 4.96964 3.51562 5.12109 3.51562H18.8711C19.0226 3.51562 19.1461 3.63496 19.1461 3.78125V11.4844H20.7961V3.78125C20.7961 2.75627 19.9333 1.92188 18.8711 1.92188H5.12109C4.05994 1.92188 3.19609 2.75627 3.19609 3.78125V11.4844H4.84609V3.78125ZM13.5739 9.56523C13.708 9.69473 13.8833 9.75781 14.0586 9.75781C14.2339 9.75781 14.4103 9.69347 14.5447 9.56377L16.1947 7.97002C16.4632 7.71064 16.4632 7.28936 16.1947 7.03004L14.5447 5.43629C14.2761 5.17691 13.841 5.17691 13.5725 5.43629C13.3041 5.69568 13.304 6.11696 13.5725 6.37627L14.7365 7.49987L13.5725 8.62346C13.3023 8.88457 13.3023 9.30625 13.5739 9.56523ZM10.4183 5.43809C10.1497 5.1787 9.71463 5.1787 9.44616 5.43809L7.79616 7.03184C7.52762 7.29122 7.52762 7.7125 7.79616 7.97182L9.44616 9.56557C9.58297 9.69473 9.75828 9.75781 9.93359 9.75781C10.1089 9.75781 10.2842 9.69473 10.4183 9.56523C10.6868 9.30585 10.6868 8.88457 10.4183 8.62525L9.25641 7.5L10.4183 6.37773C10.6589 6.11875 10.6589 5.69707 10.4183 5.43809Z" fill="white"/>
</g>
<defs>
<clipPath id="clip0_6194_139604">
<rect width="22" height="17" fill="white" transform="translate(0.996094 0.859375)"/>
</clipPath>
</defs>
</svg>
