<svg width="25" height="35" viewBox="0 0 25 35" fill="none" xmlns="http://www.w3.org/2000/svg">
<path fill-rule="evenodd" clip-rule="evenodd" d="M7.2008 0.181676L23.9838 16.9601C24.3063 17.2817 24.5622 17.6639 24.7364 18.0848C24.9109 18.5056 25.0005 18.9567 25 19.4122V24.6631C25.0005 25.1182 24.9114 25.5688 24.7374 25.9892C24.5633 26.4096 24.308 26.7913 23.9861 27.1129L17.3725 33.7149C16.7222 34.3638 15.8413 34.7283 14.9227 34.7287H10.0821C9.16299 34.7276 8.28139 34.3633 7.62992 33.7149L1.01623 27.1129C0.693207 26.7906 0.436908 26.4077 0.262665 25.9861C0.0881861 25.5643 -0.000935722 25.1123 7.40778e-06 24.6561V10.087C7.40778e-06 9.96435 0.0363163 9.84434 0.104457 9.74225C0.172599 9.64039 0.269503 9.56093 0.382679 9.51401C0.49609 9.46685 0.620824 9.45459 0.741073 9.47864C0.861322 9.50269 0.9719 9.56164 1.05867 9.6484L6.14214 14.7272V0.617876C6.14261 0.495505 6.17916 0.375726 6.24754 0.274103C6.31591 0.17248 6.41282 0.0934928 6.526 0.0468075C6.63917 0.000122317 6.76366 -0.0119027 6.88391 0.0119115C7.00392 0.0359615 7.11427 0.0951433 7.2008 0.181676ZM18.5586 23.837C18.7527 23.6422 18.8621 23.3786 18.8628 23.1037V21.0618C18.8626 20.925 18.8354 20.7897 18.7829 20.6633C18.7303 20.5372 18.6532 20.4226 18.5563 20.3261L16.6441 18.4116C16.4486 18.2168 16.1843 18.1074 15.9084 18.1074C15.6325 18.1074 15.368 18.2168 15.1728 18.4116L12.5013 21.0901L9.82519 18.4116C9.62972 18.2168 9.36541 18.1074 9.08954 18.1074C8.81368 18.1074 8.54913 18.2168 8.3539 18.4116L6.43933 20.3261C6.34243 20.4226 6.26533 20.5372 6.21275 20.6633C6.16017 20.7897 6.13305 20.925 6.13281 21.0618V23.1037C6.13588 23.3765 6.24599 23.6373 6.43933 23.8299L11.7563 29.1846C11.8527 29.2819 11.9675 29.359 12.0939 29.4118C12.2203 29.4644 12.3561 29.4918 12.4931 29.4918C12.6301 29.4918 12.7656 29.4644 12.8923 29.4118C13.0186 29.359 13.1335 29.2819 13.2299 29.1846L18.5586 23.837Z" fill="white"/>
</svg>
