<svg width="22" height="24" viewBox="0 0 22 24" fill="none" xmlns="http://www.w3.org/2000/svg">
<path d="M11.0198 22.9142C5.09781 22.9142 0.279297 18.023 0.279297 12.0105C0.279297 5.99851 5.0979 1.10596 11.0198 1.10596C16.9412 1.10596 21.7583 5.99842 21.7583 12.0105C21.7584 18.0231 16.9412 22.9142 11.0198 22.9142ZM10.9787 7.7108C10.9924 7.7108 11.8511 8.64443 11.8511 9.39137C11.8511 10.2008 11.2291 10.3938 11.0198 10.3938C11.0095 10.3938 10.9967 10.3931 10.983 10.3924H10.9743C10.9609 10.3931 10.9478 10.3938 10.9382 10.3938C10.7289 10.3938 10.1069 10.2008 10.1069 9.39137C10.107 8.64443 10.963 7.7108 10.9787 7.7108ZM2.89225 12.6169H3.87197V10.7794H5.51718V10.0101H3.87197V8.98901H5.57205V8.22164H2.89225V12.6169ZM11.8669 7.84338H12.9001L11.6993 3.44705H10.3788L9.13425 7.84338H10.0913L10.3665 6.86068H11.6188L11.8669 7.84338ZM11.4375 6.11639H10.537L10.9563 4.20442H11.0249L11.4375 6.11639ZM15.9741 10.4195C15.9741 11.7107 16.564 12.6924 17.8086 12.6924C19.0579 12.6924 19.6538 11.7107 19.6538 10.4195C19.6538 9.12817 19.0579 8.1465 17.8086 8.1465C16.564 8.14658 15.9741 9.12826 15.9741 10.4195ZM17.0178 10.4195C17.0178 9.57567 17.2218 8.88976 17.8086 8.88976C18.3988 8.88976 18.6111 9.57558 18.6111 10.4195C18.6111 11.2633 18.3988 11.9498 17.8086 11.9498C17.2217 11.9498 17.0178 11.2632 17.0178 10.4195ZM10.5621 21.6974C10.6193 21.272 10.6761 20.5895 10.6761 19.7901V19.6553C10.6761 18.53 10.6353 18.15 9.89432 17.9002C8.75203 17.5159 8.28421 16.2209 8.53537 14.6078L4.71131 4.73363C2.72241 6.51439 1.46738 9.11526 1.46738 12.0106C1.46738 17.203 5.50913 21.455 10.5621 21.6974ZM11.0152 15.4021C9.49379 15.0421 8.92932 13.6343 8.92932 12.3845L5.58138 4.04174C5.36267 4.19501 5.15071 4.35863 4.94569 4.52891C5.68231 6.30094 8.98676 14.2638 8.99078 14.2755C9.57596 15.7063 10.64 15.2319 10.8974 16.4133C10.959 16.6988 10.963 16.8244 10.963 16.8244H11.0774C11.0774 16.8244 11.0787 16.6988 11.1429 16.4133C11.4004 15.2319 12.4617 15.7063 13.0476 14.2755C13.0516 14.2638 16.3567 6.30103 17.0923 4.52891C16.8873 4.35863 16.6757 4.19501 16.4563 4.04174L13.1091 12.3846C13.1091 13.6344 12.5433 15.0422 11.0218 15.4022H11.0152V15.4021ZM11.0135 12.8835C10.3681 12.7372 9.56424 12.0871 9.45963 11.25C9.42188 10.9312 9.39175 10.842 9.43789 10.2099L6.50358 3.46577C6.26749 3.59536 6.03713 3.73555 5.81174 3.8848C6.68883 5.88661 9.3706 12.0012 9.37266 12.0086C9.79768 12.9161 10.542 12.9335 10.7988 13.4747C10.9533 13.795 10.9674 14.0821 10.97 14.1055H11.0673C11.07 14.0822 11.0861 13.795 11.2379 13.4747C11.4966 12.9335 12.241 12.9161 12.6644 12.0086C12.667 12.0012 15.3495 5.88661 16.2262 3.8848C16.0032 3.73555 15.7715 3.59527 15.5333 3.46577L12.6028 10.2099C12.6489 10.842 12.6182 10.9312 12.5781 11.25C12.4734 12.0871 11.6689 12.7372 11.0269 12.8835H11.0135V12.8835ZM11.0543 11.7381L11.0988 11.3708C11.2841 10.516 11.895 10.6232 12.3187 9.78433C12.3204 9.78099 12.3254 9.77193 12.3254 9.77193C12.3384 9.7409 14.4143 5.21934 15.2804 3.33105C13.9974 2.67925 12.5511 2.31091 11.0199 2.31091C9.48976 2.31091 8.04221 2.67925 6.75817 3.33105C7.62456 5.21934 9.6988 9.74082 9.71584 9.77193C9.71584 9.77193 9.71986 9.78091 9.72252 9.78433C10.1439 10.6231 10.7534 10.516 10.9383 11.3708L10.9831 11.7381H11.0543ZM20.5719 12.0106C20.5719 9.11526 19.3153 6.51439 17.3294 4.73363L13.5023 14.6077C13.7561 16.2209 13.2857 17.5158 12.143 17.9001C11.4024 18.1499 11.3619 18.5299 11.3619 19.6552V19.7901C11.3619 20.5895 11.4214 21.272 11.4759 21.6973C16.5319 21.455 20.5719 17.203 20.5719 12.0106ZM4.48592 14.8749C4.48592 14.8749 4.62674 15.18 4.7417 15.3958C4.85538 15.6121 5.01152 15.8736 5.01152 15.8736L4.75942 16.0222C4.75942 16.0222 4.56784 15.6986 4.39227 15.325C4.34416 15.3497 4.04249 15.51 3.99233 15.5347C4.02109 15.5895 4.33106 16.1952 4.33106 16.1952L4.07562 16.3445C4.07562 16.3445 3.76163 15.7247 3.73458 15.6723C3.67971 15.6997 3.02904 16.0413 3.02904 16.0413L2.8729 15.727L4.4676 14.8836L4.48592 14.8749ZM5.49381 16.5347L5.71586 16.8062L4.3201 17.9907L4.09403 17.7195L5.47703 16.5465L5.49381 16.5347ZM6.78582 17.777L7.06231 17.977L6.70355 19.9297L6.38785 19.7454C6.38785 19.7454 6.46643 19.3474 6.4761 19.3087C6.4607 19.2961 6.27614 19.1845 6.09757 19.0563C5.91635 18.924 5.73906 18.7762 5.72237 18.7645C5.68761 18.7855 5.3375 18.9952 5.3375 18.9952L5.06665 18.7601L6.76767 17.7874L6.78582 17.777ZM5.97961 18.6057C6.01205 18.6341 6.1301 18.7309 6.25217 18.8198C6.37723 18.9072 6.50127 18.9911 6.53842 19.0074C6.55649 18.9263 6.68318 18.2841 6.70997 18.1652C6.60631 18.2281 6.05254 18.5623 5.97961 18.6057ZM7.93684 18.4948C7.93684 18.4948 8.2308 18.6441 8.64905 18.7897C8.93463 18.8899 9.17739 18.968 9.41477 19.0214L9.33182 19.3022C9.33182 19.3022 9.10515 19.2618 8.7356 19.147C8.71522 19.2084 8.23465 20.6002 8.23465 20.6002L7.9073 20.4846C7.9073 20.4846 8.3848 19.0902 8.40517 19.0294C8.06173 18.8993 7.82204 18.7697 7.82204 18.7697L7.93684 18.4948ZM13.6796 18.8669C13.799 18.931 13.8859 19.0435 13.9331 19.2035C13.9541 19.2709 13.9655 19.3361 13.9655 19.3988C13.9655 19.6563 13.7876 19.859 13.4666 19.9615C13.4666 19.9615 13.3044 20.0119 13.2566 20.0266C13.275 20.0851 13.4666 20.7108 13.4666 20.7108L13.1479 20.7946L12.6076 19.0161L13.0901 18.8639C13.3321 18.7874 13.5331 18.7891 13.6796 18.8669ZM13.0045 19.2024C13.0199 19.2565 13.1539 19.6909 13.17 19.7447C13.2365 19.7247 13.382 19.6772 13.382 19.6772C13.4302 19.6629 13.5445 19.6168 13.5987 19.511C13.6168 19.4766 13.6254 19.4379 13.6254 19.3988C13.6254 19.3681 13.6194 19.3367 13.61 19.3033C13.589 19.2402 13.5509 19.1905 13.494 19.1604C13.396 19.107 13.2637 19.1207 13.1817 19.1454C13.1817 19.1453 13.0489 19.1874 13.0045 19.2024ZM14.7643 18.0918L16.3413 19.2645L16.0611 19.4652C16.0611 19.4652 15.7441 19.2205 15.7127 19.1971C15.6943 19.2074 15.5318 19.3243 15.3569 19.4295C15.1908 19.5311 15.0122 19.6208 14.9941 19.6312C15.0018 19.6732 15.0636 20.0656 15.0636 20.0656L14.7623 20.2115L14.4981 18.2481L14.7643 18.0918ZM14.9456 19.3346C14.9928 19.3115 15.1148 19.2438 15.2362 19.1696C15.3449 19.1025 15.4318 19.0477 15.475 19.012C15.4118 18.9626 14.9189 18.5826 14.8172 18.5021C14.8372 18.6327 14.9325 19.2532 14.9456 19.3346ZM16.566 16.4757L17.9409 17.7211L17.6931 18.016C17.6931 18.016 16.4034 17.6336 16.2084 17.5805C16.3535 17.7211 17.1537 18.5772 17.1537 18.5772L16.9123 18.7986L15.6159 17.462L15.9211 17.1855C15.9211 17.1855 17.165 17.5625 17.3603 17.6152C17.2148 17.4746 16.3564 16.7254 16.3564 16.7254L16.566 16.4757ZM17.1946 15.5461L18.7873 16.4837L18.6248 16.7682L17.0241 15.8276L17.1946 15.5461ZM17.8842 13.9944L18.1577 14.1389L18.1303 14.171C18.042 14.2805 18.0012 14.3369 17.9591 14.4602C17.9387 14.5163 17.9143 14.6245 17.9557 14.7059C17.9758 14.7487 18.0122 14.7797 18.0647 14.7965C18.1858 14.8385 18.2901 14.7306 18.4105 14.6064C18.5787 14.4328 18.7873 14.2191 19.1237 14.3339C19.4658 14.4518 19.5819 14.761 19.4407 15.1814C19.3979 15.3103 19.3186 15.4198 19.2474 15.5214L19.2304 15.5438L18.9481 15.4099L18.9755 15.3761C19.0096 15.3357 19.1276 15.1955 19.1722 15.0566C19.2146 14.9344 19.2102 14.728 19.0277 14.6653C18.8755 14.6118 18.7619 14.7307 18.6291 14.87C18.4682 15.0423 18.2827 15.2363 17.9777 15.1308C17.8437 15.0844 17.7437 14.9982 17.6871 14.8831C17.6176 14.7422 17.6155 14.5625 17.6794 14.3752C17.7202 14.249 17.7891 14.1177 17.8687 14.0159L17.8842 13.9944Z" fill="white"/>
</svg>
