<svg width="22" height="23" viewBox="0 0 22 23" fill="none" xmlns="http://www.w3.org/2000/svg">
<path d="M19.0252 12.5114C19.0597 12.2404 19.0597 11.9356 19.0597 11.6646C19.0597 7.56605 15.5314 3.7385 11 3.7385C6.50314 3.7385 2.94025 7.56605 2.94025 11.6646C2.94025 11.9356 2.94025 12.2404 2.97484 12.5114H0.0345912C0 12.2404 0 11.9356 0 11.6646C0 5.70309 4.91195 0.859375 11 0.859375C17.0881 0.859375 22 5.70309 22 11.6646C22 11.9356 22 12.2404 21.9654 12.5114H19.0252Z" fill="white"/>
<path d="M16.8456 12.5115C16.8801 12.2744 16.9147 11.9695 16.9147 11.7324C16.9147 8.54846 14.355 5.87256 10.9996 5.87256C7.67889 5.87256 5.11914 8.6162 5.11914 11.8002C5.11914 12.0373 5.15373 12.3083 5.18832 12.5454H8.0248C7.95562 12.3083 7.92103 12.0712 7.92103 11.8002C7.92103 10.0388 9.40845 8.6162 11.0342 8.6162C12.66 8.6162 14.1474 10.005 14.1474 11.8002C14.1474 12.0373 14.0783 12.3083 14.0437 12.5454H16.8456" fill="white"/>
<path d="M11.0001 17.3553H9.47805L10.412 21.9619C10.6196 22.8764 8.99377 23.1813 8.82082 22.3006L8.30195 19.7941L7.36799 21.6232C7.16044 22.0635 6.71075 22.0974 6.33025 21.928L6.26107 21.8941C5.91516 21.6909 5.67302 21.2844 5.94975 20.878L7.02207 19.1166L4.35855 20.2344C3.39 20.6409 2.73277 19.1844 3.66673 18.7779L8.12899 16.8472L7.22962 15.3568H6.77994L2.73277 18.1005C1.97176 18.5747 1.10698 17.2875 1.83339 16.7794L4.04723 15.3568H1.10698C0.0346526 15.3568 0.0346526 13.731 1.10698 13.731H8.23276L9.51264 15.6617H12.4529L13.7328 13.731H20.8585C21.9309 13.731 21.9309 15.3568 20.8585 15.3568H17.9183L20.1667 16.8133C20.8931 17.3214 19.9938 18.6085 19.2674 18.1343L15.151 15.3568H14.7013L13.8365 16.8472L18.2988 18.7779C19.2328 19.1844 18.5755 20.6409 17.607 20.2344L14.9435 19.1166L16.0158 20.878C16.2579 21.2844 16.0504 21.6909 15.7045 21.8941L15.6353 21.928C15.2894 22.0974 14.8051 22.0635 14.5975 21.6232L13.6982 19.7602L13.1447 22.3345C12.9718 23.2151 11.346 22.9103 11.5535 21.9958L12.5221 17.3553H11.0001Z" fill="white"/>
</svg>
