<svg width="25" height="9" viewBox="0 0 25 9" fill="none" xmlns="http://www.w3.org/2000/svg">
<g clip-path="url(#clip0_6194_138754)">
<path fill-rule="evenodd" clip-rule="evenodd" d="M0 0V8.19974H2.58992V5.23906H4.38947L5.08907 3.44681H2.58992V1.78302H5.63174L6.29518 0H0" fill="white"/>
<path fill-rule="evenodd" clip-rule="evenodd" d="M7.08665 0L7.08203 8.19974H9.64199V0H7.08665" fill="white"/>
<path fill-rule="evenodd" clip-rule="evenodd" d="M19.6878 5.52136L20.6739 2.10724L21.6954 5.52136H19.6878ZM22.0447 0H19.3867L16.4395 8.20051H18.9136L19.2321 7.09785H22.1162L22.4497 8.20051H24.9996L22.0447 0Z" fill="white"/>
<path fill-rule="evenodd" clip-rule="evenodd" d="M11.4102 0V8.19974H13.9985V5.23906H15.7962L16.5008 3.44681H13.9985V1.78302H17.0415L17.71 0H11.4102" fill="white"/>
</g>
<defs>
<clipPath id="clip0_6194_138754">
<rect width="25" height="8.20053" fill="white"/>
</clipPath>
</defs>
</svg>
