<svg width="25" height="26" viewBox="0 0 25 26" fill="none" xmlns="http://www.w3.org/2000/svg">
<g clip-path="url(#clip0_6194_139008)">
<path fill-rule="evenodd" clip-rule="evenodd" d="M3.77516 0.65625H21.2248C23.3098 0.65625 25 2.34659 25 4.43173V21.8808C25 23.9659 23.3098 25.6562 21.2248 25.6562H3.77516C1.69019 25.6562 0 23.9659 0 21.8808V4.43173C0 2.34659 1.69019 0.65625 3.77516 0.65625ZM11.1921 12.7908C11.1921 15.1621 9.42312 17.0843 7.24087 17.0843C5.05873 17.0843 3.28965 15.162 3.28965 12.7908C3.28965 10.4196 5.05862 8.49734 7.24087 8.49734C9.42301 8.49734 11.1921 10.4197 11.1921 12.7908ZM17.2328 16.9709C19.4779 16.9709 21.298 15.0742 21.298 12.7344C21.298 10.3947 19.4779 8.49796 17.2328 8.49796C14.9877 8.49796 13.1677 10.3946 13.1677 12.7344C13.1677 15.0741 14.9877 16.9709 17.2328 16.9709Z" fill="white"/>
</g>
<defs>
<clipPath id="clip0_6194_139008">
<rect width="25" height="25" fill="white" transform="translate(0 0.608398)"/>
</clipPath>
</defs>
</svg>
