<svg width="25" height="35" viewBox="0 0 25 35" fill="none" xmlns="http://www.w3.org/2000/svg">
<path d="M20.8296 5.0402L19.9936 9.07714C19.898 9.50711 19.492 9.8893 18.9903 9.8893H11.7286C10.9165 9.8893 10.2476 10.5581 10.2476 11.3703V12.2541C10.2476 13.0663 10.9165 13.7351 11.7286 13.7351H17.8676C18.4409 13.7351 18.9187 14.2845 18.7992 14.8817C18.6798 15.5028 18.0348 18.6559 17.9632 18.9903C17.9154 19.3486 17.5332 19.8025 16.9599 19.8025H11.9436C10.8926 19.8264 10.6776 19.8503 10.0565 20.6147C9.43544 21.379 3.94139 28.2586 3.94139 28.2586C3.89361 28.3302 3.84584 28.3063 3.84584 28.2347V4.8491C3.84584 4.2997 4.2997 3.84584 4.8491 3.84584H19.9219C20.4474 3.84584 20.973 4.37136 20.8296 5.0402ZM21.9285 0C21.9285 0 5.90014 0 3.32032 0C0.76439 0 0 1.93486 0 3.15311V32.7255C0 34.1826 0.740503 34.6126 1.14659 34.7798C1.55267 34.947 2.62759 35.0664 3.39198 34.302C3.39198 34.302 12.2302 24.0066 12.3736 23.8394C12.5169 23.6722 12.5886 23.6722 12.6841 23.6722C12.7797 23.6722 16.4344 23.6722 18.2737 23.6722C20.6624 23.6722 21.1163 22.024 21.379 21.0207C21.594 20.1847 24.0544 8.24108 24.8188 4.46691C25.3921 1.55267 24.6516 0 21.9285 0Z" fill="white"/>
</svg>
