<svg width="23" height="23" viewBox="0 0 23 23" fill="none" xmlns="http://www.w3.org/2000/svg">
<g clip-path="url(#clip0_6194_139555)">
<path d="M10.4004 11.5948C10.4004 7.29812 12.4304 3.58105 18.4838 3.58105C18.4838 7.87773 15.7445 11.5948 10.4004 11.5948Z" fill="white"/>
<path d="M20.0976 22.8594C21.2349 22.8594 22.1031 22.6956 22.9958 22.3554C22.9958 18.9533 21.027 16.5341 17.5539 14.7826C14.9002 13.4092 11.6229 12.691 8.63897 12.691C9.94748 8.64632 8.99361 3.61882 7.7218 0.859375C6.31546 3.74483 5.43497 8.70932 6.79239 12.7414C4.13869 12.943 2.0353 14.1274 1.14258 15.7024C1.08144 15.8158 0.934691 16.0805 1.02029 16.1183C1.08144 16.1561 1.1915 16.0426 1.25265 15.9922C2.20651 15.0724 3.47833 14.6314 4.70123 14.6314C7.5139 14.6314 9.50723 17.0381 10.9136 18.4871C13.9219 21.5867 16.8691 22.872 20.0976 22.8594Z" fill="white"/>
</g>
<defs>
<clipPath id="clip0_6194_139555">
<rect width="22" height="22" fill="white" transform="translate(0.996094 0.859375)"/>
</clipPath>
</defs>
</svg>
