<svg width="25" height="26" viewBox="0 0 25 26" fill="none" xmlns="http://www.w3.org/2000/svg">
<path d="M24.6094 9.44021V9.40104C23.1641 3.76042 18.0859 0 12.5391 0C11.5234 0 10.4688 0.117513 9.45315 0.39171H9.375C3.75 1.84104 0 6.93327 0 12.4956C0 13.514 0.117188 14.5324 0.390625 15.5117C0.390625 15.5509 0.390625 15.5901 0.390625 15.6684C0.390625 15.7076 0.429688 15.7859 0.46875 15.8251C1.95312 21.3874 6.95312 25.0694 12.4609 25.0694C13.4766 25.0694 14.4922 24.9519 15.5078 24.6777H15.5469C15.5469 24.6777 15.5469 24.6777 15.5859 24.6777H15.625C21.25 23.2284 25 18.1362 25 12.5739C25 11.5554 24.8828 10.4978 24.6094 9.44021ZM23.3984 9.28353L19.5312 10.2628C18.9844 8.26508 18.2031 6.46322 17.2266 4.97472C16.1719 3.32954 14.8828 2.03689 13.5156 1.25347C13.4766 1.2143 13.3984 1.17513 13.3594 1.17513C17.9688 1.4885 22.0313 4.62218 23.3984 9.28353ZM19.1797 15.5509C19.1797 17.1569 18.9453 18.6062 18.5547 19.8205C18.125 21.0348 17.5391 22.0141 16.7969 22.68C16.4844 22.9542 16.1719 23.1892 15.7813 23.3459L13.1641 13.0048L18.75 11.5946C19.0234 12.9656 19.1797 14.2974 19.1797 15.5509ZM13.0078 2.19358C13.7891 2.62446 14.5703 3.29036 15.2734 4.15213C16.6016 5.71897 17.7734 7.95171 18.4766 10.4978L12.9297 11.908L10.3125 1.56684C10.4297 1.56684 10.5859 1.52767 10.7031 1.52767C11.4453 1.52767 12.2266 1.7627 13.0078 2.19358ZM8.24219 2.50694C8.55469 2.23275 8.90625 1.99772 9.25781 1.84104L11.875 12.1822L6.32813 13.5923C6.01563 12.2214 5.89844 10.8895 5.89844 9.63607C5.89844 8.03006 6.13281 6.58073 6.52344 5.36643C6.875 4.15213 7.5 3.17285 8.24219 2.50694ZM12.1094 13.279L14.7266 23.6201C14.6094 23.6201 14.4531 23.6593 14.3359 23.6593C13.5938 23.6593 12.8125 23.4243 12.0312 22.9934C11.25 22.5625 10.4687 21.8966 9.76562 21.0348C8.4375 19.468 7.26562 17.2744 6.5625 14.6891L12.1094 13.279ZM6.48438 2.85948C6.28906 3.13368 6.13281 3.40788 5.97656 3.72125C5.15625 5.32726 4.72656 7.36415 4.72656 9.63607C4.72656 11.0071 4.88281 12.4172 5.19531 13.8665L1.36719 14.8458C1.21094 14.0624 1.13281 13.279 1.13281 12.4956C1.09375 8.57845 3.16406 4.89638 6.48438 2.85948ZM1.64062 15.9426L5.46875 14.9633C6.01562 16.961 6.79687 18.7629 7.77344 20.2514C8.82812 21.8574 10.0391 23.1109 11.4063 23.9335C6.95313 23.4634 3.00781 20.4081 1.64062 15.9426ZM18.6719 22.1316C18.7891 21.9358 18.9453 21.7007 19.0625 21.4657C19.8828 19.8597 20.3125 17.8228 20.3125 15.5509C20.3125 14.2191 20.1562 12.7697 19.8437 11.3204L23.7109 10.3411C23.8672 11.0854 23.9453 11.8296 23.9453 12.5739C23.9062 16.4518 21.9141 20.0556 18.6719 22.1316Z" fill="white"/>
</svg>
