<svg width="22" height="20" viewBox="0 0 22 20" fill="none" xmlns="http://www.w3.org/2000/svg">
<path d="M6.80324 19.6566C6.6194 19.658 6.43854 19.6107 6.27957 19.5196C6.1206 19.4286 5.98934 19.2972 5.89949 19.1391L0.905506 10.6248C0.90496 10.6205 0.90341 10.6164 0.900978 10.6128C0.8985 10.6088 0.896954 10.6044 0.896449 10.5997C0.0137883 9.07674 -0.228729 7.27368 0.220833 5.57665C0.670395 3.87963 1.77629 2.42356 3.3017 1.52028C4.8271 0.616991 6.65072 0.338308 8.38203 0.743905C10.1133 1.1495 11.6147 2.20713 12.5646 3.6903L9.10522 9.60241C9.09645 9.60241 9.09645 9.61022 9.09645 9.61886C8.48044 10.6749 8.16909 11.8769 8.19608 13.0947C8.22307 14.3126 8.58737 15.5 9.24957 16.5285L7.71379 19.1394C7.62227 19.2975 7.48969 19.4288 7.32966 19.5196C7.16964 19.6105 6.98794 19.6578 6.80324 19.6566V19.6566ZM6.80324 4.43067C6.34074 4.43084 5.88867 4.56616 5.50418 4.81952C5.1197 5.07288 4.82006 5.43291 4.64316 5.85409C4.46626 6.27528 4.42003 6.7387 4.51032 7.18577C4.60061 7.63284 4.82337 8.04349 5.15043 8.3658C5.47749 8.68811 5.89417 8.90761 6.34779 8.99655C6.8014 9.08549 7.27159 9.03987 7.69891 8.86546C8.12622 8.69106 8.49148 8.3957 8.7485 8.01672C9.00551 7.63774 9.14276 7.19216 9.14287 6.73632C9.14219 6.12496 8.89542 5.53884 8.45673 5.10662C8.01803 4.6744 7.42326 4.4314 6.80296 4.43095L6.80324 4.43067Z" fill="white"/>
<path d="M14.9995 19.6536C13.8502 19.6561 12.7192 19.3705 11.7128 18.8236C10.7063 18.2768 9.85749 17.4866 9.24609 16.5275L12.7054 10.6238C12.7048 10.6193 12.7053 10.6147 12.7067 10.6103C12.7081 10.606 12.7105 10.602 12.7136 10.5987C13.2982 9.58482 13.6061 8.43896 13.6075 7.27285C13.61 6.0048 13.2474 4.76207 12.5619 3.68899L14.0889 1.07816C14.1814 0.920744 14.3143 0.790062 14.4742 0.699215C14.6341 0.608368 14.8155 0.560547 15 0.560547C15.1846 0.560547 15.366 0.608368 15.5259 0.699215C15.6858 0.790062 15.8186 0.920744 15.9112 1.07816L20.8967 9.60138C20.9046 9.60138 20.9046 9.60946 20.9046 9.61783C21.4976 10.6374 21.8082 11.7927 21.8052 12.968C21.8022 14.1432 21.4858 15.297 20.8876 16.3136C20.2894 17.3302 19.4305 18.174 18.397 18.7602C17.3636 19.3464 16.1919 19.6545 14.9995 19.6536ZM14.9995 11.1764C14.537 11.1765 14.0849 11.3118 13.7003 11.5651C13.3158 11.8184 13.0161 12.1785 12.8392 12.5996C12.6622 13.0208 12.616 13.4842 12.7062 13.9313C12.7965 14.3784 13.0192 14.7891 13.3463 15.1114C13.6733 15.4338 14.09 15.6533 14.5436 15.7423C14.9973 15.8312 15.4675 15.7856 15.8948 15.6112C16.3221 15.4368 16.6874 15.1415 16.9444 14.7625C17.2015 14.3835 17.3387 13.9379 17.3388 13.4821C17.3383 12.8707 17.0917 12.2846 16.6531 11.8523C16.2145 11.42 15.6197 11.1769 14.9995 11.1764Z" fill="white"/>
</svg>
