<svg width="25" height="26" viewBox="0 0 25 26" fill="none" xmlns="http://www.w3.org/2000/svg">
<g clip-path="url(#clip0_6194_138775)">
<path fill-rule="evenodd" clip-rule="evenodd" d="M12.5 0.903809C5.59375 0.903809 0 6.49756 0 13.4038C0 18.9351 3.57812 23.6069 8.54687 25.2632C9.17187 25.3726 9.40625 24.9976 9.40625 24.6694C9.40625 24.3726 9.39063 23.3882 9.39063 22.3413C6.25 22.9194 5.4375 21.5757 5.1875 20.8726C5.04687 20.5132 4.4375 19.4038 3.90625 19.1069C3.46875 18.8726 2.84375 18.2944 3.89063 18.2788C4.875 18.2632 5.57813 19.1851 5.8125 19.5601C6.9375 21.4507 8.73438 20.9194 9.45313 20.5913C9.5625 19.7788 9.89062 19.2319 10.25 18.9194C7.46875 18.6069 4.5625 17.5288 4.5625 12.7476C4.5625 11.3882 5.04688 10.2632 5.84375 9.38818C5.71875 9.07568 5.28125 7.79443 5.96875 6.07568C5.96875 6.07568 7.01563 5.74756 9.40625 7.35693C10.4062 7.07568 11.4688 6.93506 12.5313 6.93506C13.5938 6.93506 14.6563 7.07568 15.6563 7.35693C18.0469 5.73193 19.0938 6.07568 19.0938 6.07568C19.7813 7.79443 19.3438 9.07568 19.2188 9.38818C20.0156 10.2632 20.5 11.3726 20.5 12.7476C20.5 17.5444 17.5781 18.6069 14.7969 18.9194C15.25 19.3101 15.6406 20.0601 15.6406 21.2319C15.6406 22.9038 15.625 24.2476 15.625 24.6694C15.625 24.9976 15.8594 25.3882 16.4844 25.2632C21.4219 23.6069 25 18.9194 25 13.4038C25 6.49756 19.4063 0.903809 12.5 0.903809Z" fill="white"/>
</g>
<defs>
<clipPath id="clip0_6194_138775">
<rect width="25" height="25" fill="white" transform="translate(0 0.903809)"/>
</clipPath>
</defs>
</svg>
