<svg width="26" height="26" viewBox="0 0 26 26" fill="none" xmlns="http://www.w3.org/2000/svg">
<g clip-path="url(#clip0_6194_138779)">
<path fill-rule="evenodd" clip-rule="evenodd" d="M25.666 13.4038C25.666 20.3074 20.0696 25.9038 13.166 25.9038C6.26246 25.9038 0.666016 20.3074 0.666016 13.4038C0.666016 6.50025 6.26246 0.903809 13.166 0.903809C20.0696 0.903809 25.666 6.50025 25.666 13.4038ZM8.70117 17.8691H15.8398V10.5352C15.8398 10.4985 15.8691 10.4692 15.9058 10.4692H17.561C17.5976 10.4692 17.6269 10.4985 17.6269 10.5352V17.8691C17.6269 18.8555 16.8286 19.6538 15.8423 19.6538H10.4858C9.49951 19.6538 8.70117 18.8555 8.70117 17.8691ZM17.6294 8.93848C17.6294 7.95215 16.831 7.15381 15.8447 7.15381H10.4858C9.49951 7.15381 8.70117 7.95215 8.70117 8.93848V16.2725C8.70117 16.3091 8.73047 16.3384 8.76709 16.3384H10.4224C10.459 16.3384 10.4883 16.3091 10.4883 16.2725V8.93848H17.6294Z" fill="white"/>
</g>
<defs>
<clipPath id="clip0_6194_138779">
<rect width="25" height="25" fill="white" transform="translate(0.666016 0.903809)"/>
</clipPath>
</defs>
</svg>
