<svg width="42" height="26" viewBox="0 0 42 26" fill="none" xmlns="http://www.w3.org/2000/svg">
<path d="M34.8401 23.7779C34.5557 23.6164 34.3376 23.446 34.1859 23.2666C34.0532 23.0872 33.9868 22.8539 33.9868 22.5669C33.9868 22.2619 34.148 21.9031 34.4703 21.4905C34.7927 21.0958 35.1435 20.5845 35.5227 19.9566C35.9208 19.3466 36.2811 18.6021 36.6034 17.723C36.9258 16.8618 37.0869 15.8123 37.0869 14.5744C37.0869 13.4083 36.9163 12.3767 36.575 11.4797C36.2527 10.5827 35.8071 9.82918 35.2383 9.2192C34.6694 8.62717 33.9963 8.17866 33.2189 7.87367C32.4605 7.56868 31.6357 7.41619 30.7445 7.41619C29.6069 7.41619 28.6588 7.67632 27.9004 8.1966C27.1609 8.73481 26.5257 9.43449 25.9948 10.2956C25.4639 11.1747 24.9993 12.1614 24.6012 13.2558C24.2219 14.3681 23.8238 15.4984 23.4066 16.6465C22.9895 17.8127 22.5155 18.9429 21.9846 20.0373C21.4726 21.1496 20.8185 22.1363 20.0221 22.9975C19.2257 23.8765 18.2493 24.5762 17.0926 25.0965C15.936 25.6347 14.514 25.9038 12.8264 25.9038C11.0441 25.9038 9.36605 25.6168 7.7923 25.0427C6.2375 24.4686 4.88179 23.6254 3.72518 22.5131C2.56856 21.4187 1.65843 20.0642 0.994802 18.4496C0.331169 16.8529 -0.000649489 15.0319 -0.000649399 12.9867C-0.00064929 10.493 0.473373 8.21454 1.42142 6.15139C2.38843 4.10618 3.68725 2.35698 5.3179 0.903807L7.9345 2.4108C8.14308 2.55433 8.31372 2.72476 8.44645 2.92211C8.59814 3.13739 8.67398 3.37062 8.67398 3.62178C8.67398 3.99853 8.45593 4.4291 8.01983 4.9135C7.60269 5.39789 7.13815 5.99889 6.6262 6.71651C6.11425 7.45207 5.64023 8.33115 5.20413 9.35375C4.78699 10.3943 4.57842 11.6591 4.57842 13.1482C4.57842 14.386 4.75855 15.4894 5.11881 16.4582C5.47906 17.427 5.98153 18.2432 6.6262 18.907C7.28983 19.5888 8.07671 20.109 8.98683 20.4679C9.89696 20.8267 10.9114 21.0061 12.0301 21.0061C13.2625 21.0061 14.2675 20.737 15.0449 20.1987C15.8412 19.6785 16.5048 18.9878 17.0358 18.1266C17.5667 17.2655 18.0122 16.2788 18.3725 15.1665C18.7517 14.0721 19.1309 12.9418 19.5102 11.7757C19.9083 10.6275 20.3634 9.49728 20.8753 8.38497C21.3873 7.2906 22.0509 6.31285 22.8662 5.45171C23.6816 4.59057 24.696 3.89089 25.9095 3.35268C27.1419 2.83241 28.6588 2.57227 30.4601 2.57227C31.9011 2.57227 33.2948 2.83241 34.641 3.35268C35.9872 3.89089 37.1818 4.66233 38.2246 5.66699C39.2675 6.67166 40.1017 7.90955 40.7274 9.38067C41.3532 10.8697 41.666 12.5741 41.666 14.4937C41.666 16.6465 41.3058 18.611 40.5852 20.3871C39.8647 22.1632 38.8219 23.7151 37.4567 25.0427L34.8401 23.7779Z" fill="white"/>
</svg>
