<svg width="23" height="28" viewBox="0 0 23 28" fill="none" xmlns="http://www.w3.org/2000/svg">
<path d="M19.8184 22.6852V19.1548L22.7241 20.9202L19.8184 22.6852Z" fill="white"/>
<path d="M16.0547 24.9726V21.4453L18.9593 23.2087L16.0547 24.9726Z" fill="white"/>
<path d="M12.291 27.2573V23.728L15.1969 25.4934L12.291 27.2573Z" fill="white"/>
<path d="M11.703 27.2569L8.79688 25.4915L11.703 23.7261V27.2569Z" fill="white"/>
<path d="M7.93732 21.4453V24.9726L5.0332 23.2087L7.93732 21.4453Z" fill="white"/>
<path d="M4.17522 19.1562V22.6866L1.26953 20.9217L4.17522 19.1562Z" fill="white"/>
<path d="M4.17522 5.43506V8.96545L1.26953 7.20003L4.17522 5.43506Z" fill="white"/>
<path d="M7.93732 3.14697V6.67422L5.0332 4.91082L7.93732 3.14697Z" fill="white"/>
<path d="M11.703 0.859375V4.39022L8.79688 2.6248L11.703 0.859375Z" fill="white"/>
<path d="M15.1968 2.6248L12.2906 4.39022V0.859375H12.2891L15.1968 2.6248Z" fill="white"/>
<path d="M16.0547 6.67774V3.14893L18.9604 4.9139L16.0547 6.67774Z" fill="white"/>
<path d="M20.0898 14.0623L22.996 12.2969V15.8261L22.8767 15.7543L20.0898 14.0623Z" fill="white"/>
<path d="M19.2323 19.1562V22.6866L16.3262 20.9217L19.2323 19.1562Z" fill="white"/>
<path d="M15.4671 24.9711L12.5625 23.2072L15.4671 21.4438V24.9711Z" fill="white"/>
<path d="M8.52539 21.4438L11.43 23.2072L8.52539 24.9711V21.4438Z" fill="white"/>
<path d="M4.76172 19.1562L7.66786 20.9217L4.76172 22.6866V19.1562Z" fill="white"/>
<path d="M0.998047 15.8272V12.2983L3.90419 14.0638L3.49012 14.3155L0.998047 15.8272Z" fill="white"/>
<path d="M4.76172 5.43506L7.66786 7.20003L4.76172 8.96545V5.43506Z" fill="white"/>
<path d="M16.3262 16.3493L16.4349 16.2838L19.2323 14.5859V18.1148L16.3262 16.3493Z" fill="white"/>
<path d="M4.17522 13.5402L1.26953 11.7747L4.17522 10.0098V13.5402Z" fill="white"/>
<path d="M8.52539 6.67764V3.15039L11.43 4.91379L8.52539 6.67764Z" fill="white"/>
<path d="M15.1952 7.19988L12.2891 8.9653V5.43604L14.6089 6.84577L15.1952 7.19988Z" fill="white"/>
<path d="M15.4686 6.67932L14.4793 6.07774L12.5625 4.9139L15.4686 3.14893V6.67932Z" fill="white"/>
<path d="M19.8184 10.0098L22.7241 11.7747L19.8184 13.5402V10.0098Z" fill="white"/>
<path d="M16.0547 15.8272V12.2983L18.9604 14.0638L16.1723 15.7555L16.0547 15.8272Z" fill="white"/>
<path d="M16.0547 16.8701L18.9604 18.6355L16.0547 20.401V16.8701Z" fill="white"/>
<path d="M15.4686 20.3995L12.5625 18.6341L15.4686 16.8691V20.3995Z" fill="white"/>
<path d="M7.93732 16.8701V20.3978L5.0332 18.634L7.93732 16.8701Z" fill="white"/>
<path d="M4.76172 14.5845L6.60484 15.7036L7.66944 16.3494L4.76329 18.1149V14.5845H4.76172Z" fill="white"/>
<path d="M4.76172 10.0098L7.66786 11.7747L4.76172 13.5402V10.0098Z" fill="white"/>
<path d="M11.703 8.96545L8.79688 7.20003L11.703 5.43506V8.96545Z" fill="white"/>
<path d="M16.3262 11.7747L19.2323 10.0098V13.5386L16.3262 11.7747Z" fill="white"/>
<path d="M15.4686 15.8248L13.6561 14.7236L12.5625 14.0594L14.4793 12.8957L15.4686 12.2939V15.8248Z" fill="white"/>
<path d="M8.52539 16.8701L11.43 18.634L8.52539 20.3978V16.8701Z" fill="white"/>
<path d="M5.0332 14.0622L7.93732 12.2983V15.826L5.60109 14.4073L5.0332 14.0622Z" fill="white"/>
<path d="M8.52539 11.2526V7.7251L11.43 9.48917L8.52539 11.2526Z" fill="white"/>
<path d="M5.0332 9.48895L7.93732 7.7251V11.2523L7.70401 11.1104L5.0332 9.48895Z" fill="white"/>
<path d="M11.703 22.6852L8.79688 20.9202L11.703 19.1548V22.6852Z" fill="white"/>
<path d="M15.1952 20.9202L12.2891 22.6852V19.1548L15.1952 20.9202Z" fill="white"/>
<path d="M2.35815 15.6868L4.17522 14.5845V18.1133L1.26953 16.3479L2.35815 15.6868Z" fill="white"/>
<path d="M22.7241 16.3494L19.8184 18.1149V14.5845L22.6158 16.2825L22.7241 16.3494Z" fill="white"/>
<path d="M1.45261 10.9776L0.996094 11.254V7.72363L3.90202 9.48905L1.45261 10.9776Z" fill="white"/>
<path d="M3.90396 18.634L0.998047 20.3994V16.8701L3.90396 18.634Z" fill="white"/>
<path d="M22.996 16.8701V20.3994L20.0898 18.634L22.996 16.8701Z" fill="white"/>
</svg>
