<svg width="26" height="28" viewBox="0 0 26 28" fill="none" xmlns="http://www.w3.org/2000/svg">
<path d="M2.83656 6.29205C1.23449 8.72099 0.666016 11.7184 0.666016 14.6125C0.666016 16.1629 0.821054 17.7649 1.28617 19.212C1.90633 21.6926 3.24999 23.9665 5.31718 25.4652C7.69444 27.2223 10.7435 27.8424 13.6376 27.9458C15.4464 27.9975 17.2552 27.8941 19.0639 27.584C19.9942 27.429 20.9244 27.2223 21.803 26.9639C22.113 26.8605 23.1983 26.7055 23.3017 26.4471C23.3534 26.3437 23.3017 26.0853 23.3017 25.982V17.5582C23.3017 17.0931 23.25 17.0931 23.6634 16.8864C24.0252 16.628 24.4386 16.4213 24.8004 16.2145C25.0071 16.1112 25.5239 15.9045 25.6273 15.7494C25.6789 15.6461 25.6789 14.9225 25.6273 14.8709H25.4205C24.9037 14.8192 24.3353 14.8709 23.8185 14.8709H15.8081C15.343 14.8709 14.7229 14.7675 14.2577 14.8709C14.1027 14.8709 14.1027 14.8192 14.051 14.9225C13.9477 15.0259 13.9993 15.5944 14.1027 15.6977C14.2577 15.9045 14.7745 16.0595 15.0329 16.2145C15.3947 16.4729 15.8081 16.6797 16.1699 16.8864C16.48 17.0931 16.3766 17.2481 16.3766 17.6099V19.7288V25.2068V26.0853C16.3766 26.1887 16.4283 26.4471 16.3766 26.5505C16.2216 26.8605 15.1363 26.9122 14.8262 26.9639C14.3094 27.0156 13.8443 27.0156 13.3792 26.9122C11.8805 26.6021 10.8986 25.4135 10.3301 24.0698C9.39987 21.8993 9.19315 19.367 9.03811 16.9897C8.88307 13.889 8.83139 10.6848 9.5549 7.63572C10.02 5.72358 10.8469 3.60472 12.604 2.51944C13.3792 2.05433 14.3094 1.89929 15.2397 1.89929C16.0665 1.89929 17.3585 1.89929 17.8236 2.67448C18.7022 4.06983 19.6324 5.46518 20.511 6.86053C20.8727 7.53235 21.2862 8.1525 21.6996 8.77265L21.6996 8.77267C21.7513 8.87603 21.8546 9.13443 21.958 9.18611C22.113 9.23779 22.4748 9.18611 22.6815 9.18611C22.6298 7.58404 22.6298 5.9303 22.5782 4.32823C22.5782 3.70807 22.6815 2.93288 22.5265 2.31273V2.15769C22.4748 2.05433 22.0097 1.95097 21.9063 1.89929C21.2345 1.69257 20.511 1.53753 19.7875 1.38249C16.4283 0.762338 12.8107 0.658979 9.5549 1.58921C6.86757 2.36441 4.38695 3.91479 2.83656 6.29205Z" fill="white"/>
</svg>
