<svg width="23" height="12" viewBox="0 0 23 12" fill="none" xmlns="http://www.w3.org/2000/svg">
<g clip-path="url(#clip0_6194_139515)">
<path d="M21.5848 9.07927C20.8055 9.07927 20.1738 9.71081 20.1738 10.49C20.1738 11.2692 20.8055 11.9009 21.5848 11.9009C22.3639 11.9009 22.9956 11.2692 22.9956 10.49C22.9956 9.71081 22.3639 9.07927 21.5848 9.07927Z" fill="white"/>
<path d="M2.4069 1.05211C1.62775 1.05211 0.996094 1.68378 0.996094 2.46288C0.996094 3.24204 1.62775 3.87354 2.4069 3.87354C3.18607 3.87354 3.81781 3.24204 3.81781 2.46288C3.81781 1.68378 3.18607 1.05211 2.4069 1.05211" fill="white"/>
<path d="M1.32422 4.8489H3.48921V11.8486H1.32422V4.8489Z" fill="white"/>
<path d="M18.4141 5.86976C17.8219 5.23881 16.9931 4.8451 16.0878 4.8457C15.4093 4.84528 14.7741 5.06661 14.2488 5.4429V0.858939H12.084V11.8486H14.2488V11.2414C14.7735 11.6178 15.4081 11.8391 16.0862 11.8391H16.0878C16.9931 11.8394 17.8219 11.4457 18.4141 10.8146C19.0077 10.1854 19.3778 9.30453 19.3773 8.34226C19.3778 7.38024 19.0077 6.49892 18.4141 5.86976ZM15.6576 9.7446C14.8786 9.7446 14.2472 9.11269 14.2472 8.33369C14.2472 7.55454 14.8786 6.92305 15.6576 6.92305C16.4369 6.92305 17.0687 7.55454 17.0687 8.33369C17.0687 9.11269 16.4369 9.7446 15.6576 9.7446" fill="white"/>
<path d="M9.21279 4.8489V5.44862C8.68684 5.06866 8.04963 4.84522 7.36877 4.8454C6.46476 4.84504 5.63729 5.23875 5.04604 5.8697C4.45297 6.49885 4.0836 7.37986 4.08398 8.3422C4.0836 9.30446 4.45297 10.1854 5.04604 10.8145C5.63729 11.4458 6.46476 11.8396 7.36877 11.839H7.37058C8.05065 11.839 8.68751 11.6155 9.21279 11.2358V11.8486H11.3778V4.8489H9.21279ZM7.79852 9.74453C7.01935 9.74453 6.38798 9.11285 6.38798 8.33363C6.38798 7.55447 7.01935 6.92298 7.79852 6.92298C8.57787 6.92298 9.20948 7.55447 9.20948 8.33363C9.20948 9.11285 8.57787 9.74453 7.79852 9.74453" fill="white"/>
</g>
<defs>
<clipPath id="clip0_6194_139515">
<rect width="22" height="11.0416" fill="white" transform="translate(0.996094 0.859375)"/>
</clipPath>
</defs>
</svg>
