<svg width="23" height="19" viewBox="0 0 23 19" fill="none" xmlns="http://www.w3.org/2000/svg">
<g clip-path="url(#clip0_6194_139525)">
<path d="M4.73308 15.61H3.17578V16.0782H3.61133V17.7877H3.17578V18.2568H4.73308V17.7877H4.29658V16.0782H4.73308V15.61Z" fill="white"/>
<path d="M7.2888 15.5577C7.08675 15.5577 6.89995 15.59 6.72935 15.6537C6.55875 15.7173 6.41579 15.8085 6.30047 15.9262C6.18039 16.0478 6.0889 16.194 6.02599 16.365C5.96309 16.5359 5.93164 16.7259 5.93164 16.9358C5.93164 17.1609 5.965 17.3593 6.03076 17.5312C6.09652 17.7031 6.18992 17.8465 6.31001 17.9615C6.43009 18.0764 6.57305 18.1637 6.73983 18.2217C6.90757 18.2796 7.08961 18.3081 7.28689 18.3081C7.41937 18.3081 7.5242 18.3024 7.60045 18.2891C7.67669 18.2758 7.7577 18.2568 7.84443 18.2321C7.91114 18.2131 7.975 18.1903 8.03504 18.1647C8.09604 18.1381 8.15989 18.1106 8.22565 18.0811V17.4486H8.15513C8.12273 17.4771 8.08174 17.5103 8.03218 17.5493C7.98167 17.5882 7.92735 17.6243 7.86921 17.6585C7.80059 17.7012 7.7253 17.7345 7.64429 17.7592C7.56233 17.7839 7.48036 17.7962 7.39745 17.7962C7.31072 17.7962 7.22208 17.7829 7.13345 17.7544C7.04386 17.7269 6.96381 17.6803 6.89042 17.6158C6.81989 17.5512 6.76081 17.4638 6.71315 17.3527C6.66645 17.2416 6.64262 17.1029 6.64262 16.9377C6.64262 16.7791 6.66454 16.6442 6.70838 16.5331C6.75127 16.422 6.80846 16.3327 6.87803 16.2653C6.95237 16.195 7.03242 16.1456 7.11915 16.1152C7.20588 16.0848 7.29738 16.0696 7.39363 16.0696C7.48036 16.0696 7.56137 16.0829 7.63762 16.1086C7.71386 16.1342 7.78439 16.1665 7.85015 16.2045C7.91401 16.2415 7.97119 16.2805 8.0217 16.3194C8.07221 16.3584 8.11415 16.3916 8.1475 16.4201H8.22565V15.7781C8.17705 15.7543 8.12082 15.7287 8.05601 15.7011C7.9912 15.6727 7.91877 15.648 7.83967 15.6252C7.76342 15.6052 7.68051 15.5891 7.59092 15.5767C7.50038 15.5644 7.4003 15.5577 7.2888 15.5577" fill="white"/>
<path d="M11.0013 15.61H10.2131L9.23242 18.2568H9.92339L10.1083 17.7231H11.0909L11.2748 18.2568H11.982L11.0013 15.61ZM10.2732 17.2368L10.5991 16.29L10.9251 17.2368H10.2732" fill="white"/>
<path d="M15.5781 15.61H14.949V17.1257L13.9798 15.61H13.1602V18.2568H13.7892V16.44L14.9166 18.2568H15.5781V15.61Z" fill="white"/>
<path d="M19.4687 15.61H18.8397V17.1257L17.8704 15.61H17.0508V18.2568H17.6798V16.44L18.8073 18.2568H19.4687V15.61Z" fill="white"/>
<path d="M12.1075 0.977069C11.7003 0.977081 11.2853 1.01822 10.8676 1.10126C10.1738 1.25511 9.56095 1.58656 8.94718 1.92371C6.92384 2.9114 5.63435 4.98463 5.81257 7.22879L6.79803 6.94388C6.67795 5.36166 7.10778 3.95609 8.09896 2.80884C8.70129 5.99512 10.0022 8.89079 11.9388 11.53C12.1157 11.5414 12.2868 11.5527 12.4566 11.5527C12.6281 11.5527 12.7981 11.5411 12.971 11.5063C12.2886 10.8215 11.7444 10.0846 11.1935 9.34759C12.036 8.96487 12.89 8.57073 13.6524 8.03415C13.5495 7.77773 13.4752 7.49756 13.3436 7.26868C12.5412 7.8746 11.7101 8.39978 10.8219 8.79392C10.4092 8.17756 10.0537 7.54315 9.70963 6.90304V6.84036C10.6551 6.45763 11.5662 5.98372 12.4144 5.36166C12.2657 5.0872 12.1056 4.80133 11.9388 4.55631C11.1421 5.17267 10.3224 5.74439 9.46279 6.20121H9.37701C8.85569 5.09859 8.44301 3.94469 8.13899 2.74616C8.42014 2.4318 8.74132 2.12884 9.06727 1.88382L10.0194 1.61505C12.4144 4.29324 13.9736 7.33231 14.8276 10.6212C15.0515 10.3989 15.2517 10.1587 15.3031 9.86234C15.1373 9.39888 15.0172 8.92498 14.8047 8.48526C14.696 8.15951 14.4835 7.8575 14.4149 7.53745C15.0401 7.08064 15.6415 6.58394 16.2314 6.03501C16.22 5.62378 16.1171 5.2477 15.9226 4.90485H15.8769C15.2974 5.5554 14.6389 6.18981 13.9793 6.73779C13.6238 6.16132 13.2969 5.5725 12.9081 5.00742C13.5724 4.50502 14.2147 3.8991 14.8047 3.25995C14.5931 2.98549 14.3177 2.69392 14.0022 2.58566C13.498 3.14599 12.931 3.73386 12.3515 4.20776C11.6529 3.32263 10.8962 2.4432 10.0594 1.63785C10.4001 1.56092 10.7883 1.52246 11.1758 1.52246C11.5633 1.52246 11.9503 1.56092 12.2886 1.63785C14.2605 1.99209 16.18 3.9219 16.4954 5.89255C16.9138 8.09683 16.1228 10.1245 14.312 11.4664C13.6703 11.6983 12.9862 11.8159 12.3045 11.8159C10.8368 11.8159 9.38143 11.2705 8.39155 10.1473C9.07871 10.0333 9.7325 9.8272 10.392 9.61637C10.2939 9.45112 10.1738 9.29631 10.0994 9.11967C8.278 9.84873 6.29291 10.2682 4.19968 10.2682C3.94792 10.2682 3.69423 10.2622 3.43945 10.2498C4.15227 10.3412 4.88007 10.3808 5.6124 10.3808C6.07563 10.3808 6.54068 10.3649 7.00485 10.3362C7.49186 10.9412 8.1104 11.4265 8.74132 11.7751C9.46085 12.1741 10.3549 12.373 11.2551 12.373C12.326 12.373 13.4054 12.0914 14.209 11.53C15.1144 11.1473 15.9855 10.473 16.5983 9.61637C17.7563 8.14242 17.9336 5.71021 17.0739 4.04251L16.7022 3.40811C15.6183 1.81041 13.9405 0.976998 12.1075 0.977069" fill="white"/>
<path d="M8.82202 6.50998C7.2285 7.25171 5.50919 7.70282 3.66406 7.84623C3.78991 7.84815 3.9159 7.8491 4.04182 7.8491C4.66067 7.8491 5.27672 7.82616 5.85324 7.78354C5.97333 8.50817 6.22017 9.18817 6.61569 9.79883C7.02836 9.71905 7.44104 9.65067 7.82989 9.53101C7.48107 9.0685 7.23422 8.55376 7.05124 8.01147C7.02264 7.88041 6.92448 7.72561 7.00549 7.60025C7.71552 7.46919 8.40935 7.30868 9.06791 7.06366L8.82202 6.50998" fill="white"/>
<path d="M11.9546 13.9344C8.19957 13.9345 4.44065 14.3016 1.02148 15.0249C4.45038 14.6532 8.03299 14.4781 11.6196 14.4781C15.419 14.4781 19.2229 14.6746 22.8523 15.042C19.448 14.3 15.7032 13.9343 11.9546 13.9344" fill="white"/>
</g>
<defs>
<clipPath id="clip0_6194_139525">
<rect width="22" height="17.5" fill="white" transform="translate(0.996094 0.859375)"/>
</clipPath>
</defs>
</svg>
