<svg width="23" height="23" viewBox="0 0 23 23" fill="none" xmlns="http://www.w3.org/2000/svg">
<path d="M7.2168 18.1917V17.2987C7.50358 17.2436 7.84547 17.1885 8.17613 17.1668V13.7915C7.91146 13.748 7.53657 13.7034 7.2168 13.6824V12.7996C7.91146 12.7111 8.76093 12.6781 9.57741 12.7003V17.1668C9.88522 17.1885 10.2057 17.2436 10.4704 17.2987V18.1917H7.2168V18.1917ZM8.87079 12.0045C8.38605 12.0045 7.99956 11.6188 7.99956 11.1453C7.99956 10.682 8.38605 10.2959 8.87079 10.2959C9.35625 10.2959 9.75325 10.6711 9.75325 11.1453C9.75325 11.6188 9.35625 12.0045 8.87079 12.0045ZM15.5295 15.6774H12.1331C12.1218 16.7027 12.6298 17.199 13.6439 17.199C14.1848 17.199 14.7685 17.0787 15.2427 16.8579L15.3751 17.9502C14.7906 18.1808 14.096 18.303 13.4118 18.303C11.6697 18.303 10.6988 17.4318 10.6988 15.5009C10.6988 13.8256 11.6262 12.59 13.269 12.59C14.8679 12.59 15.5738 13.6824 15.5738 15.0379C15.5738 15.2257 15.5629 15.4465 15.5295 15.6774V15.6774ZM13.2247 13.6269C12.6403 13.6269 12.2321 14.0569 12.1552 14.7182H14.1732C14.1953 14.0351 13.8208 13.6269 13.2247 13.6269ZM20.6332 17.1109V14.4985C20.6332 13.2956 20.1365 12.5788 18.3615 12.5788C17.6664 12.5788 17.016 12.7003 16.4421 12.8659V14.476H17.3358C17.38 14.2327 17.4239 13.9797 17.446 13.7585C17.6773 13.6925 17.9536 13.6595 18.2183 13.6595C18.9898 13.6595 19.2218 13.9575 19.2218 14.5416V14.8726C17.3579 14.8944 16.0563 15.5447 16.0563 16.8579C16.0563 17.7407 16.6306 18.303 17.6226 18.303C18.4387 18.303 19.1112 17.8726 19.3759 17.2548L19.3868 17.2661C19.3429 17.5521 19.332 17.8831 19.332 18.204C19.84 18.2192 20.415 18.2066 20.9342 18.1702C21.1492 17.8654 21.3511 17.5503 21.5378 17.2255V17.2222C21.2507 17.199 20.8986 17.1562 20.6332 17.1109V17.1109ZM19.2218 15.9091C19.2218 16.5827 18.7472 17.2334 18.0518 17.2334C17.6447 17.2334 17.4018 17.001 17.4018 16.6483C17.4018 16.1183 17.8981 15.7876 19.2218 15.7876V15.9091Z" fill="white"/>
<path fill-rule="evenodd" clip-rule="evenodd" d="M0.996094 11.7671V11.9513C1.04576 17.9745 5.9606 22.8594 11.9957 22.8594C15.3744 22.8594 18.4007 21.3269 20.4201 18.9218H18.8553C17.3184 20.3332 15.2696 21.1953 13.0181 21.1953C8.24906 21.1953 4.38311 17.3296 4.38311 12.5607C4.38311 7.7915 8.24906 3.92574 13.0181 3.92574C17.1546 3.92574 20.6108 6.83367 21.4556 10.7168C21.9429 12.5839 21.8363 14.6156 21.0328 16.5157L21.9088 16.6204C22.6042 15.1786 22.9961 13.5639 22.9961 11.8592C22.9961 5.7939 18.0613 0.859375 11.9957 0.859375C5.9606 0.859375 1.04576 5.74424 0.996094 11.7671Z" fill="white"/>
</svg>
