<svg width="23" height="17" viewBox="0 0 23 17" fill="none" xmlns="http://www.w3.org/2000/svg">
<path d="M0.996094 1.05615H3.26059V11.448H0.996094V1.05615Z" fill="white"/>
<path d="M12.9779 1.0708H8.93352C8.93352 1.0708 8.03456 1.0708 7.50587 1.0708C6.97765 1.0708 6.19727 1.61215 6.19727 2.37894C6.19727 3.14526 6.19727 9.21208 6.19727 9.81998C6.19727 10.4274 6.79907 11.4435 7.83021 11.4435C8.86041 11.4435 13.0838 11.4435 13.0838 11.4435V10.5863C13.0838 10.5863 10.0172 10.5863 9.35629 10.5863C8.69542 10.5863 8.38046 10.2966 8.38046 9.92497C8.38046 9.5547 8.38046 7.44087 8.38046 7.15028C8.38046 6.85969 8.37202 6.38349 8.64246 6.38349C9.03945 6.38349 11.9205 6.38349 11.9205 6.38349V5.6167C11.9205 5.6167 9.14397 5.6167 8.72214 5.6167C8.29891 5.6167 8.38046 5.3397 8.38046 5.10207C8.38046 4.86444 8.38046 3.02668 8.38046 2.7628C8.38046 2.49799 8.37202 2.04147 8.92649 2.04147C9.48237 2.04147 12.9779 2.04147 12.9779 2.04147V1.0708Z" fill="white"/>
<path d="M22.6271 2.76276C22.6271 2.76276 21.4108 0.859375 18.6619 0.859375C16.414 0.859375 13.4805 2.78853 13.4805 6.3572C13.4805 10.2427 16.8115 11.6708 18.8199 11.6708C21.8866 11.6708 22.9964 9.05315 22.9964 9.05315L22.4682 8.6046C22.4682 8.6046 21.0607 10.9172 18.9595 10.9172C17.6631 10.9172 15.5948 9.74026 15.5948 6.3572C15.5948 2.60387 17.3453 1.65194 18.9595 1.65194C20.9417 1.65194 22.0717 3.29098 22.0717 3.29098L22.6271 2.76276Z" fill="white"/>
<path fill-rule="evenodd" clip-rule="evenodd" d="M1.00391 14.4172H19.6988C19.7912 14.239 19.9023 14.0736 20.0401 13.9302H1.00391V14.4172Z" fill="white"/>
<path fill-rule="evenodd" clip-rule="evenodd" d="M1.00391 15.5993H19.487C19.4772 15.5191 19.4626 15.4404 19.4626 15.3574C19.4626 15.2735 19.4781 15.1929 19.4875 15.1118H1.00391V15.5993Z" fill="white"/>
<path fill-rule="evenodd" clip-rule="evenodd" d="M1.00391 16.7809H20.0372C19.8995 16.637 19.7884 16.4716 19.696 16.2935H1.00391V16.7809Z" fill="white"/>
<path d="M21.5477 16.7986C22.3436 16.7986 22.9885 16.1537 22.9885 15.3578C22.9885 14.5624 22.3436 13.918 21.5477 13.918C20.7528 13.918 20.1074 14.5624 20.1074 15.3578C20.1074 16.1537 20.7528 16.7986 21.5477 16.7986Z" fill="white"/>
</svg>
