<svg width="23" height="20" viewBox="0 0 23 20" fill="none" xmlns="http://www.w3.org/2000/svg">
<g clip-path="url(#clip0_6194_139372)">
<path d="M21.3414 14.1173C20.3952 14.8256 19.2543 15.0689 18.3838 15.9395C18.2919 15.9989 18.1945 16.0963 18.0918 16.0963C18.4216 15.8097 18.7136 15.4636 18.9245 15.1014C19.4598 14.193 19.2597 12.971 19.7247 12.0356C19.4381 12.3492 19.2381 12.6953 18.9893 13.0251C18.2216 14.1876 18.2864 15.7178 17.1348 16.7072C17.816 16.4747 18.5622 16.4153 19.2651 16.226C20.6168 15.7935 22.0551 14.4417 22.2389 12.9927C22.0659 13.4198 21.7199 13.8145 21.3414 14.1173Z" fill="white"/>
<path d="M22.0002 9.18072C21.7461 9.75386 21.665 10.4027 21.5028 11.0191L21.4541 11.0732L21.4379 11.0515C21.4974 10.7866 21.5893 10.5271 21.5622 10.2243C21.6325 8.96985 20.5349 8.20207 20.2862 7.08283L20.2754 7.49916C20.3673 8.59677 20.6593 9.60787 20.9891 10.6028C21.1784 11.0677 21.1243 11.6679 21.0756 12.1545C21.4703 11.5382 21.9894 10.9704 22.4165 10.3648C23.0167 9.26724 23.1789 7.69381 22.6328 6.52051C22.8058 7.52079 22.3571 8.35887 22.0002 9.18072Z" fill="white"/>
<path d="M21.6497 7.87229C21.6497 7.88851 21.6335 7.89932 21.6173 7.89932C21.5416 7.64519 21.547 7.35322 21.4226 7.12072C21.1144 6.19073 19.9952 5.75817 19.541 4.91469C19.6059 5.28236 19.7194 5.62841 19.8546 5.96904C20.2818 7.00177 21.3199 7.78578 21.6065 8.87798C21.6389 8.98071 21.6497 9.09966 21.6822 9.19158C21.7579 8.66711 21.8984 8.15885 22.0931 7.68845C22.6176 6.56921 22.4608 5.01201 21.7416 4.03876C21.6173 3.88196 21.5308 3.6765 21.3523 3.56836C21.6389 3.96307 21.6876 4.46051 21.693 4.97416C21.5578 5.91497 21.5145 6.91526 21.6497 7.87229Z" fill="white"/>
<path d="M20.2705 2.99517C20.5138 3.78459 20.6273 4.61726 20.9734 5.35801L20.9518 5.37963C20.822 5.17417 20.7571 4.92004 20.5516 4.73621C19.9461 3.94679 18.8971 3.73592 18.5078 2.80052C18.6051 3.36285 18.7782 3.89273 19.1729 4.32528C19.8541 5.05522 20.8382 5.48777 21.3086 6.40695L21.314 6.40155C21.141 5.53644 21.4167 4.70377 21.2275 3.84947C21.0653 3.0925 20.3786 2.26524 19.5838 2.10303C19.9082 2.31931 20.1461 2.65454 20.2705 2.99517Z" fill="white"/>
<path d="M20.2495 4.05474L20.1522 3.82765C19.9792 3.11394 19.7088 2.42185 19.1141 1.88656C18.6058 1.43238 17.9678 1.28098 17.373 1.02686L18.0489 1.70813C18.595 2.59487 19.3844 3.43295 20.2495 4.05474Z" fill="white"/>
<path d="M2.61719 4.19014C3.06596 3.7684 3.57962 3.44398 3.97433 2.94654C4.4177 2.33015 4.83403 1.6651 5.4342 1.14062C4.61776 1.45963 3.70939 1.75702 3.21736 2.61672C2.87131 3.08172 2.8605 3.6873 2.61719 4.19014Z" fill="white"/>
<path d="M1.63367 6.54754C1.82832 6.14202 2.17436 5.78517 2.53122 5.47156C3.39633 4.86058 4.3047 4.00628 4.32092 2.91948C4.03976 3.70349 3.19087 4.03332 2.61773 4.55779C2.32576 4.84976 2.08785 5.18499 1.95268 5.53645L1.93105 5.52022C2.00134 5.20662 2.14192 4.92546 2.22302 4.62267C2.47715 3.79541 2.42849 2.80594 3.23412 2.24902C2.81779 2.35716 2.45012 2.60588 2.15814 2.96815C1.48768 3.67105 1.55797 4.75244 1.64989 5.70406C1.67152 5.99604 1.61204 6.27179 1.63367 6.54754Z" fill="white"/>
<path d="M2.95647 6.33121C3.1403 5.92569 3.27548 5.48232 3.32955 5.03895C3.25385 5.22819 3.12949 5.3904 2.98891 5.5472C2.31845 6.15819 1.55066 6.78539 1.40467 7.67213C1.37764 7.79649 1.37223 7.92626 1.33438 8.05062C1.32898 8.05062 1.32357 8.05602 1.32357 8.05602C1.30735 8.05602 1.30194 8.02899 1.29654 8.02358L1.37764 6.92597C1.40467 5.8554 0.896421 4.67128 1.51281 3.73047H1.50741C1.49119 3.73047 1.48037 3.74669 1.46415 3.7521C0.901828 4.46581 0.501715 5.24982 0.528749 6.21226C0.453052 7.39638 1.21002 8.22905 1.29654 9.34828C1.47496 8.18038 2.4374 7.34771 2.95647 6.33121Z" fill="white"/>
<path d="M1.85452 12.2463L1.914 12.295C1.84912 11.8516 1.81668 11.3704 1.94104 10.9486C2.13028 10.2673 2.35196 9.6077 2.49795 8.9048C2.57365 8.35329 2.70882 7.74231 2.64394 7.21783C2.56824 7.5044 2.48714 7.78016 2.34115 8.02887C1.73557 8.94265 1.1354 10.0349 1.55174 11.2028C1.54633 11.2136 1.53551 11.2244 1.51929 11.2244C1.51389 11.2244 1.51389 11.2244 1.50848 11.2244C1.34086 10.8351 1.31383 10.3971 1.19488 9.98078C0.913716 8.87776 0.0594191 7.96399 0.308138 6.69336C0.178372 6.96911 0.124302 7.28272 0.0540121 7.5801C-0.0919754 8.3587 0.0486052 9.18055 0.264883 9.89427C0.53523 10.7918 1.41115 11.4298 1.85452 12.2463Z" fill="white"/>
<path d="M3.62731 14.9552C3.51376 14.6686 3.34074 14.3983 3.25423 14.0955C2.92441 12.7167 3.10284 11.1271 2.51348 9.85645C2.62162 10.581 2.33505 11.219 2.27017 11.9057C2.2161 12.4734 2.2972 13.0303 2.53511 13.4953C2.58377 13.6413 2.71894 13.7657 2.75138 13.9062C2.54051 13.717 2.39993 13.4629 2.24313 13.2358C1.57267 12.122 0.123609 11.4082 0.0262845 10.0619C-0.022378 10.6621 0.00465676 11.3055 0.231748 11.83C0.761629 13.3439 2.41615 14.1279 3.62731 14.9552Z" fill="white"/>
<path d="M5.8881 16.7718C4.94729 16.0148 4.79049 14.8848 4.38497 13.8791C4.11462 13.2627 3.69828 12.7004 3.24951 12.1597C3.74695 13.1545 3.51445 14.4468 4.1795 15.3714C4.36334 15.6742 4.66072 15.9445 4.92566 16.1824L4.91485 16.1932C4.67694 16.0851 4.46066 15.9283 4.24979 15.7391C3.11433 14.8091 1.42196 14.6793 0.746094 13.1545C0.92993 14.2792 1.80585 15.3011 2.78451 15.9013C3.68206 16.5285 4.87159 16.4366 5.8881 16.7718Z" fill="white"/>
<path d="M5.64053 17.8857C6.5543 17.8857 7.46808 17.5829 8.31697 17.372C8.48458 17.3288 8.69545 17.345 8.85225 17.2855C8.19261 17.1503 7.5654 16.9395 7.04633 16.4853C6.3218 15.804 5.66216 15.1011 4.87815 14.582C5.49454 15.4093 5.65675 16.6313 6.79221 17.0314C6.98145 17.1287 7.21936 17.1179 7.39238 17.226C7.35453 17.2314 7.32209 17.2314 7.28965 17.2314C7.11663 17.2314 6.95982 17.172 6.7868 17.1449C5.34315 16.8205 3.56967 17.2314 2.48828 15.9987C2.89921 16.8043 3.74269 17.4531 4.55914 17.7072C4.916 17.837 5.27826 17.8857 5.64053 17.8857Z" fill="white"/>
<path d="M15.8858 18.1564L14.9396 17.7779C14.307 17.4427 13.5446 17.248 12.7768 17.248C12.4253 17.248 12.0793 17.2913 11.7441 17.3778C11.6792 17.4319 11.6197 17.4535 11.5548 17.4535C11.4034 17.4535 11.2466 17.34 11.0898 17.34C10.8303 17.2859 10.5762 17.2589 10.3329 17.2589C9.20821 17.2589 8.20252 17.7779 7.22386 18.1997C6.85619 18.3457 6.43986 18.4214 6.02352 18.4214C5.43417 18.4214 4.85022 18.27 4.39062 17.9564C4.77452 18.443 5.29358 18.7404 5.82887 18.9404C6.15329 19.0702 6.49933 19.1297 6.83997 19.1297C7.55369 19.1297 8.2674 18.8809 8.81891 18.4971C9.41368 18.1618 9.94356 17.5508 10.6519 17.5508C10.7816 17.5508 10.9168 17.5725 11.0574 17.6157C10.1112 18.0537 9.25147 18.6701 8.46746 19.4595L8.95409 19.865C9.52181 19.1026 10.2788 18.4808 11.0466 17.9942C11.2142 17.9077 11.3872 17.7941 11.571 17.7725C12.5119 18.2321 13.3499 19.0161 14.1123 19.838C14.2745 19.7082 14.4475 19.5676 14.5773 19.4162C13.7879 18.6539 12.9282 18.0591 12.0036 17.6319C12.1388 17.5941 12.2902 17.5833 12.447 17.5833C12.4686 17.5833 12.4902 17.5833 12.5119 17.5833C12.5335 17.5833 12.5551 17.5833 12.5713 17.5833C13.0363 17.5833 13.3662 17.9185 13.7338 18.151C14.4313 18.6755 15.2964 19.0756 16.1832 19.0756C16.513 19.0756 16.8482 19.0215 17.1835 18.8972C17.7296 18.7025 18.2594 18.3565 18.6487 17.8698C18.1837 18.1997 17.5782 18.3619 16.9726 18.3619C16.6049 18.3457 16.2264 18.2862 15.8858 18.1564Z" fill="white"/>
<path d="M16.7013 17.0153C16.3498 17.0532 16.0254 17.1776 15.674 17.1776C15.6631 17.1776 15.6523 17.1776 15.6415 17.1776C15.8956 17.0532 16.2092 17.0262 16.458 16.864C17.4582 16.3665 17.5231 15.2581 18.1287 14.4795C17.3123 15.0364 16.658 15.7663 15.9173 16.4747C15.4198 16.9234 14.8088 17.1127 14.1816 17.2533V17.2587L14.4358 17.2911C15.3874 17.4425 16.3715 17.821 17.3609 17.821C17.7394 17.821 18.1179 17.7669 18.5018 17.6209C19.302 17.3398 20.1779 16.6747 20.524 15.8745C19.5832 17.0208 18.0476 16.8045 16.7013 17.0153Z" fill="white"/>
<path d="M20.2823 10.1971C19.7903 11.657 20.1796 13.4737 19.3848 14.7984V14.8471C19.9038 14.4416 20.4553 14.1171 20.996 13.7603C22.3099 12.8627 23.1967 11.4786 22.9588 9.89432C22.8668 10.8405 22.1477 11.5434 21.4394 12.2247C20.9852 12.7113 20.677 13.2574 20.2877 13.7711H20.2391C20.5256 13.3331 20.7095 12.8411 20.7365 12.295C20.7635 11.3812 20.3688 10.6134 20.4716 9.70508L20.2823 10.1971Z" fill="white"/>
<path d="M5.69882 4.60639C5.55283 4.80644 5.41766 5.01731 5.28789 5.23359C5.16353 5.44987 5.04999 5.67696 4.94726 5.90405L4.18488 5.56342C4.03348 5.90405 3.90372 6.2555 3.80098 6.61236L4.60662 6.84486C4.46604 7.32608 4.37953 7.82352 4.34709 8.32096L3.51442 8.26148C3.48738 8.63456 3.48738 9.00764 3.51442 9.37531L4.35249 9.31583C4.38493 9.81327 4.47145 10.3053 4.61203 10.7919L3.80639 11.0244C3.90912 11.3813 4.03889 11.7327 4.19028 12.0734L4.95807 11.7327L5.61772 11.4408L5.94754 11.2948C5.59609 10.5054 5.42307 9.66188 5.42307 8.81839C5.42307 7.76404 5.69882 6.71509 6.23952 5.77429C7.21277 4.08732 8.93758 2.96808 10.8733 2.76803L10.8354 2.41117L10.7597 1.69204L10.6624 0.859375C10.2893 0.897224 9.92705 0.962107 9.56479 1.05402L9.77025 1.87047C9.28363 1.99483 8.80781 2.16245 8.36445 2.38413L7.99677 1.63257C7.66154 1.79478 7.33713 1.98402 7.02893 2.18948L7.49933 2.88698C7.083 3.16814 6.69911 3.48715 6.35306 3.84941L5.74748 3.26546C5.48795 3.53581 5.25005 3.81697 5.02836 4.11976L5.69882 4.60639Z" fill="white"/>
<path d="M16.6488 13.793L17.2544 14.3769C17.5139 14.1066 17.7518 13.8254 17.9735 13.5226L16.7083 12.6034L16.4217 12.3926C15.2755 13.966 13.4479 14.9014 11.5014 14.9014C9.55491 14.9014 7.72736 13.9714 6.58109 12.3926L6.29452 12.6034L5.0293 13.5226C5.25098 13.8254 5.48889 14.112 5.74842 14.3769L6.354 13.793C6.70545 14.1552 7.08934 14.4797 7.50027 14.7554L7.02987 15.4529C7.33806 15.6638 7.66248 15.8476 7.99771 16.0098L8.36538 15.2583C8.81416 15.4745 9.28456 15.6476 9.77119 15.7719L9.56572 16.5884C9.92799 16.6803 10.2957 16.7452 10.6633 16.783L10.7498 15.9503C10.9986 15.9774 11.2473 15.9882 11.496 15.9882C11.7501 15.9882 11.9988 15.9774 12.2422 15.9503L12.3287 16.783C12.7018 16.7452 13.064 16.6803 13.4263 16.5884L13.2208 15.7719C13.7074 15.653 14.1778 15.4799 14.6266 15.2583L14.9943 16.0098C15.3295 15.8476 15.6539 15.6584 15.9621 15.4529L15.4917 14.7554C15.9189 14.4797 16.3028 14.1552 16.6488 13.793Z" fill="white"/>
<path d="M15.7014 4.43336H15.7122C16.1231 4.82807 16.4746 5.27685 16.7666 5.77969C17.3073 6.71509 17.583 7.76945 17.583 8.8238C17.583 9.66729 17.41 10.5054 17.0585 11.3002L17.3884 11.4462L17.437 11.4678L18.8104 12.0788C18.9618 11.7381 19.0915 11.3867 19.1943 11.0298L18.3886 10.7973C18.5292 10.3107 18.6157 9.81868 18.6482 9.32124L19.4863 9.38072C19.5133 9.00764 19.5133 8.63456 19.4863 8.26689L18.6482 8.32636C18.6157 7.82893 18.5292 7.33149 18.3886 6.85027L19.1943 6.61777C19.0915 6.26091 18.9618 5.90946 18.8104 5.56882L18.0426 5.90946C17.9399 5.68237 17.8263 5.46068 17.702 5.239C17.5776 5.02272 17.4424 4.81185 17.291 4.61179L17.9723 4.11976C17.7506 3.81697 17.5127 3.53041 17.2532 3.26546L16.6476 3.84941C16.2962 3.48715 15.9123 3.16814 15.5013 2.88698L15.9717 2.18948C15.6635 1.97861 15.3391 1.79478 15.0039 1.63257L14.6362 2.38413C14.1875 2.16786 13.717 1.99483 13.2304 1.87047L13.4359 1.05402C13.0736 0.962107 12.7059 0.897224 12.3329 0.859375L12.2464 1.69204L12.1707 2.41117L12.1328 2.76803C13.49 2.90861 14.739 3.49796 15.7014 4.41714V4.43336ZM12.6843 1.75693C12.7871 1.77315 12.8844 1.79478 12.9871 1.811C12.8898 1.78937 12.7871 1.77315 12.6843 1.75693Z" fill="white"/>
<path d="M8.1582 4.43359V4.6715H8.19065H8.48803C8.81785 4.6715 9.07198 4.76882 9.23959 4.95807C9.35854 5.09865 9.41802 5.43929 9.41802 5.98539V11.6465C9.41802 12.1493 9.37477 12.4683 9.28285 12.6035C9.12064 12.8468 8.8557 12.9658 8.48803 12.9658H8.1582V13.2037H8.19065H14.9818L15.7333 10.8246L15.5225 10.7813C15.5225 10.7813 15.5225 10.7868 15.5171 10.7868L15.4954 10.7813C15.7117 10.657 15.9118 10.5002 16.101 10.3055C16.5984 9.78106 16.8526 9.12682 16.8526 8.332C16.8526 7.56421 16.6039 6.92079 16.1064 6.40713C15.609 5.89347 15.025 5.63934 14.3492 5.63934C13.6679 5.63934 13.0839 5.86643 12.5919 6.32062C12.0296 6.84509 11.7484 7.52096 11.7484 8.34822C11.7484 9.15926 11.9917 9.81891 12.4784 10.3272C12.965 10.8354 13.5706 11.0895 14.2843 11.0895C14.7222 11.0895 15.1223 10.9868 15.4792 10.7868C15.2575 11.3274 15.0358 11.7222 14.8087 11.9709C14.5871 12.225 14.3383 12.398 14.0626 12.5008C13.7922 12.5981 13.3164 12.6521 12.646 12.6521H12.035C11.4727 12.6521 11.1374 12.6305 11.0293 12.5873C10.9212 12.544 10.84 12.4791 10.7914 12.3872C10.7211 12.252 10.6887 12.0087 10.6887 11.6519V6.13678C10.6887 5.61771 10.7211 5.28248 10.7914 5.14731C10.8617 5.00673 10.986 4.89318 11.1753 4.80667C11.3483 4.72016 11.6457 4.67691 12.062 4.67691C12.0836 4.67691 12.0999 4.67691 12.1215 4.67691C12.1323 4.67691 12.1431 4.67691 12.1539 4.67691V4.439H12.1215H8.1582V4.43359ZM14.2789 10.8138C13.8193 10.8138 13.4516 10.6408 13.1704 10.2893C12.8082 9.82972 12.6243 9.17548 12.6243 8.32659C12.6243 7.49392 12.7974 6.86672 13.1488 6.43416C13.43 6.08812 13.8031 5.9151 14.2735 5.9151C14.7709 5.9151 15.1602 6.08812 15.4414 6.43957C15.7928 6.87753 15.9658 7.54259 15.9658 8.43473C15.9658 9.25659 15.809 9.85676 15.49 10.2407C15.171 10.6245 14.7709 10.8138 14.2789 10.8138Z" fill="white"/>
<path d="M7.73237 10.6408C7.63504 10.7651 7.47824 10.83 7.26196 10.83H7.07812V10.9706H9.31119V10.83H9.12195C8.99759 10.83 8.88404 10.7976 8.7705 10.7381C8.68939 10.6894 8.63532 10.6354 8.60829 10.5705C8.57585 10.484 8.55963 10.3109 8.55963 10.046V6.67748C8.55963 6.36388 8.59207 6.16923 8.65695 6.08812C8.75428 5.96376 8.91108 5.89888 9.12195 5.89888H9.31119V5.7583H7.07812V5.89888H7.26196C7.38632 5.89888 7.50527 5.93132 7.61341 5.9908C7.69452 6.03946 7.74318 6.09353 7.77021 6.15841C7.80266 6.24493 7.81888 6.41795 7.81888 6.68289V10.0514C7.82428 10.3596 7.79725 10.5543 7.73237 10.6408Z" fill="white"/>
</g>
<defs>
<clipPath id="clip0_6194_139372">
<rect width="22.9957" height="19" fill="white" transform="translate(0 0.859375)"/>
</clipPath>
</defs>
</svg>
