<svg width="23" height="24" viewBox="0 0 23 24" fill="none" xmlns="http://www.w3.org/2000/svg">
<g clip-path="url(#clip0_6194_139408)">
<path d="M4.00586 12.3714C4.00586 16.9226 7.60012 20.6374 12.057 20.6374C16.4899 20.6374 20.1082 16.9226 20.1082 12.3714C20.1082 7.82023 16.4899 4.10547 12.057 4.10547C7.60012 4.10547 4.00586 7.82023 4.00586 12.3714ZM4.22151 12.3714C4.22151 7.94323 7.71993 4.32688 12.057 4.32688C16.3701 4.32688 19.8685 7.94323 19.8685 12.3714C19.8685 16.7996 16.3701 20.416 12.057 20.416C7.71993 20.416 4.22151 16.7996 4.22151 12.3714Z" fill="white"/>
<path fill-rule="evenodd" clip-rule="evenodd" d="M5.20312 5.63086C5.20312 6.12288 5.20312 6.5903 5.20312 7.05772C5.20312 8.06636 5.20312 9.07501 5.20312 10.0837C5.20312 10.9693 5.20312 11.8795 5.20312 12.7898C5.20312 13.0112 5.20312 13.208 5.20312 13.4294C5.20312 13.9952 5.27501 14.5364 5.41878 15.0777C5.68236 16.0863 6.25744 17.0212 7.00026 17.7592C7.67119 18.448 8.46192 18.9892 9.30058 19.4321C9.94755 19.7765 10.5945 20.0471 11.2894 20.2685C11.4571 20.3423 11.6488 20.3915 11.8166 20.4407C11.8645 20.4407 11.9124 20.4653 11.9603 20.4653C12.3437 20.3915 12.7271 20.2931 13.1105 20.1701C13.8294 19.9487 14.5482 19.6535 15.2191 19.2599C16.0578 18.817 16.8006 18.202 17.4236 17.464C18.1185 16.6275 18.5738 15.5943 18.7655 14.5118C18.9092 13.7738 18.8853 13.0358 18.9092 12.2731C18.9092 11.2891 18.9092 10.2805 18.9332 9.27182C18.9332 8.33698 18.9332 7.40214 18.9572 6.44269C18.9572 6.17208 18.9572 5.90147 18.9572 5.63086C18.6936 5.63086 18.43 5.63086 18.1664 5.63086C17.4955 5.63086 16.8006 5.63086 16.1297 5.63086C15.1952 5.63086 14.2846 5.63086 13.3741 5.63086C12.3677 5.63086 11.3853 5.63086 10.3789 5.63086C9.46832 5.63086 8.58173 5.63086 7.69515 5.63086C7.04818 5.63086 6.42518 5.63086 5.80217 5.63086C5.58651 5.63086 5.39482 5.63086 5.20312 5.63086ZM14.4284 18.5464C14.4044 18.5464 14.3805 18.571 14.3326 18.571C14.3086 18.571 14.2607 18.571 14.2127 18.571C14.0929 18.6202 13.9971 18.6694 13.9012 18.7186C13.8054 18.7432 13.7335 18.817 13.6616 18.8416C13.5658 18.8662 13.4699 18.8908 13.3741 18.9154C13.2064 18.9646 13.0626 19.0138 12.8948 19.0138C12.7271 19.0138 12.5115 18.9892 12.3677 18.9154C12.2958 18.8908 12.2239 18.8416 12.1281 18.817C11.9603 18.7186 11.7686 18.6202 11.6009 18.5218C11.529 18.4726 11.4571 18.3988 11.4092 18.3004C11.3613 18.2758 11.3373 18.2266 11.2894 18.1774C11.2415 18.1528 11.1936 18.079 11.1456 18.079C11.0738 18.079 11.0019 18.079 10.93 18.079C10.906 18.079 10.8821 18.0298 10.8821 18.0052C10.8581 17.9806 10.8341 17.9806 10.8102 17.956C10.7862 17.9314 10.7623 17.9068 10.7383 17.9068C10.6904 17.8822 10.6904 17.8576 10.6664 17.8822C10.7143 17.956 10.7623 18.0052 10.8102 18.079C10.8341 18.1282 10.8102 18.1774 10.8581 18.1774C10.906 18.1774 10.9779 18.1528 11.0258 18.1528C11.2175 18.1774 11.3134 18.3742 11.3853 18.5464C11.4092 18.6202 11.4332 18.7432 11.4332 18.817C11.4332 18.8662 11.4332 18.9154 11.4332 18.94C11.4092 18.9892 11.3853 19.0384 11.3853 19.063C11.3853 19.0876 11.3613 19.1614 11.3373 19.1614C11.2894 19.186 11.2415 19.2106 11.1936 19.2106C11.1217 19.2352 11.0258 19.2106 10.9539 19.186C10.8581 19.1614 10.7862 19.1122 10.7143 19.0384C10.6904 19.0384 10.6185 18.9892 10.5945 18.9646C10.5706 18.9154 10.5466 18.8662 10.5226 18.7924C10.5226 18.7678 10.5226 18.7186 10.5226 18.694C10.5226 18.6448 10.4987 18.571 10.4987 18.5464C10.5466 18.4234 10.5706 18.3496 10.6424 18.2758C10.6664 18.325 10.6904 18.3742 10.7143 18.4234C10.7383 18.4726 10.7623 18.4972 10.8102 18.448C10.8581 18.3988 10.7862 18.3496 10.7623 18.325C10.7383 18.3004 10.7383 18.2758 10.7383 18.2512C10.7383 18.2266 10.7383 18.202 10.7143 18.1774C10.6664 18.1282 10.6424 18.1036 10.5945 18.0544C10.5706 18.0298 10.4987 17.9806 10.4987 17.956C10.4987 17.9314 10.4747 17.8084 10.4268 17.8822C10.3789 17.9314 10.4268 17.956 10.4507 18.0298C10.3549 18.0298 10.283 17.9806 10.1872 17.956C10.1153 17.9314 10.0434 17.9068 9.94755 17.8822C9.80378 17.833 9.66001 17.7592 9.51624 17.71C9.34851 17.6362 9.18078 17.587 9.01304 17.5378C8.98908 17.5132 8.96512 17.5132 8.9172 17.5132C8.89324 17.5132 8.82135 17.4886 8.77343 17.5132C8.74946 17.5132 8.70154 17.5378 8.67758 17.5378C8.62966 17.5378 8.58173 17.5378 8.55777 17.4886C8.414 17.3902 8.414 17.218 8.31815 17.0704C8.22231 16.9474 8.1025 16.7997 7.95873 16.7259C7.9108 16.7013 7.81496 16.6275 7.79099 16.5783C7.79099 16.5291 7.76703 16.4799 7.81496 16.4799C7.88684 16.4799 7.88684 16.4799 7.93477 16.5537C7.98269 16.5783 8.07853 16.5783 8.12646 16.6029C8.19834 16.6521 8.29419 16.7013 8.36608 16.7505C8.50985 16.8243 8.62966 16.9474 8.77343 17.0458C8.89323 17.1442 9.03701 17.218 9.20474 17.2918C9.34851 17.341 9.46832 17.464 9.63605 17.4886C9.70793 17.4886 9.80378 17.5132 9.87567 17.5624C9.92359 17.587 9.94755 17.587 9.97151 17.5624C9.99548 17.5132 10.0194 17.4886 10.0194 17.4394C10.0434 17.4394 10.0434 17.4148 10.0674 17.3902L10.0434 17.3656C10.0194 17.341 9.99548 17.2672 9.99548 17.2426C10.0194 17.1934 10.0434 17.1688 10.0674 17.1196C10.0913 17.095 10.1153 17.0704 10.1392 17.0212C10.1872 16.972 10.2591 16.9227 10.3309 16.8981C10.4028 16.8735 10.4747 16.8489 10.5466 16.8489C10.6185 16.8489 10.7383 16.8243 10.7862 16.8489C10.8341 16.8735 10.8581 16.8981 10.906 16.8981C10.93 16.8981 11.0019 16.8981 11.0258 16.8981C11.0738 16.972 11.0977 17.0458 11.0738 17.1196C11.0498 17.218 11.0258 17.2918 10.9539 17.3656C10.93 17.4148 10.93 17.464 10.906 17.4886C10.8581 17.5132 10.8102 17.5378 10.7623 17.5624C10.6664 17.6116 10.5706 17.6362 10.4747 17.6362C10.4268 17.6362 10.3789 17.6362 10.3309 17.6362C10.307 17.6116 10.2111 17.6116 10.2111 17.587C10.1872 17.5378 10.2591 17.5132 10.283 17.464C10.307 17.4394 10.2591 17.3656 10.2351 17.341L10.2111 17.3656C10.2111 17.3902 10.2111 17.4148 10.2111 17.4148C10.1872 17.464 10.1392 17.4886 10.1153 17.5132L10.0913 17.5378C10.0913 17.5624 10.1153 17.587 10.0913 17.6116C10.0913 17.6362 10.0434 17.6608 10.0434 17.6854C10.1153 17.7346 10.1872 17.6854 10.2591 17.71C10.283 17.71 10.3309 17.7346 10.3549 17.7346C10.4268 17.7346 10.4747 17.7592 10.5226 17.7592C10.5706 17.7592 10.6185 17.7592 10.6664 17.7592C10.6904 17.7592 10.7143 17.71 10.7623 17.71C10.8341 17.71 10.906 17.6608 10.9779 17.6362C11.0019 17.6116 11.0498 17.6116 11.0738 17.587C11.0977 17.5378 11.1217 17.5132 11.1456 17.4886C11.2175 17.4148 11.2654 17.341 11.3134 17.2918C11.4332 17.1934 11.577 17.095 11.6968 16.9966C11.8645 16.8982 12.0083 16.8243 12.176 16.7505C12.2479 16.7259 12.3437 16.7259 12.4156 16.7259C12.4875 16.7259 12.5833 16.7259 12.6552 16.7013C12.823 16.7013 12.9667 16.6767 13.1345 16.7013C13.2303 16.7259 13.3262 16.7259 13.422 16.7505C13.4939 16.7751 13.5658 16.7751 13.6616 16.7751C13.7575 16.7751 13.8294 16.7751 13.9012 16.7751C13.9971 16.7751 14.069 16.7505 14.1409 16.7505C14.2127 16.7505 14.3086 16.7505 14.3805 16.7751C14.4044 16.7997 14.5961 16.8489 14.5003 16.8981C14.4284 16.9473 14.3565 16.972 14.2607 16.9966C14.1888 16.9966 14.1169 17.0458 14.045 17.095C13.9731 17.1442 13.9252 17.1934 13.8533 17.218C13.7814 17.2672 13.7095 17.2918 13.6137 17.3164C13.4699 17.3656 13.3262 17.4394 13.1584 17.464C13.0865 17.4886 12.9907 17.5132 12.9188 17.5378C12.8709 17.5624 12.823 17.5378 12.799 17.5378C12.7511 17.5378 12.7271 17.5624 12.6792 17.587C12.6313 17.587 12.5833 17.587 12.5594 17.587C12.5115 17.6116 12.4635 17.6116 12.4396 17.6362C12.3437 17.6362 12.2718 17.6608 12.176 17.6608C12.0322 17.71 11.8645 17.71 11.6968 17.7346C11.6249 17.7346 11.553 17.7346 11.4571 17.7346C11.4332 17.7346 11.3853 17.7346 11.3613 17.7346C11.3134 17.7346 11.2894 17.7346 11.2415 17.7346C11.1456 17.71 11.0977 17.7592 11.0258 17.7838C10.9779 17.8084 10.9539 17.833 10.93 17.833C10.8821 17.8576 11.0019 17.9068 11.0019 17.9068C11.0738 17.9314 11.1696 17.9314 11.2654 17.9314C11.2894 17.9314 11.3134 17.9314 11.3613 17.9068C11.3853 17.8822 11.4092 17.8822 11.4811 17.8576C11.6249 17.833 11.7926 17.8576 11.9364 17.8576C12.0322 17.8822 12.1041 17.8822 12.2 17.9068C12.2718 17.956 12.3437 17.9806 12.4396 18.0052C12.5833 18.0544 12.7032 18.1282 12.8469 18.202C12.9428 18.2266 13.0147 18.2512 13.1105 18.2512C13.1824 18.2758 13.2303 18.3004 13.3022 18.325C13.446 18.3742 13.6137 18.4234 13.7814 18.4234C13.8294 18.4234 13.9012 18.4234 13.9492 18.4234C14.021 18.4234 14.069 18.3742 14.1169 18.3988C14.1648 18.3988 14.2127 18.3988 14.2607 18.3988C14.3086 18.3988 14.3326 18.4234 14.3565 18.448C14.4284 18.4726 14.4524 18.4726 14.4284 18.5464ZM15.6744 17.2426C15.6504 17.2672 15.6504 17.2918 15.6265 17.2918C15.6025 17.2918 15.5546 17.2918 15.5306 17.2918C15.5306 17.2918 15.4827 17.341 15.4588 17.341C15.3869 17.4148 15.315 17.4886 15.2431 17.5624C15.1233 17.6362 15.0274 17.7592 14.9076 17.833C14.8357 17.8822 14.7639 17.9314 14.7159 17.9806C14.6441 18.0052 14.5482 18.079 14.4763 18.1036C14.3086 18.1528 14.1409 18.202 13.9731 18.2266C13.8294 18.2266 13.6616 18.2266 13.4939 18.202C13.3741 18.202 13.2543 18.1528 13.1345 18.1282C13.0147 18.079 12.8948 18.0544 12.775 18.0052C12.6313 17.956 12.5115 17.8822 12.3917 17.833C12.5594 17.8576 12.7032 17.8822 12.8709 17.8822C13.0386 17.8822 13.2303 17.8822 13.398 17.8822C13.4699 17.8822 13.5658 17.8576 13.6377 17.8576C13.7095 17.8576 13.7814 17.833 13.8773 17.8084C14.021 17.7592 14.2127 17.7592 14.3326 17.6608C14.2607 17.6608 14.2127 17.6608 14.1409 17.6854C14.1169 17.71 14.0929 17.6854 14.045 17.6854C14.021 17.6854 13.9971 17.71 13.9492 17.71C13.9012 17.71 13.8773 17.6854 13.8294 17.6854C13.8054 17.6854 13.7814 17.71 13.7335 17.71C13.6616 17.7346 13.5658 17.7346 13.4939 17.7592C13.3501 17.7838 13.2303 17.7838 13.1105 17.7838C13.0386 17.7838 12.9667 17.7838 12.8948 17.7838C12.8469 17.7838 12.7511 17.8084 12.7032 17.7592C12.775 17.7346 12.823 17.71 12.8948 17.71C12.9907 17.6854 13.0626 17.6854 13.1345 17.6608C13.3022 17.6116 13.4699 17.5624 13.6137 17.4886C13.7575 17.4394 13.9252 17.3656 14.0929 17.3164C14.1648 17.3164 14.2367 17.3164 14.3086 17.3164C14.4044 17.3164 14.5242 17.3164 14.6441 17.3164C14.8118 17.3164 14.9556 17.218 15.1233 17.1688C15.2431 17.1442 15.315 17.1196 15.4348 17.1196C15.4827 17.1196 15.5306 17.1196 15.5786 17.1196C15.6025 17.1196 15.6025 17.1196 15.6265 17.1442C15.6504 17.1442 15.6984 17.218 15.6744 17.2426ZM14.7399 15.7173C13.9252 15.7173 13.1105 15.4467 12.4396 14.9793C12.3677 14.9301 12.2958 14.8563 12.2239 14.8071C12.176 14.7825 12.152 14.7333 12.1041 14.7087C12.0801 14.6841 12.0801 14.6595 12.0562 14.6841C12.0322 14.7087 12.0083 14.7333 11.9843 14.7579C11.8405 14.8809 11.6728 15.0039 11.5051 15.1023C11.1696 15.3237 10.7862 15.4713 10.4028 15.5943C9.01304 15.9387 7.52742 15.4959 6.52102 14.4626C5.56255 13.4294 5.17916 11.9779 5.49067 10.6003C5.80217 9.27182 6.7846 8.14017 8.05457 7.67275C8.7255 7.42674 9.49228 7.35293 10.2111 7.50054C10.5945 7.59894 10.9779 7.74655 11.3373 7.94336C11.5051 8.01716 11.6728 8.14017 11.8405 8.26317C11.9124 8.31238 11.9843 8.38618 12.0562 8.43538C12.0801 8.45998 12.0801 8.45998 12.1041 8.43538C12.1281 8.41078 12.152 8.38618 12.176 8.38618C12.2 8.33698 12.2479 8.31238 12.2958 8.28777C13.5179 7.32833 15.1952 7.15613 16.561 7.86956C17.7591 8.48458 18.5977 9.71464 18.7415 11.0923C18.8853 12.4946 18.3342 13.8968 17.2798 14.7825C16.561 15.3729 15.6504 15.7173 14.7399 15.7173Z" fill="white"/>
<path fill-rule="evenodd" clip-rule="evenodd" d="M13.3028 18.6201C13.183 18.6201 13.0872 18.5955 12.9913 18.5709C12.8715 18.5463 12.7757 18.4971 12.6559 18.4725C12.4642 18.4233 12.2725 18.3248 12.0808 18.251C11.937 18.1772 11.7693 18.1772 11.6016 18.1772C11.6255 18.2264 11.7933 18.251 11.8412 18.251C11.8891 18.2756 11.961 18.3249 12.0329 18.3495C12.1766 18.4233 12.3204 18.5217 12.4642 18.5955C12.5361 18.6201 12.6319 18.6693 12.7038 18.6939C12.7996 18.6939 12.8715 18.7185 12.9434 18.7185C13.0393 18.7185 13.183 18.7431 13.2789 18.7185C13.3508 18.6693 13.4466 18.6693 13.5185 18.6693C13.5425 18.6693 13.5425 18.6201 13.5425 18.6201C13.4466 18.6201 13.3747 18.6201 13.3028 18.6201Z" fill="white"/>
<path fill-rule="evenodd" clip-rule="evenodd" d="M8.46333 16.9472C8.4154 16.9226 8.36748 16.8488 8.31956 16.8242C8.2956 16.8734 8.41541 16.9472 8.43937 16.9718C8.46333 16.9964 8.58314 17.1194 8.55918 17.1932C8.53521 17.1686 8.51125 17.1686 8.51125 17.1932C8.51125 17.2178 8.53521 17.267 8.53521 17.2916C8.53521 17.3162 8.55918 17.3408 8.55918 17.3654C8.6071 17.4146 8.65502 17.39 8.67898 17.3408C8.67898 17.267 8.65502 17.1686 8.6071 17.0948C8.58314 17.0456 8.51125 16.9964 8.46333 16.9472Z" fill="white"/>
<path fill-rule="evenodd" clip-rule="evenodd" d="M11.3624 17.5621C11.5301 17.5129 11.6739 17.4637 11.8176 17.4145C11.9854 17.3653 12.1531 17.3407 12.2969 17.3161C12.4646 17.2669 12.6323 17.2423 12.8001 17.2423C12.872 17.2423 12.9678 17.2177 13.0397 17.2177C13.1116 17.1931 13.1835 17.1439 13.2314 17.1193C13.3272 17.0701 13.3991 17.0701 13.495 17.0455C13.5669 17.0209 13.6627 17.0455 13.7106 17.0209C13.7346 17.0209 13.7586 17.0209 13.7586 16.9963C13.7586 16.9717 13.7586 16.9717 13.7346 16.9717C13.6867 16.9717 13.6387 16.9717 13.5908 16.9717C13.5189 16.9717 13.447 16.9963 13.3752 16.9963C13.2074 17.0209 13.0397 17.0209 12.872 17.0455C12.7282 17.0701 12.5605 17.0701 12.4167 17.1193C12.249 17.1685 12.0333 17.2177 11.8656 17.2915C11.6739 17.3653 11.5061 17.4637 11.3145 17.5375C11.3384 17.5621 11.3624 17.5621 11.3624 17.5621Z" fill="white"/>
<path d="M5.29883 11.5598C5.29883 13.8969 7.14388 15.7912 9.42025 15.7912C10.4266 15.7912 11.3851 15.4222 12.1279 14.7333C13.0145 13.9461 13.5417 12.7899 13.5417 11.5598C13.5417 10.3544 13.0145 9.19811 12.1279 8.38627C11.3851 7.72204 10.4266 7.35303 9.42025 7.35303C7.14388 7.35303 5.29883 9.24731 5.29883 11.5598ZM5.46656 11.5598C5.46656 9.34571 7.23973 7.52524 9.42025 7.52524C10.3787 7.52524 11.3132 7.86965 12.0321 8.53388C12.8707 9.29651 13.3739 10.4036 13.3739 11.5598C13.3739 12.7407 12.8707 13.8477 12.0321 14.6103C11.3132 15.2746 10.3787 15.619 9.42025 15.619C7.23973 15.619 5.46656 13.7985 5.46656 11.5598Z" fill="white"/>
<path d="M7.52725 8.73073C7.57517 8.68153 7.59913 8.65692 7.67102 8.63232C7.69498 8.63232 7.71894 8.65692 7.71894 8.65692C7.69498 8.70613 7.67102 8.70613 7.67102 8.73073C7.64706 8.80453 7.62309 8.85373 7.57517 8.92753C7.55121 8.95214 7.59913 8.95214 7.55121 8.97674C7.52725 8.97674 7.50329 9.00134 7.47933 9.00134C7.45536 9.02594 7.4314 9.02594 7.40744 9.02594C7.38348 9.02594 7.35952 9.00134 7.33556 9.00134C7.31159 9.00134 7.26367 9.02594 7.26367 8.97674C7.26367 8.95214 7.28763 8.92753 7.31159 8.90293C7.35952 8.85373 7.40744 8.90293 7.47933 8.87833C7.52725 8.85373 7.50329 8.77993 7.52725 8.73073Z" fill="white"/>
<path d="M7.19352 9.00091C7.21748 8.97631 7.24144 9.00091 7.21748 9.02551C7.19352 9.02551 7.16956 9.00091 7.19352 9.00091Z" fill="white"/>
<path d="M12.0817 8.60763C12.0098 8.55843 11.9619 8.50923 11.89 8.48462C11.8181 8.43542 11.7702 8.36162 11.6983 8.31242C11.6743 8.28782 11.6504 8.26321 11.6024 8.23861C11.5785 8.21401 11.5545 8.21401 11.5066 8.18941C11.4347 8.11561 11.3868 8.09101 11.2909 8.06641C11.267 8.06641 11.243 8.06641 11.1951 8.06641C11.1472 8.06641 11.1232 8.06641 11.0753 8.11561H11.0274C11.0034 8.11561 11.0034 8.16481 11.0034 8.16481C10.9794 8.18941 10.9794 8.23861 10.9555 8.26321C10.9315 8.31242 10.9076 8.33702 10.8836 8.33702C10.8357 8.33702 10.7877 8.33702 10.7398 8.33702C10.7159 8.36162 10.6679 8.36162 10.62 8.36162C10.5961 8.36162 10.5481 8.38622 10.5242 8.38622C10.4762 8.41082 10.4283 8.41082 10.3804 8.41082C10.3564 8.41082 10.3085 8.41082 10.2606 8.38622C10.2127 8.38622 10.1887 8.38622 10.1647 8.43542C10.1408 8.46002 10.1168 8.48462 10.0689 8.50922C9.99701 8.55843 9.92512 8.60763 9.82928 8.63223C9.80532 8.65683 9.75739 8.68143 9.73343 8.70603C9.66154 8.73063 9.73343 8.73063 9.70947 8.80444C9.68551 8.77984 9.66154 8.77984 9.63758 8.73064C9.63758 8.73064 9.61362 8.65683 9.58966 8.68143C9.5657 8.68143 9.54174 8.68143 9.51778 8.70603C9.49381 8.75523 9.49381 8.75524 9.44589 8.73064C9.37401 8.73064 9.32608 8.75523 9.2542 8.75523C9.20627 8.75523 9.13439 8.70603 9.11043 8.73064C9.0625 8.75524 9.0625 8.75523 9.01458 8.75523C9.01458 8.73063 9.01458 8.68143 8.99062 8.65683C8.96665 8.63223 8.94269 8.60763 8.94269 8.55843C8.89477 8.48462 8.84685 8.46002 8.751 8.46002C8.70307 8.46002 8.67912 8.46002 8.65515 8.43542C8.63119 8.41082 8.5593 8.38622 8.53534 8.41082C8.51138 8.43542 8.48742 8.46002 8.46346 8.48462C8.4395 8.48462 8.4395 8.50922 8.41554 8.50922C8.41554 8.53382 8.39157 8.53383 8.36761 8.53383C8.31969 8.53383 8.31969 8.58303 8.27176 8.58303C8.22384 8.58303 8.19988 8.58303 8.15196 8.60763C8.10403 8.60763 8.08007 8.60763 8.03215 8.60763C7.98422 8.60763 7.98422 8.65683 7.9363 8.68143C7.91234 8.70603 7.91234 8.73063 7.91234 8.77984C7.91234 8.82904 7.98422 8.80444 8.00819 8.80444C8.03215 8.80444 8.03215 8.80444 8.03215 8.82904C8.03215 8.85364 8.03215 8.87824 8.03215 8.87824C8.03215 8.92744 7.98422 8.95204 7.98422 8.97665C7.98422 9.05045 8.17592 9.00125 8.19988 8.97665C8.19988 8.97665 8.19988 8.95204 8.22384 8.92744C8.22384 8.90284 8.2478 8.90284 8.27176 8.90284C8.29573 8.87824 8.31969 8.82904 8.34365 8.80444C8.36761 8.75523 8.46346 8.68143 8.51138 8.65683C8.53534 8.65683 8.60723 8.65683 8.60723 8.68143C8.60723 8.70603 8.60723 8.75523 8.55931 8.77984C8.53534 8.80444 8.48742 8.75523 8.46346 8.77984C8.4395 8.80444 8.39157 8.80444 8.36761 8.85364C8.36761 8.87824 8.34365 8.87824 8.36761 8.90284L8.39157 8.92744C8.41554 8.92744 8.46346 8.95204 8.48742 8.92744C8.53534 8.92744 8.58327 8.90284 8.60723 8.90284C8.65515 8.90284 8.70308 8.90284 8.65515 8.95204C8.63119 9.02585 8.51138 8.97665 8.46346 9.00125C8.41554 9.02585 8.36761 9.02585 8.31969 9.05045C8.29573 9.05045 8.2478 9.02585 8.22384 9.07505C8.19988 9.09965 8.15196 9.12425 8.12799 9.14885C8.10403 9.17345 8.03215 9.12425 8.03215 9.12425C7.9363 9.07505 8.03215 8.95204 7.96026 8.90284C7.96026 8.87824 7.88838 8.90284 7.86441 8.90284C7.81649 8.90284 7.79253 8.90284 7.74461 8.92744C7.69668 8.97664 7.6248 9.02585 7.55291 9.05045C7.50499 9.05045 7.48103 9.07505 7.4331 9.07505C7.4331 9.09965 7.36122 9.07505 7.33726 9.07505C7.28933 9.07505 7.26537 9.07505 7.21745 9.07505C7.16952 9.07505 7.16952 9.09965 7.14556 9.14885C7.1216 9.17345 7.09764 9.22266 7.07368 9.24726C7.04972 9.27186 7.04972 9.32106 7.00179 9.34566C6.97783 9.37026 6.95387 9.29646 6.92991 9.29646C6.90595 9.27186 6.83406 9.32106 6.8101 9.27186C6.78614 9.24726 6.76217 9.22266 6.73821 9.27186C6.69029 9.29646 6.66633 9.32106 6.66633 9.37026C6.66633 9.41946 6.64237 9.41946 6.6184 9.44407C6.59444 9.46867 6.54652 9.49327 6.57048 9.54247C6.59444 9.59167 6.59444 9.61627 6.59444 9.66547C6.59444 9.71468 6.66633 9.69008 6.69029 9.69008C6.73821 9.69008 6.8101 9.71468 6.85802 9.71468C6.92991 9.71468 6.90595 9.71468 6.95387 9.66547C6.95387 9.64087 6.97783 9.64087 6.97783 9.61627C7.00179 9.59167 6.97783 9.59167 7.00179 9.56707C7.02575 9.56707 7.09764 9.56707 7.1216 9.59167C7.1216 9.61627 7.19349 9.61627 7.21745 9.61627C7.24141 9.59167 7.28933 9.59167 7.31329 9.61627C7.36122 9.64087 7.36122 9.66548 7.38518 9.71468C7.40914 9.73928 7.38518 9.78848 7.38518 9.81308C7.40914 9.86228 7.40914 9.86228 7.4331 9.88688C7.4331 9.91148 7.45706 9.93609 7.45706 9.96069C7.45706 10.0099 7.45707 10.0099 7.40914 10.0345C7.40914 10.0591 7.40914 10.0837 7.40914 10.1083C7.48103 10.1083 7.50499 10.0837 7.55291 10.0345C7.55291 10.0591 7.55291 10.0837 7.55291 10.1083C7.6248 10.0345 7.6248 9.98529 7.6248 9.88688C7.6248 9.86228 7.57687 9.83768 7.57687 9.81308C7.57687 9.78848 7.57687 9.76388 7.57687 9.73928C7.57687 9.71468 7.57687 9.71468 7.60084 9.71468C7.69668 9.71468 7.67272 9.81308 7.67272 9.88688C7.67272 9.96069 7.67272 10.0345 7.67272 10.1083C7.72064 10.1083 7.81649 10.1083 7.84045 10.0591C7.84045 10.0345 7.81649 9.98529 7.81649 9.96069C7.81649 9.93609 7.86441 9.93609 7.88838 9.93609C7.86441 9.98529 7.86441 10.0099 7.86441 10.0591C7.86441 10.0837 7.84045 10.0837 7.86441 10.1083V10.1575C7.88838 10.1821 7.9363 10.1821 7.96026 10.2067C7.98422 10.2313 7.98422 10.2313 7.98422 10.2559C7.98422 10.3051 8.00818 10.2805 8.03215 10.2805C8.05611 10.2805 8.10403 10.3543 8.08007 10.3543C8.08007 10.4035 8.05611 10.4527 8.03215 10.4527C8.00818 10.4527 7.9363 10.4527 7.91234 10.4281C7.88838 10.4281 7.84045 10.4035 7.79253 10.3789C7.76857 10.3543 7.76857 10.3297 7.72064 10.3051C7.67272 10.3051 7.64876 10.3051 7.60084 10.3051H7.50499C7.48103 10.2559 7.48103 10.2313 7.4331 10.2067C7.40914 10.1575 7.26537 10.1575 7.26537 10.0837C7.26537 10.0591 7.26537 10.0345 7.26537 10.0099H7.31329C7.33726 10.0591 7.33726 10.0837 7.36122 10.1083C7.40914 10.0837 7.38518 10.0591 7.38518 10.0345C7.36122 10.0099 7.36122 10.0099 7.33726 9.98529C7.31329 9.96069 7.33726 9.96069 7.28933 9.96069C7.26537 9.96069 7.28933 9.98529 7.26537 9.96069C7.24141 9.96069 7.24141 9.93609 7.21745 9.93609C7.21745 9.88688 7.21745 9.91148 7.19349 9.88688C7.16952 9.88688 7.16952 9.86228 7.14556 9.86228C7.1216 9.83768 7.07368 9.83768 7.04972 9.83768C7.00179 9.83768 6.95387 9.83768 6.88198 9.83768C6.85802 9.83768 6.8101 9.83768 6.78614 9.83768C6.73821 9.81308 6.71425 9.78848 6.66633 9.76388C6.64237 9.76388 6.59444 9.71468 6.59444 9.71468C6.57048 9.73928 6.54652 9.76388 6.52256 9.76388C6.45067 9.83768 6.35483 9.91148 6.25898 9.96069C6.13917 10.0591 5.9954 10.1329 5.89955 10.2559C5.82767 10.3297 5.75578 10.4281 5.70786 10.5019C5.65993 10.5511 5.65993 10.6495 5.65993 10.6987C5.63597 10.7971 5.63597 10.8709 5.61201 10.9693C5.61201 11.0185 5.58805 11.0431 5.58805 11.0923C5.56409 11.1169 5.58805 11.1661 5.61201 11.1907C5.63597 11.2645 5.65993 11.3629 5.6839 11.4368C5.70786 11.486 5.73182 11.5352 5.75578 11.5844C5.75578 11.609 5.75578 11.6582 5.75578 11.6828C5.75578 11.7566 5.75578 11.7566 5.80371 11.7812C5.82767 11.8304 5.85163 11.8058 5.89955 11.8058C5.97144 11.7812 5.97144 11.7812 6.01936 11.8304C6.04332 11.855 6.06728 11.855 6.11521 11.855C6.16313 11.855 6.33086 11.8304 6.35483 11.855C6.37879 11.8796 6.40275 11.9288 6.42671 11.9534C6.47463 11.9534 6.54652 11.978 6.54652 12.0026C6.57048 12.0272 6.54652 12.1256 6.54652 12.1502C6.54652 12.1994 6.54652 12.1994 6.57048 12.2486C6.6184 12.3224 6.64237 12.4208 6.66633 12.4946C6.69029 12.5684 6.76217 12.6422 6.76217 12.716C6.76217 12.7652 6.76217 12.7898 6.76217 12.839C6.76217 12.8882 6.73821 12.9374 6.71425 12.962C6.71425 13.0112 6.71425 13.0112 6.73821 13.0604C6.76217 13.1096 6.78614 13.1588 6.83406 13.208C6.85802 13.2572 6.88198 13.331 6.90595 13.3802C6.97783 13.5524 7.02576 13.7246 7.1216 13.8969C7.14556 13.9707 7.19349 14.0445 7.21745 14.1183C7.24141 14.1429 7.28933 14.1675 7.31329 14.1675C7.33726 14.1675 7.38518 14.1183 7.40914 14.0937C7.48103 14.0445 7.57687 14.0199 7.64876 13.9707C7.72064 13.9461 7.72064 13.8231 7.74461 13.7493C7.74461 13.7247 7.76857 13.7246 7.79253 13.7C7.86442 13.6754 7.91234 13.6016 7.86441 13.5278C7.86441 13.5278 7.84045 13.5032 7.84045 13.4786C7.84045 13.454 7.84045 13.4048 7.84045 13.3802C7.84045 13.2818 7.88838 13.2818 7.9363 13.2326C8.00819 13.1588 8.00819 13.1096 8.00819 13.0358C8.00819 12.9128 8.00819 12.8144 8.00819 12.716C8.00819 12.6914 7.88838 12.5684 7.91234 12.5438C7.98422 12.47 8.03215 12.4208 8.08007 12.3716C8.19988 12.2486 8.31969 12.1256 8.4395 11.978C8.48742 11.9288 8.51138 11.8304 8.53534 11.7566C8.53534 11.7074 8.55931 11.6828 8.58327 11.6336C8.58327 11.6336 8.65515 11.5598 8.60723 11.5352C8.53534 11.5106 8.41553 11.5844 8.34365 11.6336C8.31969 11.6336 8.2478 11.609 8.22384 11.609C8.15196 11.5598 8.15196 11.4614 8.10403 11.4122C8.08007 11.3876 8.05611 11.3383 8.03215 11.3137C8.00818 11.3137 7.98422 11.3383 7.98422 11.3137C7.96026 11.3137 7.98422 11.2645 7.98422 11.2399C7.98422 11.1661 7.9363 11.0923 7.91234 11.0185C7.88838 10.9693 7.88838 10.9447 7.86441 10.9201C7.84045 10.8709 7.84045 10.8217 7.84045 10.7971C7.84045 10.7479 7.84045 10.7233 7.84045 10.6741C7.84045 10.6495 7.91234 10.6003 7.91234 10.6249C7.96026 10.6741 7.96026 10.7971 7.98422 10.8463C8.00819 10.9447 8.03215 11.0185 8.08007 11.0923C8.08007 11.1415 8.12799 11.1415 8.15196 11.1661C8.19988 11.1907 8.17592 11.2399 8.19988 11.2645C8.19988 11.3383 8.19988 11.3875 8.22384 11.4368C8.2478 11.5106 8.27176 11.5106 8.31969 11.5106C8.36761 11.5106 8.41554 11.486 8.4395 11.486C8.48742 11.4614 8.51138 11.4614 8.55931 11.4368C8.63119 11.4122 8.70307 11.3629 8.751 11.3137C8.79892 11.2891 8.82288 11.2891 8.87081 11.2891C8.89477 11.2891 8.94269 11.2153 8.94269 11.1907C8.96665 11.1661 8.99062 11.1415 9.01458 11.1169C9.01458 11.0923 9.03854 11.0185 9.01458 11.0185H8.96666C8.96666 10.9693 8.94269 10.9447 8.91873 10.9201C8.89477 10.8955 8.79892 10.8955 8.751 10.8955C8.67911 10.8955 8.67912 10.8955 8.65515 10.8463C8.63119 10.8217 8.60723 10.7725 8.60723 10.7233C8.58327 10.6987 8.58327 10.6987 8.58327 10.6495C8.60723 10.6741 8.65515 10.6741 8.65515 10.6987C8.67912 10.7479 8.67911 10.7725 8.67911 10.8217C8.70308 10.8217 8.751 10.7971 8.77496 10.7971C8.82288 10.7971 8.82288 10.8217 8.87081 10.8463C8.89477 10.8709 8.91873 10.9201 8.94269 10.9201C8.99062 10.9201 9.03854 10.9201 9.0625 10.9447C9.13439 10.9447 9.20627 10.9201 9.2542 10.9201C9.30212 10.9201 9.32608 10.9201 9.35004 10.9693C9.37401 10.9939 9.39797 11.0185 9.42193 11.0677C9.44589 11.1169 9.44589 11.1169 9.49381 11.1169C9.54174 11.1169 9.54174 11.1169 9.54174 11.1661C9.54174 11.2399 9.54174 11.3383 9.58966 11.4122C9.63758 11.486 9.66154 11.5352 9.73343 11.609C9.75739 11.6582 9.78135 11.732 9.85324 11.7812C9.8772 11.732 9.92512 11.6582 9.92512 11.609C9.92512 11.5598 9.94909 11.5598 9.97305 11.5352C9.99701 11.5106 9.99701 11.486 9.99701 11.4368C9.99701 11.3383 10.021 11.3137 10.0689 11.2645C10.1168 11.2153 10.1887 11.1661 10.2366 11.1169C10.2846 11.0677 10.3325 11.0431 10.4044 11.0431C10.4283 11.0431 10.4523 11.0677 10.4762 11.0923C10.5002 11.1169 10.4762 11.1661 10.5002 11.1907C10.5002 11.1907 10.5002 11.2153 10.5242 11.2153C10.5242 11.2399 10.5481 11.2399 10.5721 11.2399C10.5721 11.2645 10.5961 11.3137 10.5961 11.3383C10.644 11.4368 10.6919 11.4368 10.7398 11.3629C10.7638 11.4122 10.7638 11.5106 10.8117 11.5598C10.8357 11.609 10.8357 11.6828 10.8596 11.7566C10.8836 11.8304 10.9076 11.9042 10.9315 11.9534C10.9794 12.0272 11.0274 12.101 11.0992 12.1256C11.1232 12.1256 11.1472 12.1256 11.1232 12.0764C11.1232 12.0764 11.0992 12.0764 11.0992 12.0518C11.0992 12.0272 11.0992 12.0026 11.0992 11.978C11.0753 11.9042 11.0513 11.8304 11.0274 11.7812C11.0034 11.7566 10.9555 11.732 10.9315 11.7074C10.9076 11.7074 10.9076 11.6582 10.8836 11.6336C10.8596 11.5598 10.8836 11.5106 10.9555 11.4614C11.0034 11.5106 11.0513 11.609 11.1232 11.6336C11.1711 11.6336 11.1951 11.5844 11.2191 11.5598C11.243 11.5352 11.243 11.5352 11.267 11.5352C11.2909 11.5106 11.2909 11.5106 11.3149 11.4614C11.3389 11.3875 11.2909 11.2891 11.267 11.1907C11.243 11.1415 11.243 11.1169 11.243 11.0431C11.243 11.0185 11.3149 10.9693 11.3149 10.9447C11.3389 10.9693 11.3628 10.9939 11.3389 11.0185C11.3149 11.0431 11.3389 11.0431 11.3389 11.0677C11.3628 11.0923 11.4108 11.0677 11.4108 11.0431C11.4347 11.0431 11.4108 10.9939 11.4108 10.9693C11.4108 10.9201 11.4587 10.8709 11.5066 10.8709C11.5545 10.8463 11.6024 10.7725 11.6264 10.7479C11.6504 10.7233 11.6743 10.6495 11.6743 10.6003C11.6743 10.5511 11.6983 10.4773 11.6743 10.4281C11.6504 10.3051 11.6504 10.1821 11.5545 10.1083C11.5785 10.0837 11.6264 10.0591 11.6024 10.0345C11.5545 9.98529 11.5306 10.0345 11.5066 10.0591C11.5066 10.0591 11.4587 9.98529 11.4826 9.96069C11.5066 9.96069 11.5066 9.93609 11.5306 9.93609C11.5545 9.91149 11.5545 9.91149 11.5785 9.93609C11.6024 9.96069 11.6264 9.98529 11.6504 10.0099C11.6983 10.0345 11.6743 10.0837 11.6983 10.1329C11.6983 10.1575 11.6983 10.1575 11.7223 10.1821C11.7462 10.1821 11.7462 10.1821 11.7702 10.1575C11.7702 10.1329 11.8181 10.1083 11.8181 10.0837C11.8181 10.0345 11.8421 9.98529 11.8181 9.96069C11.7702 9.91148 11.7462 9.91149 11.7462 9.83768C11.7462 9.76388 11.7462 9.66548 11.7941 9.61627C11.8421 9.59167 11.8421 9.59167 11.8181 9.51787C11.7941 9.51787 11.7702 9.51787 11.7941 9.49327C11.7941 9.46867 11.7941 9.46867 11.7941 9.44407C11.7941 9.34566 11.8421 9.29646 11.8181 9.19805C11.7941 9.14885 11.7462 9.05045 11.6983 9.00125C11.6743 8.95205 11.6504 8.92744 11.6264 8.90284C11.6024 8.87824 11.5306 8.85364 11.5306 8.82904C11.5066 8.80444 11.5306 8.77984 11.5306 8.77984C11.5306 8.75523 11.5066 8.73064 11.4826 8.73064C11.4587 8.70603 11.4108 8.75523 11.3868 8.75523C11.3628 8.75523 11.3868 8.65683 11.4108 8.63223C11.4108 8.60763 11.4347 8.58303 11.4826 8.58303C11.5306 8.55843 11.5545 8.55843 11.5785 8.53383C11.6024 8.50922 11.6024 8.46002 11.6504 8.43542C11.6743 8.48462 11.6983 8.53383 11.7223 8.58303C11.7462 8.60763 11.7462 8.63223 11.7702 8.63223C11.7702 8.65683 11.7941 8.63223 11.7941 8.63223C11.8421 8.65683 11.8181 8.68143 11.866 8.68143C11.9379 8.68143 11.9858 8.73064 12.0577 8.73064C12.1056 8.73064 12.1056 8.75523 12.1056 8.70603C12.1056 8.65683 12.0817 8.65683 12.0817 8.60763ZM8.27176 9.12425C8.29573 9.12425 8.29573 9.14885 8.27176 9.17345C8.2478 9.17345 8.22384 9.14885 8.27176 9.12425ZM8.4395 10.0591C8.41554 10.1083 8.29573 10.0099 8.2478 10.0345C8.22384 10.0345 8.15196 10.0099 8.17592 9.98529C8.17592 9.96069 8.19988 9.88688 8.22384 9.88688C8.2478 9.86228 8.29573 9.83768 8.31969 9.86228C8.31969 9.86228 8.31969 9.86228 8.34365 9.88688C8.34365 9.91148 8.36761 9.91148 8.39157 9.91148C8.4395 9.91148 8.4395 9.91148 8.46346 9.96069C8.46346 10.0099 8.46346 10.0099 8.4395 10.0591ZM8.84685 10.0345C8.82288 10.0591 8.79892 10.0837 8.82289 10.1329C8.82289 10.1821 8.84685 10.1821 8.79892 10.2559C8.79892 10.2805 8.79892 10.3297 8.72704 10.3297C8.70308 10.3297 8.67912 10.3543 8.65515 10.3051C8.63119 10.2805 8.65515 10.2559 8.67911 10.2559C8.72704 10.2559 8.70308 10.1821 8.70308 10.1575C8.70308 10.1083 8.70308 10.0837 8.70308 10.0591C8.70308 10.0099 8.72704 9.98529 8.77496 9.98529C8.79892 9.96069 8.87081 9.96069 8.84685 10.0345Z" fill="white"/>
<path d="M7.28829 8.68134C7.31226 8.68134 7.33622 8.65674 7.33622 8.65674C7.36018 8.68134 7.38414 8.68134 7.4081 8.68134C7.43207 8.68134 7.45603 8.70594 7.45603 8.75514C7.45603 8.77974 7.47999 8.80434 7.43206 8.82894C7.4081 8.82894 7.38414 8.85355 7.36018 8.85355C7.33622 8.85355 7.28829 8.85355 7.26433 8.85355C7.21641 8.87815 7.19244 8.90275 7.16848 8.85355C7.14452 8.77974 7.19244 8.77974 7.24037 8.75514C7.26433 8.75514 7.28829 8.70594 7.28829 8.68134Z" fill="white"/>
<path d="M8.36731 12.8883C8.36731 12.8391 8.36731 12.8391 8.41524 12.8145C8.4392 12.8145 8.48712 12.8637 8.48712 12.8883C8.53504 12.9621 8.51108 13.0359 8.51108 13.1343C8.51108 13.1589 8.46316 13.2081 8.46316 13.2327C8.4392 13.2573 8.41524 13.2819 8.41524 13.3311C8.41524 13.3557 8.39127 13.4049 8.39127 13.4541C8.39127 13.4787 8.4392 13.5279 8.41524 13.5525C8.41524 13.5525 8.36731 13.6017 8.34335 13.6017C8.31939 13.5771 8.27146 13.5525 8.2475 13.5033C8.19958 13.4541 8.22354 13.3557 8.22354 13.3065C8.22354 13.2573 8.22354 13.2081 8.22354 13.1835C8.19958 13.1343 8.22354 13.1097 8.22354 13.0605C8.2475 13.0359 8.2475 12.9867 8.27146 12.9621C8.31939 12.9621 8.31939 12.9129 8.36731 12.8883Z" fill="white"/>
<path d="M9.90052 11.781C9.90052 11.7564 9.97241 11.6826 9.97241 11.6826C10.0203 11.7072 9.99637 11.781 9.99637 11.8056C9.99637 11.8302 9.97241 11.904 9.92448 11.904C9.87656 11.8794 9.90052 11.8056 9.90052 11.781Z" fill="white"/>
<path d="M10.5946 11.9043C10.6665 11.9043 10.7144 11.9043 10.7863 11.9535C10.8343 11.9781 10.8822 12.0273 10.9301 12.0765C10.978 12.1257 11.0259 12.1749 11.0499 12.2241C11.0978 12.2487 11.0499 12.3717 11.0499 12.4209C11.0259 12.4701 10.9541 12.2979 10.9301 12.2979C10.9061 12.2241 10.8582 12.1749 10.8343 12.1257C10.8103 12.1011 10.7144 12.0027 10.6905 12.0027C10.6665 12.0027 10.6186 12.0027 10.5946 11.9781C10.5946 11.9781 10.5707 11.9289 10.5946 11.9043Z" fill="white"/>
<path d="M11.1223 12.3223C11.1463 12.3469 11.1463 12.3961 11.1702 12.4453C11.1702 12.4699 11.2661 12.4699 11.29 12.4699C11.314 12.4699 11.3859 12.4699 11.3859 12.4945C11.4338 12.5437 11.4098 12.5929 11.3619 12.5929C11.3379 12.5683 11.314 12.5437 11.2661 12.5437C11.2181 12.5437 11.1942 12.5191 11.1463 12.5191C11.1223 12.4945 11.0744 12.4699 11.0983 12.4207C11.1223 12.3961 11.0983 12.3469 11.1223 12.3223Z" fill="white"/>
<path d="M11.458 12.5928C11.5059 12.5928 11.5059 12.5928 11.5539 12.6174C11.5778 12.6174 11.6257 12.6174 11.6257 12.6174C11.6737 12.6174 11.6976 12.6174 11.7216 12.642C11.7695 12.642 11.7935 12.6666 11.7456 12.6912C11.7216 12.7158 11.6018 12.6666 11.5778 12.6666C11.5299 12.6666 11.5299 12.642 11.482 12.642C11.458 12.642 11.4101 12.6174 11.458 12.5928Z" fill="white"/>
<path d="M11.8652 12.6914C11.8891 12.6914 11.937 12.6914 11.937 12.6914C11.961 12.7406 11.961 12.7652 11.9131 12.7652C11.8891 12.7652 11.8891 12.7652 11.8412 12.7652C11.8172 12.7406 11.8172 12.7652 11.7933 12.7652C11.7693 12.7898 11.7214 12.7898 11.7214 12.7652C11.6974 12.7652 11.6735 12.716 11.6974 12.716C11.7453 12.716 11.8412 12.716 11.8652 12.6914Z" fill="white"/>
<path d="M11.218 11.9535C11.2899 11.9535 11.3378 11.9289 11.3857 11.8797C11.4097 11.8551 11.4576 11.8305 11.4816 11.8059C11.5055 11.7813 11.5295 11.7321 11.5535 11.7567C11.5774 11.7567 11.6493 11.7813 11.6493 11.8059C11.6254 11.8551 11.6254 11.8305 11.5774 11.8797C11.5535 11.8797 11.5535 11.9289 11.5774 11.9535C11.6254 12.0027 11.6014 12.0027 11.5774 12.0519C11.5535 12.0765 11.5055 12.1257 11.5055 12.1503C11.5055 12.1995 11.4816 12.1995 11.4816 12.2487C11.4576 12.2733 11.4337 12.2733 11.4097 12.2487C11.3857 12.2241 11.3618 12.2241 11.3139 12.2241C11.2899 12.2241 11.242 12.2487 11.218 12.2241C11.218 12.2241 11.194 12.1503 11.194 12.1257C11.1701 12.1011 11.1461 12.0765 11.1701 12.0273C11.1701 11.9781 11.1701 11.9781 11.218 11.9535Z" fill="white"/>
<path d="M11.8891 12.0762C11.8172 12.0762 11.7453 12.0762 11.6734 12.1254C11.6255 12.15 11.6016 12.2238 11.6016 12.2976C11.6016 12.3222 11.6016 12.3714 11.6016 12.396C11.6255 12.4206 11.6734 12.4698 11.6974 12.4698C11.7693 12.4452 11.6495 12.3468 11.6734 12.2976C11.6974 12.2976 11.6974 12.3222 11.7214 12.3468C11.7214 12.3714 11.7453 12.396 11.7693 12.396C11.7933 12.396 11.8412 12.3714 11.8172 12.3714C11.8172 12.3468 11.7933 12.3222 11.7693 12.3222C11.6974 12.273 11.8172 12.273 11.8412 12.273C11.9131 12.1992 11.7693 12.2238 11.7453 12.2238C11.7453 12.1746 11.7933 12.15 11.8412 12.15C11.8651 12.15 11.937 12.1254 11.8891 12.0762Z" fill="white"/>
<path d="M11.9369 11.9043C11.9609 11.9043 12.0328 11.9043 12.0328 11.9289C12.0328 11.9535 12.0088 11.9781 12.0088 12.0027C12.0088 12.0273 12.0328 12.0027 12.0567 12.0273C12.0807 12.0519 12.0328 12.1011 12.0328 12.1011C12.0088 12.1257 11.913 12.0765 11.913 12.0519C11.889 11.9781 11.9369 11.9535 11.9369 11.9043Z" fill="white"/>
<path d="M11.7932 11.5841C11.7932 11.5595 11.8412 11.5103 11.8651 11.5103C11.8891 11.5103 11.913 11.5841 11.8891 11.6087C11.8651 11.6579 11.913 11.6579 11.913 11.7071C11.913 11.7563 11.961 11.8055 11.913 11.8301C11.8411 11.8301 11.8412 11.8055 11.8172 11.7809C11.7932 11.7563 11.7693 11.7563 11.7453 11.7563C11.7453 11.7563 11.7453 11.7809 11.7213 11.7809C11.6734 11.7809 11.6734 11.7317 11.6974 11.7071C11.7453 11.7071 11.7693 11.6825 11.8172 11.7071C11.8172 11.6825 11.8412 11.6579 11.8412 11.6333C11.8412 11.6087 11.8172 11.6087 11.7932 11.5841Z" fill="white"/>
<path d="M11.721 11.4365C11.745 11.4365 11.8169 11.5103 11.7689 11.5103C11.721 11.5103 11.6731 11.4611 11.721 11.4365Z" fill="white"/>
<path d="M11.8177 11.3627C11.8177 11.3627 11.8416 11.4119 11.8416 11.4365C11.8416 11.4611 11.8177 11.4365 11.7937 11.4365C11.7458 11.4365 11.7697 11.3135 11.8177 11.3627Z" fill="white"/>
<path d="M11.6729 11.0679C11.6968 11.0679 11.7208 11.0679 11.7448 11.1171C11.7687 11.1417 11.7448 11.1663 11.7208 11.1909C11.6969 11.1909 11.7448 11.2647 11.7448 11.2893C11.7687 11.2893 11.7687 11.3631 11.7448 11.3631C11.7208 11.3631 11.6729 11.3385 11.6489 11.3139C11.625 11.2893 11.625 11.2647 11.6489 11.2401C11.6489 11.1909 11.577 11.0679 11.6729 11.0679Z" fill="white"/>
<path d="M11.7212 10.6989C11.7212 10.6743 11.7212 10.6497 11.7452 10.6251C11.7692 10.6005 11.7931 10.6497 11.7931 10.6497C11.7931 10.6989 11.8171 10.7727 11.8171 10.7973C11.7931 10.8711 11.7452 10.8711 11.6973 10.8465C11.6973 10.8219 11.6973 10.7235 11.7212 10.6989Z" fill="white"/>
<path d="M12.1283 12.0518C12.0564 11.9534 12.1523 11.9534 12.2481 11.978C12.2721 11.978 12.2721 12.0026 12.2961 12.0272C12.2961 12.0518 12.2961 12.0518 12.2721 12.0764C12.2721 12.101 12.2961 12.1256 12.32 12.1256C12.3679 12.1748 12.4398 12.0518 12.5117 12.101C12.5836 12.1502 12.6076 12.2486 12.6795 12.2978C12.7034 12.2978 12.7513 12.3224 12.7753 12.347C12.7993 12.3716 12.7993 12.3716 12.7993 12.3962C12.8232 12.3962 12.8472 12.3962 12.8472 12.4208C12.8951 12.4946 12.943 12.5684 12.967 12.6423C12.991 12.6915 13.0868 12.8391 13.0149 12.8637C12.967 12.8883 12.943 12.7899 12.943 12.7653C12.9191 12.7161 12.8711 12.7653 12.8472 12.7407C12.7993 12.7161 12.7753 12.6423 12.7274 12.6423C12.6794 12.6177 12.6555 12.7161 12.6076 12.6669C12.5357 12.6423 12.5357 12.593 12.4638 12.5684C12.4159 12.5438 12.344 12.5192 12.3679 12.47C12.3919 12.4454 12.3919 12.4208 12.3919 12.3962C12.3919 12.347 12.3919 12.347 12.3679 12.3224C12.32 12.2732 12.2721 12.2486 12.2242 12.2486C12.2002 12.2486 12.1523 12.2486 12.1283 12.224C12.1283 12.224 12.1044 12.1748 12.0804 12.1502C12.0564 12.1502 12.0325 12.1256 12.0804 12.101C12.1044 12.101 12.1283 12.0764 12.1523 12.0764C12.1523 12.0764 12.1523 12.0764 12.1283 12.0518Z" fill="white"/>
<path d="M13.0156 12.1745C13.0156 12.1499 13.0156 12.1499 13.0156 12.1499C13.0875 12.1499 13.1834 12.2237 13.1594 12.2729C13.1594 12.2975 13.1354 12.3221 13.1115 12.3221C13.0875 12.2975 13.0875 12.2975 13.0875 12.2729C13.0635 12.2483 13.0635 12.2237 13.0635 12.1991C13.0396 12.1991 13.0156 12.1991 13.0156 12.1745Z" fill="white"/>
<path d="M12.992 12.3225L13.0159 12.2979C13.0399 12.2979 13.0399 12.3225 13.0399 12.3471C13.0399 12.3717 13.0399 12.3963 13.0399 12.3963C13.0159 12.4209 13.0159 12.4209 12.992 12.4209C12.968 12.4701 12.9201 12.4455 12.944 12.3963C12.968 12.3717 13.0159 12.3717 12.992 12.3225Z" fill="white"/>
<path d="M13.1589 12.3222C13.2308 12.2976 13.2308 12.4698 13.1829 12.4944C13.135 12.519 13.111 12.3468 13.1589 12.3222Z" fill="white"/>
<path d="M13.183 12.5438C13.207 12.5192 13.231 12.5192 13.2549 12.4946C13.2549 12.5438 13.2549 12.5684 13.2549 12.593C13.231 12.6176 13.231 12.6914 13.207 12.6914C13.1591 12.716 13.183 12.6422 13.1591 12.6176C13.1591 12.593 13.1351 12.6176 13.1591 12.5684L13.183 12.5438Z" fill="white"/>
<path d="M12.0086 12.7896C12.0566 12.7896 12.0805 12.7896 12.1285 12.7896C12.1524 12.7896 12.2003 12.7896 12.2483 12.7896C12.2962 12.7896 12.2722 12.8142 12.2722 12.8634C12.2722 12.9126 12.2483 12.9126 12.2243 12.9618C12.1524 13.011 12.2483 13.0848 12.2962 13.134C12.3201 13.1832 12.3441 13.1832 12.3681 13.134C12.392 13.0848 12.416 13.0848 12.416 13.0356C12.44 12.9864 12.4639 12.9618 12.4639 12.9372C12.4879 12.888 12.4879 12.8388 12.5118 12.8142C12.6077 12.7403 12.5837 12.9618 12.5837 13.011C12.5837 13.0602 12.5837 13.0848 12.6077 13.134C12.6317 13.1832 12.6316 13.2078 12.6316 13.257C12.6077 13.3308 12.6317 13.4292 12.6556 13.503C12.6556 13.5768 12.6556 13.6506 12.6556 13.7244C12.6556 13.7736 12.6556 13.8228 12.6316 13.8474C12.6316 13.8966 12.5837 13.9212 12.5837 13.9458C12.5598 13.995 12.5358 14.0196 12.5118 14.0688C12.5118 14.0934 12.4639 14.118 12.44 14.1426C12.44 14.1918 12.416 14.2164 12.392 14.241C12.3681 14.2902 12.3441 14.3148 12.3201 14.3394C12.2483 14.3886 12.2003 14.4378 12.1285 14.487C12.0805 14.487 12.0566 14.487 12.0326 14.487C11.9847 14.487 11.9368 14.5116 11.9128 14.5116C11.8649 14.5116 11.8409 14.5116 11.817 14.487C11.793 14.4624 11.793 14.4132 11.769 14.364C11.769 14.2902 11.769 14.2164 11.793 14.118C11.7451 14.1426 11.7211 14.1918 11.6971 14.1672C11.6492 14.1426 11.6732 14.118 11.6492 14.0688C11.6013 13.995 11.5773 13.9212 11.4815 13.8966C11.3138 13.872 11.17 13.9212 11.0262 13.9458C11.0023 13.9458 10.9543 13.8966 10.9304 13.8966C10.9064 13.872 10.8824 13.8228 10.9064 13.7982C10.9304 13.7736 10.9543 13.7244 10.9543 13.6998C10.9783 13.6506 10.9783 13.6014 10.9783 13.5768C10.9783 13.5276 11.0023 13.503 11.0262 13.4784C11.0502 13.4292 11.0502 13.4046 11.0741 13.3554C11.0981 13.3062 11.146 13.2324 11.2179 13.2078C11.2898 13.1832 11.3617 13.1586 11.4336 13.1094C11.4336 13.1094 11.4575 13.1094 11.4815 13.1094C11.5055 13.1094 11.5055 13.0848 11.5294 13.0848C11.5534 13.0356 11.5773 13.0356 11.6013 13.011C11.6732 12.9372 11.7451 12.9126 11.817 12.9126C11.8888 12.888 11.9368 12.8142 12.0086 12.7896Z" fill="white"/>
<path d="M11.7462 14.6104C11.7702 14.6104 11.7942 14.6104 11.8181 14.635V14.6596H11.866C11.89 14.635 11.914 14.6104 11.9379 14.6104C11.9859 14.635 11.9859 14.6596 11.9619 14.6842C11.9379 14.7088 11.914 14.7334 11.89 14.758C11.866 14.758 11.866 14.8072 11.8421 14.8318C11.7942 14.8564 11.7462 14.8564 11.7462 14.7826C11.6983 14.8072 11.6504 14.758 11.6504 14.7088C11.6504 14.6842 11.6983 14.635 11.7223 14.6104H11.7462Z" fill="white"/>
<path d="M7.79259 8.0415C7.81655 8.0415 7.84051 8.0415 7.88843 8.06611C7.93636 8.06611 7.93636 8.06611 7.96032 8.0415C8.00824 8.06611 7.98428 8.11531 7.96032 8.13991C7.9124 8.16451 7.88843 8.18911 7.81655 8.18911C7.76863 8.18911 7.7207 8.18911 7.7207 8.13991C7.7207 8.09071 7.76863 8.06611 7.79259 8.0415Z" fill="white"/>
<path d="M11.5767 8.75537C11.6725 8.80457 11.7684 8.90298 11.8403 8.95218C11.8642 9.00138 11.8642 9.00138 11.8882 9.02598C11.8882 9.07519 11.8882 9.07519 11.9122 9.09979C11.9361 9.12439 12.0559 9.19819 12.008 9.22279C11.984 9.24739 11.8642 9.19819 11.8403 9.17359C11.8163 9.14899 11.8163 9.05058 11.7924 9.02598C11.7205 8.92758 11.6007 8.87838 11.5527 8.77997C11.5767 8.77997 11.5767 8.75537 11.5767 8.75537Z" fill="white"/>
<path d="M12.1285 8.77979C12.1285 8.77979 12.2483 8.82899 12.1765 8.85359C12.1525 8.85359 12.1046 8.87819 12.0566 8.82899C12.0806 8.82899 12.1046 8.80439 12.1285 8.77979Z" fill="white"/>
<path d="M12.1758 8.90283C12.1997 8.92743 12.1997 8.92743 12.1758 8.95204C12.1518 8.97664 12.1279 8.95204 12.1039 8.95204C12.0799 8.95204 12.0799 8.90283 12.1039 8.90283C12.1279 8.90283 12.1518 8.90283 12.1758 8.90283Z" fill="white"/>
<path d="M11.9844 9.24707C12.0084 9.27167 12.0563 9.29627 12.0563 9.29627C12.0803 9.29627 12.1761 9.27167 12.1761 9.29627C12.2001 9.34547 12.248 9.34547 12.2001 9.37007C12.1761 9.39468 12.1042 9.41928 12.1042 9.44388C12.1042 9.44388 12.0803 9.51768 12.0563 9.51768C12.0084 9.49308 12.0324 9.41928 12.0084 9.39468C12.0084 9.37008 11.8886 9.27167 11.9844 9.24707Z" fill="white"/>
<path d="M12.1759 9.44385C12.1998 9.46845 12.1759 9.51765 12.1759 9.54225C12.1998 9.56685 12.2238 9.56685 12.2477 9.59145C12.2477 9.64066 12.2238 9.68986 12.2238 9.71446C12.2477 9.73906 12.2477 9.81286 12.2477 9.83746L12.2238 9.86207C12.2238 9.88667 12.2477 9.91127 12.2238 9.91127C12.2238 9.93587 12.1998 9.93587 12.1998 9.93587C12.1998 9.96047 12.1998 9.98507 12.1759 10.0097C12.1759 10.0343 12.1519 10.0343 12.1279 10.0343C12.08 10.0589 12.0321 10.1081 11.9842 10.1081C11.9842 10.1327 11.9602 10.2065 11.9123 10.1819C11.8883 10.1573 11.9123 10.0835 11.9362 10.0835C11.9602 10.0343 11.9842 10.0097 12.0081 9.96047C12.0321 9.93587 12.056 9.93587 12.104 9.93587C12.08 9.88667 12.0321 9.86206 12.0321 9.83746C12.0321 9.81286 12.104 9.76366 12.104 9.71446C12.1279 9.68986 12.08 9.61605 12.104 9.56685C12.1279 9.54225 12.1279 9.44385 12.1759 9.44385Z" fill="white"/>
<path d="M12.1055 10.1329C12.0576 10.1083 11.9378 10.1821 11.9857 10.2067C12.0336 10.2067 12.1055 10.1821 12.1055 10.1329Z" fill="white"/>
<path d="M11.9611 10.2313C11.9611 10.2067 11.9371 10.2067 11.9371 10.1821C11.9131 10.2067 11.8412 10.3051 11.8892 10.3297C11.9131 10.3543 11.9131 10.3051 11.9371 10.2805C11.9371 10.2805 11.985 10.2559 11.9611 10.2313Z" fill="white"/>
<path d="M12.5848 8.18926C12.6806 8.18926 12.7286 8.16466 12.7765 8.09085C12.8005 8.06625 12.8244 8.04165 12.8484 8.04165C12.8963 8.04165 12.9203 8.01705 12.9682 7.99245C12.9921 7.99245 13.0401 7.96785 13.064 7.96785C13.112 7.94325 13.112 7.91864 13.1599 7.89404C13.2318 7.89404 13.3036 7.91864 13.3755 7.94324C13.4235 7.96785 13.5433 7.96785 13.5433 8.04165C13.5672 8.06625 13.5433 8.09085 13.5672 8.14006C13.5912 8.16466 13.6152 8.21386 13.6152 8.23846C13.6152 8.26306 13.5912 8.26306 13.5912 8.28766C13.5912 8.31226 13.5912 8.31226 13.5912 8.33686C13.5672 8.38607 13.5433 8.41067 13.5193 8.43527C13.4953 8.45987 13.4714 8.48447 13.4235 8.48447C13.3995 8.48447 13.3995 8.36147 13.3995 8.33686C13.3755 8.33686 13.3516 8.33686 13.3516 8.36147C13.3276 8.36147 13.3036 8.33686 13.3036 8.31226C13.2797 8.33686 13.2557 8.36147 13.2078 8.38607C13.1599 8.38607 13.1359 8.38607 13.088 8.36147C13.0161 8.36147 12.9442 8.36147 12.8484 8.36147C12.8244 8.36147 12.7765 8.36147 12.7525 8.33686C12.7286 8.33686 12.7046 8.31226 12.7046 8.33686C12.7046 8.36147 12.6806 8.36147 12.6567 8.38607C12.6327 8.38607 12.5369 8.38607 12.5129 8.38607C12.465 8.38607 12.4171 8.38607 12.3691 8.38607C12.4171 8.28766 12.5369 8.28766 12.5848 8.18926Z" fill="white"/>
<path d="M13.0626 9.00098C13.0866 9.00098 13.1345 9.02558 13.1345 9.05018C13.1345 9.09938 13.0626 9.07478 13.0387 9.07478C13.0147 9.07478 12.9668 9.05018 12.9668 9.02558C12.9908 9.00098 13.0387 9.00098 13.0626 9.00098Z" fill="white"/>
<path d="M12.8947 9.07471C12.9186 9.09931 12.9426 9.09931 12.9666 9.12391C12.9905 9.14851 12.9426 9.17311 12.9186 9.17311C12.8947 9.14851 12.8467 9.17311 12.8228 9.12391C12.7988 9.07471 12.8467 9.09931 12.8947 9.07471Z" fill="white"/>
<path d="M14.0451 9.61621C14.093 9.64081 14.093 9.64081 14.117 9.66541C14.1409 9.69001 14.1649 9.73922 14.1409 9.76382C14.093 9.78842 14.069 9.71462 14.069 9.69001C14.0451 9.66541 14.0211 9.64081 14.0451 9.61621Z" fill="white"/>
<path d="M14.4533 8.36145C14.4772 8.33685 14.4772 8.31225 14.5012 8.33685C14.5251 8.33685 14.5251 8.33685 14.5491 8.36145C14.5731 8.38605 14.597 8.43526 14.5731 8.48446C14.5491 8.53366 14.5251 8.53366 14.4772 8.48446C14.4293 8.45986 14.4533 8.38605 14.4533 8.36145Z" fill="white"/>
<path d="M14.8132 7.89419C14.8371 7.84499 14.8611 7.79579 14.909 7.77118C14.933 7.74658 15.0528 7.72198 15.0288 7.79578C15.0288 7.79578 14.9809 7.79578 14.9569 7.79578C14.933 7.82038 14.909 7.84499 14.909 7.86959C14.8851 7.86959 14.8611 7.89419 14.8611 7.91879C14.8371 7.91879 14.7892 7.94339 14.8132 7.89419Z" fill="white"/>
<path d="M14.9802 7.86965C15.0282 7.84505 15.0521 7.84505 15.1 7.84505C15.124 7.84505 15.124 7.77125 15.124 7.77125C15.148 7.72204 15.1719 7.69744 15.1959 7.67284C15.2438 7.64824 15.2678 7.64824 15.3157 7.64824C15.4115 7.64824 15.4834 7.62364 15.5553 7.67284C15.5793 7.69744 15.5793 7.69744 15.6272 7.67284C15.6751 7.67284 15.6991 7.67284 15.747 7.69744C15.7949 7.72204 15.8189 7.74665 15.8668 7.77125C15.8908 7.79585 15.9147 7.82045 15.9627 7.84505C15.9866 7.86965 16.0106 7.84505 16.0585 7.86965C16.1064 7.86965 16.1304 7.89425 16.1783 7.91885C16.2023 7.94345 16.2023 7.94345 16.2023 8.01726C16.2023 8.06646 16.2262 8.09106 16.2502 8.14026C16.2742 8.16486 16.2502 8.18946 16.2742 8.23867C16.2981 8.26327 16.3221 8.31247 16.3221 8.36167C16.3461 8.38627 16.3461 8.41087 16.37 8.43547C16.4179 8.46007 16.4419 8.50928 16.4419 8.53388C16.4419 8.63228 16.37 8.65688 16.2981 8.65688C16.2262 8.65688 16.1544 8.63228 16.0825 8.60768C15.9866 8.55848 15.9387 8.53388 15.8668 8.46007C15.8429 8.43547 15.8189 8.38627 15.7949 8.38627C15.747 8.36167 15.723 8.33707 15.723 8.31247C15.723 8.28787 15.747 8.21406 15.6991 8.21406C15.6512 8.21406 15.6272 8.18946 15.5793 8.18946C15.5074 8.18946 15.4355 8.16486 15.3636 8.16486C15.3397 8.16486 15.2917 8.16486 15.2438 8.18946C15.2438 8.18946 15.2678 8.21406 15.2438 8.23867H15.1959C15.1959 8.36167 15.3157 8.28787 15.3876 8.33707C15.4834 8.36167 15.5553 8.36167 15.6272 8.38627C15.6751 8.41087 15.6751 8.41087 15.6991 8.46007C15.723 8.48467 15.747 8.50928 15.7949 8.53388C15.8429 8.55848 15.8668 8.55848 15.9147 8.58308C15.9627 8.58308 15.9627 8.63228 15.9147 8.65688C15.8908 8.65688 15.8429 8.65688 15.8429 8.68148C15.8189 8.73068 15.8429 8.75529 15.8429 8.80449C15.8429 8.82909 15.8429 8.87829 15.7949 8.87829C15.771 8.85369 15.723 8.85369 15.6751 8.82909C15.6272 8.80449 15.4595 8.87829 15.4595 8.77989C15.4595 8.73069 15.5074 8.70608 15.5074 8.68148C15.5314 8.63228 15.4834 8.63228 15.4595 8.60768C15.4115 8.58308 15.3876 8.58308 15.3397 8.55848C15.2917 8.55848 15.2438 8.53388 15.2199 8.48467C15.1959 8.48467 15.1719 8.48467 15.1719 8.46007C15.148 8.43547 15.148 8.41087 15.124 8.38627C15.1 8.33707 15.0761 8.31247 15.0282 8.31247C14.9563 8.31247 14.9563 8.26327 14.9323 8.21406C14.9323 8.18946 14.9323 8.16486 14.9323 8.14026C14.9083 8.09106 14.9083 8.11566 14.8844 8.11566C14.8604 8.09106 14.8604 8.09106 14.8604 8.06646C14.8604 8.04186 14.8125 8.01726 14.8125 7.99265C14.8365 7.94345 14.9083 7.99265 14.9083 8.01726C14.9323 8.01726 14.9563 7.96805 14.9563 7.94345C14.9563 7.91885 14.9563 7.89425 14.9802 7.86965Z" fill="white"/>
<path d="M16.5386 8.09105C16.5865 8.04185 16.6104 8.04185 16.6584 8.06645C16.7063 8.11565 16.7542 8.11565 16.7782 8.14026C16.8261 8.18946 16.8501 8.21406 16.898 8.23866C16.898 8.26326 16.922 8.28786 16.898 8.31246C16.874 8.31246 16.8501 8.31246 16.8261 8.31246C16.7782 8.31246 16.7542 8.28786 16.7063 8.26326C16.6823 8.23866 16.6823 8.21406 16.6584 8.21406C16.6344 8.18946 16.6104 8.21406 16.5865 8.21406C16.5386 8.23866 16.5146 8.23866 16.4906 8.18946C16.4667 8.16485 16.4667 8.11565 16.4906 8.11565C16.5146 8.11565 16.5386 8.11565 16.5386 8.09105Z" fill="white"/>
<path d="M14.7402 8.11548C14.7402 8.09088 14.7642 8.04167 14.8121 8.06628C14.8361 8.09088 14.8121 8.14008 14.8121 8.18928C14.7642 8.16468 14.7402 8.16468 14.7402 8.11548Z" fill="white"/>
<path d="M14.6211 8.2633C14.6211 8.2387 14.6451 8.2141 14.669 8.1895C14.693 8.1649 14.7649 8.1649 14.7409 8.2141C14.7409 8.2387 14.7169 8.28791 14.693 8.31251C14.669 8.36171 14.6211 8.31251 14.6211 8.2633Z" fill="white"/>
<path d="M14.8124 8.23848C14.8604 8.21388 14.8843 8.26308 14.8843 8.31228C14.9083 8.36148 14.8843 8.38608 14.8604 8.43528C14.8364 8.43528 14.7885 8.38608 14.7645 8.36148C14.7406 8.33688 14.7885 8.31228 14.7885 8.31228C14.8124 8.31228 14.7885 8.26308 14.7885 8.23848H14.8124Z" fill="white"/>
<path d="M14.6685 8.38613C14.6925 8.36153 14.7164 8.36153 14.7643 8.38613C14.7883 8.41073 14.7883 8.41073 14.7883 8.45993C14.7643 8.45993 14.7883 8.50913 14.7883 8.50913C14.7883 8.53373 14.8123 8.53373 14.8362 8.53373C14.8602 8.53373 14.8602 8.55833 14.8841 8.58293C14.8841 8.60754 14.9081 8.60754 14.9321 8.63214C14.9321 8.65674 14.9081 8.65674 14.9081 8.68134C14.8602 8.70594 14.8123 8.68134 14.7643 8.65674C14.7404 8.65674 14.6925 8.65674 14.6445 8.60753C14.6445 8.60753 14.6685 8.53373 14.6685 8.50913C14.6685 8.45993 14.6206 8.41073 14.6685 8.38613Z" fill="white"/>
<path d="M18.2626 12.6177C18.2147 12.5685 18.1907 12.4947 18.1667 12.4455C18.1667 12.4209 18.0948 12.3963 18.0948 12.3717C18.0469 12.3471 18.023 12.3471 17.999 12.3471C17.9271 12.3225 17.8792 12.2979 17.8073 12.2733C17.7833 12.2733 17.7594 12.2487 17.7354 12.2487C17.6875 12.2487 17.6635 12.2487 17.6156 12.2487C17.6396 12.1748 17.6396 12.1256 17.6156 12.0764C17.5677 12.0272 17.5437 11.978 17.4958 11.9534C17.4239 11.9534 17.376 11.9288 17.3281 11.9042C17.3041 11.8796 17.2801 11.855 17.2801 11.8304C17.2562 11.8058 17.2322 11.7812 17.2083 11.7566C17.1603 11.732 17.1124 11.6828 17.0645 11.6582C17.0166 11.6336 16.9686 11.5598 16.9207 11.5352C16.8968 11.5352 16.8728 11.5352 16.8488 11.5106C16.8009 11.5106 16.7769 11.4614 16.753 11.5106C16.729 11.5352 16.6811 11.5844 16.6092 11.5844C16.6332 11.5598 16.6571 11.5352 16.6811 11.5106C16.7051 11.486 16.7051 11.486 16.7051 11.4614C16.6811 11.4614 16.6811 11.4368 16.6571 11.4368C16.5853 11.486 16.4894 11.486 16.4175 11.5106C16.3936 11.5106 16.3696 11.5598 16.3456 11.5844C16.3456 11.5844 16.3456 11.5598 16.3217 11.5844C16.3217 11.5844 16.3217 11.5844 16.2977 11.5844C16.2977 11.609 16.2738 11.6336 16.2498 11.6336C16.2258 11.609 16.1779 11.609 16.1539 11.609C16.13 11.609 16.0821 11.6582 16.0581 11.6582C16.0102 11.6336 15.9862 11.6336 15.9622 11.609C15.9383 11.5844 15.9383 11.5106 15.9622 11.486C15.9622 11.4122 15.9862 11.3138 15.8904 11.3138C15.8185 11.3138 15.7226 11.3876 15.6747 11.3138C15.6507 11.24 15.7945 11.1662 15.6987 11.117C15.6268 11.0678 15.5549 11.1416 15.483 11.1662C15.4591 11.1908 15.4111 11.1908 15.3872 11.1662C15.3632 11.1416 15.3392 11.0924 15.3153 11.0678C15.2913 11.0186 15.2913 11.0186 15.2674 10.9448C15.2674 10.8956 15.2913 10.8956 15.3153 10.8464C15.3153 10.8218 15.3153 10.7726 15.3632 10.7234C15.3872 10.6988 15.4111 10.7234 15.4591 10.7234C15.483 10.7234 15.5309 10.6988 15.5549 10.6988C15.6028 10.6742 15.6268 10.6742 15.6747 10.6496C15.7226 10.6496 15.7466 10.625 15.7945 10.625C15.8424 10.6496 15.8664 10.6742 15.8904 10.7234C15.9143 10.748 15.8904 10.7726 15.8904 10.8218C15.8904 10.8464 15.9383 10.9202 15.9622 10.871C16.0341 10.7972 16.0341 10.7234 15.9862 10.6496C15.9862 10.625 15.9622 10.6004 15.9622 10.5758C15.9622 10.5266 15.9622 10.502 15.9862 10.4774C16.0341 10.4036 16.0821 10.3544 16.13 10.3052C16.1539 10.256 16.1539 10.1576 16.1539 10.1084C16.1779 10.0592 16.1779 9.96075 16.2498 9.93615C16.3217 9.88695 16.2738 9.81315 16.3217 9.76394C16.3456 9.71474 16.3936 9.66554 16.4415 9.59174C16.4654 9.56714 16.4654 9.56714 16.4654 9.51794C16.4654 9.49333 16.3936 9.49333 16.4175 9.44413C16.4415 9.44413 16.4654 9.44413 16.4654 9.44413C16.4894 9.41953 16.4654 9.41953 16.4415 9.39493C16.4175 9.39493 16.3696 9.41953 16.3456 9.41953C16.3696 9.44413 16.3936 9.44413 16.3936 9.49333C16.3696 9.51793 16.3456 9.54254 16.3217 9.51794C16.2977 9.46873 16.3217 9.46873 16.2737 9.46873C16.2498 9.44413 16.2019 9.46873 16.1779 9.46873C16.2019 9.44413 16.2258 9.39493 16.2498 9.39493C16.2977 9.39493 16.3217 9.37033 16.3696 9.37033C16.4415 9.37033 16.5373 9.34573 16.5373 9.27192C16.5613 9.22272 16.5134 9.19812 16.4894 9.17352C16.4894 9.14892 16.4654 9.12432 16.4654 9.12432C16.4415 9.12432 16.4175 9.14892 16.3936 9.14892C16.3456 9.14892 16.2498 9.09972 16.1779 9.07512C16.0821 9.05051 16.0581 9.02591 15.9862 8.95211C15.9862 8.92751 15.9622 8.87831 15.9143 8.90291C15.8904 8.92751 15.8664 8.92751 15.8185 8.90291C15.7466 8.87831 15.6747 8.85371 15.6028 8.87831C15.5549 8.87831 15.5309 8.87831 15.5309 8.92751C15.507 9.00131 15.5309 9.00131 15.5789 9.02591C15.6028 9.05051 15.5789 9.07512 15.6028 9.09972C15.6268 9.12432 15.6747 9.14892 15.6747 9.17352C15.6747 9.24732 15.6987 9.32113 15.6987 9.39493C15.6507 9.37033 15.6268 9.32113 15.5789 9.32113C15.507 9.29652 15.483 9.32113 15.4351 9.27192C15.3872 9.24732 15.3392 9.22272 15.2913 9.22272C15.2913 9.19812 15.2434 9.22272 15.2434 9.19812C15.2194 9.17352 15.1955 9.14892 15.1955 9.14892C15.1475 9.09972 15.1475 9.07512 15.1955 9.05051C15.2194 9.00131 15.2674 8.97671 15.2913 8.92751C15.2913 8.90291 15.2434 8.8045 15.2674 8.8045C15.2913 8.7799 15.3392 8.7553 15.3872 8.7307C15.3632 8.6815 15.2674 8.6323 15.2194 8.6077C15.1715 8.58309 15.1475 8.55849 15.1236 8.53389C15.0757 8.50929 15.0757 8.46009 15.0277 8.46009C15.0038 8.43549 14.9798 8.43549 14.9559 8.48469C14.9559 8.50929 14.9798 8.55849 14.9798 8.58309C15.0038 8.6323 15.0517 8.6569 15.0277 8.7061C14.9798 8.7553 14.9559 8.7307 14.9079 8.7553C14.8121 8.7553 14.7642 8.7553 14.6923 8.7307C14.6444 8.7061 14.6204 8.6815 14.5725 8.6569C14.5485 8.6323 14.5245 8.6077 14.4766 8.6077C14.4047 8.58309 14.3329 8.6077 14.261 8.55849C14.1891 8.53389 14.1172 8.48469 14.0453 8.46009C14.0213 8.43549 13.9974 8.41089 13.9734 8.41089C13.9734 8.38628 13.9495 8.36169 13.9255 8.36169C13.8776 8.33708 13.8057 8.38628 13.7338 8.41089C13.6859 8.43549 13.614 8.43549 13.59 8.46009C13.5661 8.48469 13.5421 8.53389 13.5421 8.55849C13.5421 8.58309 13.5182 8.58309 13.4942 8.58309C13.4223 8.6077 13.4463 8.58309 13.4463 8.6323C13.4223 8.6569 13.3983 8.6815 13.3983 8.6815C13.3504 8.7307 13.3504 8.8045 13.3744 8.85371C13.3983 8.90291 13.3983 8.90291 13.3744 8.92751C13.3504 8.97671 13.3504 8.97671 13.3025 8.95211C13.2546 8.95211 13.1827 8.92751 13.1348 8.97671C13.1587 9.00131 13.1827 9.02591 13.1827 9.02591C13.1827 9.02591 13.2067 9.02591 13.2306 9.02591C13.2546 9.05051 13.3025 9.05051 13.3504 9.05051C13.3983 9.02591 13.3983 9.00131 13.4463 9.02591C13.4702 9.05051 13.5182 9.02591 13.5421 9.02591C13.638 9.00131 13.7098 9.00131 13.8057 9.02591C13.8776 9.02591 13.9255 9.12432 13.9495 9.17352C14.0213 9.32113 14.0693 9.46873 14.1412 9.61634C14.1412 9.64094 14.1651 9.64094 14.1651 9.64094C14.1651 9.66554 14.1891 9.69014 14.1891 9.71474C14.1891 9.73935 14.1891 9.78855 14.1891 9.83775C14.1651 9.93615 14.1651 10.01 14.1651 10.1084C14.1651 10.133 14.1651 10.1822 14.1891 10.2068C14.1891 10.2314 14.237 10.2806 14.237 10.3052C14.261 10.3544 14.2849 10.4036 14.3089 10.4282C14.3329 10.4774 14.3568 10.502 14.3808 10.5266C14.4047 10.625 14.4287 10.6742 14.4766 10.748C14.5245 10.8218 14.5485 10.8956 14.6204 10.9448C14.6683 10.9694 14.6204 10.871 14.6204 10.8464C14.5964 10.8218 14.5725 10.7972 14.5725 10.748C14.5964 10.6988 14.5725 10.6988 14.5485 10.6496C14.5245 10.625 14.4766 10.6004 14.4527 10.5512C14.4287 10.502 14.4527 10.4774 14.5006 10.502C14.5245 10.502 14.5485 10.5512 14.5485 10.5758C14.5725 10.625 14.5964 10.6496 14.5964 10.6742C14.6204 10.7234 14.6444 10.748 14.6683 10.7972C14.6923 10.8218 14.7162 10.8218 14.7402 10.871C14.7402 10.8956 14.7642 10.9448 14.7881 10.9694C14.8121 10.994 14.86 10.9694 14.884 11.0186C14.9079 11.0432 14.9079 11.0924 14.9319 11.117C15.0038 11.2646 15.1236 11.4122 15.2674 11.4122C15.3153 11.4122 15.3632 11.3876 15.3872 11.4122C15.4351 11.4122 15.4591 11.4368 15.507 11.4614C15.5549 11.5106 15.6268 11.5598 15.6987 11.5844C15.7226 11.5844 15.7706 11.5598 15.7945 11.5844C15.8424 11.609 15.8424 11.6582 15.8664 11.6828C15.8904 11.7074 15.9383 11.732 15.9622 11.732C15.9862 11.732 16.0102 11.732 16.0102 11.732C16.0341 11.7566 16.0341 11.7812 16.0581 11.8058C16.0821 11.8304 16.0821 11.7566 16.106 11.732C16.13 11.6828 16.1539 11.6828 16.2019 11.7074C16.2498 11.7566 16.2977 11.855 16.2737 11.9288C16.2498 11.9534 16.2258 11.978 16.2019 12.0272C16.1779 12.0518 16.1779 12.101 16.1539 12.1502C16.13 12.1994 16.1539 12.3225 16.1539 12.3717C16.1779 12.3963 16.1779 12.4455 16.1779 12.4947C16.1779 12.5439 16.2019 12.5685 16.2019 12.6177C16.2498 12.6915 16.2258 12.7653 16.2498 12.8391C16.2498 12.8883 16.2258 12.9375 16.2258 12.9621C16.2498 12.9867 16.2737 13.0359 16.2977 13.0605C16.3217 13.1097 16.3456 13.1343 16.3936 13.1589C16.3936 13.1835 16.3936 13.2573 16.3936 13.2819C16.3936 13.3065 16.3936 13.3311 16.3696 13.3557C16.3696 13.3803 16.3456 13.4049 16.3456 13.4295C16.3456 13.5033 16.3217 13.5525 16.2977 13.6017C16.2977 13.6263 16.2737 13.6509 16.2737 13.6755L16.2258 13.7001C16.2258 13.7493 16.2019 13.7739 16.2019 13.7985C16.1779 13.8231 16.1539 13.8477 16.1539 13.8723C16.1539 13.8969 16.1539 13.9215 16.1539 13.9461C16.1539 13.9953 16.1539 13.9707 16.13 13.9953C16.106 14.0445 16.0821 14.0937 16.0581 14.1429C16.0102 14.1921 15.9862 14.2413 15.9622 14.2905C15.9622 14.3397 15.9143 14.3889 15.8904 14.4381C15.9143 14.4381 15.9383 14.4627 15.9143 14.4873C15.9143 14.5119 15.8664 14.5119 15.8424 14.5365C15.8185 14.5612 15.7466 14.5858 15.7466 14.635C15.7226 14.6842 15.7706 14.7826 15.7226 14.8072C15.6987 14.8318 15.6507 14.9056 15.7226 14.9302C15.6747 14.9794 15.6268 15.0286 15.6987 15.1024C15.6987 15.1024 15.7466 15.127 15.7466 15.1516C15.7706 15.1762 15.7466 15.2254 15.7466 15.25C15.7945 15.25 15.7945 15.2254 15.8185 15.2254C15.8424 15.25 15.8424 15.25 15.8664 15.25C15.8664 15.2746 15.9143 15.2746 15.9143 15.2746C15.9383 15.25 15.9383 15.25 15.9143 15.2254C15.9143 15.2008 15.9143 15.2008 15.9143 15.1762C15.9143 15.1516 15.9143 15.127 15.9143 15.127C15.8904 15.0532 15.8664 15.1516 15.8424 15.1024C15.8424 15.0778 15.8424 15.0778 15.8664 15.0532C15.8904 15.0286 15.8904 15.0532 15.9143 15.0286C15.9622 15.0286 15.9622 15.004 15.9862 14.9548C16.0341 14.881 16.0581 14.8072 16.106 14.758C16.1539 14.6596 16.2019 14.6104 16.2737 14.5365C16.3456 14.4873 16.3936 14.4381 16.4415 14.4135C16.5134 14.3889 16.6092 14.3643 16.6811 14.3151C16.729 14.2659 16.7769 14.2167 16.8488 14.1429C16.8968 14.0937 16.9926 14.0691 17.0405 14.0199C17.0884 13.9953 17.1124 13.9953 17.1603 13.9707C17.2083 13.9707 17.2322 13.9461 17.2562 13.9215C17.3281 13.8723 17.376 13.8477 17.4479 13.7985C17.4958 13.7493 17.5437 13.6755 17.5916 13.6509C17.6635 13.6263 17.7115 13.6017 17.7594 13.5525C17.8073 13.5033 17.8792 13.4541 17.9031 13.3803C17.9271 13.3311 17.9271 13.3065 17.975 13.2819C17.975 13.2573 17.975 13.2081 17.999 13.1835C18.023 13.1097 18.0709 13.0605 18.1188 12.9867C18.1667 12.9375 18.1907 12.8883 18.2386 12.8145C18.2386 12.7899 18.2626 12.7407 18.2865 12.7161C18.3105 12.6915 18.2865 12.6669 18.2626 12.6177ZM15.9862 9.73934C16.0102 9.71474 16.0341 9.73935 16.0581 9.71474C16.0821 9.69014 16.106 9.71474 16.106 9.73934C16.13 9.76394 15.9862 9.76394 15.9622 9.76394L15.9862 9.73934ZM15.7466 9.71474C15.7945 9.71474 15.7945 9.71474 15.8424 9.73934C15.8664 9.76394 15.9383 9.78855 15.8904 9.81315C15.8664 9.81315 15.8185 9.78855 15.7945 9.78855C15.7706 9.76395 15.6747 9.71474 15.7466 9.71474ZM15.6987 9.73934C15.6747 9.76394 15.6028 9.91155 15.5549 9.88695C15.5549 9.86235 15.5789 9.86235 15.5789 9.83775C15.5789 9.81315 15.6028 9.78855 15.6028 9.76394C15.6028 9.71474 15.6747 9.69014 15.6987 9.73934ZM15.4591 9.61634C15.483 9.61634 15.5309 9.61634 15.5789 9.59174C15.6028 9.56714 15.507 9.54254 15.5309 9.49333C15.5549 9.46873 15.6268 9.54254 15.6507 9.54254C15.6747 9.56714 15.6747 9.61634 15.6987 9.66554C15.6507 9.66554 15.6028 9.66554 15.5549 9.66554C15.5309 9.66554 15.4351 9.66554 15.4591 9.61634Z" fill="white"/>
<path d="M16.5369 9.59138C16.5369 9.61598 16.5129 9.64058 16.4889 9.66518C16.441 9.66518 16.465 9.61598 16.465 9.59138C16.4889 9.56678 16.5129 9.51758 16.5369 9.51758C16.5848 9.51758 16.5848 9.56678 16.5369 9.59138Z" fill="white"/>
<path d="M16.5623 9.27172C16.5862 9.27172 16.6102 9.22252 16.6342 9.24712C16.6581 9.27172 16.6102 9.29632 16.6102 9.32092C16.6342 9.34553 16.73 9.32093 16.73 9.37013C16.754 9.39473 16.73 9.44393 16.706 9.44393C16.6821 9.44393 16.6581 9.41933 16.6581 9.39473C16.6342 9.37013 16.5383 9.46853 16.5143 9.41933C16.4904 9.37013 16.5383 9.29632 16.5623 9.27172Z" fill="white"/>
<path d="M16.0113 11.0183C16.0832 11.0429 16.1551 11.0921 16.227 11.0921C16.251 11.0921 16.2749 11.1167 16.2749 11.1413C16.2749 11.1659 16.203 11.1659 16.1791 11.1659C16.1072 11.1413 16.0593 11.1167 15.9874 11.0675C15.9634 11.0675 15.9395 11.0429 15.9395 10.9937C15.9395 10.9691 16.0113 11.0183 16.0113 11.0183Z" fill="white"/>
<path d="M16.5134 11.1415C16.5613 11.1415 16.6332 11.1169 16.6571 11.1907C16.6571 11.2399 16.6092 11.1907 16.6092 11.1907C16.5853 11.1907 16.5373 11.1907 16.5134 11.1907C16.4894 11.1907 16.4654 11.1907 16.4415 11.1661C16.4175 11.1661 16.4175 11.1415 16.3936 11.1169C16.3696 11.0923 16.4415 11.0923 16.4415 11.0923C16.4894 11.0923 16.4894 11.0923 16.5134 11.1415Z" fill="white"/>
<path d="M16.7285 11.2152C16.7525 11.1906 16.7525 11.1906 16.8004 11.2152C16.8004 11.2152 16.8244 11.2398 16.8244 11.2644C16.8244 11.289 16.7525 11.2398 16.7285 11.2398C16.7285 11.2152 16.7285 11.2152 16.7285 11.2152Z" fill="white"/>
<path d="M15.3643 8.8042C15.4123 8.8288 15.4362 8.8288 15.4602 8.8534C15.4602 8.9026 15.4602 8.9272 15.4123 8.9026C15.3643 8.9026 15.3404 8.878 15.3164 8.8534C15.3164 8.8288 15.3164 8.8042 15.3164 8.8042H15.3643Z" fill="white"/>
<path d="M18.2629 5.63086L18.2869 5.65546L18.1191 5.68006L18.1431 5.63086H18.2629Z" fill="white"/>
<path d="M1.92035 9.12402L2.04016 9.14862L1.99224 9.34543L3.42994 9.71445L3.50183 9.51764L3.62164 9.56684L3.35806 10.6985L3.21429 10.6739L3.26221 10.4525L1.82451 10.0589L1.77658 10.2803L1.63281 10.2557L1.92035 9.12402Z" fill="white"/>
<path d="M2.37648 7.86963L2.04102 8.70607L2.16082 8.77987L2.25667 8.55846L3.64645 9.12428L3.57457 9.32109L3.69438 9.37029L3.91003 8.80447L3.79022 8.73067L3.69438 8.92748L2.75987 8.55846L4.07776 8.38625L4.38927 7.79583L2.95156 6.98399L3.07137 6.78718L2.95156 6.71338L2.64006 7.2792L2.75987 7.35301L2.87968 7.1562L3.76626 7.67282L2.37648 7.86963Z" fill="white"/>
<path d="M3.07031 6.51632C3.11824 6.36872 4.22048 4.91725 4.36425 4.81885L4.67575 5.11406L4.55594 5.23707L4.43613 5.13866C4.43613 5.13866 4.19651 5.26167 4.02878 5.45847L5.10706 6.34411V6.68853L4.74763 7.20515L4.62783 7.13135L4.74763 6.95914L3.59747 6.0243C3.59747 6.0243 3.42974 6.31951 3.38181 6.51632L3.50162 6.63933L3.42974 6.73773L3.07031 6.51632Z" fill="white"/>
<path d="M4.50977 4.67153C4.53373 4.59773 5.82766 3.41688 5.97143 3.36768L6.21105 3.71209L6.1152 3.81049L5.99539 3.66289C5.99539 3.66289 5.65993 3.76129 5.3005 4.10571L5.73181 4.59773C5.73181 4.59773 5.97143 4.47472 5.94747 4.40092L5.85162 4.30252L5.94747 4.20411L6.25897 4.59773L6.16313 4.67153L6.04332 4.54853L5.85162 4.72074C5.85162 4.72074 5.85162 4.74533 5.85162 4.76994C5.87558 4.76994 6.28293 5.23736 6.28293 5.23736C6.28293 5.23736 6.28293 5.23736 6.3069 5.21276C6.35482 5.18815 6.69028 4.84374 6.71425 4.72074C6.71425 4.72074 6.69028 4.67153 6.64236 4.62233C6.59444 4.57313 6.6184 4.57313 6.6184 4.57313L6.73821 4.47472L7.00179 4.86834L6.16313 5.55717H5.58804L4.74938 4.59773L4.60561 4.76994L4.50977 4.67153Z" fill="white"/>
<path d="M8.96589 2.03916L8.91797 1.89155L9.70871 1.67014L10.7151 2.62958L10.6193 1.64554L10.4036 1.67014L10.3796 1.54713L11.0026 1.44873L11.0266 1.59634L10.8109 1.64554L11.0026 3.29381L10.4515 3.36761L9.46909 2.40817L9.73267 3.39222L9.9004 3.34301L9.92436 3.49062L9.3972 3.63823L9.34928 3.51522L9.54097 3.46602L9.13362 1.98995L8.96589 2.03916Z" fill="white"/>
<path d="M13.3753 3.17069L12.7044 1.42401L12.1293 1.39941L11.3865 3.09689L11.2188 3.12149L11.2427 3.26909C11.3146 3.24449 11.7938 3.24449 11.7938 3.24449L11.7699 3.07229H11.6261L11.7699 2.70327L12.4408 2.67867L12.6085 3.07229L12.4168 3.09689L12.4408 3.24449C12.5846 3.21989 13.543 3.3429 13.543 3.3429V3.19529L13.3753 3.17069ZM11.8418 2.55566L12.1533 1.89144L12.3929 2.55566H11.8418Z" fill="white"/>
<path d="M13.6621 1.96501C13.6621 1.96501 13.734 1.59599 13.758 1.54679C13.758 1.52219 14.98 1.7436 15.6989 2.06341L15.579 2.48163L15.4113 2.43242L15.4592 2.26022C15.4592 2.26022 15.0998 2.03881 15.0519 2.03881C15.0519 2.03881 14.6925 3.44107 14.6925 3.46567L14.8842 3.53947L14.8602 3.68708C14.8602 3.68708 13.8538 3.36727 13.734 3.36727L13.758 3.24426L13.9736 3.26886L14.333 1.8666L13.8538 1.842L13.8059 1.98961L13.6621 1.96501Z" fill="white"/>
<path d="M15.9635 2.16211C15.9635 2.16211 16.9939 2.62953 16.9939 2.65413C17.0178 2.67873 16.9459 2.80174 16.9459 2.80174L16.7543 2.70333L16.1312 4.05639L16.3229 4.1794L16.2511 4.3024C16.2511 4.3024 15.3166 3.81038 15.2207 3.81038L15.2447 3.68737L15.4603 3.76118L16.0833 2.38352L15.8916 2.26051L15.9635 2.16211Z" fill="white"/>
<path d="M18.5992 3.73674L17.8564 3.19552C17.0417 2.90031 16.7062 3.39233 16.6104 3.78595C16.4906 4.32717 16.85 4.59778 16.85 4.59778C16.85 4.59778 17.3532 5.0652 17.473 5.1144C17.9043 5.36041 18.4554 5.23741 18.6951 4.84379C19.0545 4.22876 18.5992 3.73674 18.5992 3.73674ZM18.2877 3.85975C18.2398 4.03196 18.1919 4.17956 17.7606 4.72079C17.7606 4.72079 17.5928 4.9668 17.3772 4.86839C17.3772 4.86839 17.2334 4.76999 17.2094 4.74539C17.1615 4.69619 17.1136 4.64698 17.1136 4.54858C17.1375 4.45017 17.1136 4.37637 17.2094 4.25337C17.2813 4.13036 17.5928 3.66294 17.5928 3.66294C17.5928 3.66294 17.7366 3.46613 17.8324 3.46613C17.9043 3.46613 17.9762 3.46613 18.0241 3.49073C18.0721 3.49073 18.1439 3.56454 18.1439 3.56454C18.1439 3.56454 18.3356 3.66294 18.2877 3.85975Z" fill="white"/>
<path d="M18.4062 5.65523L18.4302 5.63063H18.6938L18.6459 5.65523H18.4062ZM18.5021 5.55683L19.3887 4.64659L19.2449 4.47438L19.3408 4.37598L19.9398 5.0156L19.796 6.27026L20.3951 5.80284L20.2753 5.63063L20.3951 5.53223L20.7785 6.07345L20.6586 6.17186L20.5388 5.99965L19.2209 6.95909L19.0293 6.71308V6.54087L19.173 5.13861L18.7657 5.55683H18.5021Z" fill="white"/>
<path d="M21.6182 7.59873L21.3067 7.0083L19.5575 7.22971L19.4376 7.0575L19.3418 7.13131L19.6533 7.62333L19.7491 7.54952L19.6773 7.37732L20.0606 7.32811L20.3961 7.96774L20.1325 8.26296L19.9648 7.94314L19.845 7.99234L20.3721 9.247L20.492 9.1978L20.468 9.02559L21.6182 7.59873ZM20.2284 7.30351V7.32811L20.9952 7.22971L20.492 7.82014L20.2284 7.30351Z" fill="white"/>
<path d="M22.0962 9.24717L22.0483 9.00116L22.1681 8.97656L22.4796 10.1574L22.3358 10.2066L22.2639 9.9606L20.8502 10.3296C20.8502 10.3296 20.9221 10.8462 21.0419 10.8954H21.2575V11.0677L20.8262 11.1415C20.8262 11.1415 20.5626 9.54239 20.4668 9.44398L20.5626 9.39478L20.6585 9.61619L22.0962 9.24717Z" fill="white"/>
<path d="M4.48401 17.1933L4.07666 16.4306C3.45365 15.8894 2.95046 16.2338 2.7348 16.529C2.4233 16.9719 2.61499 17.3409 2.61499 17.3409C2.61499 17.3409 2.90253 17.9313 2.97442 18.0297C3.26196 18.4233 3.83704 18.4233 4.17251 18.1773C4.62778 17.8083 4.48401 17.1933 4.48401 17.1933ZM4.19647 17.2425C4.17251 17.2671 3.861 17.5131 3.35781 17.7837C3.35781 17.7837 3.14215 17.9067 2.99838 17.7591C2.99838 17.7591 2.87857 17.6361 2.87857 17.5869C2.85461 17.5377 2.83065 17.4885 2.87857 17.3901C2.9265 17.3163 2.9265 17.2425 3.0463 17.1687C3.16611 17.0949 3.64535 16.7997 3.64535 16.7997C3.64535 16.7997 3.861 16.6767 3.93289 16.7259C4.02874 16.7505 4.07666 16.7751 4.10062 16.7997C4.14854 16.8489 4.17251 16.9227 4.17251 16.9227C4.17251 16.9227 4.31628 17.0949 4.19647 17.2425Z" fill="white"/>
<path d="M3.14307 13.7491L3.11911 13.5031L3.26288 13.4785C3.26288 13.4785 3.38269 14.3642 3.40665 14.4134C3.45457 14.438 2.63988 14.9792 2.63988 14.9792L3.57438 15.1022L3.88589 15.914L3.76608 15.9878L3.64627 15.7418L2.25649 16.2584L2.32837 16.4798L2.20856 16.529L1.82517 15.3974L1.94498 15.3482L2.04083 15.5696L2.97534 15.2006L1.75329 15.0776L1.65744 14.7086L2.71176 14.0197L1.70537 14.1919L1.75329 14.3888L1.63348 14.438L1.51367 13.7983L1.63348 13.7737L1.6814 13.9951L3.14307 13.7491Z" fill="white"/>
<path d="M3.69327 18.9152L3.5495 18.7184L3.42969 18.7922L3.83704 19.3334L3.93288 19.2596L3.78911 19.0628L4.60381 18.4232L4.29231 19.8747L4.74758 20.3421L5.87379 19.1366L5.99359 19.2596L6.06548 19.1366L5.70605 18.7676L5.61021 18.866L5.73002 19.0136L5.01116 19.7517L5.32267 18.3002L4.86739 17.7344L4.74758 17.8328L4.86739 17.9558L3.69327 18.9152Z" fill="white"/>
<path d="M6.32947 20.613L5.8742 21.1296C5.8742 21.1296 6.1857 21.4002 6.47324 21.474L6.59305 21.2772L6.73682 21.3756L6.4972 21.7447C6.4972 21.7447 5.25119 20.8344 5.10742 20.6622L5.17931 20.5638L5.32308 20.6868L6.25759 19.4814L6.13778 19.3584L6.20966 19.2354C6.20966 19.2354 6.90455 19.875 7.47963 20.2194L7.24002 20.613L7.12021 20.5392L7.21605 20.3424C7.21605 20.3424 7.0004 19.998 6.80871 19.9242L6.40136 20.4654L6.59305 20.613L6.6889 20.5146L6.80871 20.5884L6.56909 20.982L6.44928 20.9328L6.54513 20.7606L6.32947 20.613Z" fill="white"/>
<path d="M7.43245 20.6866L7.62415 20.293C7.62415 20.293 8.72639 20.908 9.32543 21.0802L9.20562 21.4984L9.03789 21.4492L9.08581 21.277C9.08581 21.277 8.75035 21.031 8.72639 21.0064L8.12734 22.4087L8.31904 22.4825L8.27111 22.6055L7.2168 22.1381L7.26472 22.015L7.48038 22.1135L8.05546 20.7112C8.05546 20.7112 7.74395 20.6128 7.64811 20.662L7.55226 20.7604L7.43245 20.6866Z" fill="white"/>
<path d="M9.61358 23.0238C9.70943 23.0484 10.8117 23.2452 10.8117 23.2452V23.0976H10.6919L10.3564 21.3509L9.70943 21.1787L8.65511 22.581L8.48738 22.5564L8.43945 22.6548L8.94265 22.8516L9.01453 22.7532L8.8468 22.6794L9.08642 22.3596L9.8532 22.5564L9.90112 22.95L9.61358 22.9254V23.0238ZM9.18227 22.212L9.6615 21.6461L9.82923 22.4088L9.18227 22.212Z" fill="white"/>
<path d="M9.1327 3.56418L9.10874 3.58879C9.10874 3.58879 9.03685 3.61339 8.98893 3.61339C8.96496 3.61339 8.89308 3.56418 8.86912 3.53958C8.86912 3.51498 8.77327 3.31817 8.74931 3.29357C8.72535 3.29357 8.60554 3.14597 8.48573 3.17057C8.36592 3.19517 8.29404 3.17057 8.29404 3.17057C8.74931 2.77695 8.34196 2.21113 7.95857 2.26033C7.62311 2.30953 6.28125 3.17057 6.28125 3.17057L6.3771 3.26897L6.54483 3.17057L7.26368 4.49903L7.09595 4.62203L7.1918 4.72044L8.1263 4.17921L8.05442 4.03161C8.05442 4.03161 7.98254 4.10541 7.93461 4.10541C7.88669 4.13001 7.88669 4.10541 7.88669 4.10541L7.57518 3.51498L7.83876 3.39198C7.83876 3.39198 7.93461 3.36738 7.98253 3.34278C8.0065 3.34278 8.05442 3.39198 8.05442 3.39198C8.05442 3.39198 8.27007 3.81019 8.318 3.884C8.34196 3.9332 8.43781 3.9332 8.46177 3.9332C8.48573 3.9578 8.72535 3.884 8.72535 3.884L9.18062 3.71179L9.1327 3.56418ZM7.83876 3.19517C7.8148 3.24437 7.5033 3.39198 7.5033 3.39198L7.16783 2.77695L7.52726 2.60474C7.52726 2.60474 7.62311 2.58014 7.67103 2.62935C7.71895 2.67855 7.91065 3.07216 7.91065 3.07216C7.91065 3.07216 7.88669 3.17057 7.83876 3.19517Z" fill="white"/>
<path d="M13.2792 23.0975L13.2552 23.1221C13.2552 23.1221 13.1115 23.1221 13.0635 23.0729C13.0635 23.0483 13.0635 23.0483 13.0396 23.0483C13.0635 23.0483 13.0635 23.0237 13.0396 22.9253C13.0396 22.6793 12.776 22.4825 12.776 22.4825C12.776 22.4825 13.1354 22.2857 13.1354 21.9904C13.1354 21.6952 12.8719 21.523 12.8 21.523C12.7281 21.4984 12.5843 21.4984 12.5843 21.4984C12.153 21.5476 11.0508 21.4492 11.0508 21.4492L11.0747 21.5968L11.2425 21.6214L11.1706 23.1221H11.0028C11.0028 23.1221 10.9789 23.2697 11.0028 23.2697C11.0268 23.2697 12.0572 23.3189 12.0572 23.3189L12.0332 23.1713H11.8894L11.9134 22.4825C11.9134 22.4825 12.2249 22.4825 12.2488 22.4825C12.2728 22.4579 12.3447 22.6055 12.3447 22.6055C12.3447 22.6055 12.3687 23.1221 12.3687 23.1467C12.3687 23.1713 12.4885 23.2697 12.5364 23.2943C12.5843 23.2943 13.3271 23.2451 13.3271 23.2451L13.2792 23.0975ZM12.3687 22.2365C12.3687 22.2365 12.3687 22.3103 12.3207 22.3349C12.2728 22.3349 11.9373 22.3349 11.9373 22.3349L11.9853 21.646H12.3207C12.3207 21.646 12.3687 21.6952 12.3926 21.7198C12.3926 21.769 12.3687 22.2365 12.3687 22.2365Z" fill="white"/>
<path d="M13.1582 21.4249L14.3084 21.2281C14.3084 21.2281 14.3563 21.3265 14.3563 21.3511C14.3563 21.3757 14.1886 21.3511 14.2125 21.4003C14.2125 21.4249 14.7636 21.8431 14.7636 21.8431C14.7636 21.8431 15.0991 21.2035 15.0751 21.1051L14.9314 21.1543L14.8834 21.0313L15.4106 20.8345L15.4825 20.9329L15.3148 21.0313L14.9074 22.0399L15.0751 22.7042L15.2668 22.6796L15.3148 22.8026L14.2125 23.0732L14.1646 22.9748L14.3803 22.901L14.2125 22.2367L13.3259 21.5479L13.1822 21.5725L13.1582 21.4249Z" fill="white"/>
<path d="M16.3457 20.367C16.3457 20.367 17.5198 19.6782 17.7355 19.3584L18.023 19.7274L17.9032 19.8504L17.7594 19.7028C17.7594 19.7028 17.3761 19.8012 17.2083 19.9734L17.5677 20.5638L17.7834 20.3916L17.7115 20.244L17.8553 20.1456L18.1428 20.5146L17.9991 20.6377L17.9032 20.5146L17.6636 20.6869L17.9991 21.2527L18.1668 21.1297L18.2626 21.2527L17.3042 21.9169L17.2083 21.7939L17.3761 21.6709L16.6093 20.367L16.3936 20.4654L16.3457 20.367Z" fill="white"/>
<path d="M17.9043 19.2598L18.6232 18.4725L18.743 18.5955L18.6232 18.7185L19.4139 19.555C19.4139 19.555 19.6056 19.678 19.7733 19.555C19.9411 19.4566 20.0609 19.3582 20.0129 19.1368C19.965 18.9399 19.9171 18.9399 19.8692 18.8907C19.7973 18.8415 19.0784 18.1773 19.0784 18.1773L18.9586 18.3495L18.8388 18.2265L19.1743 17.7837L19.2941 17.8821L19.1982 18.0297L20.0129 18.7431C20.0129 18.7431 20.2046 19.0383 20.2046 19.2106C20.1807 19.3828 20.1567 19.4812 20.1327 19.5058C20.0848 19.555 19.6056 20.0716 19.6056 20.0716C19.6056 20.0716 19.366 20.2192 19.2462 20.2192C19.1503 20.2192 18.9586 20.1454 18.9107 20.0716C18.8388 20.0224 18.096 19.2352 18.096 19.2352L17.9762 19.3582L17.9043 19.2598Z" fill="white"/>
<path d="M19.3888 17.7099L19.293 17.6361L19.6284 17.0457L21.0661 16.7505L20.2035 16.3077L20.1077 16.4799L19.9879 16.4061L20.2275 15.9141L20.3473 15.9633L20.2754 16.1355L21.7371 16.8489L21.4735 17.4393L20.0597 17.6853L20.8265 18.2758L20.9463 18.0544L21.0661 18.1282L20.7067 18.6694L20.6109 18.5956L20.7307 18.3988L19.5086 17.5623L19.3888 17.7099Z" fill="white"/>
<path d="M21.6407 13.8969C20.9937 13.7493 20.7062 14.3643 20.7062 14.3643L20.2988 15.742L20.4186 15.7912L20.4905 15.5944L21.8803 16.0864L21.8084 16.3324L21.9522 16.3816C21.9522 16.3816 22.3835 15.1023 22.3835 14.8071C22.4075 14.5119 22.1918 14.0199 21.6407 13.8969ZM22.2158 15.0285L22.1199 15.3976C22.1199 15.3976 20.7062 14.9301 20.7062 14.9055C20.7062 14.9055 20.7301 14.7333 20.7541 14.6103C20.802 14.4873 20.9218 14.5365 20.9218 14.5365C20.9218 14.5365 21.9761 14.8317 22.1199 14.8809C22.2637 14.9055 22.2158 15.0285 22.2158 15.0285Z" fill="white"/>
<path d="M2.1605 12.0515L2.35219 11.5103L2.49596 12.0515H3.04708L2.59181 12.3959L2.75954 12.9371L2.32823 12.5927L1.84899 12.9617L2.04069 12.3959L1.60938 12.0515H2.1605Z" fill="white"/>
<path d="M21.5941 12.1994L21.7858 11.6582L21.9295 12.1994H22.4807L22.0254 12.5438L22.2171 13.0851L21.7618 12.7407L21.2826 13.1097L21.4743 12.5438L21.043 12.1994H21.5941Z" fill="white"/>
</g>
<defs>
<clipPath id="clip0_6194_139408">
<rect width="22" height="23" fill="white" transform="translate(0.996094 0.859375)"/>
</clipPath>
</defs>
</svg>
