<svg width="26" height="26" viewBox="0 0 26 26" fill="none" xmlns="http://www.w3.org/2000/svg">
<g clip-path="url(#clip0_6194_138785)">
<path d="M18.7667 0.903809H7.56492C3.76087 0.903809 0.666016 3.99881 0.666016 7.80286V19.0046C0.666016 22.8088 3.76087 25.9037 7.56492 25.9037H18.7667C22.571 25.9037 25.6659 22.8087 25.6659 19.0046V7.80286C25.666 3.99881 22.571 0.903809 18.7667 0.903809ZM23.4479 19.0046C23.4479 21.5857 21.348 23.6856 18.7668 23.6856H7.56492C4.98393 23.6857 2.88412 21.5857 2.88412 19.0046V7.80286C2.88412 5.22187 4.98393 3.12192 7.56492 3.12192H18.7667C21.3478 3.12192 23.4478 5.22187 23.4478 7.80286V19.0046H23.4479Z" fill="white"/>
<path d="M13.1664 6.9624C9.61436 6.9624 6.72461 9.85215 6.72461 13.4042C6.72461 16.9562 9.61436 19.8458 13.1664 19.8458C16.7185 19.8458 19.6083 16.9562 19.6083 13.4042C19.6083 9.85215 16.7185 6.9624 13.1664 6.9624ZM13.1664 17.6275C10.8376 17.6275 8.94272 15.7329 8.94272 13.4041C8.94272 11.0751 10.8374 9.18036 13.1664 9.18036C15.4954 9.18036 17.3902 11.0751 17.3902 13.4041C17.3902 15.7329 15.4953 17.6275 13.1664 17.6275Z" fill="white"/>
<path d="M19.8786 5.08154C19.4512 5.08154 19.0314 5.25456 18.7296 5.5577C18.4263 5.85936 18.252 6.27932 18.252 6.70816C18.252 7.13566 18.4264 7.55547 18.7296 7.85861C19.0312 8.16028 19.4512 8.33477 19.8786 8.33477C20.3074 8.33477 20.7259 8.16028 21.029 7.85861C21.3322 7.55547 21.5052 7.13551 21.5052 6.70816C21.5052 6.27932 21.3322 5.85936 21.029 5.5577C20.7274 5.25456 20.3074 5.08154 19.8786 5.08154Z" fill="white"/>
</g>
<defs>
<clipPath id="clip0_6194_138785">
<rect width="25" height="25" fill="white" transform="translate(0.666016 0.903809)"/>
</clipPath>
</defs>
</svg>
