<svg width="22" height="15" viewBox="0 0 22 15" fill="none" xmlns="http://www.w3.org/2000/svg">
<path d="M0.159321 3.65733H1.69152V13.0509H0.159321V3.65733ZM0.928809 0.859375C1.44067 0.859375 1.85762 1.29272 1.85762 1.85231C1.85762 2.39825 1.43728 2.84524 0.928809 2.84524C0.406778 2.84524 0 2.39825 0 1.85231C0 1.29272 0.406778 0.859375 0.928809 0.859375Z" fill="white"/>
<path d="M4.67477 10.3896C4.67477 11.4679 5.19681 11.9285 5.8646 11.9285C6.53239 11.9285 7.05442 11.4372 7.05442 10.376V6.44178C7.05442 5.36355 6.53239 4.88926 5.8646 4.88926C5.19681 4.88926 4.67477 5.36355 4.67477 6.44178V10.3896ZM8.59001 10.376C8.59001 11.287 8.329 11.9865 7.79002 12.5052C7.25442 13.0238 6.67816 13.2899 6.06121 13.2899C5.51206 13.2899 5.05443 13.15 4.67477 12.8566V14.8595H3.14258V6.44178C3.14258 5.53074 3.40359 4.83125 3.94257 4.31602C4.47817 3.78372 5.11884 3.51758 5.86799 3.51758C6.61375 3.51758 7.25442 3.78372 7.7934 4.31602C8.329 4.83466 8.5934 5.53415 8.5934 6.44178V10.376H8.59001Z" fill="white"/>
<path d="M15.3043 10.376C15.3043 11.287 15.0433 11.9865 14.5043 12.5051C13.9688 13.0238 13.3247 13.2899 12.5789 13.2899C11.8332 13.2899 11.1925 13.0238 10.6535 12.5051C10.1179 11.9865 9.85352 11.287 9.85352 10.376V6.44178C9.85352 5.53074 10.1145 4.83125 10.6535 4.31602C11.1891 3.78372 11.8298 3.51758 12.5789 3.51758C13.3247 3.51758 13.9654 3.78372 14.5043 4.31602C15.0399 4.83466 15.3043 5.53415 15.3043 6.44178V6.62262H13.7721V6.44178C13.7721 5.36354 13.2501 4.88926 12.5823 4.88926C11.9145 4.88926 11.3925 5.36354 11.3925 6.44178V10.3896C11.3925 11.4679 11.9145 11.9285 12.5823 11.9285C13.2501 11.9285 13.7721 11.4371 13.7721 10.376V9.42399H15.3043V10.376Z" fill="white"/>
<path d="M21.9963 10.376C21.9963 11.287 21.7352 11.9865 21.1963 12.5051C20.6607 13.0238 20.0166 13.2899 19.2708 13.2899C18.5251 13.2899 17.8844 13.0238 17.3454 12.5051C16.8098 11.9865 16.5488 11.287 16.5488 10.376V6.44178C16.5488 5.53074 16.8098 4.83125 17.3488 4.31602C17.8844 3.78372 18.5251 3.51758 19.2742 3.51758C20.02 3.51758 20.6607 3.78372 21.1997 4.31602C21.7352 4.83466 21.9997 5.53415 21.9997 6.44178V6.62262H20.4675V6.44178C20.4675 5.36354 19.9454 4.88926 19.2776 4.88926C18.6098 4.88926 18.0878 5.36354 18.0878 6.44178V10.3896C18.0878 11.4679 18.6098 11.9285 19.2776 11.9285C19.9454 11.9285 20.4675 11.4371 20.4675 10.376V9.42399H21.9997V10.376H21.9963Z" fill="white"/>
</svg>
