<svg width="23" height="23" viewBox="0 0 23 23" fill="none" xmlns="http://www.w3.org/2000/svg">
<path d="M5.67362 15.1195V15.2761H2.99414V15.1195H3.21551C3.47377 15.1195 3.66132 15.0504 3.77815 14.9122C3.85194 14.8219 3.88884 14.6047 3.88884 14.2605V10.5539C3.88884 10.2634 3.86885 10.0715 3.82888 9.97845C3.79814 9.90793 3.73511 9.84728 3.6398 9.79651C3.50452 9.72881 3.36309 9.69496 3.21551 9.69496H2.99414V9.5384H5.67362V9.69496H5.44764C5.19245 9.69496 5.00644 9.76407 4.88961 9.90229C4.81274 9.99256 4.77431 10.2098 4.77431 10.5539V14.2605C4.77431 14.5511 4.79429 14.7429 4.83426 14.836C4.86501 14.9065 4.92957 14.9672 5.02796 15.0179C5.16017 15.0856 5.30006 15.1195 5.44764 15.1195H5.67362Z" fill="white"/>
<path d="M10.2347 9.40723V11.3917H10.0641C10.0087 11.0109 9.90882 10.7076 9.76432 10.482C9.62289 10.2563 9.41997 10.0772 9.15556 9.9446C8.89114 9.81202 8.61751 9.74573 8.33465 9.74573C8.01489 9.74573 7.75048 9.836 7.54141 10.0165C7.33234 10.1943 7.22781 10.3974 7.22781 10.6258C7.22781 10.8007 7.29391 10.9601 7.42612 11.104C7.61674 11.3155 8.07024 11.5976 8.78661 11.9502C9.37077 12.238 9.76893 12.4594 9.98107 12.6146C10.1963 12.7669 10.3608 12.9474 10.4745 13.1562C10.5914 13.3649 10.6498 13.5835 10.6498 13.812C10.6498 14.2464 10.4653 14.6216 10.0964 14.9376C9.7305 15.2507 9.25855 15.4072 8.68054 15.4072C8.49914 15.4072 8.3285 15.3945 8.16862 15.3691C8.07331 15.355 7.875 15.3043 7.57369 15.2168C7.27546 15.1265 7.08638 15.0814 7.00644 15.0814C6.92958 15.0814 6.86808 15.1026 6.82197 15.1449C6.77892 15.1872 6.74664 15.2746 6.72512 15.4072H6.55448V13.4397H6.72512C6.80506 13.8515 6.91266 14.1604 7.04795 14.3663C7.18323 14.5694 7.38922 14.7387 7.66593 14.8741C7.94572 15.0095 8.25164 15.0772 8.58369 15.0772C8.96801 15.0772 9.27085 14.9841 9.49222 14.7979C9.71666 14.6117 9.82888 14.3917 9.82888 14.1378C9.82888 13.9968 9.78584 13.8543 9.69975 13.7105C9.61674 13.5666 9.48607 13.4326 9.30775 13.3085C9.18784 13.2239 8.8604 13.0447 8.32542 12.7711C7.79045 12.4947 7.40921 12.2746 7.18169 12.111C6.95725 11.9474 6.78661 11.7669 6.66977 11.5694C6.55294 11.372 6.49453 11.1548 6.49453 10.9178C6.49453 10.506 6.6667 10.1519 7.01105 9.85575C7.3554 9.55673 7.79353 9.40723 8.32542 9.40723C8.65748 9.40723 9.00951 9.48198 9.38154 9.63149C9.55371 9.70201 9.67516 9.73727 9.74587 9.73727C9.82581 9.73727 9.89037 9.71611 9.93957 9.6738C9.99183 9.62867 10.0333 9.53981 10.0641 9.40723H10.2347Z" fill="white"/>
<path d="M14.0764 15.1195V15.2761H11.3969V15.1195H11.6183C11.8765 15.1195 12.0641 15.0504 12.1809 14.9122C12.2547 14.8219 12.2916 14.6047 12.2916 14.2605V10.5539C12.2916 10.2634 12.2716 10.0715 12.2317 9.97845C12.2009 9.90793 12.1379 9.84728 12.0426 9.79651C11.9073 9.72881 11.7659 9.69496 11.6183 9.69496H11.3969V9.5384H14.0764V9.69496H13.8504C13.5952 9.69496 13.4092 9.76407 13.2924 9.90229C13.2155 9.99256 13.1771 10.2098 13.1771 10.5539V14.2605C13.1771 14.5511 13.1971 14.7429 13.237 14.836C13.2678 14.9065 13.3323 14.9672 13.4307 15.0179C13.5629 15.0856 13.7028 15.1195 13.8504 15.1195H14.0764Z" fill="white"/>
<path d="M14.1825 9.5384H15.8796L19.7028 13.8416V10.5328C19.7028 10.1801 19.6598 9.96012 19.5737 9.87267C19.4599 9.75419 19.2801 9.69496 19.0341 9.69496H18.8174V9.5384H20.9941V9.69496H20.7728C20.5084 9.69496 20.3208 9.7683 20.2101 9.91498C20.1425 10.0053 20.1087 10.2112 20.1087 10.5328V15.3691H19.9426L15.8197 10.7486V14.2817C15.8197 14.6343 15.8612 14.8543 15.9442 14.9418C16.061 15.0603 16.2409 15.1195 16.4838 15.1195H16.7051V15.2761H14.5283V15.1195H14.7451C15.0126 15.1195 15.2017 15.0462 15.3124 14.8995C15.38 14.8092 15.4138 14.6033 15.4138 14.2817V10.2916C15.2324 10.0969 15.0941 9.96858 14.9988 9.90652C14.9065 9.84446 14.7697 9.78663 14.5883 9.73304C14.4991 9.70765 14.3639 9.69496 14.1825 9.69496V9.5384Z" fill="white"/>
</svg>
