<svg width="26" height="22" viewBox="0 0 26 22" fill="none" xmlns="http://www.w3.org/2000/svg">
<path d="M6.45385 8.87331V6.65576H0.666016V8.87331H1.99388V13.6168H0.666016V15.8343H6.45385V13.6168H5.12598V8.87331H6.45385Z" fill="white"/>
<path d="M12.8415 10.1774C12.4838 10.0734 10.643 9.54651 10.3243 9.44244C10.0056 9.33837 9.74546 9.18877 9.74546 9.00014C9.74546 8.81152 10.0381 8.60989 10.63 8.60989C12.4968 8.60989 13.3935 9.76115 13.3935 9.76115C13.3935 9.76115 13.4946 9.89576 13.5285 9.94405H15.3295V6.8031H13.396V7.37454C13.2484 7.27255 12.1581 6.56104 10.4674 6.56104C8.23646 6.56104 6.99414 7.7188 6.99414 9.44894C6.99414 11.1791 8.56168 11.8946 8.99746 12.0767C9.43325 12.2588 11.1374 12.7401 11.8659 12.9678C12.5943 13.1954 12.861 13.358 12.861 13.4751C12.861 13.5922 12.5423 13.8979 11.6317 13.8979C10.0455 13.8979 9.2287 12.9625 9.08535 12.7814V12.78C9.03977 12.7189 8.98628 12.6466 8.96812 12.6194C8.94709 12.5879 8.89834 12.518 8.86452 12.4697H7.0635V15.8239H9.08535V15.1235C9.3206 15.2801 10.5248 16.0313 11.9699 16.0313C13.583 16.0313 15.6383 15.3288 15.6383 13.1369C15.6383 10.9449 13.1992 10.2815 12.8415 10.1774Z" fill="white"/>
<path d="M20.7695 6.53027C18.0804 6.53027 15.875 7.87474 15.875 11.3068C15.875 14.7388 18.2692 16.0243 20.7812 16.0243C23.2933 16.0243 25.6639 14.7506 25.6639 11.3422C25.6639 7.93385 23.2934 6.53027 20.7695 6.53027ZM20.7931 13.7363C19.8731 13.7363 19.2834 13.524 19.2834 11.295C19.2834 9.06596 19.7198 8.83009 20.8284 8.83009C21.5006 8.83009 22.3145 8.87723 22.3145 11.2242C22.3145 13.5712 21.713 13.7363 20.7931 13.7363Z" fill="white"/>
<path d="M4.52407 5.64346C5.12856 4.75086 5.87192 3.95963 6.72408 3.30254C7.06866 3.5573 7.43493 3.78838 7.81998 3.99434C7.17486 4.71345 6.59686 5.51015 6.50112 5.64346H6.8882C7.12053 5.33032 7.60112 4.70039 8.10789 4.14191C8.66179 4.4142 9.25046 4.63691 9.86467 4.80654C9.70118 5.1534 9.5776 5.45671 9.50506 5.64346H9.84136C9.91863 5.45114 10.0319 5.1829 10.1731 4.88652C10.9567 5.07795 11.7777 5.18525 12.6175 5.20158V5.64351H12.9298V5.20309C13.7635 5.19701 14.58 5.10199 15.3607 4.92346C15.4938 5.20502 15.601 5.45921 15.675 5.64346H16.0113C15.9416 5.4641 15.8249 5.17739 15.6709 4.84754C16.2961 4.68488 16.896 4.468 17.461 4.19998C17.9483 4.74363 18.4039 5.34119 18.6282 5.64346H19.0153C18.9225 5.51426 18.3744 4.75856 17.7516 4.05615C18.1798 3.83485 18.5858 3.58306 18.9653 3.30254C19.8174 3.95963 20.5608 4.75086 21.1653 5.64346H21.5408C19.6942 2.79349 16.4861 0.903809 12.8446 0.903809C9.20316 0.903809 5.99503 2.79349 4.14844 5.64346H4.52407V5.64346ZM10.004 4.52103C9.41972 4.36321 8.85916 4.15632 8.3307 3.90322C8.4025 3.82861 8.47426 3.75633 8.54518 3.68791C9.26882 2.99007 10.4591 2.22382 10.72 2.05887C10.9317 2.17516 11.1627 2.27351 11.4085 2.35156C11.2176 2.60184 10.8429 3.10991 10.4348 3.75435C10.2759 4.00516 10.1312 4.26876 10.004 4.52103ZM12.6175 4.88927C11.8268 4.87346 11.0537 4.77501 10.3147 4.59976C10.4303 4.37382 10.5592 4.14133 10.6985 3.92144C11.1687 3.17906 11.5929 2.62167 11.7342 2.44033C12.0162 2.50657 12.3125 2.54846 12.6175 2.56214V4.88927ZM12.9298 4.89084V2.56568C13.2307 2.56058 13.5251 2.52874 13.8068 2.47207C13.9684 2.68099 14.3726 3.21819 14.8179 3.92144C14.9645 4.15283 15.0996 4.39812 15.2197 4.63514C14.4833 4.79801 13.7147 4.88501 12.9298 4.89084ZM15.5327 4.5612C15.4007 4.29686 15.2489 4.01848 15.0816 3.75435C14.6946 3.14316 14.3374 2.65456 14.1388 2.3922C14.4002 2.31878 14.6469 2.22335 14.8735 2.10788C15.2398 2.34266 16.3036 3.04408 16.9712 3.68791C17.0598 3.7734 17.1496 3.86472 17.2393 3.95942C16.6998 4.20851 16.128 4.41014 15.5327 4.5612ZM18.7038 3.10736C18.3376 3.37174 17.9462 3.60861 17.5342 3.81685C17.419 3.69332 17.3029 3.574 17.1879 3.46317C16.5635 2.86098 15.6337 2.22923 15.1781 1.93258C15.3329 1.83226 15.4744 1.72132 15.6006 1.60055C16.7282 1.92274 17.7751 2.43794 18.7038 3.10736ZM12.8447 1.21601C13.6692 1.21601 14.4704 1.3166 15.2377 1.50486C14.6554 1.9778 13.783 2.25524 12.8447 2.25524C11.9022 2.25524 11.0322 1.97868 10.4507 1.50512C11.2182 1.3167 12.0198 1.21601 12.8447 1.21601ZM10.0887 1.60055C10.1914 1.699 10.3039 1.7911 10.4257 1.87602C10.013 2.1416 8.99637 2.81914 8.32851 3.46312C8.23235 3.55584 8.13541 3.6546 8.03884 3.75669C7.66945 3.56328 7.31717 3.34666 6.98566 3.10736C7.91427 2.43794 8.96109 1.9228 10.0887 1.60055Z" fill="white"/>
<path d="M21.1655 16.8741C20.5739 17.7479 19.8491 18.5244 19.0195 19.1732C18.6244 18.8761 18.2003 18.6105 17.7518 18.3785C18.2921 17.7691 18.7762 17.1196 18.9554 16.8741H18.5666C18.3269 17.1941 17.9074 17.737 17.4611 18.2348C16.8961 17.9667 16.2963 17.7497 15.671 17.587C15.8032 17.3039 15.9076 17.053 15.9787 16.8741H15.6414C15.5699 17.0485 15.4749 17.2698 15.3606 17.5114C14.5803 17.3332 13.764 17.2382 12.9295 17.2322V16.8741H12.6173V17.2336C11.7768 17.2499 10.9558 17.3571 10.1728 17.5482C10.0508 17.2924 9.94969 17.0573 9.87461 16.8741H9.53727C9.61173 17.0617 9.72288 17.3283 9.8642 17.6281C9.24983 17.7978 8.66096 18.0202 8.10711 18.2926C7.64171 17.7796 7.19853 17.2066 6.94945 16.8741H6.56065C6.74578 17.1277 7.25712 17.8137 7.81972 18.4407C7.41453 18.6577 7.02979 18.9022 6.66945 19.1732C5.83981 18.5244 5.11498 17.7478 4.5234 16.874H4.14844C5.99508 19.724 9.20311 21.6137 12.8445 21.6137C16.4859 21.6137 19.694 19.724 21.5406 16.874H21.1655V16.8741ZM15.5326 17.8736C16.1281 18.0246 16.7 18.2261 17.2395 18.4753C17.1496 18.5701 17.0598 18.6616 16.971 18.7473C16.3054 19.389 15.245 20.0888 14.876 20.3255C14.6494 20.2095 14.4024 20.1141 14.1402 20.0407C14.3392 19.7779 14.6954 19.2902 15.0814 18.6807C15.2488 18.4165 15.4006 18.138 15.5326 17.8736ZM12.9295 17.5443C13.7151 17.5502 14.4837 17.6369 15.2196 17.7996C15.0994 18.0367 14.9643 18.2821 14.8176 18.5137C14.3729 19.2159 13.9693 19.7526 13.8073 19.9621C13.5263 19.9061 13.2319 19.8745 12.9294 19.8695V17.5443H12.9295ZM12.6173 17.5459V19.8728C12.3111 19.8863 12.0145 19.9277 11.7329 19.9935C11.5905 19.8108 11.1677 19.255 10.6983 18.5137C10.5589 18.2936 10.4298 18.061 10.3142 17.8348C11.0528 17.6598 11.8259 17.5617 12.6173 17.5459ZM10.0035 17.9138C10.1308 18.1662 10.2756 18.4298 10.4345 18.6808C10.8423 19.3247 11.2168 19.8324 11.4078 20.0829C11.1617 20.1609 10.9309 20.2594 10.7193 20.376C10.4574 20.2103 9.2682 19.4446 8.54497 18.7473C8.47395 18.6788 8.40219 18.6064 8.33028 18.5317C8.85864 18.2785 9.41915 18.0716 10.0035 17.9138ZM6.92884 19.3689C7.27679 19.1131 7.6478 18.8825 8.03811 18.6781C8.13479 18.7802 8.23194 18.8792 8.3282 18.972C8.9959 19.6158 10.0122 20.2932 10.4251 20.5589C10.278 20.6619 10.1439 20.7751 10.0247 20.898C8.8986 20.568 7.85401 20.0456 6.92884 19.3689ZM12.8445 21.3015C11.993 21.3015 11.1661 21.1946 10.3761 20.9942C10.953 20.4873 11.869 20.1799 12.8445 20.1799C13.8188 20.1799 14.7357 20.4875 15.3126 20.9943C14.5226 21.1946 13.6958 21.3015 12.8445 21.3015ZM15.664 20.898C15.5224 20.752 15.3605 20.6189 15.1799 20.5012C15.6362 20.204 16.5641 19.5733 17.1877 18.9719C17.3027 18.8611 17.4188 18.7417 17.5341 18.6181C17.9671 18.8371 18.3776 19.0877 18.76 19.3689C17.8348 20.0456 16.7902 20.568 15.664 20.898Z" fill="white"/>
</svg>
