<svg width="23" height="26" viewBox="0 0 23 26" fill="none" xmlns="http://www.w3.org/2000/svg">
<g clip-path="url(#clip0_6194_139505)">
<path d="M5.36018 10.8921C5.37507 10.8921 5.38981 10.895 5.40356 10.9007C5.41731 10.9064 5.42981 10.9147 5.44033 10.9252C5.45086 10.9358 5.4592 10.9483 5.46489 10.962C5.47057 10.9758 5.47349 10.9905 5.47347 11.0054V17.8648C5.47353 17.8949 5.46163 17.9238 5.44038 17.9452C5.41914 17.9665 5.39029 17.9785 5.36018 17.9786H3.30665C3.27657 17.9785 3.24776 17.9664 3.22653 17.9451C3.20531 17.9238 3.19338 17.8949 3.19336 17.8648V11.0054C3.1934 10.9754 3.20534 10.9466 3.22658 10.9253C3.24782 10.9041 3.27661 10.8921 3.30665 10.8921H5.36018Z" fill="white"/>
<path d="M12.778 10.8921C12.7929 10.8921 12.8076 10.895 12.8214 10.9007C12.8351 10.9064 12.8476 10.9147 12.8581 10.9252C12.8687 10.9358 12.877 10.9483 12.8827 10.962C12.8884 10.9758 12.8913 10.9905 12.8913 11.0054V12.6944C12.8913 12.7245 12.8794 12.7534 12.8582 12.7747C12.837 12.796 12.8081 12.8081 12.778 12.8081H10.9854C10.9553 12.8081 10.9264 12.82 10.9051 12.8412C10.8838 12.8625 10.8717 12.8913 10.8717 12.9214V17.8648C10.8717 17.8949 10.8598 17.9238 10.8386 17.9452C10.8173 17.9665 10.7885 17.9785 10.7584 17.9786H8.70485C8.67475 17.9785 8.6459 17.9665 8.62465 17.9452C8.60341 17.9238 8.59151 17.8949 8.59156 17.8648V12.9214C8.59152 12.8914 8.57957 12.8626 8.55833 12.8414C8.53709 12.8201 8.50829 12.8082 8.47825 12.8081H6.72705C6.69689 12.8081 6.66798 12.7961 6.64666 12.7748C6.62533 12.7534 6.61333 12.7245 6.61328 12.6944V11.0054C6.61335 10.9753 6.62537 10.9464 6.6467 10.9252C6.66804 10.9039 6.69694 10.892 6.72705 10.8921H12.778" fill="white"/>
<path d="M20.77 10.8921C20.8001 10.892 20.829 10.9039 20.8504 10.9252C20.8717 10.9464 20.8837 10.9753 20.8838 11.0054V14.5013C20.8838 16.8167 19.6704 18.0408 17.3749 18.0408C15.1575 18.0408 14.0332 16.8325 14.0332 14.4493V11.0054C14.0332 10.9905 14.0361 10.9758 14.0418 10.962C14.0475 10.9483 14.0558 10.9358 14.0664 10.9252C14.0769 10.9147 14.0894 10.9064 14.1031 10.9007C14.1169 10.895 14.1316 10.8921 14.1465 10.8921H16.1995C16.2145 10.892 16.2292 10.8949 16.2431 10.9006C16.2569 10.9062 16.2694 10.9146 16.28 10.9251C16.2905 10.9356 16.2989 10.9481 16.3047 10.9619C16.3104 10.9757 16.3133 10.9905 16.3133 11.0054V14.4381C16.3133 15.1932 16.5121 16.0932 17.4585 16.0932C18.2289 16.0932 18.6032 15.5517 18.6032 14.4381V11.0054C18.6033 10.9753 18.6153 10.9464 18.6366 10.9252C18.658 10.9039 18.6869 10.892 18.717 10.8921H20.77" fill="white"/>
<path d="M22.9241 25.0434C21.5616 24.3714 20.0282 23.6047 18.6141 22.7618C18.8551 22.5752 19.0879 22.3789 19.3125 22.173C21.2555 20.4282 22.4975 18.0363 22.8073 15.4433C23.117 12.8504 22.4732 10.2333 20.9959 8.07987C19.4196 5.72894 16.989 4.0851 14.2202 3.49747C11.4513 2.90984 8.56252 3.42472 6.16722 4.93274C5.28303 3.6998 4.39514 2.36238 3.45662 0.94043C3.75196 1.53995 4.62778 3.3882 5.65454 5.27639C4.23699 6.28548 3.08105 7.61865 2.28298 9.16487C1.48491 10.7111 1.06781 12.4256 1.06642 14.1656C1.06426 15.7919 1.43255 17.3973 2.14334 18.8601C2.81617 20.2642 3.78252 21.5075 4.9771 22.506C6.17168 23.5046 7.56667 24.2351 9.06781 24.6482C10.569 25.0614 12.1413 25.1475 13.6786 24.9008C15.2159 24.6542 16.6823 24.0804 17.9788 23.2183C19.6358 23.9038 21.301 24.4764 22.9241 25.0434ZM10.9383 24.0979C8.48417 23.8498 6.20659 22.709 4.53816 20.8922C4.28071 20.5071 4.12597 20.0625 4.08866 19.6008C5.19032 20.6481 6.45293 21.5119 7.82833 22.1591C9.35031 22.8964 10.9852 23.3733 12.6649 23.5699C12.1007 23.9641 11.5169 24.1466 10.9383 24.0979V24.0979ZM3.84949 18.6832C3.83974 18.7835 3.8337 18.8815 3.82951 18.9785C3.73943 18.8805 3.65072 18.7825 3.56622 18.6832H3.24299C3.42365 18.9051 3.61962 19.1239 3.82767 19.3389C3.83545 19.6272 3.8769 19.9137 3.95119 20.1924C2.69528 18.5495 1.98403 16.5552 1.91684 14.4883C1.84965 12.4214 2.42987 10.3851 3.57643 8.66407C3.45299 9.16176 3.40077 9.67444 3.42133 10.1868H3.66421C3.62544 9.43511 3.76199 8.68472 4.06309 7.99489C4.46199 7.49256 4.90779 7.02934 5.39448 6.6115C5.64804 6.46893 5.90826 6.33612 6.17513 6.21305C6.76862 7.25467 7.38671 8.24566 7.95511 8.978C7.31577 9.01589 6.67442 9.00253 6.0372 8.93806L6.14123 8.96732C6.10826 8.96453 6.07575 8.96128 6.04231 8.95803C6.24477 9.37922 6.4663 9.78835 6.70127 10.1868H10.8403C10.6239 10.0099 10.4109 9.82643 10.2013 9.6365C11.1199 8.88632 12.1128 8.23215 13.1646 7.68422C13.5168 8.07306 13.937 8.39441 14.4045 8.63249C14.9966 8.94679 15.6513 9.12541 16.321 9.15539C16.3939 9.49021 16.4566 9.83478 16.5086 10.1868H16.7557C16.7046 9.83432 16.6428 9.4899 16.5704 9.15353C17.1889 9.12753 17.716 8.92923 18.0323 8.56702C18.5432 9.06054 19.0043 9.60307 19.4091 10.1868H19.704C19.2615 9.52697 18.7493 8.91666 18.1762 8.3664C18.2633 8.20812 18.3179 8.03406 18.3369 7.85441C18.3559 7.67476 18.3388 7.49312 18.2867 7.32014C18.2133 7.06021 18.0951 6.81506 17.9375 6.5957C18.3854 6.67112 18.8041 6.86769 19.1482 7.16411C20.5041 8.52706 21.4352 10.2543 21.8285 12.1362C22.2218 14.0181 22.0603 15.9736 21.3637 17.7655C20.5125 19.5362 18.453 20.498 15.9216 20.5686C16.9906 20.2983 17.8423 19.9277 18.8519 19.2883C18.4743 19.115 18.0954 18.9256 17.7165 18.7231C17.5994 18.7291 17.481 18.7329 17.3589 18.7329C15.2501 18.7329 13.9368 17.8041 13.5096 15.9679C12.8474 15.4603 12.2005 14.9314 11.575 14.3923V15.9289C12.461 16.736 13.3457 17.4772 14.1718 18.1603C13.5361 18.5838 11.4779 19.2088 11.0748 19.2794C11.4213 19.5567 11.7719 19.8204 12.1267 20.0707C11.2533 19.8259 10.4029 19.5055 9.5851 19.1132C9.50381 19.0742 9.423 19.0345 9.34268 18.9943C9.33108 18.9887 9.31992 18.9832 9.30878 18.9776C9.15833 18.9019 9.00988 18.8243 8.86344 18.7449C7.87502 18.215 6.96909 17.5439 6.17418 16.7527V17.0936C6.41335 17.3253 6.66705 17.5488 6.9353 17.7641C7.77457 18.4259 8.69194 18.9821 9.66682 19.4201C10.6417 19.8741 11.6606 20.2265 12.7076 20.472C13.2728 20.8481 13.845 21.197 14.4244 21.5187C14.4179 21.5303 14.411 21.5424 14.404 21.5544C13.9568 22.3128 13.4706 22.9118 12.9649 23.3386C11.3651 23.1993 9.62132 22.7317 7.92863 21.9222C6.40592 21.1941 5.08195 20.2574 4.06821 19.2283C4.06651 19.0463 4.07519 18.8642 4.0942 18.6832L3.84949 18.6832ZM12.5938 6.67744C12.6776 6.9726 12.8174 7.24884 13.0057 7.49104C11.9457 8.0481 10.9448 8.71106 10.0184 9.46978C8.91639 8.44674 7.8952 7.25142 6.8861 5.91213C6.89166 5.91027 6.89679 5.90749 6.90234 5.90563C6.90328 5.90516 6.90467 5.9047 6.9056 5.90424V5.9047C7.36746 5.73193 7.84293 5.59804 8.32707 5.5044C9.77815 5.23092 11.2712 5.27433 12.7039 5.63164C12.6168 5.78983 12.5622 5.96383 12.5433 6.14343C12.5244 6.32302 12.5416 6.50458 12.5938 6.67744H12.5938ZM12.8298 6.61474C12.7832 6.46464 12.7691 6.30636 12.7884 6.1504C12.8077 5.99443 12.8599 5.84435 12.9417 5.71012C12.9449 5.70501 12.9491 5.70037 12.9524 5.69526C13.7452 5.9081 14.5133 6.20449 15.2436 6.57945C15.089 6.62403 14.9319 6.67357 14.7723 6.72805C14.2447 6.91062 13.7297 7.12764 13.2305 7.37773C13.0472 7.15277 12.911 6.89332 12.8298 6.61474V6.61474ZM15.3416 6.35608C14.635 5.99453 13.8941 5.70455 13.1298 5.49047C13.4307 5.21787 13.8965 5.07948 14.4356 5.07856C14.7957 5.46004 15.1007 5.89005 15.3416 6.35608L15.3416 6.35608ZM14.7941 5.0976C15.3428 5.16 15.875 5.32443 16.3632 5.58241C16.7198 5.76648 17.0485 6.00023 17.3394 6.27667C16.7787 6.2663 16.219 6.33017 15.675 6.4666C15.4408 5.97463 15.1448 5.51458 14.7941 5.0976V5.0976ZM14.8512 6.95931C15.0862 6.87897 15.3151 6.81071 15.5394 6.75266C15.6383 6.96581 15.7322 7.19073 15.8209 7.42741C16.0003 7.91306 16.1489 8.40954 16.2657 8.9139C15.6543 8.8731 15.0584 8.70328 14.5173 8.41562C14.0968 8.20017 13.7165 7.91395 13.393 7.56951C13.8657 7.33552 14.3528 7.13171 14.8512 6.95931V6.95931ZM16.0498 7.34197C15.9973 7.20172 15.943 7.0655 15.8868 6.93331C16.5931 7.35063 17.2528 7.8421 17.8549 8.39937C17.5758 8.72908 17.0919 8.90322 16.5179 8.91762C16.3959 8.38288 16.2395 7.85657 16.0498 7.34197V7.34197ZM15.9109 6.66536C16.4612 6.54134 17.0269 6.50079 17.5892 6.54509C17.8016 6.78777 17.9589 7.07357 18.0503 7.38283C18.1313 7.6509 18.1106 7.9394 17.9923 8.19319C17.3564 7.60943 16.6584 7.0971 15.9109 6.66536V6.66536ZM16.4756 5.36555C15.8831 5.05067 15.2276 4.87217 14.5573 4.84312C14.3839 4.66956 14.1927 4.51469 13.987 4.38106C15.5875 4.70326 17.0854 5.41047 18.3513 6.44153C18.1415 6.37536 17.9258 6.32948 17.7072 6.30454C17.3568 5.91966 16.9395 5.60152 16.4756 5.36555V5.36555ZM14.1955 4.85148C13.6331 4.8956 13.1553 5.08599 12.8581 5.41849C11.362 5.0313 9.79889 4.97882 8.28019 5.26478C7.76818 5.36378 7.26557 5.5064 6.77788 5.69108V5.69201C6.76348 5.69759 6.74863 5.70362 6.73378 5.7092C6.72264 5.69387 6.71056 5.67808 6.69939 5.66276C8.28719 4.69096 10.1132 4.17819 11.9748 4.18137C12.2743 4.18137 12.5706 4.19422 12.8637 4.21992C13.3285 4.27471 13.778 4.49111 14.1955 4.85148H14.1955ZM13.0248 23.6038C13.3364 23.6284 13.6447 23.6423 13.9485 23.6423C14.1737 23.6423 14.3971 23.6354 14.6167 23.6214C14.9158 23.6028 15.2037 23.5703 15.4804 23.5267C14.4022 23.9238 13.264 24.1339 12.1151 24.148C12.443 24.0115 12.7494 23.8281 13.0248 23.6038V23.6038ZM13.3034 23.3632C13.8186 22.8671 14.2601 22.2997 14.6144 21.6784C14.6227 21.6645 14.6306 21.6506 14.6385 21.6366C15.4238 22.0662 16.2193 22.4526 17.0185 22.8074C16.9632 22.8394 16.907 22.8696 16.8513 22.9002C15.8589 23.2843 14.6376 23.4412 13.3034 23.3632H13.3034ZM15.8385 20.8142C16.178 20.8073 16.5128 20.785 16.8397 20.7464C18.5185 20.5472 19.8689 19.9468 20.7712 19.0185C20.0453 20.3089 19.0435 21.4232 17.8372 22.2817C17.1368 21.8408 16.4689 21.3504 15.8385 20.8142" fill="white"/>
</g>
<defs>
<clipPath id="clip0_6194_139505">
<rect width="22" height="24.2647" fill="white" transform="translate(0.996094 0.859375)"/>
</clipPath>
</defs>
</svg>
