<svg width="25" height="26" viewBox="0 0 25 26" fill="none" xmlns="http://www.w3.org/2000/svg">
<g clip-path="url(#clip0_6194_139025)">
<path d="M0.0612802 16.6286C0.0949323 11.8927 0.126674 7.56234 0.131776 7.00545L0.141052 5.99293H2.63555C4.79925 5.99293 5.12008 6.0189 5.0549 6.18889C4.92604 6.52494 5.05342 6.40596 5.42639 5.84204C6.18087 4.70112 7.23814 3.6318 8.33923 2.89599C8.77697 2.60347 9.10893 2.32812 9.07693 2.28412C9.04491 2.24013 9.05562 2.23122 9.10067 2.26432C9.14572 2.29745 9.43374 2.18424 9.74068 2.01275C10.0476 1.84126 10.7892 1.53911 11.3886 1.34131C12.3795 1.01434 12.6562 0.981374 14.4367 0.978214C16.2407 0.975251 16.4825 1.00379 17.5048 1.3432C18.9 1.80647 19.4148 2.06647 20.6389 2.92615C23.0258 4.6024 24.5188 7.09138 24.9354 10.0886C25.0977 11.2566 24.9432 13.1995 24.5962 14.3523C24.4777 14.7464 24.3806 15.1432 24.3806 15.2342C24.3806 15.3252 24.3356 15.3996 24.2806 15.3996C24.2256 15.3996 24.1404 15.5319 24.0913 15.6935C24.0421 15.8552 23.7345 16.441 23.4076 16.9954C22.9076 17.8433 22.1546 18.7032 20.8999 19.8593C20.457 20.2674 18.4785 21.2589 17.57 21.528C16.2303 21.9249 14.5832 22.0747 13.2291 21.9227C11.7407 21.7557 11.0846 21.5589 9.41039 20.7775C6.90533 19.6082 4.74073 16.8962 3.97088 13.9625C3.66706 12.8046 3.65112 9.49514 3.94848 9.31123C4.00853 9.2741 4.05969 9.11489 4.06216 8.95745C4.06463 8.80001 4.23589 8.24191 4.44273 7.71722C4.69649 7.07353 4.75409 6.81698 4.61985 6.92847C4.51043 7.01935 4.06681 7.10553 3.63402 7.11997C3.03026 7.14012 2.78293 7.2105 2.57117 7.42239C2.29782 7.69591 2.29476 7.76927 2.24982 15.1224L2.20442 22.5462L2.57618 22.8398L2.94794 23.1335L8.03956 23.0715C10.8399 23.0374 13.2257 22.9697 13.3413 22.9211C13.4569 22.8725 13.6299 22.686 13.7258 22.5066C13.8694 22.2381 13.982 22.1875 14.3643 22.2196L14.8284 22.2586L14.866 23.5536C14.8867 24.2658 14.8562 24.896 14.7982 24.9541C14.7402 25.0121 11.3869 25.1 7.34637 25.1493L0 25.2391L0.0612802 16.6286ZM13.8679 16.8694C13.8336 16.7492 13.3604 16.7061 12.076 16.7061H10.3308L10.4448 17.0001C11.0079 18.4518 12.1472 19.8608 13.1244 20.3144L13.784 20.6205L13.8493 18.8266C13.8852 17.84 13.8936 16.9592 13.8679 16.8694H13.8679ZM18.1792 20.1321C19.4406 19.4704 20.6634 18.2598 21.4681 16.8759C21.5361 16.7591 21.2747 16.7192 20.4423 16.7192C19.8279 16.7192 19.3528 16.7638 19.3865 16.8184C19.4668 16.9484 18.4694 18.9145 18.1468 19.2622C18.0091 19.4105 17.8964 19.5967 17.8964 19.6759C17.8964 19.7551 17.8524 19.8397 17.7985 19.8639C17.7447 19.888 17.5546 20.0731 17.3762 20.2751L17.0518 20.6424L17.3762 20.5128C17.5546 20.4414 17.916 20.2701 18.1792 20.1321V20.1321ZM11.1746 20.1264C10.972 19.9237 10.5821 19.3799 10.3081 18.9179C10.0341 18.4559 9.75962 18.0178 9.69814 17.9444C9.63667 17.871 9.60815 17.7456 9.63478 17.6656C9.66142 17.5857 9.59521 17.4323 9.48774 17.3247C9.38025 17.2172 9.32866 17.0928 9.37312 17.0483C9.41758 17.0038 9.38194 16.9674 9.29391 16.9674C9.2059 16.9674 9.1702 16.9086 9.21458 16.8367C9.26586 16.7537 8.90601 16.7061 8.22721 16.7061H7.15914L7.37222 17.0001C7.48941 17.1617 7.63672 17.4116 7.69959 17.5553C7.9149 18.0475 9.6873 19.5985 10.5468 20.0468C11.0193 20.2933 11.4367 20.4949 11.4743 20.4949C11.512 20.4949 11.3771 20.3291 11.1746 20.1264V20.1264ZM15.5856 20.2787C16.3201 19.8986 16.7017 19.5545 17.239 18.7881C17.6714 18.1712 18.2881 16.9794 18.2881 16.7606C18.2881 16.7306 17.5244 16.7061 16.5909 16.7061H14.8937V18.6005C14.8937 19.8361 14.9414 20.4949 15.0307 20.4949C15.1061 20.4949 15.3558 20.3976 15.5856 20.2787V20.2787ZM8.70691 15.6034C8.80972 15.5672 8.78552 15.1982 8.62388 14.3373C8.49841 13.6691 8.42477 13.0467 8.46022 12.9542C8.4957 12.8617 8.48786 12.6392 8.44285 12.4597C8.36277 12.1404 8.33435 12.1334 7.12323 12.1334H5.88545L5.88841 12.6233C5.89088 13.0962 6.38853 15.198 6.56096 15.4649C6.6429 15.5918 8.4154 15.7062 8.70713 15.6034H8.70691ZM13.8493 13.8251V12.1334L13.2944 12.1182C12.9892 12.1099 12.3283 12.1077 11.8257 12.1133C11.323 12.1189 10.6034 12.1258 10.2264 12.1285L9.54097 12.1334L9.54541 12.95C9.54985 13.7098 9.79782 15.2059 9.96451 15.4769C10.0047 15.5423 10.8934 15.5779 11.9433 15.5562L13.8491 15.5169L13.8493 13.8251ZM18.7978 15.0403C18.9496 14.3862 19.195 12.7496 19.1994 12.362C19.2019 12.1534 19.0134 12.1334 17.0478 12.1334H14.8937V13.8281V15.5229L16.6888 15.5632C17.6761 15.5855 18.5221 15.6165 18.5688 15.6322C18.6155 15.648 18.7185 15.3816 18.7978 15.0403V15.0403ZM22.3475 14.9783C22.5741 14.3451 22.8575 12.9217 22.8575 12.4167C22.8575 12.145 22.8042 12.1334 21.552 12.1334H20.2464L20.2357 12.558C20.2209 13.1459 19.9603 14.7667 19.7758 15.4194C19.7219 15.6099 19.8565 15.6329 20.9207 15.6154L22.1267 15.5956L22.3476 14.9783L22.3475 14.9783ZM8.3742 11.0555C8.37864 11.0376 8.43301 10.5526 8.49484 9.9777C8.55668 9.40285 8.64172 8.75614 8.68382 8.54057C8.80037 7.94378 8.89461 7.51608 8.95731 7.29941C9.00404 7.13791 8.82557 7.09896 7.94259 7.07794C7.23039 7.061 6.83687 7.1048 6.76886 7.20859C6.55571 7.5339 6.03165 9.48832 5.94751 10.2717L5.85981 11.0882H7.1129C7.80209 11.0882 8.36968 11.0735 8.3742 11.0556V11.0555ZM13.8575 9.65108C13.8631 8.89659 13.8968 8.00001 13.9324 7.6587L13.9971 7.03812H12.049H10.1009L9.88532 8.05064C9.76672 8.60753 9.63785 9.35712 9.59895 9.71641C9.56007 10.0757 9.50347 10.5299 9.47323 10.7257L9.41823 11.0818L11.6328 11.0523L13.8473 11.0229L13.8575 9.65108ZM19.2016 10.4663C19.2011 9.72937 18.8457 7.60961 18.6664 7.27443C18.5542 7.06457 18.3451 7.03812 16.7986 7.03812H15.0571L14.9967 8.96518C14.9623 10.0661 14.9878 10.9264 15.0563 10.9719C15.1223 11.0158 16.0821 11.0592 17.1892 11.0685L19.202 11.0855L19.2016 10.4663L19.2016 10.4663ZM22.8472 10.2063C22.7602 9.31133 22.4107 7.8151 22.1939 7.40973C22.0986 7.23166 21.846 7.17897 20.9266 7.14538L19.7782 7.10346L20.0084 8.2793C20.135 8.92601 20.2403 9.82258 20.2425 10.2717L20.2464 11.0882H21.5897H22.9329L22.8472 10.2063ZM9.72159 5.2417C10.0426 4.58196 10.4958 3.85594 11.1816 2.90248C11.4949 2.46693 11.2258 2.44838 10.6493 2.86579C10.3628 3.07321 9.91809 3.3858 9.66098 3.56042C9.18392 3.88441 7.79029 5.35091 7.56662 5.76429C7.45396 5.97249 7.52838 5.99292 8.39946 5.99292H9.35602L9.72159 5.2417ZM13.9798 4.14219V2.31717L13.6861 2.40785C12.6507 2.72745 11.742 3.64151 10.9012 5.20904L10.5158 5.92761L12.2478 5.94741L13.9798 5.96721V4.14219ZM18.2881 5.87423C18.2881 5.80428 18.2359 5.71474 18.172 5.67525C18.1082 5.63575 18.018 5.45215 17.9716 5.26723C17.8638 4.83742 16.905 3.5156 16.3951 3.09392C16.063 2.81927 15.217 2.33477 15.0695 2.33477C15.0446 2.33477 15.0243 3.15214 15.0243 4.15115V5.96753L16.6562 5.98447C17.639 5.99469 18.2881 5.95084 18.2881 5.87423L18.2881 5.87423ZM21.113 5.53566C20.9597 5.32009 20.8308 5.11432 20.8266 5.07839C20.8222 5.04244 20.5579 4.72741 20.2389 4.37827C19.6752 3.76135 18.3529 2.81968 17.5807 2.48531C17.2228 2.33035 17.2106 2.33464 17.3785 2.55619C17.4768 2.68591 17.6189 2.85083 17.6942 2.92269C17.9714 3.18712 18.5492 4.01999 18.5492 4.15514C18.5492 4.23179 18.6016 4.2945 18.6656 4.2945C18.7296 4.2945 18.8223 4.45618 18.8716 4.65378C18.9209 4.85139 19.0769 5.2009 19.2184 5.43047C19.4823 5.85899 19.7258 5.92761 20.9822 5.92761H21.3916L21.113 5.53566Z" fill="white"/>
</g>
<defs>
<clipPath id="clip0_6194_139025">
<rect width="25" height="24.2611" fill="white" transform="translate(0 0.978027)"/>
</clipPath>
</defs>
</svg>
