<svg width="26" height="26" viewBox="0 0 26 26" fill="none" xmlns="http://www.w3.org/2000/svg">
<path d="M21.9676 22.2052H18.2633V16.4041C18.2633 15.0208 18.2386 13.24 16.3367 13.24C14.4073 13.24 14.1121 14.7472 14.1121 16.3034V22.2048H10.4079V10.2754H13.964V11.9057H14.0138C14.7379 10.6677 16.0891 9.92552 17.5225 9.97875C21.2769 9.97875 21.9692 12.4482 21.9692 15.661L21.9676 22.2052ZM6.22825 8.64472C6.22803 8.64472 6.22781 8.64472 6.22781 8.64472C5.04853 8.64472 4.07814 7.67444 4.07814 6.49517C4.07814 5.31589 5.04853 4.34551 6.22781 4.34551C7.40697 4.34551 8.37724 5.31567 8.37747 6.49472C8.37747 6.49472 8.37747 6.49494 8.37747 6.49517C8.37747 7.67422 7.4073 8.6446 6.22825 8.64472ZM8.08036 22.2052H4.37223V10.2754H8.08036V22.2052ZM23.8142 0.905533H2.51074C1.51072 0.894239 0.678204 1.70741 0.666016 2.70743V24.0994C0.677757 25.1 1.51016 25.914 2.51074 25.9033H23.8142C24.8173 25.9159 25.6526 25.102 25.666 24.0994V2.70597C25.6526 1.70383 24.8162 0.890772 23.8142 0.903967V0.905533Z" fill="white"/>
</svg>
