<svg width="26" height="23" viewBox="0 0 26 23" fill="none" xmlns="http://www.w3.org/2000/svg">
<path d="M21.7883 7.86208C20.6201 7.86208 19.3995 7.47436 19.3995 7.47436C19.3995 7.47436 17.66 6.93522 16.3886 6.93522C14.4748 6.93522 13.1656 8.51382 13.1656 8.51382V7.23307C13.1656 7.23307 14.4206 5.74925 16.3841 5.74925C17.0973 5.74925 18.009 5.78806 19.5213 6.24479C21.0339 6.70221 21.8216 6.6456 21.8216 6.6456C23.5357 6.6456 25.2072 6.05813 25.6653 5.88348V4.12735C25.1766 4.2814 23.3325 4.83183 21.7883 4.83183C20.6201 4.83183 19.3995 4.44412 19.3995 4.44412C19.3995 4.44412 17.66 3.90528 16.3887 3.90528C14.4749 3.90528 13.1658 5.48349 13.1658 5.48349V4.20261C13.1658 4.20261 14.4207 2.71913 16.3843 2.71913C17.0974 2.71913 18.0092 2.75721 19.5214 3.21463C21.034 3.67175 21.8217 3.61544 21.8217 3.61544C23.5358 3.61544 25.2073 3.02762 25.6655 2.85294V0.913071C25.6655 0.913071 23.5763 1.77199 21.7592 1.77199C19.9418 1.77199 18.8338 0.903809 16.799 0.903809C14.7647 0.903809 13.1659 2.27817 13.1659 2.27817C13.1659 2.27817 11.5664 0.903809 9.53218 0.903809C7.49729 0.903809 6.38924 1.77199 4.57288 1.77199C2.75653 1.77199 0.666016 0.913071 0.666016 0.913071V21.0561C0.666016 21.0561 2.55513 21.845 4.4449 21.845C5.97064 21.845 7.9469 20.7342 9.3245 20.8234C10.552 20.9037 11.2757 21.4654 11.8261 22.1703C11.9486 22.3909 12.1978 22.4027 12.1978 22.4027H14.1353C14.1353 22.4027 14.3809 22.391 14.5066 22.1703C15.057 21.4655 15.7804 20.9037 17.0075 20.8234C18.3853 20.7342 20.1403 21.8251 21.888 21.845C23.8306 21.8673 25.6658 21.0561 25.6658 21.0561V19.2779C25.1771 19.4326 23.333 19.982 21.7888 19.982C20.6207 19.982 19.4 19.5949 19.4 19.5949C19.4 19.5949 17.6606 19.0554 16.3891 19.0554C14.4753 19.0554 13.1662 20.6341 13.1662 20.6341V19.3534C13.1662 19.3534 14.4211 17.8691 16.3847 17.8691C17.0979 17.8691 18.0096 17.908 19.5219 18.3651C21.0345 18.8225 21.8221 18.7659 21.8221 18.7659C23.5362 18.7659 25.2078 18.1781 25.6659 18.0034V16.2466C25.1772 16.4017 23.3331 16.9519 21.7889 16.9519C20.6207 16.9519 19.4001 16.5644 19.4001 16.5644C19.4001 16.5644 17.6606 16.0249 16.3892 16.0249C14.4754 16.0249 13.1662 17.6031 13.1662 17.6031V16.3224C13.1662 16.3224 14.4212 14.8393 16.3847 14.8393C17.0979 14.8393 18.0096 14.8777 19.5219 15.3351C21.0345 15.7916 21.8222 15.7349 21.8222 15.7349C23.5363 15.7349 25.2078 15.1477 25.6659 14.9731V13.2168C25.1772 13.3715 23.3331 13.9213 21.7889 13.9213C20.6208 13.9213 19.4001 13.5346 19.4001 13.5346C19.4001 13.5346 17.6607 12.9947 16.3892 12.9947C14.4754 12.9947 13.1663 14.5736 13.1663 14.5736V13.2923C13.1663 13.2923 14.4212 11.8091 16.3848 11.8091C17.098 11.8091 18.0097 11.8479 19.5219 12.305C21.0345 12.7617 21.8222 12.7051 21.8222 12.7051C23.5363 12.7051 25.2079 12.117 25.666 11.943V10.187C25.1773 10.3414 23.3332 10.8919 21.789 10.8919C20.6208 10.8919 19.4002 10.5037 19.4002 10.5037C19.4002 10.5037 17.6607 9.96461 16.3893 9.96461C14.4755 9.96461 13.1663 11.5435 13.1663 11.5435V10.2622C13.1663 10.2622 14.4213 8.77868 16.3848 8.77868C17.098 8.77868 18.0097 8.81745 19.522 9.27452C21.0346 9.73164 21.8223 9.67568 21.8223 9.67568C23.5363 9.67568 25.2079 9.08717 25.666 8.91313V7.15691C25.1771 7.31157 23.3333 7.86212 21.7889 7.86212L21.7883 7.86208Z" fill="white"/>
</svg>
