<svg width="26" height="30" viewBox="0 0 26 30" fill="none" xmlns="http://www.w3.org/2000/svg">
<path d="M12.6739 12.7704L7.37862 15.92V20.2667C7.39101 20.3982 7.39101 20.5305 7.37862 20.6619C7.25657 21.1776 6.74082 21.6182 6.19751 21.9817C5.25067 22.618 4.12665 22.5824 3.63846 21.8474C3.15027 21.1124 3.47311 19.9151 4.42586 19.2788C4.87989 18.9471 5.44454 18.8055 6.00066 18.8837V8.8683C5.99954 8.84724 5.99954 8.82613 6.00066 8.80507C5.99973 8.7873 5.99973 8.7695 6.00066 8.75173C6.00501 8.73369 6.01026 8.71588 6.01641 8.69838C6.01871 8.69067 6.02222 8.68327 6.02563 8.67605C6.03097 8.66475 6.0361 8.6539 6.0361 8.64306C6.0438 8.62617 6.05234 8.60968 6.06169 8.59366C6.07057 8.57664 6.08043 8.56014 6.09121 8.54427C6.09853 8.53252 6.10802 8.52186 6.11726 8.51149C6.12045 8.5079 6.12361 8.50435 6.12665 8.5008C6.13838 8.48569 6.15087 8.47118 6.16405 8.45733L6.20539 8.42374C6.22166 8.40957 6.23875 8.39637 6.25657 8.38423H6.26838L12.6739 4.46027L12.6739 0.903809L0.666016 7.81914V22.4401L12.6739 29.3555V12.7704Z" fill="white"/>
<path d="M12.6739 11.3756L7.35893 14.5369V12.1659L12.6739 9.00463V11.3756Z" fill="white"/>
<path d="M17.8018 11.2156C17.7485 11.2483 17.7034 11.2929 17.6699 11.346C17.6116 11.4399 17.5926 11.5532 17.6169 11.6612C17.6412 11.7692 17.707 11.8632 17.7999 11.9229C17.8657 11.9651 17.9422 11.9877 18.0203 11.9881C18.0844 11.9878 18.1476 11.9727 18.2048 11.9438C18.2621 11.915 18.312 11.8732 18.3505 11.8218C18.389 11.7704 18.4151 11.7108 18.4269 11.6475C18.4386 11.5843 18.4356 11.5192 18.4181 11.4574C18.4006 11.3955 18.3691 11.3385 18.326 11.2909C18.2829 11.2433 18.2295 11.2063 18.1698 11.1829C18.1101 11.1595 18.0458 11.1503 17.982 11.1559C17.9182 11.1616 17.8565 11.182 17.8018 11.2156Z" fill="white"/>
<path d="M18.6654 7.53763C18.7723 7.51365 18.8658 7.44878 18.9259 7.3568V7.35877C18.9554 7.31274 18.9756 7.26123 18.985 7.20728C18.9945 7.15333 18.9931 7.09803 18.981 7.04462C18.9664 6.97861 18.9361 6.91714 18.8926 6.86551C18.8492 6.81387 18.7938 6.77363 18.7314 6.74823C18.669 6.72284 18.6014 6.71306 18.5344 6.71974C18.4673 6.72642 18.4029 6.74936 18.3467 6.78658C18.2905 6.82381 18.2441 6.87419 18.2116 6.9334C18.1791 6.99261 18.1614 7.05886 18.1601 7.12645C18.1588 7.19404 18.1739 7.26093 18.2041 7.32137C18.2342 7.38181 18.2786 7.43397 18.3333 7.47337L18.353 7.48523C18.4464 7.54281 18.5584 7.56161 18.6654 7.53763Z" fill="white"/>
<path fill-rule="evenodd" clip-rule="evenodd" d="M13.6581 22.8353V14.5434C14.3017 14.604 14.598 14.9173 14.9042 15.2679L14.905 15.2689C15.2118 15.6203 15.5287 15.9832 16.1365 16.0148C16.5462 16.0361 16.8649 16.0251 17.1465 16.0153L17.1621 16.0148C17.6812 15.9759 18.2032 16.0226 18.7073 16.1531C19.2211 16.2796 21.0892 18.0637 21.6148 18.9825C21.5932 19.0101 21.5715 19.0378 21.5538 19.0674C21.3885 19.3283 21.3294 19.643 21.3888 19.9464C21.4481 20.2498 21.6214 20.5187 21.8727 20.6975L21.9278 20.735C22.0857 20.8354 22.2647 20.8975 22.4507 20.9165C22.6367 20.9355 22.8245 20.9108 22.9993 20.8443C23.1741 20.7778 23.3311 20.6715 23.4578 20.5336C23.5846 20.3957 23.6777 20.2301 23.7297 20.0499C23.7817 19.8697 23.7912 19.6798 23.7574 19.4953C23.7237 19.3108 23.6477 19.1366 23.5353 18.9867C23.423 18.8368 23.2774 18.7151 23.1101 18.6314C22.9428 18.5477 22.7584 18.5042 22.5715 18.5043C22.4692 18.5046 22.3674 18.5179 22.2684 18.5438C21.7644 17.716 20.5656 16.4771 19.6719 15.8192C19.9658 15.7119 20.2444 15.5664 20.5007 15.3865C20.7837 15.1719 21.1137 15.0283 21.4633 14.9676C21.5487 15.1786 21.6929 15.3603 21.8786 15.4912L21.9337 15.5287C22.0916 15.6291 22.2706 15.6913 22.4566 15.7103C22.6426 15.7292 22.8304 15.7045 23.0052 15.638C23.18 15.5716 23.337 15.4652 23.4637 15.3273C23.5905 15.1895 23.6836 15.0239 23.7356 14.8437C23.7876 14.6635 23.7971 14.4736 23.7634 14.289C23.7296 14.1045 23.6536 13.9304 23.5412 13.7804C23.4289 13.6305 23.2833 13.5089 23.116 13.4251C22.9487 13.3414 22.7643 13.2979 22.5774 13.2981H22.5046C22.3409 12.5656 22.3409 11.8058 22.5046 11.0733H22.5715C22.8523 11.0737 23.1244 10.9756 23.3408 10.7961C23.5572 10.6165 23.7043 10.3668 23.7568 10.0899C23.8092 9.81304 23.7636 9.5265 23.6279 9.27977C23.4923 9.03305 23.275 8.84164 23.0137 8.73861C22.7523 8.63558 22.4633 8.62741 22.1966 8.71551C21.9299 8.8036 21.7023 8.98243 21.553 9.2211C21.4036 9.45976 21.3421 9.74328 21.3789 10.0227C21.4157 10.302 21.5486 10.5597 21.7546 10.7512L21.7684 10.7631C21.5264 11.6973 21.5264 12.678 21.7684 13.6122C21.7594 13.6206 21.7502 13.6288 21.7409 13.637C21.7217 13.654 21.7023 13.6713 21.6837 13.6912C21.638 13.7417 21.5965 13.7959 21.5597 13.8533C21.4987 13.9502 21.4516 14.0553 21.4199 14.1654C20.9371 14.2365 20.4789 14.4251 20.0853 14.7147C19.6916 14.9755 19.2979 15.2225 18.1877 15.2423C17.8372 15.2053 17.4843 15.1974 17.1325 15.2185L17.0967 15.2198C16.8262 15.2294 16.5435 15.2394 16.1778 15.2185C15.916 15.2047 15.7644 15.0447 15.4967 14.7404C15.1431 14.3361 14.6679 13.8236 13.6581 13.7529V0.903809L25.666 7.81914V22.4401L13.6581 29.3555V23.6256C13.9486 23.5973 14.2319 23.5177 14.4948 23.3905C15.5471 23.122 15.8407 23.321 16.1495 23.5303L16.1503 23.5308C16.3914 23.7209 16.6832 23.835 16.9889 23.8588H17.0499C17.5238 23.8169 17.9885 23.7023 18.4278 23.5189C18.6553 23.7394 18.96 23.8615 19.2763 23.8588C19.5064 23.8584 19.7317 23.7919 19.9254 23.6671C20.1191 23.5422 20.2731 23.3643 20.3692 23.1544C20.4653 22.9444 20.4994 22.7112 20.4676 22.4824C20.4358 22.2536 20.3393 22.0387 20.1896 21.8632V21.8691C20.0211 21.6718 19.7938 21.5342 19.5413 21.4767C19.2887 21.4192 19.0245 21.4449 18.7877 21.55C18.5509 21.6551 18.3541 21.834 18.2265 22.0602C18.0989 22.2864 18.0473 22.5478 18.0794 22.8057C17.7435 22.9416 17.3904 23.0301 17.0302 23.0684C16.8676 23.0498 16.7149 22.9807 16.5932 22.8709C16.3501 22.6918 16.0715 22.5671 15.7763 22.5053C16.5079 21.7879 17.0837 20.9261 17.4672 19.9743C17.6761 19.9669 17.8795 19.905 18.0574 19.7948C18.2352 19.6845 18.3815 19.5297 18.4817 19.3456C18.5819 19.1615 18.6326 18.9543 18.629 18.7445C18.6253 18.5347 18.5673 18.3295 18.4606 18.1491C18.354 17.9686 18.2024 17.8191 18.0208 17.7152C17.8391 17.6114 17.6337 17.5567 17.4246 17.5567C17.2156 17.5567 17.0102 17.6112 16.8285 17.715C16.6468 17.8188 16.4952 17.9682 16.3885 18.1487C16.2352 18.4065 16.1829 18.7123 16.2418 19.0067C16.3008 19.301 16.4667 19.5628 16.7074 19.7412C15.9101 21.5629 14.8924 22.3255 14.2329 22.6417C14.2083 22.6505 14.1845 22.6617 14.1621 22.6753C14.0011 22.7486 13.8319 22.8023 13.6581 22.8353ZM19.5264 6.38779C19.6355 6.52887 19.7121 6.69246 19.7507 6.8668L19.7546 6.87272C19.7935 7.0499 19.7923 7.23359 19.751 7.41023C19.7097 7.58686 19.6294 7.75193 19.516 7.89323C19.4026 8.03454 19.2591 8.14847 19.0959 8.22661C18.9328 8.30475 18.7542 8.34511 18.5735 8.3447C18.4554 8.34408 18.338 8.3261 18.2251 8.29136C17.8225 8.769 17.2905 9.11906 16.6936 9.29902C17.0965 9.61134 17.4508 9.98227 17.7447 10.3995C18.0587 10.3255 18.389 10.3788 18.664 10.5477C18.8653 10.6755 19.0243 10.8604 19.121 11.0788C19.2177 11.2973 19.2477 11.5397 19.2072 11.7752C19.1667 12.0108 19.0575 12.2291 18.8935 12.4024C18.7294 12.5757 18.5179 12.6964 18.2856 12.7491C18.0533 12.8018 17.8106 12.7842 17.5883 12.6985C17.3659 12.6128 17.1738 12.4629 17.0363 12.2677C16.8988 12.0726 16.822 11.8408 16.8157 11.6019C16.8093 11.3629 16.8737 11.1274 17.0007 10.9251C17.0237 10.8883 17.0487 10.8526 17.0755 10.8184C16.6402 10.2171 16.0559 9.74029 15.3806 9.43535C14.8385 9.18552 14.2554 9.03752 13.6601 8.9987V8.20837C14.3381 8.24308 15.0046 8.39829 15.6286 8.66676C15.9956 8.67047 16.3594 8.59696 16.6964 8.45097C17.0334 8.30498 17.3362 8.08975 17.5853 7.81914C17.4838 7.67248 17.4159 7.50507 17.3865 7.32894C17.3571 7.15281 17.3669 6.97233 17.4153 6.80046C17.4636 6.6286 17.5493 6.46962 17.6662 6.33495C17.783 6.20028 17.9281 6.09326 18.0911 6.02159C18.2541 5.94991 18.4308 5.91536 18.6087 5.92041C18.7866 5.92546 18.9611 5.97 19.1198 6.05081C19.2784 6.13162 19.4173 6.2467 19.5264 6.38779Z" fill="white"/>
<path d="M22.227 9.64874C22.2562 9.60242 22.2943 9.56234 22.3389 9.53077C22.3836 9.4992 22.434 9.47676 22.4872 9.46475C22.5405 9.45273 22.5956 9.45136 22.6495 9.46073C22.7033 9.47009 22.7547 9.49 22.8009 9.51932C22.847 9.54864 22.8869 9.5868 22.9184 9.63161C22.9498 9.67642 22.9722 9.72701 22.9842 9.78049C22.9961 9.83398 22.9975 9.8893 22.9882 9.94331C22.9788 9.99732 22.959 10.049 22.9298 10.0953C22.8697 10.1873 22.7763 10.2521 22.6693 10.2761C22.5624 10.3001 22.4503 10.2813 22.357 10.2237L22.3392 10.2118C22.2523 10.1507 22.1922 10.0583 22.1713 9.9538C22.1504 9.84934 22.1704 9.74082 22.227 9.65071L22.227 9.64874Z" fill="white"/>
<path d="M22.227 14.284C22.2562 14.2377 22.2943 14.1976 22.3389 14.166C22.3836 14.1344 22.434 14.112 22.4872 14.1C22.5405 14.088 22.5956 14.0866 22.6495 14.096C22.7033 14.1053 22.7547 14.1253 22.8009 14.1546C22.847 14.1839 22.8869 14.222 22.9184 14.2669C22.9498 14.3117 22.9722 14.3623 22.9842 14.4157C22.9961 14.4692 22.9975 14.5246 22.9882 14.5786C22.9788 14.6326 22.959 14.6842 22.9298 14.7305C22.8697 14.8225 22.7763 14.8874 22.6693 14.9114C22.5624 14.9353 22.4503 14.9165 22.357 14.8589L22.3392 14.8471C22.2523 14.7859 22.1922 14.6935 22.1713 14.5891C22.1504 14.4846 22.1704 14.3761 22.227 14.286L22.227 14.284Z" fill="white"/>
<path d="M22.227 19.4804C22.2562 19.4341 22.2943 19.394 22.3389 19.3624C22.3836 19.3308 22.434 19.3084 22.4872 19.2964C22.5405 19.2844 22.5956 19.283 22.6495 19.2924C22.7033 19.3017 22.7547 19.3216 22.8009 19.351C22.847 19.3803 22.8869 19.4184 22.9184 19.4632C22.9498 19.5081 22.9722 19.5586 22.9842 19.6121C22.9961 19.6656 22.9975 19.7209 22.9882 19.7749C22.9788 19.829 22.959 19.8806 22.9298 19.9269C22.8697 20.0189 22.7763 20.0838 22.6693 20.1077C22.5624 20.1317 22.4503 20.1129 22.357 20.0553L22.3392 20.0435C22.2527 19.982 22.1929 19.8896 22.1721 19.7853C22.1512 19.681 22.1709 19.5726 22.227 19.4823L22.227 19.4804Z" fill="white"/>
<path d="M17.2812 18.3746C17.1909 18.4075 17.1147 18.4708 17.0656 18.5537C17.0376 18.6008 17.0192 18.653 17.0115 18.7072C17.0037 18.7615 17.0067 18.8168 17.0203 18.8698C17.0441 18.9633 17.0995 19.0455 17.1769 19.1026C17.2544 19.1597 17.3491 19.188 17.4451 19.1829C17.541 19.1777 17.6322 19.1393 17.7031 19.0742C17.774 19.0091 17.8202 18.9213 17.8339 18.8259C17.8476 18.7304 17.8278 18.6332 17.7781 18.5507C17.7283 18.4682 17.6516 18.4055 17.561 18.3734C17.4704 18.3413 17.3715 18.3418 17.2812 18.3746Z" fill="white"/>
<path d="M19.2763 23.0724C19.3753 23.0727 19.4712 23.0369 19.5459 22.9716C19.5875 22.9361 19.6216 22.8927 19.6463 22.8439C19.6709 22.795 19.6857 22.7417 19.6896 22.6871C19.694 22.6297 19.6865 22.5719 19.6676 22.5176C19.6487 22.4632 19.6188 22.4133 19.5798 22.371C19.5408 22.3287 19.4936 22.295 19.441 22.2718C19.3884 22.2487 19.3317 22.2367 19.2743 22.2366C19.1752 22.2364 19.0794 22.2722 19.0046 22.3374C18.9395 22.3928 18.8929 22.4669 18.8713 22.5498C18.8496 22.6326 18.8539 22.7202 18.8836 22.8005C18.9133 22.8808 18.9669 22.95 19.0372 22.9987C19.1074 23.0473 19.1909 23.0731 19.2763 23.0724Z" fill="white"/>
</svg>
