<svg width="26" height="26" viewBox="0 0 26 26" fill="none" xmlns="http://www.w3.org/2000/svg">
<g clip-path="url(#clip0_6194_138809)">
<path d="M1.52539 7.1587C0.993164 7.45166 0.666016 8.0083 0.666016 8.61377C0.666016 9.53663 1.4082 10.2788 2.33105 10.2788H24.0029C24.9214 10.2788 25.666 9.53663 25.666 8.61377C25.666 8.0083 25.3367 7.45166 24.8062 7.1587L13.7324 1.04961C13.3809 0.855208 12.9512 0.855208 12.5996 1.04961L1.52539 7.1587ZM14.7285 7.15381C14.7285 6.28955 14.0303 5.59131 13.166 5.59131C12.3018 5.59131 11.6035 6.28955 11.6035 7.15381C11.6035 7.43702 11.6816 7.70557 11.8135 7.93506H4.97266L13.166 3.41407L21.3604 7.93506H14.5186C14.6504 7.70557 14.7285 7.43702 14.7285 7.15381ZM22.541 11.8413H20.1973V19.6538H17.0723V11.8413H14.7285V19.6538H11.6035V11.8413H9.25977V19.6538H6.13477V11.8413H3.79102V19.6538H3.40039C2.75098 19.6538 2.22852 20.1763 2.22852 20.8257C2.22852 21.4751 2.75098 21.9976 3.40039 21.9976H22.541C23.188 21.9976 23.7129 21.4751 23.7129 20.8257C23.7129 20.1763 23.188 19.6538 22.541 19.6538V11.8413ZM1.83789 23.5601C1.18848 23.5601 0.666016 24.0825 0.666016 24.7319C0.666016 25.3814 1.18848 25.9038 1.83789 25.9038H24.1035C24.7505 25.9038 25.2754 25.3814 25.2754 24.7319C25.2754 24.0825 24.7505 23.5601 24.1035 23.5601H1.83789Z" fill="white"/>
</g>
<defs>
<clipPath id="clip0_6194_138809">
<rect width="25" height="25" fill="white" transform="matrix(-1 0 0 1 25.666 0.903809)"/>
</clipPath>
</defs>
</svg>
