<svg width="22" height="23" viewBox="0 0 22 23" fill="none" xmlns="http://www.w3.org/2000/svg">
<g clip-path="url(#clip0_6194_139362)">
<path d="M11.0228 1.00488L10.4747 1.01738L9.92709 1.0612L9.65971 1.0891L9.65594 1.08961L9.38668 1.1271L9.38138 1.12761L8.84869 1.22484L8.32318 1.34483L7.8064 1.4917L7.30315 1.6651L6.81085 1.86007L6.32934 2.0778L5.85981 2.32002L5.40465 2.58072L4.96388 2.86384L4.5368 3.16528L4.12444 3.48949L3.73142 3.83235L3.35142 4.19318L2.99315 4.5708L2.64926 4.96416L2.32848 5.376L2.02413 5.80325L1.74134 6.23957L1.4774 6.6966L1.23758 7.16563L1.01711 7.65022L0.825914 8.14389L0.652858 8.64577L0.505138 9.16255L0.382239 9.68788L0.288436 10.2201L0.218939 10.7644L0.178029 11.3144L0.162109 11.8745L0.178029 12.4308L0.218939 12.9802L0.288436 13.5217L0.382239 14.0528L0.505138 14.5792L0.652858 15.0956L0.825914 15.5978L1.01711 16.0925L1.2381 16.5732L1.4774 17.0419L1.74085 17.4979L2.02414 17.9381L2.32849 18.3649L2.64927 18.7776L2.99265 19.1706L3.35144 19.5514L3.73144 19.9094L4.12446 20.2522L4.53682 20.5735L4.9639 20.8779L5.40313 21.1601L5.86016 21.4249L6.32935 21.6644L6.81086 21.884L7.30418 22.0756L7.80641 22.249L8.32319 22.3964L8.84869 22.5198L9.38379 22.6141L9.92418 22.6829L10.4747 22.7243L11.0281 22.7397L11.5882 22.7243L12.1376 22.6829L12.682 22.6141L13.2145 22.5198L13.74 22.3964L14.2557 22.2486L14.7581 22.0756L15.2523 21.884L15.7364 21.6644L16.2054 21.4254L16.6619 21.1601L17.0993 20.8768L17.5255 20.5735L17.9382 20.2522L18.3312 19.9094L18.7083 19.5514L19.0705 19.1706L19.4131 18.7781L19.7376 18.3649L20.039 17.9381L20.3223 17.4974L20.5829 17.0422L20.8256 16.5732L21.0428 16.0915L21.2369 15.5983L21.4098 15.0956L21.5582 14.5792L21.6772 14.0538L21.7754 13.5216L21.8408 12.9802L21.8851 12.4308L21.8971 11.8744L21.8851 11.3144L21.8418 10.7668L21.8134 10.4962L21.8129 10.4912L21.7754 10.223L21.7744 10.2177L21.6772 9.68838L21.5582 9.16287L21.4098 8.64576L21.238 8.14585L21.0434 7.65269L20.8262 7.16861L20.5834 6.69909L20.3224 6.2429L20.0398 5.80658L19.7377 5.37847L19.4136 4.96611L19.0708 4.57275L18.7091 4.19566L18.3318 3.83482L17.9393 3.49196L17.5266 3.16826L17.099 2.86631L16.6625 2.58353L16.206 2.32215L15.7373 2.08028L15.2529 1.86254L14.7597 1.66757L14.2565 1.49468L13.7392 1.34731L13.2152 1.22732L12.6844 1.13009L12.4157 1.09243L12.4117 1.09209L12.1397 1.06418L12.1377 1.06367L11.5882 1.01985L11.0287 1.00735H11.0233L11.0228 1.00488ZM11.0281 1.25052L11.0342 1.49615L11.0288 1.49632L11.5632 1.50864L12.0914 1.55109L12.3511 1.57797L12.6058 1.61323L13.1159 1.70703L13.6167 1.8212L14.1085 1.96191L14.5887 2.1271L15.0606 2.31351L15.5234 2.52046L15.9704 2.75222L16.4058 3.00111L16.8228 3.27139L17.2323 3.56034L17.6243 3.86863L17.9995 4.19557L18.3607 4.54134L18.7064 4.90218L19.0335 5.27739L19.3427 5.67041L19.6311 6.07918L19.9009 6.49684L20.1503 6.93162L20.3826 7.37907L20.5892 7.84141L20.7756 8.31351L20.9408 8.79417L21.0813 9.28544L21.1955 9.78716L21.2884 10.2962L21.325 10.5516L21.3519 10.8111L21.393 11.3395L21.406 11.8746L21.393 12.4058L21.3519 12.9313L21.2884 13.4481L21.1955 13.9542L21.0813 14.4565L20.9408 14.9474L20.7756 15.4281L20.5892 15.9005L20.3826 16.3594L20.1513 16.8069L19.9009 17.2422L19.6311 17.6633L19.3427 18.0712L19.0335 18.4645L18.7064 18.8397L18.3607 19.203L18 19.5458L17.6253 19.8733L17.2323 20.1787L16.8228 20.471L16.4048 20.7411L15.9704 20.9931L15.5234 21.2218L15.0616 21.431L14.5887 21.6145L14.1085 21.7797L13.6162 21.9207L13.1149 22.0378L12.6082 22.1283L12.089 22.1942L11.5632 22.2333L11.0281 22.2482L10.4997 22.2333L9.97381 22.1942L9.45737 22.1283L8.94796 22.0378L8.44659 21.9207L7.95481 21.7797L7.47312 21.6145L7.00171 21.431L6.54313 21.2218L6.09568 20.9931L5.66038 20.7408L5.23981 20.4705L4.83104 20.1787L4.43751 19.8733L4.0623 19.5453L3.69924 19.203L3.35724 18.8408L3.02927 18.465L2.72287 18.0712L2.43101 17.6622L2.16141 17.2422L1.90944 16.8069L1.68075 16.3594L1.47021 15.9005L1.28774 15.4289L1.12255 14.9474L0.981337 14.4561L0.864424 13.9542L0.774732 13.4481L0.708316 12.9313L0.669802 12.4058L0.654397 11.8746L0.669802 11.3395L0.708316 10.8135L0.774732 10.2938L0.864424 9.78716L0.981337 9.2863L1.12255 8.79418L1.28774 8.31301L1.47021 7.84142L1.68127 7.3796L1.90944 6.93164L2.16089 6.49736L2.431 6.0797L2.72286 5.67043L3.02926 5.2769L3.35671 4.90169L3.69872 4.54137L4.0628 4.19611L4.43751 3.86865L4.83103 3.55934L5.23894 3.27142L5.65986 3.00113L6.09567 2.75225L6.54312 2.52048L7.00221 2.31354L7.47415 2.12661L7.95481 1.96195L8.44608 1.82124L8.94796 1.70707L9.45977 1.61326L9.71517 1.578L9.97227 1.55113L10.5002 1.50868L11.0288 1.49635L11.0231 1.49618L11.0281 1.25055L11.0281 1.25052ZM11.0281 1.75188L10.5161 1.76455L10.0041 1.80444L9.4988 1.86657L8.99948 1.95764L8.51249 2.07028L8.0332 2.2067L7.80023 2.28167L7.79784 2.28219L7.56469 2.36641L7.5623 2.36692L7.10132 2.54751L6.65489 2.7507L6.21806 2.97528L5.79371 3.21886L5.38187 3.48383L4.9856 3.76507L4.60131 4.06754L4.23277 4.38627L3.88066 4.72245L3.54653 5.07267L3.22763 5.44447L2.92859 5.82499L2.64495 6.22417L2.38289 6.63259L2.13588 7.05745L1.91421 7.4948L1.70811 7.94362L1.52701 8.40203L1.36816 8.87071L1.23088 9.34896L1.11533 9.83886L1.02752 10.3358L0.962129 10.8435L0.920704 11.3555L0.909578 11.8775L0.920704 12.3952L0.962129 12.9082L1.02752 13.4119L1.11533 13.9123L1.23088 14.3969L1.36816 14.877L1.52649 15.3455L1.70862 15.8075L1.9142 16.2529L2.13587 16.6903L2.38288 17.1151L2.64495 17.5265L2.92807 17.9227L3.22763 18.3067L3.54653 18.674L3.88066 19.0277L4.23379 19.3613L4.60165 19.6797L4.9856 19.9797L5.38101 20.2634L5.79371 20.526L6.21806 20.773L6.65489 20.9941L7.1008 21.1997L7.56315 21.3808L8.03131 21.5402L8.51145 21.6769L8.99947 21.793L9.4993 21.8811L10.0036 21.9457L10.5161 21.9862L11.0318 21.9993L11.5529 21.9862L12.0643 21.9457L12.5731 21.8811L13.07 21.793L13.5599 21.6769L14.0376 21.5402L14.5063 21.3808L14.9647 21.1997L15.4135 20.9941L15.8509 20.7724L16.2752 20.526L16.6847 20.2639L17.0839 19.9797L17.4639 19.6797L17.8357 19.3613L18.1859 19.0277L18.5221 18.6751L18.8403 18.3075L19.1428 17.9227L19.4245 17.5265L19.6895 17.1141L19.9341 16.6903L20.158 16.2529L20.3608 15.8075L20.5414 15.3466L20.6248 15.1134L20.6261 15.111L20.7004 14.8784L20.7018 14.876L20.8381 14.3964L20.9503 13.9123L21.0417 13.412L21.1044 12.9067L21.1445 12.3952L21.1569 11.8776L21.1445 11.3558L21.1044 10.8444L21.0417 10.3358L20.9509 9.84077L20.9021 9.59651L20.9017 9.59274L20.8382 9.34899V9.34711L20.7018 8.87261L20.6272 8.63708L20.6261 8.63382L20.5424 8.40308L20.5414 8.4012L20.3608 7.94417L20.158 7.49483L19.9341 7.05748L19.6895 6.63262L19.4245 6.2242L19.1427 5.82502L18.8403 5.44398L18.5221 5.07271L18.1854 4.72248L17.8357 4.38544L17.4644 4.06757L17.0844 3.7651L16.6837 3.48386L16.2752 3.21888L15.8509 2.9753L15.4135 2.75072L14.9642 2.54753L14.5072 2.36695L14.278 2.28359L14.2745 2.28222L14.0381 2.20758L14.0361 2.20656L13.5618 2.0703L13.3204 2.00817L13.3167 2.00765L13.0686 1.95749L13.0681 1.95715L12.5731 1.8666L12.0645 1.80447L11.553 1.76441L11.0318 1.75192H11.028L11.0281 1.75188ZM11.0318 1.9056L11.0347 2.05931H11.0315L11.5371 2.07129L12.0336 2.11032L12.5264 2.17092L13.0089 2.25908L13.2473 2.30735L13.4819 2.36692L13.9471 2.50129L14.1755 2.5737L14.398 2.655L14.8444 2.8308L15.2797 3.02782L15.7041 3.24556L16.1154 3.48195L16.5127 3.73906L16.8994 4.01173L17.2684 4.30513L17.6291 4.61376L17.9682 4.94036L18.2951 5.27929L18.6039 5.64013L18.8971 6.00901L19.1693 6.39672L19.4269 6.79315L19.663 7.20449L19.8812 7.62815L20.0777 8.06362L20.2539 8.51055L20.3354 8.73308L20.4076 8.96143L20.5414 9.42857L20.6022 9.66171L20.6489 9.89862L20.738 10.3817L20.7982 10.8753L20.8372 11.3719L20.8492 11.8776L20.8372 12.3789L20.7982 12.8765L20.738 13.3663L20.6493 13.8498L20.5409 14.3188L20.4076 14.7875L20.3348 15.0119L20.2539 15.2387L20.0777 15.6877L19.8812 16.1193L19.663 16.5434L19.4269 16.9548L19.1693 17.355L18.8971 17.7394L18.6039 18.1112L18.2951 18.4681L17.9682 18.8105L17.6296 19.1336L17.2689 19.4424L16.8994 19.7333L16.5118 20.0088L16.1154 20.2641L15.704 20.5023L15.2807 20.7172L14.8444 20.9171L14.3994 21.0924L13.9452 21.247L13.4824 21.38L13.0079 21.4921L12.5264 21.577L12.0336 21.64L11.5366 21.6795L11.0319 21.6915L10.5324 21.6795L10.036 21.64L9.54554 21.577L9.06163 21.4921L8.58954 21.38L8.12377 21.247L7.66913 21.0924L7.22133 20.9171L6.78929 20.7172L6.36495 20.5023L5.95361 20.2636L5.55392 20.0089L5.16963 19.7333L4.79682 19.4424L4.43991 19.1336L4.09842 18.8105L3.77438 18.4681L3.4661 18.1117L3.17476 17.7394L2.89968 17.355L2.64583 16.9548L2.40601 16.5434L2.19068 16.1193L1.99092 15.6872L1.81649 15.2403L1.66141 14.7862L1.52807 14.3189L1.41629 13.8498L1.33156 13.3663L1.26754 12.8755L1.22851 12.3789L1.21687 11.8776L1.22851 11.3719L1.26754 10.8759L1.33156 10.3817L1.4168 9.90051L1.52806 9.42619L1.66141 8.96282L1.81649 8.5087L1.99143 8.06467L2.19119 7.62817L2.40602 7.20451L2.64549 6.79318L2.89968 6.39674L3.17476 6.00903L3.4661 5.63964L3.77439 5.27932L4.09842 4.9404L4.44043 4.61379L4.79681 4.30517L5.16963 4.01126L5.55392 3.73909L5.95361 3.48199L6.36494 3.24559L6.78928 3.02785L7.22133 2.83084L7.67067 2.65504L7.89645 2.57373L8.12137 2.50132L8.58953 2.36798L9.06197 2.25911L9.54554 2.17095L10.0354 2.11035L10.5324 2.07133L11.0315 2.05935H11.0281L11.0318 1.90563L11.0318 1.9056ZM11.7143 2.2589L11.6527 2.26232L11.5916 2.26848L11.5356 2.28012L11.4836 2.29929L11.4344 2.32052L11.3877 2.34842L11.3483 2.37889L11.3083 2.41552L11.274 2.45541L11.2438 2.50162L11.2188 2.55075L11.197 2.60621L11.1797 2.66492L11.1672 2.72603L11.1571 2.79399L11.1547 2.88642L11.1638 2.96876L11.185 3.04254L11.2159 3.11049L11.2592 3.1716L11.3175 3.22449L11.3824 3.27037L11.462 3.30734L11.8704 3.47304L11.8983 3.48844L11.9257 3.50676L11.9475 3.52901L11.9663 3.55298L11.9807 3.58053L11.9908 3.61186L11.9971 3.64216V3.67297L11.9873 3.725L11.9663 3.77122L11.9377 3.80837L11.9012 3.83918L11.8525 3.86074L11.7972 3.87564L11.7326 3.88197L11.6585 3.87906L11.5916 3.86708L11.5298 3.84774L11.4764 3.82086L11.4374 3.7832L11.4065 3.7375L11.3848 3.68546L11.3757 3.62093L11.3728 3.55006L11.069 3.52559V3.59919L11.0714 3.66954L11.0805 3.73459L11.093 3.7957L11.1113 3.85458L11.1359 3.90645L11.1638 3.95558L11.197 3.99854L11.2374 4.03894L11.2799 4.07557L11.33 4.10638L11.3824 4.13377L11.4398 4.15551L11.5019 4.17382L11.5693 4.18581L11.6426 4.19556L11.7104 4.19882H11.7783L11.84 4.18974L11.9012 4.17725L11.9565 4.15893L12.0096 4.13719L12.0577 4.10929L12.101 4.07557L12.1445 4.03894L12.1785 3.99563L12.2123 3.94942L12.2393 3.89789L12.2609 3.84192L12.2788 3.78081L12.2946 3.71628L12.3014 3.64832L12.3044 3.54048L12.2919 3.45181L12.2826 3.41141L12.2638 3.37153L12.2455 3.3349L12.2205 3.30118L12.1753 3.24863L12.1222 3.20617L12.0678 3.1716L11.9995 3.13839L11.5693 2.96876L11.5385 2.95678L11.5168 2.93846L11.4957 2.91672L11.4764 2.89515L11.4649 2.86759L11.4586 2.83969L11.4528 2.8094L11.4557 2.77858L11.4649 2.72946L11.4798 2.68666L11.5082 2.65294L11.5414 2.62213L11.5818 2.60039L11.6309 2.58447L11.6835 2.57865H11.7408L11.8059 2.58738L11.8612 2.60621L11.9103 2.63069L11.9475 2.66492L11.9777 2.70772L11.9995 2.75633L12.0125 2.81573L12.0181 2.87975L12.3192 2.90765L12.3222 2.84312L12.3192 2.77858L12.3105 2.71748L12.2985 2.65859L12.2788 2.6033L12.2552 2.55417L12.2268 2.50505L12.1963 2.46174L12.1559 2.4222L12.1169 2.38505L12.0707 2.35476L12.0181 2.32634L11.9663 2.30512L11.9074 2.28629L11.8522 2.27156L11.7842 2.26249L11.7202 2.25907L11.7143 2.2589ZM9.5777 2.37581L9.5623 2.37923V2.37889L9.5094 2.3818L8.83087 2.49256L9.12306 4.30629L9.5623 4.23885V4.23867L9.79886 4.19879L9.86339 4.18338L9.9221 4.16216L9.97705 4.13083L10.0262 4.09095L10.0719 4.04456L10.1119 3.99269L10.1494 3.93141L10.1799 3.86688L10.2049 3.79567L10.2261 3.71625L10.2415 3.63289L10.2511 3.54661L10.2569 3.4547L10.2535 3.35969L10.2477 3.25767L10.2318 3.15651L10.2134 3.05825L10.1924 2.96924L10.1648 2.88297L10.134 2.80252L10.1003 2.72977L10.0599 2.66147L10.0198 2.6031L9.97362 2.54781L9.9245 2.50159L9.87246 2.46154L9.82059 2.42833L9.76222 2.40368L9.70351 2.38793L9.64189 2.3792L9.5777 2.37578L9.5777 2.37581ZM12.7502 2.42819L12.6669 2.74127L13.109 2.85869L12.7281 4.32187L13.0359 4.40146L13.4168 2.93882L13.8555 3.05248L13.9365 2.73546L12.7502 2.4282L12.7502 2.42819ZM8.30191 2.62778L7.25346 2.99957L7.86558 4.7339L8.95031 4.3491L8.83939 4.04236L8.0496 4.32172L7.89263 3.87273L8.5876 3.62676L8.47976 3.32224L7.78513 3.56548L7.65658 3.20241L8.4094 2.93556L8.3019 2.62779L8.30191 2.62778ZM9.54975 2.70207L9.56224 2.70446V2.70429H9.58689L9.62061 2.71062L9.65433 2.72312L9.68514 2.73852L9.71544 2.76026L9.74334 2.78474L9.76799 2.81555L9.81712 2.88933L9.857 2.98467L9.89038 3.09491L9.91537 3.22449L9.93078 3.35988L9.93421 3.48262L9.92445 3.59337L9.90374 3.68546L9.87001 3.7654L9.84742 3.79861L9.8238 3.82651L9.7959 3.84774L9.76509 3.86982L9.73427 3.88231L9.70107 3.89104L9.56224 3.91552V3.9157L9.37789 3.9436L9.1872 2.7565L9.51226 2.70446L9.54975 2.70206L9.54975 2.70207ZM14.7195 3.05211L14.4739 3.33763L13.4693 4.50589L13.7731 4.64403L14.0222 4.34294L14.4739 4.5492V4.54903L14.5288 4.57351L14.4739 4.8871L14.4614 4.95488L14.4739 4.9607L14.775 5.09952L15.0547 3.20612L14.7195 3.05207V3.05211ZM6.86967 3.16578L5.7966 3.75924L5.95356 4.04425L6.35342 3.82378L7.08451 5.14865L7.36421 4.9946L6.62987 3.66955L7.02665 3.44856L6.86968 3.16578H6.86967ZM14.7143 3.50384L14.5818 4.24452L14.4739 4.19881V4.19847L14.2346 4.08824L14.4739 3.79588V3.7957L14.7143 3.50385V3.50384ZM15.7985 3.58378L15.615 3.8515L15.9921 4.10929L15.1381 5.36054L15.4026 5.53908L16.2535 4.288L16.6282 4.54322L16.8137 4.27533L15.7985 3.58379V3.58378ZM5.53832 3.95275L5.28021 4.13706L6.34646 5.63398L6.60509 5.45002L5.53832 3.95275V3.95275ZM4.91182 4.39832L4.69649 4.60117L5.56965 5.54226L4.25626 5.00716L4.01062 5.23483L5.2624 6.58389L5.48048 6.38122L4.58628 5.41892L5.93192 5.96325L6.16266 5.74792L4.91193 4.39842L4.91182 4.39832ZM11.0224 4.44471L10.6537 4.45395L10.6512 4.45429L10.2818 4.48185L10.2785 4.4822L9.90673 4.52893L9.544 4.59449L9.18762 4.67631L8.8374 4.77559L8.49351 4.89164L8.15595 5.0255L7.83038 5.17287L7.50823 5.33857L7.19994 5.51676L6.89936 5.71036L6.60905 5.91646L6.33021 6.13574L6.06146 6.36682L5.80231 6.61349L5.55856 6.87007L5.32405 7.13882L5.10546 7.41681L4.89886 7.70764L4.70851 8.0077L4.53032 8.31736L4.36513 8.63574L4.21724 8.96371L4.08338 9.29887L3.96733 9.64327L3.86771 9.9935L3.78623 10.3528L3.72033 10.7148L3.67308 11.0863L3.64278 11.4552L3.64176 11.4591L3.63303 11.837V11.8405L3.64176 12.2157V12.2189L3.67308 12.5885V12.5909L3.72015 12.9627L3.78623 13.3249L3.86754 13.6813L3.96784 14.0284L4.08339 14.3723L4.21724 14.7104L4.36514 15.0351L4.53032 15.3572L4.70852 15.666L4.89869 15.9659L5.10529 16.2569L5.32406 16.5358L5.55857 16.8035L5.80181 17.0632L6.0613 17.3073L6.33022 17.5409L6.60855 17.76L6.89989 17.9666L7.19996 18.1573L7.50858 18.3346L7.83039 18.5012L8.15597 18.6482L8.49352 18.7829L8.83741 18.8981L9.18763 18.9983L9.54454 19.0798L9.90657 19.1451L10.278 19.1919L10.6474 19.2232H10.6508L11.0226 19.2319H11.0255L11.4035 19.2232H11.4069L11.7768 19.1924L11.7792 19.1919L12.151 19.1451L12.5137 19.0797L12.8725 18.9983L13.2226 18.8981L13.5675 18.7831L13.9018 18.6482L14.2298 18.5013L14.5485 18.3346L14.8578 18.1574L15.1582 17.9668L15.4492 17.7605L15.728 17.5409L15.9958 17.3074L16.252 17.0631L16.499 16.8036L16.7303 16.5352L16.9494 16.2574L17.1551 15.9666L17.3487 15.666L17.5273 15.3572L17.6926 15.035L17.84 14.7105L17.9738 14.3728L18.0904 14.0285L18.19 13.6812L18.271 13.3249L18.3374 12.9626L18.3842 12.5903L18.4115 12.222L18.4121 12.2186L18.4211 11.8428V11.8404L18.4121 11.4625V11.4591L18.385 11.0902L18.3841 11.0873L18.3374 10.715L18.2708 10.3528L18.1904 9.99346L18.0902 9.64324L17.9737 9.29901L17.8398 8.9642L17.6924 8.63572L17.5272 8.3175L17.3485 8.00767L17.1549 7.7076L16.9494 7.41678L16.7303 7.1393L16.499 6.87022L16.252 6.61397L15.9957 6.3668L15.727 6.1352L15.449 5.91661L15.1582 5.71035L14.8581 5.51675L14.5485 5.33856L14.2296 5.17286L13.9016 5.02599L13.5673 4.89162L13.2225 4.77557L12.8723 4.67645L12.5135 4.59446L12.151 4.52907L11.7777 4.48234L11.4096 4.45427L11.4069 4.45393L11.0283 4.44468H11.0254H11.0226L11.0255 4.56758L11.0284 4.69032H11.0255L11.3944 4.69956L11.7542 4.72695L12.1144 4.77231L12.4646 4.83581L12.8117 4.91438L13.15 5.01059L13.4822 5.12287L13.8054 5.25245L14.1228 5.39453L14.4305 5.5544L14.7306 5.72729L15.0206 5.91421L15.3023 6.11363L15.5706 6.32503L15.8306 6.54893L16.0781 6.78789L16.317 7.03541L16.5401 7.29542L16.7523 7.56416L16.9518 7.8454L17.1392 8.13589L17.3111 8.43493L17.4714 8.74322L17.6135 9.06006L17.7426 9.38376L17.8559 9.71566L17.9516 10.0542L18.0302 10.4019L18.0937 10.7521L18.1395 11.1114L18.1664 11.4711L18.1757 11.8404L18.1664 12.2061L18.1395 12.5654L18.0937 12.9252L18.0302 13.2752L17.9516 13.6201L17.8559 13.9558L17.7426 14.2881L17.6135 14.6142L17.4714 14.9286L17.3111 15.2403L17.1392 15.5383L16.9518 15.8288L16.7523 16.11L16.5401 16.3793L16.316 16.638L16.0781 16.8894L15.8306 17.1258L15.5706 17.3518L15.3018 17.5631L15.0211 17.7626L14.7306 17.9474L14.4305 18.119L14.1233 18.2793L13.8054 18.4219L13.4822 18.5524L13.15 18.6631L12.8117 18.7605L12.4641 18.8384L12.1144 18.9021L11.7537 18.9473L11.3944 18.9772L11.0255 18.9863L10.6638 18.9772L10.3045 18.9473L9.94423 18.9021L9.59314 18.8384L9.24926 18.7605L8.91016 18.6631L8.57842 18.5524L8.25131 18.4219L7.93823 18.2799L7.62567 18.119L7.32663 17.9474L7.03666 17.7626L6.75593 17.5632L6.48719 17.3518L6.22717 17.125L5.97657 16.8894L5.7407 16.639L5.51337 16.3783L5.30231 16.1106L5.10341 15.8293L4.91854 15.5383L4.74669 15.2403L4.58629 14.9286L4.44422 14.6142L4.31464 14.2881L4.20184 13.9558L4.10597 13.6202L4.02706 13.2758L3.96356 12.9252L3.91768 12.5654L3.88841 12.2061L3.87866 11.8405L3.88841 11.4721L3.91768 11.1123L3.96356 10.7521L4.02706 10.4019L4.10597 10.0542L4.20184 9.71566L4.31464 9.38376L4.44422 9.06058L4.58629 8.7427L4.74669 8.43493L4.91854 8.13538L5.10307 7.8454L5.30231 7.56416L5.51389 7.29542L5.7407 7.03541L5.97657 6.78789L6.22717 6.54944L6.48667 6.32504L6.75593 6.11398L7.03717 5.91422L7.32714 5.7273L7.62618 5.55441L7.93823 5.39453L8.25131 5.25246L8.57842 5.12288L8.91016 5.0106L9.24926 4.91439L9.59314 4.83582L9.94371 4.77232L10.3035 4.72696L10.6628 4.69957L11.0255 4.69032H11.0226L11.0255 4.56759H11.0254L11.0224 4.44469L11.0224 4.44471ZM17.1304 4.53954L15.858 5.86783L16.6906 6.66071L16.9147 6.42415L16.3103 5.84575L16.6383 5.50186L17.1704 6.01196L17.3948 5.77882L16.8627 5.26872L17.1304 4.98902L17.7079 5.54226L17.9323 5.30536L17.1304 4.53952L17.1304 4.53954ZM10.7703 5.23467L10.7153 5.2381L10.6662 5.24683L10.6233 5.25932L10.5863 5.27764L10.5555 5.2992L10.5313 5.32043L10.5092 5.34799L10.4909 5.37349L10.4697 5.42502L10.4567 5.46833L10.4509 5.51112H10.2819L10.1773 5.53919L10.0911 5.57325L10.0236 5.6128L9.96885 5.65901L9.92503 5.70763L9.89696 5.75675L9.87625 5.80639L9.86375 5.85843L9.8605 5.90756V5.95378L9.873 6.03371L9.8884 6.08917L9.89696 6.10749L10.1099 5.99092L10.1832 5.98801L10.2602 5.99417L10.3425 6.00341L10.3768 5.99708H10.4047L10.4605 6.00341L10.5063 6.02464L10.5462 6.04912L10.58 6.07993L10.6012 6.10458L10.6233 6.12906L10.6537 6.14737L10.6724 6.16911L10.6777 6.19701L10.6811 6.23022L10.6724 6.26737L10.6599 6.30725L10.62 6.3901L10.5714 6.46713L10.5247 6.53508L10.4726 6.5991L10.644 6.72868L10.6662 6.73792L10.6875 6.74409L10.7398 6.74991L10.7924 6.74409L10.8444 6.73159L10.9273 6.70078L10.9642 6.68537L10.9889 6.65508L11.0134 6.63282L11.0409 6.61844L11.0717 6.61177H11.1026L11.1339 6.61451L11.1921 6.63625L11.2441 6.66415L11.2837 6.69496L11.3235 6.72868L11.3544 6.75915L11.3853 6.78363L11.4138 6.80246L11.4377 6.81444L11.4624 6.82368L11.4863 6.82694L11.5264 6.82112L11.5572 6.80811L11.5822 6.78996L11.5996 6.77165L11.6313 6.74409L11.6531 6.71328L11.6868 6.65165L11.7022 6.5991L11.708 6.57805V5.6402L11.7051 5.57567L11.6955 5.51747L11.6801 5.46834L11.6618 5.42212L11.6376 5.38498L11.6127 5.35126L11.5851 5.32387L11.5572 5.29922L11.5022 5.2655L11.456 5.24684L11.4098 5.23469H10.7703L10.7703 5.23467ZM3.64567 5.64635L3.45104 5.90739L4.46628 6.65782L4.47877 6.66689L4.52174 6.70678L4.55546 6.75316L4.57652 6.80229L4.59192 6.85467L4.59432 6.91013L4.58627 6.96217L4.56796 7.01797L4.53663 7.06658L4.49332 7.1128L4.44796 7.14652L4.39507 7.16826L4.34303 7.18024H4.28518L4.22595 7.16826L4.16809 7.14327L4.10989 7.10664L4.0974 7.0974L3.11056 6.36579L2.91696 6.62683L3.90038 7.35227L3.93068 7.37726L3.98939 7.41731L4.04827 7.45103L4.10647 7.475L4.16433 7.49725L4.22304 7.51214L4.28141 7.5183L4.34013 7.52121L4.39507 7.5183L4.45327 7.50581L4.50634 7.48801L4.56111 7.46644L4.61366 7.43563L4.66228 7.40191L4.70849 7.35894L4.75471 7.31273L4.79819 7.25726L4.83756 7.20249L4.86888 7.14326L4.89353 7.08832L4.91185 7.0296L4.92725 6.97123L4.9329 6.91594V6.85757L4.92725 6.80228L4.91424 6.74734L4.89644 6.69136L4.87231 6.63898L4.84098 6.58695L4.80435 6.53782L4.76395 6.48869L4.71483 6.44247L4.65971 6.39968L4.64499 6.41492L4.62547 6.399L4.62513 6.39951L4.62273 6.3966L4.62547 6.399L4.63797 6.3812L3.64569 5.64634L3.64567 5.64635ZM4.63794 6.3812H4.63812L4.65934 6.39952L4.65968 6.3997L4.67475 6.38412L4.65318 6.3658L4.65078 6.36289L4.63795 6.38121L4.63794 6.3812ZM8.64052 5.66809L8.53593 5.67135L8.4411 5.6835L8.35141 5.70181L8.27438 5.72304L8.20454 5.74803L8.1448 5.77251L8.04997 5.82215L7.99503 5.85827L7.97637 5.87368L7.89643 5.92965L7.80674 5.99692L7.71191 6.07361L7.61417 6.16313L7.39593 6.35964L7.16142 6.58697L6.9192 6.83312L6.66672 7.09415L6.16586 7.63267L5.70506 8.14551L5.32061 8.57892L4.96336 8.99076L5.00085 9.00908L5.03457 9.02449L5.06881 9.03407L5.10578 9.03698H5.13916L5.17562 9.03407L5.24649 9.01524L5.31444 8.98495L5.38223 8.94455L5.44676 8.89884L5.50856 8.84338L5.56333 8.78792L5.61588 8.73212L5.70164 8.62805L5.75659 8.55102L5.77525 8.52072L5.8278 8.57276L5.87692 8.60973L5.92605 8.63147L5.96936 8.64345H6.01232L6.05512 8.63438L6.09226 8.61949L6.12547 8.59723L6.15628 8.57276L6.18469 8.54811L6.23091 8.49316L6.26703 8.43445L6.34354 8.28998L6.42074 8.14842L6.50068 8.01012L6.58353 7.87865L6.66672 7.74908L6.75299 7.62634L6.92485 7.38944L7.09688 7.1712L7.26925 6.97127L7.43888 6.78982L7.59876 6.62704L7.75179 6.48257L7.8901 6.35676L8.01626 6.24944L8.12649 6.16025L8.28123 6.04283L8.33892 6.00329L8.45309 5.96341L8.54791 5.94509L8.62511 5.94218L8.65884 5.948L8.68674 5.95365L8.71361 5.96615L8.73586 5.97881L8.76907 6.01202L8.79406 6.05242L8.80947 6.09812L8.81871 6.14725V6.19689L8.80947 6.29223L8.79406 6.35968L8.7879 6.38724L8.72902 6.43054L8.68674 6.46717L8.65884 6.50415L8.64052 6.53787L8.63128 6.56817V6.59915L8.6371 6.62414L8.64617 6.64537L8.66551 6.66403L8.67989 6.68234L8.72046 6.70699L8.76668 6.72856L8.82197 6.78351L8.92022 6.86738L9.18126 7.0668L9.53491 7.32545L9.56572 7.35574L9.59602 7.37731L9.62734 7.39238L9.65473 7.40196L9.68229 7.40778H9.71019L9.75881 7.40196L9.79629 7.38656L9.8271 7.36773L9.85466 7.34599L9.86048 7.28488L9.87298 7.21418L9.89369 7.14041L9.9192 7.0668L9.96199 6.94681L9.98082 6.89768L9.9192 6.92507L9.85757 6.9439L9.7992 6.9564L9.74768 6.96222L9.66962 6.96513L9.63933 6.96222L9.57428 6.95879L9.51659 6.94972L9.46113 6.93432L9.41201 6.916L9.3663 6.89478L9.32573 6.8703L9.25795 6.81432L9.20882 6.75903L9.17459 6.71025L9.15045 6.66403L9.11673 6.63904L9.09225 6.61833L9.07685 6.59334L9.06435 6.56817L9.05853 6.54712V6.52589L9.0676 6.48875L9.08301 6.45503L9.10475 6.43055L9.12888 6.40881L9.20643 6.32596L9.26411 6.25236L9.30468 6.18149L9.32865 6.11696L9.3408 6.05533V6.0033L9.33207 5.95366L9.31324 5.90744L9.29201 5.87081L9.26754 5.83709L9.24015 5.8097L9.21208 5.78796L9.16928 5.75715L9.15045 5.74517L9.00889 5.70802L8.87692 5.68354L8.75693 5.67139L8.64053 5.66814L8.64052 5.66809ZM13.0477 5.66827L12.9625 5.67409L12.8884 5.68659L12.83 5.70199L12.7805 5.72031L12.7468 5.74205L12.7198 5.76036L12.7004 5.77577L12.6884 5.78826L12.5382 5.82815L12.4183 5.87111L12.3721 5.89559L12.3291 5.92024L12.2949 5.94472L12.2641 5.96937L12.2396 5.99675L12.2242 6.02175L12.2093 6.0493L12.1996 6.07669L12.1967 6.12924L12.2025 6.18128L12.2208 6.23041L12.2487 6.27662L12.2792 6.31942L12.3108 6.35656L12.3658 6.40894L12.3904 6.43017L12.4303 6.50394L12.455 6.56505L12.464 6.61812L12.4606 6.66091L12.4486 6.69172L12.4303 6.71911L12.4024 6.73743L12.3692 6.74992L12.3355 6.75626L12.2988 6.76208L12.2271 6.75917L12.1563 6.75009L12.0373 6.74136L11.9382 6.74718L11.8581 6.7655L11.7946 6.78707L11.7449 6.8112L11.7107 6.83328L11.6867 6.85742L11.6342 6.89114L11.588 6.91853L11.5388 6.93736L11.496 6.94985L11.456 6.95619H11.4164L11.3795 6.95276L11.3487 6.94643L11.2932 6.92829L11.2499 6.90364L11.2162 6.87625L11.1766 6.8391L11.1386 6.81788L11.1025 6.80829H11.0693L11.0441 6.81463L11.0226 6.8237L11.0043 6.83619L10.9546 6.87916L10.8997 6.91322L10.8415 6.93736L10.7884 6.9591L10.7002 6.97776L10.6662 6.98358L10.6078 6.92538L10.5525 6.88241L10.5029 6.85451L10.4567 6.83911L10.4142 6.83328L10.3767 6.83911L10.3396 6.8516L10.3088 6.86992L10.2817 6.89114L10.2602 6.91853L10.2235 6.96817L10.2018 7.01148L10.1956 7.02654L10.1186 7.15595L10.0602 7.27543L10.0203 7.3891L9.99569 7.4942L9.98713 7.59245L9.98952 7.68146L9.99962 7.7614L10.0203 7.83517L10.0458 7.89971L10.0724 7.95842L10.1008 8.00412L10.1282 8.04418L10.1773 8.09621L10.1956 8.11487L11.0693 9.37542L11.1116 9.09845L11.0933 8.96306L11.0905 8.84323L11.1025 8.74207L11.1237 8.65254L11.1516 8.57928L11.1888 8.51766L11.2316 8.46562L11.2744 8.42505L11.3202 8.39424L11.367 8.37028L11.4135 8.35145L11.4531 8.34238L11.5147 8.33022H11.5359L11.6097 8.32406H11.6799L11.7518 8.33313L11.8182 8.34512L11.8894 8.36634L11.9568 8.3915L12.0214 8.42231L12.0893 8.45929L12.1504 8.49592L12.2155 8.53974L12.3355 8.63457L12.4457 8.73522L12.5506 8.84323L12.6451 8.95449L12.7314 9.05838L12.87 9.25249L12.9596 9.38738L12.9899 9.43942L13.0232 9.49231L13.0578 9.53185L13.0881 9.569L13.1194 9.5969L13.1744 9.63011L13.2211 9.64842H13.2572L13.2846 9.6426L13.3098 9.63011L13.5496 9.58098L13.7711 9.54144L13.9772 9.51063L14.167 9.48855L14.3428 9.47314L14.4993 9.46732L14.6405 9.46441L14.7667 9.46732L14.9728 9.4793L15.1167 9.49813L15.2035 9.51645L15.2304 9.52569L15.2911 9.51936L15.3451 9.51063L15.3841 9.49813L15.4144 9.48564L15.4399 9.47023L15.4577 9.45482L15.468 9.43702L15.4733 9.42162L15.4704 9.38738L15.4606 9.35948L15.4433 9.33192L14.7175 8.15832L14.6814 8.08454L14.6467 8.02532L14.6092 7.98252L14.5755 7.95171L14.5423 7.93631L14.512 7.92758H14.4806L14.4531 7.93631L14.4281 7.9488L14.404 7.96712L14.3665 8.00409L14.3333 8.05031L13.1377 8.88307L13.0819 8.92929L13.0294 8.95719L12.9803 8.97551L12.9322 8.98184L12.8854 8.97842L12.8454 8.96644L12.8055 8.94761L12.7689 8.92313L12.7381 8.89848L12.7096 8.87109L12.6634 8.81563L12.6273 8.75743L12.5902 8.67116L12.5564 8.60081L12.5251 8.54552L12.4948 8.4993L12.4674 8.46558L12.4399 8.43768L12.4154 8.42227L12.3931 8.41252L12.3753 8.4067H12.3567L12.3291 8.41645L12.3108 8.42792L12.3046 8.43426L12.2487 8.41012L12.1966 8.38564L12.1105 8.33018L12.0431 8.27096L11.994 8.21652L11.9568 8.17031L11.9352 8.13025L11.9198 8.09379L11.8798 8.02874L11.8495 7.97037L11.8283 7.92125L11.8158 7.87503L11.8123 7.83515L11.8158 7.80091L11.8243 7.77061L11.837 7.74596L11.8527 7.7244L11.8681 7.70608L11.9044 7.68434L11.9414 7.66603L12.1042 7.5462L12.2487 7.41988L12.3788 7.29766L12.4885 7.1715L12.5867 7.04809L12.6706 6.92535L12.741 6.81118L12.7997 6.70095L12.8483 6.59876L12.8854 6.50735L12.9375 6.35312L12.9625 6.25195L12.9683 6.21532L12.9866 6.15045L13.0087 6.10166L13.0323 6.06469L13.0578 6.03679L13.0819 6.01898L13.1011 6.00871L13.1162 6.00341L13.2144 5.98132L13.3011 5.96934L13.3776 5.96592L13.4442 5.97259L13.5005 5.98475L13.5496 6.00341L13.5891 6.02754L13.6232 6.05219L13.6508 6.08009L13.6723 6.10748L13.6999 6.16294L13.7124 6.19957L13.7158 6.21532L16.4046 10.4416L16.4423 10.5033L16.4755 10.5462L16.5063 10.58L16.5342 10.5986L16.5587 10.6079H16.5794L16.5948 10.6015L16.6113 10.589L16.6359 10.5524L16.6513 10.5125L16.6599 10.4637L16.6383 10.3834L16.6285 10.3309L16.633 10.2977L16.6359 10.2879L16.6445 10.2818L16.6628 10.2847L16.6878 10.3033L16.7182 10.328L16.7519 10.3646L16.8266 10.4507L16.8906 10.5399L16.958 10.6358L16.9894 10.7065L17.0197 10.7585L17.0438 10.7917L17.0693 10.814L17.09 10.8227H17.1092L17.1237 10.81L17.1397 10.7951L17.1636 10.746L17.1825 10.694L17.1949 10.6358L17.2042 10.5616V10.4815L17.192 10.4016L17.1737 10.3217L17.1492 10.2417L17.1179 10.1618L17.0813 10.0853L17.0438 10.0115L16.9671 9.87677L16.8997 9.76842L16.8324 9.67342L16.7341 9.51063L16.6696 9.38739L16.633 9.29821L16.62 9.24001V9.2217L16.6258 9.2092L16.6359 9.20338H16.6513L16.6878 9.21536L16.7341 9.24241L16.7889 9.27989L16.8481 9.32902L16.9639 9.42728L17.0871 9.54727L17.1636 9.59348L17.2225 9.62378L17.2687 9.64261L17.299 9.64843L17.3208 9.64261L17.3298 9.63011L17.3333 9.60837L17.3298 9.58475L17.3091 9.52279L17.2749 9.46151L17.2379 9.39646L15.7009 7.30332L15.4895 7.06693L15.2949 6.86032L15.1231 6.68265L14.9637 6.52602L14.8216 6.39645L14.6958 6.28912L14.588 6.1996L14.4897 6.12924L14.4098 6.07378L14.3389 6.03099L14.2379 5.98135L14.1795 5.96303L14.1641 5.96012L13.9431 5.87112L13.7432 5.80025L13.5674 5.74479L13.411 5.70781L13.2721 5.68368L13.1527 5.67118L13.0477 5.66827L13.0477 5.66827ZM18.151 5.84338L18.0955 5.85262L18.0426 5.86512L17.9882 5.88634L17.9324 5.91133L17.8775 5.94506L17.822 5.98117L17.7508 6.0404L17.6964 6.10151L17.6531 6.16604L17.6222 6.23691L17.6068 6.31103L17.6039 6.38378L17.613 6.46714L17.6376 6.5505L17.7878 6.96509L17.7941 6.9959L17.797 7.0262V7.05992L17.7907 7.09124L17.7792 7.1188L17.7633 7.1467L17.7455 7.17118L17.7205 7.1895L17.6741 7.22031L17.6275 7.23571L17.5822 7.23862L17.5336 7.22904L17.4839 7.20832L17.4372 7.17751L17.3915 7.1313L17.3424 7.07532L17.3057 7.01764L17.2813 6.95892L17.2686 6.90398V6.84852L17.2813 6.79614L17.3057 6.7441L17.3453 6.69497L17.3977 6.64533L17.2167 6.3997L17.1573 6.44934L17.1092 6.49795L17.0664 6.54708L17.0288 6.59912L16.9975 6.65201L16.9738 6.70405L16.9581 6.75609L16.9459 6.81155L16.943 6.86735L16.9459 6.9223L16.9523 6.98049L16.9672 7.03921L16.9892 7.09758L17.0197 7.15629L17.0534 7.21415L17.0938 7.27235L17.1395 7.32832L17.1825 7.37745L17.2325 7.42024L17.2813 7.45739L17.3299 7.48477L17.3819 7.50891L17.4353 7.52808L17.4898 7.54024L17.545 7.54314H17.601L17.6563 7.53681L17.7147 7.52141L17.77 7.5036L17.8283 7.47519L17.886 7.44147L17.942 7.40483L18.0249 7.33397L18.0552 7.30025L18.0831 7.26618L18.1048 7.22904L18.1226 7.19292L18.1385 7.15252L18.1481 7.11298L18.1544 7.04212V6.97758L18.1414 6.91014L18.1226 6.83945L17.9627 6.40603L17.954 6.37505L17.9511 6.34424V6.31685L17.9574 6.28895L17.9699 6.26139L17.9848 6.23691L18.0065 6.21192L18.0315 6.1907L18.0711 6.16605L18.1178 6.15064L18.1601 6.14739L18.2031 6.15355L18.2493 6.16896L18.2921 6.19686L18.3326 6.23058L18.3693 6.27645L18.4062 6.32883L18.4269 6.38378L18.4394 6.43684V6.48597L18.4309 6.5351L18.4062 6.58423L18.3725 6.63318L18.3263 6.68231L18.5074 6.92521L18.56 6.88276L18.6057 6.83945L18.6461 6.79323L18.6798 6.74411L18.7068 6.69498L18.7286 6.64243L18.7472 6.59039L18.7565 6.5351L18.7618 6.48255V6.42709L18.7565 6.37231L18.7411 6.31343L18.7227 6.25814L18.6986 6.20319L18.6668 6.14739L18.6307 6.09193L18.5868 6.0428L18.5469 5.9971L18.5007 5.95704L18.4554 5.92281L18.4062 5.89594L18.3571 5.87368L18.308 5.85588L18.2556 5.84578L18.2031 5.84339H18.151L18.151 5.84338ZM13.3282 6.14739L13.291 6.15355L13.2607 6.16895L13.2332 6.18385L13.2082 6.2061L13.1683 6.2518L13.1466 6.28604L13.1378 6.30093L13.1245 6.37231L13.1065 6.4454L13.0855 6.51626L13.0579 6.58696L12.9929 6.72869L12.9163 6.86734L12.8268 6.9988L12.7315 7.12496L12.6332 7.24495L12.5321 7.35862L12.4338 7.4603L12.3355 7.55564L12.1693 7.70576L12.0528 7.80453L12.0065 7.83826L12.0831 7.97656L12.1505 8.07482L12.2094 8.13935L12.2585 8.17923L12.295 8.19755L12.3254 8.2044H12.3408L12.348 8.20097L12.4338 8.1272L12.6056 7.9668L13.0854 7.51559L13.7587 6.87608L13.7765 6.83945L13.7924 6.80231L13.8015 6.76807L13.8078 6.73777V6.68248L13.7953 6.6361L13.7765 6.60289L13.7587 6.5779L13.7369 6.55667L13.6075 6.32268L13.5526 6.25814L13.5035 6.21193L13.4538 6.1782L13.4076 6.15698L13.3646 6.14739H13.3282L13.3282 6.14739ZM8.43772 6.2518L8.404 6.25523L8.36736 6.25814L8.30249 6.27645L8.23162 6.30093L7.73984 6.79271L7.69705 6.82695L7.66281 6.86067L7.63782 6.88857L7.62276 6.91596L7.61129 6.9406L7.60735 6.96508V6.9834L7.6142 7.00223L7.62909 7.03304L7.65032 7.05375L7.67531 7.06967L7.94269 7.25984L8.19123 7.42605L8.42522 7.57104L8.64381 7.69377L8.84323 7.79494L9.03066 7.8783L9.19961 7.94574L9.35332 8.0012L9.48906 8.04108L9.60563 8.0719L9.70732 8.09364L9.79016 8.10562L9.90092 8.11486H9.94046L9.91581 8.00685L9.89082 7.91544L9.86377 7.83499L9.83397 7.77101L9.80316 7.71846L9.77184 7.67515L9.73863 7.64143L9.70833 7.6173L9.67701 7.59847L9.64962 7.5894L9.60049 7.5769L9.56677 7.58015L9.55701 7.58306L9.46219 7.54318L9.36736 7.49405L9.2715 7.4415L9.17563 7.3833L8.98871 7.25988L8.81634 7.13715L8.66947 7.02058L8.54896 6.92524L8.44506 6.83605L8.41716 6.81157L8.39885 6.78744L8.38344 6.76193L8.37711 6.7378L8.3742 6.71332L8.37711 6.69158L8.392 6.64879L8.41716 6.61164L8.43873 6.58425L8.46629 6.55669L8.50326 6.47641L8.52449 6.41188L8.53408 6.35984L8.53031 6.31979L8.5149 6.28898L8.4971 6.27066L8.46903 6.25817L8.43873 6.25183L8.43772 6.2518ZM13.9397 6.96252L13.9238 6.96492L13.9084 6.97399L13.8872 6.99898L13.8723 7.03322L13.8627 7.06985L12.6481 8.17956L12.6178 8.20986L12.5998 8.24358L12.5942 8.28073L12.5971 8.32061L12.6057 8.36066L12.624 8.40055L12.6452 8.4406L12.6707 8.48049L12.7286 8.55478L12.7806 8.61589L12.8398 8.67118L12.8547 8.69873L12.873 8.71705L12.8951 8.73246L12.9192 8.73913L12.9466 8.74204L12.9745 8.73913L13.0324 8.72321L13.0882 8.70164L13.1378 8.67751L13.1811 8.65012L14.2688 7.77353L14.2895 7.75231L14.3087 7.73057L14.327 7.68435L14.3333 7.63865L14.327 7.59534L14.3174 7.5558L14.3052 7.52499L14.2895 7.49709L14.1002 7.13437L14.0654 7.07565L14.0314 7.0332L14.0043 7.00239L13.9802 6.98031L13.9581 6.96816L13.9398 6.96251L13.9397 6.96252ZM7.46253 7.17769L7.32473 7.32507L7.19618 7.47535L7.0791 7.62307L6.97742 7.75847L6.83346 7.97039L6.7804 8.05033L6.93068 8.13608L7.10357 8.21979L7.29443 8.30503L7.4971 8.3884L7.91802 8.54536L8.34236 8.68949L8.72904 8.81273L9.04656 8.90807L9.34081 8.99092L9.32854 8.93229L9.32238 8.88316L9.31947 8.83729L9.32238 8.7974L9.32854 8.76026L9.33779 8.72945L9.36329 8.67741L9.39359 8.64369L9.41824 8.62212L9.44905 8.60672L9.48568 8.5605L9.52847 8.52678L9.58102 8.50213L9.6358 8.48672L9.69759 8.47765H9.7587L9.82426 8.48347L9.88537 8.49306L10.0052 8.51754L10.1034 8.54835L10.1955 8.58549L10.0235 8.33027L9.90421 8.32736L9.7837 8.32069L9.66422 8.30511L9.5473 8.28696L9.42971 8.25889L9.31314 8.23202L9.19656 8.19778L9.0829 8.15824L8.97164 8.11494L8.86141 8.07163L8.6524 7.97337L8.44955 7.8693L8.26229 7.76146L8.08992 7.65396L7.93672 7.54611L7.79807 7.44838L7.6839 7.35885L7.52162 7.22636L7.4624 7.17775L7.46253 7.17769ZM2.98958 8.10204L2.95073 8.10546L2.90725 8.11214L2.83365 8.13576L2.76329 8.17342L2.70167 8.22255L2.65254 8.28417L2.63423 8.31738L2.61591 8.35161L2.60051 8.38859L2.59092 8.42813L2.5851 8.46818V8.51149V8.55103L2.59092 8.59092L2.61591 8.66846L2.65254 8.73881L2.70167 8.80043L2.76329 8.84905L2.7965 8.86788L2.83365 8.8867L2.87062 8.89869L2.90725 8.91118L2.95073 8.917H2.98959H3.03341L3.07346 8.91118L3.14998 8.8867L3.21845 8.84905L3.27956 8.80043L3.32817 8.73881L3.36583 8.66846L3.38072 8.63131L3.38996 8.59091L3.39613 8.55103L3.40006 8.51149L3.39613 8.46818L3.38996 8.42813L3.36583 8.35161L3.32817 8.28417L3.27956 8.22255L3.24874 8.19447L3.21845 8.17342L3.14998 8.13576L3.113 8.12087L3.07346 8.11214L3.03341 8.10546L2.98959 8.10204L2.98958 8.10204ZM18.9964 8.10204L18.9565 8.10546L18.917 8.11214L18.8394 8.13576L18.7696 8.17342L18.7104 8.22255L18.6607 8.28417L18.64 8.31738L18.6212 8.35161L18.6092 8.38859L18.6001 8.42813L18.5933 8.46818L18.5904 8.51149L18.5933 8.55103L18.6001 8.59092L18.6212 8.66846L18.6607 8.73881L18.7104 8.80043L18.7696 8.84905L18.8028 8.86788L18.8394 8.8867L18.8766 8.89869L18.917 8.91118L18.9565 8.917H18.9964H19.0397L19.0797 8.91118L19.1563 8.8867L19.2266 8.84905L19.285 8.80043L19.3345 8.73881L19.375 8.66846L19.3865 8.63131L19.3957 8.59091L19.4024 8.55103L19.4053 8.51149L19.4024 8.46818L19.3957 8.42813L19.375 8.35161L19.3345 8.28417L19.285 8.22255L19.2266 8.17342L19.1563 8.13576L19.1196 8.12087L19.0797 8.11214L19.0397 8.10546L18.9964 8.10204V8.10204ZM6.67052 8.21981L6.63971 8.22854L6.6089 8.24344L6.57569 8.2686L6.50448 8.33313L6.43413 8.41016L6.36959 8.48959L6.31704 8.55703L6.2674 8.62824L6.2241 8.68609L6.17839 8.73231L6.13218 8.76997L6.0863 8.79393L6.03957 8.81276L5.99729 8.82475L5.95433 8.83159H5.91444L5.83981 8.8191L5.78538 8.80369L5.73334 8.77853L5.56764 8.95724L5.43516 9.08922L5.33022 9.17549L5.25029 9.23078L5.19483 9.25834L5.1611 9.27083H5.14279L5.13663 9.26741L5.09657 9.30404L5.06285 9.34153L5.03495 9.37816L5.00996 9.41188L4.97966 9.48275L4.96374 9.54437L4.95792 9.59692V9.63629L4.96374 9.67343L4.68781 10.2298L4.76433 10.2147L4.82595 10.208L4.87508 10.2109L4.91462 10.22L4.94303 10.2354L4.95792 10.2571L4.97145 10.2789L4.97384 10.3068V10.3342L4.96751 10.3617L4.94885 10.4109L4.92472 10.4637L4.53992 11.0841L4.6695 11.0908H4.78316L4.88141 11.0841L4.96375 11.0692L5.03256 11.0504L5.09042 11.0291L5.13663 11.0047L5.17035 10.9795L5.19826 10.9521L5.21657 10.9247L5.23249 10.8996L5.2378 10.8756L5.24396 10.8408V10.8254V10.771L5.25029 10.7243L5.25937 10.6876L5.26861 10.6563L5.28401 10.6356L5.296 10.6169L5.31192 10.6077L5.33023 10.5991L5.36053 10.5952L5.38843 10.6015L5.41359 10.614L5.53342 10.5615L5.63167 10.5094L5.7111 10.4571L5.7758 10.4045L5.82493 10.3617L5.85899 10.3251L5.88313 10.2943L5.89323 10.2452L5.90487 10.208L5.91976 10.1777L5.93893 10.1531L5.95724 10.1342L5.97556 10.1252L5.9973 10.1161L6.01887 10.1127L6.0555 10.119L6.08922 10.1286L6.11764 10.1435H6.19039L6.26159 10.1344L6.32904 10.1127L6.39751 10.0824L6.46101 10.0457L6.52263 9.99952L6.581 9.9533L6.63629 9.90366L6.73181 9.80541L6.8025 9.71674L6.86755 9.63013L9.17207 9.8025L9.22171 9.80832H9.26793L9.30508 9.80541L9.33247 9.79907L9.3566 9.79L9.37543 9.78041L9.39032 9.76826L9.39991 9.75337L9.40949 9.72598L9.4124 9.70082L9.40624 9.67343L9.3691 9.55344L9.34445 9.44612L9.31364 9.2799L9.30165 9.17549L9.29823 9.14177L8.9795 9.0709L8.67755 8.99678L8.40094 8.9201L8.1452 8.84307L7.90881 8.76604L7.69741 8.68952L7.5033 8.61575L7.33127 8.54539L7.18115 8.47761L7.05157 8.41633L6.85164 8.31482L6.73559 8.24738L6.69519 8.22239V8.22221L6.67054 8.21982L6.67052 8.21981ZM11.561 8.55481L11.509 8.57021L11.4656 8.59127L11.4323 8.61934L11.4039 8.65255L11.3831 8.68627L11.3674 8.72033L11.3491 8.77579L11.3462 8.79753L11.3268 8.8191L11.3124 8.84323L11.2875 8.90828L11.2691 8.98822L11.2537 9.08014L11.2445 9.1813L11.2411 9.28914V9.51081L11.2503 9.72547L11.2657 9.90708L11.2806 10.0791L11.2657 10.1591L11.2474 10.2173L11.232 10.2573L11.2166 10.2847L11.1978 10.2972L11.1829 10.3006L11.168 10.2914L11.1521 10.2756L11.1274 10.2327L11.1058 10.1803L11.0909 10.1224L11.0509 10.0178L11.0076 9.91342L10.9184 9.71058L10.8198 9.51938L10.7219 9.34753L10.6329 9.20306L10.562 9.0894L10.4942 8.99114L10.4234 8.9112L10.3554 8.84325L10.2919 8.79121L10.2298 8.7479L10.1719 8.71709L10.1166 8.69587L10.067 8.68389L10.0208 8.67755L9.97779 8.67413L9.94082 8.67755L9.88245 8.68953L9.84582 8.70494L9.83332 8.71418L9.78711 8.71127H9.74431L9.70768 8.71709L9.67002 8.72617L9.63972 8.73918L9.61182 8.75458L9.58769 8.77238L9.56612 8.79755L9.5324 8.84941L9.50775 8.90829L9.48943 8.97231L9.47933 9.04027L9.47642 9.11097L9.47933 9.17841L9.48943 9.2984L9.50484 9.3845L9.51305 9.41822L9.5478 9.53188L9.56612 9.63647L9.57228 9.73764L9.56612 9.83059L9.5478 9.91584L9.52024 9.99286L9.48943 10.0665L9.45194 10.1315L9.4124 10.187L9.36909 10.239L9.32904 10.2789L9.29258 10.3155L9.23712 10.3617L9.21247 10.3771L9.20973 10.3919L13.1382 10.3154L13.3431 10.2988L13.3285 10.2943L13.2696 10.2727L13.2239 10.2481L13.184 10.2236L13.1353 10.1841L13.1166 10.1652L13.0582 10.1283L13.012 10.0824L12.975 10.0333L12.947 9.98379L12.9254 9.93791L12.9138 9.90043L12.9037 9.86671L12.8521 9.73422L12.7967 9.61149L12.7351 9.49817L12.6739 9.39323L12.606 9.2984L12.5409 9.20922L12.4769 9.12928L12.4124 9.06133L12.2955 8.94493L12.2 8.86482L12.1383 8.81569L12.1147 8.79755L11.988 8.70888L11.8778 8.64041L11.782 8.59129L11.6959 8.56338L11.6226 8.55482H11.561L11.561 8.55481ZM13.3431 10.2987L13.3963 10.3155L13.1897 10.3868L12.9629 10.4605L12.6827 10.5462L12.3662 10.6357L12.0345 10.7181L11.8712 10.7557L11.7084 10.786L11.5547 10.8102L11.4102 10.8256L9.17209 10.5924L9.20975 10.3918L9.1851 10.3923L8.09607 10.2633L7.39255 11.1393L7.58324 12.0371L7.59231 15.5356L8.10343 15.8458V12.4923L8.10874 12.4339L8.12175 12.3781L8.1452 12.3266L8.17995 12.2803L8.2224 12.2399L8.27187 12.209L8.33366 12.1908L8.40436 12.185L8.44681 12.1879L8.48721 12.1999L8.52093 12.2158L8.54832 12.2341L8.57297 12.2586L8.59471 12.2833L8.62552 12.3385L8.64418 12.3974L8.65291 12.4431L8.65924 12.4923L8.66592 16.0943L9.1601 16.2455L9.16626 12.5693L9.16969 12.5322L9.175 12.486L9.1904 12.434L9.21539 12.3816L9.25254 12.3324L9.27376 12.3136L9.30167 12.2953L9.32905 12.2804L9.36671 12.2679L9.40334 12.2616L9.44614 12.2587L9.49526 12.2616L9.53857 12.2708L9.57229 12.2866L9.60601 12.3049L9.63066 12.3295L9.65172 12.354L9.68595 12.409L9.70427 12.4677L9.71351 12.5168L9.71642 12.5627V16.417L10.2519 16.6011L10.2394 12.5901L10.2423 12.5293L10.2543 12.4798L10.2755 12.4215L10.2919 12.3936L10.3092 12.3662L10.3318 12.3415L10.3583 12.3203L10.3897 12.3011L10.4271 12.2895L10.4701 12.2804L10.5187 12.2775L10.5678 12.2804L10.6112 12.2895L10.6444 12.3049L10.6781 12.3237L10.7036 12.3473L10.7243 12.3723L10.758 12.4278L10.7774 12.486L10.7864 12.5322L10.7888 12.5813V16.6656H11.3183L11.3032 12.5843L11.309 12.5294L11.3207 12.477L11.3422 12.4183L11.3799 12.3628L11.4011 12.3358L11.429 12.3137L11.4593 12.2954L11.4965 12.2805L11.5363 12.2709L11.5826 12.268L11.6346 12.2709L11.6805 12.2834L11.7209 12.2983L11.7546 12.3204L11.782 12.3445L11.8037 12.3692L11.822 12.4003L11.8345 12.4279L11.8534 12.4861L11.8619 12.5352V12.5843L11.8688 16.549L12.3229 16.4171L12.32 12.5473V12.5169L12.3296 12.4741L12.3484 12.4244L12.3725 12.3724L12.4091 12.3238L12.4341 12.3012L12.461 12.2805L12.4918 12.2651L12.5255 12.2521L12.5627 12.2462L12.6031 12.2433L12.6586 12.2462L12.7048 12.2587L12.7414 12.2747L12.7751 12.2925L12.8001 12.3171L12.8208 12.3445L12.8367 12.3724L12.8487 12.4032L12.8638 12.4616L12.8676 12.5107V12.5598L12.8768 16.236L13.3405 16.0766L13.3376 12.4465L13.3439 12.3816L13.3564 12.3325L13.3809 12.2804L13.4143 12.2313L13.4393 12.2062L13.4629 12.188L13.4975 12.1697L13.5312 12.1538L13.5742 12.145L13.6204 12.1416L13.67 12.145L13.7128 12.1509L13.7494 12.1668L13.7803 12.1851L13.8082 12.2091L13.8289 12.2342L13.8597 12.2924L13.8785 12.3474L13.8876 12.3975L13.8905 12.4467L13.8973 15.8397L14.4285 15.5506L14.4352 12.0372L14.6901 11.1394L14.0509 10.2418L13.3431 10.2988L13.3431 10.2987ZM1.6754 9.89763L1.62919 10.2112L2.39502 10.322L2.30019 10.9795L2.62235 11.0289L2.7206 10.3711L3.12663 10.4295L3.01622 11.1826L3.33853 11.2318L3.49499 10.165L1.67538 9.89762L1.6754 9.89763ZM20.4263 9.9281L18.6032 10.1746L18.6645 10.6258L20.14 10.6996L18.7358 11.1638L18.7964 11.6219L20.6199 11.3757L20.5833 11.0839L19.0489 11.29L20.5461 10.8074L20.5033 10.4996L18.9352 10.426L20.4656 10.2203L20.4263 9.9281L20.4263 9.9281ZM15.5536 10.5067L15.52 10.5183L15.505 10.5308L15.4901 10.5462L15.4651 10.5924L15.4497 10.6604L15.4404 10.7528L15.4439 10.8689L15.4584 10.8968L15.4685 10.9247L15.4771 10.9642L15.4736 11.0139L15.4611 11.0688L15.4308 11.1275L15.4096 11.1578L15.3788 11.1886L15.3384 11.2099L15.3023 11.2348L15.271 11.2657L15.2585 11.2869L15.2532 11.3086L15.2556 11.3331L15.2617 11.3607L15.2806 11.3886L15.3081 11.4194L15.3485 11.4526L15.4005 11.4868L15.4521 11.5056L15.4988 11.5267L15.5479 11.5604L15.57 11.5822L15.5878 11.6039L15.6003 11.6313L15.6096 11.6592V11.6929L15.6003 11.7266L15.5817 11.7667L15.5508 11.81L15.532 11.8437L15.5233 11.8803V11.9298L15.5291 11.9539L15.5416 11.9819L15.5604 12.0065L15.5878 12.0339L15.6215 12.0589L15.6648 12.083L15.7198 12.108L15.7848 12.1292L15.8334 12.1231H15.8831L15.9447 12.1263L16.0058 12.1356L16.0652 12.1568L16.0916 12.1698L16.1128 12.1881L16.1345 12.2087L16.1476 12.2371L16.159 12.1664L16.1749 12.0955L16.2023 12.0094L16.2395 11.9168L16.2645 11.8745L16.291 11.8312L16.3252 11.7907L16.3595 11.7545L16.4028 11.7266L16.4485 11.7016L16.526 11.6404L16.5953 11.5758L16.6633 11.4988L16.6912 11.4598L16.7135 11.4194L16.7254 11.3793V11.3423L16.7135 11.3086L16.7034 11.2903L16.6856 11.2778L16.6416 11.2503L16.5738 11.2319L16.5377 11.2287L16.4976 11.2165L16.4543 11.195L16.436 11.1796L16.4139 11.1578L16.3994 11.1366L16.3874 11.1058L16.3778 11.0717L16.372 11.0317L16.3744 10.986L16.3834 10.9334L16.3805 10.8877L16.372 10.841L16.3536 10.7951L16.3372 10.774L16.3194 10.7557L16.2944 10.7432L16.2674 10.7335H16.2304L16.1909 10.7398L16.1417 10.7586L16.0859 10.7831L16.0493 10.7985L16.0087 10.8073L15.9659 10.8139L15.9226 10.8102L15.9048 10.8043L15.8865 10.7919L15.8711 10.777L15.8586 10.7586L15.8518 10.7306L15.8499 10.6998L15.83 10.6787L15.7819 10.6262L15.7107 10.5678L15.6707 10.5399L15.6303 10.5183L15.5907 10.5067H15.5536L15.5536 10.5067ZM6.31093 10.7833L6.28919 10.7894L6.22859 10.8102L6.14146 10.8473L6.03791 10.906L5.97868 10.9456L5.92373 10.9918L5.86827 11.0476L5.81675 11.1089L5.76728 11.1796L5.72055 11.2595L5.6805 11.3452L5.6502 11.4469L5.60689 11.499L5.56786 11.5606L5.5302 11.6376L5.5148 11.6806L5.50179 11.7263L5.49597 11.7759V11.8251L5.50179 11.8745L5.52113 11.9236L5.54801 11.9728L5.58515 12.0216L5.60107 12.0556L5.61648 12.0957L5.63188 12.1506L5.64438 12.2218L5.64729 12.311L5.64438 12.4149L5.62846 12.5354L5.71473 12.4308L5.80665 12.3138L5.9174 12.1664L6.02815 11.9974L6.08019 11.905L6.13223 11.8129L6.17844 11.721L6.2161 11.6286L6.2464 11.536L6.26763 11.4469L6.25564 11.4098L6.24982 11.367L6.24007 11.2996V11.21L6.24982 11.094L6.27105 10.9523L6.31093 10.7833L6.31093 10.7833ZM3.30185 11.3331L1.4634 11.4192L1.51886 12.5693L1.84734 12.5534L1.8078 11.7145L2.28126 11.6932L2.31498 12.4277L2.64055 12.4123L2.60392 11.6773L2.99009 11.6592L3.02775 12.458L3.35435 12.4432L3.3018 11.3331L3.30185 11.3331ZM6.84598 11.4685L6.82098 11.5176L6.78726 11.5758L6.7318 11.653L6.65871 11.7449L6.55652 11.8466L6.49541 11.8985L6.42746 11.9539L6.35146 12.0094L6.26758 12.0652L6.2556 12.0739L6.21845 12.1018L6.16933 12.1475L6.14142 12.1818L6.1178 12.2217L6.08939 12.2675L6.06491 12.3233L6.04317 12.3844L6.02485 12.4524L6.01287 12.5291L6.00363 12.6157V12.7073L6.01287 12.8122L6.00363 12.8454L5.98822 12.9349L5.98497 12.9962V13.064L5.99456 13.1378L6.01287 13.2172L6.04985 13.1595L6.09863 13.0974L6.16316 13.0178L6.24635 12.9254L6.34409 12.83L6.45826 12.7318L6.52279 12.6855L6.58733 12.6431L6.60907 12.6272L6.66453 12.5844L6.69859 12.5507L6.73865 12.5073L6.77476 12.4524L6.81225 12.3908L6.84597 12.3172L6.87644 12.2343L6.89801 12.1356L6.91341 12.0277L6.91632 11.9077L6.90725 11.7757L6.88209 11.6284L6.84597 11.4685L6.84598 11.4685ZM5.02926 11.5301L4.88428 11.8773L4.79236 12.0767L4.74665 12.1696L4.73125 12.1937L4.73416 12.2492L4.73981 12.3079L4.75282 12.3629L4.76446 12.4147L4.80485 12.5231L4.85689 12.6213L4.918 12.7134L4.98938 12.8024L5.06007 12.8853L5.13676 12.9591L5.21379 13.0274L5.28414 13.0847L5.41612 13.1811L5.50906 13.2389L5.54227 13.2605L5.50513 13.1686L5.47534 13.0736L5.45018 12.9811L5.42861 12.8853L5.40157 12.7071L5.38856 12.5411L5.38274 12.4003L5.38616 12.2891L5.39147 12.1937L5.37024 12.1263L5.32693 12.0339L5.2042 11.8127L5.08421 11.6159L5.02927 11.5301L5.02926 11.5301ZM17.0519 11.5789L17.0298 11.5852L17.0057 11.5977L16.9773 11.6126L16.9502 11.6344L16.8949 11.6989L16.8333 11.7879L16.8516 11.816L16.8665 11.8434L16.8699 11.8776L16.8636 11.8959L16.8545 11.9137L16.8391 11.9324L16.815 11.948L16.7813 11.9666L16.738 11.9788L16.6859 11.9907L16.618 12.0003H16.606H16.5741L16.5322 12.0091L16.5072 12.0186L16.4855 12.0335L16.4644 12.0524L16.4461 12.077L16.4307 12.1082L16.4209 12.1448L16.4143 12.191L16.418 12.246L16.4273 12.311L16.449 12.3846L16.3936 12.4276L16.3479 12.4743L16.3227 12.5046L16.2982 12.5412L16.2765 12.5779L16.2611 12.6183L16.2529 12.6611L16.2491 12.7102L16.2549 12.7593L16.2712 12.8084L16.3016 12.8644L16.3415 12.9194L16.3627 12.9444L16.3877 12.9747L16.409 13.0118L16.434 13.058L16.449 13.1071L16.4547 13.1621V13.1895L16.449 13.2174L16.4143 13.2511L16.3906 13.2882L16.3694 13.3379L16.3665 13.3658V13.3961L16.3723 13.4269L16.384 13.4601L16.4055 13.4943L16.4364 13.531L16.4802 13.5652L16.5322 13.6017L16.5723 13.6446L16.6609 13.749L16.7499 13.8632L16.7778 13.9065L16.7898 13.9394V13.9153L16.7986 13.8879L16.8179 13.8507L16.8514 13.8045L16.9069 13.7554L16.9839 13.7001L17.088 13.6446L17.1217 13.6292L17.1555 13.6114L17.1929 13.5835L17.2234 13.5429L17.2335 13.519L17.2421 13.4914L17.245 13.4601L17.2421 13.4269L17.2335 13.3865L17.2176 13.3464L17.1929 13.3036L17.177 13.2609L17.1645 13.2088V13.1775L17.1674 13.1504L17.1746 13.122L17.1897 13.0946L17.2107 13.0671L17.2388 13.0426L17.2758 13.0209L17.3217 13.0055L17.3682 13.0022L17.4112 12.9901L17.4333 12.9781L17.454 12.9656L17.4723 12.9444L17.4848 12.9194L17.494 12.8889V12.8519L17.4877 12.8057L17.4723 12.7537L17.4449 12.6924L17.4083 12.6217L17.3865 12.597L17.3711 12.572L17.3586 12.5412L17.3528 12.5008L17.3562 12.4801L17.3615 12.4584L17.374 12.4339L17.3924 12.4122L17.4203 12.3875L17.4507 12.363L17.4757 12.3327L17.494 12.298L17.5055 12.2489L17.51 12.222L17.5028 12.191L17.494 12.157L17.4791 12.1203L17.454 12.0827L17.4204 12.0433L17.3764 12.0003L17.3217 11.957L17.3158 11.9262L17.2941 11.8529L17.2571 11.7571L17.2335 11.708L17.2051 11.6652L17.1748 11.6251L17.1371 11.5977L17.0976 11.5823L17.0755 11.5789H17.0519L17.0519 11.5789ZM16.7898 13.9394V13.94H16.79L16.7898 13.9394ZM18.8093 11.7416L18.6527 12.8425L20.4723 13.1041L20.6351 11.9665L20.3095 11.9208L20.1926 12.7506L19.7229 12.6827L19.8265 11.9511L19.5043 11.9049L19.4003 12.6365L19.0189 12.5815L19.132 11.7883L18.8094 11.7416L18.8093 11.7416ZM15.2161 12.1324L15.1861 12.1387L15.1519 12.157L15.121 12.1878L15.0926 12.2345L15.0658 12.2981L15.0377 12.3848L15.0411 12.4122L15.0377 12.4465L15.032 12.4831L15.0166 12.5293L14.9949 12.5755L14.9578 12.6217L14.9115 12.6613L14.8687 12.7046L14.8311 12.7503L14.8008 12.8058L14.7888 12.8366L14.7859 12.8703V12.9011L14.795 12.9314L14.8104 12.9622L14.8384 12.993L14.8773 13.0209L14.9338 13.0456L14.9458 13.0735L14.9675 13.1375L14.9737 13.181L14.9766 13.2272L14.9699 13.2763L14.9545 13.3254L14.9458 13.3403L14.9304 13.3802L14.915 13.4424L14.9115 13.4761V13.5093L14.9184 13.5459L14.9304 13.5836L14.9516 13.6176L14.98 13.6481L15.0199 13.6755L15.0685 13.7001L15.133 13.7188L15.2102 13.731L15.2313 13.7464L15.2535 13.765L15.2695 13.7897L15.2748 13.8205L15.2713 13.8388L15.2623 13.8576L15.2501 13.8754L15.2285 13.8943L15.2044 13.9153L15.1668 13.94L15.1303 13.9862L15.1027 14.0353L15.0897 14.0627L15.0812 14.0906L15.0772 14.119L15.0812 14.1455L15.0926 14.1707L15.1115 14.1918L15.1433 14.2106L15.1895 14.226L15.2434 14.2352L15.3176 14.238L15.3792 14.2881L15.5387 14.3984L15.6402 14.4653L15.7481 14.5271L15.8556 14.5829L15.9567 14.6224L15.9533 14.5949L15.9567 14.5574L15.9692 14.5117L15.9934 14.4533L16.0367 14.3888L16.1017 14.3184L16.145 14.278L16.1912 14.238L16.212 14.2323L16.2611 14.2077L16.3227 14.1705L16.3569 14.1455L16.3838 14.1152L16.4055 14.0849L16.4239 14.0507L16.4305 14.0106L16.4239 13.9679L16.409 13.9245L16.3747 13.8783L16.3256 13.8268L16.2547 13.7737L16.2029 13.7583L16.1532 13.7405L16.1262 13.7217L16.1046 13.7034L16.0834 13.6789L16.0656 13.651L16.0521 13.6144L16.0497 13.5743L16.0521 13.5286L16.0656 13.4761L16.0892 13.4139L16.1262 13.3465L16.1657 13.3128L16.1936 13.2763L16.2183 13.2299L16.2244 13.2089V13.1837L16.2143 13.1621L16.2 13.1375L16.1724 13.1163L16.1349 13.0976L16.0863 13.0825L16.0218 13.0671H15.9783L15.9389 13.0541L15.9201 13.0456L15.9052 13.0307L15.8893 13.0118L15.88 12.9901L15.8739 12.9588L15.8763 12.9256L15.8869 12.8823L15.9052 12.8302L15.9355 12.772L15.9785 12.7046L15.9881 12.643L15.9905 12.5813L15.9851 12.5166L15.9726 12.4831L15.9567 12.455L15.9355 12.4276L15.9052 12.4093L15.8675 12.3939L15.8218 12.3876L15.7664 12.3905L15.7018 12.4064L15.6734 12.4151L15.6471 12.418H15.6099L15.5671 12.4093L15.5204 12.3876L15.4713 12.354L15.4221 12.298L15.3821 12.2404L15.3359 12.1912L15.3085 12.1695L15.2777 12.1507L15.2469 12.1387L15.2161 12.1323L15.2161 12.1324ZM3.39412 12.6332L2.60432 12.8123L1.59916 13.0363L1.74603 13.7063L1.76486 13.7679L1.79276 13.8266L1.82597 13.8782L1.86928 13.9215L1.91892 13.9644L1.97387 14.0011L2.03549 14.0356L2.10345 14.063L2.17705 14.0848L2.25408 14.0997L2.33659 14.1094L2.42611 14.1151L2.51855 14.1121L2.6043 14.1094V14.1092L2.61338 14.1063L2.71163 14.0906L2.8128 14.0726L2.90814 14.0476L3.00108 14.0197L3.08393 13.986L3.16011 13.9528L3.23131 13.9124L3.29533 13.8723L3.35473 13.8295L3.40625 13.7804L3.44956 13.7279L3.48619 13.6753L3.51409 13.6176L3.53566 13.5587L3.55073 13.5005L3.5574 13.4355L3.55398 13.372L3.54148 13.3069L3.39411 12.6332L3.39412 12.6332ZM7.01546 12.643L7.01648 12.6623L7.01837 12.6579V12.6459L7.01546 12.643V12.643ZM7.01648 12.6623L7.00878 12.6796L6.98465 12.72L6.93603 12.7749L6.85216 12.8487L6.73233 12.947L6.56698 13.0668L6.54781 13.0764L6.50159 13.1074L6.43466 13.1621L6.40043 13.1998L6.36003 13.2426L6.32631 13.2912L6.28968 13.3501L6.25938 13.417L6.23473 13.4916L6.21299 13.5745L6.2005 13.6664L6.1981 13.7681L6.20341 13.8783L6.21299 13.9033L6.22172 13.9367L6.22891 13.9862L6.23182 14.0474V14.1187L6.22172 14.2044L6.20341 14.3032L6.28968 14.2015L6.49578 13.9646L6.73611 13.7036L6.84257 13.5923L6.92867 13.5158L6.95093 13.4483L6.96924 13.3684L6.98704 13.2638L7.00587 13.1347L7.02162 12.9845L7.02419 12.8212L7.01649 12.6623L7.01648 12.6623ZM4.64588 12.9196V12.9589L4.6517 13.0668L4.66025 13.1411L4.67566 13.2272L4.6974 13.3227L4.72821 13.4204L4.76861 13.5248L4.82013 13.6294L4.88466 13.7338L4.96135 13.8389L5.00517 13.8881L5.0543 13.9304L5.10685 13.98L5.16162 14.023L5.22291 14.0658L5.29069 14.1062L5.36104 14.1428L5.43568 14.176L5.45639 14.1702H5.48429L5.52777 14.176L5.58939 14.1988L5.66881 14.2381L5.77614 14.2994L5.90521 14.3884L5.82253 14.1919L5.75218 14.0108L5.69381 13.8355L5.67789 13.7927L5.65683 13.7402L5.61387 13.6727L5.55225 13.5923L5.46598 13.5036L5.41411 13.4541L5.35283 13.405L5.28111 13.3559L5.20168 13.3039L5.13082 13.2792L5.0543 13.2484L4.96427 13.2085L4.86978 13.1531L4.77734 13.0848L4.73729 13.0486L4.70083 13.0081L4.67002 12.9658L4.64588 12.9196L4.64588 12.9196ZM18.6343 12.9624L18.3241 14.1457L18.6405 14.2289L18.7541 13.7926L20.2203 14.1673L20.2997 13.8663L18.8341 13.4848L18.9477 13.0456L18.6343 12.9624L18.6343 12.9624ZM3.14809 13.0082L3.21895 13.3285L3.22477 13.3657L3.22768 13.4023L3.22186 13.4355L3.21176 13.4692L3.20012 13.504L3.17855 13.5348L3.15442 13.5616L3.12652 13.5896L3.05514 13.6421L2.96373 13.6883L2.85298 13.7279L2.72665 13.7611L2.60392 13.7866H2.59142L2.47194 13.7953L2.36119 13.7929L2.26584 13.777L2.1859 13.7496L2.14824 13.7279L2.12137 13.7063L2.09723 13.6816L2.07515 13.6513L2.05975 13.6205L2.0505 13.5863L1.9769 13.2698L2.60391 13.1312L3.14808 13.0082L3.14809 13.0082ZM6.97161 13.8783L6.95672 13.884L6.91341 13.9067L6.85504 13.9559L6.81858 13.9896L6.78435 14.0353L6.74669 14.0878L6.70732 14.1524L6.6736 14.2289L6.63988 14.3184L6.60906 14.4196L6.58116 14.5366L6.55994 14.6686L6.54453 14.816L6.58116 14.8776L6.61523 14.9485L6.65528 15.0438L6.69226 15.1517L6.70441 15.2123L6.71639 15.2741L6.72563 15.3389L6.72837 15.4059L6.72563 15.4738L6.71639 15.5418L6.75063 15.52L6.78726 15.4863L6.83399 15.4305L6.88209 15.354L6.90708 15.302L6.93122 15.2436L6.95672 15.1785L6.97795 15.102L6.99677 15.0158L7.01509 14.9233L7.04196 14.8867L7.06661 14.8405L7.09161 14.7701L7.1166 14.6744L7.13166 14.5515L7.13491 14.4807V14.4012L7.13166 14.3146L7.1219 14.2164L7.10992 14.2106L7.09743 14.1952L7.07962 14.1673L7.0584 14.1248L7.03341 14.0661L7.00242 13.9832L6.97161 13.8783V13.8783ZM3.72617 14.0262L2.00437 14.6808L2.41279 15.7537L2.72056 15.6363L2.42289 14.8526L2.86503 14.6869L3.12659 15.3757L3.43094 15.2587L3.16938 14.57L3.5321 14.4317L3.81523 15.1816L4.11924 15.0651L3.72622 14.0262L3.72617 14.0262ZM16.5472 14.3364L16.5111 14.3393L16.4765 14.3518L16.4433 14.3735L16.4091 14.4073L16.3812 14.4506L16.357 14.5082L16.335 14.5801L16.3199 14.6657L16.2891 14.8927L16.2862 14.9114V14.8898L16.2983 14.7299L16.253 14.7148L16.2062 14.7058L16.1812 14.7029L16.1595 14.7058L16.1384 14.7148L16.1196 14.7265L16.108 14.7491L16.1018 14.7761L16.0989 14.8131L16.108 14.8595L16.123 14.9172L16.148 14.9851L16.1687 15.0011L16.2275 15.0409L16.3291 15.0954L16.4707 15.157L16.514 15.1729L16.5597 15.1787L16.6123 15.1758L16.6369 15.17L16.658 15.157L16.6759 15.1387L16.6951 15.1113L16.7067 15.0776L16.7139 15.0377V14.9851L16.7038 14.9235L16.7437 14.8492L16.778 14.7761L16.8117 14.6869L16.8242 14.6407L16.8305 14.595L16.8334 14.5517L16.8305 14.5082L16.818 14.4678L16.7987 14.4346L16.7689 14.4072L16.7259 14.3889L16.71 14.3792L16.6706 14.3609L16.6147 14.3422L16.5804 14.3364H16.5472L16.5472 14.3364ZM18.5017 14.3797L18.4473 14.3888L18.3913 14.4013L18.3422 14.4196L18.293 14.4442L18.2439 14.4716L18.2006 14.5082L18.1611 14.5486L18.1207 14.5916L18.0869 14.644L18.0561 14.6989L18.0287 14.7571L18.0075 14.8193L17.9892 14.8811L17.9796 14.9387L17.9738 14.9975L17.9767 15.0524L17.9825 15.105L17.9955 15.157L18.0133 15.2066L18.0354 15.2529L18.0657 15.2986L18.1 15.339L18.1395 15.3785L18.1857 15.4156L18.2383 15.4494L18.293 15.4797L18.3552 15.507L18.4404 15.5384L18.5238 15.5538L18.6008 15.5567L18.6741 15.5447L18.7453 15.5201L18.8127 15.4831L18.874 15.4334L18.9322 15.3694L19.2126 15.0255L19.2342 15.0033L19.2621 14.985L19.2886 14.9696L19.317 14.9576L19.347 14.9512H19.3786L19.4091 14.9547L19.4402 14.9634L19.4861 14.9879L19.5255 15.0221L19.5536 15.0587L19.569 15.105L19.5786 15.157L19.5751 15.2152L19.5631 15.2768L19.5385 15.3477L19.5073 15.4098L19.4702 15.4619L19.4269 15.5012L19.381 15.5326L19.3295 15.5476L19.2708 15.5503L19.2092 15.5447L19.1417 15.5259L19.0246 15.8058L19.0955 15.8307L19.1629 15.8485L19.2312 15.8581L19.292 15.864L19.3536 15.861L19.4091 15.8552L19.4639 15.8427L19.5164 15.8249L19.5655 15.7994L19.6157 15.7657L19.658 15.7286L19.6985 15.6858L19.7384 15.6401L19.7716 15.5851L19.8054 15.523L19.8367 15.4584L19.8613 15.3905L19.8762 15.3265L19.8882 15.2643L19.8945 15.2037V15.1445L19.8882 15.0896L19.8762 15.0341L19.8574 14.9821L19.8338 14.9329L19.803 14.8838L19.765 14.8405L19.7254 14.8006L19.6797 14.76L19.6272 14.7263L19.569 14.6931L19.5073 14.6657L19.4062 14.6315L19.36 14.6224L19.317 14.6161H19.2737L19.2312 14.6195L19.1903 14.6286L19.1508 14.6411L19.0863 14.6715L19.0315 14.7056L18.9818 14.7491L18.9322 14.8035L18.6433 15.1666L18.622 15.1907L18.5976 15.2094L18.5729 15.2215L18.545 15.2311L18.5147 15.234H18.4866L18.4563 15.2311L18.4247 15.2181L18.3817 15.1974L18.3451 15.1666L18.3211 15.1329L18.3018 15.0896L18.293 15.0439V14.9947L18.3018 14.9422L18.3211 14.8867L18.348 14.8285L18.3817 14.7794L18.4197 14.7422L18.4622 14.7149L18.5118 14.6989L18.5667 14.6931L18.6255 14.6989L18.6895 14.7114L18.8036 14.4316L18.742 14.4071L18.6807 14.3917L18.6191 14.3824L18.5609 14.3797H18.5017L18.5017 14.3797ZM4.96463 14.3884L4.97473 14.4168L4.99544 14.4997L5.04165 14.6197L5.11286 14.7729L5.16199 14.8561L5.21745 14.9452L5.27856 15.0343L5.35319 15.1263L5.43844 15.2183L5.5343 15.308L5.63837 15.3941L5.75545 15.4769L6.52351 15.6489L6.52642 15.6152L6.51444 15.526L6.50195 15.4649L6.48072 15.3941L6.447 15.317L6.40421 15.2308L6.34207 15.1447L6.26538 15.0522L6.17346 14.9636L6.11852 14.9173L6.05638 14.8749L5.99236 14.8287L5.91824 14.7854L5.8407 14.7453L5.75785 14.7059L5.66576 14.6654L5.56853 14.6284L5.46309 14.5913L5.34943 14.561L5.33454 14.57L5.30989 14.5735L5.26949 14.57L5.22036 14.5546L5.15343 14.5238L5.07007 14.468L4.96463 14.3884L4.96463 14.3884ZM15.3571 14.4747L15.3268 14.481L15.2921 14.4964L15.256 14.518L15.2198 14.5575L15.2005 14.5801L15.1896 14.6104L15.1765 14.6409L15.1697 14.6808L15.1641 14.7238L15.167 14.7729L15.1731 14.7796L15.1795 14.7883L15.1765 14.8032L15.1697 14.8191L15.149 14.8345L15.1144 14.8561L15.0595 14.8807L15.0199 14.8898L14.98 14.9052L14.9395 14.9333L14.9213 14.9514L14.9058 14.9726L14.8972 14.9949L14.89 15.0252L14.8876 15.056L14.8933 15.0926L14.9083 15.1325L14.9338 15.1787L14.9458 15.2063L14.9545 15.2371L14.9578 15.2713L14.9516 15.3107L14.9458 15.329L14.9338 15.3508L14.915 15.3696L14.89 15.3845L14.863 15.3999L14.8258 15.4124L14.7859 15.4273L14.7488 15.4461L14.7089 15.4735L14.6723 15.5136L14.6564 15.5385L14.6447 15.5664L14.6386 15.5969V15.631L14.6415 15.6705L14.6535 15.7135L14.6598 15.738V15.763L14.6564 15.7963L14.6476 15.8367L14.6261 15.8739L14.5953 15.9132L14.5494 15.9475L14.5085 15.9812L14.4753 16.0173L14.4468 16.0702L14.4421 16.0973L14.4357 16.1315L14.4391 16.1628L14.4468 16.1995L14.4665 16.2359L14.497 16.2731L14.5369 16.3126L14.5889 16.352L14.6232 16.3954L14.6938 16.4999L14.7796 16.6411L14.8168 16.7118L14.8476 16.7797L14.875 16.746L14.9116 16.7118L14.9612 16.6751L15.0258 16.6382L15.1091 16.6079L15.1548 16.5952L15.2045 16.589L15.2589 16.5861H15.3176L15.3792 16.5803L15.4376 16.5678L15.5054 16.5428L15.5388 16.5245L15.5672 16.5033L15.5941 16.4754L15.6129 16.4417L15.6278 16.4045L15.6346 16.3583L15.6278 16.3068L15.6163 16.2457L15.6009 16.2051L15.5911 16.1628L15.5882 16.1169L15.5911 16.089L15.6009 16.0641L15.6129 16.0428L15.6345 16.0207L15.6581 16.0029L15.6923 15.987L15.7361 15.9745L15.7853 15.9687H15.8431L15.8922 15.9624L15.9201 15.9533L15.9451 15.9408L15.9693 15.9263L15.9852 15.9042L15.9967 15.8766L16.0035 15.8426L15.9967 15.7991L15.9818 15.7505L15.9534 15.6952L15.9138 15.6277L15.896 15.6094L15.8801 15.5848L15.8676 15.5534L15.8619 15.517L15.8676 15.4735L15.8922 15.4249L15.9111 15.397L15.9355 15.3696L15.9629 15.3234L15.9852 15.2713L15.9996 15.2063V15.176L15.9967 15.1389L15.9881 15.1051L15.9727 15.0748L15.9451 15.044L15.9111 15.0127L15.8647 14.988L15.807 14.9636L15.7998 14.9665L15.7791 14.9697L15.7449 14.9607L15.6957 14.936L15.6654 14.9144L15.6307 14.8841L15.5941 14.8436L15.5542 14.7944L15.5117 14.7333L15.4655 14.6596L15.4124 14.5735L15.3571 14.4747L15.3571 14.4747ZM7.18169 15.2215L7.16868 15.2308L7.15362 15.2552L7.1353 15.302L7.12041 15.3787L7.10449 15.4923L7.09781 15.6488L7.10124 15.8612L7.10449 15.9263L7.1074 15.9937L7.12041 16.0765L7.13872 16.1719L7.16235 16.2662L7.20035 16.3581L7.22345 16.3982L7.25187 16.4386L7.28268 16.4473L7.3164 16.4632L7.35937 16.4848L7.40849 16.5185L7.45813 16.5649L7.50726 16.6197L7.55006 16.6935L7.57179 16.6231L7.59011 16.5456L7.60825 16.4415L7.62009 16.3214V16.1891L7.61718 16.1187L7.60417 16.0484L7.58927 15.9738L7.57096 15.9034L7.51892 15.824L7.40184 15.6333L7.27277 15.4092L7.22022 15.3043L7.1865 15.2209H7.18085L7.18169 15.2215ZM4.19952 15.2496L3.98127 15.3758V15.3754L2.60434 16.1628L2.76131 16.4321L3.38507 16.0767L3.55076 16.3617L3.57524 16.4172L3.59065 16.4634L3.59647 16.5062L3.59356 16.5457L3.57815 16.5834L3.55076 16.6166L3.51122 16.6503L3.46209 16.6844L3.21595 16.8352L3.14285 16.8843L3.05898 16.9552L3.23717 17.2624L3.27723 17.2378L3.28339 17.1979L3.30222 17.1642L3.33542 17.1334L3.39089 17.0991L3.65227 16.9422L3.70773 16.9061L3.75343 16.8723L3.79109 16.8352L3.82139 16.798L3.84261 16.7611L3.85853 16.7178L3.86709 16.6753L3.87103 16.6262V16.5978L3.92306 16.6291L3.97784 16.6503L3.98126 16.6539L4.03621 16.6626L4.09835 16.6656L4.16237 16.6597L4.2269 16.6443L4.29434 16.6164L4.3623 16.5832L4.40851 16.5548L4.45422 16.5211L4.49188 16.4879L4.52834 16.4507L4.55915 16.4112L4.5838 16.3708L4.60827 16.328L4.62368 16.2855L4.63909 16.2426L4.64593 16.1964L4.64884 16.1501V16.1039L4.63909 16.0606L4.63001 16.0144L4.6117 15.9687L4.59013 15.9263L4.19951 15.2496L4.19952 15.2496ZM17.8479 15.3479L17.6596 15.6517L18.1855 16.3222L17.3402 16.1748L17.1466 16.4908L18.3973 16.6409L18.9874 17.0036L19.1539 16.7335L18.5664 16.3737L17.8479 15.3479L17.8479 15.3479ZM4.07682 15.6767L4.28258 16.0365L4.30123 16.0766L4.31099 16.1169V16.156L4.29798 16.1964L4.27967 16.233L4.24885 16.2662L4.21171 16.301L4.16549 16.3313L4.11688 16.3554L4.0734 16.3679L4.0277 16.3737L3.98816 16.3708H3.98148V16.371L3.95118 16.358L3.91695 16.3402L3.88665 16.3126L3.85875 16.2761L3.65249 15.9201L3.98148 15.7323V15.7321L4.07683 15.6767L4.07682 15.6767ZM5.86269 15.9042L5.89692 15.9477L5.92722 16.0029L5.97926 16.1378L6.01965 16.2573L6.03506 16.3094L6.13297 16.3859L6.235 16.4543L6.33616 16.5125L6.44058 16.5675L6.54174 16.6137L6.64393 16.6541L6.83462 16.7154L7.00031 16.7582L7.13229 16.7826L7.25212 16.801L7.20265 16.7491L7.15677 16.6936L7.07392 16.58L6.99399 16.46L6.90788 16.3373L6.83462 16.2452L6.773 16.1779L6.72627 16.1315L6.69306 16.1012L6.67132 16.0824L6.65249 16.0767L6.53319 16.0608L6.40412 16.0401L6.27163 16.0117L6.14547 15.9814L5.94554 15.9288L5.8627 15.9042L5.86269 15.9042ZM7.78431 16.2664L7.90088 16.3984L8.00787 16.5367L8.10664 16.6724L8.1924 16.801L8.31564 16.998L8.36185 17.0779L8.49383 17.1366L8.62923 17.1791L8.76103 17.2133L8.88445 17.2378L9.07514 17.2624L9.15166 17.2683L9.11177 17.1727L9.07172 17.0842L9.03183 17.0038L8.98887 16.9271L8.90362 16.798L8.82317 16.6965L8.74905 16.6198L8.69034 16.5646L8.6383 16.5213L8.56504 16.4754L8.49092 16.4321L8.41732 16.3954L8.34354 16.3646L8.19907 16.3194L8.06607 16.2919L7.95292 16.276L7.86392 16.2664H7.78432L7.78431 16.2664ZM14.304 16.5338L14.2825 16.5367L14.2575 16.5457L14.2333 16.5611L14.2054 16.5858L14.1779 16.6079L14.1495 16.6291L14.1226 16.6628L14.0942 16.7032L14.0788 16.7491V16.7765V16.8044L14.0884 16.8319L14.1014 16.8657L14.125 16.8723L14.1495 16.8843L14.1779 16.9026L14.202 16.9244L14.2174 16.9552L14.2214 16.9706V16.9918L14.2145 17.013L14.2054 17.0346L14.2111 17.0718L14.2265 17.105L14.2517 17.1421L14.27 17.1575L14.2939 17.1762L14.3253 17.1878L14.359 17.1974L14.4023 17.2037H14.4511L14.5069 17.1974L14.5714 17.1849L14.5834 17.1642L14.6139 17.1116L14.6508 17.0314L14.6668 16.9826L14.6755 16.9273L14.6784 16.8867L14.6755 16.8439L14.6697 16.7982L14.6537 16.7553L14.645 16.7366L14.6322 16.7212L14.6139 16.7119L14.5955 16.7058H14.5738L14.5497 16.7149L14.5343 16.7178L14.5005 16.7149L14.479 16.709L14.4579 16.702L14.4401 16.6837L14.421 16.6558L14.4083 16.6255L14.3939 16.5974L14.3684 16.5666L14.3409 16.5456L14.3227 16.5421L14.3047 16.5392L14.304 16.5338ZM12.9021 16.6656L12.8684 16.6695L12.8376 16.6786L12.8092 16.6964L12.7879 16.7181L12.7667 16.7397L12.7359 16.7888L12.7109 16.8438L12.619 16.89L12.5492 16.9184L12.4961 16.9362L12.4595 16.942L12.435 16.9391L12.4225 16.9362L12.4132 16.9271L12.3492 16.8929L12.2905 16.8693L12.2385 16.8533L12.1952 16.8438H12.1551L12.1185 16.8472L12.0906 16.8562L12.0622 16.8693L12.0444 16.8841L12.0255 16.9025L12.0011 16.9333L11.9862 16.9704L11.4973 17.3544L11.415 17.4131L11.3431 17.4588L11.2756 17.4925L11.2174 17.5172L11.1625 17.5329L11.1168 17.5387L11.0759 17.5422L11.0392 17.5358L11.0084 17.5302L10.9872 17.5172L10.9501 17.4925L10.9285 17.4713L10.9227 17.4622L10.8427 17.416L10.7508 17.361L10.6452 17.2902L10.4709 17.1728L10.3076 17.0779L10.1568 17.0012L10.0153 16.942L9.88672 16.9001L9.76964 16.8693L9.66573 16.8501L9.57022 16.8438L9.48703 16.8414L9.41326 16.8472L9.35163 16.8597L9.30251 16.8722L9.23797 16.8963L9.21349 16.9059L9.24756 16.9579L9.28128 17.0036L9.31842 17.0471L9.35454 17.0904L9.44116 17.1611L9.52982 17.2253L9.62517 17.2772L9.72051 17.3207L9.81552 17.3544L9.9112 17.3828L10.0038 17.4035L10.0867 17.4189L10.2306 17.4338L10.3326 17.4405H10.3664L10.4646 17.4497L10.5475 17.4622L10.6183 17.4737L10.6736 17.4896L10.7227 17.505L10.7589 17.5201L10.7898 17.5358L10.8119 17.5517L10.8239 17.5695L10.8337 17.5822L10.8427 17.6096L10.8388 17.625L10.8361 17.6341L10.7536 17.6803L10.6736 17.7294L10.6024 17.782L10.535 17.8374L10.4763 17.8951L10.4213 17.9511L10.3289 18.0613L10.2614 18.163L10.2128 18.243L10.1752 18.3166L10.3047 18.3593L10.3409 18.2584L10.3876 18.1721L10.4396 18.0927L10.4951 18.0218L10.5509 17.9602L10.612 17.9047L10.6704 17.8585L10.7291 17.8181L10.8361 17.7602L10.9256 17.7236L10.9838 17.702L11.0055 17.6957L11.0297 17.6745L11.0517 17.6587L11.0971 17.6433L11.1399 17.6404L11.1813 17.649L11.215 17.662L11.2392 17.6769L11.2607 17.6957L11.3191 17.7207L11.3715 17.7512L11.4203 17.7878L11.4665 17.8277L11.5064 17.8739L11.543 17.9201L11.6046 18.0155L11.6509 18.1041L11.6851 18.1817L11.7092 18.2525L11.8595 18.187L11.8383 18.1474L11.8136 18.1012L11.753 18.0127L11.6784 17.9172L11.6009 17.8311L11.4697 17.6895L11.411 17.6341L11.4179 17.5998L11.4299 17.5725L11.4448 17.5541L11.4665 17.5387L11.4875 17.5262L11.5161 17.5199L11.5677 17.517L11.62 17.5233L11.6659 17.5329L11.7092 17.5483L11.7828 17.5945L11.8508 17.625L11.9028 17.6404L11.949 17.6461H11.9822L12.0112 17.6404L12.0285 17.6341L12.0656 17.6717L12.1026 17.6991L12.1344 17.7209L12.1575 17.7323L12.183 17.7358H12.2037L12.2221 17.7294L12.2385 17.7209L12.2597 17.6957L12.2751 17.6644L12.2842 17.6341L12.3088 17.6153L12.3333 17.6028L12.3766 17.5945L12.4167 17.5999L12.4499 17.6125L12.4812 17.6341L12.5024 17.6529L12.5208 17.6747L12.5606 17.7416L12.6012 17.7945L12.644 17.8311L12.6835 17.8523L12.7234 17.8643L12.764 17.8677L12.801 17.8614L12.8342 17.8494L12.8684 17.8311L12.8992 17.8123L12.9451 17.769L12.9786 17.7323L12.9913 17.7175L13.0221 17.6644L13.0562 17.637L13.0896 17.6221H13.1175L13.1443 17.6279L13.1627 17.6404L13.1825 17.6529L13.2431 17.7111L13.2922 17.7512L13.3385 17.7786L13.3756 17.7945L13.4059 17.8003L13.4338 17.7974L13.455 17.7878L13.4709 17.7724L13.4834 17.7512L13.4917 17.7294L13.5018 17.6832V17.6341V17.6096V17.5918L13.5071 17.5759L13.5177 17.5667L13.5413 17.5483L13.5687 17.5422H13.6H13.6245L13.652 17.5483L13.7344 17.4992L13.7965 17.4588L13.8427 17.4189L13.8759 17.3611L13.9165 17.2989L13.9656 17.2378L14.018 17.1819L14.1043 17.0934L14.1447 17.0562L13.9992 17.0934L13.9011 17.1149L13.8369 17.1213L13.8028 17.1149L13.7902 17.1053V17.0934L13.8028 17.0779L13.7657 17.0013L13.7286 16.9391L13.6887 16.8929L13.652 16.8597L13.6178 16.835L13.5817 16.8196L13.548 16.813H13.5177L13.4858 16.8196L13.4584 16.8289L13.4151 16.8534L13.3842 16.8751L13.3756 16.8842L13.2773 16.8963L13.2094 16.8929L13.1626 16.8842L13.1329 16.8693L13.1207 16.8534L13.1175 16.8385V16.8231L13.0678 16.7609L13.0221 16.7181L12.9786 16.6873L12.9388 16.6723L12.9021 16.6656L12.9021 16.6656ZM17.0825 16.7308L17.0272 16.7366L16.9752 16.7491L16.9221 16.7669L16.8701 16.7921L16.8182 16.8194L16.7691 16.8566L16.7227 16.8999L16.6762 16.9456L16.6342 16.9982L16.5995 17.0473L16.5692 17.0993L16.5445 17.1519L16.5296 17.2034L16.5166 17.2597L16.5113 17.3112V17.3638L16.5195 17.4162L16.5325 17.4682L16.5503 17.5173L16.5745 17.5694L16.6063 17.6185L16.6424 17.6681L16.6862 17.7149L16.7354 17.76L16.8056 17.8184L16.8759 17.8583L16.9505 17.8886L17.0238 17.9016L17.0979 17.9045L17.1749 17.8886L17.2516 17.8617L17.3281 17.8222L17.7039 17.5914L17.7308 17.576L17.7612 17.5665L17.792 17.5601H17.8261L17.8571 17.5665L17.8845 17.576L17.9124 17.5877L17.937 17.6068L17.974 17.6464L17.9986 17.6894L18.0135 17.7359V17.7847L18.0048 17.8338L17.9827 17.8886L17.9495 17.9451L17.9033 17.9999L17.8537 18.0524L17.8021 18.0896L17.7491 18.1103L17.6975 18.1233L17.6412 18.1199L17.5863 18.1074L17.5286 18.0795L17.4697 18.037L17.2699 18.2677L17.3281 18.3105L17.3869 18.3501L17.4452 18.3814L17.5031 18.4088L17.5589 18.4276L17.6171 18.4391L17.6726 18.4454L17.7278 18.4425L17.7833 18.4367L17.8388 18.4242L17.8906 18.4025L17.9432 18.3751L17.9957 18.3414L18.0478 18.3015L18.1001 18.2556L18.1493 18.2027L18.1917 18.1507L18.2326 18.0952L18.2629 18.0404L18.2871 17.9845L18.3059 17.9292L18.3213 17.8742L18.3275 17.8184V17.763L18.3213 17.708L18.3059 17.6527L18.2871 17.6002L18.2629 17.5452L18.2326 17.4956L18.1955 17.4437L18.1493 17.3946L18.1001 17.3449L18.0173 17.2804L17.9769 17.2563L17.937 17.238L17.8975 17.222L17.8571 17.213L17.8141 17.2072H17.7713L17.7039 17.213L17.6388 17.2284L17.5777 17.2534L17.5132 17.29L17.1191 17.5356L17.0912 17.5481L17.0642 17.5574L17.0334 17.5635H17.006L16.9776 17.5574L16.9505 17.5481L16.9221 17.5327L16.8982 17.5115L16.8639 17.4773L16.8393 17.4374L16.8278 17.3946L16.8244 17.3511L16.8307 17.3049L16.8456 17.2563L16.8735 17.2106L16.9072 17.1644L16.9534 17.1181L17.0026 17.0844L17.0488 17.0593L17.1008 17.0502H17.1505L17.202 17.0622L17.2575 17.0872L17.3133 17.1209L17.5159 16.8932L17.4635 16.8532L17.4115 16.816L17.3566 16.7857L17.3037 16.7642L17.2482 16.7462L17.1933 16.7337L17.1375 16.7308H17.0825L17.0825 16.7308ZM5.1896 16.7796L4.65212 17.0228V17.0226L3.44074 17.5635L3.65847 17.8182L4.01195 17.656L4.37227 18.0769L4.14786 18.3932L4.37227 18.6543L4.65214 18.2333V18.233L5.42551 17.0588L5.18963 16.7796L5.1896 16.7796ZM7.75328 17.044L7.73155 17.0473L7.72282 17.0531L7.71956 17.0565L7.12285 17.0993L7.17232 17.1306L7.22384 17.1765L7.27399 17.2284L7.32021 17.2838L7.39347 17.3797L7.42189 17.4192L7.5133 17.4774L7.60008 17.5266L7.68533 17.5632L7.76578 17.5945L7.8423 17.6158L7.91351 17.6315L7.98146 17.6402L8.04274 17.6431L8.15007 17.6402L8.22949 17.6283L8.27913 17.6158L8.29745 17.6123L8.54599 17.53L8.74336 17.4774L8.86917 17.4495L8.91538 17.4403L8.8137 17.4254L8.70347 17.4004L8.59169 17.3696L8.48813 17.3364L8.32192 17.2748L8.25414 17.2496L8.08553 17.1609L7.95304 17.1022L7.86113 17.0653L7.79608 17.0473L7.75329 17.044L7.75328 17.044ZM4.99311 17.1851L4.65213 17.6716L4.55953 17.8005L4.31116 17.5115L4.65213 17.3482V17.3484L4.99311 17.1851V17.1851ZM5.85086 17.5113L4.69198 18.9403L5.52475 19.6132L5.73427 19.3556L5.15005 18.8826L6.09938 17.7108L5.85084 17.5114L5.85086 17.5113ZM9.32093 17.5266L9.19803 17.5452L9.08779 17.5694L8.98902 17.6002L8.90001 17.6315L8.82007 17.6681L8.75212 17.7048L8.69049 17.7452L8.63846 17.7818L8.59566 17.8184L8.558 17.8554L8.50699 17.917L8.47567 17.9566L8.4666 17.9754L8.58351 17.9999L8.70008 18.0096L8.81374 18.0124L8.92159 18.0067L9.01368 17.997L9.0878 17.9874L9.15182 17.9754L9.45292 17.9263L9.64361 17.8987L9.76976 17.8886L9.80057 17.8376L9.84679 17.7847L9.89831 17.7327L9.95429 17.6806L10.0496 17.6002L10.0895 17.5694L9.89215 17.5664L9.72645 17.5635L9.4904 17.5481L9.36082 17.5327L9.32094 17.5266H9.32093ZM15.8189 17.8496L14.9004 18.4768L15.936 19.9947L16.8857 19.3494L16.7013 19.0787L16.0067 19.5498L15.7424 19.1592L16.3511 18.7439L16.1662 18.4738L15.5584 18.8884L15.3393 18.5681L16.0038 18.1198L15.8189 17.8496V17.8496ZM7.24033 18.5288L6.47124 20.2005L6.75437 20.33L7.05546 19.6755L7.3569 19.8167L7.40894 19.8441L7.44882 19.8749L7.47963 19.9052L7.49846 19.9399L7.50428 19.9798V20.0223L7.4923 20.0719L7.47005 20.1272L7.3569 20.3946L7.32609 20.4774L7.3011 20.5818L7.53218 20.6898V20.69L7.62137 20.7301L7.63917 20.6868L7.6241 20.6496L7.61846 20.6125L7.62701 20.5668L7.65166 20.5081L7.7744 20.2287L7.79956 20.1671L7.81822 20.1116L7.82695 20.0625L7.82986 20.0134L7.82695 19.9701L7.81496 19.9276L7.79614 19.8877L7.76875 19.8473L7.7566 19.8227L7.81497 19.8169L7.87025 19.8049L7.9252 19.7794L7.97775 19.7462L8.02722 19.7027L8.06967 19.6536L8.10973 19.5925L8.14619 19.525L8.16844 19.4754L8.18436 19.4235L8.19634 19.3704L8.20593 19.3213V19.2693V19.2241L8.19925 19.1744L8.18676 19.1315L8.17135 19.0849L8.15304 19.0449L8.12787 19.0053L8.10049 18.9713L8.06968 18.937L8.03304 18.9062L7.99316 18.8787L7.95071 18.8576L7.53219 18.6673V18.6669L7.24033 18.5288L7.24033 18.5288ZM14.8109 18.5348L14.5132 18.6734L14.8085 20.0775L13.9223 18.9528L13.6151 19.0978L14.8571 20.5451L15.1277 20.4195L14.8109 18.5349L14.8109 18.5348ZM7.39011 18.9497L7.53218 19.0177V19.0175L7.76584 19.1248L7.80281 19.1461L7.83362 19.1745L7.85827 19.2082L7.87025 19.2452L7.87607 19.2876L7.87316 19.3343L7.86118 19.3835L7.83944 19.4355L7.81496 19.4817L7.78449 19.5189L7.75317 19.5497L7.71962 19.5704L7.67956 19.5829L7.63917 19.5858L7.60014 19.58L7.55632 19.5646L7.53218 19.5553V19.5557L7.18487 19.3953L7.39011 18.9497H7.39011ZM8.54601 19.1033L8.0455 20.8737L9.14943 21.1882L9.23809 20.8708L8.43237 20.6435L8.56144 20.1854L9.27182 20.3886L9.36083 20.0747L8.65045 19.8752L8.75555 19.5L9.52703 19.7183L9.61279 19.4081L8.54602 19.1032L8.54601 19.1033ZM13.2034 19.2291L13.157 19.2359L13.1078 19.2474L13.0834 19.2575L12.3608 19.4699L12.8834 21.2335L13.0834 21.1753V21.1755L13.1826 21.145L13.0834 20.8186V20.8184L12.9759 20.4557L13.0834 20.4254L13.2953 20.3609L13.3535 20.3489L13.4031 20.3426L13.4456 20.3455L13.4836 20.3609L13.5144 20.3855L13.5414 20.4196L13.5654 20.462L13.5871 20.5208L13.6766 20.7939L13.7075 20.8806L13.76 20.9727L14.0986 20.8739L14.0827 20.8248L14.0457 20.8126L14.0181 20.7842L13.9966 20.7448L13.9753 20.687L13.8833 20.3946L13.8607 20.333L13.837 20.2775L13.812 20.2347L13.7812 20.1976L13.7504 20.1668L13.7138 20.1428L13.6737 20.1235L13.6246 20.1086L13.6001 20.1027L13.64 20.06L13.6737 20.0103L13.6984 19.9583L13.7172 19.8967L13.7229 19.8316V19.7647L13.7172 19.6935L13.6984 19.6202L13.6796 19.5671L13.6583 19.5185L13.6333 19.4728L13.606 19.4295L13.5751 19.3895L13.5414 19.3557L13.5048 19.3244L13.4676 19.2975L13.4278 19.2724L13.3843 19.2546L13.3415 19.2416L13.2953 19.232L13.2523 19.2291H13.2033L13.2034 19.2291ZM10.2215 19.4696L10.1638 19.4725L10.1051 19.4816L10.0526 19.4935L10.0011 19.5158L9.95433 19.5365L9.91137 19.5673L9.872 19.6016L9.83434 19.6414L9.80062 19.6847L9.7722 19.7306L9.74909 19.7854L9.7265 19.8414L9.7087 19.9025L9.6962 19.9704L9.68696 20.0594L9.69227 20.1452L9.7087 20.2227L9.73609 20.2897L9.77614 20.3547L9.82869 20.4097L9.8922 20.4588L9.97026 20.5021L10.3665 20.6928L10.3936 20.7079L10.4186 20.7265L10.4398 20.7512L10.4552 20.7786L10.4711 20.807L10.4764 20.8373L10.4826 20.8677L10.4793 20.898L10.4677 20.9506L10.4432 20.9939L10.4127 21.0305L10.3729 21.0584L10.3227 21.0767L10.2679 21.0887H10.2034L10.1296 21.0829L10.0617 21.0675L10.004 21.043L9.95434 21.0122L9.91394 20.9761L9.8869 20.927L9.86807 20.8739L9.86191 20.8094L9.86516 20.7382L9.56423 20.6928L9.55756 20.7666V20.8373L9.56029 20.9044L9.57056 20.9663L9.58631 21.0252L9.60702 21.08L9.63167 21.1291L9.66248 21.1755L9.69911 21.2183L9.739 21.2554L9.78521 21.2887L9.83725 21.32L9.8922 21.3445L9.95433 21.3686L10.0218 21.384L10.0926 21.3994L10.1639 21.4057L10.2279 21.4085L10.2929 21.4057L10.3535 21.397L10.4095 21.3811L10.4648 21.3628L10.5136 21.3383L10.5598 21.3075L10.6026 21.2738L10.6426 21.2337L10.6763 21.188L10.7077 21.1384L10.7351 21.0829L10.7563 21.0252L10.7717 20.9602L10.7876 20.8927L10.7967 20.7878L10.79 20.6957L10.7813 20.6524L10.7659 20.6153L10.7481 20.5759L10.7255 20.5422L10.6825 20.4867L10.6339 20.4405L10.5813 20.4006L10.5168 20.3669L10.0954 20.1699L10.068 20.1545L10.0473 20.1361L10.0252 20.1149L10.0098 20.0904L10.0011 20.0624L9.99438 20.035L9.99096 20.0047L9.99438 19.9704L10.0069 19.9242L10.0252 19.8842L10.0555 19.8472L10.0897 19.8225L10.133 19.8013L10.1816 19.7893L10.2337 19.7854L10.2929 19.7922L10.3564 19.8047L10.4129 19.826L10.4552 19.8534L10.4923 19.8905L10.5197 19.9338L10.5385 19.9853L10.5476 20.044V20.1086L10.8487 20.1545L10.8549 20.0904L10.8578 20.0254L10.852 19.9641L10.8429 19.9054L10.8275 19.8504L10.8092 19.7981L10.7813 19.7489L10.7537 19.7027L10.7167 19.6598L10.6762 19.6231L10.6339 19.5856L10.5848 19.5553L10.5327 19.5307L10.4764 19.5095L10.4156 19.4908L10.3511 19.4787L10.2833 19.4725L10.2215 19.4696L10.2215 19.4696ZM12.1611 19.516L11.0572 19.6663L11.31 21.4886L12.4472 21.3316L12.4039 21.0066L11.5745 21.1197L11.51 20.6497L12.2387 20.5514L12.1954 20.2287L11.4638 20.3299L11.4112 19.9456L12.2039 19.8357L12.1611 19.516H12.1611ZM13.1907 19.5615L13.2313 19.5642L13.2707 19.574L13.3044 19.5923L13.3357 19.6202L13.3633 19.6568L13.3878 19.7025L13.4061 19.7551L13.4186 19.8075L13.422 19.8534L13.4151 19.8967L13.4032 19.9365L13.3843 19.9703L13.3575 19.9978L13.3237 20.0223L13.2799 20.0382L13.0834 20.0998L12.8898 20.158L12.7483 19.6877L13.0834 19.5897V19.5899L13.1445 19.5706L13.1907 19.5615L13.1907 19.5615Z" fill="white"/>
</g>
<defs>
<clipPath id="clip0_6194_139362">
<rect width="22" height="22" fill="white" transform="translate(0 0.859375)"/>
</clipPath>
</defs>
</svg>
