<svg width="22" height="23" viewBox="0 0 22 23" fill="none" xmlns="http://www.w3.org/2000/svg">
<path d="M9.43558 19.6644L9.6009 20.2354C6.12303 19.6644 3.31257 16.9615 2.65129 13.4386L3.31257 13.6876C3.97386 16.6335 6.37408 19.0085 9.43558 19.6644Z" fill="white"/>
<path d="M1.24302 12.2117L9.01924 13.9306L11.0031 11.9626V22.8594L8.51716 14.5866L1.2369 12.2906C1.1573 12.2906 1.1573 12.2117 1.24302 12.2117Z" fill="white"/>
<path d="M3.22078 10.3166L2.64521 10.4805C3.22078 7.03052 5.94552 4.24256 9.49686 3.58656L9.24582 4.24256C6.28228 4.89855 3.88206 7.27955 3.22078 10.3166Z" fill="white"/>
<path d="M10.654 2.18956C10.654 2.10452 10.7336 2.10452 10.7336 2.18956L9.00082 9.90353L10.9847 11.8715H-5.91274e-07L8.33954 9.40546L10.654 2.18956Z" fill="white"/>
<path d="M20.7632 11.5071L12.987 9.78815L11.0031 11.7561V0.859375L13.489 9.13216L20.7693 11.4281C20.8489 11.4281 20.8489 11.5071 20.7632 11.5071Z" fill="white"/>
<path d="M11.0153 11.8411H22L13.6605 14.3072L11.346 21.5292C11.346 21.6142 11.2664 21.6142 11.2664 21.5292L12.9992 13.8152L11.0153 11.8411Z" fill="white"/>
<path d="M18.7793 13.4022L19.3549 13.2382C18.7793 16.6882 16.0546 19.4762 12.5033 20.1322L12.7543 19.4762C15.724 18.8141 18.1242 16.4392 18.7793 13.4022Z" fill="white"/>
<path d="M18.5588 9.50875C18.5588 9.50267 18.5527 9.4966 18.5527 9.48445C18.5466 9.4723 18.5466 9.46015 18.5405 9.44801C17.9588 7.58936 16.6791 5.99798 14.9953 4.99577C14.285 4.58273 13.5012 4.27904 12.6746 4.12111L12.6563 4.06644C12.6318 4.06037 12.6073 4.0543 12.5828 4.04822L12.4175 3.47727C12.4236 3.47727 12.4297 3.47727 12.442 3.48334L12.4358 3.47119C15.9872 4.04822 18.7976 6.83619 19.3732 10.2801L18.7119 10.0372C18.6568 9.86104 18.6078 9.68489 18.5588 9.50875Z" fill="white"/>
</svg>
