<svg width="22" height="7" viewBox="0 0 22 7" fill="none" xmlns="http://www.w3.org/2000/svg">
<g clip-path="url(#clip0_6194_139338)">
<path d="M1.41371 1.78838L1.42717 2.71739H1.4541C1.6426 2.1923 2.11383 1.76146 2.80049 1.76146C3.68911 1.76146 3.95838 2.20576 3.95838 3.05399V4.72351C3.95838 5.23514 3.98531 5.76023 4.10649 6.15069H2.66585C2.78703 5.7737 2.80049 5.31592 2.80049 4.7639V3.17516C2.80049 2.78471 2.65239 2.60968 2.22154 2.60968C1.89841 2.60968 1.65606 2.70393 1.46756 2.8655V4.77737C1.46756 5.32939 1.48103 5.78716 1.6022 6.16415H0.175031C0.30967 5.7737 0.323133 5.23514 0.323133 4.73698V3.17516C0.323133 2.75778 0.175031 2.38079 0 2.1923L1.41371 1.78838V1.78838ZM6.58384 5.32939V3.76758C6.4896 3.90221 6.38189 3.983 6.07222 4.11764C5.6683 4.3196 5.5202 4.53502 5.5202 4.97933C5.5202 5.35632 5.73562 5.59867 6.05875 5.59867C6.38189 5.61213 6.4896 5.49095 6.58384 5.32939ZM6.20685 1.77492C7.31089 1.77492 7.72828 2.21923 7.72828 3.12131V5.00625C7.72828 5.34285 7.86291 5.45056 8.13219 5.45056C8.17258 5.45056 8.32069 5.42363 8.36108 5.38324C8.33415 5.51788 8.32069 5.5852 8.29376 5.65252C8.15912 6.02951 7.93023 6.24493 7.47246 6.24493C6.92044 6.24493 6.65116 5.85448 6.6377 5.46403H6.62424C6.43574 6.01605 6.08568 6.24493 5.5202 6.24493C4.83354 6.24493 4.38923 5.82755 4.38923 5.18128C4.38923 4.49463 5.00857 4.19842 5.65484 3.95607C6.27417 3.71372 6.59731 3.53869 6.59731 3.09438V3.00013C6.59731 2.51543 6.44921 2.27308 5.99143 2.27308C5.70869 2.27308 5.60098 2.40772 5.54712 2.677C5.45288 3.09438 5.29131 3.24248 5.02203 3.24248C4.77968 3.24248 4.5508 3.08092 4.5508 2.77125C4.52387 2.17884 5.35863 1.77492 6.20685 1.77492V1.77492ZM10.8654 5.67945C10.7173 6.01605 10.3537 6.24493 9.84211 6.24493C8.96695 6.24493 8.61689 5.80062 8.61689 4.99279V2.46158H8.19951V2.43465L9.72093 0.859375L9.74786 0.872839V1.86917H10.8519L10.7442 2.47504H9.76132V4.81776C9.76132 5.26207 9.94982 5.45056 10.3537 5.45056C10.6634 5.45056 10.825 5.41017 10.9731 5.32939C10.9327 5.47749 10.9192 5.55827 10.8654 5.67945V5.67945ZM12.4406 1.84224V4.8043C12.4406 5.2486 12.6157 5.49095 13.0465 5.49095C13.41 5.49095 13.6793 5.36978 13.8409 5.16782V3.1617C13.8409 2.71739 13.8005 2.35387 13.6524 1.97688L14.9718 1.84224V4.87162C14.9718 5.54481 15.0392 5.84102 15.1469 6.16415H13.8543V5.30246H13.8409C13.6524 5.85448 13.3023 6.24493 12.5618 6.24493C11.6328 6.24493 11.2827 5.67945 11.2827 4.84469V3.1617C11.2827 2.71739 11.2424 2.35387 11.0942 1.97688L12.4406 1.84224V1.84224ZM16.776 2.8655C16.9645 2.07113 17.328 1.76146 17.8127 1.76146C18.257 1.76146 18.4859 1.99034 18.4859 2.35387C18.4859 2.677 18.2974 2.94628 17.9608 2.94628C17.7589 2.94628 17.6377 2.85203 17.5569 2.77125C17.4627 2.677 17.3953 2.58275 17.2876 2.58275C17.0588 2.58275 16.8029 2.97321 16.8029 3.61947V4.69658C16.8029 5.22168 16.8433 5.74677 16.951 6.15069H15.5239C15.6585 5.76023 15.672 5.22168 15.672 4.72351V3.17516C15.672 2.75778 15.5239 2.38079 15.3488 2.1923L16.7491 1.78838L16.7625 1.80185V2.87896L16.776 2.8655V2.8655ZM19.4823 3.4983L20.9229 3.36366C20.9094 2.677 20.8017 2.27308 20.3305 2.27308C19.8458 2.28655 19.563 2.677 19.4823 3.4983V3.4983ZM20.3439 6.24493C19.2399 6.24493 18.3378 5.51788 18.3378 4.11764C18.3378 2.70393 19.1995 1.74799 20.3709 1.74799C21.4749 1.74799 22 2.44811 22 3.78104H19.4823V3.91568C19.4823 4.97933 20.0343 5.41017 20.7883 5.41017C21.4749 5.41017 21.7711 5.14089 21.9731 4.93893L22 5.00625C21.8115 5.65252 21.2999 6.24493 20.3439 6.24493V6.24493Z" fill="white"/>
</g>
<defs>
<clipPath id="clip0_6194_139338">
<rect width="22" height="5.38556" fill="white" transform="translate(0 0.859375)"/>
</clipPath>
</defs>
</svg>
