<svg width="26" height="26" viewBox="0 0 26 26" fill="none" xmlns="http://www.w3.org/2000/svg">
<g clip-path="url(#clip0_6194_138820)">
<path d="M22.3232 4.78384C24.121 6.71083 25.6542 9.54928 25.6425 13.1269C25.6398 14.0168 25.4667 14.9319 25.2837 15.7286C24.7176 18.1866 23.4231 20.1326 21.9644 21.5598C19.9504 23.5316 17.103 25.0737 13.4419 25.1482C9.94941 25.2191 6.83465 23.8582 4.65019 21.8289C2.51956 19.8499 0.895795 17.1874 0.702917 13.5755C0.585396 11.3758 1.15865 9.42996 1.77945 8.10314C1.94452 7.74968 2.06114 7.42762 2.228 7.11632C2.30964 6.96471 2.48637 6.82745 2.58684 6.66776C4.47885 3.66245 7.50479 1.47351 11.7374 1.01598C11.7921 1.0097 11.8432 1.00342 11.8271 0.92627C12.7242 0.92627 13.6213 0.92627 14.5184 0.92627C15.2441 1.11018 16.2005 1.24205 16.9406 1.46453C17.5192 1.63857 18.0727 1.92116 18.4657 2.09251C19.0488 2.34729 19.4381 2.51595 19.901 2.8102C20.7784 3.3682 21.671 4.08409 22.3232 4.78384ZM25.3734 12.1401C25.3644 11.6108 25.4317 11.0053 25.0146 10.8842C24.2529 10.99 23.6205 11.2242 22.7718 11.243C22.5807 11.8217 22.9683 12.4398 23.5792 12.499C23.973 12.5932 23.8734 12.1957 24.2072 12.2298C24.5723 12.5026 25.0406 12.3536 25.3734 12.1401ZM25.1043 14.2932C25.5941 14.3049 25.2873 13.5199 25.3734 13.1269C24.4557 13.0848 23.6527 13.0498 22.7718 13.2167C22.8077 13.6419 22.6112 13.8339 22.6821 14.2932C22.8319 14.2932 22.9808 14.2932 23.1306 14.2932C23.1459 13.8473 22.9584 13.5998 23.3101 13.3961C23.7936 13.2714 23.6859 13.7379 24.1174 13.6652C24.2601 13.3261 24.8378 13.3566 25.1043 13.5755C25.1043 13.815 25.1043 14.0537 25.1043 14.2932ZM25.1043 15.4594C25.1393 15.2146 24.7714 15.219 24.6557 15.1903C24.0035 15.0261 23.3827 14.9903 22.8615 14.8315C22.8014 14.8315 22.7422 14.8315 22.6821 14.8315C22.6937 15.3151 22.2551 15.8138 22.5924 16.0874C23.0562 16.1323 22.8364 15.4945 23.0409 15.28C23.406 15.2218 23.7416 15.3895 24.1174 15.4594C24.4601 15.523 25.0459 15.8084 25.1043 15.4594ZM22.8615 10.615C23.6285 10.7783 24.941 10.1342 24.9248 9.53851C24.9096 8.96705 24.5525 8.84684 23.8483 8.91054C23.4321 8.94821 23.1082 9.10969 22.8615 9.26938C22.6327 9.4174 22.1644 9.65245 22.2335 10.0768C22.2856 10.3961 22.587 10.5567 22.8615 10.615ZM23.6689 8.01343C23.8026 7.88514 24.0555 7.86451 24.0277 7.65458C23.4258 7.62229 23.0284 8.26821 22.5924 8.10314C22.7332 7.4644 23.5236 7.10555 23.2203 6.30892C22.8615 6.35916 22.5296 6.63098 22.3232 6.75748C22.1384 6.87051 21.9375 6.9665 21.8747 7.02661C21.7993 7.09838 21.6818 7.13336 21.6055 7.20603C21.401 7.4025 20.9928 7.52181 20.9776 7.83401C21.7868 7.71648 22.1124 7.11452 22.8615 6.9369C22.7269 7.3092 22.4641 7.5891 22.2335 7.92372C22.0308 8.21887 21.6289 8.53824 21.785 8.91054C22.1456 8.94463 22.4569 8.53465 22.5924 8.46198C22.875 8.31037 23.5451 8.13185 23.6689 8.01343ZM23.4895 17.7919C23.7685 17.5443 23.3782 17.1542 23.1306 17.4331C23.0686 17.7336 23.2813 17.7605 23.4895 17.7919ZM21.8747 19.5861C22.4452 19.5091 23.3639 20.1666 23.3998 19.317C22.6857 18.8945 22.2021 18.2423 21.3364 17.9713C21.3292 18.1274 21.3561 18.2503 21.4261 18.3302C21.7338 18.3921 22.0012 18.6092 22.2335 18.7787C22.4569 18.942 22.7682 19.1151 22.8615 19.4067C22.5036 19.3628 22.1357 19.3915 21.785 19.317C21.3005 19.2139 20.8394 18.7205 20.6187 19.2273C20.9004 19.3044 20.9973 19.5664 21.3364 19.5861C21.4037 19.771 21.6163 19.9612 21.6953 20.0347C21.7634 20.0984 21.8899 20.0626 21.9644 20.1244C22.1618 20.2877 22.3223 20.7551 22.5924 20.5729C22.6282 20.0266 21.7554 19.9181 21.8747 19.5861ZM21.785 6.21921C21.8558 5.90971 21.7015 5.82448 21.5158 5.77066C21.4073 5.90971 21.2288 6.12053 21.4261 6.30892C21.5957 6.32866 21.6244 6.20755 21.785 6.21921ZM21.4261 21.9186C21.5033 21.8459 21.4791 21.6729 21.6055 21.6495C21.3615 20.7874 20.7847 20.2572 20.529 19.4067C20.2662 19.4874 20.2536 19.4874 19.9907 19.4067C19.7449 18.9734 19.3224 18.5123 19.0039 17.9713C18.9779 17.9275 19.0308 17.835 19.0039 17.7919C18.9564 17.7148 18.7841 17.6861 18.7348 17.6125C18.663 17.5049 18.7142 17.3668 18.6451 17.2536C18.5177 17.0456 18.3795 16.9459 18.2862 16.7154C18.1858 16.4669 18.1292 16.3108 18.0171 16.0874C17.9355 15.9242 17.9005 15.6515 17.9274 15.28C17.9346 15.1786 18.0871 15.0728 18.1068 15.0109C18.1678 14.8217 18.1176 14.5866 18.1965 14.3829C18.2638 14.2089 18.4468 14.0949 18.5554 13.9343C18.7375 13.6634 18.8649 13.4625 19.0039 13.1269C19.0811 12.9403 19.2515 12.603 19.4525 12.4093C19.4408 11.5104 20.093 11.0322 20.0805 10.2562C20.076 9.99424 19.7387 9.72421 19.901 9.35909C19.4615 8.90157 19.2614 8.20451 19.0039 7.56487C18.6496 7.42672 18.4289 7.01584 18.1068 6.75748C17.896 6.58792 17.7758 6.55742 17.5686 6.30892C17.5461 6.28201 17.3999 6.24343 17.3891 6.21921C17.2976 6.01557 17.3066 6.07208 17.0303 5.86037C17.0007 5.83794 16.9666 5.69261 16.9406 5.68095C16.8966 5.66121 16.7988 5.70876 16.7612 5.68095C16.579 5.54369 16.4149 5.28173 16.3126 5.23239C16.1933 5.17498 15.9547 5.20279 15.7743 5.14268C15.6721 5.10859 15.5285 4.98569 15.4155 4.96326C15.4218 4.96416 15.3069 5.07988 15.2361 5.05297C15.2047 5.04131 15.228 4.97671 15.1464 4.96326C14.8494 4.91481 14.6808 4.83318 14.4287 4.96326C14.4565 4.75603 14.1694 4.86368 14.1595 4.69413C13.8868 4.75064 13.3871 4.5793 13.2624 4.78384C13.5414 4.78473 13.8823 4.96146 13.711 5.14268C13.4347 5.20548 13.5387 5.20548 13.2624 5.14268C13.2257 5.59841 13.6141 5.62891 13.9801 5.68095C14.0357 5.81103 14.0887 5.67197 13.9801 5.68095C13.9299 5.46205 13.6329 5.48986 13.711 5.14268C14.0546 5.03054 14.0905 4.88162 14.6081 5.05297C14.6547 5.06822 14.7534 5.22252 14.7875 5.23239C14.8557 5.25302 14.9974 5.19471 15.0567 5.23239C15.0602 5.23508 15.1132 5.56612 15.4155 5.41181C15.429 5.7868 15.8174 5.7868 16.0435 5.95008C16.1682 6.09451 16.4866 6.04517 16.5817 6.21921C16.5485 6.0667 16.6517 6.04966 16.7612 6.03979C16.8006 6.15013 16.876 6.2237 17.0303 6.21921C16.9549 6.53948 17.4869 6.71172 17.2994 6.84719C17.0177 6.62112 16.6508 6.47847 16.1332 6.48834C15.8928 6.22011 15.5223 6.08195 14.9669 6.1295C14.7436 6.16628 14.3775 5.61725 14.339 6.03979C14.5588 6.23895 15.1625 6.05325 15.0567 6.57805C15.5106 6.51256 15.7151 6.69737 15.9538 6.84719C15.9538 6.9369 15.9538 7.02661 15.9538 7.11632C16.2274 7.1208 16.1691 6.79336 16.492 6.84719C16.5234 6.96471 16.6499 6.98803 16.6714 7.11632C16.7199 7.4339 16.3539 7.33701 16.4023 7.65458C16.6903 7.58012 16.588 7.57833 16.7612 7.7443C16.8186 7.47337 16.9011 7.22666 17.2097 7.20603C17.2833 7.30023 17.4376 7.38904 17.4788 7.47516C17.5632 7.65279 17.4134 7.8672 17.5686 8.01343C17.5273 8.35881 17.8099 8.84236 18.0171 8.6414C17.8592 8.61987 17.8126 8.4871 17.8377 8.28256C18.1562 8.42161 17.8915 7.97754 18.1068 8.01343C18.4666 8.31127 18.5042 8.93117 18.5554 9.53851C18.716 9.55017 18.7447 9.42906 18.9142 9.4488C18.9142 9.53851 18.9142 9.62822 18.9142 9.71793C18.5724 9.72242 18.8496 10.5648 18.376 10.615C18.5706 10.5998 18.4163 10.9335 18.4657 11.0636C18.2952 11.2314 18.2405 11.0735 18.0171 11.0636C18.0934 11.3498 17.9391 11.4045 17.8377 11.5122C17.9911 11.6279 18.1903 11.6979 18.1965 11.9607C17.9705 12.1231 17.9418 12.4828 17.6583 12.5887C17.5892 12.359 18.009 12.176 17.748 12.0504C17.6529 12.5232 16.9998 12.4389 16.7612 12.7681C16.8159 12.8928 17.1065 12.7816 17.12 12.9475C17.0841 13.1628 17.5282 12.8973 17.3891 13.2167C17.0168 13.1924 17.0393 13.3342 16.7612 13.2167C16.7917 13.0363 16.7432 12.9359 16.5817 12.9475C16.4023 13.1162 16.44 13.2732 16.1332 13.1269C16.1771 12.8381 16.4606 12.5968 16.1332 12.4093C16.1583 12.6138 16.1117 12.7466 15.9538 12.7681C15.9466 12.6264 15.9968 12.4263 15.8641 12.4093C15.8892 12.6138 15.8425 12.7466 15.6846 12.7681C15.6783 12.2971 15.5133 11.8674 15.8641 11.6019C15.9188 11.6539 16.2893 11.8118 16.3126 11.6019C15.9735 11.3435 15.8147 10.9039 15.5052 10.615C14.9598 10.9416 14.6763 9.93952 14.1595 10.2562C14.3641 10.2311 14.4969 10.2777 14.5184 10.4356C14.295 10.4222 14.2403 10.5765 14.0698 10.615C13.9362 10.3899 13.667 10.3002 13.4419 10.1665C13.423 10.3199 13.5953 10.3988 13.4419 10.4356C13.2014 10.2876 13.0444 10.0552 12.8139 9.89736C12.4748 9.91709 12.0047 9.80585 12.0065 10.1665C12.6874 10.2338 13.3512 10.3172 13.6213 10.7945C13.3925 11.0241 13.1862 10.7747 13.083 10.615C13.1691 10.2427 12.8139 10.5971 13.083 10.615C13.0041 10.9963 13.144 11.1973 12.9036 11.5122C13.327 11.5166 13.362 11.1336 13.6213 10.9739C13.8572 11.1892 13.972 10.8456 14.2493 10.7945C14.4448 10.7586 14.6153 10.8205 14.8772 10.7945C14.9329 11.0376 15.2522 11.0178 15.2361 11.3327C14.9795 11.1111 14.6978 10.9138 14.1595 10.9739C13.7137 11.2215 13.7298 11.9742 13.6213 12.3195C13.6482 12.0827 13.4975 12.0253 13.2624 12.0504C13.1593 12.1563 13.1611 12.3671 13.1727 12.5887C12.8525 12.717 12.7986 13.1117 12.455 13.2167C12.4703 13.7442 11.6557 14.0223 12.2756 14.3829C12.2675 14.2555 12.2604 14.129 12.3653 14.1138C12.2936 14.4252 12.499 14.4583 12.455 14.7417C12.7735 14.8809 12.5089 14.4368 12.7242 14.4726C12.8193 14.6763 13.2885 14.5067 13.5316 14.5623C14.2331 14.1209 14.6808 13.4957 15.6846 13.5755C15.6757 13.8061 15.3348 13.7038 15.3258 13.9343C15.9394 13.8473 16.5943 13.65 17.12 13.9343C17.0159 13.92 16.9603 13.9541 16.9406 14.0241C16.8105 14.0788 16.9496 14.1326 16.9406 14.0241C17.0994 14.0447 17.39 13.9334 17.2994 14.2035C17.2752 14.3884 16.902 14.225 16.9406 14.4726C17.3066 14.5722 16.8383 14.7463 16.8509 15.0109C16.9235 15.088 17.0967 15.0639 17.12 15.1903C17.1353 15.4497 17.2025 15.6048 17.12 15.8183C17.1039 15.8613 16.9558 15.8739 16.9406 15.908C16.8401 16.1314 16.7136 16.2336 16.492 16.4462C16.3673 16.5656 16.004 16.658 15.7743 16.8051C15.6972 16.8545 15.6685 17.0249 15.5949 17.0742C15.4469 17.173 14.6942 17.3093 15.0567 17.7022C15.0737 17.5999 15.1464 17.652 15.1464 17.7022C15.272 17.7453 15.2791 17.6476 15.3258 17.6125C15.359 17.5875 15.516 17.3784 15.5949 17.3434C15.6317 17.3264 15.7465 17.3713 15.7743 17.3434C15.8676 17.2492 15.8497 17.0688 15.9538 16.9845C16.03 16.9227 16.1538 16.9585 16.2229 16.8948C16.2588 16.8616 16.2749 16.7414 16.3126 16.7154C16.4274 16.6364 16.6562 16.6239 16.7612 16.536C16.9496 16.3781 17.0195 16.0596 17.2994 15.9977C17.3012 16.2731 16.7414 16.4489 17.0303 16.7154C17.1317 16.4525 17.2878 16.8634 17.3891 16.8948C17.2564 16.9711 17.1963 17.121 17.2097 17.3434C16.8374 17.2572 17.1918 17.6116 17.2097 17.3434C17.3622 17.3479 17.5228 16.9011 17.748 16.8948C17.6933 16.8967 18.1499 17.1819 18.1965 17.2536C18.2907 17.399 18.3284 17.6431 18.1965 17.9713C18.349 17.9381 18.3661 18.0413 18.376 18.1508C18.2647 18.4586 17.8458 18.4576 17.8377 18.8684C17.5838 18.8837 17.2223 18.7914 17.2097 19.0479C17.3703 18.9393 17.7318 19.0317 17.8377 18.8684C18.1481 18.8551 18.515 18.6263 18.7348 18.9582C18.576 19.0381 18.6209 19.3225 18.2862 19.2273C18.297 19.4516 18.4576 19.5081 18.1965 19.5861C17.6628 19.3476 16.9182 19.6041 16.6714 19.945C17.1083 19.9037 17.0088 19.8849 17.2994 20.0347C17.5551 19.8723 17.6663 19.5637 18.1965 19.6758C18.1651 19.7935 18.0386 19.8167 18.0171 19.945C18.6155 20.0069 19.0461 19.2452 19.4525 19.6758C19.3197 19.902 19.1053 20.0463 18.8245 20.1244C18.7339 20.3711 18.4074 20.6044 18.1068 20.7524C17.9184 20.8448 17.6968 20.8421 17.4788 20.9318C17.1056 21.0852 16.7531 21.3221 16.4023 21.4701C16.2058 21.5526 15.9726 21.5669 15.7743 21.6495C15.5402 21.7474 15.28 21.9366 14.9669 22.0083C14.6987 22.0694 14.4116 22.0766 14.1595 22.1877C14.1048 22.063 13.8142 22.1744 13.8007 22.0083C14.0052 21.6746 14.6556 21.7867 14.8772 21.4701C15.1508 21.4746 15.3339 21.3885 15.4155 21.2009C15.1123 21.1668 15.0324 21.3561 14.8772 21.4701C14.3381 21.4198 14.2313 21.7186 13.8007 21.5598C13.8249 21.9268 13.4786 21.7294 13.2624 21.8289C13.2212 21.8477 13.2059 21.9931 13.1727 22.0083C13.0624 22.0578 12.9206 21.9994 12.7242 22.098C12.5322 22.194 12.473 22.3394 12.2756 22.3672C11.8674 22.4247 11.4969 22.1994 11.0197 22.2775C11.0197 22.1877 11.0197 22.098 11.0197 22.0083C10.8779 22.0011 10.6779 22.0514 10.6608 21.9186C10.3702 21.8075 10.5926 22.2084 10.302 22.098C10.0517 21.8595 9.59326 21.9124 9.22545 22.0083C9.0864 21.6297 9.72334 22.0281 9.58429 21.6495C9.00924 21.6729 8.64771 21.9088 8.23863 22.098C8.03319 21.8424 8.43151 21.3167 8.05921 21.1112C7.67794 21.1785 7.58105 21.5302 7.07239 21.4701C7.12173 21.1301 7.28949 20.9094 7.25181 20.4832C7.0984 20.4868 7.01946 20.4169 6.98268 20.3038C6.56552 20.2196 6.2004 20.6529 5.90615 20.3935C5.9815 20.0805 6.20578 19.9164 6.17528 19.4964C5.73749 19.6265 5.7043 20.1621 5.5473 20.5729C5.42978 20.6044 5.40646 20.7309 5.27817 20.7524C5.08081 21.0037 4.38016 20.7515 4.38106 21.2009C4.61072 21.4799 4.99648 20.8519 5.27817 21.2009C5.17859 21.3706 5.16334 21.6244 5.09875 21.8289C5.24767 22.0083 5.34007 22.2461 5.63701 22.2775C5.91153 22.2775 6.28742 21.9177 6.53412 22.1877C6.45697 22.5332 6.33855 22.9862 6.80325 22.9951C7.10558 23.4877 7.51197 22.8229 7.87978 22.8157C7.64743 23.0741 7.92015 23.3719 7.87978 23.7128C8.34538 23.6402 8.10316 22.8597 8.23863 22.4569C8.6181 22.3574 8.80829 22.0694 9.22545 22.0083C9.18687 22.4058 9.74846 22.203 9.76371 22.5466C9.81574 23.197 9.48381 23.4635 9.13574 23.7128C8.82803 23.9371 8.5562 23.5325 8.32834 23.7128C8.73293 24.5758 9.66862 23.7057 9.94313 23.354C10.0391 23.0014 9.96287 22.4767 10.1226 22.1877C10.2544 22.534 10.8187 22.4488 10.93 22.8157C10.9138 23.4877 10.7308 23.9918 10.302 24.2511C9.9835 24.4019 9.57891 23.947 9.58429 24.3408C9.77179 24.4825 10.0562 24.5265 10.3917 24.5202C10.7774 24.279 11.1426 23.6699 11.1991 23.0849C11.217 22.8974 11.139 22.6812 11.1991 22.5466C11.5319 22.4829 11.5839 22.7 11.9168 22.6363C12.1976 23.329 12.2164 24.7705 11.0197 24.5202C11.0726 25.0702 11.8181 24.653 12.0962 24.6099C12.1491 24.3282 12.3312 23.9362 12.3653 23.5334C12.3949 23.1916 12.3169 22.84 12.3653 22.6363C12.5071 22.6435 12.7071 22.5933 12.7242 22.726C12.2532 23.5433 12.5277 25.4353 13.8007 24.7894C13.8491 24.0519 13.7298 23.0078 13.8007 22.5466C14.1515 22.534 13.9317 22.9279 13.9801 23.0849C13.9945 23.1324 14.1497 23.2302 14.1595 23.2643C14.2869 23.6859 14.3138 24.2906 14.5184 24.7894C15.1239 24.6772 14.6628 23.4984 15.1464 23.2643C15.5671 23.651 15.7106 24.3148 16.3126 24.5202C16.5154 23.7362 15.9233 23.0059 15.9538 22.098C16.2552 21.8585 16.6176 21.733 17.12 21.5598C17.5497 21.4118 17.9113 21.2072 18.376 21.1112C18.6343 21.75 19.0183 22.2632 19.1834 22.9951C19.2273 23.2786 18.7384 23.0283 18.8245 23.354C19.1026 23.6482 19.4229 23.1997 19.6319 23.0849C19.8948 22.9413 20.3433 22.8912 20.3496 22.5466C19.9746 22.4712 19.9262 22.7206 19.6319 22.726C19.2165 22.2147 18.9968 21.5068 18.6451 20.9318C18.7626 20.9004 18.7859 20.7739 18.9142 20.7524C19.9736 20.9192 20.3496 21.7688 21.4261 21.9186ZM20.529 5.05297C21.1696 5.06553 21.4145 4.72373 21.3364 4.24557C21.2817 3.91005 20.7569 3.73153 20.529 3.6176C20.1244 4.0823 19.6911 4.53982 19.3628 4.96326C19.2569 5.09962 18.9591 5.25661 19.0039 5.50152C19.4327 5.45218 19.5 5.04041 19.901 4.96326C20.3469 5.45667 19.7548 5.85857 19.7216 6.39863C20.3604 6.31969 20.2859 5.52754 20.529 5.05297ZM19.0936 2.98962C19.3673 3.01922 19.7252 3.42831 19.9907 3.16904C19.6481 2.97347 19.4525 2.63078 18.9142 2.63078C18.4504 3.274 18.0306 3.95939 17.6583 4.69413C18.4127 4.82062 18.0135 3.79343 18.8245 3.97644C18.9205 3.64092 18.602 3.72076 18.6451 3.43817C18.9044 3.3978 18.8568 3.05242 19.0936 2.98962ZM17.9274 19.0479C17.7229 19.0228 17.5901 19.0694 17.5686 19.2273C17.7354 19.2147 17.8682 19.1681 17.9274 19.0479ZM17.4788 4.33528C17.6 3.76562 16.8042 4.1128 16.8509 3.6176C17.0509 3.01025 17.3227 2.47468 17.5686 1.91309C17.4474 1.88528 17.3972 1.7857 17.2097 1.82338C16.8428 2.47288 16.6113 3.25785 16.4023 4.06615C16.8033 4.1137 17.0886 4.27697 17.4788 4.33528ZM17.2994 7.83401C17.312 7.72815 17.4591 7.63036 17.2994 7.56487C17.2869 7.67073 17.1397 7.76852 17.2994 7.83401ZM16.492 15.8183C16.3377 15.8138 16.2624 15.8874 16.2229 15.9977C16.3772 16.0022 16.4525 15.9286 16.492 15.8183ZM16.3126 9.26938C16.3682 9.39946 16.4212 9.26041 16.3126 9.26938C16.257 9.1393 16.2041 9.27835 16.3126 9.26938ZM16.2229 11.871C16.248 11.8961 16.3593 11.8279 16.3126 11.7813C16.2875 11.7562 16.1762 11.8243 16.2229 11.871ZM16.0435 3.97644C16.1036 3.01922 15.8703 2.35536 15.8641 1.46453C15.6523 1.46633 15.6003 1.31023 15.3258 1.37482C15.1212 1.6628 14.9113 2.0019 14.6978 2.36164C14.4969 2.70075 14.1631 3.07305 14.2493 3.43817C14.8754 3.32604 14.6 2.56888 15.1464 2.54107C16.1395 2.49083 15.3823 3.78715 16.0435 3.97644ZM15.8641 21.1112C15.9941 21.0555 15.8551 21.0027 15.8641 21.1112C15.4917 21.0251 15.8461 21.3794 15.8641 21.1112ZM15.6846 15.8183C15.7097 15.8434 15.821 15.7753 15.7743 15.7286C15.7492 15.7034 15.638 15.7716 15.6846 15.8183ZM14.9669 17.9713C14.9921 17.9965 15.1033 17.9284 15.0567 17.8816C15.0315 17.8565 14.9203 17.9247 14.9669 17.9713ZM14.6978 8.82083C14.9858 8.8917 15.0898 9.14648 15.3258 9.26938C15.2343 8.85043 14.6395 8.46288 14.2493 8.6414C14.426 8.7033 14.4888 8.88093 14.5184 9.08996C14.2932 9.05228 14.0241 8.60014 13.8904 9.00025C14.4888 8.87555 14.5381 10.0705 14.9669 9.53851C14.5866 9.64437 14.6664 8.8298 14.6978 8.82083ZM15.0567 10.2562C14.9373 10.2697 14.7857 9.89108 14.6978 10.1665C14.7543 10.2158 14.9686 10.5307 15.0567 10.2562ZM14.9669 6.48834C14.7319 6.46322 14.5812 6.52064 14.6081 6.75748C14.8324 6.77273 14.8889 6.61932 14.9669 6.48834ZM14.7875 17.7919C14.9176 17.7362 14.7785 17.6834 14.7875 17.7919C14.7113 17.7758 14.7032 17.827 14.6978 17.8816C14.513 17.8027 14.295 18.1141 14.5184 18.1508C14.5498 18.0332 14.6763 18.01 14.6978 17.8816C14.774 17.8978 14.7821 17.8466 14.7875 17.7919ZM14.0698 18.5993C14.0689 18.5087 13.9128 18.4863 13.8904 18.5993C13.9093 18.7078 13.99 18.654 14.0698 18.5993ZM13.8007 9.26938C13.8707 9.24964 13.9774 9.26669 13.9801 9.17967C13.9101 9.19941 13.8034 9.18236 13.8007 9.26938ZM13.5316 8.55169C13.6724 8.54272 13.8429 8.56336 13.8007 8.37227C13.7406 8.37227 13.6814 8.37227 13.6213 8.37227C13.6213 8.46198 13.5486 8.47903 13.5316 8.55169ZM13.8007 18.7787C13.5764 18.7635 13.5199 18.9169 13.4419 19.0479C13.6661 19.063 13.7227 18.9096 13.8007 18.7787ZM13.711 6.30892C13.8653 6.31341 13.9406 6.23984 13.9801 6.1295C13.8393 6.13757 13.6688 6.11784 13.711 6.30892ZM13.2624 9.62822C13.2849 9.83366 13.5477 9.86506 13.5316 9.71793C13.5253 9.66052 13.2391 9.41651 13.2624 9.62822ZM13.2624 10.1665C13.2876 10.1916 13.3988 10.1234 13.3521 10.0768C13.327 10.0517 13.2158 10.1198 13.2624 10.1665ZM13.2624 10.7048C13.2876 10.7299 13.3988 10.6617 13.3521 10.615C13.327 10.5899 13.2158 10.6581 13.2624 10.7048ZM13.083 6.21921C13.083 6.26855 13.1557 6.32058 13.1727 6.21921C13.1727 6.16897 13.1001 6.11694 13.083 6.21921ZM12.0962 5.68095C12.6524 5.48717 12.83 6.13847 13.1727 5.86037C12.734 5.58226 12.2747 5.25661 11.8271 5.23239C11.7849 5.51408 12.0684 5.46923 12.0962 5.68095ZM12.7242 4.60441C12.7941 4.58468 12.9009 4.60172 12.9036 4.5147C12.8336 4.53444 12.7269 4.5174 12.7242 4.60441ZM12.5447 3.07933C12.5878 2.73305 13.0041 2.76175 13.083 2.45135C12.9781 2.19747 12.5286 2.28808 12.6345 1.82338C12.5447 1.82338 12.455 1.82338 12.3653 1.82338C12.534 2.38048 12.0262 2.26117 12.0065 2.63078C12.3393 2.62629 12.2254 3.07036 12.5447 3.07933ZM12.5447 14.9212C12.5699 14.9463 12.6811 14.8782 12.6345 14.8315C12.6093 14.8063 12.4981 14.8745 12.5447 14.9212ZM12.455 15.8183C12.4802 15.8434 12.5914 15.7753 12.5447 15.7286C12.5196 15.7034 12.4084 15.7716 12.455 15.8183ZM12.2756 19.5861C12.386 19.4597 12.743 19.5413 12.455 19.317C12.2424 19.7324 11.5095 19.6274 11.4682 20.2141C11.8809 20.3065 12.1132 19.7718 12.2756 19.5861ZM12.3653 16.3565C12.3904 16.3817 12.5017 16.3136 12.455 16.2668C12.4299 16.2417 12.3187 16.3099 12.3653 16.3565ZM12.2756 15.0109C12.2756 15.0612 12.3483 15.1122 12.3653 15.0109C12.3653 14.9606 12.2927 14.9086 12.2756 15.0109ZM12.1859 10.4356C12.2559 10.4159 12.3626 10.4329 12.3653 10.3459C12.2954 10.3656 12.1886 10.3486 12.1859 10.4356ZM11.1094 5.77066C11.6638 5.63699 12.0558 6.13578 12.3653 5.95008C12.0693 5.73836 11.5588 5.74015 11.3785 5.41181C11.1686 5.43962 11.008 5.58765 10.8402 5.41181C10.7613 5.69978 11.1363 5.53472 11.1094 5.77066ZM12.0962 4.5147C12.1213 4.53982 12.2326 4.47164 12.1859 4.42499C12.1608 4.39987 12.0495 4.46805 12.0962 4.5147ZM12.1859 15.4594C11.9921 15.2567 11.88 15.5339 11.5579 15.4594C11.6799 15.7313 11.5463 16.0425 11.1094 15.9977C11.0098 16.2795 11.0672 16.2346 11.1991 16.4462C11.0681 16.6436 10.4886 16.3933 10.4814 16.7154C10.1324 16.9343 9.99875 17.3685 9.31516 17.2536C9.4569 16.903 9.08191 17.068 9.04603 16.8948C9.25954 16.7791 9.3017 16.493 9.40487 16.2668C9.21379 16.2247 9.23442 16.3952 9.22545 16.536C9.05679 16.5548 8.75895 16.8958 8.68718 16.7154C8.76882 16.405 9.30798 16.0848 9.04603 15.7286C8.91684 15.9457 8.76702 16.4606 8.41805 16.1771C8.26285 16.2318 8.42523 16.6023 8.23863 16.6257C8.15879 16.5558 8.03588 16.5288 7.87978 16.536C7.89324 16.3136 7.89683 16.1009 7.70036 16.0874C7.5344 16.6741 6.49106 16.3781 6.26499 15.9977C6.30805 16.3637 5.98958 16.0452 6.08557 15.8183C6.37085 16.0766 6.51708 15.6532 6.71354 15.5491C6.69919 15.6532 6.73328 15.7088 6.80325 15.7286C6.97909 15.2755 6.23808 15.1087 6.53412 14.652C6.57987 14.5812 6.70368 14.6979 6.71354 14.5623C6.70816 14.6332 6.53592 14.4798 6.53412 14.4726C6.4785 14.2806 6.77724 14.2278 6.71354 14.0241C6.6032 13.9847 6.52964 13.9092 6.53412 13.7549C6.61038 13.7711 6.61845 13.7199 6.62383 13.6652C6.77724 13.6688 6.85618 13.5988 6.89297 13.4858C6.73956 13.4822 6.66061 13.5522 6.62383 13.6652C6.54758 13.6491 6.5395 13.7002 6.53412 13.7549C6.15823 13.6706 6.59333 13.2965 6.17528 13.2167C6.38072 12.8919 6.6014 13.1171 6.89297 12.9475C6.7261 12.935 6.59333 12.8883 6.53412 12.7681C6.6328 12.8067 6.80056 12.7179 6.89297 12.7681C6.96294 12.8058 6.93064 13.0076 6.98268 13.0372C7.14326 13.1296 7.36036 12.9834 7.43123 13.2167C7.52543 13.6607 7.57656 14.1478 7.79007 14.4726C7.78738 13.9065 7.82596 13.301 7.70036 12.8578C7.73356 12.7026 7.97129 12.3034 7.79007 12.2298C7.7506 12.3626 7.67524 12.1949 7.52094 12.2298C7.36574 12.2846 7.52812 12.6551 7.34152 12.6784C6.83465 12.5277 6.108 12.5959 5.81644 12.2298C5.86937 11.6252 6.3861 11.4834 6.62383 11.0636C6.70009 11.0797 6.70816 11.0286 6.71354 10.9739C7.22041 10.8824 7.39804 10.4625 7.70036 10.1665C7.66448 10.642 8.08253 9.85788 8.14892 10.1665C8.16058 10.8806 7.93451 11.5794 8.14892 12.2298C8.3714 12.2433 8.58401 12.2469 8.59747 12.0504C8.72755 11.9948 8.5885 11.9419 8.59747 12.0504C8.3095 12.1285 8.31668 11.9123 8.23863 11.7813C8.39562 11.4906 8.77689 11.2511 8.77689 11.0636C8.89441 11.0322 8.91774 10.9057 9.04603 10.8842C9.26223 11.165 9.52239 10.8447 9.76371 11.0636C9.75115 11.2305 9.7045 11.3632 9.58429 11.4224C9.19943 11.426 8.92402 11.5391 8.68718 11.6916C9.28197 11.6153 8.54992 11.9347 8.8666 12.0504C9.09626 11.7122 9.62645 11.6745 9.85342 11.3327C10.2876 11.4431 10.441 11.4 10.7505 11.1533C10.3684 11.1892 9.93506 10.9577 10.1226 10.7048C9.7673 10.8205 9.93955 10.4096 9.58429 10.5253C9.49189 10.1387 9.12946 10.0238 8.77689 9.89736C8.69167 9.65424 8.45393 9.56184 8.32834 9.35909C8.08881 9.35909 7.85018 9.35909 7.61065 9.35909C7.61065 9.15006 7.61065 8.94014 7.61065 8.73111C7.85915 8.52209 8.20544 8.13454 8.23863 7.92372C8.25208 7.83759 8.22607 7.54783 8.32834 7.47516C8.35166 7.45812 8.4961 7.49849 8.50776 7.47516C8.55262 7.38725 8.45035 7.19437 8.50776 7.11632C8.5257 7.0921 8.65847 7.0598 8.68718 7.02661C8.89621 6.78618 9.17072 6.55383 9.674 6.39863C9.78255 6.36454 9.92071 6.42285 10.0328 6.39863C10.1863 6.36454 10.2634 6.23805 10.3917 6.21921C10.5307 6.19947 10.7236 6.31879 10.93 6.30892C11.1614 6.29816 11.3812 6.13219 11.6476 6.21921C11.8082 6.24433 11.8315 6.13399 11.7374 6.1295C11.1112 6.24792 10.9658 5.88459 10.4814 5.86037C10.4805 5.53203 10.3038 5.37952 10.1226 5.23239C10.3881 5.58226 9.96197 5.83076 9.674 5.59123C9.60762 5.89715 10.005 5.73926 10.0328 5.95008C8.90608 6.28829 8.20185 7.04993 7.79007 8.10314C7.37112 8.31216 7.14595 8.71497 7.07239 9.26938C7.26078 9.49904 7.31371 9.86506 7.43123 10.1665C7.28321 10.5262 6.88579 10.6375 6.71354 10.9739C6.63729 10.9577 6.62922 11.0089 6.62383 11.0636C6.38161 11.1004 6.20937 11.3327 5.99586 11.5122C5.74018 11.7275 5.43158 11.8495 5.45759 12.4093C5.5787 12.6174 5.71237 12.8121 5.90615 12.9475C5.92678 13.3871 5.74826 13.6266 5.81644 14.1138C5.85501 14.2851 6.07301 14.2762 5.99586 14.5623C6.01111 14.7866 5.8577 14.8431 5.72672 14.9212C5.68187 15.0674 5.88103 15.1293 5.81644 15.28C5.80836 15.2998 5.63791 15.3625 5.63701 15.3697C5.61638 15.5258 5.7339 15.5618 5.72672 15.7286C5.71775 15.9475 5.52129 16.1314 5.5473 16.2668C5.56794 16.3736 5.70161 16.3826 5.72672 16.4462C5.75274 16.5117 5.68635 16.6598 5.72672 16.7154C5.95818 17.0356 6.4803 17.0688 6.80325 17.4331C7.20247 17.3632 7.34152 17.5524 7.70036 17.5228C7.91298 17.6035 8.04126 17.8404 8.23863 17.9713C8.44317 18.1078 8.83969 18.0906 8.8666 18.4199C9.27389 18.4163 9.59685 18.7097 9.76371 18.9582C9.78973 18.9976 9.64619 19.0713 9.674 19.1376C9.70809 19.2183 9.91353 19.1546 9.94313 19.317C9.97722 19.5055 9.88482 19.5539 9.85342 19.6758C10.2697 19.7835 10.4114 20.1728 10.302 20.5729C10.1333 20.703 9.83548 20.7049 9.76371 20.9318C9.91622 20.8986 9.93327 21.0018 9.94313 21.1112C10.4141 21.0134 10.6079 20.6402 10.93 20.3935C10.7451 20.4959 10.712 20.145 10.6608 20.0347C10.5917 19.884 10.4805 19.6436 10.4814 19.317C10.1854 19.3134 10.1387 19.0622 10.1226 18.7787C10.1315 18.5483 10.4724 18.6504 10.4814 18.4199C9.9853 18.5788 10.136 18.2961 9.674 18.4199C9.77717 18.157 9.24339 18.0871 9.49458 17.9713C9.89738 18.1543 10.1836 17.9247 10.5711 18.1508C10.6258 18.2808 10.6797 18.1418 10.5711 18.1508C10.5236 18.0781 10.4778 18.0054 10.4814 17.8816C10.6312 17.8816 10.7801 17.8816 10.93 17.8816C10.9264 17.4627 10.6752 17.7104 10.3917 17.7022C10.5029 17.4116 10.101 17.6331 10.2123 17.3434C10.2787 17.0814 10.6967 17.1694 10.6608 16.8051C10.5568 16.8194 10.5011 16.7854 10.4814 16.7154C10.8716 16.8383 11.0834 16.7145 11.4682 16.6257C11.4799 16.4651 11.3588 16.4365 11.3785 16.2668C11.5391 16.2552 11.5678 16.3764 11.7374 16.3565C11.7625 16.1995 11.4844 15.909 11.7374 15.8183C11.9661 15.8281 11.915 16.1189 11.9168 16.3565C12.1698 16.37 12.1419 16.1027 12.2756 15.9977C12.1231 15.8353 11.9069 15.5626 12.1859 15.4594ZM11.9168 14.3829C12.0469 14.3272 11.9078 14.2743 11.9168 14.3829C11.6799 14.4798 11.6799 15.0037 11.9168 15.1006C11.9168 14.8611 11.9168 14.6223 11.9168 14.3829ZM11.5579 13.3064C11.6916 13.2265 11.9697 13.2229 11.9168 12.9475C11.3938 12.8722 11.1919 13.1198 11.1094 13.4858C11.3561 13.5943 11.4225 13.3871 11.5579 13.3064ZM11.4682 4.5147C11.5983 4.46536 11.932 4.61967 11.9168 4.42499C11.8028 4.30299 11.4772 4.28684 11.4682 4.5147ZM11.4682 17.4331C11.4709 17.2196 11.9275 17.0051 11.6476 16.8051C11.6243 16.9451 11.4512 16.867 11.3785 16.8051C11.4216 17.0877 11.1031 17.0079 11.1991 17.3434C11.3229 17.3397 11.3965 17.3855 11.4682 17.4331ZM11.5579 19.7656C11.583 19.7907 11.6943 19.7226 11.6476 19.6758C11.6225 19.6507 11.5113 19.7189 11.5579 19.7656ZM11.3785 15.1006C11.4036 15.1257 11.5149 15.0576 11.4682 15.0109C11.4431 14.9858 11.3319 15.0539 11.3785 15.1006ZM11.4682 10.5253C11.4682 10.4652 11.4682 10.406 11.4682 10.3459C11.4081 10.3459 11.3489 10.3459 11.2888 10.3459C11.2888 10.406 11.2888 10.4652 11.2888 10.5253C11.3489 10.5253 11.4081 10.5253 11.4682 10.5253ZM11.0197 15.7286C11.0448 15.7537 11.156 15.6856 11.1094 15.6389C11.0843 15.6137 10.973 15.6819 11.0197 15.7286ZM10.93 4.60441C10.7757 4.59993 10.7003 4.67349 10.6608 4.78384C10.8151 4.78832 10.8905 4.71476 10.93 4.60441ZM10.8402 16.2668C10.8896 15.9547 10.2383 15.8838 10.2123 16.1771C10.4509 16.178 10.7245 16.143 10.8402 16.2668ZM10.93 5.23239C10.5675 4.91661 10.7182 5.52126 10.93 5.23239V5.23239ZM10.7505 13.6652C10.6563 14.1855 11.139 13.7029 10.7505 13.6652V13.6652ZM10.8402 20.9318C10.7111 20.8313 10.6213 20.8349 10.5711 21.0215C10.4419 21.0718 10.3522 21.1615 10.302 21.2906C10.4975 21.3069 10.5873 21.2172 10.5711 21.0215C10.6985 21.0296 10.825 21.0359 10.8402 20.9318ZM10.6608 10.8842C10.8026 10.3531 10.3459 10.4213 10.3917 9.98707C10.1172 10.0517 10.0651 9.89556 9.85342 9.89736C9.95839 9.60221 9.69015 9.65962 9.58429 9.53851C9.55558 9.50532 9.61479 9.38959 9.58429 9.35909C9.47036 9.24516 9.21648 9.36447 9.31516 9.08996C9.30978 9.03523 9.3017 8.9841 9.22545 9.00025C9.2102 9.10431 9.0837 9.09803 8.95631 9.08996C8.90787 9.79598 9.38154 9.97989 9.94313 10.0768C10.1755 10.3531 10.2742 10.7622 10.6608 10.8842ZM10.4814 3.97644C10.642 3.23453 10.2383 2.31499 10.1226 1.55425C10.0328 1.55425 9.94313 1.55425 9.85342 1.55425C9.81844 1.68253 9.74577 1.70586 9.85342 1.82338C10.075 2.5294 10.0284 3.50277 10.4814 3.97644ZM9.94313 20.5729C9.96825 20.5981 10.0795 20.53 10.0328 20.4832C10.0077 20.4581 9.89648 20.5263 9.94313 20.5729ZM9.85342 16.6257C9.9234 16.6059 10.0302 16.6231 10.0328 16.536C9.96287 16.5557 9.85611 16.5387 9.85342 16.6257ZM9.76371 13.3961C9.83369 13.3763 9.94044 13.3934 9.94313 13.3064C9.87316 13.3261 9.7664 13.3091 9.76371 13.3961ZM9.94313 4.87355C9.94224 4.78294 9.78614 4.76051 9.76371 4.87355C9.78255 4.9821 9.86329 4.92827 9.94313 4.87355ZM9.76371 5.50152C9.78883 5.52664 9.90007 5.45846 9.85342 5.41181C9.8283 5.38669 9.71706 5.45487 9.76371 5.50152ZM9.49458 21.0215C9.8902 21.0385 9.5197 20.668 9.49458 21.0215C9.12228 20.9354 9.47664 21.2897 9.49458 21.0215ZM9.40487 4.24557C9.35104 3.43189 9.51611 2.40022 9.31516 1.73367C9.22545 1.73367 9.13574 1.73367 9.04603 1.73367C8.85584 2.12929 9.37078 3.00397 9.04603 3.52788C8.76792 3.38524 8.62797 3.10893 8.41805 2.89991C8.17852 2.66128 8.04575 2.29974 7.61065 2.36164C7.41598 2.57426 7.77572 2.68819 7.87978 2.8102C8.33013 3.34129 8.76254 4.0204 9.40487 4.24557ZM8.68718 21.3803C8.84148 21.3849 8.91684 21.3113 8.95631 21.2009C8.81547 21.2099 8.64502 21.1893 8.68718 21.3803ZM8.59747 15.28C8.61003 14.9983 8.36781 14.9715 8.14892 14.9212C8.20992 15.1293 8.3104 15.2979 8.59747 15.28ZM8.41805 21.1112C8.44317 21.1363 8.55441 21.0682 8.50776 21.0215C8.48264 20.9964 8.3714 21.0646 8.41805 21.1112ZM7.87978 4.96326C8.08881 4.93993 8.66386 4.69413 8.41805 4.24557C8.00897 4.19533 8.03857 4.58378 7.61065 4.5147C7.27155 4.34605 6.87861 4.19444 6.80325 3.79702C6.6974 3.2426 7.04009 3.04345 7.25181 2.63078C5.55358 3.04524 6.93244 5.07001 7.87978 4.96326ZM7.25181 16.2668C7.27693 16.2919 7.38817 16.2239 7.34152 16.1771C7.3164 16.152 7.20516 16.2202 7.25181 16.2668ZM7.1621 14.5623C7.29218 14.5066 7.15313 14.4538 7.1621 14.5623C7.08943 14.5794 7.07239 14.652 6.98268 14.652C6.99075 14.5246 6.99793 14.3981 6.89297 14.3829C6.79249 14.5121 6.79608 14.6018 6.98268 14.652C6.9746 14.7794 6.96743 14.9059 7.07239 14.9212C7.14236 14.8413 7.16927 14.7184 7.1621 14.5623ZM7.1621 14.2035C7.18722 13.999 7.14057 13.8662 6.98268 13.8446C6.95756 14.0492 7.00421 14.1819 7.1621 14.2035ZM7.07239 5.77066C7.11096 5.38311 6.6328 5.37144 6.44441 5.23239C6.24256 5.08437 6.0461 4.90943 5.90615 4.69413C5.68905 4.3604 5.81285 4.00425 5.45759 3.70731C5.18128 4.01232 5.7339 4.47882 5.45759 4.78384C5.07453 4.72463 4.58201 4.15137 4.38106 4.69413C4.78925 4.91392 5.30688 5.02426 5.63701 5.3221C5.76979 5.66839 5.91601 6.00032 5.90615 6.48834C5.52846 6.52512 5.22165 6.72069 4.82962 6.66776C4.56497 6.63188 3.98005 6.28201 3.93251 5.95008C3.82575 5.56253 4.22676 5.4468 4.02222 5.23239C3.86881 5.07001 3.66965 5.2602 3.66338 5.50152C3.46242 5.5401 3.62659 5.9438 3.57366 6.1295C3.99172 6.68391 5.14719 7.36751 5.90615 6.75748C5.90615 6.66776 5.90615 6.57805 5.90615 6.48834C6.09364 6.52602 6.14388 6.42644 6.26499 6.39863C6.31523 6.04427 5.8891 5.70427 6.17528 5.41181C6.58167 5.42437 6.64447 5.77963 7.07239 5.77066ZM6.98268 15.1903C6.99613 15.0961 6.9136 14.9588 6.89297 15.1006C6.87951 15.1948 6.96204 15.332 6.98268 15.1903ZM6.71354 16.2668C6.73866 16.2919 6.8499 16.2239 6.80325 16.1771C6.77814 16.152 6.66689 16.2202 6.71354 16.2668ZM5.63701 19.1376C5.61728 19.0677 5.56166 19.0336 5.45759 19.0479C5.3311 19.3645 5.07542 19.3349 4.82962 19.4964C4.69595 19.5843 4.59278 19.7647 4.47077 19.8553C4.39183 19.9136 4.27161 19.8911 4.20164 19.945C4.1514 19.9836 4.07515 20.076 4.02222 20.1244C3.88048 20.2545 3.67863 20.2886 3.75309 20.5729C4.17024 20.5363 4.44386 20.1595 4.73991 19.945C4.87627 19.8463 5.12925 19.8023 5.27817 19.6758C5.44414 19.5359 5.59036 19.351 5.63701 19.1376ZM5.27817 18.5096C5.15886 18.5096 5.03864 18.5096 4.91933 18.5096C4.52191 18.8559 3.97288 19.1727 3.57366 19.4067C3.41488 19.5 3.11704 19.5243 3.12511 19.7656C3.54316 19.954 3.94507 19.527 4.29135 19.317C4.65019 19.0999 5.16693 18.9259 5.27817 18.5096ZM4.65019 8.01343C4.79911 7.8035 5.15078 7.79633 5.09875 7.38545C4.69326 7.3388 4.73721 7.7416 4.38106 7.7443C3.78987 7.5873 3.21572 7.41506 3.0354 6.84719C3.06321 6.63547 3.3467 6.68032 3.30453 6.39863C3.1897 6.39325 3.18073 6.2838 3.0354 6.30892C2.11676 7.13426 3.51984 8.17042 4.65019 8.01343ZM4.82962 17.8816C4.50666 17.7695 4.08053 18.0441 3.8428 18.1508C3.8114 18.1651 3.79076 18.3087 3.75309 18.3302C3.38079 18.5419 2.81471 18.6416 2.67656 19.0479C3.13588 19.0309 3.50638 18.7833 3.8428 18.5993C4.20074 18.4037 4.60803 18.2225 4.82962 17.8816ZM4.38106 8.91054C4.37927 8.69882 4.53536 8.64679 4.47077 8.37227C3.99082 8.31127 4.13795 8.87645 3.66338 8.82083C3.21213 8.64409 2.64067 8.58758 2.49713 8.10314C2.37244 7.69854 2.84611 7.65548 2.58684 7.38545C2.49713 7.38545 2.40742 7.38545 2.31771 7.38545C2.09971 7.651 2.06562 8.0224 2.13829 8.28256C2.24325 8.65935 3.38886 9.22632 4.02222 9.08996C4.17562 9.05676 4.22048 8.83069 4.38106 8.91054ZM1.51031 16.536C1.66731 17.5515 4.25188 16.6975 3.93251 15.908C3.53329 15.0441 1.41432 15.9107 1.51031 16.536ZM3.75309 10.615C3.91187 10.4455 3.81857 10.0221 3.8428 9.71793C3.43282 9.46136 2.6622 8.92758 2.04858 9.00025C1.78662 9.03075 1.69332 9.21286 1.4206 9.26938C1.41702 9.56453 1.26899 9.71614 1.33089 10.0768C2.24236 10.1521 2.85508 10.5262 3.75309 10.615ZM3.66338 15.0109C3.65889 14.626 3.56649 14.33 3.39424 14.1138C2.86495 14.0627 2.46932 14.1453 2.31771 14.4726C1.51031 14.0976 0.66793 14.915 1.24118 15.6389C2.03064 15.4119 2.86405 15.2279 3.66338 15.0109ZM2.67656 12.6784C3.00131 12.6927 3.42116 12.9682 3.57366 12.5887C3.16638 12.3384 2.28362 12.5636 1.95887 12.2298C2.15623 12.202 2.36795 12.1114 2.58684 12.0504C2.80395 11.9903 3.20316 12.0719 3.21482 11.7813C3.01835 11.4987 2.49624 11.5427 2.31771 11.243C2.57877 10.955 3.51625 11.6028 3.57366 10.9739C2.76088 10.9676 1.82251 10.6464 1.06176 10.8842C1.06176 10.9739 1.06176 11.0636 1.06176 11.1533C1.43137 11.4117 2.0746 11.3964 2.31771 11.7813C1.90863 12.0603 1.24208 12.0818 0.882339 12.4093C1.27796 12.6533 2.06562 12.6506 2.67656 12.6784ZM3.30453 17.7022C3.30453 17.6125 3.30453 17.5228 3.30453 17.4331C3.21482 17.4331 3.12511 17.4331 3.0354 17.4331C3.0354 17.5228 3.0354 17.6125 3.0354 17.7022C3.12511 17.7022 3.21482 17.7022 3.30453 17.7022Z" fill="white"/>
<path d="M25.0145 10.8843C25.4316 11.0054 25.3644 11.6109 25.3733 12.1402C25.0405 12.3537 24.5722 12.5027 24.2071 12.2299C23.8734 12.1959 23.9729 12.5933 23.5791 12.4991C22.9682 12.4399 22.5806 11.8218 22.7717 11.2431C23.6204 11.2243 24.2528 10.9901 25.0145 10.8843ZM25.1042 11.8711C25.2809 10.9605 24.2071 11.201 24.2968 11.8711C24.4547 12.1061 24.9463 12.1061 25.1042 11.8711ZM23.5791 12.1402C23.8213 12.0532 24.0124 11.9151 24.0277 11.602C23.8976 11.3831 23.135 11.2853 23.1306 11.6917C23.17 11.9509 23.3198 12.1008 23.5791 12.1402Z" fill="#F3F6F9"/>
<path d="M25.3729 13.1267C25.2867 13.5197 25.5936 14.3046 25.1037 14.293C25.1037 14.0535 25.1037 13.8148 25.1037 13.5753C24.8373 13.3564 24.2596 13.3259 24.1169 13.665C23.6854 13.7377 23.7931 13.2712 23.3095 13.3959C22.9579 13.5995 23.1454 13.8471 23.1301 14.293C22.9803 14.293 22.8314 14.293 22.6816 14.293C22.6107 13.8337 22.8072 13.6417 22.7713 13.2164C23.6522 13.0496 24.455 13.0846 25.3729 13.1267Z" fill="#F3F6F9"/>
<path d="M24.2964 11.8711C24.2066 11.2009 25.2805 10.9605 25.1037 11.8711C24.9458 12.1061 24.4542 12.1061 24.2964 11.8711Z" fill="white"/>
<path d="M24.656 15.1904C24.7717 15.2191 25.1395 15.2147 25.1045 15.4595C25.0462 15.8086 24.4604 15.5232 24.1177 15.4595C23.7418 15.3896 23.4063 15.2219 23.0412 15.2801C22.8366 15.4946 23.0564 16.1323 22.5926 16.0875C22.2553 15.8139 22.694 15.3152 22.6823 14.8315C22.7424 14.8315 22.8016 14.8315 22.8617 14.8315C23.3829 14.9903 24.0038 15.0261 24.656 15.1904Z" fill="#F3F6F9"/>
<path d="M24.9248 9.53836C24.9409 10.134 23.6285 10.7782 22.8614 10.6149C22.5869 10.5566 22.2855 10.396 22.2334 10.0766C22.1644 9.65229 22.6327 9.41725 22.8614 9.26923C23.1081 9.10954 23.432 8.94807 23.8482 8.91039C24.5524 8.84669 24.9095 8.9669 24.9248 9.53836ZM23.7585 10.256C24.2771 10.1349 24.7229 9.91156 24.5659 9.35894C23.9487 8.95883 22.5591 9.34817 22.682 10.1663C22.8731 10.4265 23.3565 10.3502 23.7585 10.256Z" fill="#F3F6F9"/>
<path d="M24.5654 9.35922C24.7224 9.91184 24.2765 10.1352 23.758 10.2563C23.3561 10.3505 22.8726 10.4268 22.6815 10.1666C22.5586 9.34845 23.9482 8.95911 24.5654 9.35922Z" fill="white"/>
<path d="M24.0287 7.65474C24.0565 7.86467 23.8035 7.8853 23.6699 8.01359C23.5461 8.13201 22.8759 8.31053 22.5933 8.46214C22.4579 8.53481 22.1466 8.94479 21.7859 8.9107C21.6298 8.5384 22.0317 8.21903 22.2345 7.92388C22.465 7.58926 22.7279 7.30936 22.8625 6.93706C22.1134 7.11469 21.7877 7.71664 20.9785 7.83417C20.9938 7.52197 21.402 7.40266 21.6065 7.20619C21.6827 7.13352 21.8003 7.09854 21.8756 7.02677C21.9384 6.96666 22.1394 6.87067 22.3242 6.75764C22.5305 6.63114 22.8625 6.35932 23.2213 6.30908C23.5245 7.10571 22.7342 7.46456 22.5933 8.1033C23.0293 8.26837 23.4267 7.62245 24.0287 7.65474Z" fill="#F3F6F9"/>
<path d="M24.028 11.6017C24.0127 11.9148 23.8216 12.053 23.5794 12.14C23.3201 12.1005 23.1703 11.9507 23.1309 11.6915C23.1353 11.2851 23.8979 11.3829 24.028 11.6017Z" fill="white"/>
<path d="M23.1301 17.4329C23.3777 17.154 23.7679 17.5441 23.4889 17.7917C23.2808 17.7603 23.0681 17.7334 23.1301 17.4329Z" fill="#F3F6F9"/>
<path d="M23.4002 19.3169C23.3643 20.1665 22.4457 19.5089 21.8751 19.586C21.7558 19.9179 22.6287 20.0265 22.5928 20.5728C22.3228 20.7549 22.1622 20.2875 21.9648 20.1242C21.8904 20.0624 21.7639 20.0982 21.6957 20.0345C21.6167 19.9611 21.4041 19.7709 21.3368 19.586C20.9977 19.5662 20.9008 19.3043 20.6191 19.2271C20.8398 18.7204 21.3009 19.2138 21.7854 19.3169C22.1362 19.3913 22.504 19.3627 22.8619 19.4066C22.7686 19.115 22.4573 18.9419 22.2339 18.7786C22.0016 18.609 21.7343 18.3919 21.4265 18.33C21.3566 18.2502 21.3297 18.1273 21.3368 17.9712C22.2025 18.2421 22.6861 18.8943 23.4002 19.3169Z" fill="#F3F6F9"/>
<path d="M21.5162 5.77051C21.7019 5.82433 21.8562 5.90956 21.7854 6.21906C21.6248 6.2074 21.5961 6.32851 21.4265 6.30877C21.2291 6.12038 21.4077 5.90956 21.5162 5.77051Z" fill="#F3F6F9"/>
<path d="M21.6053 21.6495C21.4789 21.6729 21.5031 21.846 21.4259 21.9186C20.3494 21.7688 19.9735 20.9193 18.914 20.7524C18.7857 20.7739 18.7624 20.9004 18.6449 20.9318C18.9965 21.5069 19.2163 22.2148 19.6317 22.726C19.926 22.7207 19.9744 22.4713 20.3494 22.5466C20.3431 22.8912 19.8946 22.9413 19.6317 23.0849C19.4227 23.1997 19.1024 23.6483 18.8243 23.354C18.7382 23.0284 19.2271 23.2787 19.1831 22.9952C19.0181 22.2632 18.6341 21.75 18.3757 21.1112C17.911 21.2072 17.5495 21.4119 17.1198 21.5598C16.6174 21.733 16.255 21.8585 15.9536 22.0981C15.9231 23.0059 16.5151 23.7363 16.3124 24.5203C15.7104 24.3148 15.5669 23.651 15.1462 23.2643C14.6626 23.4984 15.1237 24.6772 14.5182 24.7894C14.3136 24.2906 14.2867 23.6859 14.1593 23.2643C14.1495 23.2302 13.9943 23.1324 13.9799 23.0849C13.9315 22.9279 14.1513 22.5341 13.8005 22.5466C13.7296 23.0078 13.8489 24.052 13.8005 24.7894C12.5275 25.4353 12.253 23.5433 12.724 22.726C12.7069 22.5934 12.5069 22.6435 12.3651 22.6363C12.3167 22.8401 12.3947 23.1916 12.3651 23.5334C12.331 23.9362 12.1489 24.3283 12.096 24.61C11.8179 24.653 11.0724 25.0702 11.0195 24.5203C12.2162 24.7705 12.1974 23.329 11.9166 22.6363C11.5837 22.7 11.5317 22.4829 11.1989 22.5466C11.1388 22.6812 11.2168 22.8974 11.1989 23.0849C11.1424 23.6699 10.7772 24.279 10.3915 24.5203C10.056 24.5265 9.77157 24.4826 9.58408 24.3408C9.5787 23.947 9.98329 24.4019 10.3018 24.2511C10.7306 23.9919 10.9136 23.4877 10.9297 22.8157C10.8185 22.4488 10.2542 22.5341 10.1223 22.1878C9.96266 22.4767 10.0389 23.0014 9.94292 23.354C9.66841 23.7057 8.73272 24.5759 8.32812 23.7129C8.55599 23.5325 8.82781 23.9371 9.13552 23.7129C9.4836 23.4635 9.81553 23.197 9.7635 22.5466C9.74825 22.203 9.18666 22.4059 9.22523 22.0083C9.59305 21.9124 10.0515 21.8595 10.3018 22.0981C10.5924 22.2084 10.3699 21.8075 10.6606 21.9186C10.6777 22.0514 10.8777 22.0012 11.0195 22.0083C11.0195 22.0981 11.0195 22.1878 11.0195 22.2775C11.4967 22.1994 11.8672 22.4247 12.2754 22.3672C12.4728 22.3394 12.532 22.194 12.724 22.0981C12.9204 21.9994 13.0622 22.0578 13.1725 22.0083C13.2057 21.9931 13.221 21.8478 13.2622 21.8289C13.4784 21.7294 13.8247 21.9268 13.8005 21.5598C14.2311 21.7187 14.3379 21.4198 14.877 21.4701C14.6554 21.7868 14.005 21.6746 13.8005 22.0083C13.8139 22.1744 14.1046 22.0631 14.1593 22.1878C14.4114 22.0766 14.6985 22.0694 14.9667 22.0083C15.2798 21.9366 15.54 21.7474 15.7741 21.6495C15.9724 21.567 16.2056 21.5526 16.4021 21.4701C16.7529 21.3221 17.1054 21.0852 17.4786 20.9318C17.6966 20.8421 17.9182 20.8448 18.1066 20.7524C18.4071 20.6045 18.7337 20.3711 18.8243 20.1244C19.1051 20.0464 19.3195 19.902 19.4523 19.6759C19.0459 19.2452 18.6153 20.0069 18.0169 19.945C18.0384 19.8167 18.1649 19.7935 18.1963 19.6759C17.6661 19.5637 17.5549 19.8723 17.2992 20.0347C17.0086 19.8849 17.1081 19.9037 16.6712 19.945C16.9179 19.6041 17.6625 19.3476 18.1963 19.5861C18.4574 19.5081 18.2968 19.4516 18.286 19.2273C18.6207 19.3225 18.5758 19.0381 18.7346 18.9582C18.5148 18.6263 18.1479 18.8551 17.8375 18.8685C17.8456 18.4576 18.2645 18.4586 18.3757 18.1508C18.3659 18.0413 18.3488 17.9382 18.1963 17.9714C18.3282 17.6431 18.2905 17.399 18.1963 17.2537C18.1497 17.1819 17.693 16.8967 17.7478 16.8948C17.5226 16.9011 17.362 17.348 17.2095 17.3434C17.1961 17.121 17.2562 16.9712 17.3889 16.8948C17.2876 16.8634 17.1315 16.4525 17.0301 16.7154C16.7412 16.449 17.301 16.2731 17.2992 15.9977C17.0193 16.0596 16.9493 16.3781 16.761 16.536C16.656 16.6239 16.4272 16.6365 16.3124 16.7154C16.2747 16.7414 16.2586 16.8616 16.2227 16.8948C16.1536 16.9585 16.0298 16.9227 15.9536 16.9845C15.8495 17.0689 15.8674 17.2492 15.7741 17.3434C15.7463 17.3713 15.6315 17.3264 15.5947 17.3434C15.5158 17.3785 15.3588 17.5875 15.3256 17.6125C15.2789 17.6476 15.2718 17.7453 15.1462 17.7022C15.1462 17.652 15.0735 17.5999 15.0564 17.7022C14.694 17.3093 15.4467 17.173 15.5947 17.0742C15.6683 17.0249 15.697 16.8545 15.7741 16.8051C16.0038 16.658 16.3671 16.5656 16.4918 16.4463C16.7134 16.2337 16.8399 16.1314 16.9404 15.908C16.9556 15.8739 17.1036 15.8613 17.1198 15.8183C17.2023 15.6048 17.135 15.4497 17.1198 15.1903C17.0965 15.0639 16.9233 15.088 16.8507 15.0109C16.8381 14.7463 17.3064 14.5722 16.9404 14.4726C16.9018 14.225 17.275 14.3884 17.2992 14.2035C17.3898 13.9335 17.0992 14.0447 16.9404 14.0241C16.9601 13.9542 17.0157 13.92 17.1198 13.9344C16.5941 13.65 15.9392 13.8473 15.3256 13.9344C15.3345 13.7038 15.6755 13.8061 15.6844 13.5755C14.6806 13.4957 14.2329 14.121 13.5314 14.5623C13.2882 14.5067 12.8191 14.6764 12.724 14.4726C12.5087 14.4368 12.7733 14.8809 12.4548 14.7418C12.4988 14.4584 12.2933 14.4252 12.3651 14.1138C12.2602 14.129 12.2673 14.2555 12.2754 14.3829C11.6555 14.0223 12.4701 13.7442 12.4548 13.2167C12.7984 13.1117 12.8522 12.717 13.1725 12.5887C13.1609 12.3671 13.1591 12.1563 13.2622 12.0504C13.4973 12.0253 13.648 12.0827 13.6211 12.3196C13.7296 11.9742 13.7135 11.2215 14.1593 10.9739C14.6976 10.9138 14.9793 11.1112 15.2359 11.3327C15.252 11.0179 14.9326 11.0376 14.877 10.7945C14.6151 10.8205 14.4446 10.7586 14.249 10.7945C13.9718 10.8456 13.857 11.1892 13.6211 10.9739C13.3618 11.1336 13.3268 11.5166 12.9034 11.5122C13.1438 11.1973 13.0039 10.9963 13.0828 10.6151C13.186 10.7747 13.3923 11.0241 13.6211 10.7945C13.351 10.3172 12.6872 10.2338 12.0063 10.1665C12.0045 9.80586 12.4746 9.9171 12.8137 9.89736C13.0442 10.0553 13.2012 10.2876 13.4416 10.4356C13.5951 10.3988 13.4228 10.3199 13.4416 10.1665C13.6668 10.3002 13.936 10.3899 14.0696 10.6151C14.2401 10.5765 14.2948 10.4222 14.5182 10.4356C14.4966 10.2777 14.3639 10.2311 14.1593 10.2562C14.6761 9.93953 14.9596 10.9416 15.505 10.6151C15.8145 10.9039 15.9733 11.3435 16.3124 11.6019C16.2891 11.8118 15.9186 11.6539 15.8638 11.6019C15.5131 11.8674 15.6781 12.2971 15.6844 12.7681C15.8423 12.7466 15.889 12.6138 15.8638 12.4093C15.9966 12.4263 15.9464 12.6264 15.9536 12.7681C16.1114 12.7466 16.1581 12.6138 16.133 12.4093C16.4604 12.5968 16.1769 12.8381 16.133 13.127C16.4398 13.2732 16.4021 13.1162 16.5815 12.9475C16.743 12.9359 16.7915 13.0364 16.761 13.2167C17.0391 13.3342 17.0166 13.1924 17.3889 13.2167C17.528 12.8973 17.0839 13.1628 17.1198 12.9475C17.1063 12.7816 16.8157 12.8928 16.761 12.7681C16.9996 12.4389 17.6527 12.5232 17.7478 12.0504C18.0088 12.176 17.589 12.359 17.6581 12.5887C17.9415 12.4828 17.9703 12.1231 18.1963 11.9607C18.19 11.6979 17.9909 11.6279 17.8375 11.5122C17.9389 11.4045 18.0932 11.3498 18.0169 11.0636C18.2403 11.0735 18.295 11.2314 18.4655 11.0636C18.4161 10.9335 18.5704 10.5998 18.3757 10.6151C18.8494 10.5648 18.5722 9.72243 18.914 9.71794C18.914 9.77805 18.914 9.83726 18.914 9.89736C19.0271 9.87494 19.0046 9.71884 18.914 9.71794C18.914 9.62823 18.914 9.53852 18.914 9.44881C18.7445 9.42907 18.7158 9.55018 18.5552 9.53852C18.504 8.93118 18.4664 8.31127 18.1066 8.01343C17.8913 7.97755 18.156 8.42162 17.8375 8.28257C17.8124 8.48711 17.859 8.61988 18.0169 8.64141C17.8097 8.84236 17.5271 8.35882 17.5684 8.01343C17.7989 8.24579 17.9487 7.93808 18.0169 7.7443C17.8429 7.75686 17.8922 7.5891 17.7478 7.38546C17.5343 7.44198 17.7621 7.93718 17.5684 8.01343C17.4132 7.86721 17.563 7.6528 17.4786 7.47517C17.4374 7.38905 17.2831 7.30023 17.2095 7.20604C16.9009 7.22667 16.8184 7.47337 16.761 7.7443C16.5878 7.57834 16.6901 7.58013 16.4021 7.65459C16.3537 7.33701 16.7197 7.4339 16.6712 7.11632C16.6497 6.98804 16.5232 6.96471 16.4918 6.84719C16.1689 6.79337 16.2272 7.12081 15.9536 7.11632C15.9536 7.02661 15.9536 6.9369 15.9536 6.84719C15.7149 6.69737 15.5104 6.51257 15.0564 6.57806C15.1623 6.05325 14.5585 6.23895 14.3388 6.03979C14.3773 5.61725 14.7434 6.16629 14.9667 6.1295C15.522 6.08196 15.8926 6.22011 16.133 6.48835C16.6506 6.47848 17.0175 6.62112 17.2992 6.84719C17.4867 6.71173 16.9547 6.53948 17.0301 6.21922C16.8758 6.2237 16.8004 6.15014 16.761 6.03979C16.6515 6.04966 16.5483 6.06671 16.5815 6.21922C16.4864 6.04518 16.168 6.09452 16.0433 5.95008C16.1733 5.89446 16.0343 5.84153 16.0433 5.95008C15.8172 5.78681 15.4287 5.78681 15.4153 5.41182C15.113 5.56612 15.06 5.23509 15.0564 5.23239C14.9972 5.19472 14.8555 5.25303 14.7873 5.23239C14.7532 5.22253 14.6545 5.06822 14.6079 5.05297C14.0903 4.88162 14.0544 5.03054 13.7108 5.14268C13.8821 4.96147 13.5412 4.78474 13.2622 4.78384C13.3869 4.5793 13.8866 4.75065 14.1593 4.69413C14.1692 4.86368 14.4563 4.75603 14.4285 4.96326C14.6806 4.83318 14.8492 4.91482 15.1462 4.96326C15.2278 4.97672 15.2045 5.04131 15.2359 5.05297C15.3067 5.07989 15.4216 4.96416 15.4153 4.96326C15.5283 4.98569 15.6719 5.10859 15.7741 5.14268C15.9545 5.20279 16.1931 5.17498 16.3124 5.23239C16.4147 5.28174 16.5788 5.54369 16.761 5.68095C16.7986 5.70876 16.8964 5.66121 16.9404 5.68095C16.9664 5.69261 17.0005 5.83794 17.0301 5.86037C17.3064 6.07209 17.2974 6.01557 17.3889 6.21922C17.3997 6.24344 17.5459 6.28201 17.5684 6.30893C17.7756 6.55743 17.8958 6.58793 18.1066 6.75748C18.4287 7.01585 18.6494 7.42672 19.0037 7.56488C19.2612 8.20452 19.4613 8.90157 19.9008 9.3591C19.7385 9.72422 20.0758 9.99425 20.0803 10.2562C20.0928 11.0322 19.4406 11.5104 19.4523 12.4093C19.2513 12.603 19.0809 12.9404 19.0037 13.127C18.8647 13.4625 18.7373 13.6634 18.5552 13.9344C18.4466 14.0949 18.2636 14.2089 18.1963 14.3829C18.1174 14.5866 18.1676 14.8217 18.1066 15.0109C18.0869 15.0728 17.9344 15.1786 17.9272 15.28C17.9003 15.6515 17.9353 15.9242 18.0169 16.0874C18.129 16.3108 18.1856 16.4669 18.286 16.7154C18.3793 16.946 18.5175 17.0456 18.6449 17.2537C18.714 17.3668 18.6628 17.5049 18.7346 17.6125C18.7839 17.6861 18.9562 17.7149 19.0037 17.7919C19.0306 17.835 18.9777 17.9275 19.0037 17.9714C19.3222 18.5123 19.7447 18.9734 19.9905 19.4067C20.2534 19.4875 20.266 19.4875 20.5288 19.4067C20.7844 20.2572 21.3613 20.7874 21.6053 21.6495ZM21.2465 21.5598C21.2824 21.1355 21.0617 20.9677 20.7979 20.8421C20.7181 21.0018 20.5477 21.07 20.6185 21.3804C20.902 21.366 20.9182 21.619 21.2465 21.5598ZM20.6185 20.573C20.597 20.1756 20.5225 19.832 20.17 19.7656C19.838 19.9424 19.5258 20.1379 19.4523 20.573C19.7752 20.6385 19.8874 20.9157 20.3494 20.8421C20.3995 20.7129 20.4892 20.6232 20.6185 20.573ZM18.8243 8.73112C18.8494 8.75624 18.9607 8.68806 18.914 8.64141C18.8889 8.61629 18.7777 8.68447 18.8243 8.73112ZM18.6449 9.26939C18.67 9.29451 18.7812 9.22633 18.7346 9.17968C18.7095 9.15456 18.5982 9.22274 18.6449 9.26939ZM18.6449 8.82083C18.6709 8.76611 18.8683 8.47545 18.6449 8.46199C18.6189 8.51671 18.4215 8.80738 18.6449 8.82083ZM17.2992 12.6784C17.3997 12.6694 17.4392 12.8085 17.4786 12.6784C17.4777 12.5878 17.3216 12.5654 17.2992 12.6784ZM15.8638 23.7129C15.9383 23.041 15.6243 22.7566 15.5947 22.1878C14.2984 22.2228 15.5956 23.3585 15.8638 23.7129ZM15.5947 12.5887C15.505 12.5887 15.4153 12.5887 15.3256 12.5887C15.3911 12.8336 15.1471 12.769 15.1462 12.9475C15.357 12.9753 15.1991 13.3728 15.505 13.3064C15.5687 13.092 15.5472 12.9762 15.5947 12.5887ZM15.2359 12.0504C15.505 12.0325 15.1497 11.6781 15.2359 12.0504C15.0654 12.089 15.0107 12.2433 14.7873 12.2298C14.7945 12.7753 14.3459 12.865 14.249 13.3064C14.7003 13.2795 14.799 12.8991 14.877 12.499C15.0304 12.3833 15.2296 12.3133 15.2359 12.0504ZM15.0564 11.9607C15.1058 11.9114 15.0591 11.7786 14.9667 11.871C14.9174 11.9203 14.964 12.0531 15.0564 11.9607ZM14.6079 23.6231C14.6097 23.3657 14.9219 22.4023 14.5182 22.3672C14.5029 22.4713 14.3764 22.4651 14.249 22.4569C14.2517 22.9629 14.3889 23.3334 14.6079 23.6231ZM14.3388 12.8578C14.4069 12.2379 14.6895 11.8324 14.877 11.3327C14.7057 11.2942 14.7146 11.0762 14.4285 11.1533C14.1746 11.2942 14.6312 11.6342 14.3388 11.7813C14.1235 11.8172 14.3881 11.3722 14.0696 11.5122C14.1333 11.9858 14.1916 12.4667 14.3388 12.8578ZM12.9931 13.3961C13.5906 13.3638 14.328 12.9978 13.9799 12.3196C14.0032 12.6694 13.7009 12.6057 13.6211 12.4093C13.5341 12.9197 12.9527 12.9368 12.8137 13.3961C12.8738 13.3961 12.933 13.3961 12.9931 13.3961C12.9411 13.554 13.1016 13.9236 12.9034 13.9344C12.6962 13.9622 12.8038 13.6751 12.6342 13.6652C12.4423 13.8482 12.6594 14.0204 12.724 14.2035C13.1142 14.2951 13.1366 14.0179 13.3519 13.9344C13.6193 13.903 13.8983 13.8823 13.9799 13.6652C13.6193 13.5208 13.3232 13.8967 13.2622 13.7549C13.2434 13.2759 13.6641 13.7567 13.8005 13.3961C13.5314 13.3961 13.2622 13.3961 12.9931 13.3961ZM13.8902 13.3961C13.9153 13.4212 14.0266 13.353 13.9799 13.3064C13.9548 13.2813 13.8436 13.3494 13.8902 13.3961ZM13.7108 22.0981C13.5762 22.1133 13.3797 22.0658 13.3519 22.1878C13.4865 22.1725 13.683 22.2201 13.7108 22.0981ZM13.5314 24.61C13.5753 24.2709 13.5637 23.2813 13.4416 22.8157C12.5212 22.6399 12.5176 24.8943 13.5314 24.61Z" fill="#F3F6F9"/>
<path d="M21.337 4.24565C21.4151 4.72381 21.1702 5.06561 20.5297 5.05305C20.2865 5.52762 20.361 6.31977 19.7223 6.39871C19.7554 5.85865 20.3475 5.45675 19.9017 4.96334C19.5007 5.04049 19.4334 5.45226 19.0046 5.5016C18.9597 5.25669 19.2576 5.0997 19.3634 4.96334C19.6918 4.5399 20.1251 4.08238 20.5297 3.61768C20.7575 3.73161 21.2823 3.91013 21.337 4.24565ZM20.9782 4.69421C20.9585 4.52465 21.0796 4.49595 21.0679 4.33536C20.8688 3.72981 20.134 4.07969 20.2605 4.78392C20.5189 4.77315 20.8481 4.83326 20.9782 4.69421Z" fill="#F3F6F9"/>
<path d="M20.7978 20.8423C21.0616 20.9679 21.2823 21.1357 21.2464 21.56C20.9181 21.6192 20.9019 21.3663 20.6184 21.3806C20.5476 21.0702 20.718 21.002 20.7978 20.8423Z" fill="white"/>
<path d="M21.068 4.33549C21.0797 4.49607 20.9586 4.52478 20.9783 4.69434C20.8482 4.83339 20.519 4.77328 20.2606 4.78405C20.1341 4.07981 20.8689 3.72994 21.068 4.33549Z" fill="white"/>
<path d="M20.1708 19.7656C20.5234 19.832 20.5978 20.1756 20.6194 20.573C20.4902 20.6234 20.4005 20.7131 20.3502 20.8422C19.8882 20.9157 19.7761 20.6385 19.4531 20.573C19.5267 20.1379 19.8389 19.9424 20.1708 19.7656Z" fill="white"/>
<path d="M19.9907 3.16912C19.7251 3.42839 19.3672 3.01931 19.0936 2.9897C18.8567 3.0525 18.9043 3.39789 18.645 3.43826C18.602 3.72085 18.9204 3.641 18.8244 3.97652C18.0135 3.79351 18.4127 4.8207 17.6582 4.69421C18.0305 3.95948 18.4503 3.27409 18.9141 2.63086C19.4524 2.63086 19.648 2.97355 19.9907 3.16912Z" fill="#F3F6F9"/>
<path d="M18.9141 9.71777C19.0047 9.71867 19.0271 9.87477 18.9141 9.8972C18.9141 9.83709 18.9141 9.77788 18.9141 9.71777Z" fill="white"/>
<path d="M18.9135 8.64162C18.9602 8.68828 18.8489 8.75646 18.8238 8.73134C18.7771 8.68469 18.8884 8.6165 18.9135 8.64162Z" fill="white"/>
<path d="M18.7338 9.17971C18.7805 9.22636 18.6692 9.29455 18.6441 9.26943C18.5975 9.22277 18.7087 9.15459 18.7338 9.17971Z" fill="white"/>
<path d="M18.6444 8.46191C18.8677 8.47537 18.6704 8.76603 18.6444 8.82076C18.421 8.8073 18.6184 8.51664 18.6444 8.46191Z" fill="white"/>
<path d="M17.7478 7.38525C17.8922 7.5889 17.8429 7.75665 18.0169 7.7441C17.9487 7.93787 17.7989 8.24558 17.5684 8.01323C17.7621 7.93697 17.5343 7.44177 17.7478 7.38525Z" fill="white"/>
<path d="M17.5684 19.2273C17.5899 19.0694 17.7227 19.0228 17.9272 19.0479C17.868 19.1681 17.7352 19.2147 17.5684 19.2273Z" fill="#F3F6F9"/>
<path d="M17.209 19.0478C17.2215 18.7914 17.5831 18.8837 17.837 18.8684C17.7311 19.0317 17.3696 18.9393 17.209 19.0478Z" fill="#F3F6F9"/>
<path d="M16.8509 3.61757C16.8042 4.11277 17.6 3.76559 17.4789 4.33525C17.0886 4.27694 16.8034 4.11367 16.4023 4.06612C16.6114 3.25783 16.8428 2.47285 17.2097 1.82335C17.3972 1.78567 17.4475 1.88525 17.5686 1.91306C17.3228 2.47465 17.051 3.01022 16.8509 3.61757Z" fill="#F3F6F9"/>
<path d="M17.4783 12.6782C17.4388 12.8082 17.3993 12.6692 17.2988 12.6782C17.3213 12.5651 17.4774 12.5876 17.4783 12.6782Z" fill="white"/>
<path d="M17.2985 7.56494C17.4581 7.63043 17.311 7.72822 17.2985 7.83407C17.1388 7.76859 17.2859 7.6708 17.2985 7.56494Z" fill="#F3F6F9"/>
<path d="M17.2106 17.3434C17.1926 17.6117 16.8382 17.2573 17.2106 17.3434V17.3434Z" fill="#F3F6F9"/>
<path d="M16.9407 14.0239C16.9495 14.1324 16.8106 14.0786 16.9407 14.0239V14.0239Z" fill="#F3F6F9"/>
<path d="M16.2227 15.9975C16.2621 15.8872 16.3375 15.8136 16.4918 15.8181C16.4522 15.9284 16.3769 16.002 16.2227 15.9975Z" fill="#F3F6F9"/>
<path d="M16.3125 9.26946C16.4211 9.26049 16.3681 9.39955 16.3125 9.26946V9.26946Z" fill="#F3F6F9"/>
<path d="M16.312 11.7813C16.3586 11.8279 16.2474 11.8961 16.2222 11.871C16.1756 11.8243 16.2868 11.7562 16.312 11.7813Z" fill="#F3F6F9"/>
<path d="M16.3131 9.26925C16.2045 9.27822 16.2575 9.13917 16.3131 9.26925V9.26925Z" fill="#F3F6F9"/>
<path d="M16.0434 5.9503C16.0344 5.84175 16.1734 5.89468 16.0434 5.9503V5.9503Z" fill="white"/>
<path d="M15.865 1.46476C15.8713 2.35559 16.1046 3.01945 16.0445 3.97666C15.3833 3.78737 16.1404 2.49105 15.1474 2.54129C14.601 2.5691 14.8764 3.32626 14.2502 3.4384C14.1641 3.07327 14.4978 2.70097 14.6988 2.36187C14.9123 2.00212 15.1222 1.66302 15.3268 1.37504C15.6012 1.31045 15.6533 1.46655 15.865 1.46476ZM15.5959 2.36187C15.6623 2.15194 15.6578 1.85679 15.5062 1.64418C15.4021 1.86935 15.1491 1.94471 15.1474 2.27215C15.3555 2.24345 15.4918 2.28651 15.5959 2.36187Z" fill="#F3F6F9"/>
<path d="M15.8637 21.1115C15.8547 21.0029 15.9937 21.0557 15.8637 21.1115V21.1115Z" fill="#F3F6F9"/>
<path d="M15.5958 22.188C15.6254 22.7568 15.9394 23.0412 15.8649 23.7131C15.5967 23.3587 14.2994 22.223 15.5958 22.188Z" fill="white"/>
<path d="M15.8649 21.111C15.8469 21.3793 15.4925 21.0249 15.8649 21.111V21.111Z" fill="#F3F6F9"/>
<path d="M15.7748 15.7285C15.8215 15.7753 15.7102 15.8434 15.6851 15.8183C15.6385 15.7716 15.7497 15.7034 15.7748 15.7285Z" fill="#F3F6F9"/>
<path d="M15.5053 1.64404C15.6569 1.85666 15.6614 2.15181 15.595 2.36173C15.491 2.28637 15.3546 2.24331 15.1465 2.27202C15.1482 1.94457 15.4013 1.86922 15.5053 1.64404Z" fill="white"/>
<path d="M15.3259 12.5889C15.4156 12.5889 15.5053 12.5889 15.595 12.5889C15.5475 12.9764 15.569 13.0921 15.5053 13.3066C15.1994 13.3729 15.3573 12.9755 15.1465 12.9477C15.1474 12.7692 15.3914 12.8338 15.3259 12.5889Z" fill="white"/>
<path d="M14.877 21.47C15.0322 21.356 15.112 21.1667 15.4152 21.2008C15.3336 21.3883 15.1506 21.4744 14.877 21.47Z" fill="#F3F6F9"/>
<path d="M15.2365 12.0504C15.1504 11.6781 15.5056 12.0324 15.2365 12.0504V12.0504Z" fill="white"/>
<path d="M15.2368 12.0503C15.2305 12.3131 15.0314 12.3831 14.878 12.4988C14.7999 12.899 14.7012 13.2793 14.25 13.3062C14.3469 12.8649 14.7954 12.7752 14.7883 12.2297C15.0116 12.2432 15.0663 12.0889 15.2368 12.0503Z" fill="white"/>
<path d="M14.9672 11.8708C15.0596 11.7784 15.1063 11.9111 15.057 11.9605C14.9645 12.0529 14.9179 11.9201 14.9672 11.8708Z" fill="white"/>
<path d="M15.0561 17.8819C15.1027 17.9286 14.9915 17.9967 14.9664 17.9716C14.9197 17.9249 15.031 17.8567 15.0561 17.8819Z" fill="#F3F6F9"/>
<path d="M15.326 9.26926C15.0901 9.14635 14.986 8.89157 14.698 8.8207C14.6666 8.82967 14.5868 9.64425 14.9672 9.53839C14.5383 10.0704 14.489 8.87543 13.8906 9.00012C14.0243 8.60001 14.2934 9.05216 14.5186 9.08984C14.489 8.88081 14.4262 8.70318 14.2495 8.64128C14.6396 8.46275 15.2345 8.85031 15.326 9.26926Z" fill="#F3F6F9"/>
<path d="M14.6973 10.1666C14.7852 9.89115 14.9368 10.2697 15.0561 10.2563C14.9681 10.5308 14.7538 10.2159 14.6973 10.1666Z" fill="#F3F6F9"/>
<path d="M14.6086 6.75747C14.5817 6.52064 14.7324 6.46322 14.9674 6.48834C14.8893 6.61932 14.8328 6.77272 14.6086 6.75747Z" fill="#F3F6F9"/>
<path d="M14.7875 17.7921C14.7786 17.6836 14.9177 17.7364 14.7875 17.7921V17.7921Z" fill="#F3F6F9"/>
<path d="M14.6973 17.8818C14.7026 17.8272 14.7107 17.7759 14.787 17.7921C14.7816 17.8468 14.7734 17.8979 14.6973 17.8818Z" fill="#F3F6F9"/>
<path d="M14.5185 18.1505C14.2951 18.1139 14.5131 17.8025 14.6979 17.8814C14.6764 18.0097 14.5498 18.033 14.5185 18.1505Z" fill="#F3F6F9"/>
<path d="M14.5191 22.3672C14.9228 22.4023 14.6106 23.3657 14.6088 23.6231C14.3899 23.3335 14.2527 22.963 14.25 22.4569C14.3774 22.465 14.5039 22.4713 14.5191 22.3672Z" fill="white"/>
<path d="M14.8777 11.3325C14.6902 11.8322 14.4076 12.2377 14.3394 12.8576C14.1923 12.4665 14.134 11.9856 14.0703 11.512C14.3888 11.372 14.1241 11.817 14.3394 11.7811C14.6319 11.634 14.1753 11.294 14.4291 11.1531C14.7153 11.076 14.7063 11.294 14.8777 11.3325Z" fill="white"/>
<path d="M13.9805 5.68108C14.089 5.67211 14.0361 5.81117 13.9805 5.68108V5.68108Z" fill="#F3F6F9"/>
<path d="M13.9807 12.3193C14.3288 12.9975 13.5914 13.3636 12.9939 13.3959C12.9338 13.3959 12.8746 13.3959 12.8145 13.3959C12.9535 12.9365 13.5348 12.9195 13.6219 12.409C13.7017 12.6055 14.004 12.6692 13.9807 12.3193Z" fill="white"/>
<path d="M13.8906 18.5996C13.9131 18.4865 14.0692 18.5089 14.0701 18.5996C13.9902 18.6543 13.9095 18.708 13.8906 18.5996Z" fill="#F3F6F9"/>
<path d="M13.9799 13.3062C14.0266 13.3528 13.9153 13.421 13.8902 13.3959C13.8436 13.3492 13.9548 13.2811 13.9799 13.3062Z" fill="white"/>
<path d="M13.9802 9.17969C13.9775 9.26671 13.8708 9.24966 13.8008 9.2694C13.8035 9.18238 13.9102 9.19942 13.9802 9.17969Z" fill="#F3F6F9"/>
<path d="M13.2621 13.7548C13.3231 13.8966 13.6192 13.5207 13.9798 13.6651C13.8982 13.8822 13.6192 13.9029 13.3518 13.9343C13.1365 14.0177 13.1141 14.2949 12.7239 14.2034C12.6593 14.0204 12.4422 13.8482 12.6342 13.6651C12.8037 13.675 12.6961 13.9621 12.9033 13.9343C13.1016 13.9235 12.941 13.5539 12.993 13.396C13.2621 13.396 13.5313 13.396 13.8004 13.396C13.664 13.7566 13.2433 13.2758 13.2621 13.7548Z" fill="white"/>
<path d="M13.8004 8.37207C13.8426 8.56315 13.6721 8.54252 13.5312 8.55149C13.5483 8.47883 13.621 8.46178 13.621 8.37207C13.6811 8.37207 13.7403 8.37207 13.8004 8.37207Z" fill="#F3F6F9"/>
<path d="M13.4414 19.048C13.5195 18.917 13.576 18.7636 13.8003 18.7789C13.7222 18.9098 13.6657 19.0632 13.4414 19.048Z" fill="#F3F6F9"/>
<path d="M13.9807 6.12939C13.9413 6.23974 13.8659 6.3133 13.7116 6.30882C13.6694 6.11773 13.8399 6.13747 13.9807 6.12939Z" fill="#F3F6F9"/>
<path d="M13.7108 5.14258C13.6327 5.48976 13.9296 5.46195 13.9799 5.68084C13.6139 5.62881 13.2254 5.59831 13.2622 5.14258C13.5385 5.20538 13.4344 5.20538 13.7108 5.14258Z" fill="#F3F6F9"/>
<path d="M13.3516 22.1879C13.3794 22.0659 13.5758 22.1134 13.7104 22.0981C13.6826 22.2202 13.4861 22.1726 13.3516 22.1879Z" fill="white"/>
<path d="M13.4425 22.8159C13.5645 23.2815 13.5762 24.2711 13.5322 24.6101C12.5185 24.8944 12.5221 22.6401 13.4425 22.8159Z" fill="white"/>
<path d="M13.5322 9.71806C13.5484 9.86518 13.2855 9.83378 13.2631 9.62834C13.2397 9.41662 13.5259 9.66064 13.5322 9.71806Z" fill="#F3F6F9"/>
<path d="M13.353 10.0767C13.3996 10.1233 13.2884 10.1915 13.2633 10.1664C13.2166 10.1197 13.3278 10.0516 13.353 10.0767Z" fill="#F3F6F9"/>
<path d="M13.353 10.6153C13.3996 10.6619 13.2884 10.7301 13.2633 10.705C13.2166 10.6583 13.3278 10.5901 13.353 10.6153Z" fill="#F3F6F9"/>
<path d="M13.1737 6.21941C13.1567 6.32078 13.084 6.26875 13.084 6.21941C13.101 6.11714 13.1737 6.16918 13.1737 6.21941Z" fill="#F3F6F9"/>
<path d="M13.0831 10.6148C12.814 10.5969 13.1692 10.2425 13.0831 10.6148V10.6148Z" fill="#F3F6F9"/>
<path d="M13.1722 5.8604C12.8295 6.1385 12.6519 5.4872 12.0957 5.68098C12.0679 5.46926 11.7844 5.51411 11.8265 5.23242C12.2742 5.25664 12.7335 5.58229 13.1722 5.8604Z" fill="#F3F6F9"/>
<path d="M12.904 4.51465C12.9013 4.60167 12.7946 4.58462 12.7246 4.60436C12.7273 4.51734 12.8341 4.53438 12.904 4.51465Z" fill="#F3F6F9"/>
<path d="M13.0824 2.45122C13.0034 2.76162 12.5872 2.73291 12.5441 3.07919C12.2248 3.07022 12.3387 2.62615 12.0059 2.63064C12.0256 2.26103 12.5334 2.38035 12.3647 1.82324C12.4544 1.82324 12.5441 1.82324 12.6338 1.82324C12.528 2.28794 12.9774 2.19734 13.0824 2.45122Z" fill="#F3F6F9"/>
<path d="M12.6342 14.8316C12.6809 14.8783 12.5696 14.9464 12.5445 14.9213C12.4979 14.8746 12.6091 14.8064 12.6342 14.8316Z" fill="#F3F6F9"/>
<path d="M12.5444 15.7285C12.591 15.7753 12.4798 15.8434 12.4547 15.8183C12.408 15.7716 12.5193 15.7034 12.5444 15.7285Z" fill="#F3F6F9"/>
<path d="M12.4556 19.3169C12.7435 19.5412 12.3865 19.4596 12.2761 19.586C12.1138 19.7717 11.8814 20.3064 11.4688 20.214C11.51 19.6272 12.2429 19.7322 12.4556 19.3169Z" fill="#F3F6F9"/>
<path d="M12.4545 16.2666C12.5012 16.3134 12.3899 16.3815 12.3648 16.3564C12.3182 16.3097 12.4294 16.2415 12.4545 16.2666Z" fill="#F3F6F9"/>
<path d="M12.3651 15.0109C12.3481 15.1123 12.2754 15.0612 12.2754 15.0109C12.2924 14.9087 12.3651 14.9607 12.3651 15.0109Z" fill="#F3F6F9"/>
<path d="M12.365 10.3457C12.3623 10.4327 12.2555 10.4157 12.1855 10.4354C12.1882 10.3484 12.295 10.3654 12.365 10.3457Z" fill="#F3F6F9"/>
<path d="M12.3661 5.94989C12.0566 6.13559 11.6646 5.6368 11.1102 5.77047C11.1371 5.53453 10.7621 5.69959 10.841 5.41162C11.0088 5.58745 11.1694 5.43943 11.3793 5.41162C11.5596 5.73996 12.0701 5.73817 12.3661 5.94989Z" fill="#F3F6F9"/>
<path d="M12.185 4.42483C12.2316 4.47148 12.1204 4.53966 12.0953 4.51454C12.0486 4.46789 12.1599 4.39971 12.185 4.42483Z" fill="#F3F6F9"/>
<path d="M11.557 15.4595C11.8791 15.5339 11.9912 15.2567 12.185 15.4595C11.906 15.5626 12.1222 15.8354 12.2747 15.9977C12.141 16.1027 12.1688 16.37 11.9158 16.3566C11.914 16.1189 11.9652 15.8282 11.7364 15.8183C11.4834 15.909 11.7615 16.1996 11.7364 16.3566C11.5669 16.3764 11.5382 16.2552 11.3776 16.2669C11.3578 16.4365 11.479 16.4651 11.4673 16.6257C11.0824 16.7145 10.8707 16.8383 10.4805 16.7154C10.4876 16.3934 11.0672 16.6437 11.1982 16.4463C11.0663 16.2347 11.0089 16.2795 11.1084 15.9977C11.5453 16.0426 11.679 15.7313 11.557 15.4595Z" fill="#F3F6F9"/>
<path d="M11.9164 14.3829C11.9075 14.2744 12.0465 14.3272 11.9164 14.3829V14.3829Z" fill="#F3F6F9"/>
<path d="M11.9168 12.9476C11.9697 13.223 11.6916 13.2266 11.5579 13.3065C11.4225 13.3872 11.3561 13.5944 11.1094 13.4859C11.1919 13.1199 11.3938 12.8723 11.9168 12.9476Z" fill="#F3F6F9"/>
<path d="M11.9173 4.42522C11.9326 4.61989 11.5988 4.46559 11.4688 4.51493C11.4777 4.28707 11.8034 4.30321 11.9173 4.42522Z" fill="#F3F6F9"/>
<path d="M11.9159 14.3828C11.9159 14.6223 11.9159 14.861 11.9159 15.1005C11.6791 15.0035 11.6791 14.4797 11.9159 14.3828Z" fill="#F3F6F9"/>
<path d="M11.7367 6.12953C11.8309 6.13402 11.8076 6.24436 11.647 6.21924C11.3806 6.13222 11.1608 6.29819 10.9293 6.30895C10.723 6.31882 10.5301 6.19951 10.391 6.21924C10.2628 6.23808 10.1856 6.36457 10.0322 6.39866C9.92006 6.42289 9.7819 6.36457 9.67335 6.39866C9.17007 6.55386 8.89556 6.78622 8.68653 7.02664C8.65782 7.05983 8.52505 7.09213 8.50711 7.11635C8.4497 7.1944 8.55197 7.38728 8.50711 7.4752C8.49545 7.49852 8.35101 7.45815 8.32769 7.4752C8.22542 7.54786 8.25143 7.83763 8.23798 7.92375C8.20478 8.13457 7.8585 8.52212 7.61 8.73115C7.61 8.94018 7.61 9.1501 7.61 9.35913C7.84953 9.35913 8.08816 9.35913 8.32769 9.35913C8.45328 9.56187 8.69102 9.65428 8.77624 9.89739C9.12881 10.0239 9.49124 10.1387 9.58364 10.5254C9.9389 10.4096 9.76665 10.8205 10.1219 10.7048C9.93441 10.9578 10.3677 11.1892 10.7499 11.1533C10.4404 11.4001 10.287 11.4431 9.85278 11.3328C9.62581 11.6746 9.09561 11.7122 8.86595 12.0505C8.54927 11.9347 9.28132 11.6154 8.68653 11.6916C8.92337 11.5391 9.19878 11.4261 9.58364 11.4225C9.70385 11.3633 9.7505 11.2305 9.76306 11.0636C9.52174 10.8447 9.26158 11.165 9.04538 10.8842C8.91709 10.9057 8.89376 11.0322 8.77624 11.0636C8.77624 11.2511 8.39497 11.4907 8.23798 11.7813C8.31603 11.9123 8.30885 12.1285 8.59682 12.0505C8.58336 12.2469 8.37075 12.2433 8.14827 12.2299C7.93386 11.5795 8.15993 10.8806 8.14827 10.1665C8.08188 9.85792 7.66383 10.642 7.69971 10.1665C7.39739 10.4626 7.21976 10.8824 6.71289 10.9739C6.88514 10.6375 7.28256 10.5263 7.43058 10.1665C7.31306 9.8651 7.26013 9.49908 7.07173 9.26942C7.1453 8.715 7.37047 8.3122 7.78942 8.10317C8.2012 7.04997 8.90543 6.28832 10.0322 5.95011C10.0044 5.73929 9.60697 5.89718 9.67335 5.59127C9.96133 5.83079 10.3875 5.58229 10.1219 5.23242C10.3031 5.37955 10.4799 5.53206 10.4808 5.8604C10.9652 5.88462 11.1105 6.24795 11.7367 6.12953ZM8.95567 10.6151C9.07139 10.6931 9.29208 11.0511 9.40422 10.7945C9.07139 10.6788 9.07139 10.2302 8.59682 10.2562C8.45328 10.5595 8.81392 10.5191 8.95567 10.6151ZM8.4174 10.6151C8.37613 10.895 8.60938 10.9022 8.86595 10.8842C8.82917 10.4985 8.55914 10.7649 8.4174 10.6151Z" fill="#F3F6F9"/>
<path d="M11.6483 16.8052C11.9282 17.0052 11.4716 17.2196 11.4689 17.4332C11.3971 17.3857 11.3236 17.3399 11.1998 17.3434C11.1038 17.008 11.4223 17.0878 11.3792 16.8052C11.4519 16.8671 11.625 16.9451 11.6483 16.8052Z" fill="#F3F6F9"/>
<path d="M11.6479 19.6758C11.6945 19.7225 11.5833 19.7906 11.5582 19.7655C11.5115 19.7189 11.6228 19.6507 11.6479 19.6758Z" fill="#F3F6F9"/>
<path d="M11.4682 15.0108C11.5148 15.0575 11.4036 15.1256 11.3785 15.1005C11.3318 15.0538 11.4431 14.9856 11.4682 15.0108Z" fill="#F3F6F9"/>
<path d="M11.4685 10.3457C11.4685 10.4058 11.4685 10.465 11.4685 10.5251C11.4084 10.5251 11.3492 10.5251 11.2891 10.5251C11.2891 10.465 11.2891 10.4058 11.2891 10.3457C11.3492 10.3457 11.4084 10.3457 11.4685 10.3457Z" fill="#F3F6F9"/>
<path d="M11.1088 15.6387C11.1555 15.6854 11.0442 15.7535 11.0191 15.7284C10.9725 15.6818 11.0837 15.6136 11.1088 15.6387Z" fill="#F3F6F9"/>
<path d="M10.6602 4.78362C10.6996 4.67328 10.775 4.59971 10.9293 4.6042C10.8898 4.71454 10.8145 4.7881 10.6602 4.78362Z" fill="#F3F6F9"/>
<path d="M10.929 17.8815C10.7792 17.8815 10.6302 17.8815 10.4804 17.8815C10.4768 18.0053 10.5226 18.078 10.5701 18.1506C10.1826 17.9246 9.89641 18.1542 9.49361 17.9712C9.24242 18.0869 9.7762 18.1569 9.67303 18.4198C10.135 18.296 9.98433 18.5786 10.4804 18.4198C10.4715 18.6503 10.1306 18.5481 10.1216 18.7786C10.1377 19.0621 10.1844 19.3133 10.4804 19.3169C10.4795 19.6435 10.5908 19.8838 10.6599 20.0346C10.711 20.1449 10.7442 20.4958 10.929 20.3934C10.6069 20.6401 10.4131 21.0133 9.94217 21.1111C9.9323 21.0016 9.91525 20.8985 9.76274 20.9317C9.83451 20.7048 10.1324 20.7029 10.301 20.5728C10.4105 20.1727 10.2687 19.7834 9.85246 19.6757C9.88385 19.5538 9.97626 19.5054 9.94217 19.3169C9.91256 19.1545 9.70712 19.2182 9.67303 19.1375C9.64522 19.0712 9.78876 18.9975 9.76274 18.958C9.59588 18.7095 9.27292 18.4162 8.86564 18.4198C8.83872 18.0905 8.4422 18.1077 8.23766 17.9712C8.04029 17.8402 7.91201 17.6034 7.69939 17.5227C7.34055 17.5523 7.2015 17.3631 6.80228 17.4329C6.47932 17.0687 5.95721 17.0355 5.72575 16.7153C5.68538 16.6596 5.75177 16.5116 5.72575 16.4461C5.70063 16.3824 5.56696 16.3735 5.54633 16.2667C5.52031 16.1312 5.71678 15.9473 5.72575 15.7284C5.73293 15.5617 5.61541 15.5257 5.63604 15.3696C5.63694 15.3624 5.80739 15.2997 5.81546 15.2799C5.88005 15.1292 5.6809 15.0673 5.72575 14.921C5.85673 14.843 6.01014 14.7865 5.99488 14.5622C6.07204 14.2761 5.85404 14.285 5.81546 14.1136C5.74728 13.6265 5.92581 13.387 5.90517 12.9474C5.7114 12.8119 5.57773 12.6173 5.45662 12.4091C5.4306 11.8493 5.73921 11.7273 5.99488 11.512C6.2084 11.3326 6.38064 11.1003 6.62286 11.0635C6.38513 11.4833 5.86839 11.6251 5.81546 12.2297C6.10702 12.5957 6.83368 12.5276 7.34055 12.6783C7.52715 12.6549 7.36477 12.2844 7.51997 12.2297C7.67427 12.1947 7.74963 12.3625 7.7891 12.2297C7.97032 12.3033 7.73259 12.7025 7.69939 12.8577C7.82499 13.3009 7.78641 13.9064 7.7891 14.4725C7.57559 14.1477 7.52446 13.6606 7.43026 13.2165C7.35939 12.9833 7.14229 13.1295 6.9817 13.0371C6.92967 13.0075 6.96197 12.8057 6.89199 12.768C6.79959 12.7177 6.63183 12.8066 6.53315 12.768C6.59236 12.8882 6.72513 12.9348 6.89199 12.9474C6.60043 13.117 6.37974 12.8918 6.17431 13.2165C6.59236 13.2964 6.15726 13.6705 6.53315 13.7548C6.52866 13.9091 6.60223 13.9845 6.71257 14.0239C6.77627 14.2277 6.47753 14.2805 6.53315 14.4725C6.53494 14.4797 6.70719 14.6331 6.71257 14.5622C6.7027 14.6978 6.5789 14.581 6.53315 14.6519C6.2371 15.1086 6.97812 15.2754 6.80228 15.7284C6.73231 15.7087 6.69822 15.6531 6.71257 15.549C6.5161 15.6531 6.36988 16.0765 6.0846 15.8182C5.9886 16.0451 6.30708 16.3636 6.26402 15.9976C6.49009 16.3779 7.53343 16.674 7.69939 16.0873C7.89586 16.1007 7.89227 16.3134 7.87881 16.5358C8.03491 16.5287 8.15782 16.5557 8.23766 16.6256C8.42426 16.6022 8.26188 16.2317 8.41708 16.177C8.76606 16.4605 8.91587 15.9455 9.04506 15.7284C9.30701 16.0847 8.76785 16.4049 8.68621 16.7153C8.75798 16.8957 9.05582 16.5547 9.22448 16.5358C9.23345 16.3951 9.21282 16.2245 9.4039 16.2667C9.30073 16.4929 9.25857 16.779 9.04506 16.8947C9.08094 17.0679 9.45593 16.9028 9.31419 17.2535C9.99779 17.3684 10.1315 16.9342 10.4804 16.7153C10.5002 16.7852 10.5558 16.8193 10.6599 16.805C10.6957 17.1693 10.2777 17.0813 10.2113 17.3432C10.1001 17.633 10.502 17.4115 10.3907 17.7021C10.6742 17.7102 10.9254 17.4626 10.929 17.8815ZM9.58332 17.6124C9.60844 17.6375 9.71968 17.5694 9.67303 17.5227C9.64791 17.4975 9.53667 17.5657 9.58332 17.6124ZM9.04506 17.1638C8.86833 17.2912 9.29625 17.8761 9.49361 17.6124C9.32854 17.4778 9.27023 17.2383 9.04506 17.1638Z" fill="#F3F6F9"/>
<path d="M10.2129 16.1769C10.2389 15.8835 10.8902 15.9545 10.8409 16.2666C10.7251 16.1428 10.4515 16.1778 10.2129 16.1769Z" fill="#F3F6F9"/>
<path d="M10.9298 5.23227C10.7181 5.52114 10.5674 4.91649 10.9298 5.23227V5.23227Z" fill="#F3F6F9"/>
<path d="M10.7508 13.665C11.1392 13.7027 10.6566 14.1854 10.7508 13.665V13.665Z" fill="#F3F6F9"/>
<path d="M10.5703 21.0216C10.6206 20.835 10.7103 20.8314 10.8395 20.9319C10.8242 21.036 10.6977 21.0297 10.5703 21.0216Z" fill="#F3F6F9"/>
<path d="M10.3919 9.98692C10.3462 10.4211 10.8028 10.3529 10.661 10.884C10.2744 10.762 10.1757 10.3529 9.94336 10.0766C9.38177 9.97974 8.9081 9.79583 8.95654 9.08981C9.08393 9.09788 9.21042 9.10416 9.22567 9.0001C9.30193 8.98395 9.31 9.03508 9.31538 9.08981C9.2167 9.36432 9.47058 9.24501 9.58451 9.35894C9.61502 9.38944 9.55581 9.50517 9.58451 9.53836C9.69037 9.65947 9.95861 9.60206 9.85365 9.89721C10.0654 9.89541 10.1174 10.0515 10.3919 9.98692Z" fill="#F3F6F9"/>
<path d="M10.5703 18.1508C10.6789 18.1418 10.625 18.2809 10.5703 18.1508V18.1508Z" fill="#F3F6F9"/>
<path d="M10.5719 21.0215C10.588 21.2171 10.4983 21.3068 10.3027 21.2906C10.353 21.1614 10.4427 21.0717 10.5719 21.0215Z" fill="#F3F6F9"/>
<path d="M10.1226 1.5542C10.2383 2.31495 10.642 3.23448 10.4815 3.97639C10.0284 3.50272 10.0751 2.52936 9.85348 1.82333C9.74583 1.70581 9.81849 1.68249 9.85348 1.5542C9.94319 1.5542 10.0329 1.5542 10.1226 1.5542Z" fill="#F3F6F9"/>
<path d="M10.0327 20.4834C10.0793 20.5302 9.96806 20.5982 9.94294 20.5731C9.89629 20.5265 10.0075 20.4583 10.0327 20.4834Z" fill="#F3F6F9"/>
<path d="M10.0329 16.5361C10.0302 16.6232 9.92349 16.6061 9.85352 16.6258C9.85621 16.5388 9.96296 16.5559 10.0329 16.5361Z" fill="#F3F6F9"/>
<path d="M9.9431 13.3062C9.94041 13.3932 9.83365 13.3761 9.76367 13.3959C9.76636 13.3088 9.87312 13.3259 9.9431 13.3062Z" fill="#F3F6F9"/>
<path d="M9.76367 4.87347C9.7861 4.76043 9.94221 4.78286 9.9431 4.87347C9.86326 4.9282 9.78251 4.98203 9.76367 4.87347Z" fill="#F3F6F9"/>
<path d="M9.85296 5.41164C9.89961 5.45829 9.78837 5.52647 9.76325 5.50135C9.71661 5.45471 9.82784 5.38653 9.85296 5.41164Z" fill="#F3F6F9"/>
<path d="M9.67328 17.523C9.71992 17.5697 9.60868 17.6378 9.58357 17.6127C9.53692 17.566 9.64816 17.4979 9.67328 17.523Z" fill="white"/>
<path d="M9.49414 21.0215C9.51926 20.6681 9.88976 21.0386 9.49414 21.0215V21.0215Z" fill="#F3F6F9"/>
<path d="M9.58409 21.6496C9.72314 22.0283 9.08619 21.6299 9.22524 22.0085C8.80809 22.0696 8.6179 22.3576 8.23842 22.457C8.10296 22.8598 8.34518 23.6403 7.87958 23.713C7.91995 23.3721 7.64723 23.0743 7.87958 22.8159C7.51177 22.8231 7.10538 23.4878 6.80305 22.9953C7.25699 22.9111 7.44538 22.5611 7.87958 22.457C7.87958 22.1879 7.87958 21.9188 7.87958 21.6496C7.02105 21.551 6.64426 22.3709 6.80305 22.9953C6.33835 22.9863 6.45677 22.5334 6.53392 22.1879C6.28721 21.9179 5.91133 22.2776 5.63681 22.2776C5.33987 22.2462 5.24747 22.0085 5.09855 21.8291C5.16314 21.6246 5.17839 21.3707 5.27797 21.2011C4.99628 20.8521 4.61052 21.4801 4.38086 21.2011C4.37996 20.7516 5.0806 21.0038 5.27797 20.7525C5.40625 20.7311 5.42958 20.6046 5.5471 20.5731C5.70409 20.1622 5.73729 19.6267 6.17508 19.4966C6.20558 19.9165 5.9813 20.0807 5.90594 20.3937C6.2002 20.653 6.56532 20.2197 6.98247 20.304C7.01925 20.4171 7.0982 20.487 7.25161 20.4834C7.28928 20.9095 7.12152 21.1302 7.07218 21.4702C7.58084 21.5303 7.67773 21.1787 8.059 21.1114C8.4313 21.3168 8.03299 21.8425 8.23842 22.0982C8.64751 21.9089 9.00904 21.673 9.58409 21.6496ZM6.71334 21.5599C6.63619 21.124 6.96991 21.0988 6.89276 20.6628C6.46125 20.7096 6.12663 20.8539 5.72652 20.932C5.64489 21.2684 5.52378 21.5662 5.45739 21.9188C6.01091 21.9339 6.33566 21.7205 6.71334 21.5599Z" fill="#F3F6F9"/>
<path d="M9.49375 21.0217C9.47581 21.2899 9.12144 20.9356 9.49375 21.0217V21.0217Z" fill="#F3F6F9"/>
<path d="M9.31601 1.73389C9.51696 2.40044 9.35189 3.43211 9.40572 4.24579C8.76339 4.02062 8.33098 3.34151 7.88063 2.81042C7.77656 2.68841 7.41682 2.57448 7.6115 2.36186C8.04659 2.29996 8.17937 2.6615 8.4189 2.90013C8.62882 3.10915 8.76877 3.38546 9.04687 3.5281C9.37163 3.00419 8.85669 2.12951 9.04687 1.73389C9.13658 1.73389 9.22629 1.73389 9.31601 1.73389Z" fill="#F3F6F9"/>
<path d="M9.49431 17.6126C9.29694 17.8764 8.86902 17.2915 9.04575 17.1641C9.27093 17.2385 9.32924 17.4781 9.49431 17.6126Z" fill="white"/>
<path d="M9.40498 10.7942C9.29284 11.0508 9.07216 10.6929 8.95643 10.6148C8.81469 10.5188 8.45406 10.5592 8.59759 10.256C9.07216 10.23 9.07216 10.6785 9.40498 10.7942Z" fill="white"/>
<path d="M8.86738 10.8844C8.61081 10.9023 8.37756 10.8951 8.41883 10.6152C8.56057 10.7651 8.83059 10.4986 8.86738 10.8844Z" fill="white"/>
<path d="M8.95536 21.2007C8.91588 21.311 8.84052 21.3847 8.68622 21.3801C8.64405 21.189 8.81451 21.2097 8.95536 21.2007Z" fill="#F3F6F9"/>
<path d="M8.59808 12.0504C8.5891 11.9418 8.72816 11.9948 8.59808 12.0504V12.0504Z" fill="#F3F6F9"/>
<path d="M8.14844 14.9214C8.36733 14.9717 8.60955 14.9985 8.59699 15.2802C8.30992 15.2982 8.20944 15.1295 8.14844 14.9214Z" fill="#F3F6F9"/>
<path d="M8.50726 21.0215C8.55391 21.0682 8.44267 21.1363 8.41755 21.1112C8.3709 21.0646 8.48214 20.9964 8.50726 21.0215Z" fill="#F3F6F9"/>
<path d="M8.41847 4.24565C8.66428 4.69421 8.08924 4.94001 7.88021 4.96334C6.93286 5.0701 5.554 3.04532 7.25223 2.63086C7.04051 3.04353 6.69782 3.24269 6.80368 3.7971C6.87903 4.19452 7.27197 4.34613 7.61108 4.51479C8.039 4.58386 8.00939 4.19542 8.41847 4.24565Z" fill="#F3F6F9"/>
<path d="M7.8796 21.6492C7.8796 21.9184 7.8796 22.1875 7.8796 22.4566C7.4454 22.5607 7.257 22.9107 6.80306 22.9949C6.64428 22.3705 7.02106 21.5506 7.8796 21.6492Z" fill="white"/>
<path d="M7.34125 16.1773C7.3879 16.224 7.27666 16.2921 7.25154 16.267C7.20488 16.2203 7.31613 16.1522 7.34125 16.1773Z" fill="#F3F6F9"/>
<path d="M7.16253 14.5622C7.15356 14.4536 7.2926 14.5064 7.16253 14.5622V14.5622Z" fill="#F3F6F9"/>
<path d="M6.98296 13.8447C7.14086 13.8663 7.18751 13.999 7.16239 14.2036C7.00449 14.182 6.95784 14.0493 6.98296 13.8447Z" fill="#F3F6F9"/>
<path d="M7.16209 14.5625C7.16926 14.7186 7.14235 14.8415 7.07238 14.9213C6.96743 14.9061 6.9746 14.7796 6.98268 14.6522C7.07238 14.6522 7.08943 14.5795 7.16209 14.5625Z" fill="#F3F6F9"/>
<path d="M6.44421 5.2326C6.6326 5.37166 7.11076 5.38332 7.07219 5.77087C6.64427 5.77984 6.58147 5.42459 6.17508 5.41203C5.8889 5.70448 6.31503 6.04449 6.26479 6.39885C6.14368 6.42666 6.09344 6.52624 5.90595 6.48856C5.91581 6.00053 5.76958 5.6686 5.63681 5.32232C5.30668 5.02448 4.78904 4.91413 4.38086 4.69434C4.58181 4.15159 5.07432 4.72484 5.45739 4.78405C5.7337 4.47903 5.18108 4.01254 5.45739 3.70752C5.81265 4.00446 5.68884 4.36061 5.90595 4.69434C6.04589 4.90965 6.24236 5.08458 6.44421 5.2326Z" fill="#F3F6F9"/>
<path d="M6.8938 14.3828C6.99876 14.3981 6.99158 14.5246 6.98351 14.6519C6.79692 14.6017 6.79334 14.512 6.8938 14.3828Z" fill="#F3F6F9"/>
<path d="M6.8921 15.1005C6.91273 14.9588 6.99528 15.096 6.98182 15.1903C6.96118 15.332 6.87864 15.1947 6.8921 15.1005Z" fill="#F3F6F9"/>
<path d="M6.8924 20.6626C6.96956 21.0986 6.63583 21.1238 6.71298 21.5597C6.3353 21.7203 6.01055 21.9338 5.45703 21.9185C5.52342 21.566 5.64453 21.2681 5.72616 20.9317C6.12627 20.8536 6.4609 20.7092 6.8924 20.6626Z" fill="white"/>
<path d="M6.62305 13.6654C6.65983 13.5524 6.73878 13.4824 6.89219 13.486C6.85541 13.599 6.77646 13.669 6.62305 13.6654Z" fill="#F3F6F9"/>
<path d="M6.80413 16.1773C6.85078 16.224 6.73954 16.2921 6.71443 16.267C6.66778 16.2203 6.77902 16.1522 6.80413 16.1773Z" fill="#F3F6F9"/>
<path d="M6.62305 11.0634C6.62843 11.0087 6.6365 10.9576 6.71276 10.9737C6.70737 11.0285 6.6993 11.0796 6.62305 11.0634Z" fill="#F3F6F9"/>
<path d="M6.5332 13.7548C6.53859 13.7001 6.54666 13.649 6.6229 13.6651C6.61752 13.7199 6.60945 13.771 6.5332 13.7548Z" fill="#F3F6F9"/>
<path d="M5.90649 6.48828C5.90649 6.57799 5.90649 6.6677 5.90649 6.75741C5.14753 7.36745 3.99206 6.68385 3.57401 6.12944C3.62693 5.94374 3.46276 5.54004 3.66372 5.50146C3.67 5.26014 3.86915 5.06995 4.02256 5.23233C4.2271 5.44674 3.82609 5.56246 3.93285 5.95002C3.98039 6.28195 4.56531 6.63182 4.82996 6.6677C5.22199 6.72063 5.5288 6.52506 5.90649 6.48828Z" fill="#F3F6F9"/>
<path d="M5.45683 19.0476C5.56089 19.0334 5.61651 19.0675 5.63625 19.1373C5.5896 19.3509 5.44337 19.5357 5.27741 19.6756C5.12849 19.8021 4.8755 19.8461 4.73914 19.9447C4.4431 20.1592 4.16948 20.536 3.75232 20.5727C3.67786 20.2883 3.87971 20.2542 4.02145 20.1242C4.07438 20.0757 4.15064 19.9834 4.20088 19.9447C4.27085 19.8909 4.39106 19.9133 4.47001 19.855C4.59202 19.7644 4.69518 19.5841 4.82885 19.4962C5.07466 19.3347 5.33034 19.3643 5.45683 19.0476Z" fill="#F3F6F9"/>
<path d="M4.91938 18.5098C5.03869 18.5098 5.15891 18.5098 5.27822 18.5098C5.16698 18.9261 4.65025 19.1001 4.2914 19.3172C3.94512 19.5272 3.54321 19.9542 3.12516 19.7657C3.11709 19.5245 3.41493 19.5002 3.57372 19.4069C3.97293 19.1727 4.52196 18.856 4.91938 18.5098Z" fill="#F3F6F9"/>
<path d="M5.09867 7.38545C5.1507 7.79633 4.79904 7.8035 4.65012 8.01343C3.51976 8.17042 2.11668 7.13426 3.03532 6.30892C3.18065 6.2838 3.18962 6.39324 3.30445 6.39863C3.34661 6.68032 3.06313 6.63546 3.03532 6.84718C3.21564 7.41505 3.78979 7.5873 4.38098 7.74429C4.73714 7.7416 4.69318 7.3388 5.09867 7.38545Z" fill="#F3F6F9"/>
<path d="M3.84202 18.1505C4.07976 18.0439 4.50588 17.7693 4.82884 17.8814C4.60726 18.2224 4.19997 18.4035 3.84202 18.5991C3.50561 18.7831 3.1351 19.0307 2.67578 19.0476C2.81394 18.6413 3.38001 18.5417 3.75231 18.3299C3.78999 18.3084 3.81062 18.1649 3.84202 18.1505Z" fill="#F3F6F9"/>
<path d="M4.47051 8.37207C4.5351 8.64659 4.379 8.69862 4.3808 8.91034C4.22021 8.83049 4.17536 9.05656 4.02195 9.08976C3.38859 9.22612 2.24299 8.65915 2.13802 8.28236C2.06536 8.0222 2.09945 7.6508 2.31745 7.38525C2.40716 7.38525 2.49687 7.38525 2.58658 7.38525C2.84584 7.65528 2.37217 7.69834 2.49687 8.10294C2.6404 8.58738 3.21186 8.64389 3.66311 8.82062C4.13768 8.87624 3.99055 8.31107 4.47051 8.37207Z" fill="#F3F6F9"/>
<path d="M3.93317 15.908C4.25254 16.6975 1.66797 17.5515 1.51097 16.5359C1.41498 15.9107 3.53395 15.044 3.93317 15.908ZM3.57432 16.1771C3.57343 15.7546 3.08271 15.7904 2.76693 15.8183C2.5265 15.8389 1.72718 16.274 1.86982 16.5359C2.23315 17.0652 3.2092 16.474 3.57432 16.1771Z" fill="#F3F6F9"/>
<path d="M3.84342 9.71807C3.8192 10.0222 3.9125 10.4456 3.75371 10.6152C2.85571 10.5264 2.24298 10.1523 1.33152 10.0769C1.26962 9.71627 1.41764 9.56466 1.42123 9.26952C1.69395 9.213 1.78725 9.03089 2.04921 9.00039C2.66283 8.92772 3.43345 9.4615 3.84342 9.71807ZM3.48458 10.1666C3.50252 9.38883 2.44393 9.25068 1.78007 9.44894C1.75226 9.57005 1.65268 9.62028 1.69036 9.80778C2.31654 9.89928 2.79201 10.1415 3.48458 10.1666Z" fill="#F3F6F9"/>
<path d="M3.39433 14.1136C3.56657 14.3298 3.65898 14.6258 3.66346 15.0107C2.86414 15.2278 2.03072 15.4118 1.24127 15.6387C0.668015 14.9148 1.5104 14.0974 2.3178 14.4724C2.46941 14.145 2.86503 14.0624 3.39433 14.1136ZM2.58693 14.921C2.93501 14.9102 3.41317 15.0295 3.30462 14.5621C3.11981 14.2437 2.44519 14.389 2.58693 14.921ZM2.22809 14.8313C2.02265 14.4357 1.21615 14.7003 1.33098 15.1901C1.60101 15.3489 2.1931 15.1928 2.22809 14.8313Z" fill="#F3F6F9"/>
<path d="M1.77976 9.44878C2.44362 9.25052 3.50221 9.38867 3.48426 10.1665C2.7917 10.1413 2.31623 9.89913 1.69005 9.80762C1.65237 9.62013 1.75195 9.56989 1.77976 9.44878Z" fill="white"/>
<path d="M3.30546 14.5623C3.41401 15.0297 2.93585 14.9104 2.58778 14.9211C2.44603 14.3892 3.12066 14.2438 3.30546 14.5623Z" fill="white"/>
<path d="M3.57414 12.5889C3.42163 12.9684 3.00178 12.693 2.67703 12.6786C2.0661 12.6508 1.27844 12.6535 0.882812 12.4095C1.24255 12.082 1.9091 12.0605 2.31819 11.7815C2.07507 11.3967 1.43184 11.4119 1.06223 11.1535C1.06223 11.0638 1.06223 10.9741 1.06223 10.8844C1.82298 10.6467 2.76136 10.9678 3.57414 10.9741C3.51672 11.603 2.57924 10.9553 2.31819 11.2433C2.49671 11.5429 3.01883 11.4989 3.21529 11.7815C3.20363 12.0722 2.80442 11.9905 2.58732 12.0506C2.36842 12.1117 2.15671 12.2023 1.95934 12.2301C2.2841 12.5638 3.16685 12.3386 3.57414 12.5889Z" fill="#F3F6F9"/>
<path d="M3.30429 17.4331C3.30429 17.5228 3.30429 17.6125 3.30429 17.7022C3.21458 17.7022 3.12487 17.7022 3.03516 17.7022C3.03516 17.6125 3.03516 17.5228 3.03516 17.4331C3.12487 17.4331 3.21458 17.4331 3.30429 17.4331Z" fill="#F3F6F9"/>
<path d="M2.76559 15.8184C3.08137 15.7905 3.57209 15.7547 3.57299 16.1772C3.20786 16.4742 2.23181 17.0653 1.86848 16.536C1.72584 16.2741 2.52516 15.839 2.76559 15.8184Z" fill="white"/>
<path d="M1.33145 15.1901C1.21662 14.7003 2.02312 14.4357 2.22855 14.8313C2.19357 15.1928 1.60148 15.3489 1.33145 15.1901Z" fill="white"/>
</g>
<defs>
<clipPath id="clip0_6194_138820">
<rect width="25" height="24.2694" fill="white" transform="translate(0.666016 0.903809)"/>
</clipPath>
</defs>
</svg>
