<svg width="26" height="35" viewBox="0 0 26 35" fill="none" xmlns="http://www.w3.org/2000/svg">
<g clip-path="url(#clip0_6194_138975)">
<path d="M25.666 5.40021C25.666 1.80309 22.2487 0.903809 19.5509 0.903809V1.44338C21.1696 1.44338 22.4286 1.98295 22.4286 3.24194C22.4163 3.50591 22.3493 3.76444 22.2317 4.00108C22.1141 4.23772 21.9485 4.44729 21.7455 4.61646C21.5425 4.78563 21.3065 4.9107 21.0525 4.9837C20.7986 5.0567 20.5322 5.07605 20.2703 5.0405C18.2374 4.82329 16.2418 4.33952 14.3351 3.60165C12.3116 2.83919 10.1939 2.35515 8.04012 2.1628C7.25884 2.13166 6.47919 2.25659 5.74676 2.5303C5.01433 2.804 4.34383 3.22099 3.77445 3.75688C3.20507 4.29277 2.74825 4.93679 2.43069 5.6513C2.11314 6.36581 1.94123 7.13647 1.92501 7.9182C1.91347 8.77506 2.16628 9.61466 2.64903 10.3227C3.13177 11.0307 3.82099 11.5728 4.62285 11.875L4.80271 11.5153C4.46577 11.355 4.18364 11.0989 3.99167 10.7789C3.7997 10.459 3.70644 10.0895 3.72357 9.71676C3.79826 9.1219 4.10457 8.5805 4.57599 8.2101C5.04742 7.83969 5.64591 7.67018 6.24155 7.73834C8.52031 7.98863 10.7571 8.53271 12.8962 9.35705C15.0798 9.98487 17.303 10.4656 19.5509 10.7959V16.3714L16.8531 18.7096V18.8894L19.5509 21.2276V28.9614C18.1845 29.7395 16.6252 30.1137 15.0545 30.0405C13.7453 30.1093 12.4371 29.8869 11.2242 29.3893C10.0112 28.8917 8.92378 28.1313 8.04012 27.1628L15.4142 23.5657V10.9758L6.42141 14.9326C7.42792 12.7684 9.05577 10.9527 11.0977 9.71676L10.9178 9.35705C8.09826 10.0416 5.57599 11.6203 3.7281 13.8572C1.88022 16.0941 0.805989 18.869 0.666016 21.7671C0.675261 25.1033 2.00467 28.3003 4.36373 30.6593C6.7228 33.0184 9.91973 34.3478 13.2559 34.3571C14.8059 34.3796 16.3449 34.094 17.7835 33.5167C19.2221 32.9394 20.5317 32.082 21.6361 30.9943C22.7406 29.9066 23.6179 28.6103 24.217 27.1806C24.8162 25.751 25.1253 24.2165 25.1264 22.6664H24.7667C23.82 24.9626 22.1867 26.91 20.0905 28.2419V20.8678L22.9682 18.5297V18.3499L20.2703 16.0117V10.616C20.973 10.6511 21.6753 10.5416 22.3339 10.2942C22.9924 10.0469 23.5932 9.66694 24.099 9.17799C24.6048 8.68905 25.0049 8.10148 25.2744 7.45166C25.544 6.80185 25.6772 6.10362 25.666 5.40021ZM10.0185 25.1844L7.86026 26.2635C6.43825 24.2788 5.73993 21.8664 5.88184 19.429C5.87172 18.1501 6.0536 16.8769 6.42141 15.652L10.1984 14.0333L10.0185 25.1844Z" fill="white"/>
</g>
<defs>
<clipPath id="clip0_6194_138975">
<rect width="25" height="33.4532" fill="white" transform="translate(0.666016 0.903809)"/>
</clipPath>
</defs>
</svg>
