<svg width="23" height="12" viewBox="0 0 23 12" fill="none" xmlns="http://www.w3.org/2000/svg">
<path d="M6.02461 7.41803C7.23337 6.97565 8.09326 5.85963 8.09326 4.55596C8.09326 2.86561 6.64761 1.49072 4.87025 1.49072C3.09288 1.49072 1.64258 2.86561 1.64258 4.55596C1.64258 6.24632 3.09288 7.6212 4.87025 7.6212C4.93823 7.6212 5.00572 7.61919 5.07267 7.61523C5.0462 7.43063 5.05499 7.13041 5.07854 7.01099C5.00985 7.01616 4.94039 7.01878 4.87025 7.01878C3.43675 7.01878 2.28066 5.91929 2.28066 4.55596C2.28066 3.19263 3.43675 2.09314 4.87025 2.09314V2.09314C6.30374 2.09314 7.45518 3.19264 7.45518 4.55596C7.45518 5.49241 6.91192 6.30438 6.10715 6.72105C6.06795 6.88323 6.01865 7.23106 6.02461 7.41803V7.41803Z" fill="white"/>
<path d="M11.0145 7.64815C10.8468 8.8551 9.76844 9.78197 8.45228 9.78197C7.01878 9.78197 5.86269 8.68248 5.86269 7.31915C5.86269 6.38489 6.4056 5.57452 7.20865 5.15699C7.26491 4.94702 7.29904 4.71995 7.2902 4.45968C6.08389 4.90382 5.22461 6.01803 5.22461 7.31915C5.22461 9.00951 6.67492 10.3844 8.45228 10.3844C10.0723 10.3844 11.4167 9.2422 11.6421 7.76C11.4769 7.75589 11.1301 7.68866 11.0145 7.64815V7.64815ZM11.6347 6.83241C11.3888 5.37259 10.0555 4.25391 8.45228 4.25391C8.38182 4.25391 8.31187 4.25607 8.2425 4.26032C8.28128 4.40255 8.28073 4.72937 8.24044 4.86438V4.86439C8.31029 4.85904 8.38094 4.85632 8.45228 4.85632C9.63948 4.85632 10.6332 5.61045 10.9396 6.64402C11.149 6.71982 11.3737 6.78666 11.6347 6.83241H11.6347Z" fill="white"/>
<path d="M15.9392 5.02583C16.1386 6.24292 17.1041 7.27791 18.4439 7.55318C20.1812 7.91008 21.8995 6.8565 22.2748 5.20425C22.6501 3.552 21.5432 1.91348 19.806 1.55657C18.0687 1.19967 16.3494 2.25758 15.9741 3.90983C15.9597 3.97303 15.9476 4.0362 15.9375 4.09927C16.1328 4.11364 16.4395 4.1852 16.5573 4.23231C16.5665 4.16736 16.5784 4.10223 16.5932 4.03703C16.8959 2.70444 18.27 1.86188 19.6712 2.14974C21.0724 2.4376 21.9583 3.74446 21.6557 5.07705L21.6557 5.07705C21.353 6.40964 19.9798 7.24787 18.5787 6.96001C17.6162 6.76228 16.8964 6.08583 16.6381 5.24973C16.4797 5.17905 16.1326 5.05977 15.9392 5.02583V5.02583Z" fill="white"/>
<path d="M9.43221 4.22549C9.59992 3.01855 10.6783 2.09167 11.9945 2.09167C13.428 2.09167 14.5841 3.19117 14.5841 4.5545C14.5841 5.48876 14.0411 6.29912 13.2381 6.71666C13.1818 6.92663 13.1477 7.1537 13.1565 7.41397C14.3629 6.96982 15.2221 5.85562 15.2221 4.5545C15.2221 2.86414 13.7718 1.48926 11.9945 1.48926C10.3745 1.48926 9.03007 2.63144 8.80469 4.11364C8.96988 4.11776 9.31668 4.18498 9.43221 4.22549V4.22549ZM8.81204 5.04124C9.05791 6.50106 10.3912 7.61974 11.9945 7.61974C12.0649 7.61974 12.1349 7.61757 12.2042 7.61333C12.1655 7.4711 12.166 7.14428 12.2063 7.00926V7.00925C12.1365 7.0146 12.0658 7.01732 11.9945 7.01732C10.8073 7.01732 9.81354 6.26319 9.50711 5.22962C9.29779 5.15383 9.07307 5.08698 8.81204 5.04124H8.81204Z" fill="white"/>
<path d="M18.1434 7.64815C17.9757 8.8551 16.8973 9.78197 15.5812 9.78197C14.1477 9.78197 12.9916 8.68247 12.9916 7.31915C12.9916 6.38488 13.5345 5.57452 14.3376 5.15698C14.3938 4.94701 14.4279 4.71995 14.4191 4.45967C13.2128 4.90382 12.3535 6.01803 12.3535 7.31915C12.3535 9.0095 13.8038 10.3844 15.5812 10.3844C17.2012 10.3844 18.5456 9.2422 18.771 7.76C18.6058 7.75589 18.259 7.68866 18.1434 7.64815V7.64815ZM18.7636 6.83241C18.5177 5.37259 17.1844 4.25391 15.5812 4.25391C15.5107 4.25391 15.4408 4.25607 15.3714 4.26032C15.4102 4.40255 15.4096 4.72937 15.3693 4.86438V4.86439C15.4392 4.85904 15.5098 4.85632 15.5812 4.85632C16.7684 4.85632 17.7621 5.61045 18.0685 6.64402C18.2779 6.71982 18.5026 6.78667 18.7636 6.83241H18.7636Z" fill="white"/>
</svg>
