<svg width="22" height="23" viewBox="0 0 22 23" fill="none" xmlns="http://www.w3.org/2000/svg">
<path d="M0 14.2068C0.339914 13.5063 0.679828 12.8437 1.05751 12.181C0.623176 11.1208 0.283262 10.0416 0 8.92463V14.2068ZM2.05837 0.859375C2.05837 0.859375 0 0.859375 0 3.41527V4.77841C0.188841 7.10711 0.679828 9.37901 1.49185 11.4995C2.64378 9.68193 4.02232 8.01587 5.70301 6.577C9.02661 3.71819 13.5021 1.7492 19.5828 0.878308L2.05837 0.859375Z" fill="white"/>
<path d="M21.8867 2.2411C14.9373 2.90374 10.1785 4.89165 6.7794 7.80726C4.94764 9.37866 3.51245 11.2151 2.32275 13.2977C4.98541 18.4852 10.0841 22.3096 18.5631 22.8586H19.394C19.394 22.8586 22 22.9533 22 20.0377V2.22217L21.8867 2.2411ZM4.00343 17.0274C3.2103 16.0997 2.51159 15.0774 1.92618 13.9982C1.1897 15.4181 0.54764 16.9327 0 18.542V22.8397L13.8987 22.8586C9.57425 21.8173 6.32618 19.7537 4.00343 17.0274Z" fill="white"/>
</svg>
