<svg width="26" height="26" viewBox="0 0 26 26" fill="none" xmlns="http://www.w3.org/2000/svg">
<path d="M3.43423 25.8726C3.06735 25.7789 2.87648 25.6281 1.89786 24.6562C0.736983 23.4968 0.664233 23.3819 0.668144 22.7804C0.668144 22.1085 0.459279 22.3491 4.17973 18.6264C7.93148 14.87 7.7406 15.0325 8.41648 15.0325C8.73486 15.0325 8.81152 15.0489 9.0642 15.1794L9.35442 15.3263L11.1716 13.5114L10.9432 13.1528C10.5028 12.4614 10.0835 11.4559 9.89574 10.6215C9.36615 8.26522 9.93642 5.79954 11.4407 3.912C14.0355 0.665064 18.697 -0.0599509 22.139 2.25963C24.0297 3.52918 25.261 5.48547 25.6115 7.79333C25.6842 8.28162 25.6842 9.43712 25.6115 9.9551C25.3791 11.6958 24.5687 13.3114 23.3124 14.5403C22.7304 15.1427 22.042 15.6396 21.284 16.0005C20.2858 16.5013 19.4347 16.7373 18.2808 16.8349C16.6389 16.9732 14.8178 16.5169 13.4245 15.6263L13.0655 15.3982L11.2444 17.2131L11.3914 17.5068C11.5221 17.7592 11.5377 17.8357 11.5377 18.1498C11.5416 18.8248 11.7012 18.6342 7.96511 22.3655C5.08403 25.2374 4.6397 25.6617 4.41989 25.7624C4.13905 25.8929 3.70333 25.9414 3.43423 25.8726V25.8726ZM18.8832 15.4349C20.9734 15.0482 22.7577 13.6888 23.6871 11.7809C25.1366 8.7582 24.1596 5.20969 21.3598 3.33387C20.6965 2.8862 19.7671 2.50807 18.891 2.33307C18.2879 2.21119 17.005 2.22369 16.3729 2.35807C15.4561 2.5487 14.5839 2.92683 13.8188 3.46825C13.3549 3.79325 12.5883 4.55889 12.2668 5.01437C10.4738 7.52145 10.6365 10.9309 12.6618 13.2513C13.7077 14.4552 15.1549 15.245 16.732 15.4763C17.2616 15.5576 18.3411 15.538 18.8871 15.4396L18.8832 15.4349ZM14.9844 23.1171C14.2185 22.9054 13.4566 22.6772 12.6947 22.4421C12.6697 22.4132 13.9534 17.8599 14.0065 17.8076C14.0308 17.7787 18.431 19.0076 18.6102 19.0928C18.6751 19.1209 18.6063 19.3936 18.0595 21.2811C17.8396 22.0592 17.619 22.8366 17.3992 23.6132C17.3711 23.703 17.3265 23.7757 17.2983 23.7757C17.2702 23.7718 16.2274 23.4749 14.9836 23.1163L14.9844 23.1171ZM18.0235 23.6671C18.0235 23.6101 19.3033 19.1506 19.3228 19.1381C19.3721 19.1014 23.8326 17.856 23.8498 17.8764C23.8709 17.8959 22.5989 22.3928 22.5669 22.4171C22.5458 22.4382 18.2644 23.6585 18.126 23.6866C18.0689 23.6991 18.0235 23.6866 18.0235 23.6671V23.6671ZM10.6131 21.6733C11.4923 20.7858 12.2785 19.9795 12.3568 19.874C12.5351 19.6459 12.78 19.1123 12.8488 18.8154C12.8777 18.6936 12.9059 18.4498 12.9106 18.2748L12.9231 17.9529L13.1101 17.8998C13.2204 17.8717 13.3142 17.8553 13.3221 17.8631C13.3471 17.892 12.0634 22.3639 12.0227 22.4046C12.0032 22.4202 11.3179 22.6272 10.495 22.86L9.01257 23.2827L10.6139 21.6756L10.6131 21.6733ZM19.2587 18.4865C19.2336 18.4209 19.2141 18.356 19.1969 18.2904L19.1476 18.1279L19.3111 18.0998C20.7074 17.8631 22.2078 17.2084 23.389 16.3177C23.5557 16.1873 23.6495 16.1388 23.6652 16.1748C23.7184 16.3458 23.9468 17.1631 23.9429 17.1756C23.9061 17.2076 19.2688 18.51 19.2579 18.4904L19.2587 18.4865ZM3.52811 17.1318C3.47491 17.0912 2.2976 13.1075 2.20764 12.6637C2.19121 12.5739 2.35862 12.6192 4.47699 13.2208C6.68533 13.8521 6.76199 13.8763 6.79172 13.9935C6.82379 14.0958 6.80345 14.1278 6.66108 14.2255C6.57581 14.2872 5.85769 14.9786 5.07151 15.7638C4.59903 16.2474 4.11402 16.7201 3.62511 17.1881C3.60946 17.1881 3.56487 17.1631 3.52811 17.131V17.1318ZM4.38312 12.57C3.1448 12.2161 2.12629 11.9231 2.12159 11.9192C2.10517 11.9067 3.43814 7.30114 3.46161 7.27223C3.48665 7.2527 8.07385 8.53397 8.12313 8.57851C8.13174 8.5871 7.84152 9.63712 7.47933 10.9098C6.8762 13.0138 6.80658 13.2255 6.72522 13.2216C6.67203 13.2216 5.62145 12.9247 4.37843 12.5708L4.38312 12.57ZM7.46759 13.1317C7.48011 13.0997 7.6921 12.3794 7.93148 11.5325L8.3672 9.99807L8.429 10.3324C8.52678 10.9098 8.7067 11.5692 8.914 12.1426C9.02352 12.452 9.10487 12.7044 9.10096 12.7122C9.09392 12.7208 8.75442 12.8184 8.35233 12.9317C7.94477 13.045 7.57867 13.1513 7.5333 13.1669C7.4715 13.1833 7.45117 13.1708 7.46759 13.1302V13.1317ZM5.76382 7.27223C4.52549 6.91832 3.50229 6.60972 3.49134 6.58862C3.44675 6.52378 2.19043 2.08853 2.20764 2.07212C2.23267 2.044 6.70176 3.32527 6.74713 3.36981C6.79641 3.42293 8.07932 7.93162 8.04647 7.92693L5.76851 7.27145L5.76382 7.27223ZM8.00579 5.48547L7.46368 3.60653L7.38233 3.31277L9.14633 2.80886C10.1203 2.5362 10.9432 2.29635 10.9839 2.27994C11.0159 2.26432 10.8939 2.42682 10.7109 2.62995C9.74633 3.69247 9.04542 4.96984 8.66993 6.35268C8.6097 6.54409 8.56433 6.74019 8.53226 6.93472C8.53226 7.2441 8.40944 6.9105 8.00657 5.49016L8.00579 5.48547Z" fill="white"/>
</svg>
