<svg width="26" height="14" viewBox="0 0 26 14" fill="none" xmlns="http://www.w3.org/2000/svg">
<rect x="0.666016" y="0.903809" width="25" height="12.9237" fill="white"/>
<path d="M6.04406 4.71575C6.04406 4.95085 6.00528 5.16697 5.92771 5.36411C5.85014 5.55979 5.74063 5.72845 5.59917 5.87009C5.45772 6.01174 5.28737 6.12199 5.08812 6.20084C4.89039 6.27824 4.67137 6.31693 4.43105 6.31693C4.19073 6.31693 3.97171 6.27824 3.77398 6.20084C3.57625 6.12199 3.40666 6.01174 3.2652 5.87009C3.12375 5.72845 3.01424 5.55979 2.93667 5.36411C2.8591 5.16697 2.82031 4.95085 2.82031 4.71575C2.82031 4.48065 2.8591 4.26526 2.93667 4.06958C3.01424 3.87245 3.12375 3.70306 3.2652 3.56141C3.40666 3.4183 3.57625 3.30732 3.77398 3.22847C3.97171 3.14961 4.19073 3.11019 4.43105 3.11019C4.67137 3.11019 4.89039 3.14961 5.08812 3.22847C5.28737 3.30732 5.45772 3.4183 5.59917 3.56141C5.74063 3.70306 5.85014 3.87245 5.92771 4.06958C6.00528 4.26526 6.04406 4.48065 6.04406 4.71575ZM5.59005 4.71575C5.59005 4.523 5.56267 4.34995 5.50791 4.19663C5.45316 4.0433 5.37559 3.91406 5.2752 3.80892C5.17482 3.70233 5.05314 3.62055 4.91016 3.5636C4.76719 3.50665 4.60748 3.47817 4.43105 3.47817C4.25613 3.47817 4.09719 3.50665 3.95422 3.5636C3.81124 3.62055 3.6888 3.70233 3.58689 3.80892C3.48651 3.91406 3.40894 4.0433 3.35418 4.19663C3.29943 4.34995 3.27205 4.523 3.27205 4.71575C3.27205 4.90851 3.29943 5.08155 3.35418 5.23488C3.40894 5.38674 3.48651 5.51598 3.58689 5.62258C3.6888 5.72772 3.81124 5.80876 3.95422 5.86571C4.09719 5.9212 4.25613 5.94895 4.43105 5.94895C4.60748 5.94895 4.76719 5.9212 4.91016 5.86571C5.05314 5.80876 5.17482 5.72772 5.2752 5.62258C5.37559 5.51598 5.45316 5.38674 5.50791 5.23488C5.56267 5.08155 5.59005 4.90851 5.59005 4.71575Z" fill="#F3F6F9"/>
<path d="M6.86701 4.0652V5.4802C6.86701 5.64813 6.90731 5.77809 6.98793 5.87009C7.06854 5.96209 7.19022 6.00809 7.35296 6.00809C7.4716 6.00809 7.5834 5.98107 7.68834 5.92704C7.79329 5.87301 7.88988 5.79781 7.97809 5.70143V4.0652H8.3842V6.28408H8.14236C8.08456 6.28408 8.04806 6.25706 8.03285 6.20303L8.00091 5.96428C7.90052 6.07088 7.78797 6.15703 7.66325 6.22275C7.53853 6.287 7.39555 6.31912 7.23433 6.31912C7.10808 6.31912 6.99629 6.29941 6.89895 6.25998C6.80312 6.2191 6.72251 6.16214 6.65711 6.08913C6.59171 6.01612 6.54227 5.92777 6.50881 5.82409C6.47687 5.72041 6.4609 5.60578 6.4609 5.4802V4.0652H6.86701Z" fill="#F3F6F9"/>
<path d="M8.9827 6.28408V4.0652H9.21541C9.25952 4.0652 9.28994 4.07323 9.30667 4.0893C9.3234 4.10536 9.33481 4.1331 9.34089 4.17253L9.36827 4.51861C9.44736 4.36383 9.54471 4.24335 9.6603 4.1572C9.77742 4.06958 9.91431 4.02577 10.071 4.02577C10.1349 4.02577 10.1927 4.03308 10.2444 4.04768C10.2961 4.06082 10.344 4.0798 10.3881 4.10463L10.3356 4.39595C10.325 4.43246 10.3014 4.45071 10.2649 4.45071C10.2436 4.45071 10.2109 4.44414 10.1668 4.431C10.1227 4.4164 10.0611 4.40909 9.982 4.40909C9.84054 4.40909 9.72191 4.44852 9.62608 4.52738C9.53178 4.60623 9.45269 4.72086 9.38881 4.87127V6.28408H8.9827Z" fill="#F3F6F9"/>
<path d="M11.2673 3.14523H11.6346C11.6742 3.14523 11.7069 3.15472 11.7327 3.17371C11.7586 3.19269 11.7761 3.21679 11.7852 3.24599L12.4605 5.42763C12.4727 5.46706 12.4833 5.50941 12.4925 5.55467C12.5031 5.59994 12.513 5.6474 12.5221 5.69705C12.5328 5.6474 12.5434 5.59994 12.5541 5.55467C12.5647 5.50795 12.5769 5.4656 12.5906 5.42763L13.3594 3.24599C13.3686 3.22117 13.386 3.19853 13.4119 3.17809C13.4393 3.15619 13.472 3.14523 13.51 3.14523H13.6378C13.6773 3.14523 13.7093 3.15472 13.7336 3.17371C13.7594 3.19269 13.7777 3.21679 13.7883 3.24599L14.5526 5.42763C14.58 5.50356 14.6044 5.59045 14.6257 5.68829C14.6348 5.6401 14.6431 5.5941 14.6508 5.55029C14.6584 5.50649 14.6682 5.4656 14.6804 5.42763L15.358 3.24599C15.3656 3.21971 15.3824 3.19634 15.4082 3.1759C15.4356 3.15546 15.4683 3.14523 15.5063 3.14523H15.8508L14.831 6.28408H14.434L13.6058 3.88997C13.5891 3.8447 13.5739 3.79213 13.5602 3.73226C13.5526 3.76147 13.545 3.78994 13.5374 3.81769C13.5313 3.84397 13.5245 3.86807 13.5169 3.88997L12.6841 6.28408H12.2871L11.2673 3.14523Z" fill="#F3F6F9"/>
<path d="M17.0118 4.03016C17.1806 4.03016 17.3327 4.05717 17.4681 4.1112C17.605 4.16523 17.7206 4.24189 17.8149 4.34119C17.9107 4.44049 17.9837 4.56096 18.0339 4.70261C18.0856 4.84279 18.1115 4.99977 18.1115 5.17354C18.1115 5.34878 18.0856 5.50649 18.0339 5.64667C17.9837 5.78686 17.9107 5.9066 17.8149 6.0059C17.7206 6.10519 17.605 6.18186 17.4681 6.23589C17.3327 6.28846 17.1806 6.31474 17.0118 6.31474C16.8429 6.31474 16.6901 6.28846 16.5532 6.23589C16.4178 6.18186 16.3022 6.10519 16.2064 6.0059C16.1106 5.9066 16.0368 5.78686 15.9851 5.64667C15.9334 5.50649 15.9075 5.34878 15.9075 5.17354C15.9075 4.99977 15.9334 4.84279 15.9851 4.70261C16.0368 4.56096 16.1106 4.44049 16.2064 4.34119C16.3022 4.24189 16.4178 4.16523 16.5532 4.1112C16.6901 4.05717 16.8429 4.03016 17.0118 4.03016ZM17.0118 6.01028C17.2399 6.01028 17.4103 5.93726 17.5228 5.79124C17.6354 5.64375 17.6917 5.43858 17.6917 5.17573C17.6917 4.91143 17.6354 4.70553 17.5228 4.55804C17.4103 4.41055 17.2399 4.33681 17.0118 4.33681C16.8962 4.33681 16.7958 4.35579 16.7106 4.39376C16.6254 4.43173 16.554 4.48649 16.4962 4.55804C16.4399 4.62959 16.3973 4.71794 16.3684 4.82308C16.341 4.92676 16.3273 5.04431 16.3273 5.17573C16.3273 5.30716 16.341 5.42471 16.3684 5.52839C16.3973 5.63207 16.4399 5.71968 16.4962 5.79124C16.554 5.86133 16.6254 5.91536 16.7106 5.95333C16.7958 5.99129 16.8962 6.01028 17.0118 6.01028Z" fill="#F3F6F9"/>
<path d="M18.5434 6.28408V4.0652H18.7761C18.8202 4.0652 18.8507 4.07323 18.8674 4.0893C18.8841 4.10536 18.8955 4.1331 18.9016 4.17253L18.929 4.51861C19.0081 4.36383 19.1054 4.24335 19.221 4.1572C19.3381 4.06958 19.475 4.02577 19.6317 4.02577C19.6956 4.02577 19.7534 4.03308 19.8051 4.04768C19.8568 4.06082 19.9047 4.0798 19.9488 4.10463L19.8963 4.39595C19.8857 4.43246 19.8621 4.45071 19.8256 4.45071C19.8043 4.45071 19.7716 4.44414 19.7275 4.431C19.6834 4.4164 19.6218 4.40909 19.5427 4.40909C19.4013 4.40909 19.2826 4.44852 19.1868 4.52738C19.0925 4.60623 19.0134 4.72086 18.9495 4.87127V6.28408H18.5434Z" fill="#F3F6F9"/>
<path d="M20.767 3.05762V6.28408H20.3609V3.05762H20.767Z" fill="#F3F6F9"/>
<path d="M23.0411 6.28408C22.9833 6.28408 22.9468 6.25706 22.9315 6.20303L22.895 5.93361C22.7962 6.04897 22.6829 6.1417 22.5551 6.21179C22.4289 6.28043 22.2836 6.31474 22.1193 6.31474C21.987 6.31474 21.8668 6.29065 21.7589 6.24246C21.6509 6.19281 21.5588 6.12053 21.4828 6.02561C21.4067 5.93069 21.3482 5.81241 21.3071 5.67077C21.2661 5.52912 21.2455 5.3663 21.2455 5.18231C21.2455 5.01876 21.2683 4.86689 21.314 4.7267C21.3596 4.58506 21.425 4.46239 21.5102 4.35872C21.5969 4.25504 21.7018 4.17399 21.825 4.11558C21.9482 4.05571 22.0882 4.02577 22.2448 4.02577C22.3863 4.02577 22.5072 4.04914 22.6076 4.09587C22.708 4.14114 22.7977 4.20539 22.8768 4.28862V3.05762H23.2829V6.28408H23.0411ZM22.2539 5.99933C22.3863 5.99933 22.5019 5.97012 22.6007 5.91171C22.7011 5.8533 22.7931 5.77079 22.8768 5.66419V4.5909C22.8023 4.49452 22.7201 4.42735 22.6304 4.38938C22.5422 4.34995 22.4441 4.33024 22.3361 4.33024C22.1201 4.33024 21.9543 4.40398 21.8387 4.55147C21.7231 4.69896 21.6653 4.90924 21.6653 5.18231C21.6653 5.32687 21.6782 5.451 21.7041 5.55467C21.73 5.65689 21.768 5.74159 21.8182 5.80876C21.8684 5.87447 21.93 5.92266 22.003 5.95333C22.076 5.98399 22.1596 5.99933 22.2539 5.99933Z" fill="#F3F6F9"/>
<path d="M7.34313 9.41951V11.6384H6.93702V9.41951H7.34313ZM7.43439 8.72297C7.43439 8.76093 7.42602 8.79671 7.40929 8.8303C7.39408 8.86242 7.37278 8.89163 7.34541 8.91791C7.31955 8.94274 7.28913 8.96245 7.25415 8.97705C7.21917 8.99166 7.1819 8.99896 7.14235 8.99896C7.10281 8.99896 7.06554 8.99166 7.03056 8.97705C6.9971 8.96245 6.96668 8.94274 6.9393 8.91791C6.91344 8.89163 6.89291 8.86242 6.8777 8.8303C6.86249 8.79671 6.85489 8.76093 6.85489 8.72297C6.85489 8.685 6.86249 8.64922 6.8777 8.61564C6.89291 8.58059 6.91344 8.55066 6.9393 8.52583C6.96668 8.49955 6.9971 8.4791 7.03056 8.4645C7.06554 8.4499 7.10281 8.4426 7.14235 8.4426C7.1819 8.4426 7.21917 8.4499 7.25415 8.4645C7.28913 8.4791 7.31955 8.49955 7.34541 8.52583C7.37278 8.55066 7.39408 8.58059 7.40929 8.61564C7.42602 8.64922 7.43439 8.685 7.43439 8.72297Z" fill="#F3F6F9"/>
<path d="M7.99043 11.6384V9.41951H8.23227C8.29006 9.41951 8.32657 9.44653 8.34178 9.50056L8.37372 9.7415C8.4741 9.6349 8.5859 9.54875 8.7091 9.48304C8.83382 9.41732 8.97756 9.38447 9.1403 9.38447C9.26654 9.38447 9.37758 9.40491 9.4734 9.4458C9.57074 9.48523 9.65136 9.54218 9.71524 9.61665C9.78064 9.68966 9.83007 9.77801 9.86354 9.88169C9.897 9.98537 9.91373 10.1 9.91373 10.2256V11.6384H9.50762V10.2256C9.50762 10.0577 9.46732 9.92769 9.3867 9.83569C9.30761 9.74223 9.18593 9.6955 9.02166 9.6955C8.9015 9.6955 8.78895 9.72325 8.684 9.77874C8.58057 9.83423 8.48475 9.90943 8.39653 10.0044V11.6384H7.99043Z" fill="#F3F6F9"/>
<path d="M14.1688 10.0701C14.1688 10.3052 14.13 10.5191 14.0525 10.7119C13.9749 10.9046 13.8654 11.0696 13.7239 11.2069C13.5825 11.3441 13.4129 11.4507 13.2152 11.5267C13.0174 11.6012 12.7984 11.6384 12.5581 11.6384H11.3352V8.49955H12.5581C12.7984 8.49955 13.0174 8.53751 13.2152 8.61345C13.4129 8.68792 13.5825 8.79452 13.7239 8.93325C13.8654 9.07051 13.9749 9.23552 14.0525 9.42828C14.13 9.62103 14.1688 9.83496 14.1688 10.0701ZM13.7148 10.0701C13.7148 9.87731 13.6874 9.705 13.6327 9.55313C13.5779 9.40126 13.5003 9.27276 13.4 9.16762C13.2996 9.06248 13.1779 8.98216 13.0349 8.92667C12.8919 8.87118 12.733 8.84344 12.5581 8.84344H11.7801V11.2945H12.5581C12.733 11.2945 12.8919 11.2668 13.0349 11.2113C13.1779 11.1558 13.2996 11.0762 13.4 10.9725C13.5003 10.8674 13.5779 10.7389 13.6327 10.587C13.6874 10.4351 13.7148 10.2628 13.7148 10.0701Z" fill="#F3F6F9"/>
<path d="M16.3359 11.6384H16.1557C16.1161 11.6384 16.0842 11.6325 16.0599 11.6209C16.0355 11.6092 16.0196 11.5844 16.0119 11.5464L15.9663 11.3405C15.9055 11.3931 15.8462 11.4405 15.7884 11.4829C15.7306 11.5238 15.6697 11.5588 15.6058 11.588C15.542 11.6158 15.4735 11.6369 15.4005 11.6515C15.329 11.6661 15.2492 11.6734 15.161 11.6734C15.0712 11.6734 14.9868 11.6618 14.9077 11.6384C14.8301 11.6136 14.7625 11.5771 14.7047 11.5289C14.6469 11.4807 14.6005 11.4201 14.5655 11.3471C14.532 11.2726 14.5153 11.185 14.5153 11.0842C14.5153 10.9966 14.5404 10.9126 14.5906 10.8323C14.6408 10.7505 14.7214 10.6783 14.8324 10.6155C14.945 10.5527 15.0917 10.5016 15.2727 10.4621C15.4537 10.4213 15.6751 10.3979 15.9367 10.3921V10.219C15.9367 10.0467 15.8979 9.91673 15.8203 9.82912C15.7443 9.74004 15.6309 9.6955 15.4804 9.6955C15.3815 9.6955 15.2978 9.70792 15.2294 9.73274C15.1625 9.75611 15.1039 9.78312 15.0537 9.81379C15.0051 9.84299 14.9625 9.87001 14.926 9.89483C14.891 9.9182 14.856 9.92988 14.821 9.92988C14.7936 9.92988 14.7693 9.92331 14.748 9.91016C14.7282 9.89556 14.7123 9.87804 14.7001 9.85759L14.6271 9.73274C14.7548 9.61446 14.8925 9.52611 15.04 9.4677C15.1876 9.40929 15.3511 9.38009 15.5306 9.38009C15.6598 9.38009 15.7747 9.40053 15.8751 9.44142C15.9754 9.48231 16.0599 9.53926 16.1283 9.61227C16.1968 9.68528 16.2485 9.77363 16.2834 9.87731C16.3184 9.98099 16.3359 10.0949 16.3359 10.219V11.6384ZM15.2819 11.3996C15.3534 11.3996 15.4188 11.3931 15.4781 11.3799C15.5374 11.3653 15.5929 11.3456 15.6446 11.3208C15.6979 11.2945 15.7481 11.2631 15.7952 11.2266C15.8439 11.1901 15.891 11.1485 15.9367 11.1017V10.6396C15.7496 10.6454 15.5906 10.66 15.4598 10.6834C15.329 10.7053 15.2226 10.7345 15.1404 10.771C15.0583 10.8075 14.9982 10.8506 14.9602 10.9002C14.9237 10.9499 14.9054 11.0054 14.9054 11.0667C14.9054 11.1251 14.9153 11.1755 14.9351 11.2178C14.9549 11.2602 14.9815 11.2952 15.0149 11.323C15.0484 11.3493 15.0879 11.369 15.1336 11.3821C15.1792 11.3938 15.2286 11.3996 15.2819 11.3996Z" fill="#F3F6F9"/>
<path d="M17.5832 11.6734C17.4006 11.6734 17.2599 11.6245 17.1611 11.5267C17.0637 11.4288 17.0151 11.2879 17.0151 11.1039V9.74588H16.7367C16.7124 9.74588 16.6918 9.73931 16.6751 9.72617C16.6584 9.71157 16.65 9.68966 16.65 9.66046V9.50494L17.0287 9.45894L17.1223 8.77335C17.1253 8.75144 17.1352 8.73392 17.1519 8.72078C17.1687 8.70617 17.19 8.69887 17.2158 8.69887H17.4212V9.46332H18.0828V9.74588H17.4212V11.0776C17.4212 11.1711 17.4447 11.2405 17.4919 11.2857C17.539 11.331 17.5999 11.3536 17.6744 11.3536C17.717 11.3536 17.7535 11.3485 17.7839 11.3383C17.8159 11.3266 17.8432 11.3142 17.8661 11.3011C17.8889 11.2879 17.9079 11.2762 17.9231 11.266C17.9398 11.2543 17.9543 11.2485 17.9664 11.2485C17.9877 11.2485 18.0067 11.2609 18.0235 11.2857L18.1421 11.4719C18.0722 11.5347 17.9877 11.5844 17.8889 11.6209C17.79 11.6559 17.6881 11.6734 17.5832 11.6734Z" fill="#F3F6F9"/>
<path d="M20.2139 11.6384H20.0337C19.9941 11.6384 19.9622 11.6325 19.9379 11.6209C19.9135 11.6092 19.8976 11.5844 19.89 11.5464L19.8443 11.3405C19.7835 11.3931 19.7242 11.4405 19.6664 11.4829C19.6086 11.5238 19.5477 11.5588 19.4838 11.588C19.42 11.6158 19.3515 11.6369 19.2785 11.6515C19.207 11.6661 19.1272 11.6734 19.039 11.6734C18.9492 11.6734 18.8648 11.6618 18.7857 11.6384C18.7081 11.6136 18.6405 11.5771 18.5827 11.5289C18.5249 11.4807 18.4785 11.4201 18.4435 11.3471C18.41 11.2726 18.3933 11.185 18.3933 11.0842C18.3933 10.9966 18.4184 10.9126 18.4686 10.8323C18.5188 10.7505 18.5994 10.6783 18.7104 10.6155C18.823 10.5527 18.9698 10.5016 19.1508 10.4621C19.3318 10.4213 19.5531 10.3979 19.8147 10.3921V10.219C19.8147 10.0467 19.7759 9.91673 19.6983 9.82912C19.6223 9.74004 19.5089 9.6955 19.3584 9.6955C19.2595 9.6955 19.1758 9.70792 19.1074 9.73274C19.0405 9.75611 18.9819 9.78312 18.9317 9.81379C18.8831 9.84299 18.8405 9.87001 18.804 9.89483C18.769 9.9182 18.734 9.92988 18.699 9.92988C18.6716 9.92988 18.6473 9.92331 18.626 9.91016C18.6062 9.89556 18.5903 9.87804 18.5781 9.85759L18.5051 9.73274C18.6329 9.61446 18.7705 9.52611 18.918 9.4677C19.0656 9.40929 19.2291 9.38009 19.4086 9.38009C19.5378 9.38009 19.6527 9.40053 19.7531 9.44142C19.8535 9.48231 19.9379 9.53926 20.0063 9.61227C20.0748 9.68528 20.1265 9.77363 20.1615 9.87731C20.1964 9.98099 20.2139 10.0949 20.2139 10.219V11.6384ZM19.1599 11.3996C19.2314 11.3996 19.2968 11.3931 19.3561 11.3799C19.4154 11.3653 19.4709 11.3456 19.5226 11.3208C19.5759 11.2945 19.6261 11.2631 19.6732 11.2266C19.7219 11.1901 19.769 11.1485 19.8147 11.1017V10.6396C19.6276 10.6454 19.4686 10.66 19.3378 10.6834C19.207 10.7053 19.1006 10.7345 19.0184 10.771C18.9363 10.8075 18.8762 10.8506 18.8382 10.9002C18.8017 10.9499 18.7834 11.0054 18.7834 11.0667C18.7834 11.1251 18.7933 11.1755 18.8131 11.2178C18.8329 11.2602 18.8595 11.2952 18.8929 11.323C18.9264 11.3493 18.966 11.369 19.0116 11.3821C19.0572 11.3938 19.1066 11.3996 19.1599 11.3996Z" fill="#F3F6F9"/>
</svg>
