<svg width="26" height="26" viewBox="0 0 26 26" fill="none" xmlns="http://www.w3.org/2000/svg">
<path d="M13.1484 1.84131C6.75955 1.84131 1.58594 7.01492 1.58594 13.4038C1.58594 18.2996 4.62413 22.4837 8.92969 24.1677C8.82552 23.2476 8.73872 21.8587 8.96441 20.8517C9.17274 19.9489 10.3186 15.1052 10.3186 15.1052C10.3186 15.1052 9.97136 14.4108 9.97136 13.3864C9.97136 11.7719 10.9089 10.5739 12.0547 10.5739C13.0443 10.5739 13.513 11.3205 13.513 12.2059C13.513 13.1955 12.888 14.6885 12.5582 16.0601C12.2804 17.2059 13.1311 18.1434 14.2769 18.1434C16.3255 18.1434 17.9054 15.9733 17.9054 12.8483C17.9054 10.0878 15.9089 8.14339 13.079 8.14339C9.79774 8.14339 7.8533 10.6087 7.8533 13.1608C7.8533 14.1503 8.23524 15.2267 8.72136 15.7996C8.80816 15.9212 8.82552 16.008 8.80816 16.1295C8.72136 16.4941 8.53038 17.2753 8.49566 17.4316C8.44358 17.6399 8.32205 17.692 8.11372 17.5878C6.67274 16.9108 5.76997 14.8101 5.76997 13.1087C5.76997 9.46284 8.42622 6.11214 13.4089 6.11214C17.4193 6.11214 20.5269 8.97673 20.5269 12.7788C20.5269 16.7545 18.0096 19.9663 14.5373 19.9663C13.3741 19.9663 12.263 19.3587 11.8811 18.6469C11.8811 18.6469 11.3082 20.8517 11.1693 21.3899C10.9089 22.3969 10.1971 23.6469 9.7283 24.4281C10.8047 24.758 11.9505 24.9489 13.1484 24.9489C19.5373 24.9489 24.7109 19.7753 24.7109 13.3864C24.7109 7.01492 19.5373 1.84131 13.1484 1.84131Z" fill="white"/>
</svg>
