<svg width="26" height="27" viewBox="0 0 26 27" fill="none" xmlns="http://www.w3.org/2000/svg">
<path d="M13.9578 21.0516C13.0626 19.2895 12.0123 17.5097 9.96367 17.5097C9.57205 17.5097 9.18089 17.5746 8.82194 17.7385L8.12598 16.3456C8.97411 15.6179 10.3446 15.041 12.1062 15.041C14.8466 15.041 16.253 16.361 17.3695 18.0461C18.0323 16.6075 18.3474 14.6647 18.3474 12.2567C18.3474 6.24323 16.4668 3.15552 12.074 3.15552C7.7451 3.15552 5.87474 6.24323 5.87474 12.2567C5.87474 18.2384 7.7451 21.2943 12.074 21.2943C12.762 21.2943 13.3851 21.2187 13.9578 21.0516ZM15.031 23.1502C14.082 23.4046 13.0738 23.5451 12.074 23.5451C6.30977 23.5451 0.666016 18.9455 0.666016 12.2567C0.666016 5.50433 6.30977 0.903809 12.074 0.903809C17.9348 0.903809 23.5244 5.47118 23.5244 12.2567C23.5244 16.031 21.7632 19.0982 19.2034 21.0805C20.0306 22.3198 20.882 23.1428 22.0676 23.1428C23.3615 23.1428 23.8833 22.1429 23.9706 21.3587H25.6557C25.7541 22.4029 25.2318 26.7425 20.5225 26.7425C17.6701 26.7425 16.162 25.0892 15.031 23.1502Z" fill="white"/>
</svg>
