<svg width="26" height="26" viewBox="0 0 26 26" fill="none" xmlns="http://www.w3.org/2000/svg">
<g clip-path="url(#clip0_6194_138988)">
<path d="M10.5049 15.8208C9.83105 15.8208 9.28906 15.2788 9.28906 14.6196C9.28906 13.9458 9.83105 13.4038 10.5049 13.4038C11.1689 13.4038 11.7061 13.9458 11.7061 14.6196C11.7061 15.2837 11.1641 15.8208 10.5049 15.8208ZM25.2754 13.4038C25.2754 20.0933 19.8555 25.5132 13.166 25.5132C6.47656 25.5132 1.05664 20.0933 1.05664 13.4038C1.05664 6.71436 6.47656 1.29443 13.166 1.29443C19.8555 1.29443 25.2754 6.71436 25.2754 13.4038ZM18.8154 11.3921C18.3564 11.3921 17.9512 11.5825 17.6533 11.8804C16.5596 11.1235 15.085 10.6353 13.4492 10.5815L14.2988 6.7583L17.0039 7.36865C17.0039 8.03271 17.5459 8.56982 18.2051 8.56982C18.8789 8.56982 19.4209 8.01807 19.4209 7.354C19.4209 6.68994 18.8789 6.13818 18.2051 6.13818C17.7314 6.13818 17.3262 6.42139 17.126 6.81201L14.1377 6.14795C13.9912 6.10889 13.8398 6.21631 13.8008 6.36279L12.8682 10.5815C11.2471 10.6499 9.78711 11.1333 8.69336 11.8901C8.39551 11.5776 7.97559 11.3921 7.5166 11.3921C5.8125 11.3921 5.25586 13.6821 6.81348 14.4585C6.75977 14.7026 6.73047 14.9565 6.73047 15.2153C6.73047 17.7837 9.62109 19.8638 13.1758 19.8638C16.7451 19.8638 19.6357 17.7837 19.6357 15.2153C19.6357 14.9565 19.6064 14.688 19.543 14.4438C21.0713 13.6626 20.5098 11.3921 18.8154 11.3921V11.3921ZM15.4512 17.0659C14.5625 17.9546 11.7354 17.9399 10.8809 17.0659C10.7734 16.9585 10.583 16.9585 10.4756 17.0659C10.3535 17.188 10.3535 17.3784 10.4756 17.4858C11.5889 18.5991 14.7383 18.5991 15.8564 17.4858C15.9785 17.3784 15.9785 17.188 15.8564 17.0659C15.749 16.9585 15.5586 16.9585 15.4512 17.0659ZM15.8271 13.4038C15.1631 13.4038 14.626 13.9458 14.626 14.6196C14.626 15.2837 15.168 15.8208 15.8271 15.8208C16.501 15.8208 17.043 15.2788 17.043 14.6196C17.043 13.9458 16.5059 13.4038 15.8271 13.4038V13.4038Z" fill="white"/>
</g>
<defs>
<clipPath id="clip0_6194_138988">
<rect width="25" height="25" fill="white" transform="translate(0.666016 0.903809)"/>
</clipPath>
</defs>
</svg>
