<svg width="26" height="26" viewBox="0 0 26 26" fill="none" xmlns="http://www.w3.org/2000/svg">
<path d="M15.989 25.1637C13.8384 24.7427 12.5601 23.4944 9.29671 18.652C8.21392 17.0278 8.21392 17.0278 7.1612 16.9526C5.61221 16.8473 5.73252 16.5766 5.77764 19.9904C5.83779 23.8704 5.79268 23.7802 8.03345 24.1561C8.61996 24.2464 8.66508 24.2915 8.66508 24.6374C8.66508 25.0284 8.66508 25.0284 4.72492 25.0585C1.02539 25.0886 0.784769 25.0735 0.709575 24.8479C0.559187 24.4118 0.784768 24.2013 1.59686 24.0509C2.51423 23.8854 2.99547 23.5095 3.11578 22.8779C3.17593 22.6372 3.19097 19.3889 3.16089 15.6592C3.11578 7.82405 3.20601 8.29025 1.76229 7.97444C0.859962 7.77894 0.574226 7.56839 0.694536 7.20746C0.784769 6.96684 0.980272 6.9518 5.08585 6.87661C11.1916 6.7563 12.3345 6.9518 13.9587 8.39552C15.6581 9.91444 15.8987 12.2304 14.5452 14.1704C13.9437 15.0427 12.7406 15.9751 11.8082 16.321C11.3721 16.4864 11.0111 16.6668 11.0111 16.727C11.0111 16.9075 12.3947 18.8775 13.2519 19.9303C15.5378 22.7124 16.771 23.7952 18.0493 24.1261C18.8463 24.3366 19.0719 24.5622 18.8463 24.9532C18.6057 25.3592 17.4026 25.4495 15.989 25.1637V25.1637ZM10.2291 15.193C13.2369 13.9599 13.4624 9.82421 10.6051 8.60607C9.86818 8.29025 9.67268 8.27521 7.82291 8.27521C5.82275 8.27521 5.82275 8.27522 5.79268 11.7492C5.7626 13.6591 5.77764 15.3134 5.82275 15.4036C5.9581 15.7194 9.34182 15.554 10.2291 15.193ZM20.7111 10.907C18.3801 10.4709 17.6131 9.04219 17.7335 5.37273C17.7936 3.3425 17.959 2.78607 18.741 1.9439C20.1246 0.45506 23.5535 0.590408 24.8167 2.18452C25.3581 2.86126 25.313 3.0718 24.5611 3.29739C23.9745 3.49289 23.9745 3.49289 23.4331 2.95149C22.1548 1.71832 19.9442 2.16948 19.5531 3.76359C19.3576 4.47041 19.3727 7.46312 19.5682 8.13987C20.0945 10.0498 23.2677 10.0498 23.8091 8.13987C24.14 6.92173 24.0648 6.83149 22.606 6.7563C21.8992 6.72622 21.8992 6.72622 21.8992 6.13971C21.8992 5.56824 21.8992 5.56824 23.5835 5.52312C25.7641 5.47801 25.7341 5.44793 25.6288 7.04204C25.4935 9.04219 24.9521 10.0047 23.6437 10.5761C22.7865 10.9371 21.6135 11.0724 20.7111 10.907V10.907Z" fill="white"/>
</svg>
