<svg width="25" height="28" viewBox="0 0 25 28" fill="none" xmlns="http://www.w3.org/2000/svg">
<path d="M9.25478 9.01C9.79054 8.73534 10.2285 8.43788 10.5772 8.15765C10.6521 8.09743 10.724 8.03716 10.7931 7.97716L7.44909 5.33643L6.9043 7.59412L9.25478 9.01Z" fill="white"/>
<path d="M10.2905 3.29368L9.88488 4.50906L7.76806 5.04328L9.45628 6.3359L11.4801 6.04103L12.519 3.93997L13.5576 6.04169L15.5817 6.3359L17.2688 5.04328L15.1517 4.50906C15.1517 4.50906 13.7115 0 12.9684 0C12.074 0 11.4827 0 10.9423 0C10.127 0 10.3515 0.970419 9.13611 0.970419C7.92101 0.970419 7.70117 2.43103 7.70117 2.43103C7.70117 2.43103 8.15737 2.43103 9.32157 2.43103C10.4872 2.43098 10.2905 3.29368 10.2905 3.29368ZM10.8826 0.726065C11.0279 0.726065 11.1448 0.842925 11.1448 0.987444C11.1448 1.13169 11.0279 1.24932 10.8826 1.24932C10.7384 1.24932 10.6211 1.13169 10.6211 0.987444C10.6211 0.842925 10.739 0.726065 10.8826 0.726065Z" fill="white"/>
<path d="M14.4382 8.15789C14.7801 8.4326 15.2075 8.72395 15.7291 8.99415L18.1319 7.51138L17.5887 5.33594L14.2324 7.98609C14.2984 8.04323 14.3669 8.10058 14.4382 8.15789Z" fill="white"/>
<path d="M17.9551 5.10156L18.4719 7.30627H22.5025C24.156 7.30627 25 5.10156 25 5.10156H17.9551Z" fill="white"/>
<path d="M16.2539 9.2425C17.2291 9.6663 18.4771 9.99655 20.0409 10.0556C21.6155 9.92388 22.7779 7.85742 22.7779 7.85742H18.3857L16.2539 9.2425Z" fill="white"/>
<path d="M6.52808 7.30626L7.04483 5.10156H0C0 5.10156 0.843972 7.30626 2.49764 7.30626H6.52808Z" fill="white"/>
<path d="M8.75338 9.24691L6.61497 7.85742H2.22266C2.22266 7.85742 3.38724 9.9278 4.96399 10.056C6.52841 9.99849 7.77723 9.66972 8.75338 9.24691Z" fill="white"/>
<path d="M12.5003 6.55664C12.5003 6.55664 10.659 10.5659 4.46484 10.5659C4.46484 25.0126 8.95639 22.2752 12.5003 27.0172C16.0444 22.2754 20.5359 25.0125 20.5359 10.5659C14.3418 10.5659 12.5003 6.55664 12.5003 6.55664ZM17.9294 20.0499C17.1791 21.6397 16.1919 22.3123 14.9419 23.164C14.1734 23.6879 13.332 24.2611 12.5003 25.096C11.6686 24.2611 10.8273 23.6877 10.0587 23.164C8.80884 22.3123 7.82167 21.6396 7.07136 20.0499C6.24833 18.3062 5.80915 15.5907 5.73471 11.7709C9.25738 11.4674 11.3584 9.92917 12.5003 8.69489C13.6422 9.92917 15.743 11.4674 19.266 11.7709C19.1917 15.5908 18.7524 18.3061 17.9294 20.0499Z" fill="white"/>
<path d="M9.97814 15.3909C9.94808 15.4398 9.91602 15.4764 9.88195 15.5008C9.84989 15.5252 9.80781 15.5375 9.75571 15.5375C9.70962 15.5375 9.65952 15.5232 9.60541 15.4947C9.55331 15.4642 9.49319 15.4306 9.42506 15.394C9.35893 15.3573 9.28278 15.3248 9.19661 15.2963C9.11045 15.2658 9.01225 15.2505 8.90204 15.2505C8.71167 15.2505 8.56939 15.2922 8.47521 15.3757C8.38303 15.4571 8.33694 15.568 8.33694 15.7084C8.33694 15.798 8.36499 15.8722 8.4211 15.9313C8.47721 15.9903 8.55035 16.0412 8.64053 16.0839C8.73271 16.1266 8.83691 16.1663 8.95314 16.203C9.07137 16.2376 9.19161 16.2772 9.31384 16.322C9.43608 16.3647 9.55532 16.4156 9.67154 16.4746C9.78977 16.5337 9.89398 16.609 9.98415 16.7006C10.0763 16.7921 10.1505 16.9041 10.2066 17.0364C10.2627 17.1666 10.2908 17.3243 10.2908 17.5095C10.2908 17.7151 10.2557 17.9074 10.1855 18.0865C10.1154 18.2656 10.0132 18.4223 9.87895 18.5566C9.74669 18.6889 9.58237 18.7937 9.38598 18.871C9.1916 18.9463 8.97017 18.984 8.72169 18.984C8.58542 18.984 8.44615 18.9697 8.30387 18.9413C8.1636 18.9128 8.02733 18.8731 7.89507 18.8222C7.76281 18.7693 7.63857 18.7072 7.52234 18.636C7.40612 18.5648 7.30492 18.4854 7.21875 18.3979L7.51934 17.9155C7.54138 17.8789 7.57244 17.8494 7.61252 17.827C7.6526 17.8046 7.69568 17.7934 7.74177 17.7934C7.80189 17.7934 7.86201 17.8128 7.92212 17.8514C7.98425 17.8901 8.05338 17.9328 8.12953 17.9796C8.20768 18.0265 8.29686 18.0692 8.39705 18.1079C8.49725 18.1465 8.61548 18.1659 8.75175 18.1659C8.93611 18.1659 9.07939 18.1252 9.18159 18.0438C9.28379 17.9603 9.33489 17.829 9.33489 17.6499C9.33489 17.5462 9.30683 17.4617 9.25072 17.3966C9.19461 17.3314 9.12047 17.2775 9.02829 17.2348C8.93811 17.192 8.83491 17.1544 8.71868 17.1218C8.60245 17.0893 8.48322 17.0536 8.36098 17.015C8.23874 16.9743 8.11951 16.9254 8.00328 16.8685C7.88706 16.8094 7.78285 16.7331 7.69067 16.6395C7.6005 16.5438 7.52735 16.4258 7.47124 16.2854C7.41513 16.1429 7.38708 15.9679 7.38708 15.7603C7.38708 15.5934 7.42014 15.4306 7.48627 15.2719C7.5524 15.1131 7.64959 14.9717 7.77784 14.8475C7.90609 14.7234 8.0634 14.6247 8.24976 14.5514C8.43613 14.4761 8.64955 14.4385 8.89002 14.4385C9.02428 14.4385 9.15453 14.4497 9.28078 14.4721C9.40903 14.4924 9.53027 14.524 9.64449 14.5667C9.75871 14.6074 9.86492 14.6573 9.96311 14.7163C10.0633 14.7733 10.1525 14.8384 10.2306 14.9116L9.97814 15.3909Z" fill="white"/>
<path d="M13.6152 14.4873V15.281H11.8177V16.319H13.1944V17.0821H11.8177V18.1414H13.6152V18.9351H10.7957V14.4873H13.6152Z" fill="white"/>
<path d="M17.1377 17.7843C17.1617 17.7843 17.1858 17.7894 17.2098 17.7995C17.2339 17.8077 17.2569 17.8229 17.2789 17.8453L17.6817 18.2758C17.5054 18.5098 17.2839 18.6869 17.0174 18.8069C16.7529 18.925 16.4393 18.984 16.0766 18.984C15.7439 18.984 15.4454 18.927 15.1808 18.813C14.9183 18.697 14.6949 18.5383 14.5105 18.3368C14.3282 18.1333 14.1879 17.8932 14.0897 17.6164C13.9915 17.3376 13.9424 17.0353 13.9424 16.7097C13.9424 16.378 13.9985 16.0737 14.1107 15.7969C14.223 15.5181 14.3793 15.278 14.5797 15.0765C14.7821 14.875 15.0235 14.7183 15.3041 14.6064C15.5846 14.4944 15.8942 14.4385 16.2329 14.4385C16.3972 14.4385 16.5515 14.4537 16.6958 14.4843C16.8421 14.5128 16.9784 14.5535 17.1046 14.6064C17.2308 14.6573 17.3471 14.7193 17.4533 14.7926C17.5595 14.8638 17.6537 14.9432 17.7358 15.0307L17.3932 15.4978C17.3711 15.5263 17.3451 15.5527 17.315 15.5771C17.285 15.5995 17.2429 15.6107 17.1888 15.6107C17.1527 15.6107 17.1186 15.6026 17.0866 15.5863C17.0545 15.57 17.0204 15.5507 16.9844 15.5283C16.9483 15.5039 16.9082 15.4784 16.8641 15.452C16.822 15.4235 16.7709 15.3981 16.7108 15.3757C16.6527 15.3512 16.5836 15.3309 16.5034 15.3146C16.4253 15.2983 16.3331 15.2902 16.2269 15.2902C16.0425 15.2902 15.8742 15.3238 15.7219 15.3909C15.5696 15.4561 15.4383 15.5507 15.3281 15.6748C15.2199 15.7969 15.1347 15.9455 15.0726 16.1205C15.0125 16.2956 14.9825 16.4919 14.9825 16.7097C14.9825 16.9376 15.0125 17.1401 15.0726 17.3172C15.1347 17.4943 15.2179 17.6438 15.3221 17.766C15.4283 17.886 15.5516 17.9776 15.6918 18.0407C15.8321 18.1038 15.9824 18.1353 16.1427 18.1353C16.2349 18.1353 16.3191 18.1313 16.3952 18.1231C16.4714 18.1129 16.5415 18.0967 16.6056 18.0743C16.6718 18.0519 16.7339 18.0234 16.792 17.9888C16.8521 17.9522 16.9122 17.9074 16.9723 17.8545C16.9964 17.8341 17.0224 17.8178 17.0505 17.8056C17.0785 17.7914 17.1076 17.7843 17.1377 17.7843Z" fill="white"/>
</svg>
