<svg width="26" height="10" viewBox="0 0 26 10" fill="none" xmlns="http://www.w3.org/2000/svg">
<path d="M3.18747 3.21716H0.666016L0.666016 0.903809H8.50244V3.21716H5.98044V9.96631H3.18747V3.21716V3.21716ZM8.93608 0.903809H16.5557V3.21716H11.7293V4.33305H16.5557V6.5099H11.7293V7.65296H16.5557V9.96631H8.93608V0.903809V0.903809ZM17.0163 0.903809H21.5989C24.6089 0.903809 25.666 3.13552 25.666 5.42163C25.666 8.19748 24.2015 9.96631 21.0564 9.96631H17.0163V0.903809V0.903809ZM19.8095 7.65296H20.8936C22.629 7.65296 22.8736 6.23807 22.8736 5.39447C22.8736 4.82271 22.6838 3.24439 20.6768 3.24439H19.7818L19.8095 7.65296V7.65296Z" fill="white"/>
</svg>
