<svg width="26" height="30" viewBox="0 0 26 30" fill="none" xmlns="http://www.w3.org/2000/svg">
<path d="M19.1948 11.1014C21.0189 12.4046 23.2534 13.1714 25.6669 13.1714V8.52961C25.2101 8.52971 24.7546 8.48211 24.3077 8.38748V12.0412C21.8945 12.0412 19.6602 11.2744 17.8356 9.9713V19.4439C17.8356 24.1825 13.9922 28.0237 9.25145 28.0237C7.48255 28.0237 5.83843 27.4892 4.47266 26.5725C6.03146 28.1655 8.20533 29.1538 10.6103 29.1538C15.3514 29.1538 19.195 25.3126 19.195 20.5737V11.1014H19.1948V11.1014ZM20.8715 6.41837C19.9393 5.40047 19.3273 4.08501 19.1948 2.63073V2.03369H17.9068C18.231 3.88209 19.3369 5.46126 20.8715 6.41837ZM7.47121 22.9362C6.95038 22.2536 6.66892 21.4187 6.67018 20.5602C6.67018 18.3929 8.42813 16.6356 10.597 16.6356C11.0012 16.6355 11.4029 16.6974 11.7881 16.8195V12.074C11.338 12.0123 10.8836 11.9862 10.4295 11.9958V15.6895C10.044 15.5673 9.64207 15.5053 9.23778 15.5056C7.06895 15.5056 5.3111 17.2627 5.3111 19.4303C5.3111 20.9629 6.18978 22.2898 7.47121 22.9362Z" fill="white"/>
<path d="M24.3067 8.38749V7.39954C23.092 7.40138 21.9012 7.06137 20.8706 6.41838C21.7829 7.4167 22.9842 8.10506 24.3067 8.38749ZM17.9058 2.03379C17.8749 1.85714 17.8512 1.67933 17.8347 1.50084V0.903809H13.1633V19.4439C13.1558 21.6049 11.401 23.355 9.23663 23.355C8.6012 23.355 8.00126 23.2043 7.46996 22.9364C8.1875 23.8775 9.32049 24.485 10.5958 24.485C12.7598 24.485 14.515 22.7351 14.5226 20.5738V2.03379H17.9058ZM10.4286 11.996V10.9442C10.0382 10.8909 9.6447 10.8641 9.25068 10.8643C4.50941 10.8642 0.666016 14.7056 0.666016 19.4439C0.666016 22.4145 2.17654 25.0325 4.47189 26.5725C2.95798 25.0258 2.02519 22.9088 2.02519 20.5737C2.02519 15.8958 5.77086 12.0921 10.4286 11.996Z" fill="white"/>
</svg>
