<svg width="20" height="18" viewBox="0 0 20 18" fill="none" xmlns="http://www.w3.org/2000/svg">
<g clip-path="url(#clip0_6194_139141)">
<path d="M17.7465 6.96568C17.7465 5.43923 17.0302 4.28711 16.0799 4.28711C15.1292 4.28711 14.4132 5.43923 14.4132 6.96568C14.4132 8.49213 15.1295 9.64425 16.0799 9.64425C17.0625 9.64425 17.7465 8.49247 17.7465 6.96568ZM15.5243 6.96568C15.5243 6.04961 15.763 5.35854 16.0799 5.35854C16.3967 5.35854 16.6354 6.04961 16.6354 6.96568C16.6354 7.88175 16.3967 8.57282 16.0799 8.57282C15.7952 8.57282 15.5243 7.88309 15.5243 6.96568ZM3.85765 6.96568C3.57987 6.96568 3.33299 7.2034 3.33299 7.50139C3.33299 7.79939 3.57987 8.03711 3.85765 8.03711C4.13543 8.03711 4.4132 7.79855 4.4132 7.50139C4.4132 7.20424 4.19793 6.96568 3.85765 6.96568ZM8.30209 8.03711C8.61025 8.03711 8.858 7.79862 8.858 7.53153C8.858 7.26444 8.64237 6.96568 8.30209 6.96568C7.99387 6.96568 7.74654 7.20417 7.74654 7.47126C7.74654 7.73835 8.02432 8.03711 8.30209 8.03711ZM6.07987 8.03711C6.38803 8.03711 6.63543 7.79848 6.63543 7.50139C6.63543 7.20431 6.42015 6.96568 6.07987 6.96568C5.73959 6.96568 5.52432 7.2034 5.52432 7.47126C5.52432 7.73912 5.80209 8.03711 6.07987 8.03711ZM10.5243 8.03711C10.8325 8.03711 11.0799 7.79855 11.0799 7.50139C11.0799 7.20424 10.8325 6.96568 10.5243 6.96568C10.2162 6.96568 9.96876 7.20431 9.96876 7.50139C9.96876 7.79848 10.2465 8.03711 10.5243 8.03711ZM16.0799 0.537109H4.96876C2.8507 0.537109 1.11042 3.41657 1.11042 6.96568V12.728C1.11042 14.1051 0.771883 14.829 0.0295211 16.9768C-0.0920068 17.3217 0.177056 17.68 0.554869 17.68H11.4195C11.9014 17.68 12.3222 17.387 12.4743 16.9474C12.8646 15.8251 13.3021 14.4657 13.3021 13.3943L13.3021 6.96903C13.3021 4.06278 14.6042 1.60854 16.0799 1.60854C17.5861 1.60854 18.8577 4.06211 18.8577 6.96568C18.8577 9.86925 17.5858 12.3228 16.0799 12.3228C15.7727 12.3228 15.5243 12.5624 15.5243 12.8585C15.5243 13.1547 15.7729 13.3943 16.0799 13.3943C18.2917 13.3943 20 10.5717 20 6.96568C20 3.35965 18.2917 0.537109 16.0799 0.537109ZM12.191 6.96568L12.1908 12.728C12.1908 14.3619 11.8448 15.2498 11.3922 16.6085H1.32744C2.24862 14.2989 2.22154 13.1666 2.22154 12.728V6.96568C2.22154 3.80999 3.68438 1.60854 4.99932 1.60854H13.9333C12.8958 2.75095 12.191 4.70564 12.191 6.96568Z" fill="white"/>
</g>
<defs>
<clipPath id="clip0_6194_139141">
<rect width="20" height="17.1429" fill="white" transform="translate(0 0.537109)"/>
</clipPath>
</defs>
</svg>
