<svg width="25" height="17" viewBox="0 0 25 17" fill="none" xmlns="http://www.w3.org/2000/svg">
<path d="M22.9567 4.754L25 2.52846H20.4688C18.2004 0.977187 15.4609 0.0737305 12.4981 0.0737305C9.53908 0.0737305 6.80718 0.979136 4.54252 2.52846H0L2.04329 4.754C0.79085 5.89799 0.00569584 7.54587 0.00569584 9.37554C0.00569584 12.8284 2.80201 15.6278 6.251 15.6278C7.88942 15.6278 9.38212 14.9952 10.4965 13.9611L12.4981 16.143L14.4998 13.963C15.6142 14.9971 17.105 15.6278 18.7434 15.6278C22.1924 15.6278 24.9925 12.8284 24.9925 9.37554C24.9943 7.54397 24.2092 5.89614 22.9567 4.754ZM6.25285 13.6069C3.91818 13.6069 2.0263 11.7129 2.0263 9.37554C2.0263 7.03823 3.91822 5.14417 6.25285 5.14417C8.58747 5.14417 10.4794 7.03823 10.4794 9.37554C10.4794 11.7129 8.58747 13.6069 6.25285 13.6069ZM12.5 9.25242C12.5 6.46811 10.4775 4.07782 7.80801 3.0569C9.25155 2.45266 10.8351 2.11743 12.4981 2.11743C14.1611 2.11743 15.7465 2.45266 17.1901 3.0569C14.5225 4.07972 12.5 6.46816 12.5 9.25242ZM18.7453 13.6069C16.4106 13.6069 14.5187 11.7129 14.5187 9.37554C14.5187 7.03823 16.4106 5.14417 18.7453 5.14417C21.08 5.14417 22.9719 7.03823 22.9719 9.37554C22.9719 11.7129 21.0799 13.6069 18.7453 13.6069ZM18.7453 7.15565C17.5212 7.15565 16.5298 8.14816 16.5298 9.37364C16.5298 10.5991 17.5212 11.5916 18.7453 11.5916C19.9694 11.5916 20.9607 10.5991 20.9607 9.37364C20.9607 8.15006 19.9694 7.15565 18.7453 7.15565ZM8.46829 9.37554C8.46829 10.601 7.4769 11.5935 6.25285 11.5935C5.02879 11.5935 4.03741 10.601 4.03741 9.37554C4.03741 8.15006 5.02879 7.15755 6.25285 7.15755C7.4769 7.15565 8.46829 8.15006 8.46829 9.37554Z" fill="white"/>
</svg>
