<svg width="25" height="22" viewBox="0 0 25 22" fill="none" xmlns="http://www.w3.org/2000/svg">
<path d="M22.4303 6.01633C22.4461 6.2384 22.4461 6.46052 22.4461 6.68259C22.4461 13.4561 17.2907 21.2607 7.86805 21.2607C4.96511 21.2607 2.26842 20.4199 0 18.9606C0.412453 19.0081 0.808988 19.024 1.23731 19.024C3.63258 19.024 5.83757 18.215 7.59837 16.8349C5.34582 16.7873 3.45812 15.3121 2.80773 13.2816C3.12501 13.3292 3.44225 13.3609 3.77541 13.3609C4.23542 13.3609 4.69548 13.2974 5.12375 13.1864C2.77604 12.7105 1.01519 10.6483 1.01519 8.15784V8.09441C1.69727 8.47513 2.49049 8.71307 3.33117 8.74476C1.95108 7.82469 1.04693 6.25427 1.04693 4.4776C1.04693 3.52584 1.30069 2.65338 1.74488 1.89195C4.26711 5.00109 8.05838 7.03152 12.3096 7.25364C12.2303 6.87292 12.1827 6.47639 12.1827 6.07981C12.1827 3.25616 14.467 0.956055 17.3065 0.956055C18.7817 0.956055 20.1142 1.57471 21.0501 2.57408C22.2081 2.35201 23.3185 1.92369 24.3021 1.33677C23.9213 2.52652 23.1123 3.52589 22.0495 4.16036C23.0806 4.04938 24.08 3.76378 25 3.36725C24.3021 4.38244 23.4296 5.28659 22.4303 6.01633V6.01633Z" fill="white"/>
</svg>
