<svg width="23" height="12" viewBox="0 0 23 12" fill="none" xmlns="http://www.w3.org/2000/svg">
<path d="M11.2468 3.25439C10.4754 3.65067 9.79 4.13644 9.2832 4.46418V7.63245C9.2832 7.68476 9.32587 7.72729 9.37776 7.72729V7.72784H11.1835H11.4731C11.5053 7.72403 11.5309 7.6953 11.5309 7.66159C11.5309 7.64424 11.5247 7.62947 11.5141 7.61781C11.2815 7.41211 11.2513 7.29965 11.2486 6.87757L11.2468 3.25439Z" fill="white"/>
<path d="M15.2188 1.08198C15.217 1.06346 15.1989 1.04868 15.1209 1.06692C13.997 1.3275 11.7555 2.15245 10.5932 2.67631H9.33981C9.30637 2.67631 9.2832 2.72501 9.2832 2.76303V3.84002C10.9293 2.8544 12.903 1.91484 15.1902 1.11459C15.2161 1.10578 15.2201 1.09141 15.2188 1.08198V1.08198Z" fill="white"/>
<path d="M10.8158 10.9857C11.4382 10.9156 13.4431 10.0629 14.6766 9.48655C20.1119 6.94566 23.6904 3.38514 22.882 1.69077C22.6807 1.26793 22.2337 0.993476 21.5714 0.860482C21.5222 0.853753 21.5116 0.879283 21.5459 0.894199C21.7569 0.990562 22.0244 1.21638 22.145 1.45122C22.638 2.40791 21.6758 3.98289 19.7731 5.66505C19.3834 5.99195 18.2425 6.80011 18.2425 6.80011C17.7895 6.96702 17.2485 7.01746 16.8127 6.98735C14.9197 6.85498 14.5911 5.82066 14.6566 5.13439C14.7266 4.38763 15.4461 3.68027 16.8328 3.68027C17.2948 3.68027 17.6276 3.75159 17.875 3.83678C17.8833 3.84032 17.9048 3.84344 17.9125 3.8433C17.9598 3.8433 17.9988 3.80792 18.0064 3.76345H18.0069L18.1321 2.89535C18.1349 2.86101 18.1386 2.80169 18.0681 2.77998C17.8963 2.74036 17.1794 2.60792 16.5329 2.60876C13.8524 2.61382 12.8239 3.95548 12.7743 5.27335C12.7251 6.58518 13.6422 7.7106 16.0018 7.80765C16.4465 7.82555 16.6943 7.7926 16.9199 7.73682C16.9542 7.72732 17.0457 7.68847 17.0576 7.68083C17.0711 7.67244 17.0995 7.67341 17.0675 7.70414C16.901 7.86635 15.2028 8.85627 14.1651 9.39151C12.99 9.99681 11.8747 10.4907 10.7721 10.9034C10.7132 10.9271 10.7137 10.9971 10.8158 10.9857V10.9857Z" fill="white"/>
<path d="M1.05465 2.67773C1.02162 2.68189 0.996094 2.70936 0.996094 2.74294C0.996094 2.75973 1.00303 2.77562 1.01274 2.78686C1.24619 2.99283 1.27734 3.1037 1.27915 3.52641V5.66325C1.27915 7.79906 3.60199 7.82341 4.09241 7.66288C4.11017 7.65719 4.13508 7.68237 4.11045 7.69999L4.10462 7.70353C4.05717 7.73808 4.00514 7.78227 3.95928 7.835C2.62414 9.42371 2.43065 11.3339 3.95873 11.6576C3.95928 11.6576 3.95928 11.6576 3.95977 11.6576C4.05474 11.6779 4.06598 11.6434 4.00708 11.603C3.76655 11.4637 3.58909 11.2847 3.48232 11.0639C3.04928 10.1676 3.92036 8.50649 5.55347 7.22616V7.63332C5.55347 7.6848 5.59558 7.72747 5.64671 7.72816H7.34767C7.3997 7.72747 7.44563 7.6848 7.44563 7.63332V2.77187C7.44563 2.71991 7.3997 2.6778 7.34767 2.67676H5.64657C5.59551 2.6778 5.55333 2.71998 5.55333 2.77187V6.77632C5.11703 6.90696 3.27558 7.32918 3.27558 5.52998V2.77187H3.27516C3.27516 2.7206 3.23423 2.67919 3.18331 2.6778H1.05465V2.67773Z" fill="white"/>
</svg>
