<svg width="26" height="23" viewBox="0 0 26 23" fill="none" xmlns="http://www.w3.org/2000/svg">
<g clip-path="url(#clip0_6194_139030)">
<path d="M2.10153 13.5491L2.16845 13.6047C2.09595 13.1045 2.05691 12.5597 2.20191 12.0817C2.41942 11.3147 2.69269 10.5698 2.83212 9.775C2.94366 9.15802 3.07193 8.46323 2.99943 7.86848C2.91577 8.19087 2.83212 8.5077 2.65365 8.78561C1.97883 9.82503 1.28729 11.0479 1.76133 12.3708C1.75018 12.3874 1.73345 12.4041 1.71672 12.393C1.5271 11.9539 1.48248 11.4592 1.35979 10.9923C1.03074 9.75277 0.0770758 8.71335 0.355926 7.2793C0.205347 7.59057 0.149577 7.94074 0.0714988 8.2798C-0.0958114 9.15802 0.0714988 10.0863 0.31131 10.8978C0.606891 11.9039 1.59402 12.6264 2.10153 13.5491Z" fill="white"/>
<path d="M1.84513 7.1124C2.06821 6.65662 2.43071 6.22306 2.86572 5.90068C3.82497 5.17809 4.87344 4.24429 4.89017 3.02145C4.56671 3.89967 3.60189 4.26652 2.96053 4.86682C2.62033 5.18365 2.35821 5.56718 2.20763 5.96738L2.18533 5.9507C2.2634 5.59497 2.41398 5.27814 2.51995 4.93352C2.7988 3.99972 2.7486 2.88249 3.66323 2.25439C3.19476 2.37668 2.7988 2.67683 2.44745 3.06592C1.7057 3.88299 1.77263 5.08916 1.86744 6.15636C1.9009 6.48987 1.88417 6.77334 1.84513 7.1124Z" fill="white"/>
<path d="M2.96094 4.4499C3.47402 3.97188 4.06518 3.61615 4.50019 3.0492C5.01885 2.36552 5.47059 1.59846 6.15098 1.00928C5.23078 1.36501 4.23807 1.73186 3.64133 2.67679C3.28998 3.22706 3.23421 3.87739 2.96094 4.4499Z" fill="white"/>
<path d="M3.34517 6.86783C3.56825 6.4176 3.70767 5.90623 3.76902 5.41154C3.68536 5.62276 3.55709 5.8173 3.37863 5.98405C2.63131 6.68996 1.75572 7.3792 1.58841 8.3797C1.5661 8.52422 1.54937 8.66874 1.51033 8.8077C1.47687 8.82437 1.47687 8.78546 1.46572 8.77435L1.56053 7.54039C1.64976 6.33423 1.01398 4.99466 1.7111 3.93301C1.6888 3.92746 1.67207 3.94969 1.65533 3.95525C1.01956 4.76121 0.595703 5.65055 0.595703 6.73443C0.595703 8.07399 1.37091 9.01336 1.46572 10.2695C1.66649 8.95777 2.77074 8.02397 3.34517 6.86783Z" fill="white"/>
<path d="M1.86786 15.0996C2.58729 15.6666 3.44615 16.1057 4.10424 16.6059C3.97597 16.278 3.76404 15.9778 3.68039 15.6388C3.29557 14.088 3.5075 12.2871 2.84384 10.853C2.96653 11.6701 2.64306 12.3927 2.57056 13.1709C2.50922 13.8101 2.62076 14.4326 2.87172 14.9662C2.94422 15.1274 3.07807 15.2664 3.11711 15.4331C2.8773 15.2163 2.70441 14.944 2.54268 14.6772C1.76747 13.4265 0.144565 12.615 0.0330251 11.092C-0.0227449 11.7702 0.0386022 12.4872 0.261682 13.0875C0.568418 13.9101 1.17073 14.5493 1.86786 15.0996Z" fill="white"/>
<path d="M11.6497 19.207C10.3949 19.207 9.26834 19.8129 8.16967 20.2687C7.17139 20.68 5.84963 20.6022 4.96289 19.9908C5.3979 20.5355 5.98348 20.8745 6.59138 21.1024C7.71236 21.5471 9.02295 21.208 9.9822 20.5966C10.6682 20.1575 11.2593 19.535 12.0792 19.535C13.4009 19.535 14.7896 20.8857 15.9775 22.1085C16.1615 21.9584 16.3567 21.8028 16.5073 21.6305C15.2636 20.4521 13.5069 19.207 11.6497 19.207Z" fill="white"/>
<path d="M9.40814 19.3407C9.60334 19.2907 9.83757 19.3074 10.016 19.2407C9.26872 19.0906 8.54929 18.8627 7.96928 18.3347C7.1383 17.5787 6.40214 16.7728 5.51539 16.1836C6.21252 17.1174 6.40772 18.4736 7.67927 18.9461C7.90235 19.0295 8.16447 19.0462 8.35967 19.1684C8.11428 19.2073 7.90235 19.1295 7.6737 19.0795C6.03406 18.7293 4.03749 19.1796 2.81055 17.79C3.27344 18.7015 4.23268 19.4186 5.15847 19.7187C6.5806 20.1967 8.06966 19.6687 9.40814 19.3407Z" fill="white"/>
<path d="M6.66391 18.6572C5.5987 17.8012 5.43697 16.5172 4.96292 15.3945C4.66734 14.6941 4.18772 14.066 3.67463 13.4546C4.23791 14.5774 3.99252 16.0226 4.72311 17.0786C4.95177 17.4121 5.26966 17.729 5.56524 17.9902L5.55408 18.0069C5.28639 17.8846 5.04658 17.6956 4.80119 17.4955C3.52405 16.4339 1.59999 16.3005 0.835938 14.5718C1.04229 15.8391 2.05172 16.9619 3.14482 17.6734C4.18214 18.3515 5.51504 18.2792 6.66391 18.6572Z" fill="white"/>
<path d="M21.5026 3.0492C21.9376 3.62171 22.5288 3.97188 23.0419 4.4499C22.7686 3.87739 22.7129 3.22706 22.3671 2.67679C21.7703 1.73186 20.7776 1.36501 19.8574 1.00928C20.5267 1.59846 20.9784 2.35996 21.5026 3.0492Z" fill="white"/>
<path d="M23.4838 4.93353C23.5842 5.27259 23.7348 5.59497 23.8184 5.95071L23.7961 5.96738C23.6455 5.56718 23.3834 5.18365 23.0432 4.86682C22.4019 4.26096 21.437 3.89967 21.1191 3.01589C21.1359 4.24429 22.1843 5.17809 23.1436 5.89512C23.573 6.21751 23.9411 6.65106 24.1642 7.10684C24.1251 6.76778 24.1084 6.48431 24.1419 6.15636C24.2423 5.0836 24.3036 3.88299 23.5674 3.06592C23.2161 2.67683 22.8201 2.37112 22.3517 2.25439C23.2551 2.88249 23.2049 3.99972 23.4838 4.93353Z" fill="white"/>
<path d="M24.4429 7.53505L24.5377 8.76901C24.5265 8.78013 24.5265 8.81348 24.4931 8.80236C24.454 8.6634 24.4373 8.51888 24.415 8.37436C24.2477 7.37942 23.3665 6.68462 22.6248 5.97871C22.4463 5.81196 22.318 5.61742 22.2344 5.4062C22.2957 5.90089 22.4351 6.41226 22.6582 6.86249C23.2327 8.01863 24.3369 8.95243 24.5377 10.2698C24.6325 9.00802 25.4077 8.07421 25.4077 6.73465C25.4077 5.65077 24.9838 4.76143 24.3481 3.95547C24.3313 3.94435 24.3146 3.92767 24.2923 3.93323C24.9894 4.99488 24.3481 6.33445 24.4429 7.53505Z" fill="white"/>
<path d="M24.6432 10.9861C24.5205 11.453 24.4759 11.9533 24.2863 12.3868C24.2696 12.3979 24.2528 12.3757 24.2417 12.3646C24.7157 11.0417 24.0242 9.82443 23.3493 8.77945C23.1709 8.50709 23.0872 8.18471 23.0036 7.86232C22.9311 8.46263 23.0593 9.15186 23.1709 9.76884C23.3159 10.5637 23.5836 11.3085 23.8011 12.0756C23.9461 12.5536 23.907 13.0927 23.8345 13.5986L23.9015 13.543C24.4034 12.6203 25.3961 11.8977 25.6973 10.8861C25.9371 10.0801 26.1044 9.14631 25.9371 8.26808C25.859 7.92902 25.7977 7.57885 25.6527 7.26758C25.9259 8.70719 24.9723 9.74661 24.6432 10.9861Z" fill="white"/>
<path d="M17.8284 20.2687C16.7242 19.8129 15.6032 19.207 14.3484 19.207C12.4968 19.207 10.7345 20.4577 9.50195 21.6305C9.65253 21.8028 9.84773 21.964 10.0318 22.1085C11.2141 20.8912 12.6083 19.535 13.9301 19.535C14.7499 19.535 15.3411 20.1575 16.027 20.5966C16.9807 21.2025 18.2913 21.5471 19.4179 21.1024C20.0202 20.8745 20.6058 20.5355 21.0464 19.9908C20.154 20.5966 18.8267 20.68 17.8284 20.2687Z" fill="white"/>
<path d="M23.4678 14.6659C23.3005 14.9327 23.1332 15.2107 22.8934 15.4219C22.9324 15.2607 23.0663 15.1162 23.1388 14.955C23.3897 14.4158 23.5013 13.7988 23.4399 13.1596C23.3618 12.3815 23.0384 11.6589 23.1667 10.8418C22.4974 12.2759 22.7149 14.0768 22.3301 15.6275C22.2464 15.9722 22.0345 16.2723 21.9062 16.5947C22.5643 16.0944 23.4232 15.6553 24.1426 15.0884C24.8398 14.5437 25.4421 13.8989 25.76 13.0651C25.9886 12.4648 26.0444 11.7478 25.9886 11.0697C25.8715 12.6038 24.243 13.4153 23.4678 14.6659Z" fill="white"/>
<path d="M21.1908 17.4955C20.9455 17.6956 20.7056 17.8846 20.4379 18.0069L20.4268 17.9902C20.7224 17.7234 21.0403 17.4066 21.2689 17.0786C21.9995 16.0226 21.7541 14.5718 22.3174 13.4546C21.8043 14.066 21.3247 14.6941 21.0291 15.3945C20.5551 16.5172 20.3933 17.8012 19.3281 18.6572C20.477 18.2792 21.8099 18.3515 22.8416 17.6789C23.9292 16.9675 24.9386 15.8447 25.1505 14.5774C24.392 16.3005 22.4736 16.4339 21.1908 17.4955Z" fill="white"/>
<path d="M18.3306 19.0854C18.102 19.1354 17.89 19.2076 17.6447 19.1743C17.8398 19.052 18.0964 19.0353 18.325 18.952C19.5966 18.4739 19.7918 17.1177 20.4889 16.1895C19.6022 16.7786 18.866 17.5846 18.035 18.3405C17.455 18.8686 16.7356 19.0909 15.9883 19.2466C16.1667 19.3133 16.401 19.2966 16.5962 19.3466C17.9402 19.6801 19.4237 20.2026 20.8514 19.7301C21.7716 19.4244 22.7309 18.7074 23.1994 17.8014C21.9668 19.1854 19.9647 18.7407 18.3306 19.0854Z" fill="white"/>
<path d="M12.9989 0.108887C7.92386 0.108887 3.79688 4.22207 3.79688 9.28018C3.79688 14.3383 7.92386 18.4515 12.9989 18.4515C18.074 18.4515 22.201 14.3383 22.201 9.28018C22.201 4.22207 18.074 0.108887 12.9989 0.108887ZM12.9989 11.0311C12.0285 11.0311 11.2422 10.2473 11.2422 9.28018C11.2422 8.31303 12.0285 7.5293 12.9989 7.5293C13.9693 7.5293 14.7557 8.31303 14.7557 9.28018C14.7557 10.2473 13.9693 11.0311 12.9989 11.0311ZM14.3207 7.80722C13.9972 7.51818 13.5789 7.33476 13.1161 7.30697V5.80621C13.9916 5.834 14.7892 6.18418 15.3859 6.74557L14.3207 7.80722ZM12.8874 7.30697C12.4245 7.33476 12.0062 7.51818 11.6828 7.80722L10.6176 6.74557C11.2143 6.18418 12.0118 5.834 12.8874 5.80621V7.30697ZM11.5266 7.96841C11.2366 8.2908 11.0526 8.70767 11.0247 9.16902H9.51888C9.54677 8.29635 9.89812 7.50151 10.4614 6.90676L11.5266 7.96841ZM11.0247 9.39135C11.0526 9.8527 11.2366 10.2696 11.5266 10.592L10.4614 11.6536C9.89812 11.0589 9.54677 10.264 9.51888 9.39135H11.0247ZM11.6828 10.7531C12.0062 11.0422 12.4245 11.2256 12.8874 11.2534V12.7542C12.0118 12.7264 11.2143 12.3762 10.6176 11.8148L11.6828 10.7531ZM13.1105 11.2478C13.5734 11.2201 13.9916 11.0366 14.3151 10.7476L15.3803 11.8092C14.7836 12.3706 13.9861 12.7208 13.1105 12.7486V11.2478ZM14.4768 10.592C14.7668 10.2696 14.9509 9.8527 14.9788 9.39135H16.4846C16.4567 10.264 16.1053 11.0589 15.542 11.6536L14.4768 10.592ZM14.9788 9.16902C14.9509 8.70767 14.7668 8.2908 14.4768 7.96841L15.542 6.90676C16.1053 7.50151 16.4567 8.29635 16.4846 9.16902H14.9788ZM15.542 6.58994C14.9007 5.98963 14.053 5.61166 13.1105 5.58387V3.91636C14.5103 3.94416 15.7819 4.51111 16.7244 5.41156L15.542 6.58994ZM12.8874 5.58387C11.9505 5.61166 11.0972 5.98963 10.4558 6.58994L9.27349 5.41156C10.216 4.51111 11.4876 3.94416 12.8874 3.91636V5.58387ZM10.2997 6.74557C9.69735 7.38478 9.31811 8.22965 9.29022 9.16902H7.61712C7.64501 7.77387 8.21386 6.50656 9.11734 5.5672L10.2997 6.74557ZM9.2958 9.39135C9.32369 10.3252 9.70292 11.1756 10.3052 11.8148L9.11734 12.9932C8.21386 12.0538 7.64501 10.7865 7.61712 9.39135H9.2958ZM10.4614 11.9704C11.1028 12.5707 11.9505 12.9487 12.893 12.9765V14.644C11.4931 14.6162 10.2216 14.0493 9.27907 13.1488L10.4614 11.9704ZM13.1105 12.9709C14.0474 12.9431 14.9007 12.5652 15.542 11.9649L16.7244 13.1432C15.7819 14.0437 14.5103 14.6107 13.1105 14.6384V12.9709ZM15.6982 11.8092C16.3005 11.17 16.6798 10.3252 16.7076 9.38579H18.3807C18.3529 10.7809 17.784 12.0482 16.8805 12.9876L15.6982 11.8092ZM16.7076 9.16902C16.6798 8.23521 16.3005 7.38478 15.6982 6.74557L16.8805 5.5672C17.784 6.50656 18.3529 7.77387 18.3807 9.16902H16.7076ZM16.8805 5.25593C15.899 4.31657 14.5716 3.72738 13.1105 3.69959V2.22106C14.9788 2.24886 16.6742 3.00479 17.9234 4.21096L16.8805 5.25593ZM12.8874 3.69403C11.4262 3.72182 10.0989 4.31101 9.11734 5.25037L8.07444 4.21096C9.32369 3.00479 11.0191 2.24886 12.8874 2.22106V3.69403ZM8.96118 5.41156C8.01867 6.38984 7.42751 7.71273 7.39962 9.16902H5.92171C5.9496 7.30697 6.70807 5.61722 7.91828 4.37215L8.96118 5.41156ZM7.39962 9.39135C7.42751 10.8476 8.01867 12.1705 8.96118 13.1488L7.91828 14.1882C6.70807 12.9431 5.9496 11.2534 5.92171 9.39135H7.39962ZM9.11734 13.3044C10.0989 14.2438 11.4262 14.833 12.8874 14.8608V16.3337C11.0191 16.306 9.32369 15.55 8.07444 14.3439L9.11734 13.3044ZM13.1105 14.8663C14.5716 14.8385 15.899 14.2494 16.8805 13.31L17.9234 14.3494C16.6742 15.5556 14.9788 16.3115 13.1105 16.3393V14.8663V14.8663ZM17.0423 13.1488C17.9848 12.1705 18.5759 10.8476 18.6038 9.39135H20.0817C20.0538 11.2534 19.2954 12.9431 18.0852 14.1882L17.0423 13.1488ZM18.6038 9.16902C18.5759 7.71273 17.9848 6.38984 17.0423 5.41156L18.0852 4.37215C19.2954 5.61722 20.0538 7.30697 20.0817 9.16902H18.6038ZM18.0852 4.05532C16.7913 2.80469 15.0457 2.02652 13.1105 1.99873V0.331221C15.503 0.359013 17.6725 1.32617 19.2675 2.87695L18.0852 4.05532ZM12.8874 1.99873C10.9577 2.02652 9.20657 2.80469 7.9127 4.05532L6.73596 2.87695C8.33098 1.32617 10.5004 0.359013 12.893 0.331221V1.99873H12.8874ZM7.75655 4.21096C6.50172 5.5005 5.72094 7.24026 5.69306 9.16902H4.01996C4.04784 6.78448 5.01824 4.62228 6.57422 3.03258L7.75655 4.21096ZM5.69863 9.39135C5.72652 11.3145 6.5073 13.0599 7.76213 14.3494L6.57422 15.5222C5.01824 13.9381 4.05342 11.7759 4.02553 9.39135H5.69863ZM7.91828 14.505C9.21215 15.7557 10.9577 16.5338 12.893 16.5616V18.2291C10.5004 18.2014 8.33098 17.2342 6.73596 15.6834L7.91828 14.505ZM13.1105 16.5616C15.0401 16.5338 16.7913 15.7557 18.0852 14.505L19.2675 15.6834C17.6725 17.2342 15.503 18.2014 13.1105 18.2291V16.5616ZM18.2413 14.3439C19.4961 13.0543 20.2769 11.3145 20.3048 9.38579H21.9779C21.95 11.7703 20.9796 13.9325 19.4236 15.5222L18.2413 14.3439ZM20.3048 9.16902C20.2769 7.24582 19.4961 5.5005 18.2413 4.21096L19.4236 3.03258C20.9796 4.62228 21.95 6.78448 21.9779 9.16902H20.3048Z" fill="white"/>
<path d="M13.5284 7.15723L13.4727 7.16279V7.22948L13.5284 7.22393V7.15723Z" fill="white"/>
<path d="M13.4612 7.06836H13.3887V7.12394H13.4612V7.06836Z" fill="white"/>
<path d="M13.2539 7.05119L13.3208 7.06231L13.3264 7.00672L13.2595 6.99561L13.2539 7.05119Z" fill="white"/>
<path d="M13.1981 7.02941L13.1367 7.02385L13.1423 6.96826L13.2092 6.97382L13.1981 7.02941Z" fill="white"/>
<path d="M12.7366 6.95703H12.6641V7.01261H12.7366V6.95703Z" fill="white"/>
<path d="M12.502 7.06828L12.5689 7.07939L12.5745 7.02381L12.5131 7.0127L12.502 7.06828Z" fill="white"/>
<path d="M12.5136 7.15692L12.4355 7.13469L12.4523 7.0791L12.5248 7.10134L12.5136 7.15692Z" fill="white"/>
<path d="M12.3803 7.22393L12.3691 7.16834L12.4249 7.15723L12.4361 7.21281L12.3803 7.22393Z" fill="white"/>
<path d="M5.1018 12.9768V13.0991H5.15757L5.14641 12.9601L5.07391 12.9323V12.8823H5.0293V12.9768H5.1018Z" fill="white"/>
<path d="M5.49219 13.3159L5.63161 13.3826L5.67623 13.5105L5.74315 13.5605L5.8045 13.6994L5.77104 13.7661L5.66508 13.6717L5.59257 13.566L5.55353 13.4827L5.49219 13.3159Z" fill="white"/>
<path d="M7.83413 16.2007L7.88432 16.323L7.8174 16.3619L7.77836 16.3063L7.68912 16.2785L7.67797 16.1952L7.60547 16.084L7.71701 16.1007L7.83413 16.2007Z" fill="white"/>
<path d="M12.7139 7.76283H12.6135L12.5968 7.55717L12.6526 7.51827V7.41266H12.3291L12.3179 7.30705L12.3625 7.27926L12.29 7.25146L12.2343 7.32372L12.2175 7.4071L12.1227 7.42377V7.46824H12.0558V7.59053L11.7937 7.8073L11.275 7.79063C11.236 7.874 11.1468 7.77951 11.1468 7.77951C11.13 7.72393 10.9962 7.77951 10.9962 7.77951C10.9962 7.88512 10.8177 7.73504 10.8177 7.73504L10.4942 7.50159C10.3102 7.33484 10.0314 7.54606 10.0202 7.59608C10.0314 7.72948 9.80828 7.62388 9.80828 7.62388C9.80828 7.62388 9.62424 7.56829 9.59635 7.64055C9.56847 7.71281 9.44577 7.69613 9.44577 7.69613L9.42904 7.73504L9.33423 7.75172L9.3175 7.8073L9.20596 7.82398L9.48481 7.81286C9.55731 7.80174 9.45693 7.97405 9.41231 7.96294L9.28404 7.97405L9.23942 8.01852H9.11673L9.06096 8.09634L8.88249 8.08522C8.88249 8.08522 8.78211 8.16859 8.78769 8.19639C8.79884 8.22418 8.77095 8.30755 8.74307 8.30755C8.71518 8.30755 8.65941 8.39093 8.67615 8.41872C8.69288 8.44651 8.62038 8.54101 8.62038 8.54101L8.60364 8.6355L8.54787 8.65217V8.90786L8.43633 8.98567V9.09684L8.26902 9.27471L8.28576 9.42479L8.14633 9.57486L8.16306 9.72494L8.07941 9.75273L8.06267 9.81943L8.02364 10.014L8.11844 10.0251C8.16306 10.0084 8.15748 10.1474 8.11844 10.164C8.07941 10.1807 7.97902 10.2196 8.03479 10.2585C8.09056 10.2974 7.88421 10.2863 7.88421 10.2307C7.88421 10.1752 7.77267 10.1251 7.74479 10.1474C7.7169 10.164 7.67228 10.064 7.67228 10.064C7.5719 9.95839 7.25401 10.0751 7.25401 10.0751L7.20939 10.2252C7.10901 10.2419 7.04208 10.4142 7.04208 10.4142C6.95843 10.442 6.8915 10.5476 6.91939 10.5754C6.94727 10.6032 6.87477 10.6143 6.87477 10.6143V10.8199L6.83016 10.8866L6.84131 11.109C6.89708 11.109 6.88593 11.2146 6.88593 11.2146C6.79112 11.2257 6.81343 11.348 6.81343 11.348L6.61823 11.4147L6.57919 11.4703L6.33938 11.4591L6.27246 11.5258L6.20553 11.4591H5.74264L5.72591 11.4147L5.6311 11.398L5.61995 11.2924L5.48052 11.3035L5.45264 11.3591L5.30206 11.3702C5.31321 11.4647 5.15148 11.6037 5.13475 11.5648C5.11802 11.5258 5.01205 11.4258 5.06225 11.4036C5.10686 11.3869 5.22956 11.3647 5.22956 11.3647V11.298L4.88378 11.2868L4.84474 11.3424L4.70532 11.3535V11.5036L4.63839 11.5203C4.59378 11.5481 4.64955 11.6537 4.64955 11.6537C4.71647 11.7204 4.63839 11.8204 4.63839 11.8204C4.58262 11.876 4.68301 11.9816 4.68301 11.9816C4.75551 11.9983 4.63839 12.0539 4.63839 12.0539C4.65512 12.1484 4.71089 12.1762 4.71089 12.1762C4.65512 12.2707 4.74993 12.3151 4.74993 12.3151L4.76109 12.4763L4.82801 12.5152V12.6208L4.86705 12.6875H5.01763L5.00648 12.4541C4.87821 12.304 5.11802 12.2651 5.12917 12.3207C5.14032 12.3763 5.24071 12.4041 5.24071 12.4041C5.25744 12.543 5.41917 12.6264 5.46379 12.4874C5.50841 12.3485 5.54745 12.4319 5.57533 12.4986C5.60322 12.5653 5.78168 12.7265 5.78168 12.7265H5.92111L5.93784 12.8599C6.09399 12.8487 6.14419 12.871 6.20553 13.0822C6.27246 13.299 6.44534 13.3545 6.44534 13.3545L6.57361 13.3434C6.57361 13.2323 6.70189 13.3601 6.70189 13.4212C6.70189 13.4768 6.95285 13.6936 6.95285 13.6936L7.20382 13.7492L7.43805 13.9382L7.61651 13.9215H7.68902C7.73363 13.7603 7.95671 13.9326 7.97902 13.9882C7.99575 14.0438 8.14633 14.1383 8.16306 14.0938C8.17979 14.0493 8.28576 14.0771 8.30249 14.2161C8.31922 14.3551 8.38614 14.3273 8.38614 14.3273L8.91596 14.3161L9.1 14.155L9.57404 14.1438C9.81385 14.1327 9.66885 13.8048 9.61866 13.8048C9.535 13.7381 9.64654 13.4657 9.64654 13.4657L8.97173 12.8376C8.81557 12.8376 8.955 12.6097 8.955 12.6097C9.07769 12.5319 8.92711 12.4152 8.92711 12.4152C8.94384 12.304 8.86019 12.1706 8.86019 12.1706C8.69288 12.0595 8.73749 11.8427 8.73749 11.8427V11.6926C8.59807 11.5592 8.79326 11.5425 8.79326 11.5425C8.86019 11.4314 8.74865 11.348 8.74865 11.348L8.73749 11.2257L8.58691 11.209L8.57018 10.7699L8.23556 10.2919C8.16864 10.2752 8.21883 10.1585 8.21883 10.1585C8.30249 10.114 8.2021 9.9973 8.2021 9.9973L8.19095 9.79164L8.38614 9.77496L8.43076 9.7027H8.52557L8.51441 9.45814C8.55903 9.33585 8.67057 9.40255 8.67057 9.40255L8.79884 9.41367L8.87134 9.27471L8.88807 9.16354L8.78769 9.15243C8.67615 9.08572 8.73192 8.84116 8.73192 8.84116C8.91038 8.57991 9.11115 8.72999 9.11115 8.72999L9.23942 8.71887C9.43462 8.85227 9.25615 9.09128 9.25615 9.09128C9.21712 9.14687 9.23942 9.32473 9.23942 9.32473L9.28404 9.62489L9.16134 9.7305C9.06096 9.78608 9.06096 9.91948 9.1725 9.94727C9.245 9.95839 9.21711 10.1363 9.10557 10.014C8.93826 10.014 9.20038 10.164 9.12231 10.1251C9.28962 10.2085 9.25058 10.0529 9.25058 10.0529L9.47366 9.87501C9.55731 9.80831 9.70789 10.014 9.70789 10.0418C9.70789 10.0696 10.076 10.0529 10.076 10.0529C10.1764 10.1196 10.2154 10.2863 10.2154 10.2863C10.3158 10.1529 10.5333 10.2752 10.3716 10.353C10.5221 10.4475 10.5221 10.5309 10.5221 10.5309C10.6448 10.492 10.6448 10.5865 10.6448 10.6143C10.6448 10.6421 10.6839 10.4753 10.6839 10.4753C10.5444 10.3697 10.8679 10.3364 10.7787 10.5198L10.7229 10.6032L10.8177 10.6754L10.8289 10.8922C11.0352 10.8755 10.9794 10.6198 10.9794 10.6198L11.0743 10.6032C11.0743 10.5198 11.1412 10.5643 11.1412 10.5643C11.0743 10.2474 11.2918 10.1918 11.2918 10.1918C11.4145 10.164 11.42 9.90836 11.42 9.90836C11.3364 9.86945 11.381 9.74161 11.4758 9.85278C11.5706 9.96395 11.42 9.62489 11.42 9.62489L11.3475 9.55819L11.2471 9.54707L11.236 9.44146H11.0687L11.0408 9.57486L10.9794 9.60265L10.9627 9.56374L10.9348 9.66935H10.7675L10.7564 9.55819L10.8568 9.53039L10.8958 9.47481L10.9237 9.32473H11.0464L11.2025 9.28027C11.2137 9.11908 11.2973 9.15798 11.2973 9.15798L11.3531 9.20245L11.4368 9.26915L11.4479 9.32473L11.3921 9.35253L11.381 9.43034L11.4089 9.53595H11.4814C11.5093 9.38588 11.7045 9.38588 11.7602 9.48037L11.816 9.34697C11.6877 9.28027 11.816 9.18022 11.8495 9.22468C11.8885 9.26915 11.9722 9.1024 11.9722 9.1024C11.9722 9.1024 12.0391 9.18578 11.9722 9.07461C11.9052 8.96344 12.0168 8.90786 12.0168 8.90786C12 8.79669 12.1395 8.81337 12.1395 8.81337L12.1506 8.66329L12.0223 8.65217C11.9945 8.78557 11.8829 8.66885 11.9387 8.64106C11.9945 8.61326 12.0502 8.55768 12.0502 8.55768V8.46319L12.106 8.44651L12.1172 8.35202H12.2566L12.3793 8.29644L12.4072 8.25197L12.5354 8.24085L12.7195 8.0741L12.7027 8.00184C12.5912 8.00184 12.7027 7.91847 12.7027 7.91847L12.7139 7.76283Z" fill="white"/>
<path d="M8.97809 9.62019L8.81078 9.60352L8.82194 9.67022H8.86655C8.93905 9.80362 8.87771 10.1204 8.87771 10.1204C8.87771 10.1204 8.76617 10.1316 8.74944 10.076C8.73271 10.0204 8.68251 10.1983 8.72155 10.2261C8.76059 10.2538 8.88886 10.2261 8.90002 10.3317C8.91117 10.4373 8.98367 10.265 8.98367 10.265L8.97809 9.62019Z" fill="white"/>
<path d="M8.81055 10.3812V10.6035L8.95555 10.8036L9.01132 10.6702L9.03363 10.5869L8.9667 10.5591L8.97786 10.4201L9.03363 10.409L9.03921 10.3423L8.89978 10.4368L8.81055 10.3812Z" fill="white"/>
<path d="M9.04906 11.0095V10.915L8.98214 10.9262L8.97656 10.9984L9.04906 11.0095Z" fill="white"/>
<path d="M8.96675 11.4593V11.3926L8.88867 11.4037V11.4704L8.96675 11.4593Z" fill="white"/>
<path d="M9.0781 11.1701C9.10041 11.1701 9.11714 11.1534 9.11714 11.1312C9.11714 11.109 9.10041 11.0923 9.0781 11.0923C9.05579 11.0923 9.03906 11.109 9.03906 11.1312C9.03906 11.1534 9.05579 11.1701 9.0781 11.1701Z" fill="white"/>
<path d="M9.13865 11.3649C9.16021 11.3649 9.17769 11.3475 9.17769 11.326C9.17769 11.3045 9.16021 11.2871 9.13865 11.2871C9.11709 11.2871 9.09961 11.3045 9.09961 11.326C9.09961 11.3475 9.11709 11.3649 9.13865 11.3649Z" fill="white"/>
<path d="M9.14451 10.2922C9.16607 10.2922 9.18355 10.2748 9.18355 10.2533C9.18355 10.2318 9.16607 10.2144 9.14451 10.2144C9.12295 10.2144 9.10547 10.2318 9.10547 10.2533C9.10547 10.2748 9.12295 10.2922 9.14451 10.2922Z" fill="white"/>
<path d="M12.1174 8.98068H12.1732L12.1843 9.04182L12.1453 9.07517L12.1286 9.1252L12.0561 9.14187L11.8887 9.30307L11.8776 9.37532L11.833 9.44203L11.7772 9.58098L11.582 9.5921L11.543 9.75885L11.5709 9.90337L11.7382 9.97007L11.7549 9.87558L11.8107 9.84779L11.8218 9.75329L11.8609 9.68659L11.9166 9.61989L11.9334 9.54763L12.0282 9.49205L12.1397 9.46982L12.1843 9.41423L12.2011 9.30307L12.2122 9.21969L12.2512 9.15855L12.3628 9.11408V8.93622H12.307L12.2959 8.86951L12.1955 8.8584L12.1732 8.90842H12.1286L12.1174 8.98068Z" fill="white"/>
<path d="M12.5522 9.50891V9.37551L12.5355 9.25322L12.3961 9.18652L12.2957 9.28102L12.279 9.41442V9.49779L12.1842 9.51447L12.1674 9.77015L12.0949 9.79794L12.1061 9.89243L12.0057 9.92023L11.9053 9.94802L11.8886 10.0703L11.8161 10.1148L11.777 10.2259L11.7324 10.4983C11.7324 10.4983 11.8161 10.6595 11.8607 10.5817C11.9053 10.5094 11.9834 10.4983 11.9834 10.4983L12.0113 10.4316L12.2622 10.4427C12.279 10.3371 12.4017 10.376 12.4017 10.426C12.4017 10.4705 12.4965 10.4372 12.4965 10.4372L12.5634 10.3315H12.6638L12.6749 10.2204L12.7196 10.1926V10.0258C12.8701 9.98137 12.8478 9.83685 12.8478 9.83685L12.8869 9.79238L12.8701 9.72568C12.7976 9.69789 12.8311 9.63119 12.8813 9.64787C12.9259 9.66454 12.8144 9.56449 12.8144 9.56449C12.7586 9.60896 12.714 9.50891 12.714 9.50891H12.5522Z" fill="white"/>
<path d="M12.7027 10.6424C12.6915 10.7536 12.5521 10.7925 12.5521 10.7925L12.4517 10.7647L12.3959 10.7202L12.3848 10.5868L12.4684 10.5757L12.4852 10.6313L12.7027 10.6424Z" fill="white"/>
<path d="M13.2059 10.0418C13.2282 10.1252 13.2226 9.90842 13.2616 9.91953C13.3007 9.93065 13.2728 9.78613 13.2728 9.78613L13.1055 9.90842C13.1835 9.91953 13.1947 10.0029 13.2059 10.0418Z" fill="white"/>
<path d="M13.695 9.55284C13.734 9.63622 13.7229 9.7585 13.8623 9.85299C13.9069 9.88634 13.8344 9.94748 13.7898 9.91969C13.7452 9.8919 13.6113 9.68624 13.6113 9.68624V9.56396C13.6392 9.4917 13.6783 9.51949 13.695 9.55284Z" fill="white"/>
<path d="M13.6953 12.4043L13.7232 12.4321L13.7511 12.4821L13.8124 12.3765L13.7622 12.3599L13.6953 12.4043Z" fill="white"/>
<path d="M14.8049 12.1209L14.8774 12.0708L14.8496 12.0264L14.7715 12.0708L14.8049 12.1209Z" fill="white"/>
<path d="M17.4878 14.0772L17.5714 14.1161L17.5826 14.2773C17.6941 14.3885 18.0566 14.294 18.0566 14.2662C18.0566 14.2384 18.0399 13.9216 18.0399 13.9216L17.9953 13.8771L17.9841 13.6436C18.0232 13.5214 17.8057 13.3435 17.7889 13.3824C17.7722 13.4213 17.6495 13.3935 17.6495 13.4269C17.6495 13.4658 17.577 13.6492 17.6105 13.7159C17.6495 13.7826 17.5826 13.7826 17.5714 13.8493C17.5603 13.9049 17.4655 14.0161 17.4878 14.0772Z" fill="white"/>
<path d="M17.2814 13.6995C17.2646 13.7717 17.1977 13.8106 17.1587 13.7829C17.1196 13.7551 17.2033 13.8273 17.2256 13.8662C17.2423 13.9051 17.2981 13.9051 17.3204 13.8662C17.3371 13.8273 17.3316 13.7439 17.3483 13.705C17.365 13.6717 17.2925 13.6606 17.2814 13.6995Z" fill="white"/>
<path d="M16.9185 11.9819H16.8516V12.1598H16.9185V11.9819Z" fill="white"/>
<path d="M17.8112 10.1751C17.7722 10.1195 17.9952 10.025 18.0343 10.1362C18.0733 10.2473 18.0343 10.2306 17.9952 10.2195C17.9618 10.2084 17.867 10.2473 17.8112 10.1751Z" fill="white"/>
<path d="M18.0131 8.91943L18.002 8.97502L18.1023 8.99169L18.1135 8.93611L18.0131 8.91943Z" fill="white"/>
<path d="M17.7499 9.08044L17.7555 9.09712L17.8113 9.07489L17.7889 9.03042L17.7778 8.99707L17.7499 9.01374L17.683 9.05265L17.6216 9.01374L17.5938 9.06377L17.6663 9.10824L17.683 9.11935L17.6941 9.10824L17.7499 9.08044Z" fill="white"/>
<path d="M18.1014 6.79616H17.962C17.962 6.79616 18.0066 6.81284 17.8784 6.69055C17.7501 6.56827 17.6664 6.71834 17.6664 6.71834L17.5159 6.73502V6.88509L17.4434 6.91289L17.4545 7.00738L17.5549 6.99626C17.5549 6.99626 17.5549 7.10743 17.5828 7.06296C17.6107 7.0185 17.8449 7.07408 17.8226 7.18525C17.817 7.22971 18.0568 7.352 18.0289 7.50207C18.1516 7.51875 18.1238 7.64103 18.1238 7.64103L18.2799 7.65771L18.3245 7.56321L18.3691 7.57433V7.51875L18.2688 7.49096L18.252 7.1908L18.1851 7.14634L18.2018 7.06852L18.1293 7.04073L18.1684 6.91844L18.1014 6.79616Z" fill="white"/>
<path d="M18.5079 7.75233L18.4354 7.74121L18.2681 7.769L18.1732 7.94687C18.1732 7.94687 18.2179 7.97466 18.2569 8.04136C18.2959 8.10806 18.3127 8.49159 18.2011 8.55829C18.0896 8.62499 18.2123 8.58608 18.2123 8.58608L18.1956 8.79174C18.2234 8.88623 18.2681 8.83621 18.2959 8.79174C18.3238 8.74727 18.3517 8.73616 18.3908 8.68613C18.4298 8.64166 18.4856 8.55273 18.4911 8.49159C18.5023 8.42489 18.5469 8.32484 18.519 8.29705C18.4911 8.26925 18.5469 8.13585 18.5469 8.13585C18.5469 8.13585 18.5859 8.05804 18.5469 7.98578C18.5079 7.90796 18.5581 7.82459 18.5859 7.79124L18.5079 7.75233Z" fill="white"/>
<path d="M18.6191 8.13574L18.6247 8.06348L18.6805 8.06903L18.6749 8.14685L18.6191 8.13574Z" fill="white"/>
<path d="M18.6146 8.39685L18.5645 8.36906L18.5923 8.31348L18.6425 8.34127L18.6146 8.39685Z" fill="white"/>
<path d="M18.5354 7.65196L18.4963 7.56858C18.4963 7.56858 18.4963 7.49632 18.5131 7.45741C18.5298 7.4185 18.474 7.38515 18.4462 7.37404C18.4183 7.36292 18.4294 7.29066 18.4183 7.25175C18.4071 7.21285 18.3458 7.18505 18.3458 7.18505C18.3458 7.18505 18.329 7.04609 18.329 7.0183C18.329 6.99051 18.2454 6.9516 18.2733 6.92381C18.3012 6.89602 18.3179 6.85711 18.3458 6.84044C18.3737 6.82376 18.3179 6.69036 18.3625 6.71815C18.4071 6.74594 18.4071 6.79597 18.4294 6.82932C18.4462 6.86823 18.4183 6.99607 18.4685 7.02386C18.5131 7.05165 18.4573 7.14615 18.5354 7.14615C18.6079 7.14615 18.5633 7.32401 18.5633 7.32401C18.5633 7.32401 18.5465 7.45741 18.5912 7.46297C18.6358 7.47409 18.6079 7.69642 18.6079 7.69642L18.5354 7.65196Z" fill="white"/>
<path d="M17.9336 6.13446C17.9615 6.17337 18.0172 6.20116 18.0172 6.24007C18.0172 6.27898 18.0005 6.30677 18.0563 6.31233C18.1121 6.32345 18.1511 6.30122 18.1678 6.35124C18.1846 6.39571 18.1846 6.47352 18.179 6.51243C18.1678 6.55134 18.1901 6.60693 18.2348 6.60693C18.2794 6.60693 18.2905 6.61804 18.2905 6.64583C18.2905 6.67363 18.3463 6.54023 18.3463 6.54023C18.3017 6.50132 18.2626 6.41794 18.2626 6.41794C18.2626 6.41794 18.218 6.28454 18.218 6.26787C18.218 6.25119 18.1511 6.22896 18.1232 6.2234C18.0953 6.21228 18.0507 6.12891 18.0507 6.12891L17.9336 6.13446Z" fill="white"/>
<path d="M18.023 6.04563C17.9951 6.00672 17.9672 5.97893 17.9282 5.96225C17.8891 5.94558 17.8613 5.92334 17.8278 5.92334C17.7888 5.92334 17.7553 5.88443 17.772 5.83997C17.7888 5.7955 17.7441 5.77327 17.7441 5.73436C17.7441 5.69545 17.772 5.69545 17.8166 5.72324C17.8613 5.75103 17.8557 5.76215 17.8891 5.80662C17.9282 5.85108 17.9449 5.90111 17.984 5.88999C18.023 5.87888 18.0509 5.97337 18.0843 5.94558C18.1234 5.91778 18.1122 6.01228 18.1122 6.01228L18.023 6.04563Z" fill="white"/>
<path d="M16.941 7.10716C16.9912 7.15718 16.6621 7.14607 16.6621 7.10716C16.6621 7.06825 16.69 6.94041 16.7736 6.9682C16.8573 6.99599 16.8685 6.80145 16.8685 6.80145C16.8685 6.80145 16.796 6.81256 16.8573 6.77366C16.9242 6.73475 16.8573 6.67916 16.8294 6.65137C16.8015 6.62358 16.7736 6.57356 16.7736 6.57356H16.9019C16.9577 6.53465 16.9744 6.35678 16.9744 6.35678C17.086 6.39569 17.1417 6.31787 17.1417 6.31787C17.1417 6.31787 17.1585 6.37345 17.1975 6.42348C17.2365 6.46795 17.1027 6.49018 17.1529 6.51797C17.1975 6.54576 17.2198 6.62914 17.1975 6.65693C17.1808 6.68472 17.0748 6.66805 17.0748 6.62914C17.0748 6.59023 17.0358 6.67361 17.0748 6.72363C17.1138 6.7681 17.0302 6.8348 17.0079 6.8348C16.9912 6.8348 16.8685 6.85147 16.9688 6.91262C17.0692 6.9682 17.1808 6.94041 17.1808 6.94041C17.1808 6.94041 17.2644 6.92929 17.2923 6.97932C17.3202 7.02378 17.2812 7.0349 17.2365 7.0349C17.1919 7.0349 16.9688 7.01822 16.9688 7.01822C16.9688 7.01822 16.9131 7.07937 16.941 7.10716Z" fill="white"/>
<path d="M16.3439 7.19026C16.3885 7.17914 16.5 7.17359 16.5223 7.20138C16.5391 7.22917 16.4554 7.26808 16.4554 7.26808L16.3439 7.28475C16.3104 7.24029 16.2993 7.20138 16.3439 7.19026Z" fill="white"/>
<path d="M17.543 6.40699C17.6155 6.36808 17.7772 6.36808 17.766 6.31249C17.7549 6.25691 17.8609 6.24023 17.8609 6.24023L17.8887 6.3514L17.9724 6.40699L17.9836 6.51259C17.9836 6.51259 18.0114 6.49592 17.9111 6.52371C17.8107 6.5515 17.872 6.59597 17.872 6.59597L17.6489 6.60709L17.621 6.51259L17.543 6.40699Z" fill="white"/>
<path d="M17.1813 5.89555C17.2371 5.89555 17.1646 6.11233 17.3096 6.0901C17.4601 6.07342 17.3207 6.1568 17.4323 6.16236C17.5438 6.17347 17.5159 6.07898 17.5549 6.01228C17.594 5.94558 17.5717 5.90667 17.5103 5.89C17.4434 5.87332 17.4434 5.87332 17.4267 5.7955C17.4099 5.72324 17.3319 5.70101 17.3319 5.70101L17.304 5.58984L17.1813 5.6621L17.0586 5.8233C17.0586 5.9567 17.1255 5.89555 17.1813 5.89555Z" fill="white"/>
<path d="M17.4258 6.69035L17.4537 6.63477L17.5039 6.657L17.476 6.71814L17.4258 6.69035Z" fill="white"/>
<path d="M17.3878 6.60156H17.332V6.66826H17.3878V6.60156Z" fill="white"/>
<path d="M17.3761 5.35107L17.3872 5.43445L17.3315 5.44001L17.3203 5.35663L17.3761 5.35107Z" fill="white"/>
<path d="M17.2765 6.22363H17.2207V6.2681H17.2765V6.22363Z" fill="white"/>
<path d="M17.07 6.22325L17.0645 6.16767L17.1593 6.16211L17.1648 6.21769L17.07 6.22325Z" fill="white"/>
<path d="M16.3061 7.12946L16.2559 7.10723L16.2837 7.04053L16.3339 7.06276L16.3061 7.12946Z" fill="white"/>
<path d="M16.0153 6.95684L16.0098 6.90125L16.1046 6.89014L16.1102 6.94572L16.0153 6.95684Z" fill="white"/>
<path d="M14.4095 6.94043L14.2031 6.94599L14.2087 7.00157L14.4095 6.99601V6.94043Z" fill="white"/>
<path d="M14.0692 7.01832L14.0469 6.93494L14.1026 6.92383L14.1194 7.0072L14.0692 7.01832Z" fill="white"/>
<path d="M14.0304 7.0797L14.0137 7.02411L14.0416 7.01855L14.0583 7.06858L14.0304 7.0797Z" fill="white"/>
<path d="M14.4936 6.91815L14.4824 6.98485L14.5828 6.99597C14.5828 6.99597 14.6274 7.03488 14.6274 7.06267C14.6274 7.09046 14.6944 7.11825 14.7278 7.11825C14.7669 7.11825 14.8672 7.04044 14.8672 7.04044C14.8672 7.04044 14.9119 6.90704 14.8784 6.91815C14.8394 6.92927 14.7669 6.98485 14.7557 6.92927C14.7445 6.87369 14.633 6.90148 14.633 6.90148L14.4936 6.91815Z" fill="white"/>
<path d="M14.9555 6.81787C14.9555 6.84566 14.9387 6.88457 14.9945 6.89568C15.0503 6.9068 15.1507 6.85678 15.1618 6.91236C15.173 6.96794 15.173 7.00685 15.2455 7.03464C15.318 7.06244 15.3682 7.07355 15.4239 7.07355C15.4797 7.07355 15.6024 7.05688 15.6024 7.05688C15.6024 7.05688 15.7363 7.07911 15.7586 7.10134C15.859 7.20695 15.9259 7.23474 15.9538 7.18472C15.9816 7.14025 15.9426 7.03464 15.937 6.99573C15.9259 6.95683 15.7976 6.77896 15.753 6.81787C15.7084 6.85678 15.6972 6.81787 15.6136 6.84566C15.5299 6.87345 15.3514 6.85678 15.3459 6.81787C15.3347 6.77896 15.2064 6.76228 15.2064 6.72337C15.2064 6.68447 15.1116 6.64 15.1228 6.69558C15.1339 6.75117 15.0559 6.77896 15.0391 6.76228C15.0112 6.74005 14.9555 6.81787 14.9555 6.81787Z" fill="white"/>
<path d="M17.0863 5.61728L17.1532 5.41162C17.0584 5.39494 17.0807 5.28933 17.0807 5.28933C17.0695 5.20596 16.9413 5.11146 16.8966 5.13926C16.852 5.16705 16.8688 4.94471 16.8688 4.94471C16.8688 4.94471 16.9524 4.88913 16.9915 4.91692C17.0305 4.94471 16.6736 4.45002 16.6011 4.49449C16.5286 4.53895 16.3613 4.45002 16.3668 4.36109C16.378 4.27771 16.0322 3.99423 16.0322 3.99423C16.0322 3.99423 15.9207 3.92197 15.9039 3.97756C15.8872 4.03314 15.8482 4.07205 15.9039 4.09984C15.9597 4.12763 15.9486 4.05538 16.0155 4.11652C16.0824 4.18322 16.1995 4.26659 16.1549 4.32218C16.1103 4.37776 16.0545 4.39999 16.0545 4.39999L16.1214 4.47781H16.2218L16.2386 4.639C16.2386 4.639 16.3501 4.69459 16.378 4.76129C16.4059 4.82799 16.4059 4.8669 16.378 4.90025C16.3501 4.93916 16.2943 5.00586 16.3055 5.067C16.3166 5.1337 16.3891 5.16149 16.3891 5.16149L16.4616 5.17261L16.5174 5.2004V5.32268C16.5899 5.30601 16.7126 5.40606 16.7015 5.47276C16.6903 5.53946 16.7182 5.50055 16.813 5.56725C16.9078 5.63395 16.8799 5.64507 16.9413 5.68953C17.0026 5.72844 17.0584 5.70065 17.0863 5.61728Z" fill="white"/>
<path d="M15.5579 4.339C15.5468 4.30009 15.53 4.17225 15.5858 4.17781C15.6416 4.18892 15.6025 4.17781 15.6695 4.2056C15.7364 4.23339 15.742 4.16113 15.742 4.16113H15.8423L15.9706 4.26674L15.9539 4.35012L15.8591 4.36123C15.8145 4.28897 15.7196 4.31677 15.7364 4.37791C15.7531 4.44461 15.6918 4.56689 15.6527 4.57245C15.6137 4.58357 15.4966 4.58357 15.5021 4.52798C15.5189 4.4724 15.5579 4.339 15.5579 4.339Z" fill="white"/>
<path d="M15.4859 4.08873V4.01647C15.4859 4.01647 15.4748 3.94421 15.4302 3.94421C15.3855 3.94421 15.3019 3.88863 15.3186 3.84972C15.3354 3.81081 15.1625 3.7719 15.1625 3.7719C15.1625 3.7719 15.0063 3.62183 15.0621 3.6385C15.1178 3.65518 15.09 3.5718 15.09 3.5718C15.09 3.5718 14.9784 3.58848 14.9505 3.58292C14.9227 3.5718 14.9338 3.48843 14.9338 3.48843C14.9338 3.48843 14.8223 3.46063 14.8223 3.48843C14.8223 3.51622 14.8613 3.51622 14.878 3.5718C14.8948 3.62739 14.8892 3.72188 14.9728 3.73855C15.0565 3.75523 15.0732 3.77746 15.0844 3.81637C15.0955 3.85528 15.1959 3.86084 15.1959 3.86084L15.2684 3.89975L15.4859 4.08873Z" fill="white"/>
<path d="M14.4812 3.13307L14.4534 3.05525L14.3809 3.03857V3.12195L14.4812 3.13307Z" fill="white"/>
<path d="M14.4532 2.73833C14.3583 2.66607 14.5814 2.79391 14.5814 2.79391C14.6539 2.79391 14.7041 2.84949 14.7041 2.87729C14.7041 2.90508 14.8045 2.89396 14.8045 2.89396L14.8157 2.82726L14.7432 2.73277L14.6762 2.6883C14.6762 2.6883 14.5759 2.67719 14.5759 2.64939C14.5759 2.62716 14.4922 2.76612 14.4532 2.73833Z" fill="white"/>
<path d="M16.1615 2.79374C16.1336 2.87712 16.1224 2.98829 16.0778 2.98829C16.0332 2.98829 16.0499 3.11057 16.0499 3.11057C16.0499 3.11057 16.1726 3.11057 16.2061 3.12169C16.2451 3.1328 16.2451 3.2273 16.2451 3.2273C16.3846 3.21618 16.4403 3.40516 16.4236 3.45519C16.4069 3.49966 16.4794 3.49966 16.4794 3.49966C16.4794 3.49966 16.4794 3.64973 16.4626 3.68864C16.4459 3.72755 16.5853 3.75534 16.6188 3.81092C16.6578 3.86651 16.6021 4.05549 16.5742 4.06661C16.5463 4.07773 16.6467 4.10552 16.6411 4.14998C16.63 4.19445 16.669 4.14998 16.6802 4.2278C16.6913 4.30006 16.708 4.46125 16.708 4.46125L16.8363 4.47237C16.853 4.35009 17.0928 4.34453 17.1319 4.3612C17.288 4.41679 17.4107 4.66135 17.4107 4.71694C17.4107 4.77252 17.3104 4.78364 17.3104 4.78364L17.3271 5.056C17.4832 5.10046 17.6171 5.32836 17.5948 5.36727C17.578 5.40617 17.7063 5.39506 17.7063 5.39506C17.723 5.22831 17.8848 5.28389 17.8904 5.33947C17.9015 5.39506 17.9294 5.51734 17.9294 5.51734L17.974 5.60072L18.0409 5.66742L18.1413 5.6563L18.1692 5.71188L18.2919 5.72856C18.2919 5.72856 18.3923 5.83973 18.4034 5.86752C18.4146 5.89531 18.554 5.88419 18.5875 5.89531C18.6265 5.90643 18.6823 5.93422 18.6879 5.97869C18.699 6.02315 18.7548 6.10097 18.7548 6.10097C18.7548 6.10097 18.8663 6.12876 18.8775 6.16767C18.8886 6.20658 18.9333 6.28995 18.9333 6.28995L19.0281 6.36777L19.0392 6.45115L19.1396 6.46226L19.1675 6.57343L19.3348 6.56231L19.4296 6.49561C19.5523 6.42891 19.636 6.34554 19.6415 6.30663C19.6527 6.26772 19.6694 6.12876 19.7642 6.15655C19.859 6.18434 19.7921 5.95089 19.7921 5.95089C19.7921 5.95089 19.6638 5.8564 19.6694 5.81193C19.6806 5.76747 19.5412 5.67297 19.5467 5.63407C19.5579 5.59516 19.424 5.5229 19.4352 5.48399C19.4463 5.44508 19.3683 5.34503 19.3683 5.34503L19.2288 5.21163L19.2121 5.12826L19.1006 5.11714L18.8775 4.84478L18.8886 4.76696L18.8217 4.75585V4.65024L18.7548 4.61133L18.6544 4.60021L18.4481 4.37788L18.4313 4.27227H18.3309L18.3477 4.07773C18.4146 3.99435 18.3756 3.83316 18.3756 3.83316C18.3756 3.83316 18.2473 3.89986 18.1804 3.87207C18.1134 3.84427 18.2082 3.77757 18.2082 3.77757V3.70532L18.1525 3.64973C18.1525 3.64973 17.9963 3.66641 17.9852 3.63861C17.974 3.61082 17.9461 3.48854 17.9461 3.48854L17.935 3.32735L17.8681 3.29955L17.8569 3.24397L17.7565 3.25509V3.14392L17.7007 3.12725L17.645 3.09945L17.6338 2.98829L17.4275 2.97717L17.3605 2.88268L17.288 2.77151L17.0538 2.75484L16.998 2.69925L16.9032 2.68258L16.8363 2.65479L16.8084 2.69925L16.63 2.71037L16.6188 2.76595C16.5407 2.80486 16.1726 2.76595 16.1615 2.79374Z" fill="white"/>
<path d="M17.1358 2.5493C17.119 2.47704 17.3198 2.41034 17.37 2.46592C17.4146 2.5215 17.5485 2.53262 17.5652 2.81054C17.5708 2.91059 17.3979 2.70493 17.3979 2.70493L17.2584 2.66046C17.1804 2.64379 17.1413 2.59932 17.1358 2.5493Z" fill="white"/>
<path d="M14.4154 2.66585L14.3652 2.64362L14.4043 2.55469L14.4545 2.58248L14.4154 2.66585Z" fill="white"/>
<path d="M13.9348 1.74331L13.8121 1.62103V1.51542L13.7731 1.47651L13.734 1.34311L13.6113 1.3042L13.4886 1.34867L13.3604 1.43204L13.2209 1.44872L13.1484 1.53209L13.444 1.55988L13.4998 1.65438L13.7117 1.67105L13.8511 1.81001C13.9794 1.86559 14.0073 1.81001 13.9348 1.74331Z" fill="white"/>
<path d="M13.9195 1.28199C13.8972 1.19862 13.7801 1.3876 13.9028 1.42095C14.0255 1.45986 14.1426 1.42095 14.1426 1.42095L14.1705 1.36537L14.6334 1.37648C14.6724 1.33758 14.6892 1.28199 14.6892 1.28199C14.6892 1.28199 14.8007 1.24308 14.8453 1.26532C14.8899 1.28199 14.8565 1.13192 14.8063 1.15415C14.7617 1.17083 14.6669 1.16527 14.6669 1.16527H14.4995C14.4884 1.09857 14.3434 1.12636 14.3322 1.16527C14.3267 1.19862 14.2709 1.20973 14.2709 1.20973L14.059 1.22641C14.0367 1.28199 13.9307 1.3209 13.9195 1.28199Z" fill="white"/>
<path d="M12.9975 2.866C13.1425 2.91046 13.1927 2.87711 13.2039 2.8382C13.215 2.7993 13.2206 2.79374 13.2764 2.78262C13.3321 2.7715 13.2652 2.66034 13.2094 2.67145C13.1537 2.68257 13.0979 2.65478 13.0867 2.60475C13.0756 2.56029 12.9864 2.438 12.9752 2.53249C12.9641 2.62699 12.9083 2.62699 12.9194 2.69369C12.9362 2.75483 12.9641 2.85488 12.9975 2.866Z" fill="white"/>
<path d="M11.9337 2.97178C11.9281 2.93843 12.1178 2.93287 12.1456 2.96067C12.1735 2.98846 12.1568 3.03848 12.2404 3.03848C12.3241 3.03848 12.2851 3.09407 12.2795 3.12186C12.2683 3.14965 12.1791 3.13853 12.1679 3.11074C12.1568 3.08295 12.0174 3.07183 12.0174 3.07183C12.0174 3.07183 11.9449 3.01625 11.9337 2.97178Z" fill="white"/>
<path d="M14.9891 1.0762L15.0114 1.09843L15.0281 1.08176L15.1229 1.00394L15.0839 0.959473L15.0114 1.02061L14.9668 0.970589L14.9277 1.01506L14.9891 1.0762Z" fill="white"/>
<path d="M14.5756 0.859589L14.5867 0.848472L14.6927 0.781772L14.6592 0.737305L14.5756 0.792888L14.5142 0.75398L14.4863 0.804005L14.5588 0.848472L14.5756 0.859589Z" fill="white"/>
<path d="M14.2421 2.77159L14.3035 2.86608L14.3481 2.83273L14.2868 2.73268L14.2756 2.72157H14.2644L14.1696 2.71045L14.1641 2.76603L14.2421 2.77159Z" fill="white"/>
<path d="M11.2072 5.33447L11.2184 5.44008H11.3578C11.4136 5.44008 11.3132 5.37338 11.3132 5.37338C11.3132 5.37338 11.2017 5.3845 11.2072 5.33447Z" fill="white"/>
<path d="M11.3867 5.33939L11.4202 5.29492L11.476 5.33939L11.4425 5.38386L11.3867 5.33939Z" fill="white"/>
<path d="M9.69727 3.58334L9.7363 3.54443L9.79207 3.60002L9.75304 3.63893L9.69727 3.58334Z" fill="white"/>
<path d="M12.3125 15.706L12.3515 15.7449L12.3961 15.7004L12.424 15.6727L12.3906 15.6504L12.2957 15.606L12.2734 15.656L12.3292 15.6838L12.3125 15.706Z" fill="white"/>
<path d="M11.5826 15.0281L11.6495 15.0726L11.683 15.0281L11.6439 15.0003L11.6718 14.9781L11.6383 14.9336L11.5826 14.9836L11.5547 15.0059L11.5826 15.0281Z" fill="white"/>
<path d="M18.5697 13.1995C18.5585 13.1495 18.5028 13.1328 18.4972 13.1328L18.4805 13.1884C18.486 13.1884 18.4916 13.194 18.4972 13.1995L18.5084 13.2495C18.5028 13.2551 18.4972 13.2607 18.4972 13.2662L18.5362 13.3051C18.5641 13.2607 18.5753 13.2329 18.5697 13.1995Z" fill="white"/>
<path d="M18.6537 13.0211L18.5645 13.0155L18.57 12.9321L18.6593 12.9432L18.6537 13.0211Z" fill="white"/>
<path d="M20.7996 12.2932C20.8386 12.2709 20.8888 12.2209 20.8832 12.3265C20.8777 12.4321 20.8331 12.3988 20.7996 12.4321C20.7661 12.4655 20.7438 12.3265 20.7996 12.2932Z" fill="white"/>
<path d="M21.274 11.8931V11.8819C21.274 11.8653 21.2684 11.843 21.2572 11.8208L21.207 11.8486C21.2126 11.8597 21.2126 11.8764 21.2182 11.8875C21.2182 11.9042 21.2238 11.9209 21.2349 11.932C21.2461 11.9375 21.2572 11.9431 21.274 11.9375L21.2628 11.8819C21.2628 11.8875 21.2684 11.8875 21.274 11.8931Z" fill="white"/>
<path d="M21.1523 11.9371C21.1691 11.9927 21.1858 12.0483 21.1858 12.0538L21.236 12.0316C21.236 12.0316 21.2137 11.976 21.2025 11.9204L21.1523 11.9371Z" fill="white"/>
<path d="M20.9458 12.1599L20.89 12.1543C20.8844 12.1988 20.8956 12.2543 20.9402 12.2599L20.9513 12.2043C20.9513 12.2043 20.9458 12.1821 20.9458 12.1599Z" fill="white"/>
<path d="M20.7061 11.0425C20.7005 11.0259 20.6949 11.0092 20.6782 11.0036C20.6392 10.9869 20.5667 11.0147 20.5332 11.037L20.5667 11.0814C20.6001 11.0592 20.6503 11.0481 20.6559 11.0536C20.6559 11.0536 20.6559 11.0536 20.6559 11.0481L20.7061 11.0425Z" fill="white"/>
<path d="M18.1344 8.04637C18.0954 8.08528 18.0117 8.10196 18.0117 8.10196L17.9838 8.20756L17.9392 8.24647C17.9392 8.24647 17.9504 8.27427 17.9392 8.34097C17.9281 8.40767 17.8444 8.44657 17.8444 8.44657L17.8054 8.49104C17.8054 8.49104 17.5823 8.50216 17.5544 8.49104C17.4708 8.45213 17.5265 8.34097 17.5823 8.35208C17.6381 8.3632 17.5711 8.19089 17.5711 8.19089L17.6436 8.17977C17.6436 8.17977 17.6548 8.01302 17.6827 8.01302C17.7106 8.01302 17.6715 7.95744 17.6381 7.92965C17.599 7.90185 17.5544 7.80736 17.5154 7.81848C17.4763 7.8296 17.3313 7.81848 17.3313 7.81848L17.3034 7.87406L17.2031 7.89074C17.2031 7.89074 17.2142 7.963 17.1919 7.98523C17.1361 8.05193 16.9242 8.19089 17.0134 7.95744L17.0413 7.90185V7.81848L16.874 7.80736C16.874 7.80736 16.7904 7.77957 16.7904 7.74066C16.7904 7.70175 16.7792 7.65729 16.7792 7.65729L16.584 7.44051L16.3498 7.41272L16.333 7.36825L16.1936 7.35158C16.0263 7.2682 15.8757 7.34046 15.9036 7.48498C15.9315 7.62394 15.9761 7.67952 15.8869 7.67952C15.7921 7.67952 15.7753 7.60726 15.7753 7.60726C15.7753 7.60726 15.7028 7.57947 15.7028 7.61838C15.7028 7.65729 15.675 7.72955 15.7028 7.76845C15.7307 7.80736 15.6638 7.86295 15.6359 7.83515C15.608 7.80736 15.5355 7.72399 15.5523 7.6962C15.569 7.6684 15.424 7.49054 15.569 7.46274C15.7196 7.43495 15.5578 7.35158 15.6136 7.32934L15.6861 7.29043H15.7586L15.8032 7.25153L15.6805 7.23485L15.608 7.22373L15.4686 7.21262C15.3292 7.30711 15.3013 7.41828 15.3013 7.41828C15.2288 7.55724 15.0503 7.36269 15.1173 7.28488C15.1842 7.20706 14.9109 7.27376 14.8663 7.31267C14.8217 7.35158 14.6823 7.32934 14.6823 7.32934C14.6544 7.41272 14.5261 7.31823 14.5596 7.26264C14.5986 7.20706 14.5986 7.16815 14.5986 7.16815L14.554 7.15703L14.4982 7.26264C14.3699 7.26264 14.3309 7.3349 14.3588 7.38493C14.3867 7.42939 14.3198 7.37381 14.303 7.44051C14.2863 7.50721 14.3142 7.50721 14.3699 7.535C14.4257 7.5628 14.3421 7.5628 14.3811 7.60726C14.4201 7.65173 14.5317 7.60726 14.4648 7.67396C14.3978 7.74066 14.2696 7.71287 14.2696 7.71287C14.2584 7.79625 14.0855 7.77957 14.0632 7.75178C14.0465 7.72399 13.9071 7.55724 13.9071 7.55724L13.7286 7.54612C13.7119 7.41272 13.8122 7.47942 13.8513 7.37937C13.8903 7.27376 13.9071 7.10701 13.9071 7.10701C13.9071 7.10701 13.7565 7.09589 13.7509 7.14592C13.7397 7.19038 13.6505 7.22373 13.6505 7.22373C13.6505 7.22373 13.578 7.25153 13.6059 7.29043C13.6338 7.32934 13.5501 7.34602 13.5501 7.34602C13.5501 7.34602 13.5669 7.40716 13.539 7.42939C13.4665 7.50721 13.2769 7.44051 13.249 7.41272L13.1374 7.36825L13.0259 7.29599L12.8976 7.35158L12.8586 7.39049H12.7192L12.708 7.50165L12.959 7.52944L12.9757 7.7629L12.8753 7.72955H12.8084L12.7805 7.67396L12.7247 7.66285V7.86851L12.7805 7.91297L12.8251 7.95744L12.9199 7.96856L12.9367 8.07972L13.1709 8.09084L13.1988 8.13531L13.3382 8.14642L13.6059 8.41878L13.5892 8.50216L13.5445 8.52995C13.5613 8.59665 13.4219 8.55774 13.4219 8.55774V8.61333L13.4888 8.62444L13.5557 8.66335L13.6505 8.50216C13.7509 8.43546 13.8011 8.52995 13.8067 8.58553C13.8178 8.64112 13.7621 8.63 13.7621 8.63V8.7634L13.8178 8.78008C13.9126 8.89124 13.7788 8.95794 13.7788 8.95794L13.7509 9.05244C13.723 9.13581 13.6226 9.11914 13.6226 9.11914L13.5836 9.17472L13.472 9.20251L13.6896 9.2303C13.7119 9.15249 13.7676 9.13581 13.7955 9.17472C13.8234 9.21363 13.8234 9.28033 13.8234 9.28033L13.8792 9.29145L13.868 9.39705L13.9238 9.41373V9.71388L13.9907 9.78614C14.1022 9.74167 14.1022 9.81393 14.0465 9.85284C13.9907 9.89175 14.0297 10.0585 14.0297 10.0585L13.9851 10.103V10.1808L13.9294 10.2197V10.3253C13.8346 10.2808 13.723 10.2975 13.6951 10.3253C13.6115 10.2697 13.433 10.2864 13.433 10.3364C13.4888 10.4087 13.3661 10.4309 13.3661 10.4309L13.2992 10.5032C13.3438 10.5977 13.2545 10.6088 13.2545 10.6088V10.7866L13.143 10.8923L13.1542 11.1368C13.1542 11.2035 13.2936 11.2091 13.3215 11.1757C13.3494 11.1368 13.4609 11.2535 13.4609 11.2535H13.5445L13.5613 11.0868L13.5055 11.059V10.7866L13.6003 10.681C13.7119 10.6421 13.6728 10.9256 13.6728 10.9534C13.684 11.059 13.7286 11.0479 13.7732 11.0257C13.868 10.9867 13.7899 11.1313 13.7174 11.1201C13.6449 11.109 13.6896 11.2146 13.6896 11.2146L13.7342 11.2313L13.6505 11.298L13.578 11.3814L13.4832 11.3536L13.3717 11.3425L13.3326 11.2758L13.2657 11.2647L13.2545 11.3981L13.2099 11.4536L13.0984 11.5648C13.249 11.5648 13.0817 11.6704 13.0426 11.6704C13.1263 11.6982 13.0315 11.7816 12.8195 11.7149V11.7816L12.747 11.7927L12.814 11.865L12.8865 11.8761L12.8586 12.0373C12.8586 12.1596 12.5518 12.0762 12.524 12.0484L12.5128 12.2151L12.457 12.2263L12.4682 12.3374L12.457 12.4986L12.5574 12.4819V12.5486L12.8084 12.5598L13.1709 12.1762L13.3828 12.1318C13.3995 12.0373 13.4944 12.1484 13.4944 12.1484C13.5892 12.1373 13.6059 12.204 13.6059 12.204L13.7286 12.2207C13.829 12.2485 13.7676 12.2596 13.7732 12.2985C13.7844 12.3541 13.829 12.3374 13.829 12.3374L13.8457 12.2151L13.9015 12.2263L13.8457 12.1596L13.7453 12.1151L13.6338 12.0706C13.5613 11.965 13.6505 11.9873 13.7286 11.9984H13.8513C13.8513 11.9984 13.9907 12.1874 13.9907 12.2318C13.9907 12.2763 14.0576 12.2874 14.0576 12.2874L14.1413 12.2763L14.1692 12.343H14.2528L14.2807 12.3986H14.448L14.4592 12.3152L14.303 12.2874L14.2919 12.1929L14.1803 12.1651C14.1413 12.0039 14.2082 11.9595 14.2528 12.0317L14.3086 12.0428L14.2919 11.9039L14.3588 11.8872L14.3421 11.6927L14.2863 11.676V11.6093L14.5205 11.6204C14.5038 11.4981 14.5317 11.4425 14.5317 11.4425H14.5986L14.6098 11.487L14.8942 11.5148L15.095 11.2869C15.0838 11.2702 15.1173 11.2591 15.095 11.2369C15.0671 11.2091 15.028 11.2369 14.9834 11.2091C14.9388 11.1813 14.9834 11.0201 14.9723 10.9867C14.9611 10.9478 15.1284 10.8923 15.1005 10.9756C15.0726 11.059 15.1005 11.0979 15.1005 11.0979C15.2232 10.9867 15.3236 11.109 15.3125 11.1368C15.3013 11.1646 15.3794 11.1924 15.424 11.1646C15.4686 11.1368 15.5244 11.248 15.5077 11.3036C15.4909 11.3592 15.3236 11.348 15.3125 11.2925C15.3013 11.2369 15.2734 11.2535 15.2567 11.2813C15.24 11.3091 15.1563 11.3258 15.1061 11.298C15.095 11.2925 15.095 11.2869 15.0894 11.2813L14.8886 11.5092H14.8998C15.0113 11.5759 14.9555 11.6593 14.9165 11.676C14.8775 11.6927 14.8161 11.6927 14.8161 11.6927L14.7994 11.7316L14.5596 11.7482L14.5428 11.8427C14.4201 11.8261 14.3755 11.9539 14.4034 12.0206C14.4313 12.0873 14.4034 12.1429 14.4034 12.1429L14.5038 12.1874L14.6321 12.1484C14.6488 12.054 14.7325 12.0373 14.8105 11.9817C14.883 11.9261 15.0057 12.0873 14.9667 12.1596C14.9276 12.2318 14.9276 12.2652 14.9276 12.2652L14.9388 12.3485L14.844 12.3875L14.7715 12.4264L14.7603 12.4708H14.5094L14.4648 12.5153L14.3421 12.5264L14.303 12.582L14.2194 12.5931C14.2194 12.5931 14.0799 12.6598 14.1357 12.7321C14.1915 12.8099 13.9015 12.7988 13.8401 12.6932C13.8234 12.7877 13.7174 12.7043 13.7174 12.7043L13.617 12.6765L13.6059 12.5375C13.5892 12.443 13.4107 12.443 13.4219 12.5097C13.433 12.5764 13.0872 12.5375 13.0872 12.5375L12.9757 12.5931L12.8753 12.6543L12.8642 12.6987L12.6968 12.7154L12.6243 12.7543L12.5965 12.6987H12.524L12.4515 12.8043C12.2563 12.8154 12.0722 12.9266 12.089 12.9711C12.1057 13.0155 12.0164 13.0656 12.0164 13.0656L11.9328 13.0934L11.877 13.1767L11.7655 13.2157L11.7488 13.4102L11.693 13.4491V13.5325L11.6261 13.5492V13.5936L11.5312 13.6047L11.587 13.7437L11.6595 13.7826C11.7878 13.7993 11.732 13.9605 11.732 13.9605L11.8045 13.9716L11.8436 14.0772L11.9161 14.2273C11.9439 14.3384 12.0276 14.3106 12.0666 14.3051C12.1057 14.294 12.1391 14.4163 12.1391 14.4163L12.5072 14.4274C12.5072 14.4274 12.4905 14.4663 12.5518 14.483C12.6188 14.4996 13.0426 14.5219 13.0593 14.4941C13.0426 14.4107 13.2936 14.3885 13.394 14.4663C13.4944 14.5385 13.6338 14.4941 13.6338 14.4941L13.7732 14.6608L13.868 14.8665L14.0242 14.911L14.1357 14.9387L14.1747 15.0999L14.2584 15.1111L14.2863 15.2167C14.3867 15.2889 14.2584 15.4501 14.2584 15.4501V15.6558L14.3309 15.6947L14.3198 15.7725L14.4424 15.8948L14.5819 15.9059L14.9332 16.2783L15.2121 16.3617L15.2567 16.5118L15.3292 16.5006L15.385 16.4562L15.608 16.4451L15.7196 16.3395L15.8423 16.3228L16.874 15.4501L16.7792 15.3945V15.1889C16.9465 15.0666 16.9577 14.8498 16.7959 14.8331C16.6788 14.8165 16.729 14.6942 16.8406 14.6719L16.9075 14.6442V14.5608L17.1194 14.3662V14.2162L16.6565 13.8326C16.4502 13.7604 16.6565 13.3101 16.7959 13.3157C16.9354 13.3268 16.7848 12.6209 16.7848 12.6209L16.7123 12.582L16.729 12.3541H16.6286L16.4613 12.5709L16.4167 12.721C16.4 12.9155 15.8255 12.8821 15.7977 12.8544C15.7698 12.8266 15.5746 12.7432 15.5746 12.7432C15.5746 12.7432 15.424 12.6209 15.3961 12.6598C15.3682 12.6987 15.24 12.6153 15.24 12.6431C15.24 12.6709 15.1173 12.5764 15.1173 12.5764L14.9332 12.5097L15.0726 12.4819L15.0448 12.3708L15.2846 12.4931C15.3125 12.532 15.4352 12.5209 15.4352 12.5209L15.4742 12.5653C15.4742 12.5653 15.5467 12.5542 15.5969 12.6098C15.6415 12.6654 15.8869 12.6209 15.8869 12.6209L15.9538 12.6765L16.0542 12.7154L16.3442 12.7265L16.3554 12.5486L16.4111 12.4931L16.4 12.3819L16.4669 12.3263V12.2318L16.5227 12.2151L16.5338 12.0095L16.5784 11.9984V11.5481L16.439 11.4147C16.4279 11.4592 16.2829 11.4592 16.2829 11.4592C16.2829 11.4592 16.2438 11.5259 16.2159 11.5259C16.188 11.5259 16.255 11.6093 16.2327 11.6649C16.2159 11.7205 16.1379 11.7205 16.1379 11.7205L15.9984 11.7594L15.9594 11.8038H15.8088L15.7921 11.6815L15.9594 11.6371L16.0542 11.5926L16.0988 11.4981C16.11 11.4036 16.2215 11.4147 16.2215 11.4147C16.2215 11.4147 16.4334 11.2369 16.4446 11.1535C16.4557 11.0701 16.5282 10.8367 16.6565 10.8367H16.8963C16.9911 10.7978 16.9632 10.6755 16.9632 10.6755L17.0859 10.6588L17.1027 10.7255C17.1027 10.7255 17.27 10.7422 17.2867 10.7144C17.3034 10.6866 17.3425 10.6199 17.3871 10.6477C17.4317 10.6755 17.5823 10.581 17.5823 10.581C17.5935 10.5143 17.8221 10.5421 17.8221 10.5421L17.85 10.4587C17.85 10.4587 17.6938 10.2419 17.666 10.2419C17.6381 10.2419 17.4875 10.1085 17.4708 10.1586C17.3202 10.1196 17.3313 9.91398 17.3313 9.91398L17.2756 9.78058C17.2756 9.70276 17.1361 9.54713 17.1083 9.56381C16.9688 9.4582 17.0692 9.34147 17.1083 9.33035C17.1473 9.31924 17.2365 9.1914 17.2365 9.1914L17.2811 9.05799L17.4373 9.01353L17.454 8.89124L17.3704 8.88013C17.3704 8.88013 17.4652 8.71338 17.5098 8.71338C17.5544 8.71338 17.8611 8.71338 17.889 8.6967C17.9169 8.68003 17.9727 8.52995 17.9727 8.50216C17.9727 8.47437 18.0452 8.46325 18.0731 8.45769C18.101 8.44657 18.1679 8.37432 18.1846 8.33541C18.2348 8.24092 18.1735 8.00746 18.1344 8.04637Z" fill="white"/>
<path d="M12.9987 11.4258C13.0098 11.4146 13.0265 11.4702 13.0544 11.4591C13.0823 11.4536 13.0935 11.5091 13.0656 11.5091C13.0377 11.5091 13.0377 11.5425 13.0377 11.5592C13.0377 11.5758 13.0377 11.6092 13.0154 11.6314C12.9931 11.6537 12.9764 11.637 12.9485 11.6259C12.9206 11.6092 12.9094 11.6092 12.8704 11.6092C12.8369 11.6092 12.8648 11.6648 12.8648 11.6648C12.8648 11.6648 12.7198 11.6592 12.7477 11.637C12.7756 11.6147 12.8035 11.6092 12.7812 11.5925C12.7589 11.5758 12.7812 11.5647 12.7812 11.5369C12.7812 11.5091 12.8481 11.5203 12.8314 11.5036C12.809 11.4813 12.8314 11.4035 12.8648 11.448L12.8871 11.398C12.8648 11.3757 12.8815 11.3702 12.8369 11.3535C12.7979 11.3368 12.8314 11.2535 12.8314 11.2535L12.8369 11.1979C12.8481 11.1256 12.9875 11.1201 12.9987 11.1812C13.0042 11.2423 12.9987 11.2868 12.9987 11.2868L13.0377 11.3035C13.0377 11.3035 13.0321 11.3479 12.9987 11.3479C12.9652 11.3479 12.9987 11.3702 12.9764 11.3924L12.9987 11.4258Z" fill="white"/>
<path d="M12.541 11.4982C12.5633 11.4537 12.6079 11.2759 12.6637 11.3315C12.7195 11.387 12.7529 11.3315 12.7529 11.3315C12.7529 11.3315 12.7808 11.3592 12.7641 11.4148C12.7529 11.4704 12.7362 11.526 12.7027 11.5371C12.6693 11.5427 12.6414 11.5649 12.5968 11.5705C12.5633 11.576 12.541 11.4982 12.541 11.4982Z" fill="white"/>
</g>
<defs>
<clipPath id="clip0_6194_139030">
<rect width="26" height="22" fill="white" transform="translate(0 0.108398)"/>
</clipPath>
</defs>
</svg>
