<svg width="26" height="19" viewBox="0 0 26 19" fill="none" xmlns="http://www.w3.org/2000/svg">
<g clip-path="url(#clip0_6194_138811)">
<path d="M6.33663 1.59939L6.30432 5.91144C6.30432 7.70529 5.23991 8.39903 3.80993 8.39903C2.57719 8.39903 1.00608 7.85152 1.00608 5.98455V1.59939C1.00135 1.4959 0.966707 1.396 0.906348 1.3118C0.845989 1.2276 0.762507 1.16271 0.666016 1.125H2.68771C2.59302 1.16371 2.51169 1.22922 2.4537 1.31349C2.3957 1.39776 2.36357 1.49712 2.36125 1.59939V6.02026C2.36125 6.75821 2.6146 7.80221 3.98507 7.80221C5.23991 7.80221 5.6854 6.97925 5.6854 5.93184L5.6718 1.59939C5.67507 1.50139 5.65002 1.40452 5.59966 1.32039C5.5493 1.23625 5.47576 1.16842 5.38784 1.125H6.61038C6.52436 1.16986 6.45292 1.23831 6.40443 1.32234C6.35595 1.40636 6.33242 1.50247 6.33663 1.59939V1.59939Z" fill="white"/>
<path d="M9.19135 8.39895C8.48611 8.39073 7.79279 8.21595 7.16795 7.88885L7.11523 6.1069C7.31587 6.85505 7.9484 7.84634 9.04512 7.84634C10.0891 7.84634 10.4054 7.09819 10.4054 6.58129C10.4054 5.56109 9.48891 5.43187 8.53502 4.91496C7.58113 4.39806 7.14414 3.80805 7.14414 3.00719C7.13564 1.58401 8.4755 1.0093 9.4345 1.0093C9.98881 1.00744 10.5352 1.14111 11.026 1.39867L11.0787 2.95958C10.9308 2.40017 10.3306 1.5568 9.31887 1.5568C8.51801 1.5568 8.20175 2.11621 8.20175 2.577C8.20175 3.21973 8.65574 3.46288 9.64534 3.91517C10.6349 4.36746 11.6483 4.71943 11.6483 6.18511C11.6483 7.50287 10.4887 8.39895 9.19135 8.39895Z" fill="white"/>
<path d="M15.0524 8.29361H12.3438C12.4287 8.2475 12.4993 8.17878 12.5476 8.09505C12.5959 8.01132 12.6201 7.91585 12.6175 7.81921V1.59939C12.6217 1.50247 12.5982 1.40636 12.5497 1.32234C12.5012 1.23831 12.4298 1.16986 12.3438 1.125H15.1476C18.6163 1.125 19.3117 3.58198 19.3117 4.60388C19.3117 6.43854 17.8987 8.29361 15.0524 8.29361ZM14.9266 1.6521C14.6732 1.6521 14.1155 1.6521 13.9574 1.67251V7.7461H14.8075C17.188 7.7461 17.8545 6.14438 17.8545 4.60388C17.846 3.33883 17.1081 1.6521 14.9266 1.6521Z" fill="white"/>
<path d="M23.4087 8.29346C23.6825 8.14553 23.7352 7.9976 23.6621 7.78336C23.6298 7.67794 23.356 7.03521 23.0619 6.31767H20.4723C20.2512 6.79256 20.0542 7.27835 19.8823 7.77316C19.787 8.0265 19.8397 8.17443 20.1254 8.30026H18.6699C18.8807 8.18161 19.0525 8.00443 19.1647 7.79016C19.3722 7.37698 22.1437 0.903809 22.1437 0.903809C22.1437 0.903809 24.9475 7.37698 25.138 7.77656C25.1866 7.89292 25.2584 7.99817 25.349 8.08587C25.4396 8.17357 25.5472 8.24189 25.6651 8.28666L23.4087 8.29346ZM21.7424 3.18055C21.7424 3.18055 21.0249 4.97271 20.6882 5.76336H22.8187C22.3239 4.59353 21.7441 3.18055 21.7441 3.18055H21.7424Z" fill="white"/>
<path d="M25.3503 9.30684C25.3503 9.30684 10.0082 8.92597 0.919922 13.7685C0.919922 13.7685 10.5489 9.95977 25.3469 10.3406L25.3503 9.30684Z" fill="white"/>
<path d="M0.919922 9.30664C0.919922 9.30664 6.08723 9.36105 9.29746 10.5581C9.29746 10.5581 2.71547 10.014 0.919922 10.286V9.30664Z" fill="white"/>
<path d="M0.919922 10.9933C0.919922 10.9933 4.61985 10.8233 6.84899 11.0478C6.84899 11.0478 1.46403 11.7007 0.919922 11.9728V10.9933Z" fill="white"/>
<path d="M22.8083 11.1603H22.7301C18.2633 11.247 8.91148 11.786 0.919922 14.6069V18.0076H25.3469V11.1603C25.3469 11.1603 24.4049 11.1314 22.8083 11.1603Z" fill="white"/>
</g>
<defs>
<clipPath id="clip0_6194_138811">
<rect width="25" height="17.1036" fill="white" transform="translate(0.666016 0.903809)"/>
</clipPath>
</defs>
</svg>
