<svg width="23" height="20" viewBox="0 0 23 20" fill="none" xmlns="http://www.w3.org/2000/svg">
<path d="M11.5944 0.608398C10.6444 0.608398 11.0454 2.02184 11.1193 2.48602C11.1193 2.50712 11.1934 5.68314 11.2145 6.41106C11.3623 6.36886 11.4997 6.33672 11.6474 6.30506L11.9321 6.23152C11.9426 5.5247 12.0165 2.49738 12.0165 2.47628C12.0798 1.99101 12.5761 0.608404 11.5944 0.608398ZM12.3336 2.13775L12.3228 2.181C12.3122 2.25484 12.2911 2.31779 12.2806 2.38109C13.9167 2.53933 15.4475 3.25699 16.6193 4.40688L15.7957 5.22888L15.827 5.08178L15.7221 5.02879L15.5846 5.03959L15.616 4.94441L15.5207 4.60696L15.3205 4.38524L14.6766 4.04778L14.6236 4.11051L14.5078 4.14297C14.7294 4.45945 14.8454 4.83935 14.8454 5.21913V5.36623L15.1625 5.76749L15.0143 5.79884L15.1095 5.94701L14.8249 6.23147L14.708 6.02056C14.6552 6.16825 14.5814 6.31578 14.4969 6.44237L14.5608 6.49537L13.6842 7.36063C13.6314 7.30791 13.579 7.2652 13.5262 7.21246C13.4417 7.25465 13.3574 7.2868 13.2729 7.31845L13.3465 7.37033L13.3043 7.41253L13.1993 7.46553L13.1571 7.57152L13.0933 7.50771L12.9136 7.57152L12.9666 7.65589L13.0933 7.62343L13.1777 7.63422L13.1885 7.59202L13.2512 7.56067L13.2729 7.52931L13.3887 7.49685H13.4731L13.5262 7.53904L13.1885 7.88731L13.1668 7.85595L12.8086 7.91976L12.7242 8.00412L12.6495 8.0139L12.8714 7.80299L12.787 7.76079L12.5759 8.03551L12.6398 8.02471V8.13071L12.7134 8.16207L12.7242 8.26697L12.5976 8.24644L12.4709 8.26697L12.1538 8.10907C12.1538 8.10907 12.1322 8.95362 12.1322 9.3756C12.8711 9.62879 13.6635 9.98685 13.6635 10.9363C13.6741 11.3372 13.4624 11.7174 13.1246 11.9389L13.104 11.9497L13.0824 11.9703C12.7868 12.1707 12.3964 12.2758 12.0586 12.3813L12.0478 13.0464C12.5861 13.3102 13.2301 13.7004 13.1668 14.7975C13.1562 15.0718 13.051 15.1452 12.9666 15.1663C12.6499 15.2402 12.3222 15.2934 12.0056 15.3145V15.5568C13.3989 15.4618 14.7086 14.8814 15.722 13.9214L16.5878 14.7867C13.8115 17.4663 9.40926 17.4668 6.62248 14.8083L7.48828 13.943C8.49109 14.8819 9.78913 15.4513 11.1614 15.5568V15.3145C9.85246 15.209 8.62771 14.6708 7.67767 13.7635L7.89953 13.532L8.21663 13.5634L8.38546 13.3839L8.82809 13.4055L8.89195 13.2465L8.87139 13.1838C9.52586 13.6796 10.3067 13.996 11.13 14.0804V13.837C10.2222 13.7315 9.37706 13.3519 8.70148 12.7295L9.56727 11.8642C9.77839 12.0541 10.0112 12.2124 10.2751 12.339C10.2962 12.2547 10.3172 12.1814 10.3595 12.1076C10.1378 11.9915 9.92637 11.8538 9.74692 11.6955L10.6127 10.8313C10.7499 10.9368 10.9078 11.0317 11.0662 11.0844V10.8205C10.9606 10.7783 10.866 10.7151 10.7815 10.6518L11.024 10.4084C10.9395 10.3873 10.8552 10.3557 10.7707 10.3241L10.6019 10.4939C10.5174 10.3989 10.4436 10.2933 10.3909 10.1878C10.2431 10.1245 10.0952 10.0502 9.95796 9.95525C9.45127 9.64932 9.14546 9.08995 9.15602 8.48863C9.14549 8.08775 9.26171 7.68677 9.5045 7.37028L8.63871 6.5061C9.27206 5.89423 10.0848 5.50326 10.9504 5.36612V5.12392C10.0214 5.26107 9.14546 5.68338 8.46988 6.33745L8.32161 6.18927C8.28992 6.24205 8.24803 6.31605 8.20581 6.411L8.30105 6.50618C7.53046 7.31848 7.09707 8.39363 7.07595 9.51187H5.84112C5.86223 8.0666 6.42162 6.68504 7.42443 5.6301L7.81512 6.02055H7.86815C7.94204 6.01002 8.02667 5.98837 8.09001 5.95674L7.59326 5.4614C7.85716 5.20821 8.14211 4.97611 8.44823 4.77568C8.46934 4.71238 8.48043 4.64888 8.51208 4.59614C8.56483 4.51174 8.62759 4.42744 8.70148 4.34305C8.23701 4.59624 7.81527 4.91262 7.43526 5.28185L6.56946 4.41659C7.73062 3.2878 9.24034 2.58122 10.866 2.41243C10.866 2.38081 10.8552 2.35944 10.8552 2.35944C10.8446 2.29614 10.8343 2.24401 10.8238 2.17016C6.71752 2.59214 3.75145 6.2526 4.18424 10.3458C4.58537 14.1331 7.77282 17.0135 11.5835 17.0029C15.7003 17.0029 19.0366 13.6587 19.0261 9.54435C19.0261 5.72544 16.1337 2.52808 12.3336 2.13775ZM6.0317 2.4341C4.69109 2.71894 3.57161 3.89961 3.26549 5.35544C3.68773 4.85961 4.41656 4.57527 4.82824 4.08999C5.23993 3.59417 5.37723 2.91938 6.0317 2.4341ZM17.1149 2.4341C17.7694 2.91938 17.9067 3.59417 18.3184 4.08999C18.7301 4.58582 19.4481 4.87043 19.8703 5.36626C19.5642 3.91043 18.445 2.71894 17.1149 2.4341ZM12.5868 2.8981L12.4916 2.96083L12.2806 2.94028V2.99328C12.4178 3.0038 12.5549 3.01438 12.6604 3.03548L12.8401 3.02468L13.0197 3.03548L13.0933 2.97166L12.9559 2.90893L12.5868 2.8981ZM12.2492 3.2561C12.2492 3.37213 12.2384 3.63682 12.2384 3.63682C12.2384 3.7212 12.2276 4.0267 12.2276 4.08999C12.312 4.10052 12.4072 4.11081 12.4916 4.12134C13.2833 4.31121 13.5684 4.76524 13.5684 5.20832C13.5684 5.93623 12.9454 6.21086 12.1853 6.42185L11.9321 6.48458C11.6999 6.53735 11.4576 6.60083 11.2254 6.66412C11.1409 6.68521 11.0566 6.70604 10.9722 6.73767C10.1277 6.99086 9.39857 7.40216 9.39857 8.44655C9.39857 9.49095 10.2329 9.87089 11.0457 10.1241C11.0457 9.8287 11.0347 9.52284 11.0241 9.22746C10.6546 9.05866 10.4126 8.83742 10.4126 8.46819C10.4126 8.09896 10.6444 7.88772 10.9927 7.72947C11.0666 7.69786 11.1509 7.66595 11.2459 7.63429C11.4465 7.56046 11.6793 7.50831 11.9115 7.44502L12.1648 7.38121C13.3048 7.10692 14.592 6.74881 14.5814 5.21914C14.5814 4.44903 14.0221 3.60446 12.6604 3.30907C12.5232 3.28798 12.3864 3.26663 12.2492 3.2561ZM10.8974 3.37291C10.6441 3.45731 10.3913 3.5524 10.1485 3.679C9.88464 3.76339 9.50449 3.78374 9.11392 4.20573C8.98724 4.35341 8.87073 4.51148 8.75461 4.66972C8.6385 4.83852 8.62803 5.11338 8.54358 5.25053C8.41691 5.46152 8.44834 5.58798 8.44834 5.58798C8.42723 5.68293 8.37532 5.77804 8.31198 5.85189C8.18531 5.99956 7.99441 6.07281 7.80441 6.04116C7.98386 6.12556 8.22756 6.00981 8.22756 6.00981C8.18534 6.12586 8.15344 6.24203 8.13232 6.35808C8.33289 5.90445 8.51163 5.74674 8.57496 5.69399C8.65941 5.71509 8.83971 5.70435 9.16695 5.51445C9.53641 5.30346 10.0952 4.95509 10.2535 4.73355C10.4224 4.51202 10.6444 4.33205 10.9083 4.23711C10.9083 3.92063 10.8974 3.6261 10.8974 3.37291ZM3.47653 3.64655C1.69257 4.97578 2.45249 7.10733 2.35749 7.78249C3.27586 5.78865 4.63836 6.2109 5.21893 4.32254C4.88114 4.89221 3.39211 5.13449 2.70598 6.62197C3.06488 5.73581 2.8854 4.38501 3.47653 3.64655ZM19.6798 3.64655C20.2815 4.37446 20.102 5.73581 20.4504 6.62197C19.7537 5.13449 18.2657 4.89168 17.9385 4.3009C18.5191 6.19981 19.8805 5.77757 20.7989 7.76086C20.7039 7.09625 21.4638 4.95468 19.6798 3.64655ZM15.0143 3.92127L14.8877 4.01645L15.0457 4.10081L15.2253 4.22736L15.247 4.12136L15.1734 4.00563L15.0143 3.92127ZM9.37798 4.43826L9.64205 4.44906L9.33578 4.7757L9.1453 4.8179L9.37798 4.43826ZM6.38992 4.57563L7.25571 5.4398C6.21067 6.5264 5.61991 7.98281 5.5988 9.49139H4.3737C4.39482 7.64523 5.11265 5.89431 6.38992 4.57563ZM16.7989 4.59617C18.0656 5.91486 18.7724 7.66632 18.7935 9.49138H17.5695C17.5589 8.58413 17.347 7.68736 16.9353 6.87505L16.9461 6.85341L17.0305 6.8956L17.0522 6.83287L16.8303 6.45324L16.5662 6.09416L16.26 5.84106C16.1544 5.71447 16.0492 5.58803 15.9331 5.46144L16.7989 4.59617ZM12.207 5.09261V5.33489C12.5553 5.3876 12.8924 5.48193 13.2091 5.60852C13.2513 5.53468 13.283 5.46173 13.2935 5.38788C12.9452 5.24019 12.5764 5.14536 12.207 5.09261ZM2.03066 5.41925C0.39448 7.72958 2.12533 9.11142 2.18866 9.95537C2.60035 8.3413 3.58234 8.33114 4.2157 6.20015C4.0468 6.43224 3.9307 6.53692 3.48735 6.8956C2.82233 7.42307 2.35782 8.17235 2.19948 9.00575C2.24171 7.9719 1.60842 6.49529 2.03066 5.41925ZM21.1268 5.41925C21.549 6.49529 20.9155 7.9719 20.9471 9.00575C20.7782 8.17235 20.3243 7.42307 19.6593 6.8956C19.2159 6.52637 19.0998 6.43224 18.9309 6.20015C19.5643 8.33114 20.5455 8.3413 20.9677 9.95537C21.031 9.12197 22.763 7.74013 21.1268 5.41925ZM8.1215 6.13634C8.06869 6.14686 8.02602 6.15771 7.97323 6.14714L8.09012 6.27368C8.10065 6.23148 8.11097 6.17853 8.1215 6.13634ZM15.2362 6.16768L15.5316 6.17848L15.6052 6.26284L15.5738 6.38939L15.9862 6.64248L16.0706 6.63273L16.5879 7.23409L16.7989 7.15946C17.1367 7.88738 17.3154 8.68958 17.326 9.49134H16.102C16.102 9.17486 16.0601 8.86928 15.9862 8.56335L16.0381 8.48871L16.1128 8.09827L16.0597 7.68727L15.9115 7.21246L15.5738 6.7171L15.6582 6.7593L15.7004 6.7171L15.4266 6.52674L15.405 6.59055L15.6799 6.97992L15.8379 7.29682L15.9439 7.61373L15.9753 7.82464L16.0283 8.18263L15.9223 8.19343C15.9223 8.19343 15.8065 7.97256 15.7643 7.87761L15.8173 7.79325L15.7112 7.64508V7.50771L15.6376 7.41254L15.5424 7.42333C15.5107 7.36003 15.4786 7.29654 15.4363 7.24379L15.5002 7.27625L15.5207 7.2546L15.4894 7.18106L15.5738 7.13886L15.5424 7.09667L15.4266 7.13886L15.4688 6.94851L15.3942 6.90631L15.3314 7.05449C15.1942 6.85404 15.046 6.66383 14.8877 6.48449L15.2362 6.16768ZM8.45916 6.6425L9.32496 7.50775C9.1455 7.70819 8.98761 7.93028 8.8715 8.17292H8.80764L8.68102 8.20428H8.6388L8.51217 8.32001L8.68101 8.29948L8.82819 8.26702L8.79682 8.30921L8.6702 8.39358H8.60743L8.41696 8.54175L8.23731 8.52122L7.97324 9.01658L8.02626 9.11176L7.87908 9.28048L7.85741 9.49139H7.30872C7.31925 8.42589 7.7308 7.41261 8.45916 6.6425ZM14.7188 6.67496C14.9194 6.8965 15.0995 7.13886 15.2578 7.39204L15.1517 7.4234L15.1625 7.61376L15.4786 7.81385C15.563 7.99319 15.6271 8.17231 15.6799 8.3622L15.6268 8.44656L15.511 8.53093L15.4786 8.71047L15.3941 8.75267L15.3314 8.83703L15.2675 8.80567H15.1517L15.2156 8.71049L15.2675 8.46821L15.3519 8.41522L15.1203 8.19349L14.9515 8.2573L14.9093 8.42603L14.8032 8.54176L14.6874 8.44658L14.6452 8.34167L14.7079 8.29947L14.7404 8.36221L14.7923 8.34168L14.7718 8.23568H14.6982V8.27788L14.6452 8.28867L14.3811 7.97177L14.2858 7.89822L14.3172 7.86686L14.4016 7.8355L14.3172 7.80304C14.3172 7.80304 14.2228 7.82466 14.2122 7.82466L14.2653 7.8982H14.1278C14.0434 7.76104 13.9585 7.64459 13.8529 7.5391L14.7188 6.67496ZM14.8671 7.02323L14.6766 7.11732L14.6139 7.23413L14.5716 7.33905L14.6561 7.47641L14.6236 7.53914L14.5078 7.58133L14.5186 7.67652L14.7296 7.61378L14.7924 7.48724L14.6452 7.29689L14.7188 7.18116L14.919 7.31851L14.9515 7.28605L14.9093 7.25469L14.867 7.17032L14.9515 7.12813L14.8671 7.02323ZM11.9007 7.70787C11.679 7.76064 11.457 7.82437 11.2459 7.89822C11.2565 8.278 11.3098 11.0944 11.3098 11.4004C11.4153 11.3687 11.52 11.3274 11.615 11.3063C11.6889 11.2852 11.7532 11.2636 11.8271 11.2425C11.8271 11.042 11.8901 8.21424 11.9007 7.70787ZM13.6842 7.70787C13.7687 7.80281 13.843 7.89872 13.9169 8.00421L13.8747 8.14049L13.7589 8.05613L13.6636 8.07775L13.7059 8.16211H13.7481L13.6951 8.28866L13.6637 8.23566L13.5262 8.19346L13.6312 8.17293V8.15131L13.5262 8.07777L13.5576 7.84522L13.6842 7.70787ZM10.9819 7.9934C10.7707 8.11999 10.6656 8.26777 10.655 8.4682C10.655 8.6792 10.7818 8.81643 11.0035 8.94303V8.84784L10.8661 8.69966L10.9397 8.56339L11.0035 8.54177C10.9929 8.29913 10.9927 8.03561 10.9927 7.99341L10.9819 7.9934ZM1.05988 8.00419C0.394861 10.8104 2.16792 11.1371 2.63238 12.3186C2.55849 10.6307 3.63565 10.2928 3.5512 8.3622C3.07619 9.28 2.32607 9.49144 2.41052 11.3798C2.0094 9.70243 1.04933 9.06969 1.05988 8.00419ZM22.0867 8.00419C22.0973 9.08024 21.1372 9.7027 20.7361 11.3906C20.8205 9.48115 20.081 9.28 19.5954 8.3622C19.5004 10.2928 20.5881 10.6307 20.5142 12.3186C20.9681 11.1476 22.7518 10.8104 22.0867 8.00419ZM15.7113 8.426C15.7324 8.4893 15.7432 8.55198 15.7643 8.61528L15.6474 8.96355V9.07928L15.7957 8.837C15.8274 9.048 15.849 9.26955 15.8595 9.48054H14.7827L14.761 9.38536L14.8877 9.29126L14.9093 9.22745L14.9612 9.18526L15.1095 9.16472L15.1203 9.1009L14.9937 9.03709L15.2156 8.92137L15.4363 8.89001L15.4894 8.78402L15.616 8.71046L15.669 8.60555L15.7113 8.426ZM8.26977 8.97436L8.53275 9.01656L8.57498 9.05876C8.55387 9.1959 8.54334 9.34343 8.53275 9.48058H8.2373L8.09986 9.30103L8.12152 9.05876L8.26977 8.97436ZM12.1117 9.61791C12.1011 9.86054 12.1006 10.2081 12.0901 10.4507C12.3751 10.5562 12.5652 10.6943 12.5652 10.9158C12.5652 11.1901 12.2806 11.3376 12.0695 11.422C11.9851 11.4536 11.8585 11.4958 11.8163 11.5063C11.6474 11.5591 11.4787 11.6118 11.3098 11.6751C11.2253 11.7067 11.141 11.7378 11.0565 11.78C10.7821 11.9277 10.4754 12.1497 10.4754 12.5295C10.4754 12.9515 10.7818 13.1732 11.0879 13.3526C11.0879 13.2787 11.0771 12.6352 11.0771 12.6247C11.0877 12.4981 11.2042 12.4138 11.3098 12.3716C11.4681 12.2978 11.6365 12.234 11.8054 12.1812C11.9004 12.1496 11.9742 12.118 12.0587 12.0969C12.6815 11.907 13.3996 11.6754 13.3996 10.9158C13.3996 10.1562 12.7873 9.84999 12.1117 9.61791ZM5.84122 9.72282H7.06632C7.06632 9.83886 7.07658 9.95531 7.09769 10.0819L6.94942 10.1133L6.91805 10.2614L6.60095 10.6627L6.61176 11.2111L6.29575 11.316H6.1161C5.9472 10.799 5.86233 10.2714 5.84122 9.72282ZM16.1019 9.72282H17.326C17.2837 11.1575 16.7141 12.5186 15.7113 13.5419L15.5424 13.3731L15.6377 13.2682L15.5424 12.7934L15.4786 12.7718L15.5208 12.6874L15.3206 12.6247L15.2784 12.7934L15.2578 13.0043L15.2156 13.0465L14.8454 12.6777C15.616 11.876 16.0597 10.8305 16.1019 9.72282ZM17.5586 9.72282H18.7827C18.7404 11.5373 18.0123 13.2783 16.7351 14.5759L15.8801 13.7106C16.9251 12.6345 17.527 11.2103 17.5586 9.72282ZM4.3737 9.73361H5.5988C5.60933 10.2611 5.70453 10.7998 5.86287 11.3062L5.7882 11.2954L5.7146 11.2219L5.36612 11.1894L5.47218 11.3376L5.15508 11.2738L5.2395 11.2002L5.16591 11.1267L4.93323 11.2219L4.84881 11.369L4.88128 11.7172L5.14426 12.35L5.27088 12.55L5.34556 12.5717L5.14426 12.192L5.10204 12.0017L5.14426 11.9595L5.1129 11.8546L5.2287 11.8751L5.41917 12.1498L5.46139 12.1703V11.9703L5.53498 12.0125L5.55665 12.1184L5.74604 12.1703L5.83046 12.1076L5.86293 12.1281V12.2763L5.94735 12.3812L6.05232 12.4028L6.285 12.7825L6.42245 12.8247L6.46467 12.6451C6.70746 13.0355 6.98158 13.4051 7.30882 13.7321L6.44303 14.5974C5.1552 13.2998 4.41593 11.5587 4.3737 9.73361ZM7.30874 9.73361H7.67778L7.59337 10.0289L7.69943 10.1457L7.58363 10.3242H7.38233L7.37153 10.3144C7.33989 10.1245 7.31932 9.9235 7.30874 9.73361ZM7.99488 9.73361H8.27951L8.32173 9.81797L8.25896 10.1035L8.2276 10.1554L8.33257 10.3879L8.25898 10.4301L8.20596 10.3663L8.1854 10.3879L8.23732 10.5253L8.32173 10.6832H8.36395L8.38562 10.5361L8.34339 10.4831V10.388L8.33259 10.1879L8.39644 9.82882L8.33259 9.73363H8.5328C8.57503 10.4615 8.87135 11.1476 9.37803 11.6751L8.51224 12.5295C8.42779 12.4346 8.33289 12.34 8.259 12.2451L8.30122 11.939L8.1746 11.6437L8.14213 11.1797L7.99495 10.8942L8.02631 10.7146L7.84666 10.3772L7.69947 10.3036L7.76225 10.1241L7.69947 9.98672L7.76225 9.82882H7.93107L7.99488 9.73361ZM14.8985 9.7444H15.8379C15.7957 10.7888 15.3739 11.7805 14.6561 12.5295L14.5294 12.4029L14.5814 12.2342L14.4872 11.8546L14.2967 12.139L14.1809 12.0233L14.2654 11.9076L14.3812 11.675L14.3389 11.6112L14.4125 11.4425L14.4017 11.2846L14.3595 11.1267L14.2545 11.0942L14.2123 11.1796L14.1484 11.158C14.2434 11.0209 14.3278 10.8623 14.4017 10.7146L14.5077 10.6724L14.5716 10.588L14.603 10.6205L14.6765 10.5361L14.6138 10.4615L14.6657 10.4507L14.7609 10.4939H14.9514L15.0672 10.4301L15.3627 10.3458L15.3096 10.2506L15.2891 10.1348L15.4471 10.2084L15.5109 10.177L15.4785 10.0505L15.2782 10.124L15.0672 10.0818L14.8985 9.7444ZM8.77626 9.88176L8.95591 10.071H9.12474L9.34552 10.2192L9.40937 10.1879L9.56738 10.3036L9.49379 10.3566L9.67343 10.4723L9.66263 10.3458L9.75787 10.1879L9.86284 10.2928L9.9689 10.4409L9.77843 10.4939L9.86284 10.6627L9.98947 10.588L9.96891 10.5362L10.0641 10.4723L10.1161 10.2084C10.19 10.3667 10.2857 10.5145 10.4018 10.6411L9.53598 11.5063C9.11374 11.0632 8.85015 10.4936 8.77626 9.88176ZM3.46679 10.3663C3.40345 11.3685 2.72717 11.8541 3.18108 13.6792C2.38938 12.1284 1.16554 11.5489 0.806641 10.4939C0.827754 13.395 3.16028 13.827 3.75141 14.6288C3.25529 12.7826 4.13181 12.1386 3.46679 10.3663ZM19.6798 10.3663C19.0148 12.1386 19.8913 12.7826 19.3952 14.6288C19.9863 13.827 22.3189 13.395 22.34 10.4939C21.9811 11.5594 20.7572 12.1284 19.9655 13.6792C20.4194 11.8541 19.7432 11.3685 19.6798 10.3663ZM12.1009 10.7254C12.1009 10.7781 12.0901 11.0206 12.0901 11.1472C12.2273 11.0734 12.3228 11.0104 12.3228 10.9049C12.3228 10.8416 12.2387 10.7781 12.1226 10.7254H12.1009ZM13.5576 11.8859L13.7795 12.0438L13.9483 12.1282L14.0327 12.2126L13.9905 12.2548L13.7264 12.1812L13.642 12.2126L13.4948 12.0968L13.3574 12.0438C13.4313 11.9911 13.4943 11.9387 13.5576 11.8859ZM11.8163 12.4235C11.8163 12.4235 11.7208 12.4554 11.668 12.4765C11.6363 12.487 11.5419 12.5289 11.4786 12.55C11.4153 12.5711 11.3412 12.6036 11.3412 12.6246C11.3412 12.6246 11.4039 15.8731 11.4039 15.9364C11.4039 16.601 11.7427 16.6116 11.7427 15.9364C11.7427 15.8942 11.8163 12.4235 11.8163 12.4235ZM4.00466 12.55C4.17356 13.3201 3.68754 14.4491 4.45812 15.5146C3.66643 14.6285 1.97762 14.3968 1.29148 13.0465C2.14652 16.3484 4.38495 15.6733 5.38776 16.3907C4.5644 15.1986 5.23971 14.4067 4.00466 12.55ZM19.1311 12.55C17.8961 14.4067 18.5714 15.1986 17.748 16.3907C18.7614 15.6733 20.9893 16.3484 21.8443 13.0465C21.1582 14.3968 19.4802 14.6285 18.6885 15.5146C19.4591 14.4491 18.9728 13.3307 19.1311 12.55ZM5.44079 12.7198L5.66157 13.067L5.67238 13.0151L5.5674 12.7718L5.44079 12.7198ZM14.6658 12.8561L15.5316 13.7214C15.2149 14.0273 14.8562 14.3013 14.4656 14.5228L14.5814 14.2805L14.5392 14.1756L14.708 14.0274V13.9431L14.5608 13.8479L14.6766 13.6056L14.8563 13.3731L14.6766 13.1838H14.5392L14.4548 13.0464C14.5287 12.9831 14.6025 12.9194 14.6658 12.8561ZM7.34013 13.173L7.61501 13.3309L7.66804 13.3731L7.46675 13.5743C7.37174 13.4793 7.28713 13.3845 7.20268 13.279L7.34013 13.173ZM12.0381 13.2887L12.0273 13.7744C12.4073 13.9642 12.7659 14.2382 12.9137 14.7445C12.977 13.9006 12.5026 13.5419 12.0381 13.2887ZM5.18647 14.5131C5.59815 15.1461 5.17594 15.9371 6.47433 17.1608C5.20762 16.4118 3.44547 16.7277 2.60099 15.7255C4.05772 18.5106 6.6115 17.3718 7.32931 17.72C6.64317 16.7705 7.10765 16.2327 5.18647 14.5131ZM17.9601 14.5131C16.0284 16.2327 16.5032 16.7705 15.8065 17.72C16.5349 17.3718 19.0886 18.5106 20.5348 15.7255C19.7009 16.7383 17.939 16.4118 16.6723 17.1608C17.9707 15.9265 17.5485 15.1355 17.9601 14.5131ZM9.65179 17.5404C8.93399 17.5615 8.22756 17.678 7.54142 17.8573C6.38027 18.1633 5.37647 18.4053 4.50033 17.9622C5.33425 18.7007 6.31632 18.9749 7.73081 18.8167C8.90253 18.6901 9.85292 18.0999 10.9613 18.1104H11.0035C10.3068 18.4585 9.68338 18.9441 9.1767 19.5349L9.71566 19.6084C9.71566 19.6084 10.2744 18.4794 11.5728 18.184C12.8712 18.4794 13.431 19.6084 13.431 19.6084L13.9699 19.5349C13.4633 18.9441 12.8398 18.4585 12.1431 18.1104H12.1853C13.2937 18.0999 14.2441 18.6901 15.4158 18.8167C16.8303 18.9644 17.8018 18.7007 18.6463 17.9622C17.7702 18.4053 16.7664 18.1633 15.6052 17.8573C14.9191 17.678 14.2127 17.5615 13.4949 17.5404C12.8404 17.5299 12.185 17.635 11.5728 17.8671C10.9606 17.635 10.3063 17.5299 9.65179 17.5404Z" fill="white"/>
</svg>
