<svg width="25" height="26" viewBox="0 0 25 26" fill="none" xmlns="http://www.w3.org/2000/svg">
<g clip-path="url(#clip0_6194_138698)">
<path d="M7.54783 7.00568C6.69366 7.72602 6.00727 8.62462 5.53678 9.63848C5.06629 10.6523 4.82309 11.7569 4.82422 12.8748C4.82422 16.7494 7.69006 19.9537 11.4157 20.4806V10.8774L7.54623 7.00488L7.54783 7.00568ZM17.4506 7.00488L13.5811 10.8774V20.4806C17.3073 19.9537 20.1726 16.7494 20.1726 12.8748C20.1742 11.7572 19.9316 10.6528 19.4617 9.63898C18.9919 8.62514 18.3062 7.72638 17.4527 7.00568" fill="white"/>
<path d="M4.12977 3.58447C2.25077 5.27726 0.929022 7.50062 0.339095 9.96092C-0.250833 12.4212 -0.0811925 15.0027 0.825612 17.3645C1.73242 19.7263 3.33373 21.7573 5.41807 23.1892C7.50241 24.6212 9.97174 25.3867 12.4999 25.3848H12.5023C15.0301 25.3859 17.4989 24.6198 19.5826 23.1877C21.6664 21.7556 23.2672 19.7248 24.1738 17.3633C25.0804 15.0018 25.2501 12.4208 24.6606 9.96077C24.071 7.50078 22.7499 5.27752 20.8717 3.58447L19.7554 4.70189L18.6824 5.77551C19.3 6.3147 19.845 6.93189 20.3038 7.6116C21.3182 9.11545 21.8771 10.8804 21.9134 12.6945C21.9498 14.5085 21.4619 16.2945 20.5085 17.8378C19.5551 19.3811 18.1767 20.6161 16.539 21.3943C14.9012 22.1726 13.0737 22.4611 11.2761 22.2251C9.47849 21.9891 7.7872 21.2386 6.40543 20.064C5.02367 18.8893 4.01021 17.3403 3.48683 15.6031C2.96344 13.8659 2.9524 12.0145 3.45502 10.2712C3.95763 8.52788 4.95254 6.96689 6.32019 5.77577L4.13191 3.58581" fill="white"/>
<path d="M12.5 8.47047e-09C11.6676 -5.28125e-05 10.8538 0.246935 10.1617 0.709729C9.4695 1.17252 8.93002 1.83034 8.61144 2.59998C8.29286 3.36962 8.20949 4.21652 8.37187 5.03358C8.53426 5.85065 8.9351 6.60117 9.52372 7.19023C10.1123 7.7793 10.8623 8.18045 11.6787 8.34296C12.4951 8.50547 13.3414 8.42204 14.1104 8.10322C14.8795 7.78439 15.5368 7.24449 15.9992 6.5518C16.4617 5.85911 16.7085 5.04474 16.7084 4.21167C16.7084 3.09467 16.265 2.02341 15.4758 1.23357C14.6866 0.443729 13.6161 8.47047e-09 12.5 8.47047e-09" fill="white"/>
</g>
<defs>
<clipPath id="clip0_6194_138698">
<rect width="25" height="25.3846" fill="white"/>
</clipPath>
</defs>
</svg>
