<svg width="25" height="16" viewBox="0 0 25 16" fill="none" xmlns="http://www.w3.org/2000/svg">
<path d="M0 15.8674H0.901198V0.348635H0V15.8674ZM1.86256 15.8674H4.62614V0.348635H1.86256V15.8674ZM5.52752 0.348635V15.8668H8.29109V0.348635H5.52752Z" fill="white"/>
<path d="M22.2361 15.8685H23.1374V0.348633H22.2361V15.8685ZM24.0988 0.348633V15.8685H25V0.348633H24.0988ZM9.22229 15.8685H10.1235V0.348635H9.22229V15.8685ZM11.085 0.348635V15.868H11.9864V0.348635H11.085Z" fill="white"/>
<path d="M12.9172 15.8685H15.6812V0.348635H12.9172V15.8685ZM16.5822 15.8685H17.5434V0.348635H16.5822V15.8685ZM18.4448 0.348635V15.868H21.2083V0.348635H18.4448Z" fill="white"/>
</svg>
