<svg width="25" height="16" viewBox="0 0 25 16" fill="none" xmlns="http://www.w3.org/2000/svg">
<path d="M24.8366 0.732042H20.0186H19.8551V0.894908V1.41679V1.57965H20.0186H20.3534C20.7428 1.57965 21.0939 1.77873 21.2928 2.11222C21.4916 2.44572 21.4991 2.84811 21.3129 3.18872L15.9556 12.9841L13.5157 7.19007L15.8139 2.9891C16.2895 2.11972 17.2024 1.57965 18.1963 1.57965H18.3048H18.4683V1.41679V0.894908V0.732042H18.3048H13.4869H13.3234V0.894908V1.41679V1.57965H13.4869H13.8217C14.2111 1.57965 14.5622 1.77873 14.7611 2.11222C14.9599 2.44572 14.9674 2.84811 14.7811 3.18872L13.1142 6.23665L11.6286 2.70875C11.5209 2.45305 11.5475 2.1739 11.7017 1.94301C11.8558 1.71212 12.1039 1.57965 12.3823 1.57965H12.7631H12.9266V1.41679V0.894908V0.732042H12.7631H7.00096H6.83746V0.894908V1.41679V1.57965H7.00096H7.0802C8.21689 1.57965 9.23542 2.25435 9.67517 3.29849L11.8702 8.51118L9.42393 12.9841L5.09692 2.70875C4.98923 2.45305 5.01588 2.1739 5.17 1.94301C5.32413 1.71212 5.57221 1.57965 5.85059 1.57965H6.43575H6.59924V1.41679V0.894908V0.732042H6.43575H0.163497H0V0.894908V1.41679V1.57965H0.163497H0.548479C1.68517 1.57965 2.70376 2.25435 3.14345 3.29849L8.13154 15.1438C8.21879 15.351 8.42109 15.4848 8.64699 15.4848C8.85431 15.4848 9.03737 15.3764 9.13672 15.1947L9.78739 14.0053L12.2716 9.46422L14.6632 15.1437C14.7505 15.3509 14.9528 15.4848 15.1787 15.4848C15.386 15.4848 15.569 15.3763 15.6684 15.1947L16.3191 14.0052L22.3456 2.98899C22.8212 2.11961 23.734 1.57954 24.7279 1.57954H24.8365H25V1.41668V0.8948V0.731934L24.8366 0.732042Z" fill="white"/>
</svg>
