<svg width="23" height="23" viewBox="0 0 23 23" fill="none" xmlns="http://www.w3.org/2000/svg">
<path d="M21.2726 6.6014C21.0128 6.71068 20.8917 7.00682 21.0021 7.26417C21.5217 8.48043 21.7851 9.77778 21.7851 11.1104C21.7851 11.9283 21.6819 12.7215 21.4897 13.483C21.3402 13.9624 21.0733 14.4066 20.7067 14.8085C20.7138 14.6358 20.7209 14.463 20.7209 14.2868C20.7245 12.3407 20.1834 10.289 19.1762 8.35704C19.9129 7.72952 20.3828 6.95394 20.5465 6.08669C20.5963 5.81171 20.4148 5.5473 20.1372 5.49442C19.8595 5.44154 19.5926 5.62486 19.5428 5.89984C19.436 6.47448 19.1334 6.99977 18.6636 7.44749C18.5177 7.20777 18.3646 6.97156 18.2045 6.73536C17.3075 5.43097 16.2397 4.30284 15.0723 3.40386C16.6135 3.50257 18.0372 3.87627 19.1868 4.51084C19.3684 4.61307 19.6068 4.60955 19.7741 4.46853C19.9912 4.28874 20.0197 3.96793 19.8382 3.75288C18.1902 1.47195 15.3392 0.213379 11.8084 0.213379C5.74338 0.213379 0.806641 5.1031 0.806641 11.1104C0.806641 12.1468 0.956131 13.1481 1.2302 14.0964C1.24799 14.1598 1.26223 14.2233 1.28003 14.2868C1.28359 14.3009 1.2907 14.3114 1.29426 14.322C2.68239 18.764 6.86812 22.0039 11.8049 22.0039C14.0899 22.0039 16.2113 21.3094 17.9731 20.1248C17.9909 20.1142 18.0087 20.1072 18.0229 20.0966C18.1297 20.0261 18.2294 19.9521 18.329 19.8745C20.3507 18.3938 21.8492 16.2434 22.4756 13.7544C22.5112 13.6416 22.5433 13.5217 22.5682 13.4054C22.5753 13.3772 22.5753 13.349 22.5788 13.3208C22.7283 12.6051 22.8066 11.8648 22.8066 11.1069C22.8066 9.63676 22.5148 8.20898 21.9417 6.8658C21.835 6.61197 21.5324 6.49211 21.2726 6.6014ZM17.3609 7.31C17.5282 7.55678 17.6884 7.80356 17.8414 8.05739C17.0228 8.52626 15.9906 8.80477 14.873 8.88585C14.7769 7.13726 14.5704 5.45212 14.2359 4.05254C15.3997 4.90921 16.4675 6.01618 17.3609 7.31ZM15.8411 1.94435C16.3536 2.14882 16.8626 2.4097 17.3467 2.73756C16.5743 2.54719 15.7521 2.43085 14.8979 2.38855C15.2467 2.16292 15.5706 2.00781 15.8411 1.94435ZM14.4886 1.52483C14.2038 1.67642 13.9084 1.86679 13.6094 2.09242C13.4742 1.79276 13.3318 1.52835 13.1787 1.30273C13.5881 1.34856 14.0294 1.41906 14.4886 1.52483ZM9.62301 8.92463C10.3562 9.25249 11.1571 9.50985 11.9971 9.68964C12.6342 9.82361 13.2677 9.89764 13.8942 9.9188C13.9048 10.2995 13.912 10.6909 13.912 11.0928C13.912 13.4794 13.7198 15.4607 13.4421 17.0084C12.5274 16.9696 11.5842 16.8497 10.6374 16.6523C9.3703 16.3808 8.17438 15.986 7.0888 15.4783C7.44472 13.8919 8.10675 11.967 9.1603 9.83419C9.30624 9.52395 9.46285 9.22077 9.62301 8.92463ZM7.83625 6.58377C7.41269 6.18893 7.09235 5.78351 6.87524 5.37103C7.83269 4.79992 8.89336 4.33457 10.0252 3.99613C10.6979 3.79518 11.3777 3.64711 12.0576 3.54488C11.0752 4.6307 10.1 6.01266 9.20302 7.57441C8.69048 7.2818 8.23133 6.95041 7.83625 6.58377ZM13.8515 8.89996C13.3104 8.8788 12.7552 8.81182 12.2106 8.69548C11.4703 8.54036 10.7655 8.31474 10.1178 8.03271C11.0716 6.3793 12.1181 4.94094 13.1467 3.86921C13.4671 5.12426 13.7376 6.8094 13.8515 8.89996ZM11.7942 1.22869C11.9686 1.23222 12.1821 1.43669 12.4064 1.83859C12.2925 1.78923 12.1786 1.7434 12.0647 1.7011C11.602 1.52483 11.1428 1.39086 10.6908 1.29215C11.0539 1.24985 11.4205 1.22869 11.7942 1.22869ZM6.59405 3.72115C6.70795 3.19586 7.02829 2.72699 7.51947 2.33567C8.71183 1.98313 10.1035 2.06774 11.5628 2.59655C10.9506 2.70231 10.3349 2.84332 9.72623 3.02312C8.59794 3.35803 7.53371 3.81633 6.55846 4.37687C6.54066 4.15477 6.55134 3.9362 6.59405 3.72115ZM5.6366 3.35451C5.62237 3.40739 5.60813 3.45674 5.59745 3.51315C5.49423 3.9926 5.50491 4.47911 5.62593 4.96561C4.5261 5.71652 3.56865 6.60845 2.8034 7.60613C2.57205 7.90932 2.36561 8.21955 2.17697 8.53331C2.7429 6.45686 3.97797 4.65185 5.6366 3.35451ZM5.80033 18.9932C4.09187 17.7134 2.81764 15.9049 2.21256 13.8144C2.12714 13.483 2.07019 13.1481 2.04883 12.8096C2.39053 13.2891 2.80696 13.7615 3.30171 14.2163C4.04916 14.9002 4.93898 15.5136 5.92847 16.0389C5.72915 17.16 5.6722 18.1753 5.80033 18.9932ZM3.99933 13.4689C3.13086 12.6721 2.5329 11.8331 2.2268 10.994C2.46883 10.0563 2.9351 9.115 3.62204 8.21603C4.27339 7.35936 5.08491 6.59082 6.01745 5.92805C6.2844 6.4075 6.66168 6.87638 7.13863 7.32058C7.59422 7.74363 8.12099 8.12437 8.71183 8.45928C8.54811 8.76246 8.3915 9.0727 8.23845 9.38646C7.33083 11.2302 6.59049 13.2045 6.1527 14.9989C5.34474 14.5512 4.61509 14.0365 3.99933 13.4689ZM11.8155 20.985C11.7906 20.985 11.7657 20.9885 11.7444 20.9921C10.221 20.9815 8.77946 20.636 7.48744 20.0191C7.45896 19.9944 7.42337 19.9732 7.38778 19.9556C6.81829 19.6806 6.59049 18.4256 6.88592 16.5078C7.97862 16.9943 9.16742 17.3785 10.4167 17.6429C11.3635 17.8439 12.3067 17.9673 13.2321 18.0131C12.7801 19.9626 12.1999 20.985 11.8155 20.985ZM17.7097 19.0707C16.4355 20.0014 14.9299 20.6395 13.2962 20.8828C13.7055 20.1812 14.0365 19.1941 14.2857 18.0343C15.7308 18.0166 17.1011 17.8086 18.3148 17.4032C18.6209 17.301 18.9092 17.1882 19.1868 17.0648C18.8523 17.8827 18.3575 18.5631 17.7097 19.0707ZM19.5748 15.7216C19.1157 16.0001 18.5889 16.2434 17.9909 16.4408C16.9338 16.7933 15.745 16.9837 14.4814 17.0154C14.784 15.2139 14.9299 13.1234 14.9299 11.0892C14.9299 10.6944 14.9264 10.296 14.9121 9.90117C16.1864 9.81656 17.3645 9.4887 18.329 8.93873C19.2224 10.6909 19.7029 12.5382 19.6994 14.2797C19.6994 14.7874 19.6567 15.2703 19.5748 15.7216Z" fill="white"/>
</svg>
