<svg width="25" height="25" viewBox="0 0 25 25" fill="none" xmlns="http://www.w3.org/2000/svg">
<path d="M14.1193 0.173711C15.4938 -0.0149943 16.8837 0.0849914 18.2666 0.0695007C18.9947 0.0526017 19.7002 0.589145 19.8115 1.32143C20.0213 2.24102 19.1989 3.19722 18.2582 3.12399C16.3556 3.0226 14.3615 2.92825 12.5632 3.66617C11.2197 4.23088 10.3931 5.59406 10.1537 6.98964C9.93119 7.79375 10.0931 8.87529 9.23692 9.34283C8.30184 9.96668 6.88514 9.2189 6.91049 8.08807C7.09216 6.00386 7.72728 3.84079 9.24396 2.32692C10.5297 1.02429 12.3337 0.389173 14.1193 0.173711Z" fill="white"/>
<path d="M4.22851 1.12271C5.02417 0.843876 5.96488 1.36493 6.16908 2.1789C6.36624 2.8788 5.93109 3.52096 5.75083 4.17298C5.2002 5.83331 4.64958 7.65276 5.13542 9.39477C5.58606 10.9241 7.02248 11.8437 8.41101 12.4338C9.13626 12.6675 9.63197 13.466 9.44749 14.2208C9.28413 15.0686 8.31244 15.6389 7.49424 15.3404C5.69027 14.5828 3.92855 13.4717 2.89912 11.7564C1.94715 10.2017 1.75703 8.28929 2.04009 6.5149C2.24992 4.99399 2.7583 3.53786 3.24415 2.08736C3.38779 1.62405 3.76801 1.26353 4.22851 1.12271Z" fill="white"/>
<path d="M14.6759 4.95736C16.8263 4.54897 19.2175 4.82358 20.9835 6.20366C22.8776 7.66965 23.8563 9.96369 24.552 12.1887C24.7393 12.8802 25.1899 13.5956 24.9097 14.3264C24.6294 15.177 23.538 15.6065 22.7593 15.1545C22.3565 14.9573 22.0833 14.5673 21.9763 14.1391C21.5257 12.5352 21.0173 10.9058 20.0385 9.53417C19.5104 8.78217 18.7345 8.19493 17.8417 7.95693C16.7658 7.66543 15.6335 7.82738 14.5633 8.06114C13.8366 8.27661 12.9635 7.86681 12.7213 7.13592C12.4819 6.53742 12.6973 5.82062 13.1804 5.41082C13.6014 5.06861 14.1661 5.05312 14.6759 4.95736Z" fill="white"/>
<path d="M16.7671 10.1159C17.3783 9.9356 18.1106 10.1356 18.474 10.6792C19.5597 12.5014 20.3709 14.6392 19.9977 16.791C19.6442 19.0385 18.0698 20.8538 16.3489 22.2324C15.6363 22.7915 14.9083 23.3309 14.1689 23.8519C13.5394 24.342 12.5255 24.2392 12.0284 23.6069C11.489 22.9746 11.6158 21.8945 12.3016 21.4185C13.9788 20.2538 15.8349 19.0822 16.7503 17.1796C17.491 15.57 16.8009 13.7843 15.9461 12.3719C15.404 11.5818 15.849 10.3778 16.7671 10.1159Z" fill="white"/>
<path d="M0.961835 14.49C1.4688 14.2703 2.09125 14.3365 2.52922 14.6787C4.0121 15.794 5.56118 16.946 7.39754 17.3811C8.75931 17.7064 10.1831 17.1586 11.1688 16.2137C11.5772 15.8729 11.918 15.4645 12.2729 15.0716C12.8277 14.4196 13.9459 14.4393 14.5106 15.0674C15.0162 15.6039 15.0612 16.5277 14.5655 17.084C13.4206 18.3528 12.1025 19.5555 10.4534 20.1089C8.65651 20.775 6.63708 20.5103 4.91902 19.7371C3.40515 19.0823 2.06309 18.112 0.73229 17.153C0.297141 16.8587 0.05633 16.3404 0 15.832C0.133784 15.287 0.398535 14.704 0.961835 14.49Z" fill="white"/>
</svg>
