<svg width="26" height="20" viewBox="0 0 26 20" fill="none" xmlns="http://www.w3.org/2000/svg">
<path d="M12.4112 14.492C12.5044 14.492 12.5976 14.5116 12.6908 14.5509C12.7841 14.5823 12.8734 14.6412 12.9588 14.7276L14.5204 16.3885C13.8367 17.2916 12.9783 17.9748 11.945 18.4381C10.9196 18.8936 9.70375 19.1213 8.29762 19.1213C7.00801 19.1213 5.85047 18.9014 4.825 18.4617C3.80729 18.0141 2.94108 17.4015 2.22636 16.6241C1.5194 15.8388 0.975594 14.9121 0.594927 13.8441C0.21426 12.7682 0.0239258 11.602 0.0239258 10.3455C0.0239258 9.0655 0.24145 7.89147 0.676499 6.82346C1.11155 5.74759 1.71751 4.82093 2.49438 4.04347C3.27902 3.26602 4.21515 2.66134 5.30277 2.22942C6.39039 1.7975 7.59066 1.58154 8.90358 1.58154C9.54061 1.58154 10.1388 1.64044 10.6982 1.75824C11.2653 1.86818 11.7935 2.02524 12.283 2.22942C12.7724 2.42575 13.223 2.66526 13.6347 2.94797C14.0465 3.22283 14.4116 3.5291 14.7301 3.86678L13.4017 5.66906C13.3162 5.779 13.2152 5.88109 13.0987 5.97533C12.9822 6.06171 12.819 6.1049 12.6093 6.1049C12.4694 6.1049 12.3374 6.07349 12.2131 6.01066C12.0888 5.94784 11.9567 5.87324 11.8168 5.78685C11.677 5.69262 11.5216 5.59445 11.3507 5.49236C11.1876 5.38242 10.9895 5.28426 10.7564 5.19787C10.5311 5.10364 10.2631 5.02511 9.95235 4.96228C9.64937 4.89946 9.29201 4.86805 8.88027 4.86805C8.16555 4.86805 7.51297 4.99762 6.92255 5.25677C6.33213 5.50807 5.82328 5.87323 5.396 6.35227C4.97649 6.82345 4.64632 7.39673 4.40549 8.07209C4.17242 8.74745 4.05589 9.50527 4.05589 10.3455C4.05589 11.2251 4.17242 12.0065 4.40549 12.6897C4.64632 13.3729 4.96872 13.9501 5.37269 14.4213C5.78443 14.8846 6.26221 15.238 6.80602 15.4814C7.34983 15.7249 7.93249 15.8466 8.55398 15.8466C8.91134 15.8466 9.23763 15.8309 9.53284 15.7995C9.82805 15.7602 10.1 15.6974 10.3486 15.611C10.6049 15.5246 10.8458 15.4147 11.071 15.2812C11.3041 15.1398 11.5372 14.9671 11.7702 14.7629C11.8635 14.6844 11.9645 14.6215 12.0732 14.5744C12.182 14.5194 12.2946 14.492 12.4112 14.492Z" fill="black"/>
<path d="M22.6409 13.5319L21.8718 17.6514H20.7431C20.5433 17.6514 20.3702 17.5706 20.2237 17.4091C20.0772 17.2475 20.004 17.049 20.004 16.8134C20.004 16.7797 20.004 16.7494 20.004 16.7225C20.0106 16.6889 20.0173 16.6552 20.0239 16.6215L20.6133 13.5319H18.5656L17.9863 16.7427C17.9264 17.0658 17.7899 17.298 17.5768 17.4394C17.3637 17.5807 17.1273 17.6514 16.8676 17.6514H15.7789L16.538 13.5319H15.3893C15.1763 13.5319 15.0131 13.4814 14.8999 13.3805C14.7867 13.2728 14.7301 13.0978 14.7301 12.8554C14.7301 12.7612 14.7401 12.6535 14.7601 12.5323L14.8899 11.7347H16.7877L17.3071 8.94799H15.1696L15.3594 7.90802C15.406 7.65223 15.5092 7.46376 15.669 7.3426C15.8288 7.2147 16.0885 7.15076 16.4481 7.15076H17.5568L18.1761 3.8996C18.2294 3.63035 18.3526 3.42168 18.5457 3.2736C18.7388 3.12551 18.9652 3.05147 19.2249 3.05147H20.3436L19.5845 7.15076H21.6221L22.3912 3.05147H23.4899C23.723 3.05147 23.9127 3.11878 24.0592 3.2534C24.2057 3.38803 24.279 3.55967 24.279 3.76834C24.279 3.83565 24.2757 3.88613 24.269 3.91979L23.6497 7.15076H25.6774L25.4876 8.19073C25.441 8.44651 25.3344 8.63835 25.168 8.76624C25.0081 8.88741 24.7518 8.94799 24.3988 8.94799H23.4L22.8906 11.7347H24.309C24.522 11.7347 24.6819 11.7885 24.7884 11.8962C24.9016 11.9972 24.9582 12.1722 24.9582 12.4213C24.9582 12.5155 24.9482 12.6232 24.9282 12.7444L24.8084 13.5319H22.6409ZM18.8154 11.7347H20.863L21.3724 8.94799H19.3348L18.8154 11.7347Z" fill="black"/>
</svg>
