<svg width="26" height="31" viewBox="0 0 26 31" fill="none" xmlns="http://www.w3.org/2000/svg">
<path fill-rule="evenodd" clip-rule="evenodd" d="M16.1156 12.0382L5.94189 10.2905V23.5225C5.94189 24.1467 6.44122 24.5836 7.00295 24.5836H24.4792C25.1033 24.5836 25.5402 24.0843 25.5402 23.5225V18.6542L16.1156 12.0382Z" fill="#00572E"/>
<path fill-rule="evenodd" clip-rule="evenodd" d="M16.1156 0.741211H7.06545C6.4413 0.741211 6.00439 1.24053 6.00439 1.80227V6.67065L16.1156 12.6001L21.4833 14.4101L25.6652 12.6001V6.67065L16.1156 0.741211Z" fill="#0FA86C"/>
<path d="M16.0531 6.67065H5.94189V12.6001H16.0531V6.67065Z" fill="#007D41"/>
<path fill-rule="evenodd" clip-rule="evenodd" d="M13.2445 5.48499H5.94189V20.4022H13.182C13.8062 20.4022 14.2431 19.9029 14.2431 19.3411V6.60846C14.3055 5.98431 13.8062 5.48499 13.2445 5.48499Z" fill="#000003"/>
<path fill-rule="evenodd" clip-rule="evenodd" d="M12.6203 6.10913H5.94189V21.0263H12.6203C13.2445 21.0263 13.6814 20.527 13.6814 19.9653V7.17019C13.6814 6.60845 13.2445 6.10913 12.6203 6.10913Z" fill="#000003"/>
<path fill-rule="evenodd" clip-rule="evenodd" d="M12.6203 6.10913H5.94189V19.778H12.6203C13.2445 19.778 13.6814 19.2787 13.6814 18.717V7.17019C13.6814 6.60845 13.2445 6.10913 12.6203 6.10913Z" fill="#000003"/>
<path fill-rule="evenodd" clip-rule="evenodd" d="M11.9962 6.10913H5.94189V19.778H11.9962C12.6203 19.778 13.0572 19.2787 13.0572 18.717V7.17019C13.1196 6.60845 12.6203 6.10913 11.9962 6.10913Z" fill="#000003"/>
<path d="M1.07375 6.10913H11.9964C12.6205 6.10913 13.0575 6.60845 13.0575 7.17019V18.0928C13.0575 18.717 12.5581 19.1539 11.9964 19.1539H1.07375C0.449601 19.1539 0.0126953 18.6546 0.0126953 18.0928V7.17019C0.0126953 6.60845 0.512016 6.10913 1.07375 6.10913Z" fill="#007D41"/>
<path fill-rule="evenodd" clip-rule="evenodd" d="M3.38281 16.2199L5.69217 12.6623L3.57006 9.10461H5.25527L6.37874 11.3516C6.50357 11.5388 6.56598 11.726 6.56598 11.8509C6.6284 11.6636 6.69081 11.5388 6.81564 11.3516L8.06395 9.10461H9.62433L7.50221 12.5999L9.68674 16.1575H8.06395L6.75323 13.6609C6.69081 13.5361 6.6284 13.4737 6.56598 13.3488C6.50357 13.4737 6.50357 13.5985 6.44115 13.6609L5.06802 16.1575H3.38281V16.2199Z" fill="white"/>
<path fill-rule="evenodd" clip-rule="evenodd" d="M24.5427 0.741211H16.1167V6.67065H25.6038V1.80227C25.6038 1.24053 25.1045 0.741211 24.5427 0.741211Z" fill="#3FB981"/>
<path d="M25.6662 12.6627H16.1167V18.5922H25.6662V12.6627Z" fill="#007D41"/>
<rect x="5.99854" y="29.8151" width="19.6676" height="1.09164" fill="white"/>
</svg>
