<svg width="27" height="27" viewBox="0 0 27 27" fill="none" xmlns="http://www.w3.org/2000/svg">
<path d="M3.45011 19.7154L4.37207 20.2477L14.6431 2.45832L13.7211 1.92601L3.45011 19.7154Z" fill="#E535AB"/>
<path d="M23.7827 18.2937H3.24072V19.3583H23.7827V18.2937Z" fill="#E535AB"/>
<path d="M3.64703 18.8899L13.9219 24.8223L14.4542 23.9003L4.17934 17.968L3.64703 18.8899Z" fill="#E535AB"/>
<path d="M12.5738 3.42946L22.8486 9.36182L23.3809 8.43986L13.1061 2.5075L12.5738 3.42946Z" fill="#E535AB"/>
<path d="M3.6508 8.43656L4.18311 9.35852L14.4579 3.42616L13.9256 2.50421L3.6508 8.43656Z" fill="#E535AB"/>
<path d="M12.3867 2.45832L22.6577 20.2477L23.5797 19.7154L13.3087 1.92601L12.3867 2.45832Z" fill="#E535AB"/>
<path d="M5.11979 7.73169H4.05518V19.5964H5.11979V7.73169Z" fill="#E535AB"/>
<path d="M22.9743 7.73169H21.9097V19.5964H22.9743V7.73169Z" fill="#E535AB"/>
<path d="M13.2753 23.5676L13.7402 24.3729L22.6766 19.2134L22.2116 18.408L13.2753 23.5676Z" fill="#E535AB"/>
<path d="M24.386 19.9431C23.7703 21.0141 22.3978 21.3797 21.3268 20.764C20.2558 20.1483 19.8902 18.7759 20.5059 17.7049C21.1216 16.6338 22.494 16.2683 23.5651 16.8839C24.6425 17.506 25.0081 18.8721 24.386 19.9431Z" fill="#E535AB"/>
<path d="M6.51781 9.62329C5.90213 10.6943 4.52967 11.0599 3.45864 10.4442C2.38761 9.82852 2.02205 8.45606 2.63773 7.38503C3.25342 6.314 4.62587 5.94844 5.6969 6.56413C6.76793 7.18622 7.1335 8.55226 6.51781 9.62329Z" fill="#E535AB"/>
<path d="M2.64457 19.9431C2.02889 18.8721 2.39445 17.506 3.46548 16.8839C4.53651 16.2683 5.90256 16.6338 6.52465 17.7049C7.14034 18.7759 6.77477 20.1419 5.70374 20.764C4.6263 21.3797 3.26025 21.0141 2.64457 19.9431Z" fill="#E535AB"/>
<path d="M20.5108 9.62329C19.8951 8.55226 20.2607 7.18622 21.3317 6.56413C22.4027 5.94844 23.7688 6.314 24.3909 7.38503C25.0065 8.45606 24.641 9.82211 23.57 10.4442C22.4989 11.0599 21.1265 10.6943 20.5108 9.62329Z" fill="#E535AB"/>
<path d="M13.5141 26.2207C12.2764 26.2207 11.2759 25.2202 11.2759 23.9824C11.2759 22.7446 12.2764 21.7441 13.5141 21.7441C14.7519 21.7441 15.7524 22.7446 15.7524 23.9824C15.7524 25.2138 14.7519 26.2207 13.5141 26.2207Z" fill="#E535AB"/>
<path d="M13.5141 5.58273C12.2764 5.58273 11.2759 4.58224 11.2759 3.34446C11.2759 2.10669 12.2764 1.1062 13.5141 1.1062C14.7519 1.1062 15.7524 2.10669 15.7524 3.34446C15.7524 4.58224 14.7519 5.58273 13.5141 5.58273Z" fill="#E535AB"/>
</svg>
