<svg width="27" height="27" viewBox="0 0 27 27" fill="none" xmlns="http://www.w3.org/2000/svg">
<path d="M26.3307 0.835693H0.677246V26.4891H26.3307V0.835693Z" fill="#F7DF1E"/>
<path d="M17.9067 20.8738C18.4234 21.7175 19.0957 22.3376 20.2847 22.3376C21.2836 22.3376 21.9217 21.8384 21.9217 21.1486C21.9217 20.322 21.2661 20.0292 20.1667 19.5483L19.564 19.2898C17.8245 18.5487 16.6688 17.6202 16.6688 15.6576C16.6688 13.8496 18.0464 12.4733 20.1992 12.4733C21.7319 12.4733 22.8338 13.0067 23.6278 14.4034L21.7507 15.6087C21.3374 14.8676 20.8915 14.5756 20.1992 14.5756C19.4932 14.5756 19.0456 15.0235 19.0456 15.6087C19.0456 16.3319 19.4936 16.6246 20.5278 17.0726L21.1305 17.3307C23.1787 18.2091 24.3351 19.1045 24.3351 21.1177C24.3351 23.288 22.6302 24.477 20.3405 24.477C18.1018 24.477 16.6554 23.4102 15.9477 22.0119L17.9067 20.8738ZM9.391 21.0826C9.76969 21.7545 10.1142 22.3226 10.9424 22.3226C11.7344 22.3226 12.234 22.0127 12.234 20.8078V12.6109H14.6447V20.8404C14.6447 23.3365 13.1812 24.4726 11.045 24.4726C9.11492 24.4726 7.99716 23.4737 7.42871 22.2706L9.391 21.0826Z" fill="#333333"/>
</svg>
