<svg width="27" height="34" viewBox="0 0 27 34" fill="none" xmlns="http://www.w3.org/2000/svg">
<g clip-path="url(#clip0_6194_68611)">
<path d="M22.1221 0.835693H15.3219C14.7372 0.835693 14.2632 1.3097 14.2632 1.89441V25.4304C14.2632 26.0151 14.7372 26.4891 15.3219 26.4891H22.1221C22.7068 26.4891 23.1808 26.0151 23.1808 25.4304V1.89441C23.1808 1.3097 22.7068 0.835693 22.1221 0.835693Z" fill="url(#paint0_linear_6194_68611)"/>
<path d="M17.9279 25.4304V26.4891H16.8692H10.069C9.48426 26.4891 9.01025 26.0151 9.01025 25.4304V8.28735C9.01025 7.70264 9.48426 7.22864 10.069 7.22864H16.8692C17.4539 7.22864 17.9279 7.70264 17.9279 8.28735V25.4304Z" fill="url(#paint1_linear_6194_68611)"/>
<path fill-rule="evenodd" clip-rule="evenodd" d="M12.7565 25.4304V26.4891H11.6978H4.89758C4.31287 26.4891 3.83887 26.0151 3.83887 25.4304V14.7211C3.83887 14.1364 4.31287 13.6624 4.89758 13.6624H11.6978C12.2825 13.6624 12.7565 14.1364 12.7565 14.7211V25.4304Z" fill="url(#paint2_linear_6194_68611)"/>
</g>
<rect x="3.66602" y="32.4548" width="19.6875" height="1.09163" fill="white"/>
<defs>
<linearGradient id="paint0_linear_6194_68611" x1="18.722" y1="0.835693" x2="18.722" y2="26.4891" gradientUnits="userSpaceOnUse">
<stop stop-color="#EBBB14"/>
<stop offset="1" stop-color="#B25400"/>
</linearGradient>
<linearGradient id="paint1_linear_6194_68611" x1="13.4691" y1="7.22864" x2="13.4691" y2="26.4891" gradientUnits="userSpaceOnUse">
<stop stop-color="#F9E583"/>
<stop offset="1" stop-color="#DE9800"/>
</linearGradient>
<linearGradient id="paint2_linear_6194_68611" x1="8.29768" y1="13.6624" x2="8.29768" y2="26.4891" gradientUnits="userSpaceOnUse">
<stop stop-color="#F9E68B"/>
<stop offset="1" stop-color="#F3CD32"/>
</linearGradient>
<clipPath id="clip0_6194_68611">
<rect width="25.6534" height="25.6534" fill="white" transform="translate(0.683105 0.835693)"/>
</clipPath>
</defs>
</svg>
