<svg width="29" height="37" viewBox="0 0 29 37" fill="none" xmlns="http://www.w3.org/2000/svg">
<path d="M14.2666 0.835693C7.1483 0.835694 7.59281 3.93878 7.59281 3.93878L7.60075 7.15355H14.3936V8.11877H4.90266C4.90266 8.11877 0.347656 7.59949 0.347656 14.8195C0.347656 22.0396 4.32337 21.7835 4.32337 21.7835H6.6961V18.4331C6.6961 18.4331 6.5682 14.4366 10.6083 14.4366C14.6484 14.4366 17.3456 14.4366 17.3456 14.4366C17.3456 14.4366 21.1309 14.4981 21.1309 10.7592C21.1309 7.02025 21.1309 4.57695 21.1309 4.57695C21.1309 4.57695 21.7056 0.835693 14.2666 0.835693ZM10.521 2.99748C11.1969 2.99748 11.7431 3.54658 11.7431 4.22596C11.7431 4.90533 11.1969 5.45443 10.521 5.45443C9.84519 5.45443 9.29896 4.90533 9.29896 4.22596C9.29896 3.54658 9.84519 2.99748 10.521 2.99748Z" fill="url(#paint0_linear_6194_68605)"/>
<path d="M14.4688 28.8744C21.5871 28.8744 21.1426 25.7713 21.1426 25.7713L21.1346 22.5565H14.3418V21.5913H23.8327C23.8327 21.5913 28.3877 22.1106 28.3877 14.8905C28.3877 7.6705 24.412 7.92654 24.412 7.92654H22.0393V11.2769C22.0393 11.2769 22.1672 15.2734 18.1271 15.2734C14.0869 15.2734 11.3898 15.2734 11.3898 15.2734C11.3898 15.2734 7.60453 15.2119 7.60453 18.9509C7.60453 22.6898 7.60453 25.1331 7.60453 25.1331C7.60453 25.1331 7.02983 28.8744 14.4688 28.8744ZM18.2144 26.7126C17.5385 26.7126 16.9923 26.1635 16.9923 25.4841C16.9923 24.8047 17.5385 24.2556 18.2144 24.2556C18.8902 24.2556 19.4364 24.8047 19.4364 25.4841C19.4364 26.1635 18.8902 26.7126 18.2144 26.7126Z" fill="url(#paint1_linear_6194_68605)"/>
<rect x="0.347656" y="35.525" width="25.6534" height="1.19515" fill="white"/>
<defs>
<linearGradient id="paint0_linear_6194_68605" x1="3.04236" y1="3.28664" x2="16.98" y2="17.1981" gradientUnits="userSpaceOnUse">
<stop stop-color="#387EB8"/>
<stop offset="1" stop-color="#366994"/>
</linearGradient>
<linearGradient id="paint1_linear_6194_68605" x1="11.5715" y1="12.1814" x2="26.537" y2="26.4444" gradientUnits="userSpaceOnUse">
<stop stop-color="#FFE052"/>
<stop offset="1" stop-color="#FFC331"/>
</linearGradient>
</defs>
</svg>
