<svg width="27" height="27" viewBox="0 0 27 27" fill="none" xmlns="http://www.w3.org/2000/svg">
<g clip-path="url(#clip0_6194_68623)">
<path fill-rule="evenodd" clip-rule="evenodd" d="M13.161 17.9417C6.10543 17.9417 0.385742 14.1111 0.385742 9.38579C0.385742 4.66045 6.10543 0.829834 13.161 0.829834C20.2166 0.829834 25.9362 4.66045 25.9362 9.38579C25.9362 14.1111 20.2166 17.9417 13.161 17.9417ZM15.1164 4.17491C9.7536 4.17491 5.40616 6.79369 5.40616 10.0241C5.40616 13.2545 9.7536 15.8733 15.1164 15.8733C20.4793 15.8733 24.4369 14.0829 24.4369 10.0241C24.4369 5.96658 20.4793 4.17491 15.1164 4.17491Z" fill="url(#paint0_linear_6194_68623)"/>
<path fill-rule="evenodd" clip-rule="evenodd" d="M19.8417 14.0817C19.8417 14.0817 20.6149 14.3151 21.0641 14.5424C21.22 14.6213 21.4897 14.7786 21.6842 14.9853C21.8748 15.1877 21.9677 15.3928 21.9677 15.3928L25.0149 20.5305L20.0897 20.5327L17.7866 16.2077C17.7866 16.2077 17.315 15.3974 17.0248 15.1625C16.7827 14.9665 16.6795 14.8967 16.4401 14.8967C16.2735 14.8967 15.2699 14.8967 15.2699 14.8967L15.2708 20.5296L10.9126 20.5315V6.14258H19.6645C19.6645 6.14258 23.6507 6.21447 23.6507 10.007C23.6507 13.7995 19.8417 14.0817 19.8417 14.0817ZM17.946 9.26372L15.3076 9.26202L15.3063 11.7087L17.946 11.7078C17.946 11.7078 19.1685 11.704 19.1685 10.4632C19.1685 9.1975 17.946 9.26372 17.946 9.26372Z" fill="url(#paint1_linear_6194_68623)"/>
</g>
<rect x="0.899414" y="25.8308" width="24.5618" height="1.09163" fill="white"/>
<defs>
<linearGradient id="paint0_linear_6194_68623" x1="0.385742" y1="0.829834" x2="16.209" y2="24.4563" gradientUnits="userSpaceOnUse">
<stop stop-color="#CBCED0"/>
<stop offset="1" stop-color="#84838B"/>
</linearGradient>
<linearGradient id="paint1_linear_6194_68623" x1="10.9126" y1="6.14258" x2="25.2998" y2="20.242" gradientUnits="userSpaceOnUse">
<stop stop-color="#276DC3"/>
<stop offset="1" stop-color="#165CAA"/>
</linearGradient>
<clipPath id="clip0_6194_68623">
<rect width="25.6534" height="19.8779" fill="white" transform="translate(0.353516 0.723511)"/>
</clipPath>
</defs>
</svg>
