<svg width="47" height="47" viewBox="0 0 47 47" fill="none" xmlns="http://www.w3.org/2000/svg">
<g clip-path="url(#clip0_6194_136787)">
<path d="M6.1676 16.8461C1.18351 15.1266 -0.112359 10.4166 0.498192 7.41367C1.23335 3.78774 4.18642 1.07141 7.81235 0.759906C11.5504 0.43594 15.1514 2.61648 16.4473 6.55391C17.2074 6.31717 17.9674 6.04304 18.74 5.85614C19.662 5.63186 20.5965 5.50725 21.5186 5.30789C21.6806 5.27051 21.88 5.14591 21.9547 5.00885C23.5122 2.05577 25.942 0.622844 29.2689 0.747446C32.0724 0.859588 34.7265 2.90307 35.7357 5.64432C35.8479 5.94336 36.0722 6.22995 36.3214 6.42931C41.1061 10.0552 43.9595 14.8275 44.9189 20.7461C44.9812 21.1324 45.0061 21.5187 45.0435 21.9049C45.0809 22.2912 45.1183 22.6775 45.1557 23.1011C45.7288 23.1011 46.3145 23.1011 46.9998 23.1011C46.3519 24.7334 45.7288 26.2785 45.0934 27.8858C44.6323 27.6989 44.1838 27.5245 43.6978 27.3251C44.0592 26.428 44.3956 25.5558 44.7569 24.6337C44.3831 24.6337 44.0592 24.6337 43.648 24.6337C43.6978 21.4564 43.1496 18.441 41.8412 15.5751C40.5329 12.7217 38.6888 10.292 36.2341 8.28589C36.1469 8.82168 36.0472 9.30763 36.0099 9.79357C35.9974 9.95556 36.1469 10.1549 36.2715 10.2795C38.5019 12.3978 40.1342 14.8898 41.1186 17.793C42.3023 21.2321 42.4643 24.7209 41.6045 28.2472C41.5173 28.621 41.592 28.8079 41.9285 29.0073C45.3301 31.0258 47.1991 35.1003 46.4889 38.9256C45.7538 42.9503 42.701 46.0778 38.7885 46.8254C34.6891 47.5979 30.6893 45.8036 28.5586 42.2276C28.4963 42.1279 28.4216 42.0157 28.3967 41.9659C27.2752 42.1279 26.1787 42.2774 25.0947 42.4643C24.9327 42.4892 24.7707 42.6761 24.671 42.8256C23.288 45.1308 21.2819 46.5388 18.6029 46.9251C14.5907 47.5107 10.6533 44.919 9.60662 40.9815C9.48202 40.5205 9.2702 40.1841 8.92131 39.8726C5.12094 36.3837 2.84072 32.0849 2.04326 26.9887C1.98096 26.6024 1.95604 26.2162 1.91866 25.8299C1.88128 25.4436 1.8439 25.0574 1.80652 24.6337C1.22089 24.6337 0.635255 24.6337 -0.0375977 24.6337C0.610334 23.0139 1.23335 21.4439 1.86882 19.8614C2.34231 20.0483 2.77842 20.2228 3.26436 20.4222C2.90302 21.3193 2.56659 22.1915 2.20524 23.1136C2.57905 23.1136 2.91548 23.1136 3.31421 23.1136C3.28928 25.9296 3.68801 28.6334 4.72221 31.2376C5.75641 33.8418 7.25164 36.1345 9.2702 38.1406C9.38234 37.5674 9.50694 37.0566 9.5817 36.5332C9.59416 36.3962 9.4571 36.1968 9.34496 36.0722C7.22672 33.5926 5.81871 30.7641 5.18324 27.5619C4.48547 24.0605 4.75959 20.6464 6.01808 17.3071C6.06792 17.195 6.1053 17.0704 6.14268 16.9582C6.1676 16.9084 6.1676 16.871 6.1676 16.8461ZM45.1432 37.2684C45.1307 32.7578 41.4051 29.0571 36.907 29.082C32.4213 29.1069 28.7331 32.7952 28.7331 37.2933C28.7331 41.8039 32.4462 45.5171 36.9444 45.5046C41.4425 45.4921 45.1557 41.779 45.1432 37.2684ZM31.6612 23.0886C31.5989 20.6464 31.1254 18.3164 30.2906 16.0486C30.1785 15.7371 30.0165 15.6374 29.6925 15.6374C25.9295 15.6499 22.1665 15.6374 18.416 15.6499C17.9051 15.6499 17.2697 15.5004 16.9332 15.7496C16.5844 15.9988 16.5096 16.6467 16.3601 17.1327C15.7495 19.064 15.3882 21.0327 15.3633 23.0886C20.7835 23.0886 26.2037 23.0886 31.6612 23.0886ZM15.3508 24.6337C15.3882 26.7021 15.7371 28.6957 16.3725 30.6395C19.525 30.4028 21.556 31.1629 23.7116 33.3559C23.8237 33.468 24.0231 33.5428 24.1851 33.5552C25.3314 33.5677 26.4902 33.5552 27.6366 33.5677C27.8982 33.5677 28.0104 33.4805 28.1225 33.2437C28.7206 31.9229 29.5928 30.8015 30.7018 29.867C30.8139 29.7673 30.9385 29.6427 30.9759 29.5181C31.412 27.9232 31.6363 26.3034 31.6612 24.6337C26.2161 24.6337 20.7959 24.6337 15.3508 24.6337ZM10.8153 38.801C10.8277 42.4768 13.8556 45.5046 17.5313 45.5046C21.2071 45.5046 24.2349 42.4768 24.2474 38.801C24.2599 35.1128 21.1946 32.06 17.5064 32.0725C13.8306 32.0849 10.8028 35.1252 10.8153 38.801ZM1.85636 8.93382C1.85636 12.6096 4.88419 15.6499 8.5475 15.6623C12.2233 15.6748 15.2636 12.647 15.2885 8.98366C15.3134 5.28297 12.2607 2.21775 8.57242 2.21775C4.89666 2.23021 1.86882 5.25805 1.85636 8.93382ZM28.7206 2.21775C25.4685 2.21775 22.7522 4.90916 22.7522 8.17374C22.7397 11.4259 25.4311 14.1422 28.6957 14.1547C31.9727 14.1671 34.7015 11.4508 34.6891 8.17374C34.6891 4.93408 31.9852 2.23021 28.7206 2.21775ZM6.42926 24.6337C6.34204 27.8111 8.47274 33.2811 10.3667 34.7639C11.4134 32.9696 12.921 31.7236 14.8399 31.0258C14.6032 29.9418 14.3291 28.9076 14.1546 27.8485C13.9802 26.7893 13.8929 25.7053 13.7683 24.6337C11.3137 24.6337 8.88393 24.6337 6.42926 24.6337ZM40.6201 23.1011C40.4955 20.5468 39.8476 18.1918 38.7137 15.9614C38.5767 15.6997 38.4271 15.6623 38.1655 15.6623C36.1594 15.6748 34.1533 15.6623 32.1472 15.6623C32.035 15.6623 31.9104 15.6748 31.7485 15.6997C32.6456 18.1045 33.0817 20.5717 33.1938 23.1136C35.6859 23.1011 38.1281 23.1011 40.6201 23.1011ZM13.8057 23.1011C13.9054 20.5343 14.3664 18.0796 15.2511 15.6623C14.6032 15.6623 14.03 15.6623 13.4568 15.6623C13.3572 15.6623 13.245 15.6997 13.1578 15.7496C11.5878 16.7962 9.86829 17.2323 7.99925 17.1451C7.88711 17.1451 7.70021 17.2448 7.65037 17.3445C6.87783 19.1761 6.45418 21.0825 6.37942 23.0886C8.85901 23.1011 11.3012 23.1011 13.8057 23.1011ZM32.8076 28.5213C35.1875 27.4248 37.6048 27.3127 40.1716 28.1475C40.346 26.9389 40.508 25.805 40.67 24.6462C38.1156 24.6462 35.661 24.6462 33.2312 24.6462C33.0942 25.9171 32.9571 27.1756 32.8076 28.5213ZM17.5812 14.1297C19.7991 14.1297 21.9547 14.1297 23.9982 14.1297C23.4126 13.3697 22.7023 12.6345 22.2288 11.7748C21.7553 10.915 21.5061 9.93064 21.1573 8.99612C19.7493 10.5038 18.5282 12.1984 17.5812 14.1297ZM15.0393 14.1422C15.8492 14.192 15.8492 14.192 16.2105 13.4818C16.9831 11.9492 17.8802 10.5038 18.9892 9.19548C19.6496 8.41049 20.3473 7.67534 21.0451 6.89034C19.662 7.0897 18.3412 7.45105 17.0578 7.96192C16.7962 8.0616 16.7588 8.22359 16.7713 8.46033C16.8336 9.66897 16.684 10.8527 16.1981 11.9617C15.8741 12.7093 15.438 13.407 15.0393 14.1422ZM25.8797 38.7013C26.2286 38.2901 26.6398 37.8042 27.0385 37.3307C27.1133 37.2435 27.2005 37.1313 27.2129 37.0192C27.2877 36.3837 27.35 35.7358 27.4248 35.0878C26.5899 35.0878 25.7551 35.0878 24.995 35.0878C25.3065 36.2965 25.5931 37.4927 25.8797 38.7013ZM33.306 14.1422C34.7514 14.1422 36.1469 14.1422 37.692 14.1422C36.8945 13.2077 36.1718 12.3604 35.4616 11.5255C35.0878 12.0613 34.8012 12.5224 34.4648 12.946C34.1159 13.3447 33.7172 13.7185 33.306 14.1422ZM27.7612 40.4831C27.6241 40.047 27.5244 39.6857 27.4621 39.4614C26.9886 39.91 26.4902 40.371 26.0043 40.832C26.5525 40.7323 27.1257 40.6077 27.7612 40.4831Z" fill="#3F6587"/>
<path d="M40.6326 38.0409C40.6326 38.5642 40.6326 39.0253 40.6326 39.5237C39.8974 39.5237 39.1872 39.5361 38.477 39.5112C38.2153 39.4987 38.0782 39.586 37.9786 39.8227C37.8166 40.1965 37.6172 40.5703 37.4054 41.0064C38.0159 41.0064 38.5642 41.0064 39.1374 41.0064C39.1374 41.5173 39.1374 41.9783 39.1374 42.4643C37.7792 42.4643 36.4086 42.4643 34.9881 42.4643C35.474 41.4799 35.9475 40.5329 36.4459 39.5112C35.3245 39.5112 34.2779 39.5112 33.2188 39.5112C33.2188 39.0003 33.2188 38.5518 33.2188 38.0409C34.066 38.0409 34.9133 38.0409 35.8603 38.0409C35.2622 37.2933 34.8884 36.5457 34.7389 35.6984C34.4274 33.9789 35.474 32.4089 37.1686 32.0849C38.7386 31.7859 40.2837 32.845 40.6201 34.4773C40.6575 34.6393 40.6575 34.8137 40.67 35.0131C40.1591 35.0131 39.6856 35.0131 39.2246 35.0131C39.1249 34.7639 39.0626 34.5022 38.938 34.2779C38.5891 33.6674 37.8664 33.4182 37.206 33.6424C36.5207 33.8792 36.1095 34.552 36.1967 35.2872C36.284 36.0348 36.6578 36.6329 37.1562 37.2061C37.7044 37.854 38.315 38.153 39.1623 38.0409C39.6358 37.9911 40.1217 38.0409 40.6326 38.0409Z" fill="#F37A20"/>
<path d="M18.2539 39.5113C18.2539 40.0346 18.2539 40.4956 18.2539 40.994C17.8428 40.994 17.4316 40.994 16.9332 40.994C17.4814 42.3023 18.5032 42.5889 19.7367 42.5142C19.7367 43.0126 19.7367 43.4861 19.7367 43.9596C18.067 44.2337 16.036 43.4985 15.3258 41.0189C14.8398 41.0189 14.3539 41.0189 13.8306 41.0189C13.8306 40.533 13.8306 40.072 13.8306 39.5611C14.2916 39.5611 14.7651 39.5611 15.2635 39.5611C15.2635 39.0378 15.2635 38.5643 15.2635 38.0659C14.8025 38.0659 14.3414 38.0659 13.843 38.0659C13.843 37.5675 13.843 37.094 13.843 36.5706C14.3414 36.5706 14.8398 36.5706 15.3258 36.5706C15.8616 34.5895 17.444 33.3434 19.7616 33.5926C19.7616 33.8294 19.7616 34.0661 19.7616 34.3029C19.7616 34.5396 19.7616 34.7639 19.7616 35.063C18.9517 35.038 18.1667 35.0505 17.5686 35.6361C17.3194 35.8729 17.1325 36.1719 16.8459 36.5457C17.3942 36.5457 17.8054 36.5457 18.2415 36.5457C18.2415 37.0566 18.2415 37.5052 18.2415 38.0285C17.7805 38.0285 17.307 38.0285 16.8086 38.0285C16.8086 38.5518 16.8086 39.0253 16.8086 39.5237C17.282 39.5113 17.7306 39.5113 18.2539 39.5113Z" fill="#F37A20"/>
<path d="M10.8155 12.6842C10.2921 12.6842 9.8311 12.6842 9.3327 12.6842C9.3327 13.1826 9.3327 13.6437 9.3327 14.1296C8.82183 14.1296 8.3608 14.1296 7.83747 14.1296C7.83747 13.6935 7.84993 13.2699 7.82501 12.8338C7.81255 12.7092 7.73779 12.5222 7.6381 12.4724C6.50422 11.8868 6.21764 10.9149 6.36716 9.71869C6.84065 9.71869 7.30168 9.71869 7.67548 9.71869C7.83747 10.1797 7.89977 10.6906 8.18635 11.0021C8.38572 11.2264 8.89659 11.1765 9.32024 11.2513C9.32024 10.9273 9.3327 10.7155 9.32024 10.5037C9.29532 10.0053 9.03365 9.73116 8.5477 9.68131C7.11477 9.54425 6.34224 8.6845 6.34224 7.25157C6.34224 6.59118 6.34224 5.91832 6.34224 5.20809C6.85311 5.20809 7.31414 5.20809 7.82501 5.20809C7.82501 4.69722 7.82501 4.23619 7.82501 3.75024C8.33588 3.75024 8.79691 3.75024 9.32024 3.75024C9.32024 4.18635 9.30778 4.62246 9.3327 5.04611C9.34516 5.17071 9.41992 5.35761 9.5196 5.40745C10.6535 6.00555 10.9401 6.96498 10.7905 8.17363C10.3171 8.17363 9.85603 8.17363 9.48222 8.17363C9.32024 7.7126 9.25793 7.20173 8.97135 6.89022C8.77199 6.66594 8.26112 6.71578 7.83747 6.64102C7.83747 6.96498 7.82501 7.17681 7.83747 7.38863C7.86239 7.88704 8.12405 8.16117 8.61 8.21101C10.0429 8.34807 10.8155 9.20783 10.8155 10.6408C10.8155 11.2887 10.8155 11.9491 10.8155 12.6842Z" fill="#F37A20"/>
<path d="M30.9385 9.68138C30.4525 9.68138 29.9915 9.68138 29.4931 9.68138C29.4931 10.6782 29.4931 11.6252 29.4931 12.622C28.9947 12.622 28.5212 12.622 27.9979 12.622C27.9979 11.6626 27.9979 10.6907 27.9979 9.69384C27.487 9.69384 27.026 9.69384 26.5276 9.69384C26.5276 9.18297 26.5276 8.72194 26.5276 8.19861C27.001 8.19861 27.4745 8.19861 28.0726 8.19861C27.9605 7.8871 27.9106 7.62544 27.7736 7.43854C27.163 6.59124 26.54 5.76886 25.8921 4.90911C26.3033 4.5976 26.6771 4.31102 27.0883 3.99951C27.6365 4.72221 28.1723 5.41998 28.733 6.16759C29.2937 5.43244 29.8171 4.73467 30.3778 3.99951C30.7765 4.29856 31.1503 4.58514 31.574 4.89665C30.9385 5.7564 30.303 6.57878 29.7049 7.41362C29.5679 7.61298 29.5056 7.86218 29.381 8.17369C29.9666 8.17369 30.4525 8.17369 30.9509 8.17369C30.9385 8.69702 30.9385 9.15805 30.9385 9.68138Z" fill="#F37A20"/>
</g>
<defs>
<clipPath id="clip0_6194_136787">
<rect width="47" height="46.2773" fill="white" transform="translate(0 0.722656)"/>
</clipPath>
</defs>
</svg>
