<svg width="47" height="47" viewBox="0 0 47 47" fill="none" xmlns="http://www.w3.org/2000/svg">
<path d="M23.5004 9.81812C21.8687 9.81812 20.5459 11.1409 20.5459 12.7727C20.5459 14.4044 21.8687 15.7272 23.5004 15.7272C25.1322 15.7272 26.455 14.4044 26.455 12.7727C26.4532 11.1417 25.1315 9.82 23.5004 9.81812ZM23.5004 13.9278C22.8625 13.9278 22.3453 13.4106 22.3453 12.7727C22.3453 12.1347 22.8625 11.6175 23.5004 11.6175C24.1384 11.6175 24.6556 12.1347 24.6556 12.7727C24.6549 13.4104 24.1381 13.9271 23.5004 13.9278Z" fill="#F37A20"/>
<path d="M42.0941 36.8245C42.0936 36.8245 42.0929 36.8245 42.0924 36.8245H39.765V18.6618H41.3683C41.8645 18.6618 42.2811 18.2948 42.2811 17.7933V13.645C42.2781 13.2803 42.0613 12.9523 41.7291 12.8101L24.0585 5.16417C23.832 5.06637 23.5758 5.06637 23.3493 5.16417L5.69767 12.8101C5.37066 12.955 5.16182 13.2842 5.1682 13.645V17.7933C5.15643 18.2612 5.52226 18.6501 5.98523 18.662C6.00158 18.6625 6.01785 18.6624 6.0342 18.6618H7.68433V36.8245H4.9076C4.41238 36.8184 4.00602 37.2193 4 37.7198C4 37.7204 4 37.721 4 37.7216V42.0406C4 42.5422 4.41103 42.909 4.9076 42.909H42.0924C42.5887 42.909 43 42.5422 43 42.0406V37.7216C42.995 37.2211 42.5894 36.8194 42.0941 36.8245ZM6.96544 16.8456V14.244L23.7247 6.98689L40.4839 14.244V16.8456H6.96544ZM37.9677 18.6618V36.8245H33.5645V18.6618H37.9677ZM31.7673 18.6618V36.8245H27.4539V18.6618H31.7673ZM25.6567 18.6618V36.8245H21.3433V18.6618H25.6567ZM19.5461 18.6618V36.8245H15.2327V18.6618H19.5461ZM13.4355 18.6618V36.8245H9.48157V18.6618H13.4355ZM41.2028 41.0927H5.79724V38.6408H41.2028V41.0927Z" fill="#3F6587"/>
</svg>
